%TF.GenerationSoftware,KiCad,Pcbnew,9.0.2+dfsg-1*%
%TF.CreationDate,2026-09-04T21:04:27+02:00*%
%TF.ProjectId,memory-card,6d656d6f-7279-42d6-9361-72642e6b6963,rev?*%
%TF.SameCoordinates,Original*%
%TF.FileFunction,Copper,L2,Bot*%
%TF.FilePolarity,Positive*%
%FSLAX46Y46*%
G04 Gerber Fmt 4.6, Leading zero omitted, Abs format (unit mm)*
G04 Created by KiCad (PCBNEW 9.0.2+dfsg-1) date 2026-09-04 21:04:27*
%MOMM*%
%LPD*%
G01*
G04 APERTURE LIST*
G04 Aperture macros list*
%AMRoundRect*
0 Rectangle with rounded corners*
0 $1 Rounding radius*
0 $2 $3 $4 $5 $6 $7 $8 $9 X,Y pos of 4 corners*
0 Add a 4 corners polygon primitive as box body*
4,1,4,$2,$3,$4,$5,$6,$7,$8,$9,$2,$3,0*
0 Add four circle primitives for the rounded corners*
1,1,$1+$1,$2,$3*
1,1,$1+$1,$4,$5*
1,1,$1+$1,$6,$7*
1,1,$1+$1,$8,$9*
0 Add four rect primitives between the rounded corners*
20,1,$1+$1,$2,$3,$4,$5,0*
20,1,$1+$1,$4,$5,$6,$7,0*
20,1,$1+$1,$6,$7,$8,$9,0*
20,1,$1+$1,$8,$9,$2,$3,0*%
G04 Aperture macros list end*
%TA.AperFunction,ComponentPad*%
%ADD10C,1.600000*%
%TD*%
%TA.AperFunction,ComponentPad*%
%ADD11C,1.700000*%
%TD*%
%TA.AperFunction,ComponentPad*%
%ADD12R,1.700000X1.700000*%
%TD*%
%TA.AperFunction,ComponentPad*%
%ADD13RoundRect,0.250000X0.550000X0.550000X-0.550000X0.550000X-0.550000X-0.550000X0.550000X-0.550000X0*%
%TD*%
%TA.AperFunction,ComponentPad*%
%ADD14C,1.400000*%
%TD*%
%TA.AperFunction,ViaPad*%
%ADD15C,0.600000*%
%TD*%
%TA.AperFunction,ViaPad*%
%ADD16C,1.000000*%
%TD*%
%TA.AperFunction,Conductor*%
%ADD17C,0.250000*%
%TD*%
%TA.AperFunction,Conductor*%
%ADD18C,1.000000*%
%TD*%
%ADD19C,0.300000*%
%ADD20C,0.350000*%
G04 APERTURE END LIST*
D10*
%TO.P,C2,1*%
%TO.N,+5V*%
X68025000Y-112885000D03*
%TO.P,C2,2*%
%TO.N,GND*%
X73025000Y-112885000D03*
%TD*%
D11*
%TO.P,J1,1,Vss*%
%TO.N,GND*%
X137795000Y-153760000D03*
%TO.P,J1,2,SYNC*%
%TO.N,unconnected-(J1-SYNC-Pad2)*%
X135255000Y-153760000D03*
%TO.P,J1,3,VP/*%
%TO.N,unconnected-(J1-VP{slash}-Pad3)*%
X132715000Y-153760000D03*
%TO.P,J1,4,+5V*%
%TO.N,+5V*%
X130175000Y-153760000D03*
%TO.P,J1,5,A0*%
%TO.N,/A0*%
X127635000Y-153760000D03*
%TO.P,J1,6,A1*%
%TO.N,/A1*%
X125095000Y-153760000D03*
%TO.P,J1,7,A2*%
%TO.N,/A2*%
X122555000Y-153760000D03*
%TO.P,J1,8,A3*%
%TO.N,/A3*%
X120015000Y-153760000D03*
%TO.P,J1,9,A4*%
%TO.N,/A4*%
X117475000Y-153760000D03*
%TO.P,J1,10,A5*%
%TO.N,/A5*%
X114935000Y-153760000D03*
%TO.P,J1,11,A6*%
%TO.N,/A6*%
X112395000Y-153760000D03*
%TO.P,J1,12,A7*%
%TO.N,/A7*%
X109855000Y-153760000D03*
%TO.P,J1,13,A8*%
%TO.N,/A8*%
X107315000Y-153760000D03*
%TO.P,J1,14,A9*%
%TO.N,/A9*%
X104775000Y-153760000D03*
%TO.P,J1,15,A10*%
%TO.N,/A10*%
X102235000Y-153760000D03*
%TO.P,J1,16,A11*%
%TO.N,/A11*%
X99695000Y-153760000D03*
%TO.P,J1,17,A12*%
%TO.N,/A12*%
X97155000Y-153760000D03*
%TO.P,J1,18,A13*%
%TO.N,/A13*%
X94615000Y-153760000D03*
%TO.P,J1,19,A14*%
%TO.N,/A14*%
X92075000Y-153760000D03*
%TO.P,J1,20,A15*%
%TO.N,/A15*%
X89535000Y-153760000D03*
%TO.P,J1,21,D0*%
%TO.N,/D0*%
X89535000Y-151220000D03*
%TO.P,J1,22,D1*%
%TO.N,/D1*%
X92075000Y-151220000D03*
%TO.P,J1,23,D2*%
%TO.N,/D2*%
X94615000Y-151220000D03*
%TO.P,J1,24,D3*%
%TO.N,/D3*%
X97155000Y-151220000D03*
%TO.P,J1,25,D4*%
%TO.N,/D4*%
X99695000Y-151220000D03*
%TO.P,J1,26,D5*%
%TO.N,/D5*%
X102235000Y-151220000D03*
%TO.P,J1,27,D6*%
%TO.N,/D6*%
X104775000Y-151220000D03*
%TO.P,J1,28,D7*%
%TO.N,/D7*%
X107315000Y-151220000D03*
%TO.P,J1,29,RW/*%
%TO.N,RW{slash}*%
X109855000Y-151220000D03*
%TO.P,J1,30,NC*%
%TO.N,ROM_PGM{slash}*%
X112395000Y-151220000D03*
%TO.P,J1,31,BE*%
%TO.N,unconnected-(J1-BE-Pad31)*%
X114935000Y-151220000D03*
%TO.P,J1,32,IRQ/*%
%TO.N,unconnected-(J1-IRQ{slash}-Pad32)*%
X117475000Y-151220000D03*
%TO.P,J1,33,NMI/*%
%TO.N,unconnected-(J1-NMI{slash}-Pad33)*%
X120015000Y-151220000D03*
%TO.P,J1,34,RES/*%
%TO.N,unconnected-(J1-RES{slash}-Pad34)*%
X122555000Y-151220000D03*
%TO.P,J1,35,RAM/*%
%TO.N,RAM{slash}*%
X125095000Y-151220000D03*
%TO.P,J1,36,ROM/*%
%TO.N,ROM{slash}*%
X127635000Y-151220000D03*
%TO.P,J1,37,+5V*%
%TO.N,+5V*%
X130175000Y-151220000D03*
%TO.P,J1,38,ACC/*%
%TO.N,ACC{slash}*%
X132715000Y-151220000D03*
%TO.P,J1,39,CLK*%
%TO.N,CLK*%
X135255000Y-151220000D03*
D12*
%TO.P,J1,40,Vss*%
%TO.N,GND*%
X137795000Y-151220000D03*
%TD*%
D13*
%TO.P,U3,1,NC*%
%TO.N,unconnected-(U3-NC-Pad1)*%
X159385000Y-115425000D03*
D10*
%TO.P,U3,2,A16*%
%TO.N,GND*%
X159385000Y-112885000D03*
%TO.P,U3,3,A15*%
X159385000Y-110345000D03*
%TO.P,U3,4,A12*%
%TO.N,/A12*%
X159385000Y-107805000D03*
%TO.P,U3,5,A7*%
%TO.N,/A7*%
X159385000Y-105265000D03*
%TO.P,U3,6,A6*%
%TO.N,/A6*%
X159385000Y-102725000D03*
%TO.P,U3,7,A5*%
%TO.N,/A5*%
X159385000Y-100185000D03*
%TO.P,U3,8,A4*%
%TO.N,/A4*%
X159385000Y-97645000D03*
%TO.P,U3,9,A3*%
%TO.N,/A3*%
X159385000Y-95105000D03*
%TO.P,U3,10,A2*%
%TO.N,/A2*%
X159385000Y-92565000D03*
%TO.P,U3,11,A1*%
%TO.N,/A1*%
X159385000Y-90025000D03*
%TO.P,U3,12,A0*%
%TO.N,/A0*%
X159385000Y-87485000D03*
%TO.P,U3,13,D0*%
%TO.N,/D0*%
X159385000Y-84945000D03*
%TO.P,U3,14,D1*%
%TO.N,/D1*%
X159385000Y-82405000D03*
%TO.P,U3,15,D2*%
%TO.N,/D2*%
X159385000Y-79865000D03*
%TO.P,U3,16,GND*%
%TO.N,GND*%
X159385000Y-77325000D03*
%TO.P,U3,17,D3*%
%TO.N,/D3*%
X144145000Y-77325000D03*
%TO.P,U3,18,D4*%
%TO.N,/D4*%
X144145000Y-79865000D03*
%TO.P,U3,19,D5*%
%TO.N,/D5*%
X144145000Y-82405000D03*
%TO.P,U3,20,D6*%
%TO.N,/D6*%
X144145000Y-84945000D03*
%TO.P,U3,21,D7*%
%TO.N,/D7*%
X144145000Y-87485000D03*
%TO.P,U3,22,CE*%
%TO.N,ROM{slash}*%
X144145000Y-90025000D03*
%TO.P,U3,23,A10*%
%TO.N,/A10*%
X144145000Y-92565000D03*
%TO.P,U3,24,OE*%
%TO.N,Net-(U3-OE)*%
X144145000Y-95105000D03*
%TO.P,U3,25,A11*%
%TO.N,/A11*%
X144145000Y-97645000D03*
%TO.P,U3,26,A9*%
%TO.N,/A9*%
X144145000Y-100185000D03*
%TO.P,U3,27,A8*%
%TO.N,/A8*%
X144145000Y-102725000D03*
%TO.P,U3,28,A13*%
%TO.N,/A13*%
X144145000Y-105265000D03*
%TO.P,U3,29,A14*%
%TO.N,/A14*%
X144145000Y-107805000D03*
%TO.P,U3,30,NC*%
%TO.N,unconnected-(U3-NC-Pad30)*%
X144145000Y-110345000D03*
%TO.P,U3,31,PGM*%
%TO.N,ROM_PGM{slash}*%
X144145000Y-112885000D03*
%TO.P,U3,32,VCC*%
%TO.N,+5V*%
X144145000Y-115425000D03*
%TD*%
D13*
%TO.P,U2,1*%
%TO.N,CLK*%
X75565000Y-134475000D03*
D10*
%TO.P,U2,2*%
%TO.N,ROM{slash}*%
X75565000Y-131935000D03*
%TO.P,U2,3*%
%TO.N,RAM{slash}*%
X75565000Y-129395000D03*
%TO.P,U2,4*%
%TO.N,/A15*%
X75565000Y-126855000D03*
%TO.P,U2,5*%
X75565000Y-124315000D03*
%TO.P,U2,6*%
%TO.N,ROM{slash}*%
X75565000Y-121775000D03*
%TO.P,U2,7,GND*%
%TO.N,GND*%
X75565000Y-119235000D03*
%TO.P,U2,8*%
%TO.N,ACC{slash}*%
X67945000Y-119235000D03*
%TO.P,U2,9*%
%TO.N,ROM{slash}*%
X67945000Y-121775000D03*
%TO.P,U2,10*%
%TO.N,/A14*%
X67945000Y-124315000D03*
%TO.P,U2,11*%
%TO.N,Net-(U3-OE)*%
X67945000Y-126855000D03*
%TO.P,U2,12*%
%TO.N,/A15*%
X67945000Y-129395000D03*
%TO.P,U2,13*%
%TO.N,RW{slash}*%
X67945000Y-131935000D03*
%TO.P,U2,14,VCC*%
%TO.N,+5V*%
X67945000Y-134475000D03*
%TD*%
D14*
%TO.P,R1,1*%
%TO.N,ROM_PGM{slash}*%
X140970000Y-112885000D03*
%TO.P,R1,2*%
%TO.N,+5V*%
X140970000Y-115425000D03*
%TD*%
D13*
%TO.P,U1,1,A14*%
%TO.N,/A14*%
X75565000Y-109075000D03*
D10*
%TO.P,U1,2,A12*%
%TO.N,/A12*%
X75565000Y-106535000D03*
%TO.P,U1,3,A7*%
%TO.N,/A7*%
X75565000Y-103995000D03*
%TO.P,U1,4,A6*%
%TO.N,/A6*%
X75565000Y-101455000D03*
%TO.P,U1,5,A5*%
%TO.N,/A5*%
X75565000Y-98915000D03*
%TO.P,U1,6,A4*%
%TO.N,/A4*%
X75565000Y-96375000D03*
%TO.P,U1,7,A3*%
%TO.N,/A3*%
X75565000Y-93835000D03*
%TO.P,U1,8,A2*%
%TO.N,/A2*%
X75565000Y-91295000D03*
%TO.P,U1,9,A1*%
%TO.N,/A1*%
X75565000Y-88755000D03*
%TO.P,U1,10,A0*%
%TO.N,/A0*%
X75565000Y-86215000D03*
%TO.P,U1,11,Q0*%
%TO.N,/D0*%
X75565000Y-83675000D03*
%TO.P,U1,12,Q1*%
%TO.N,/D1*%
X75565000Y-81135000D03*
%TO.P,U1,13,Q2*%
%TO.N,/D2*%
X75565000Y-78595000D03*
%TO.P,U1,14,GND*%
%TO.N,GND*%
X75565000Y-76055000D03*
%TO.P,U1,15,Q3*%
%TO.N,/D3*%
X67945000Y-76055000D03*
%TO.P,U1,16,Q4*%
%TO.N,/D4*%
X67945000Y-78595000D03*
%TO.P,U1,17,Q5*%
%TO.N,/D5*%
X67945000Y-81135000D03*
%TO.P,U1,18,Q6*%
%TO.N,/D6*%
X67945000Y-83675000D03*
%TO.P,U1,19,Q7*%
%TO.N,/D7*%
X67945000Y-86215000D03*
%TO.P,U1,20,~{CS}*%
%TO.N,RAM{slash}*%
X67945000Y-88755000D03*
%TO.P,U1,21,A10*%
%TO.N,/A10*%
X67945000Y-91295000D03*
%TO.P,U1,22,~{OE}*%
%TO.N,/A14*%
X67945000Y-93835000D03*
%TO.P,U1,23,A11*%
%TO.N,/A11*%
X67945000Y-96375000D03*
%TO.P,U1,24,A9*%
%TO.N,/A9*%
X67945000Y-98915000D03*
%TO.P,U1,25,A8*%
%TO.N,/A8*%
X67945000Y-101455000D03*
%TO.P,U1,26,A13*%
%TO.N,/A13*%
X67945000Y-103995000D03*
%TO.P,U1,27,~{WE}*%
%TO.N,RW{slash}*%
X67945000Y-106535000D03*
%TO.P,U1,28,VCC*%
%TO.N,+5V*%
X67945000Y-109075000D03*
%TD*%
%TO.P,C3,1*%
%TO.N,+5V*%
X67945000Y-138285000D03*
%TO.P,C3,2*%
%TO.N,GND*%
X72945000Y-138285000D03*
%TD*%
%TO.P,C1,1*%
%TO.N,+5V*%
X144145000Y-119235000D03*
%TO.P,C1,2*%
%TO.N,GND*%
X149145000Y-119235000D03*
%TD*%
D15*
%TO.N,/D7*%
X107315000Y-87485000D03*
%TO.N,/A9*%
X103411000Y-100185000D03*
%TO.N,CLK*%
X135255000Y-134475000D03*
%TO.N,/D5*%
X102235000Y-82405000D03*
%TO.N,/D4*%
X99695000Y-79865000D03*
%TO.N,/D2*%
X94615000Y-78595000D03*
%TO.N,/A5*%
X113665000Y-98915000D03*
%TO.N,/D0*%
X89535000Y-83675000D03*
%TO.N,/A4*%
X116205000Y-96375000D03*
%TO.N,ACC{slash}*%
X132715000Y-120505000D03*
%TO.N,RW{slash}*%
X109855000Y-107805000D03*
X109855000Y-133205000D03*
%TO.N,/A11*%
X98519000Y-97645000D03*
%TO.N,RAM{slash}*%
X125095000Y-90025000D03*
X83820000Y-75420000D03*
X83820000Y-90025000D03*
X125095000Y-129390000D03*
%TO.N,/A14*%
X90805000Y-125585000D03*
X90805000Y-109075000D03*
X90805000Y-95105000D03*
%TO.N,/A0*%
X126459000Y-86215000D03*
%TO.N,/D6*%
X104775000Y-84945000D03*
%TO.N,/A7*%
X108679000Y-103995000D03*
%TO.N,/A12*%
X95979000Y-106535000D03*
%TO.N,/A10*%
X100965000Y-92565000D03*
%TO.N,ROM_PGM{slash}*%
X112395000Y-112885000D03*
%TO.N,/A3*%
X118745000Y-93835000D03*
%TO.N,/D1*%
X92075000Y-81135000D03*
%TO.N,/A1*%
X123731000Y-88755000D03*
%TO.N,/D3*%
X97155000Y-77325000D03*
%TO.N,/A8*%
X105951000Y-102725000D03*
%TO.N,ROM{slash}*%
X127635000Y-90025000D03*
X137795000Y-76055000D03*
X127635000Y-131935000D03*
X127635000Y-121775000D03*
X137795000Y-90025000D03*
%TO.N,/A15*%
X88359000Y-126855000D03*
X88359000Y-130665000D03*
X88359000Y-124315000D03*
%TO.N,/A13*%
X93439000Y-105265000D03*
%TO.N,/A2*%
X121285000Y-91295000D03*
%TO.N,/A6*%
X111219000Y-101455000D03*
%TO.N,+5V*%
X80645000Y-70975000D03*
X141605000Y-76055000D03*
D16*
X130175000Y-115425000D03*
D15*
X139065000Y-115425000D03*
D16*
X130175000Y-136380000D03*
X130175000Y-110980000D03*
D15*
X80645000Y-110980000D03*
%TO.N,Net-(U3-OE)*%
X137795000Y-95105000D03*
X137795000Y-128125000D03*
%TD*%
D17*
%TO.N,/D7*%
X107315000Y-151220000D02*
X107315000Y-87485000D01*
%TO.N,/A9*%
X104775000Y-153760000D02*
X103505000Y-152490000D01*
X103505000Y-152490000D02*
X103505000Y-100279000D01*
X103505000Y-100279000D02*
X103411000Y-100185000D01*
%TO.N,CLK*%
X135255000Y-151220000D02*
X135255000Y-134475000D01*
%TO.N,/D5*%
X102235000Y-151220000D02*
X102235000Y-82405000D01*
%TO.N,/D4*%
X99695000Y-151220000D02*
X99695000Y-79865000D01*
%TO.N,/D2*%
X94615000Y-151220000D02*
X94615000Y-78595000D01*
%TO.N,/A5*%
X114935000Y-153760000D02*
X113665000Y-152490000D01*
X113665000Y-152490000D02*
X113665000Y-98915000D01*
%TO.N,/D0*%
X89535000Y-151220000D02*
X89535000Y-83675000D01*
%TO.N,/A4*%
X117475000Y-153760000D02*
X116205000Y-152490000D01*
X116205000Y-152490000D02*
X116205000Y-96375000D01*
%TO.N,ACC{slash}*%
X132715000Y-151220000D02*
X132715000Y-120505000D01*
%TO.N,RW{slash}*%
X109855000Y-151220000D02*
X109855000Y-133205000D01*
X109855000Y-133205000D02*
X109855000Y-107805000D01*
%TO.N,/A11*%
X99695000Y-153760000D02*
X98425000Y-152490000D01*
X98425000Y-152490000D02*
X98425000Y-97739000D01*
X98425000Y-97739000D02*
X98519000Y-97645000D01*
%TO.N,RAM{slash}*%
X83820000Y-75420000D02*
X83820000Y-90025000D01*
X125095000Y-129390000D02*
X125095000Y-90025000D01*
X125095000Y-151220000D02*
X125095000Y-129390000D01*
%TO.N,/A14*%
X90805000Y-109075000D02*
X90805000Y-95105000D01*
X90805000Y-125585000D02*
X90805000Y-109075000D01*
X90805000Y-152490000D02*
X90805000Y-125585000D01*
X92075000Y-153760000D02*
X90805000Y-152490000D01*
%TO.N,/A0*%
X127635000Y-153760000D02*
X126365000Y-152490000D01*
X126365000Y-152490000D02*
X126365000Y-86309000D01*
X126365000Y-86309000D02*
X126459000Y-86215000D01*
%TO.N,/D6*%
X104775000Y-151220000D02*
X104775000Y-84945000D01*
%TO.N,/A7*%
X109855000Y-153760000D02*
X108585000Y-152490000D01*
X108585000Y-152490000D02*
X108585000Y-104089000D01*
X108585000Y-104089000D02*
X108679000Y-103995000D01*
%TO.N,/A12*%
X97155000Y-153760000D02*
X95885000Y-152490000D01*
X95885000Y-152490000D02*
X95885000Y-106629000D01*
X95885000Y-106629000D02*
X95979000Y-106535000D01*
%TO.N,/A10*%
X102235000Y-153760000D02*
X100965000Y-152490000D01*
X100965000Y-152490000D02*
X100965000Y-92565000D01*
%TO.N,ROM_PGM{slash}*%
X112395000Y-151220000D02*
X112395000Y-112885000D01*
%TO.N,/A3*%
X120015000Y-153760000D02*
X118745000Y-152490000D01*
X118745000Y-152490000D02*
X118745000Y-93835000D01*
%TO.N,/D1*%
X92075000Y-151220000D02*
X92075000Y-81135000D01*
%TO.N,/A1*%
X125095000Y-153760000D02*
X123825000Y-152490000D01*
X123825000Y-152490000D02*
X123825000Y-88849000D01*
X123825000Y-88849000D02*
X123731000Y-88755000D01*
%TO.N,/D3*%
X97155000Y-151220000D02*
X97155000Y-77325000D01*
%TO.N,/A8*%
X107315000Y-153760000D02*
X106045000Y-152490000D01*
X106045000Y-152490000D02*
X106045000Y-102819000D01*
X106045000Y-102819000D02*
X105951000Y-102725000D01*
%TO.N,ROM{slash}*%
X127635000Y-151220000D02*
X127635000Y-121775000D01*
X127635000Y-121775000D02*
X127635000Y-90025000D01*
X137795000Y-76055000D02*
X137795000Y-90025000D01*
%TO.N,/A15*%
X88265000Y-152490000D02*
X88265000Y-130759000D01*
X88359000Y-130665000D02*
X88359000Y-126855000D01*
X88265000Y-130759000D02*
X88359000Y-130665000D01*
X89535000Y-153760000D02*
X88265000Y-152490000D01*
X88359000Y-126855000D02*
X88359000Y-124315000D01*
%TO.N,/A13*%
X93345000Y-152490000D02*
X93345000Y-105359000D01*
X93345000Y-105359000D02*
X93439000Y-105265000D01*
X94615000Y-153760000D02*
X93345000Y-152490000D01*
%TO.N,/A2*%
X121285000Y-152490000D02*
X121285000Y-91295000D01*
X122555000Y-153760000D02*
X121285000Y-152490000D01*
%TO.N,/A6*%
X112395000Y-153760000D02*
X111125000Y-152490000D01*
X111125000Y-101549000D02*
X111219000Y-101455000D01*
X111125000Y-152490000D02*
X111125000Y-101549000D01*
D18*
%TO.N,GND*%
X137795000Y-153760000D02*
X137795000Y-151220000D01*
%TO.N,+5V*%
X130175000Y-115425000D02*
X130175000Y-110980000D01*
X130175000Y-152400000D02*
X130175000Y-136380000D01*
X130175000Y-136380000D02*
X130175000Y-115425000D01*
X130175000Y-152400000D02*
X130175000Y-151220000D01*
X130175000Y-153760000D02*
X130175000Y-152400000D01*
D17*
X139065000Y-78595000D02*
X139065000Y-115425000D01*
X141605000Y-76055000D02*
X139065000Y-78595000D01*
X80645000Y-70975000D02*
X80645000Y-110980000D01*
%TO.N,Net-(U3-OE)*%
X137795000Y-95105000D02*
X137795000Y-128125000D01*
%TD*%
%TA.AperFunction,Conductor*%
%TO.N,GND*%
G36*
X136679730Y-152998283D02*
G01*
X136679730Y-152998284D01*
X136640378Y-153052445D01*
X136635768Y-153061493D01*
X136587795Y-153112291D01*
X136519975Y-153129088D01*
X136453839Y-153106553D01*
X136414796Y-153061496D01*
X136410051Y-153052183D01*
X136285110Y-152880214D01*
X136134787Y-152729891D01*
X135962818Y-152604950D01*
X135954054Y-152600484D01*
X135903258Y-152552509D01*
X135886464Y-152484688D01*
X135909002Y-152418553D01*
X135954054Y-152379516D01*
X135962818Y-152375051D01*
X136134785Y-152250111D01*
X136248715Y-152136181D01*
X136310038Y-152102697D01*
X136379730Y-152107681D01*
X136435663Y-152149553D01*
X136452578Y-152180530D01*
X136501646Y-152312087D01*
X136501650Y-152312094D01*
X136587810Y-152427188D01*
X136587813Y-152427191D01*
X136702907Y-152513351D01*
X136702914Y-152513355D01*
X136837620Y-152563597D01*
X136837627Y-152563599D01*
X136920445Y-152572503D01*
X136920116Y-152575569D01*
X136937125Y-152574670D01*
X136996197Y-152607644D01*
X137665592Y-153277038D01*
X137602007Y-153294075D01*
X137487993Y-153359901D01*
X137394901Y-153452993D01*
X137329075Y-153567007D01*
X137312038Y-153630591D01*
X136679730Y-152998283D01*
G37*
%TD.AperFunction*%
%TA.AperFunction,Conductor*%
G36*
X64057461Y-157594815D02*
G01*
X64011706Y-157542011D01*
X64000500Y-157490500D01*
X64000500Y-59044500D01*
X64020185Y-58977461D01*
X64072989Y-58931706D01*
X64124500Y-58920500D01*
X162570500Y-58920500D01*
X162637539Y-58940185D01*
X162683294Y-58992989D01*
X162694500Y-59044500D01*
X162694500Y-116025017D01*
X160685500Y-116025017D01*
X160685500Y-114824999D01*
X160685499Y-114824982D01*
X160675000Y-114722204D01*
X160674999Y-114722201D01*
X160648729Y-114642925D01*
X160619814Y-114555666D01*
X160527712Y-114406344D01*
X160403656Y-114282288D01*
X160254334Y-114190186D01*
X160171848Y-114162853D01*
X160114403Y-114123080D01*
X160087580Y-114058564D01*
X160099895Y-113989788D01*
X160109857Y-113978025D01*
X160110923Y-113964476D01*
X159431446Y-113285000D01*
X159437661Y-113285000D01*
X159539394Y-113257741D01*
X159630606Y-113205080D01*
X159705080Y-113130606D01*
X159757741Y-113039394D01*
X159785000Y-112937661D01*
X159785000Y-112931447D01*
X160464476Y-113610923D01*
X160464477Y-113610923D01*
X160496857Y-113566356D01*
X160589756Y-113384032D01*
X160652991Y-113189418D01*
X160685000Y-112987318D01*
X160685000Y-112782683D01*
X160652991Y-112580583D01*
X160589756Y-112385969D01*
X160496859Y-112203650D01*
X160496853Y-112203641D01*
X160464477Y-112159079D01*
X160464476Y-112159078D01*
X159785000Y-112838554D01*
X159785000Y-112832339D01*
X159757741Y-112730606D01*
X159705080Y-112639394D01*
X159630606Y-112564920D01*
X159539394Y-112512259D01*
X159437661Y-112485000D01*
X159431447Y-112485000D01*
X160110924Y-111805526D01*
X160066350Y-111773141D01*
X159972820Y-111725485D01*
X159922024Y-111677511D01*
X159905229Y-111609690D01*
X159927766Y-111543555D01*
X159972820Y-111504515D01*
X160066356Y-111456857D01*
X160110923Y-111424477D01*
X160110923Y-111424476D01*
X159431446Y-110745000D01*
X159437661Y-110745000D01*
X159539394Y-110717741D01*
X159630606Y-110665080D01*
X159705080Y-110590606D01*
X159757741Y-110499394D01*
X159785000Y-110397661D01*
X159785000Y-110391447D01*
X160464476Y-111070923D01*
X160464477Y-111070923D01*
X160496857Y-111026356D01*
X160589756Y-110844032D01*
X160652991Y-110649418D01*
X160685000Y-110447318D01*
X160685000Y-110242683D01*
X160652991Y-110040583D01*
X160589756Y-109845969D01*
X160496859Y-109663650D01*
X160496853Y-109663641D01*
X160464477Y-109619079D01*
X160464476Y-109619078D01*
X159785000Y-110298554D01*
X159785000Y-110292339D01*
X159757741Y-110190606D01*
X159705080Y-110099394D01*
X159630606Y-110024920D01*
X159539394Y-109972259D01*
X159437661Y-109945000D01*
X159431447Y-109945000D01*
X160110924Y-109265526D01*
X160066348Y-109233139D01*
X159973372Y-109185766D01*
X159922575Y-109137792D01*
X159905780Y-109069971D01*
X159928317Y-109003836D01*
X159973370Y-108964797D01*
X160066612Y-108917287D01*
X160232214Y-108796972D01*
X160376972Y-108652214D01*
X160497285Y-108486614D01*
X160590219Y-108304224D01*
X160653478Y-108109535D01*
X160685500Y-107907352D01*
X160685500Y-107702649D01*
X160653478Y-107500466D01*
X160590219Y-107305777D01*
X160584580Y-107294711D01*
X160512728Y-107153694D01*
X160497285Y-107123387D01*
X160376972Y-106957787D01*
X160232214Y-106813029D01*
X160077251Y-106700444D01*
X160066610Y-106692713D01*
X159975160Y-106646117D01*
X159973920Y-106645485D01*
X159923124Y-106597510D01*
X159906329Y-106529689D01*
X159928866Y-106463554D01*
X159973920Y-106424515D01*
X160066614Y-106377285D01*
X160232214Y-106256972D01*
X160376972Y-106112214D01*
X160497285Y-105946614D01*
X160590219Y-105764224D01*
X160653478Y-105569535D01*
X160685500Y-105367352D01*
X160685500Y-105162649D01*
X160653478Y-104960466D01*
X160590219Y-104765777D01*
X160497285Y-104583387D01*
X160376972Y-104417787D01*
X160232214Y-104273029D01*
X160077251Y-104160444D01*
X160066610Y-104152713D01*
X159975160Y-104106117D01*
X159973920Y-104105485D01*
X159923124Y-104057510D01*
X159906329Y-103989689D01*
X159928866Y-103923554D01*
X159973920Y-103884515D01*
X160066614Y-103837285D01*
X160232214Y-103716972D01*
X160376972Y-103572214D01*
X160497285Y-103406614D01*
X160590219Y-103224224D01*
X160653478Y-103029535D01*
X160685500Y-102827352D01*
X160685500Y-102622649D01*
X160653478Y-102420466D01*
X160590219Y-102225777D01*
X160497285Y-102043387D01*
X160376972Y-101877787D01*
X160232214Y-101733029D01*
X160077251Y-101620444D01*
X160066610Y-101612713D01*
X159975160Y-101566117D01*
X159973920Y-101565485D01*
X159923124Y-101517510D01*
X159906329Y-101449689D01*
X159928866Y-101383554D01*
X159973920Y-101344515D01*
X160066614Y-101297285D01*
X160232214Y-101176972D01*
X160376972Y-101032214D01*
X160497285Y-100866614D01*
X160590219Y-100684224D01*
X160653478Y-100489535D01*
X160685500Y-100287352D01*
X160685500Y-100082649D01*
X160653478Y-99880466D01*
X160590219Y-99685777D01*
X160497285Y-99503387D01*
X160376972Y-99337787D01*
X160232214Y-99193029D01*
X160077251Y-99080444D01*
X160066610Y-99072713D01*
X159975160Y-99026117D01*
X159973920Y-99025485D01*
X159923124Y-98977510D01*
X159906329Y-98909689D01*
X159928866Y-98843554D01*
X159973920Y-98804515D01*
X160066614Y-98757285D01*
X160232214Y-98636972D01*
X160376972Y-98492214D01*
X160497285Y-98326614D01*
X160590219Y-98144224D01*
X160653478Y-97949535D01*
X160685500Y-97747352D01*
X160685500Y-97542649D01*
X160653478Y-97340466D01*
X160590219Y-97145777D01*
X160497285Y-96963387D01*
X160376972Y-96797787D01*
X160232214Y-96653029D01*
X160077251Y-96540444D01*
X160066610Y-96532713D01*
X159975160Y-96486117D01*
X159973920Y-96485485D01*
X159923124Y-96437510D01*
X159906329Y-96369689D01*
X159928866Y-96303554D01*
X159973920Y-96264515D01*
X160066614Y-96217285D01*
X160232214Y-96096972D01*
X160376972Y-95952214D01*
X160497285Y-95786614D01*
X160590219Y-95604224D01*
X160653478Y-95409535D01*
X160685500Y-95207352D01*
X160685500Y-95002649D01*
X160653478Y-94800466D01*
X160590219Y-94605777D01*
X160544787Y-94516614D01*
X160512728Y-94453694D01*
X160497285Y-94423387D01*
X160376972Y-94257787D01*
X160232214Y-94113029D01*
X160077251Y-94000444D01*
X160066610Y-93992713D01*
X159975160Y-93946117D01*
X159973920Y-93945485D01*
X159923124Y-93897510D01*
X159906329Y-93829689D01*
X159928866Y-93763554D01*
X159973920Y-93724515D01*
X160066614Y-93677285D01*
X160232214Y-93556972D01*
X160376972Y-93412214D01*
X160497285Y-93246614D01*
X160590219Y-93064224D01*
X160653478Y-92869535D01*
X160685500Y-92667352D01*
X160685500Y-92462649D01*
X160653478Y-92260466D01*
X160590219Y-92065777D01*
X160584580Y-92054711D01*
X160512728Y-91913694D01*
X160497285Y-91883387D01*
X160376972Y-91717787D01*
X160232214Y-91573029D01*
X160077251Y-91460444D01*
X160066610Y-91452713D01*
X159975160Y-91406117D01*
X159973920Y-91405485D01*
X159923124Y-91357510D01*
X159906329Y-91289689D01*
X159928866Y-91223554D01*
X159973920Y-91184515D01*
X160066614Y-91137285D01*
X160232214Y-91016972D01*
X160376972Y-90872214D01*
X160497285Y-90706614D01*
X160590219Y-90524224D01*
X160653478Y-90329535D01*
X160685500Y-90127352D01*
X160685500Y-89922649D01*
X160653478Y-89720466D01*
X160590219Y-89525777D01*
X160569372Y-89484864D01*
X160512728Y-89373694D01*
X160497285Y-89343387D01*
X160376972Y-89177787D01*
X160232214Y-89033029D01*
X160077251Y-88920444D01*
X160066610Y-88912713D01*
X159975160Y-88866117D01*
X159973920Y-88865485D01*
X159923124Y-88817510D01*
X159906329Y-88749689D01*
X159928866Y-88683554D01*
X159973920Y-88644515D01*
X160066614Y-88597285D01*
X160232214Y-88476972D01*
X160376972Y-88332214D01*
X160497285Y-88166614D01*
X160590219Y-87984224D01*
X160653478Y-87789535D01*
X160685500Y-87587352D01*
X160685500Y-87382649D01*
X160653478Y-87180466D01*
X160590219Y-86985777D01*
X160497285Y-86803387D01*
X160376972Y-86637787D01*
X160232214Y-86493029D01*
X160077251Y-86380444D01*
X160066610Y-86372713D01*
X159975160Y-86326117D01*
X159973920Y-86325485D01*
X159923124Y-86277510D01*
X159906329Y-86209689D01*
X159928866Y-86143554D01*
X159973920Y-86104515D01*
X160066614Y-86057285D01*
X160232214Y-85936972D01*
X160376972Y-85792214D01*
X160497285Y-85626614D01*
X160590219Y-85444224D01*
X160653478Y-85249535D01*
X160685500Y-85047352D01*
X160685500Y-84842649D01*
X160653478Y-84640466D01*
X160590219Y-84445777D01*
X160497285Y-84263387D01*
X160376972Y-84097787D01*
X160232214Y-83953029D01*
X160077251Y-83840444D01*
X160066610Y-83832713D01*
X159975160Y-83786117D01*
X159973920Y-83785485D01*
X159923124Y-83737510D01*
X159906329Y-83669689D01*
X159928866Y-83603554D01*
X159973920Y-83564515D01*
X160066614Y-83517285D01*
X160232214Y-83396972D01*
X160376972Y-83252214D01*
X160497285Y-83086614D01*
X160590219Y-82904224D01*
X160653478Y-82709535D01*
X160685500Y-82507352D01*
X160685500Y-82302649D01*
X160653478Y-82100466D01*
X160590219Y-81905777D01*
X160497285Y-81723387D01*
X160376972Y-81557787D01*
X160232214Y-81413029D01*
X160077251Y-81300444D01*
X160066610Y-81292713D01*
X159975160Y-81246117D01*
X159973920Y-81245485D01*
X159923124Y-81197510D01*
X159906329Y-81129689D01*
X159928866Y-81063554D01*
X159973920Y-81024515D01*
X160066614Y-80977285D01*
X160232214Y-80856972D01*
X160376972Y-80712214D01*
X160497285Y-80546614D01*
X160590219Y-80364224D01*
X160653478Y-80169535D01*
X160685500Y-79967352D01*
X160685500Y-79762649D01*
X160653478Y-79560466D01*
X160590219Y-79365777D01*
X160497285Y-79183387D01*
X160376972Y-79017787D01*
X160232214Y-78873029D01*
X160066615Y-78752716D01*
X160066613Y-78752715D01*
X160066610Y-78752713D01*
X159973920Y-78705485D01*
X159973370Y-78705205D01*
X159922574Y-78657230D01*
X159905779Y-78589409D01*
X159928316Y-78523275D01*
X159973370Y-78484235D01*
X160066356Y-78436857D01*
X160110923Y-78404477D01*
X160110923Y-78404476D01*
X159431446Y-77725000D01*
X159437661Y-77725000D01*
X159539394Y-77697741D01*
X159630606Y-77645080D01*
X159705080Y-77570606D01*
X159757741Y-77479394D01*
X159785000Y-77377661D01*
X159785000Y-77371447D01*
X160464476Y-78050923D01*
X160464477Y-78050923D01*
X160496857Y-78006356D01*
X160589756Y-77824032D01*
X160652991Y-77629418D01*
X160685000Y-77427318D01*
X160685000Y-77222683D01*
X160652991Y-77020583D01*
X160589756Y-76825969D01*
X160496859Y-76643650D01*
X160496853Y-76643641D01*
X160464477Y-76599079D01*
X160464476Y-76599078D01*
X159785000Y-77278554D01*
X159785000Y-77272339D01*
X159757741Y-77170606D01*
X159705080Y-77079394D01*
X159630606Y-77004920D01*
X159539394Y-76952259D01*
X159437661Y-76925000D01*
X159431447Y-76925000D01*
X160110924Y-76245526D01*
X160066350Y-76213141D01*
X159884032Y-76120245D01*
X159689418Y-76057010D01*
X159487317Y-76025000D01*
X159282683Y-76025000D01*
X159080583Y-76057010D01*
X158885969Y-76120245D01*
X158703651Y-76213141D01*
X158659079Y-76245526D01*
X159338553Y-76925000D01*
X159332339Y-76925000D01*
X159230606Y-76952259D01*
X159139394Y-77004920D01*
X159064920Y-77079394D01*
X159012259Y-77170606D01*
X158985000Y-77272339D01*
X158985000Y-77278553D01*
X158305526Y-76599079D01*
X158273141Y-76643651D01*
X158180245Y-76825969D01*
X158117010Y-77020583D01*
X158085000Y-77222683D01*
X158085000Y-77427318D01*
X158117010Y-77629418D01*
X158180245Y-77824032D01*
X158273141Y-78006350D01*
X158305526Y-78050923D01*
X158305526Y-78050924D01*
X158985000Y-77371449D01*
X158985000Y-77377661D01*
X159012259Y-77479394D01*
X159064920Y-77570606D01*
X159139394Y-77645080D01*
X159230606Y-77697741D01*
X159332339Y-77725000D01*
X159338554Y-77725000D01*
X158659078Y-78404476D01*
X158659079Y-78404477D01*
X158703641Y-78436853D01*
X158703650Y-78436859D01*
X158796631Y-78484235D01*
X158847427Y-78532210D01*
X158864222Y-78600031D01*
X158841685Y-78666165D01*
X158796630Y-78705205D01*
X158796080Y-78705485D01*
X158703390Y-78752713D01*
X158599081Y-78828497D01*
X158537787Y-78873029D01*
X158537785Y-78873032D01*
X158537781Y-78873034D01*
X158393034Y-79017781D01*
X158393032Y-79017785D01*
X158393029Y-79017787D01*
X158336741Y-79095262D01*
X158272713Y-79183390D01*
X158179780Y-79365781D01*
X158116523Y-79560466D01*
X158084500Y-79762648D01*
X158084500Y-79967352D01*
X158093269Y-80022716D01*
X158116523Y-80169535D01*
X158179782Y-80364224D01*
X158213497Y-80430393D01*
X158272713Y-80546610D01*
X158280444Y-80557251D01*
X158393029Y-80712214D01*
X158537787Y-80856972D01*
X158703386Y-80977285D01*
X158709994Y-80980652D01*
X158796083Y-81024517D01*
X158846877Y-81072489D01*
X158863672Y-81140310D01*
X158841135Y-81206445D01*
X158796083Y-81245484D01*
X158703390Y-81292713D01*
X158599081Y-81368497D01*
X158537787Y-81413029D01*
X158537785Y-81413032D01*
X158537781Y-81413034D01*
X158393034Y-81557781D01*
X158393032Y-81557785D01*
X158393029Y-81557787D01*
X158336741Y-81635262D01*
X158272713Y-81723390D01*
X158179780Y-81905781D01*
X158116523Y-82100466D01*
X158084500Y-82302648D01*
X158084500Y-82507352D01*
X158093269Y-82562716D01*
X158116523Y-82709535D01*
X158179782Y-82904224D01*
X158213497Y-82970393D01*
X158272713Y-83086610D01*
X158280444Y-83097251D01*
X158393029Y-83252214D01*
X158537787Y-83396972D01*
X158703386Y-83517285D01*
X158709994Y-83520652D01*
X158796083Y-83564517D01*
X158846877Y-83612489D01*
X158863672Y-83680310D01*
X158841135Y-83746445D01*
X158796083Y-83785484D01*
X158703390Y-83832713D01*
X158599081Y-83908497D01*
X158537787Y-83953029D01*
X158537785Y-83953032D01*
X158537781Y-83953034D01*
X158393034Y-84097781D01*
X158393032Y-84097785D01*
X158393029Y-84097787D01*
X158336741Y-84175262D01*
X158272713Y-84263390D01*
X158179780Y-84445781D01*
X158116523Y-84640466D01*
X158084500Y-84842648D01*
X158084500Y-85047352D01*
X158093269Y-85102716D01*
X158116523Y-85249535D01*
X158179782Y-85444224D01*
X158213497Y-85510393D01*
X158272713Y-85626610D01*
X158280444Y-85637251D01*
X158393029Y-85792214D01*
X158537787Y-85936972D01*
X158703386Y-86057285D01*
X158709994Y-86060652D01*
X158796083Y-86104517D01*
X158846877Y-86152489D01*
X158863672Y-86220310D01*
X158841135Y-86286445D01*
X158796083Y-86325484D01*
X158703390Y-86372713D01*
X158599081Y-86448497D01*
X158537787Y-86493029D01*
X158537785Y-86493032D01*
X158537781Y-86493034D01*
X158393034Y-86637781D01*
X158393032Y-86637785D01*
X158393029Y-86637787D01*
X158336741Y-86715262D01*
X158272713Y-86803390D01*
X158179780Y-86985781D01*
X158116523Y-87180466D01*
X158084500Y-87382648D01*
X158084500Y-87587352D01*
X158093269Y-87642716D01*
X158116523Y-87789535D01*
X158179782Y-87984224D01*
X158213497Y-88050393D01*
X158272713Y-88166610D01*
X158280444Y-88177251D01*
X158393029Y-88332214D01*
X158537787Y-88476972D01*
X158703386Y-88597285D01*
X158709994Y-88600652D01*
X158796083Y-88644517D01*
X158846877Y-88692489D01*
X158863672Y-88760310D01*
X158841135Y-88826445D01*
X158796083Y-88865484D01*
X158703390Y-88912713D01*
X158599081Y-88988497D01*
X158537787Y-89033029D01*
X158537785Y-89033032D01*
X158537781Y-89033034D01*
X158393034Y-89177781D01*
X158393032Y-89177785D01*
X158393029Y-89177787D01*
X158336741Y-89255262D01*
X158272713Y-89343390D01*
X158179780Y-89525781D01*
X158116523Y-89720466D01*
X158084500Y-89922648D01*
X158084500Y-90127352D01*
X158093269Y-90182716D01*
X158116523Y-90329535D01*
X158179782Y-90524224D01*
X158213497Y-90590393D01*
X158272713Y-90706610D01*
X158292897Y-90734391D01*
X158393029Y-90872214D01*
X158537787Y-91016972D01*
X158703386Y-91137285D01*
X158709994Y-91140652D01*
X158796083Y-91184517D01*
X158846877Y-91232489D01*
X158863672Y-91300310D01*
X158841135Y-91366445D01*
X158796083Y-91405484D01*
X158703390Y-91452713D01*
X158599081Y-91528497D01*
X158537787Y-91573029D01*
X158537785Y-91573032D01*
X158537781Y-91573034D01*
X158393034Y-91717781D01*
X158393032Y-91717785D01*
X158393029Y-91717787D01*
X158336741Y-91795262D01*
X158272713Y-91883390D01*
X158179780Y-92065781D01*
X158116523Y-92260466D01*
X158084500Y-92462648D01*
X158084500Y-92667352D01*
X158116523Y-92869534D01*
X158179780Y-93064219D01*
X158179782Y-93064222D01*
X158179782Y-93064224D01*
X158213497Y-93130393D01*
X158272713Y-93246610D01*
X158280444Y-93257251D01*
X158393029Y-93412214D01*
X158537787Y-93556972D01*
X158703386Y-93677285D01*
X158709994Y-93680652D01*
X158796083Y-93724517D01*
X158846877Y-93772489D01*
X158863672Y-93840310D01*
X158841135Y-93906445D01*
X158796083Y-93945484D01*
X158703390Y-93992713D01*
X158599081Y-94068497D01*
X158537787Y-94113029D01*
X158537785Y-94113032D01*
X158537781Y-94113034D01*
X158393034Y-94257781D01*
X158393032Y-94257785D01*
X158393029Y-94257787D01*
X158336741Y-94335262D01*
X158272713Y-94423390D01*
X158179780Y-94605781D01*
X158116523Y-94800466D01*
X158084500Y-95002648D01*
X158084500Y-95207352D01*
X158093269Y-95262716D01*
X158116523Y-95409535D01*
X158179782Y-95604224D01*
X158213497Y-95670393D01*
X158272713Y-95786610D01*
X158280444Y-95797251D01*
X158393029Y-95952214D01*
X158537787Y-96096972D01*
X158703386Y-96217285D01*
X158709994Y-96220652D01*
X158796083Y-96264517D01*
X158846877Y-96312489D01*
X158863672Y-96380310D01*
X158841135Y-96446445D01*
X158796083Y-96485484D01*
X158703390Y-96532713D01*
X158599081Y-96608497D01*
X158537787Y-96653029D01*
X158537785Y-96653032D01*
X158537781Y-96653034D01*
X158393034Y-96797781D01*
X158393032Y-96797785D01*
X158393029Y-96797787D01*
X158336741Y-96875262D01*
X158272713Y-96963390D01*
X158179780Y-97145781D01*
X158116523Y-97340466D01*
X158084500Y-97542648D01*
X158084500Y-97747352D01*
X158116523Y-97949534D01*
X158179780Y-98144219D01*
X158179782Y-98144222D01*
X158179782Y-98144224D01*
X158221744Y-98226578D01*
X158272713Y-98326610D01*
X158280444Y-98337251D01*
X158393029Y-98492214D01*
X158537787Y-98636972D01*
X158703386Y-98757285D01*
X158709994Y-98760652D01*
X158796083Y-98804517D01*
X158846877Y-98852489D01*
X158863672Y-98920310D01*
X158841135Y-98986445D01*
X158796083Y-99025484D01*
X158703390Y-99072713D01*
X158599081Y-99148497D01*
X158537787Y-99193029D01*
X158537785Y-99193032D01*
X158537781Y-99193034D01*
X158393034Y-99337781D01*
X158393032Y-99337785D01*
X158393029Y-99337787D01*
X158336741Y-99415262D01*
X158272713Y-99503390D01*
X158179780Y-99685781D01*
X158116523Y-99880466D01*
X158084500Y-100082648D01*
X158084500Y-100287352D01*
X158116523Y-100489534D01*
X158179780Y-100684219D01*
X158179782Y-100684222D01*
X158179782Y-100684224D01*
X158221744Y-100766578D01*
X158272713Y-100866610D01*
X158280444Y-100877251D01*
X158393029Y-101032214D01*
X158537787Y-101176972D01*
X158703386Y-101297285D01*
X158709994Y-101300652D01*
X158796083Y-101344517D01*
X158846877Y-101392489D01*
X158863672Y-101460310D01*
X158841135Y-101526445D01*
X158796083Y-101565484D01*
X158703390Y-101612713D01*
X158599081Y-101688497D01*
X158537787Y-101733029D01*
X158537785Y-101733032D01*
X158537781Y-101733034D01*
X158393034Y-101877781D01*
X158393032Y-101877785D01*
X158393029Y-101877787D01*
X158336741Y-101955262D01*
X158272713Y-102043390D01*
X158179780Y-102225781D01*
X158116523Y-102420466D01*
X158084500Y-102622648D01*
X158084500Y-102827352D01*
X158116523Y-103029534D01*
X158179780Y-103224219D01*
X158179782Y-103224222D01*
X158179782Y-103224224D01*
X158223949Y-103310905D01*
X158272713Y-103406610D01*
X158284784Y-103423225D01*
X158393029Y-103572214D01*
X158537787Y-103716972D01*
X158703386Y-103837285D01*
X158709994Y-103840652D01*
X158796083Y-103884517D01*
X158846877Y-103932489D01*
X158863672Y-104000310D01*
X158841135Y-104066445D01*
X158796083Y-104105484D01*
X158703390Y-104152713D01*
X158599081Y-104228497D01*
X158537787Y-104273029D01*
X158537785Y-104273032D01*
X158537781Y-104273034D01*
X158393034Y-104417781D01*
X158393032Y-104417785D01*
X158393029Y-104417787D01*
X158336741Y-104495262D01*
X158272713Y-104583390D01*
X158179780Y-104765781D01*
X158116523Y-104960466D01*
X158084500Y-105162648D01*
X158084500Y-105367352D01*
X158116523Y-105569534D01*
X158179780Y-105764219D01*
X158179782Y-105764222D01*
X158179782Y-105764224D01*
X158223949Y-105850905D01*
X158272713Y-105946610D01*
X158329456Y-106024711D01*
X158393029Y-106112214D01*
X158537787Y-106256972D01*
X158703386Y-106377285D01*
X158709994Y-106380652D01*
X158796083Y-106424517D01*
X158846877Y-106472489D01*
X158863672Y-106540310D01*
X158841135Y-106606445D01*
X158796083Y-106645484D01*
X158703390Y-106692713D01*
X158682230Y-106708087D01*
X158537787Y-106813029D01*
X158537785Y-106813032D01*
X158537781Y-106813034D01*
X158393034Y-106957781D01*
X158393032Y-106957785D01*
X158393029Y-106957787D01*
X158336741Y-107035262D01*
X158272713Y-107123390D01*
X158179780Y-107305781D01*
X158116523Y-107500466D01*
X158084500Y-107702648D01*
X158084500Y-107907352D01*
X158116523Y-108109534D01*
X158179780Y-108304219D01*
X158179782Y-108304222D01*
X158179782Y-108304224D01*
X158214421Y-108372205D01*
X158272713Y-108486610D01*
X158333491Y-108570265D01*
X158393029Y-108652214D01*
X158537787Y-108796972D01*
X158703389Y-108917287D01*
X158796631Y-108964797D01*
X158847426Y-109012771D01*
X158864221Y-109080593D01*
X158841683Y-109146727D01*
X158796629Y-109185766D01*
X158703654Y-109233139D01*
X158703653Y-109233139D01*
X158659079Y-109265526D01*
X159338553Y-109945000D01*
X159332339Y-109945000D01*
X159230606Y-109972259D01*
X159139394Y-110024920D01*
X159064920Y-110099394D01*
X159012259Y-110190606D01*
X158985000Y-110292339D01*
X158985000Y-110298553D01*
X158305526Y-109619079D01*
X158273141Y-109663651D01*
X158180245Y-109845969D01*
X158117010Y-110040583D01*
X158085000Y-110242683D01*
X158085000Y-110447318D01*
X158117010Y-110649418D01*
X158180245Y-110844032D01*
X158273141Y-111026350D01*
X158305526Y-111070923D01*
X158305526Y-111070924D01*
X158985000Y-110391449D01*
X158985000Y-110397661D01*
X159012259Y-110499394D01*
X159064920Y-110590606D01*
X159139394Y-110665080D01*
X159230606Y-110717741D01*
X159332339Y-110745000D01*
X159338554Y-110745000D01*
X158659078Y-111424476D01*
X158659079Y-111424477D01*
X158703641Y-111456853D01*
X158703650Y-111456859D01*
X158797181Y-111504515D01*
X158847977Y-111552489D01*
X158864772Y-111620310D01*
X158842235Y-111686445D01*
X158797180Y-111725485D01*
X158703654Y-111773139D01*
X158703653Y-111773139D01*
X158659079Y-111805526D01*
X159338553Y-112485000D01*
X159332339Y-112485000D01*
X159230606Y-112512259D01*
X159139394Y-112564920D01*
X159064920Y-112639394D01*
X159012259Y-112730606D01*
X158985000Y-112832339D01*
X158985000Y-112838553D01*
X158305526Y-112159079D01*
X158273141Y-112203651D01*
X158180245Y-112385969D01*
X158117010Y-112580583D01*
X158085000Y-112782683D01*
X158085000Y-112987318D01*
X158117010Y-113189418D01*
X158180245Y-113384032D01*
X158273141Y-113566350D01*
X158305526Y-113610923D01*
X158305526Y-113610924D01*
X158985000Y-112931449D01*
X158985000Y-112937661D01*
X159012259Y-113039394D01*
X159064920Y-113130606D01*
X159139394Y-113205080D01*
X159230606Y-113257741D01*
X159332339Y-113285000D01*
X159338554Y-113285000D01*
X158659078Y-113964476D01*
X158660430Y-113981651D01*
X158674701Y-114000158D01*
X158680680Y-114069771D01*
X158648075Y-114131567D01*
X158598155Y-114162852D01*
X158515666Y-114190186D01*
X158366344Y-114282288D01*
X158242288Y-114406344D01*
X158150186Y-114555666D01*
X158095001Y-114722203D01*
X158084500Y-114824991D01*
X158084501Y-115527352D01*
X145445500Y-115527352D01*
X145445500Y-115322649D01*
X145413478Y-115120466D01*
X145350219Y-114925777D01*
X145257285Y-114743387D01*
X145136972Y-114577787D01*
X144992214Y-114433029D01*
X144837251Y-114320444D01*
X144826610Y-114312713D01*
X144735160Y-114266117D01*
X144733920Y-114265485D01*
X144683124Y-114217510D01*
X144666329Y-114149689D01*
X144688866Y-114083554D01*
X144733920Y-114044515D01*
X144826614Y-113997285D01*
X144992214Y-113876972D01*
X145136972Y-113732214D01*
X145257285Y-113566614D01*
X145350219Y-113384224D01*
X145413478Y-113189535D01*
X145445500Y-112987352D01*
X145445500Y-112782649D01*
X145413478Y-112580466D01*
X145350219Y-112385777D01*
X145302247Y-112291629D01*
X145257415Y-112203641D01*
X145257285Y-112203387D01*
X145136972Y-112037787D01*
X144992214Y-111893029D01*
X144871774Y-111805526D01*
X144826610Y-111772713D01*
X144735160Y-111726117D01*
X144733920Y-111725485D01*
X144683124Y-111677510D01*
X144666329Y-111609689D01*
X144688866Y-111543554D01*
X144733920Y-111504515D01*
X144826614Y-111457285D01*
X144992214Y-111336972D01*
X145136972Y-111192214D01*
X145257285Y-111026614D01*
X145350219Y-110844224D01*
X145413478Y-110649535D01*
X145445500Y-110447352D01*
X145445500Y-110242649D01*
X145413478Y-110040466D01*
X145350219Y-109845777D01*
X145315580Y-109777796D01*
X145257415Y-109663641D01*
X145257285Y-109663387D01*
X145136972Y-109497787D01*
X144992214Y-109353029D01*
X144871774Y-109265526D01*
X144826610Y-109232713D01*
X144735160Y-109186117D01*
X144733920Y-109185485D01*
X144683124Y-109137510D01*
X144666329Y-109069689D01*
X144688866Y-109003554D01*
X144733920Y-108964515D01*
X144826614Y-108917285D01*
X144992214Y-108796972D01*
X145136972Y-108652214D01*
X145257285Y-108486614D01*
X145350219Y-108304224D01*
X145413478Y-108109535D01*
X145445500Y-107907352D01*
X145445500Y-107702649D01*
X145413478Y-107500466D01*
X145350219Y-107305777D01*
X145344580Y-107294711D01*
X145272728Y-107153694D01*
X145257285Y-107123387D01*
X145136972Y-106957787D01*
X144992214Y-106813029D01*
X144837251Y-106700444D01*
X144826610Y-106692713D01*
X144735160Y-106646117D01*
X144733920Y-106645485D01*
X144683124Y-106597510D01*
X144666329Y-106529689D01*
X144688866Y-106463554D01*
X144733920Y-106424515D01*
X144826614Y-106377285D01*
X144992214Y-106256972D01*
X145136972Y-106112214D01*
X145257285Y-105946614D01*
X145350219Y-105764224D01*
X145413478Y-105569535D01*
X145445500Y-105367352D01*
X145445500Y-105162649D01*
X145413478Y-104960466D01*
X145350219Y-104765777D01*
X145257285Y-104583387D01*
X145136972Y-104417787D01*
X144992214Y-104273029D01*
X144837251Y-104160444D01*
X144826610Y-104152713D01*
X144735160Y-104106117D01*
X144733920Y-104105485D01*
X144683124Y-104057510D01*
X144666329Y-103989689D01*
X144688866Y-103923554D01*
X144733920Y-103884515D01*
X144826614Y-103837285D01*
X144992214Y-103716972D01*
X145136972Y-103572214D01*
X145257285Y-103406614D01*
X145350219Y-103224224D01*
X145413478Y-103029535D01*
X145445500Y-102827352D01*
X145445500Y-102622649D01*
X145413478Y-102420466D01*
X145350219Y-102225777D01*
X145257285Y-102043387D01*
X145136972Y-101877787D01*
X144992214Y-101733029D01*
X144837251Y-101620444D01*
X144826610Y-101612713D01*
X144735160Y-101566117D01*
X144733920Y-101565485D01*
X144683124Y-101517510D01*
X144666329Y-101449689D01*
X144688866Y-101383554D01*
X144733920Y-101344515D01*
X144826614Y-101297285D01*
X144992214Y-101176972D01*
X145136972Y-101032214D01*
X145257285Y-100866614D01*
X145350219Y-100684224D01*
X145413478Y-100489535D01*
X145445500Y-100287352D01*
X145445500Y-100082649D01*
X145413478Y-99880466D01*
X145350219Y-99685777D01*
X145257285Y-99503387D01*
X145136972Y-99337787D01*
X144992214Y-99193029D01*
X144837251Y-99080444D01*
X144826610Y-99072713D01*
X144735160Y-99026117D01*
X144733920Y-99025485D01*
X144683124Y-98977510D01*
X144666329Y-98909689D01*
X144688866Y-98843554D01*
X144733920Y-98804515D01*
X144826614Y-98757285D01*
X144992214Y-98636972D01*
X145136972Y-98492214D01*
X145257285Y-98326614D01*
X145350219Y-98144224D01*
X145413478Y-97949535D01*
X145445500Y-97747352D01*
X145445500Y-97542649D01*
X145413478Y-97340466D01*
X145350219Y-97145777D01*
X145257285Y-96963387D01*
X145136972Y-96797787D01*
X144992214Y-96653029D01*
X144837251Y-96540444D01*
X144826610Y-96532713D01*
X144735160Y-96486117D01*
X144733920Y-96485485D01*
X144683124Y-96437510D01*
X144666329Y-96369689D01*
X144688866Y-96303554D01*
X144733920Y-96264515D01*
X144826614Y-96217285D01*
X144992214Y-96096972D01*
X145136972Y-95952214D01*
X145257285Y-95786614D01*
X145350219Y-95604224D01*
X145413478Y-95409535D01*
X145445500Y-95207352D01*
X145445500Y-95002649D01*
X145413478Y-94800466D01*
X145350219Y-94605777D01*
X145304787Y-94516614D01*
X145272728Y-94453694D01*
X145257285Y-94423387D01*
X145136972Y-94257787D01*
X144992214Y-94113029D01*
X144837251Y-94000444D01*
X144826610Y-93992713D01*
X144735160Y-93946117D01*
X144733920Y-93945485D01*
X144683124Y-93897510D01*
X144666329Y-93829689D01*
X144688866Y-93763554D01*
X144733920Y-93724515D01*
X144826614Y-93677285D01*
X144992214Y-93556972D01*
X145136972Y-93412214D01*
X145257285Y-93246614D01*
X145350219Y-93064224D01*
X145413478Y-92869535D01*
X145445500Y-92667352D01*
X145445500Y-92462649D01*
X145413478Y-92260466D01*
X145350219Y-92065777D01*
X145344580Y-92054711D01*
X145272728Y-91913694D01*
X145257285Y-91883387D01*
X145136972Y-91717787D01*
X144992214Y-91573029D01*
X144837251Y-91460444D01*
X144826610Y-91452713D01*
X144735160Y-91406117D01*
X144733920Y-91405485D01*
X144683124Y-91357510D01*
X144666329Y-91289689D01*
X144688866Y-91223554D01*
X144733920Y-91184515D01*
X144826614Y-91137285D01*
X144992214Y-91016972D01*
X145136972Y-90872214D01*
X145257285Y-90706614D01*
X145350219Y-90524224D01*
X145413478Y-90329535D01*
X145445500Y-90127352D01*
X145445500Y-89922649D01*
X145413478Y-89720466D01*
X145350219Y-89525777D01*
X145329372Y-89484864D01*
X145272728Y-89373694D01*
X145257285Y-89343387D01*
X145136972Y-89177787D01*
X144992214Y-89033029D01*
X144837251Y-88920444D01*
X144826610Y-88912713D01*
X144735160Y-88866117D01*
X144733920Y-88865485D01*
X144683124Y-88817510D01*
X144666329Y-88749689D01*
X144688866Y-88683554D01*
X144733920Y-88644515D01*
X144826614Y-88597285D01*
X144992214Y-88476972D01*
X145136972Y-88332214D01*
X145257285Y-88166614D01*
X145350219Y-87984224D01*
X145413478Y-87789535D01*
X145445500Y-87587352D01*
X145445500Y-87382649D01*
X145413478Y-87180466D01*
X145350219Y-86985777D01*
X145257285Y-86803387D01*
X145136972Y-86637787D01*
X144992214Y-86493029D01*
X144837251Y-86380444D01*
X144826610Y-86372713D01*
X144735160Y-86326117D01*
X144733920Y-86325485D01*
X144683124Y-86277510D01*
X144666329Y-86209689D01*
X144688866Y-86143554D01*
X144733920Y-86104515D01*
X144826614Y-86057285D01*
X144992214Y-85936972D01*
X145136972Y-85792214D01*
X145257285Y-85626614D01*
X145350219Y-85444224D01*
X145413478Y-85249535D01*
X145445500Y-85047352D01*
X145445500Y-84842649D01*
X145413478Y-84640466D01*
X145350219Y-84445777D01*
X145257285Y-84263387D01*
X145136972Y-84097787D01*
X144992214Y-83953029D01*
X144837251Y-83840444D01*
X144826610Y-83832713D01*
X144735160Y-83786117D01*
X144733920Y-83785485D01*
X144683124Y-83737510D01*
X144666329Y-83669689D01*
X144688866Y-83603554D01*
X144733920Y-83564515D01*
X144826614Y-83517285D01*
X144992214Y-83396972D01*
X145136972Y-83252214D01*
X145257285Y-83086614D01*
X145350219Y-82904224D01*
X145413478Y-82709535D01*
X145445500Y-82507352D01*
X145445500Y-82302649D01*
X145413478Y-82100466D01*
X145350219Y-81905777D01*
X145257285Y-81723387D01*
X145136972Y-81557787D01*
X144992214Y-81413029D01*
X144837251Y-81300444D01*
X144826610Y-81292713D01*
X144735160Y-81246117D01*
X144733920Y-81245485D01*
X144683124Y-81197510D01*
X144666329Y-81129689D01*
X144688866Y-81063554D01*
X144733920Y-81024515D01*
X144826614Y-80977285D01*
X144992214Y-80856972D01*
X145136972Y-80712214D01*
X145257285Y-80546614D01*
X145350219Y-80364224D01*
X145413478Y-80169535D01*
X145445500Y-79967352D01*
X145445500Y-79762649D01*
X145413478Y-79560466D01*
X145350219Y-79365777D01*
X145257285Y-79183387D01*
X145136972Y-79017787D01*
X144992214Y-78873029D01*
X144837251Y-78760444D01*
X144826610Y-78752713D01*
X144735160Y-78706117D01*
X144733920Y-78705485D01*
X144683124Y-78657510D01*
X144666329Y-78589689D01*
X144688866Y-78523554D01*
X144733920Y-78484515D01*
X144826614Y-78437285D01*
X144992214Y-78316972D01*
X145136972Y-78172214D01*
X145257285Y-78006614D01*
X145350219Y-77824224D01*
X145413478Y-77629535D01*
X145445500Y-77427352D01*
X145445500Y-77222649D01*
X145413478Y-77020466D01*
X145350219Y-76825777D01*
X145304787Y-76736614D01*
X145257415Y-76643641D01*
X145257285Y-76643387D01*
X145136972Y-76477787D01*
X144992214Y-76333029D01*
X144864516Y-76240253D01*
X144826610Y-76212713D01*
X144717958Y-76157352D01*
X144644224Y-76119782D01*
X144644222Y-76119782D01*
X144644219Y-76119780D01*
X144539863Y-76085873D01*
X144449535Y-76056523D01*
X144348443Y-76040512D01*
X144247352Y-76024500D01*
X144247351Y-76024500D01*
X144042649Y-76024500D01*
X144042648Y-76024500D01*
X143840466Y-76056523D01*
X143645781Y-76119780D01*
X143618173Y-76133847D01*
X142405500Y-76133847D01*
X142405500Y-75976154D01*
X142374739Y-75821511D01*
X142374736Y-75821499D01*
X142314398Y-75675828D01*
X142314391Y-75675815D01*
X142226790Y-75544712D01*
X142226787Y-75544708D01*
X142115293Y-75433214D01*
X142115289Y-75433211D01*
X141984186Y-75345610D01*
X141984173Y-75345603D01*
X141838502Y-75285265D01*
X141838497Y-75285263D01*
X141683847Y-75254501D01*
X141683844Y-75254500D01*
X141683842Y-75254500D01*
X141526156Y-75254500D01*
X141526155Y-75254501D01*
X141371503Y-75285263D01*
X141236564Y-75341156D01*
X141225828Y-75345603D01*
X141225828Y-75345604D01*
X141225821Y-75345606D01*
X141094711Y-75433211D01*
X140983211Y-75544711D01*
X140895606Y-75675821D01*
X140835263Y-75821503D01*
X140813142Y-75932718D01*
X140780760Y-75994625D01*
X140779266Y-75996146D01*
X138632179Y-78143231D01*
X138570858Y-78176714D01*
X138501166Y-78171730D01*
X138445233Y-78129858D01*
X138420816Y-78064394D01*
X138420500Y-78055548D01*
X138420500Y-76597350D01*
X138440185Y-76530311D01*
X138441374Y-76528497D01*
X138462198Y-76497332D01*
X138504391Y-76434185D01*
X138504398Y-76434172D01*
X138564736Y-76288502D01*
X138564739Y-76288490D01*
X138595500Y-76133847D01*
X138595500Y-75976154D01*
X138564739Y-75821511D01*
X138564736Y-75821499D01*
X138504398Y-75675828D01*
X138504391Y-75675815D01*
X138416790Y-75544712D01*
X138416787Y-75544708D01*
X138305293Y-75433214D01*
X138305289Y-75433211D01*
X138174186Y-75345610D01*
X138174173Y-75345603D01*
X138028502Y-75285265D01*
X138028497Y-75285263D01*
X137873847Y-75254501D01*
X137873844Y-75254500D01*
X137873842Y-75254500D01*
X137716156Y-75254500D01*
X137716155Y-75254501D01*
X137561503Y-75285263D01*
X137426564Y-75341156D01*
X137415828Y-75345603D01*
X137415828Y-75345604D01*
X137415821Y-75345606D01*
X137284711Y-75433211D01*
X137173211Y-75544711D01*
X137085606Y-75675821D01*
X137025263Y-75821503D01*
X136994500Y-75976158D01*
X136994500Y-76133842D01*
X136994500Y-76133845D01*
X136994501Y-76133847D01*
X136999170Y-76157318D01*
X137025263Y-76288497D01*
X137054688Y-76359535D01*
X137085603Y-76434172D01*
X137085604Y-76434173D01*
X137085606Y-76434179D01*
X137148603Y-76528461D01*
X137169480Y-76595137D01*
X137169500Y-76597350D01*
X137169500Y-89482650D01*
X137149815Y-89549689D01*
X137148602Y-89551541D01*
X137148191Y-89552157D01*
X137085606Y-89645821D01*
X137025263Y-89791503D01*
X136994500Y-89946158D01*
X136994500Y-90103842D01*
X136994500Y-90103845D01*
X136994501Y-90103847D01*
X137025263Y-90258497D01*
X137025265Y-90258502D01*
X137085603Y-90404173D01*
X137085610Y-90404186D01*
X137173211Y-90535289D01*
X137173214Y-90535293D01*
X137284708Y-90646787D01*
X137284712Y-90646790D01*
X137415815Y-90734391D01*
X137415828Y-90734398D01*
X137561499Y-90794736D01*
X137561511Y-90794739D01*
X137716155Y-90825500D01*
X137716158Y-90825500D01*
X137873842Y-90825500D01*
X137873845Y-90825500D01*
X138028490Y-90794739D01*
X138028502Y-90794736D01*
X138174173Y-90734398D01*
X138174184Y-90734392D01*
X138246610Y-90685998D01*
X138313287Y-90665121D01*
X138380667Y-90683606D01*
X138427357Y-90735585D01*
X138439500Y-90789101D01*
X138439500Y-94340900D01*
X138419815Y-94407939D01*
X138367011Y-94453694D01*
X138297853Y-94463638D01*
X138246609Y-94444002D01*
X138174186Y-94395610D01*
X138174173Y-94395603D01*
X138042106Y-94340900D01*
X138028497Y-94335263D01*
X137893745Y-94308459D01*
X137873847Y-94304501D01*
X137873844Y-94304500D01*
X137873842Y-94304500D01*
X137716156Y-94304500D01*
X137716155Y-94304501D01*
X137561503Y-94335263D01*
X137448834Y-94381933D01*
X137415828Y-94395603D01*
X137415828Y-94395604D01*
X137415821Y-94395606D01*
X137284711Y-94483211D01*
X137173211Y-94594711D01*
X137085606Y-94725821D01*
X137025263Y-94871503D01*
X136994500Y-95026158D01*
X136994500Y-95183842D01*
X136994500Y-95183845D01*
X136994501Y-95183847D01*
X137025263Y-95338497D01*
X137085606Y-95484179D01*
X137148603Y-95578461D01*
X137169480Y-95645137D01*
X137169500Y-95647350D01*
X137169500Y-127582650D01*
X137149815Y-127649689D01*
X137148602Y-127651541D01*
X137148191Y-127652157D01*
X137085606Y-127745821D01*
X137025263Y-127891503D01*
X136994500Y-128046158D01*
X136994500Y-128203842D01*
X136994500Y-128203845D01*
X136994501Y-128203847D01*
X137025262Y-128358490D01*
X137025263Y-128358497D01*
X137025265Y-128358502D01*
X137085603Y-128504173D01*
X137085610Y-128504186D01*
X137173211Y-128635289D01*
X137173214Y-128635293D01*
X137284708Y-128746787D01*
X137284712Y-128746790D01*
X137415815Y-128834391D01*
X137415828Y-128834398D01*
X137561499Y-128894736D01*
X137561511Y-128894739D01*
X137716155Y-128925500D01*
X137716158Y-128925500D01*
X137873842Y-128925500D01*
X137873845Y-128925500D01*
X138028490Y-128894739D01*
X138028502Y-128894736D01*
X138174173Y-128834398D01*
X138174186Y-128834391D01*
X138305289Y-128746790D01*
X138305293Y-128746787D01*
X138416787Y-128635293D01*
X138416790Y-128635289D01*
X138504391Y-128504186D01*
X138504398Y-128504173D01*
X138564736Y-128358502D01*
X138564739Y-128358490D01*
X138595500Y-128203847D01*
X138595500Y-128046154D01*
X138564739Y-127891511D01*
X138564736Y-127891499D01*
X138504398Y-127745828D01*
X138504391Y-127745816D01*
X138441398Y-127651541D01*
X138420520Y-127584864D01*
X138420500Y-127582650D01*
X138420500Y-116189101D01*
X138440185Y-116122062D01*
X138492989Y-116076307D01*
X138562147Y-116066363D01*
X138613390Y-116085998D01*
X138685817Y-116134392D01*
X138685828Y-116134398D01*
X138831499Y-116194736D01*
X138831511Y-116194739D01*
X138986155Y-116225500D01*
X138986158Y-116225500D01*
X139143842Y-116225500D01*
X139143845Y-116225500D01*
X139298490Y-116194739D01*
X139298502Y-116194736D01*
X139444173Y-116134398D01*
X139444186Y-116134391D01*
X139575289Y-116046790D01*
X139575293Y-116046787D01*
X139686793Y-115935287D01*
X139687365Y-115934589D01*
X139687757Y-115934323D01*
X139691097Y-115930982D01*
X139691731Y-115931616D01*
X139745114Y-115895259D01*
X139814958Y-115893394D01*
X139874724Y-115929586D01*
X139893697Y-115956966D01*
X139917907Y-116004479D01*
X139943240Y-116054199D01*
X140054310Y-116207073D01*
X140187927Y-116340690D01*
X140340801Y-116451760D01*
X140509164Y-116537546D01*
X140688882Y-116595941D01*
X140875514Y-116625500D01*
X140875519Y-116625500D01*
X141064481Y-116625500D01*
X141064486Y-116625500D01*
X141251119Y-116595941D01*
X141430837Y-116537546D01*
X141599200Y-116451760D01*
X141647089Y-116416966D01*
X141752073Y-116340690D01*
X141752075Y-116340688D01*
X141752076Y-116340688D01*
X141885688Y-116207076D01*
X141885688Y-116207075D01*
X141885690Y-116207073D01*
X141894653Y-116194736D01*
X141996760Y-116054200D01*
X142082546Y-115885837D01*
X142140941Y-115706119D01*
X142170500Y-115519487D01*
X142170500Y-115330514D01*
X142140941Y-115143882D01*
X142082546Y-114964164D01*
X142010093Y-114821968D01*
X141996760Y-114795801D01*
X141885690Y-114642927D01*
X141752073Y-114509310D01*
X141599199Y-114398240D01*
X141519653Y-114357710D01*
X141430837Y-114312455D01*
X141430835Y-114312455D01*
X141430832Y-114312453D01*
X141341266Y-114283351D01*
X141309197Y-114272931D01*
X141251522Y-114233493D01*
X141224324Y-114169134D01*
X141236239Y-114100288D01*
X141283484Y-114048812D01*
X141309197Y-114037069D01*
X141430837Y-113997546D01*
X141599200Y-113911760D01*
X141647089Y-113876966D01*
X141752073Y-113800690D01*
X141752075Y-113800688D01*
X141752076Y-113800688D01*
X141885688Y-113667076D01*
X141885688Y-113667075D01*
X141885690Y-113667073D01*
X141933390Y-113601421D01*
X141996760Y-113514200D01*
X142082546Y-113345837D01*
X142140941Y-113166119D01*
X142170500Y-112979487D01*
X142170500Y-112790514D01*
X142140941Y-112603882D01*
X142082546Y-112424164D01*
X142015015Y-112291629D01*
X141996760Y-112255801D01*
X141885690Y-112102927D01*
X141752073Y-111969310D01*
X141599199Y-111858240D01*
X141519653Y-111817710D01*
X141430837Y-111772455D01*
X141430835Y-111772455D01*
X141430832Y-111772453D01*
X141334503Y-111741154D01*
X141251119Y-111714060D01*
X141064486Y-111684500D01*
X141064481Y-111684500D01*
X140875514Y-111684500D01*
X140688882Y-111714060D01*
X140653720Y-111725485D01*
X140509168Y-111772453D01*
X140340801Y-111858240D01*
X140187927Y-111969310D01*
X140054310Y-112102927D01*
X139943240Y-112255801D01*
X139924985Y-112291630D01*
X139877011Y-112342425D01*
X139809190Y-112359220D01*
X139743055Y-112336683D01*
X139699603Y-112281968D01*
X139690500Y-112235334D01*
X139690500Y-78905453D01*
X139710185Y-78838414D01*
X139726819Y-78817772D01*
X141663797Y-76880795D01*
X141725120Y-76847310D01*
X141727286Y-76846859D01*
X141838492Y-76824739D01*
X141838502Y-76824736D01*
X141984173Y-76764398D01*
X141984186Y-76764391D01*
X142115289Y-76676790D01*
X142115293Y-76676787D01*
X142226787Y-76565293D01*
X142226790Y-76565289D01*
X142314391Y-76434186D01*
X142314398Y-76434173D01*
X142374736Y-76288502D01*
X142374739Y-76288490D01*
X142405500Y-76133847D01*
X143618173Y-76133847D01*
X143463390Y-76212713D01*
X143448255Y-76223710D01*
X143425483Y-76240253D01*
X143425483Y-76240254D01*
X143418226Y-76245526D01*
X143297781Y-76333034D01*
X143153034Y-76477781D01*
X143153032Y-76477785D01*
X143153029Y-76477787D01*
X143096741Y-76555262D01*
X143032713Y-76643390D01*
X142939780Y-76825781D01*
X142876523Y-77020466D01*
X142844500Y-77222648D01*
X142844500Y-77427352D01*
X142853269Y-77482716D01*
X142876523Y-77629535D01*
X142932012Y-77800311D01*
X142939780Y-77824219D01*
X142939782Y-77824222D01*
X142939782Y-77824224D01*
X142973497Y-77890393D01*
X143032713Y-78006610D01*
X143064908Y-78050923D01*
X143153029Y-78172214D01*
X143297787Y-78316972D01*
X143463386Y-78437285D01*
X143469994Y-78440652D01*
X143556083Y-78484517D01*
X143606877Y-78532489D01*
X143623672Y-78600310D01*
X143601135Y-78666445D01*
X143556083Y-78705484D01*
X143463390Y-78752713D01*
X143359081Y-78828497D01*
X143297787Y-78873029D01*
X143297785Y-78873032D01*
X143297781Y-78873034D01*
X143153034Y-79017781D01*
X143153032Y-79017785D01*
X143153029Y-79017787D01*
X143096741Y-79095262D01*
X143032713Y-79183390D01*
X142939780Y-79365781D01*
X142876523Y-79560466D01*
X142844500Y-79762648D01*
X142844500Y-79967352D01*
X142853269Y-80022716D01*
X142876523Y-80169535D01*
X142939782Y-80364224D01*
X142973497Y-80430393D01*
X143032713Y-80546610D01*
X143040444Y-80557251D01*
X143153029Y-80712214D01*
X143297787Y-80856972D01*
X143463386Y-80977285D01*
X143469994Y-80980652D01*
X143556083Y-81024517D01*
X143606877Y-81072489D01*
X143623672Y-81140310D01*
X143601135Y-81206445D01*
X143556083Y-81245484D01*
X143463390Y-81292713D01*
X143359081Y-81368497D01*
X143297787Y-81413029D01*
X143297785Y-81413032D01*
X143297781Y-81413034D01*
X143153034Y-81557781D01*
X143153032Y-81557785D01*
X143153029Y-81557787D01*
X143096741Y-81635262D01*
X143032713Y-81723390D01*
X142939780Y-81905781D01*
X142876523Y-82100466D01*
X142844500Y-82302648D01*
X142844500Y-82507352D01*
X142853269Y-82562716D01*
X142876523Y-82709535D01*
X142939782Y-82904224D01*
X142973497Y-82970393D01*
X143032713Y-83086610D01*
X143040444Y-83097251D01*
X143153029Y-83252214D01*
X143297787Y-83396972D01*
X143463386Y-83517285D01*
X143469994Y-83520652D01*
X143556083Y-83564517D01*
X143606877Y-83612489D01*
X143623672Y-83680310D01*
X143601135Y-83746445D01*
X143556083Y-83785484D01*
X143463390Y-83832713D01*
X143359081Y-83908497D01*
X143297787Y-83953029D01*
X143297785Y-83953032D01*
X143297781Y-83953034D01*
X143153034Y-84097781D01*
X143153032Y-84097785D01*
X143153029Y-84097787D01*
X143096741Y-84175262D01*
X143032713Y-84263390D01*
X142939780Y-84445781D01*
X142876523Y-84640466D01*
X142844500Y-84842648D01*
X142844500Y-85047352D01*
X142853269Y-85102716D01*
X142876523Y-85249535D01*
X142939782Y-85444224D01*
X142973497Y-85510393D01*
X143032713Y-85626610D01*
X143040444Y-85637251D01*
X143153029Y-85792214D01*
X143297787Y-85936972D01*
X143463386Y-86057285D01*
X143469994Y-86060652D01*
X143556083Y-86104517D01*
X143606877Y-86152489D01*
X143623672Y-86220310D01*
X143601135Y-86286445D01*
X143556083Y-86325484D01*
X143463390Y-86372713D01*
X143359081Y-86448497D01*
X143297787Y-86493029D01*
X143297785Y-86493032D01*
X143297781Y-86493034D01*
X143153034Y-86637781D01*
X143153032Y-86637785D01*
X143153029Y-86637787D01*
X143096741Y-86715262D01*
X143032713Y-86803390D01*
X142939780Y-86985781D01*
X142876523Y-87180466D01*
X142844500Y-87382648D01*
X142844500Y-87587352D01*
X142853269Y-87642716D01*
X142876523Y-87789535D01*
X142939782Y-87984224D01*
X142973497Y-88050393D01*
X143032713Y-88166610D01*
X143040444Y-88177251D01*
X143153029Y-88332214D01*
X143297787Y-88476972D01*
X143463386Y-88597285D01*
X143469994Y-88600652D01*
X143556083Y-88644517D01*
X143606877Y-88692489D01*
X143623672Y-88760310D01*
X143601135Y-88826445D01*
X143556083Y-88865484D01*
X143463390Y-88912713D01*
X143359081Y-88988497D01*
X143297787Y-89033029D01*
X143297785Y-89033032D01*
X143297781Y-89033034D01*
X143153034Y-89177781D01*
X143153032Y-89177785D01*
X143153029Y-89177787D01*
X143096741Y-89255262D01*
X143032713Y-89343390D01*
X142939780Y-89525781D01*
X142876523Y-89720466D01*
X142844500Y-89922648D01*
X142844500Y-90127352D01*
X142853269Y-90182716D01*
X142876523Y-90329535D01*
X142939782Y-90524224D01*
X142973497Y-90590393D01*
X143032713Y-90706610D01*
X143052897Y-90734391D01*
X143153029Y-90872214D01*
X143297787Y-91016972D01*
X143463386Y-91137285D01*
X143469994Y-91140652D01*
X143556083Y-91184517D01*
X143606877Y-91232489D01*
X143623672Y-91300310D01*
X143601135Y-91366445D01*
X143556083Y-91405484D01*
X143463390Y-91452713D01*
X143359081Y-91528497D01*
X143297787Y-91573029D01*
X143297785Y-91573032D01*
X143297781Y-91573034D01*
X143153034Y-91717781D01*
X143153032Y-91717785D01*
X143153029Y-91717787D01*
X143096741Y-91795262D01*
X143032713Y-91883390D01*
X142939780Y-92065781D01*
X142876523Y-92260466D01*
X142844500Y-92462648D01*
X142844500Y-92667352D01*
X142876523Y-92869534D01*
X142939780Y-93064219D01*
X142939782Y-93064222D01*
X142939782Y-93064224D01*
X142973497Y-93130393D01*
X143032713Y-93246610D01*
X143040444Y-93257251D01*
X143153029Y-93412214D01*
X143297787Y-93556972D01*
X143463386Y-93677285D01*
X143469994Y-93680652D01*
X143556083Y-93724517D01*
X143606877Y-93772489D01*
X143623672Y-93840310D01*
X143601135Y-93906445D01*
X143556083Y-93945484D01*
X143463390Y-93992713D01*
X143359081Y-94068497D01*
X143297787Y-94113029D01*
X143297785Y-94113032D01*
X143297781Y-94113034D01*
X143153034Y-94257781D01*
X143153032Y-94257785D01*
X143153029Y-94257787D01*
X143096741Y-94335262D01*
X143032713Y-94423390D01*
X142939780Y-94605781D01*
X142876523Y-94800466D01*
X142844500Y-95002648D01*
X142844500Y-95207352D01*
X142853269Y-95262716D01*
X142876523Y-95409535D01*
X142939782Y-95604224D01*
X142973497Y-95670393D01*
X143032713Y-95786610D01*
X143040444Y-95797251D01*
X143153029Y-95952214D01*
X143297787Y-96096972D01*
X143463386Y-96217285D01*
X143469994Y-96220652D01*
X143556083Y-96264517D01*
X143606877Y-96312489D01*
X143623672Y-96380310D01*
X143601135Y-96446445D01*
X143556083Y-96485484D01*
X143463390Y-96532713D01*
X143359081Y-96608497D01*
X143297787Y-96653029D01*
X143297785Y-96653032D01*
X143297781Y-96653034D01*
X143153034Y-96797781D01*
X143153032Y-96797785D01*
X143153029Y-96797787D01*
X143096741Y-96875262D01*
X143032713Y-96963390D01*
X142939780Y-97145781D01*
X142876523Y-97340466D01*
X142844500Y-97542648D01*
X142844500Y-97747352D01*
X142876523Y-97949534D01*
X142939780Y-98144219D01*
X142939782Y-98144222D01*
X142939782Y-98144224D01*
X142981744Y-98226578D01*
X143032713Y-98326610D01*
X143040444Y-98337251D01*
X143153029Y-98492214D01*
X143297787Y-98636972D01*
X143463386Y-98757285D01*
X143469994Y-98760652D01*
X143556083Y-98804517D01*
X143606877Y-98852489D01*
X143623672Y-98920310D01*
X143601135Y-98986445D01*
X143556083Y-99025484D01*
X143463390Y-99072713D01*
X143359081Y-99148497D01*
X143297787Y-99193029D01*
X143297785Y-99193032D01*
X143297781Y-99193034D01*
X143153034Y-99337781D01*
X143153032Y-99337785D01*
X143153029Y-99337787D01*
X143096741Y-99415262D01*
X143032713Y-99503390D01*
X142939780Y-99685781D01*
X142876523Y-99880466D01*
X142844500Y-100082648D01*
X142844500Y-100287352D01*
X142876523Y-100489534D01*
X142939780Y-100684219D01*
X142939782Y-100684222D01*
X142939782Y-100684224D01*
X142981744Y-100766578D01*
X143032713Y-100866610D01*
X143040444Y-100877251D01*
X143153029Y-101032214D01*
X143297787Y-101176972D01*
X143463386Y-101297285D01*
X143469994Y-101300652D01*
X143556083Y-101344517D01*
X143606877Y-101392489D01*
X143623672Y-101460310D01*
X143601135Y-101526445D01*
X143556083Y-101565484D01*
X143463390Y-101612713D01*
X143359081Y-101688497D01*
X143297787Y-101733029D01*
X143297785Y-101733032D01*
X143297781Y-101733034D01*
X143153034Y-101877781D01*
X143153032Y-101877785D01*
X143153029Y-101877787D01*
X143096741Y-101955262D01*
X143032713Y-102043390D01*
X142939780Y-102225781D01*
X142876523Y-102420466D01*
X142844500Y-102622648D01*
X142844500Y-102827352D01*
X142876523Y-103029534D01*
X142939780Y-103224219D01*
X142939782Y-103224222D01*
X142939782Y-103224224D01*
X142983949Y-103310905D01*
X143032713Y-103406610D01*
X143044784Y-103423225D01*
X143153029Y-103572214D01*
X143297787Y-103716972D01*
X143463386Y-103837285D01*
X143469994Y-103840652D01*
X143556083Y-103884517D01*
X143606877Y-103932489D01*
X143623672Y-104000310D01*
X143601135Y-104066445D01*
X143556083Y-104105484D01*
X143463390Y-104152713D01*
X143359081Y-104228497D01*
X143297787Y-104273029D01*
X143297785Y-104273032D01*
X143297781Y-104273034D01*
X143153034Y-104417781D01*
X143153032Y-104417785D01*
X143153029Y-104417787D01*
X143096741Y-104495262D01*
X143032713Y-104583390D01*
X142939780Y-104765781D01*
X142876523Y-104960466D01*
X142844500Y-105162648D01*
X142844500Y-105367352D01*
X142876523Y-105569534D01*
X142939780Y-105764219D01*
X142939782Y-105764222D01*
X142939782Y-105764224D01*
X142983949Y-105850905D01*
X143032713Y-105946610D01*
X143089456Y-106024711D01*
X143153029Y-106112214D01*
X143297787Y-106256972D01*
X143463386Y-106377285D01*
X143469994Y-106380652D01*
X143556083Y-106424517D01*
X143606877Y-106472489D01*
X143623672Y-106540310D01*
X143601135Y-106606445D01*
X143556083Y-106645484D01*
X143463390Y-106692713D01*
X143442230Y-106708087D01*
X143297787Y-106813029D01*
X143297785Y-106813032D01*
X143297781Y-106813034D01*
X143153034Y-106957781D01*
X143153032Y-106957785D01*
X143153029Y-106957787D01*
X143096741Y-107035262D01*
X143032713Y-107123390D01*
X142939780Y-107305781D01*
X142876523Y-107500466D01*
X142844500Y-107702648D01*
X142844500Y-107907352D01*
X142876523Y-108109534D01*
X142939780Y-108304219D01*
X142939782Y-108304222D01*
X142939782Y-108304224D01*
X142974421Y-108372205D01*
X143032713Y-108486610D01*
X143093491Y-108570265D01*
X143153029Y-108652214D01*
X143297787Y-108796972D01*
X143463386Y-108917285D01*
X143469994Y-108920652D01*
X143556083Y-108964517D01*
X143606877Y-109012489D01*
X143623672Y-109080310D01*
X143601135Y-109146445D01*
X143556083Y-109185484D01*
X143463390Y-109232713D01*
X143418226Y-109265526D01*
X143297787Y-109353029D01*
X143297785Y-109353032D01*
X143297781Y-109353034D01*
X143153034Y-109497781D01*
X143153032Y-109497785D01*
X143153029Y-109497787D01*
X143093491Y-109579736D01*
X143032713Y-109663390D01*
X142939780Y-109845781D01*
X142876523Y-110040466D01*
X142844500Y-110242648D01*
X142844500Y-110447352D01*
X142853875Y-110506541D01*
X142876523Y-110649535D01*
X142908033Y-110746511D01*
X142939780Y-110844219D01*
X142939782Y-110844222D01*
X142939782Y-110844224D01*
X143032581Y-111026350D01*
X143032713Y-111026610D01*
X143064908Y-111070923D01*
X143153029Y-111192214D01*
X143297787Y-111336972D01*
X143463386Y-111457285D01*
X143469994Y-111460652D01*
X143556083Y-111504517D01*
X143606877Y-111552489D01*
X143623672Y-111620310D01*
X143601135Y-111686445D01*
X143556083Y-111725484D01*
X143463390Y-111772713D01*
X143345671Y-111858240D01*
X143297787Y-111893029D01*
X143297785Y-111893032D01*
X143297781Y-111893034D01*
X143153034Y-112037781D01*
X143153032Y-112037785D01*
X143153029Y-112037787D01*
X143096741Y-112115262D01*
X143032713Y-112203390D01*
X142939780Y-112385781D01*
X142876523Y-112580466D01*
X142844500Y-112782648D01*
X142844500Y-112987352D01*
X142852743Y-113039394D01*
X142876523Y-113189535D01*
X142907542Y-113285000D01*
X142939780Y-113384219D01*
X142939782Y-113384222D01*
X142939782Y-113384224D01*
X142987753Y-113478371D01*
X143032713Y-113566610D01*
X143064908Y-113610923D01*
X143153029Y-113732214D01*
X143297787Y-113876972D01*
X143463386Y-113997285D01*
X143469994Y-114000652D01*
X143556083Y-114044517D01*
X143606877Y-114092489D01*
X143623672Y-114160310D01*
X143601135Y-114226445D01*
X143556083Y-114265484D01*
X143463390Y-114312713D01*
X143345671Y-114398240D01*
X143297787Y-114433029D01*
X143297785Y-114433032D01*
X143297781Y-114433034D01*
X143153034Y-114577781D01*
X143153032Y-114577785D01*
X143153029Y-114577787D01*
X143048108Y-114722201D01*
X143032713Y-114743390D01*
X142939780Y-114925781D01*
X142876523Y-115120466D01*
X142844500Y-115322648D01*
X142844500Y-115527352D01*
X142872814Y-115706119D01*
X142876523Y-115729535D01*
X142905873Y-115819863D01*
X142939780Y-115924219D01*
X142939782Y-115924222D01*
X142939782Y-115924224D01*
X142991135Y-116025009D01*
X143032713Y-116106610D01*
X143052897Y-116134391D01*
X143153029Y-116272214D01*
X143297787Y-116416972D01*
X143463387Y-116537285D01*
X143463388Y-116537286D01*
X143463390Y-116537287D01*
X143523102Y-116567712D01*
X143645777Y-116630219D01*
X143840466Y-116693478D01*
X144015005Y-116721122D01*
X144042648Y-116725500D01*
X144247352Y-116725500D01*
X144271671Y-116721649D01*
X144449535Y-116693478D01*
X144644224Y-116630219D01*
X144826614Y-116537285D01*
X144992214Y-116416972D01*
X145136972Y-116272214D01*
X145257285Y-116106614D01*
X145350219Y-115924224D01*
X145413478Y-115729535D01*
X145445500Y-115527352D01*
X158084501Y-115527352D01*
X158084501Y-116025008D01*
X158095001Y-116127797D01*
X158150186Y-116294334D01*
X158242288Y-116443656D01*
X158366344Y-116567712D01*
X158515666Y-116659814D01*
X158682203Y-116714999D01*
X158682205Y-116715000D01*
X158784990Y-116725500D01*
X159985002Y-116725500D01*
X159985019Y-116725499D01*
X160087797Y-116715000D01*
X160087800Y-116714999D01*
X160254332Y-116659815D01*
X160254337Y-116659813D01*
X160403658Y-116567711D01*
X160527711Y-116443658D01*
X160619813Y-116294337D01*
X160619814Y-116294334D01*
X160674999Y-116127797D01*
X160674999Y-116127796D01*
X160675000Y-116127796D01*
X160685500Y-116025017D01*
X162694500Y-116025017D01*
X162694500Y-119337318D01*
X150445000Y-119337318D01*
X150445000Y-119132683D01*
X150412991Y-118930583D01*
X150349756Y-118735969D01*
X150256859Y-118553650D01*
X150256853Y-118553641D01*
X150224477Y-118509079D01*
X150224476Y-118509078D01*
X149545000Y-119188554D01*
X149545000Y-119182339D01*
X149517741Y-119080606D01*
X149465080Y-118989394D01*
X149390606Y-118914920D01*
X149299394Y-118862259D01*
X149197661Y-118835000D01*
X149191447Y-118835000D01*
X149870924Y-118155526D01*
X149826350Y-118123141D01*
X149644032Y-118030245D01*
X149449418Y-117967010D01*
X149247317Y-117935000D01*
X149042683Y-117935000D01*
X148840583Y-117967010D01*
X148645969Y-118030245D01*
X148463651Y-118123141D01*
X148419079Y-118155526D01*
X149098553Y-118835000D01*
X149092339Y-118835000D01*
X148990606Y-118862259D01*
X148899394Y-118914920D01*
X148824920Y-118989394D01*
X148772259Y-119080606D01*
X148745000Y-119182339D01*
X148745000Y-119188553D01*
X148065526Y-118509079D01*
X148033141Y-118553651D01*
X147940245Y-118735969D01*
X147877010Y-118930583D01*
X147845000Y-119132683D01*
X147845000Y-119337318D01*
X147845005Y-119337352D01*
X145445500Y-119337352D01*
X145445500Y-119132649D01*
X145413478Y-118930466D01*
X145350219Y-118735777D01*
X145286309Y-118610347D01*
X145257415Y-118553641D01*
X145257285Y-118553387D01*
X145136972Y-118387787D01*
X144992214Y-118243029D01*
X144871774Y-118155526D01*
X144826610Y-118122713D01*
X144710393Y-118063497D01*
X144644224Y-118029782D01*
X144644222Y-118029782D01*
X144644219Y-118029780D01*
X144539863Y-117995873D01*
X144449535Y-117966523D01*
X144348443Y-117950512D01*
X144247352Y-117934500D01*
X144247351Y-117934500D01*
X144042649Y-117934500D01*
X144042648Y-117934500D01*
X143840466Y-117966523D01*
X143645781Y-118029780D01*
X143463390Y-118122713D01*
X143370410Y-118190268D01*
X143297787Y-118243029D01*
X143297785Y-118243032D01*
X143297781Y-118243034D01*
X143153034Y-118387781D01*
X143153032Y-118387785D01*
X143153029Y-118387787D01*
X143100268Y-118460410D01*
X143032713Y-118553390D01*
X142939780Y-118735781D01*
X142876523Y-118930466D01*
X142844500Y-119132648D01*
X142844500Y-119337352D01*
X142852743Y-119389394D01*
X142876523Y-119539535D01*
X142930124Y-119704501D01*
X142939780Y-119734219D01*
X142939782Y-119734222D01*
X142939782Y-119734224D01*
X142973497Y-119800393D01*
X143032713Y-119916610D01*
X143064908Y-119960923D01*
X143153029Y-120082214D01*
X143297787Y-120226972D01*
X143463387Y-120347285D01*
X143463388Y-120347286D01*
X143463390Y-120347287D01*
X143555530Y-120394235D01*
X143645777Y-120440219D01*
X143840466Y-120503478D01*
X144015005Y-120531122D01*
X144042648Y-120535500D01*
X144247352Y-120535500D01*
X144271671Y-120531649D01*
X144449535Y-120503478D01*
X144644224Y-120440219D01*
X144826614Y-120347285D01*
X144992214Y-120226972D01*
X145136972Y-120082214D01*
X145257285Y-119916614D01*
X145350219Y-119734224D01*
X145413478Y-119539535D01*
X145445500Y-119337352D01*
X147845005Y-119337352D01*
X147877010Y-119539418D01*
X147940245Y-119734032D01*
X148033141Y-119916350D01*
X148065526Y-119960923D01*
X148065526Y-119960924D01*
X148745000Y-119281449D01*
X148745000Y-119287661D01*
X148772259Y-119389394D01*
X148824920Y-119480606D01*
X148899394Y-119555080D01*
X148990606Y-119607741D01*
X149092339Y-119635000D01*
X149098554Y-119635000D01*
X148419078Y-120314476D01*
X148419079Y-120314477D01*
X148463641Y-120346853D01*
X148463650Y-120346859D01*
X148645969Y-120439756D01*
X148840583Y-120502991D01*
X149042683Y-120535000D01*
X149247317Y-120535000D01*
X149449418Y-120502991D01*
X149644032Y-120439756D01*
X149826356Y-120346857D01*
X149870923Y-120314477D01*
X149870923Y-120314476D01*
X149191446Y-119635000D01*
X149197661Y-119635000D01*
X149299394Y-119607741D01*
X149390606Y-119555080D01*
X149465080Y-119480606D01*
X149517741Y-119389394D01*
X149545000Y-119287661D01*
X149545000Y-119281447D01*
X150224476Y-119960923D01*
X150224477Y-119960923D01*
X150256857Y-119916356D01*
X150349756Y-119734032D01*
X150412991Y-119539418D01*
X150445000Y-119337318D01*
X162694500Y-119337318D01*
X162694500Y-153866247D01*
X139145000Y-153866247D01*
X139145000Y-153653754D01*
X139111758Y-153443873D01*
X139111758Y-153443870D01*
X139046096Y-153241783D01*
X138949625Y-153052450D01*
X138910272Y-152998284D01*
X138277963Y-153630592D01*
X138260925Y-153567007D01*
X138195099Y-153452993D01*
X138102007Y-153359901D01*
X137987993Y-153294075D01*
X137924410Y-153277038D01*
X138593805Y-152607644D01*
X138655128Y-152574159D01*
X138669833Y-152575076D01*
X138669556Y-152572503D01*
X138752374Y-152563599D01*
X138752381Y-152563597D01*
X138887087Y-152513355D01*
X138887094Y-152513351D01*
X139002188Y-152427191D01*
X139002191Y-152427188D01*
X139088351Y-152312094D01*
X139088355Y-152312087D01*
X139138597Y-152177380D01*
X139138599Y-152177373D01*
X139145000Y-152117845D01*
X139145000Y-151470000D01*
X138228012Y-151470000D01*
X138260925Y-151412993D01*
X138295000Y-151285826D01*
X138295000Y-151154174D01*
X138260925Y-151027007D01*
X138228012Y-150970000D01*
X139145000Y-150970000D01*
X139145000Y-150322156D01*
X139138599Y-150262628D01*
X139138597Y-150262621D01*
X139088355Y-150127914D01*
X139088351Y-150127907D01*
X139002191Y-150012813D01*
X139002188Y-150012810D01*
X138887094Y-149926650D01*
X138887087Y-149926646D01*
X138752380Y-149876404D01*
X138752373Y-149876402D01*
X138692845Y-149870001D01*
X138692828Y-149870000D01*
X138045000Y-149870000D01*
X138045000Y-150786988D01*
X137987993Y-150754075D01*
X137860826Y-150720000D01*
X137729174Y-150720000D01*
X137602007Y-150754075D01*
X137545000Y-150786988D01*
X137545000Y-149870000D01*
X136897172Y-149870000D01*
X136897156Y-149870001D01*
X136837628Y-149876402D01*
X136837621Y-149876404D01*
X136702914Y-149926646D01*
X136702907Y-149926650D01*
X136587813Y-150012810D01*
X136587810Y-150012813D01*
X136501650Y-150127907D01*
X136501646Y-150127914D01*
X136452578Y-150259471D01*
X136410707Y-150315405D01*
X136345243Y-150339822D01*
X136276970Y-150324970D01*
X136248715Y-150303819D01*
X136134787Y-150189891D01*
X135962819Y-150064950D01*
X135948208Y-150057506D01*
X135897411Y-150009533D01*
X135880500Y-149947020D01*
X135880500Y-135017350D01*
X135900185Y-134950311D01*
X135901398Y-134948459D01*
X135964391Y-134854185D01*
X135964398Y-134854172D01*
X136024736Y-134708502D01*
X136024739Y-134708490D01*
X136055500Y-134553847D01*
X136055500Y-134396154D01*
X136024739Y-134241511D01*
X136024736Y-134241499D01*
X135964398Y-134095828D01*
X135964391Y-134095815D01*
X135876790Y-133964712D01*
X135876787Y-133964708D01*
X135765293Y-133853214D01*
X135765289Y-133853211D01*
X135634186Y-133765610D01*
X135634173Y-133765603D01*
X135499296Y-133709736D01*
X135488497Y-133705263D01*
X135333847Y-133674501D01*
X135333844Y-133674500D01*
X135333842Y-133674500D01*
X135176156Y-133674500D01*
X135176155Y-133674501D01*
X135021503Y-133705263D01*
X134875821Y-133765606D01*
X134744711Y-133853211D01*
X134633211Y-133964711D01*
X134545606Y-134095821D01*
X134485263Y-134241503D01*
X134454500Y-134396158D01*
X134454500Y-134553842D01*
X134454500Y-134553845D01*
X134454501Y-134553847D01*
X134485263Y-134708497D01*
X134545606Y-134854179D01*
X134608603Y-134948461D01*
X134629480Y-135015137D01*
X134629500Y-135017350D01*
X134629500Y-149947020D01*
X134609815Y-150014059D01*
X134561792Y-150057506D01*
X134547182Y-150064950D01*
X134375214Y-150189891D01*
X134375212Y-150189894D01*
X134375208Y-150189896D01*
X134224896Y-150340208D01*
X134224894Y-150340212D01*
X134224891Y-150340214D01*
X134099952Y-150512180D01*
X134099953Y-150512180D01*
X134099949Y-150512184D01*
X134095486Y-150520946D01*
X134047512Y-150571741D01*
X133979692Y-150588537D01*
X133913556Y-150566001D01*
X133874514Y-150520944D01*
X133870049Y-150512180D01*
X133745110Y-150340214D01*
X133594787Y-150189891D01*
X133422819Y-150064950D01*
X133408208Y-150057506D01*
X133357411Y-150009533D01*
X133340500Y-149947020D01*
X133340500Y-121047350D01*
X133360185Y-120980311D01*
X133361398Y-120978459D01*
X133424391Y-120884185D01*
X133424398Y-120884172D01*
X133484736Y-120738502D01*
X133484739Y-120738490D01*
X133515500Y-120583847D01*
X133515500Y-120426154D01*
X133484739Y-120271511D01*
X133484736Y-120271499D01*
X133424398Y-120125828D01*
X133424391Y-120125815D01*
X133336790Y-119994712D01*
X133336787Y-119994708D01*
X133225293Y-119883214D01*
X133225289Y-119883211D01*
X133094186Y-119795610D01*
X133094173Y-119795603D01*
X132948502Y-119735265D01*
X132948497Y-119735263D01*
X132793847Y-119704501D01*
X132793844Y-119704500D01*
X132793842Y-119704500D01*
X132636156Y-119704500D01*
X132636155Y-119704501D01*
X132481503Y-119735263D01*
X132335821Y-119795606D01*
X132204711Y-119883211D01*
X132093211Y-119994711D01*
X132005606Y-120125821D01*
X131945263Y-120271503D01*
X131914500Y-120426158D01*
X131914500Y-120583842D01*
X131914500Y-120583845D01*
X131914501Y-120583847D01*
X131945262Y-120738490D01*
X131945263Y-120738497D01*
X132005606Y-120884179D01*
X132068603Y-120978461D01*
X132089480Y-121045137D01*
X132089500Y-121047350D01*
X132089500Y-149947020D01*
X132069815Y-150014059D01*
X132021792Y-150057506D01*
X132007182Y-150064950D01*
X131835214Y-150189891D01*
X131835212Y-150189894D01*
X131835208Y-150189896D01*
X131684896Y-150340208D01*
X131684894Y-150340212D01*
X131684891Y-150340214D01*
X131559952Y-150512180D01*
X131559953Y-150512180D01*
X131559949Y-150512184D01*
X131555486Y-150520946D01*
X131507512Y-150571741D01*
X131439692Y-150588537D01*
X131373556Y-150566001D01*
X131334514Y-150520944D01*
X131330049Y-150512180D01*
X131202241Y-150336266D01*
X131203112Y-150335634D01*
X131176643Y-150276599D01*
X131175500Y-150259801D01*
X131175500Y-136478541D01*
X131175500Y-115523541D01*
X131175500Y-110881459D01*
X131175500Y-110881457D01*
X131175501Y-110881457D01*
X131137053Y-110688171D01*
X131137050Y-110688161D01*
X131061636Y-110506093D01*
X131061629Y-110506080D01*
X130952140Y-110342219D01*
X130952137Y-110342215D01*
X130812786Y-110202864D01*
X130812782Y-110202861D01*
X130648921Y-110093372D01*
X130648908Y-110093365D01*
X130483665Y-110024920D01*
X130466835Y-110017949D01*
X130466831Y-110017949D01*
X130466830Y-110017948D01*
X130273544Y-109979500D01*
X130273541Y-109979500D01*
X130076457Y-109979500D01*
X129946418Y-110005368D01*
X129883165Y-110017949D01*
X129701086Y-110093368D01*
X129537218Y-110202861D01*
X129397861Y-110342218D01*
X129288368Y-110506086D01*
X129288179Y-110506541D01*
X129249125Y-110600828D01*
X129212949Y-110688165D01*
X129200368Y-110751418D01*
X129174500Y-110881457D01*
X129174500Y-150259801D01*
X129154815Y-150326840D01*
X129145529Y-150339336D01*
X129019952Y-150512180D01*
X129019953Y-150512180D01*
X129019949Y-150512184D01*
X129015486Y-150520946D01*
X128967512Y-150571741D01*
X128899692Y-150588537D01*
X128833556Y-150566001D01*
X128794514Y-150520944D01*
X128790049Y-150512180D01*
X128665110Y-150340214D01*
X128514787Y-150189891D01*
X128342819Y-150064950D01*
X128328208Y-150057506D01*
X128277411Y-150009533D01*
X128260500Y-149947020D01*
X128260500Y-132477350D01*
X128280185Y-132410311D01*
X128281398Y-132408459D01*
X128344391Y-132314185D01*
X128344398Y-132314172D01*
X128404736Y-132168502D01*
X128404739Y-132168490D01*
X128435500Y-132013847D01*
X128435500Y-131856154D01*
X128404739Y-131701511D01*
X128404736Y-131701499D01*
X128344398Y-131555828D01*
X128344391Y-131555816D01*
X128281398Y-131461541D01*
X128260520Y-131394864D01*
X128260500Y-131392650D01*
X128260500Y-122317350D01*
X128280185Y-122250311D01*
X128281398Y-122248459D01*
X128344391Y-122154185D01*
X128344398Y-122154172D01*
X128404736Y-122008502D01*
X128404739Y-122008490D01*
X128435500Y-121853847D01*
X128435500Y-121696154D01*
X128404739Y-121541511D01*
X128404736Y-121541499D01*
X128344398Y-121395828D01*
X128344391Y-121395816D01*
X128281398Y-121301541D01*
X128260520Y-121234864D01*
X128260500Y-121232650D01*
X128260500Y-90567350D01*
X128280185Y-90500311D01*
X128281374Y-90498497D01*
X128302198Y-90467332D01*
X128344391Y-90404185D01*
X128344398Y-90404172D01*
X128404736Y-90258502D01*
X128404739Y-90258490D01*
X128435500Y-90103847D01*
X128435500Y-89946154D01*
X128404739Y-89791511D01*
X128404736Y-89791499D01*
X128344398Y-89645828D01*
X128344391Y-89645815D01*
X128256790Y-89514712D01*
X128256787Y-89514708D01*
X128145293Y-89403214D01*
X128145289Y-89403211D01*
X128014186Y-89315610D01*
X128014173Y-89315603D01*
X127892712Y-89265293D01*
X127868497Y-89255263D01*
X127713847Y-89224501D01*
X127713844Y-89224500D01*
X127713842Y-89224500D01*
X127556156Y-89224500D01*
X127556155Y-89224501D01*
X127401503Y-89255263D01*
X127286689Y-89302820D01*
X127255828Y-89315603D01*
X127255828Y-89315604D01*
X127255821Y-89315606D01*
X127237363Y-89327939D01*
X127183391Y-89364002D01*
X127116714Y-89384880D01*
X127049334Y-89366396D01*
X127002643Y-89314417D01*
X126990500Y-89260900D01*
X126990500Y-86866941D01*
X127010185Y-86799902D01*
X127026819Y-86779260D01*
X127080787Y-86725293D01*
X127080790Y-86725289D01*
X127168391Y-86594186D01*
X127168398Y-86594173D01*
X127228736Y-86448502D01*
X127228739Y-86448490D01*
X127259500Y-86293847D01*
X127259500Y-86136154D01*
X127228739Y-85981511D01*
X127228736Y-85981499D01*
X127168398Y-85835828D01*
X127168391Y-85835815D01*
X127080790Y-85704712D01*
X127080787Y-85704708D01*
X126969293Y-85593214D01*
X126969289Y-85593211D01*
X126838186Y-85505610D01*
X126838173Y-85505603D01*
X126703296Y-85449736D01*
X126692497Y-85445263D01*
X126557745Y-85418459D01*
X126537847Y-85414501D01*
X126537844Y-85414500D01*
X126537842Y-85414500D01*
X126380156Y-85414500D01*
X126380155Y-85414501D01*
X126225503Y-85445263D01*
X126079821Y-85505606D01*
X125948711Y-85593211D01*
X125837211Y-85704711D01*
X125749606Y-85835821D01*
X125689263Y-85981503D01*
X125658500Y-86136158D01*
X125658500Y-86293842D01*
X125658500Y-86293845D01*
X125658501Y-86293847D01*
X125689261Y-86448489D01*
X125689264Y-86448499D01*
X125730061Y-86546993D01*
X125739500Y-86594445D01*
X125739500Y-89260900D01*
X125719815Y-89327939D01*
X125667011Y-89373694D01*
X125597853Y-89383638D01*
X125546609Y-89364002D01*
X125474186Y-89315610D01*
X125474173Y-89315603D01*
X125352712Y-89265293D01*
X125328497Y-89255263D01*
X125173847Y-89224501D01*
X125173844Y-89224500D01*
X125173842Y-89224500D01*
X125016156Y-89224500D01*
X125016155Y-89224501D01*
X124861503Y-89255263D01*
X124746689Y-89302820D01*
X124715828Y-89315603D01*
X124715828Y-89315604D01*
X124715821Y-89315606D01*
X124697363Y-89327939D01*
X124643391Y-89364002D01*
X124633691Y-89367040D01*
X124626011Y-89373694D01*
X124600914Y-89377303D01*
X124576714Y-89384880D01*
X124566914Y-89382192D01*
X124556853Y-89383638D01*
X124533787Y-89373104D01*
X124509334Y-89366396D01*
X124502543Y-89358836D01*
X124493297Y-89354613D01*
X124479588Y-89333281D01*
X124462643Y-89314417D01*
X124460012Y-89302820D01*
X124455523Y-89295835D01*
X124450500Y-89260900D01*
X124450500Y-89134445D01*
X124459939Y-89086993D01*
X124500737Y-88988499D01*
X124500740Y-88988489D01*
X124531500Y-88833847D01*
X124531500Y-88676154D01*
X124500739Y-88521511D01*
X124500736Y-88521499D01*
X124440398Y-88375828D01*
X124440391Y-88375815D01*
X124352790Y-88244712D01*
X124352787Y-88244708D01*
X124241293Y-88133214D01*
X124241289Y-88133211D01*
X124110186Y-88045610D01*
X124110173Y-88045603D01*
X123975296Y-87989736D01*
X123964497Y-87985263D01*
X123829745Y-87958459D01*
X123809847Y-87954501D01*
X123809844Y-87954500D01*
X123809842Y-87954500D01*
X123652156Y-87954500D01*
X123652155Y-87954501D01*
X123497503Y-87985263D01*
X123351821Y-88045606D01*
X123220711Y-88133211D01*
X123109211Y-88244711D01*
X123021606Y-88375821D01*
X122961263Y-88521503D01*
X122930500Y-88676158D01*
X122930500Y-88833842D01*
X122930500Y-88833845D01*
X122930501Y-88833847D01*
X122961263Y-88988497D01*
X122961265Y-88988502D01*
X123021603Y-89134173D01*
X123021610Y-89134186D01*
X123109211Y-89265289D01*
X123109214Y-89265293D01*
X123163181Y-89319260D01*
X123196666Y-89380583D01*
X123199500Y-89406941D01*
X123199500Y-149838741D01*
X123179815Y-149905780D01*
X123127011Y-149951535D01*
X123057853Y-149961479D01*
X123037195Y-149956676D01*
X122871243Y-149902754D01*
X122661287Y-149869500D01*
X122661286Y-149869500D01*
X122448714Y-149869500D01*
X122448713Y-149869500D01*
X122238757Y-149902754D01*
X122072815Y-149956673D01*
X122002977Y-149958667D01*
X121943144Y-149922587D01*
X121912316Y-149859886D01*
X121910500Y-149838741D01*
X121910500Y-91837350D01*
X121930185Y-91770311D01*
X121931374Y-91768497D01*
X121952198Y-91737332D01*
X121994391Y-91674185D01*
X121994398Y-91674172D01*
X122054736Y-91528502D01*
X122054739Y-91528490D01*
X122085500Y-91373847D01*
X122085500Y-91216154D01*
X122054739Y-91061511D01*
X122054736Y-91061499D01*
X121994398Y-90915828D01*
X121994391Y-90915815D01*
X121906790Y-90784712D01*
X121906787Y-90784708D01*
X121795293Y-90673214D01*
X121795289Y-90673211D01*
X121664186Y-90585610D01*
X121664173Y-90585603D01*
X121542712Y-90535293D01*
X121518497Y-90525263D01*
X121383745Y-90498459D01*
X121363847Y-90494501D01*
X121363844Y-90494500D01*
X121363842Y-90494500D01*
X121206156Y-90494500D01*
X121206155Y-90494501D01*
X121051503Y-90525263D01*
X120905821Y-90585606D01*
X120774711Y-90673211D01*
X120663211Y-90784711D01*
X120575606Y-90915821D01*
X120515263Y-91061503D01*
X120484500Y-91216158D01*
X120484500Y-91373842D01*
X120484500Y-91373845D01*
X120484501Y-91373847D01*
X120515263Y-91528497D01*
X120575606Y-91674179D01*
X120638603Y-91768461D01*
X120659480Y-91835137D01*
X120659500Y-91837350D01*
X120659500Y-149838741D01*
X120639815Y-149905780D01*
X120587011Y-149951535D01*
X120517853Y-149961479D01*
X120497195Y-149956676D01*
X120331243Y-149902754D01*
X120121287Y-149869500D01*
X120121286Y-149869500D01*
X119908714Y-149869500D01*
X119908713Y-149869500D01*
X119698757Y-149902754D01*
X119532815Y-149956673D01*
X119462977Y-149958667D01*
X119403144Y-149922587D01*
X119372316Y-149859886D01*
X119370500Y-149838741D01*
X119370500Y-94377350D01*
X119390185Y-94310311D01*
X119391374Y-94308497D01*
X119412198Y-94277332D01*
X119454391Y-94214185D01*
X119454398Y-94214172D01*
X119514736Y-94068502D01*
X119514739Y-94068490D01*
X119545500Y-93913847D01*
X119545500Y-93756154D01*
X119514739Y-93601511D01*
X119514736Y-93601499D01*
X119454398Y-93455828D01*
X119454391Y-93455815D01*
X119366790Y-93324712D01*
X119366787Y-93324708D01*
X119255293Y-93213214D01*
X119255289Y-93213211D01*
X119124186Y-93125610D01*
X119124173Y-93125603D01*
X118989296Y-93069736D01*
X118978497Y-93065263D01*
X118823847Y-93034501D01*
X118823844Y-93034500D01*
X118823842Y-93034500D01*
X118666156Y-93034500D01*
X118666155Y-93034501D01*
X118511503Y-93065263D01*
X118365821Y-93125606D01*
X118234711Y-93213211D01*
X118123211Y-93324711D01*
X118035606Y-93455821D01*
X117975263Y-93601503D01*
X117944500Y-93756158D01*
X117944500Y-93913842D01*
X117944500Y-93913845D01*
X117944501Y-93913847D01*
X117975263Y-94068497D01*
X118035606Y-94214179D01*
X118098603Y-94308461D01*
X118119480Y-94375137D01*
X118119500Y-94377350D01*
X118119500Y-149838741D01*
X118099815Y-149905780D01*
X118047011Y-149951535D01*
X117977853Y-149961479D01*
X117957195Y-149956676D01*
X117791243Y-149902754D01*
X117581287Y-149869500D01*
X117581286Y-149869500D01*
X117368714Y-149869500D01*
X117368713Y-149869500D01*
X117158757Y-149902754D01*
X116992815Y-149956673D01*
X116922977Y-149958667D01*
X116863144Y-149922587D01*
X116832316Y-149859886D01*
X116830500Y-149838741D01*
X116830500Y-96917350D01*
X116850185Y-96850311D01*
X116851374Y-96848497D01*
X116869752Y-96820991D01*
X116914391Y-96754185D01*
X116914398Y-96754172D01*
X116974736Y-96608502D01*
X116974739Y-96608490D01*
X117005500Y-96453847D01*
X117005500Y-96296154D01*
X116974739Y-96141511D01*
X116974736Y-96141499D01*
X116914398Y-95995828D01*
X116914391Y-95995815D01*
X116826790Y-95864712D01*
X116826787Y-95864708D01*
X116715293Y-95753214D01*
X116715289Y-95753211D01*
X116584186Y-95665610D01*
X116584173Y-95665603D01*
X116449296Y-95609736D01*
X116438497Y-95605263D01*
X116303745Y-95578459D01*
X116283847Y-95574501D01*
X116283844Y-95574500D01*
X116283842Y-95574500D01*
X116126156Y-95574500D01*
X116126155Y-95574501D01*
X115971503Y-95605263D01*
X115825821Y-95665606D01*
X115694711Y-95753211D01*
X115583211Y-95864711D01*
X115495606Y-95995821D01*
X115435263Y-96141503D01*
X115404500Y-96296158D01*
X115404500Y-96453842D01*
X115404500Y-96453845D01*
X115404501Y-96453847D01*
X115435263Y-96608497D01*
X115495606Y-96754179D01*
X115558603Y-96848461D01*
X115579480Y-96915137D01*
X115579500Y-96917350D01*
X115579500Y-149838741D01*
X115559815Y-149905780D01*
X115507011Y-149951535D01*
X115437853Y-149961479D01*
X115417195Y-149956676D01*
X115251243Y-149902754D01*
X115041287Y-149869500D01*
X115041286Y-149869500D01*
X114828714Y-149869500D01*
X114828713Y-149869500D01*
X114618757Y-149902754D01*
X114452815Y-149956673D01*
X114382977Y-149958667D01*
X114323144Y-149922587D01*
X114292316Y-149859886D01*
X114290500Y-149838741D01*
X114290500Y-99457350D01*
X114310185Y-99390311D01*
X114311374Y-99388497D01*
X114329752Y-99360991D01*
X114374391Y-99294185D01*
X114374398Y-99294172D01*
X114434736Y-99148502D01*
X114434739Y-99148490D01*
X114465500Y-98993847D01*
X114465500Y-98836154D01*
X114434739Y-98681511D01*
X114434736Y-98681499D01*
X114374398Y-98535828D01*
X114374391Y-98535815D01*
X114286790Y-98404712D01*
X114286787Y-98404708D01*
X114175293Y-98293214D01*
X114175289Y-98293211D01*
X114044186Y-98205610D01*
X114044173Y-98205603D01*
X113898502Y-98145265D01*
X113898497Y-98145263D01*
X113743847Y-98114501D01*
X113743844Y-98114500D01*
X113743842Y-98114500D01*
X113586156Y-98114500D01*
X113586155Y-98114501D01*
X113431503Y-98145263D01*
X113285821Y-98205606D01*
X113154711Y-98293211D01*
X113043211Y-98404711D01*
X112955606Y-98535821D01*
X112895263Y-98681503D01*
X112864500Y-98836158D01*
X112864500Y-98993842D01*
X112864500Y-98993845D01*
X112864501Y-98993847D01*
X112895263Y-99148497D01*
X112955606Y-99294179D01*
X113018603Y-99388461D01*
X113039480Y-99455137D01*
X113039500Y-99457350D01*
X113039500Y-112120900D01*
X113019815Y-112187939D01*
X112967011Y-112233694D01*
X112897853Y-112243638D01*
X112846609Y-112224002D01*
X112774186Y-112175610D01*
X112774173Y-112175603D01*
X112642106Y-112120900D01*
X112628497Y-112115263D01*
X112473847Y-112084501D01*
X112473844Y-112084500D01*
X112473842Y-112084500D01*
X112316156Y-112084500D01*
X112316155Y-112084501D01*
X112161503Y-112115263D01*
X112048834Y-112161933D01*
X112015828Y-112175603D01*
X112015828Y-112175604D01*
X112015821Y-112175606D01*
X111974239Y-112203390D01*
X111943391Y-112224002D01*
X111876714Y-112244880D01*
X111809334Y-112226396D01*
X111762643Y-112174417D01*
X111750500Y-112120900D01*
X111750500Y-102106941D01*
X111770185Y-102039902D01*
X111786819Y-102019260D01*
X111840787Y-101965293D01*
X111840790Y-101965289D01*
X111928391Y-101834186D01*
X111928398Y-101834173D01*
X111988736Y-101688502D01*
X111988739Y-101688490D01*
X112019500Y-101533847D01*
X112019500Y-101376154D01*
X111988739Y-101221511D01*
X111988736Y-101221499D01*
X111928398Y-101075828D01*
X111928391Y-101075815D01*
X111840790Y-100944712D01*
X111840787Y-100944708D01*
X111729293Y-100833214D01*
X111729289Y-100833211D01*
X111598186Y-100745610D01*
X111598173Y-100745603D01*
X111452502Y-100685265D01*
X111452497Y-100685263D01*
X111297847Y-100654501D01*
X111297844Y-100654500D01*
X111297842Y-100654500D01*
X111140156Y-100654500D01*
X111140155Y-100654501D01*
X110985503Y-100685263D01*
X110839821Y-100745606D01*
X110708711Y-100833211D01*
X110597211Y-100944711D01*
X110509606Y-101075821D01*
X110449263Y-101221503D01*
X110418500Y-101376158D01*
X110418500Y-101533842D01*
X110418500Y-101533845D01*
X110418501Y-101533847D01*
X110449261Y-101688489D01*
X110449264Y-101688499D01*
X110490061Y-101786993D01*
X110499500Y-101834445D01*
X110499500Y-107040900D01*
X110479815Y-107107939D01*
X110427011Y-107153694D01*
X110357853Y-107163638D01*
X110306609Y-107144002D01*
X110234186Y-107095610D01*
X110234173Y-107095603D01*
X110102106Y-107040900D01*
X110088497Y-107035263D01*
X109933847Y-107004501D01*
X109933844Y-107004500D01*
X109933842Y-107004500D01*
X109776156Y-107004500D01*
X109776155Y-107004501D01*
X109621503Y-107035263D01*
X109508834Y-107081933D01*
X109475828Y-107095603D01*
X109475828Y-107095604D01*
X109475821Y-107095606D01*
X109434239Y-107123390D01*
X109403391Y-107144002D01*
X109336714Y-107164880D01*
X109269334Y-107146396D01*
X109222643Y-107094417D01*
X109210500Y-107040900D01*
X109210500Y-104646941D01*
X109230185Y-104579902D01*
X109246819Y-104559260D01*
X109300787Y-104505293D01*
X109300790Y-104505289D01*
X109388391Y-104374186D01*
X109388398Y-104374173D01*
X109448736Y-104228502D01*
X109448739Y-104228490D01*
X109479500Y-104073847D01*
X109479500Y-103916154D01*
X109448739Y-103761511D01*
X109448736Y-103761499D01*
X109388398Y-103615828D01*
X109388391Y-103615815D01*
X109300790Y-103484712D01*
X109300787Y-103484708D01*
X109189293Y-103373214D01*
X109189289Y-103373211D01*
X109058186Y-103285610D01*
X109058173Y-103285603D01*
X108912502Y-103225265D01*
X108912497Y-103225263D01*
X108757847Y-103194501D01*
X108757844Y-103194500D01*
X108757842Y-103194500D01*
X108600156Y-103194500D01*
X108600155Y-103194501D01*
X108445503Y-103225263D01*
X108299821Y-103285606D01*
X108168711Y-103373211D01*
X108165553Y-103376369D01*
X108152181Y-103389740D01*
X108090858Y-103423225D01*
X108021166Y-103418241D01*
X107965233Y-103376369D01*
X107940816Y-103310905D01*
X107940500Y-103302059D01*
X107940500Y-88027350D01*
X107960185Y-87960311D01*
X107961374Y-87958497D01*
X107982198Y-87927332D01*
X108024391Y-87864185D01*
X108024398Y-87864172D01*
X108084736Y-87718502D01*
X108084739Y-87718490D01*
X108115500Y-87563847D01*
X108115500Y-87406154D01*
X108084739Y-87251511D01*
X108084736Y-87251499D01*
X108024398Y-87105828D01*
X108024391Y-87105815D01*
X107936790Y-86974712D01*
X107936787Y-86974708D01*
X107825293Y-86863214D01*
X107825289Y-86863211D01*
X107694186Y-86775610D01*
X107694173Y-86775603D01*
X107572712Y-86725293D01*
X107548497Y-86715263D01*
X107393847Y-86684501D01*
X107393844Y-86684500D01*
X107393842Y-86684500D01*
X107236156Y-86684500D01*
X107236155Y-86684501D01*
X107081503Y-86715263D01*
X106935821Y-86775606D01*
X106804711Y-86863211D01*
X106693211Y-86974711D01*
X106605606Y-87105821D01*
X106545263Y-87251503D01*
X106514500Y-87406158D01*
X106514500Y-87563842D01*
X106514500Y-87563845D01*
X106514501Y-87563847D01*
X106545263Y-87718497D01*
X106605606Y-87864179D01*
X106668603Y-87958461D01*
X106689480Y-88025137D01*
X106689500Y-88027350D01*
X106689500Y-102032059D01*
X106669815Y-102099098D01*
X106617011Y-102144853D01*
X106547853Y-102154797D01*
X106484297Y-102125772D01*
X106477819Y-102119740D01*
X106461293Y-102103214D01*
X106461289Y-102103211D01*
X106330186Y-102015610D01*
X106330173Y-102015603D01*
X106208712Y-101965293D01*
X106184497Y-101955263D01*
X106065822Y-101931657D01*
X106029847Y-101924501D01*
X106029844Y-101924500D01*
X106029842Y-101924500D01*
X105872156Y-101924500D01*
X105872155Y-101924501D01*
X105717503Y-101955263D01*
X105571951Y-102015553D01*
X105502483Y-102023021D01*
X105440004Y-101991746D01*
X105404352Y-101931657D01*
X105400500Y-101900991D01*
X105400500Y-85487350D01*
X105420185Y-85420311D01*
X105421374Y-85418497D01*
X105442198Y-85387332D01*
X105484391Y-85324185D01*
X105484398Y-85324172D01*
X105544736Y-85178502D01*
X105544739Y-85178490D01*
X105575500Y-85023847D01*
X105575500Y-84866154D01*
X105544739Y-84711511D01*
X105544736Y-84711499D01*
X105484398Y-84565828D01*
X105484391Y-84565815D01*
X105396790Y-84434712D01*
X105396787Y-84434708D01*
X105285293Y-84323214D01*
X105285289Y-84323211D01*
X105154186Y-84235610D01*
X105154173Y-84235603D01*
X105019296Y-84179736D01*
X105008497Y-84175263D01*
X104873745Y-84148459D01*
X104853847Y-84144501D01*
X104853844Y-84144500D01*
X104853842Y-84144500D01*
X104696156Y-84144500D01*
X104696155Y-84144501D01*
X104541503Y-84175263D01*
X104395821Y-84235606D01*
X104264711Y-84323211D01*
X104153211Y-84434711D01*
X104065606Y-84565821D01*
X104005263Y-84711503D01*
X103974500Y-84866158D01*
X103974500Y-85023842D01*
X103974500Y-85023845D01*
X103974501Y-85023847D01*
X104005263Y-85178497D01*
X104065606Y-85324179D01*
X104128603Y-85418461D01*
X104149480Y-85485137D01*
X104149500Y-85487350D01*
X104149500Y-99492059D01*
X104129815Y-99559098D01*
X104077011Y-99604853D01*
X104007853Y-99614797D01*
X103944297Y-99585772D01*
X103937819Y-99579740D01*
X103921293Y-99563214D01*
X103921289Y-99563211D01*
X103790186Y-99475610D01*
X103790173Y-99475603D01*
X103655296Y-99419736D01*
X103644497Y-99415263D01*
X103509745Y-99388459D01*
X103489847Y-99384501D01*
X103489844Y-99384500D01*
X103489842Y-99384500D01*
X103332156Y-99384500D01*
X103332155Y-99384501D01*
X103177503Y-99415263D01*
X103031951Y-99475553D01*
X102962483Y-99483021D01*
X102900004Y-99451746D01*
X102864352Y-99391657D01*
X102860500Y-99360991D01*
X102860500Y-82947350D01*
X102880185Y-82880311D01*
X102881374Y-82878497D01*
X102902198Y-82847332D01*
X102944391Y-82784185D01*
X102944398Y-82784172D01*
X103004736Y-82638502D01*
X103004739Y-82638490D01*
X103035500Y-82483847D01*
X103035500Y-82326154D01*
X103004739Y-82171511D01*
X103004736Y-82171499D01*
X102944398Y-82025828D01*
X102944391Y-82025815D01*
X102856790Y-81894712D01*
X102856787Y-81894708D01*
X102745293Y-81783214D01*
X102745289Y-81783211D01*
X102614186Y-81695610D01*
X102614173Y-81695603D01*
X102479296Y-81639736D01*
X102468497Y-81635263D01*
X102333745Y-81608459D01*
X102313847Y-81604501D01*
X102313844Y-81604500D01*
X102313842Y-81604500D01*
X102156156Y-81604500D01*
X102156155Y-81604501D01*
X102001503Y-81635263D01*
X101855821Y-81695606D01*
X101724711Y-81783211D01*
X101613211Y-81894711D01*
X101525606Y-82025821D01*
X101465263Y-82171503D01*
X101434500Y-82326158D01*
X101434500Y-82483842D01*
X101434500Y-82483845D01*
X101434501Y-82483847D01*
X101465263Y-82638497D01*
X101525606Y-82784179D01*
X101588603Y-82878461D01*
X101609480Y-82945137D01*
X101609500Y-82947350D01*
X101609500Y-91800900D01*
X101589815Y-91867939D01*
X101537011Y-91913694D01*
X101467853Y-91923638D01*
X101416609Y-91904002D01*
X101344186Y-91855610D01*
X101344173Y-91855603D01*
X101212106Y-91800900D01*
X101198497Y-91795263D01*
X101063745Y-91768459D01*
X101043847Y-91764501D01*
X101043844Y-91764500D01*
X101043842Y-91764500D01*
X100886156Y-91764500D01*
X100886155Y-91764501D01*
X100731503Y-91795263D01*
X100618834Y-91841933D01*
X100585828Y-91855603D01*
X100585828Y-91855604D01*
X100585821Y-91855606D01*
X100513391Y-91904002D01*
X100446714Y-91924880D01*
X100379334Y-91906396D01*
X100332643Y-91854417D01*
X100320500Y-91800900D01*
X100320500Y-80407350D01*
X100340185Y-80340311D01*
X100341374Y-80338497D01*
X100362198Y-80307332D01*
X100404391Y-80244185D01*
X100404398Y-80244172D01*
X100464736Y-80098502D01*
X100464739Y-80098490D01*
X100495500Y-79943847D01*
X100495500Y-79786154D01*
X100464739Y-79631511D01*
X100464736Y-79631499D01*
X100404398Y-79485828D01*
X100404391Y-79485815D01*
X100316790Y-79354712D01*
X100316787Y-79354708D01*
X100205293Y-79243214D01*
X100205289Y-79243211D01*
X100074186Y-79155610D01*
X100074173Y-79155603D01*
X99939296Y-79099736D01*
X99928497Y-79095263D01*
X99793745Y-79068459D01*
X99773847Y-79064501D01*
X99773844Y-79064500D01*
X99773842Y-79064500D01*
X99616156Y-79064500D01*
X99616155Y-79064501D01*
X99461503Y-79095263D01*
X99315821Y-79155606D01*
X99184711Y-79243211D01*
X99073211Y-79354711D01*
X98985606Y-79485821D01*
X98925263Y-79631503D01*
X98894500Y-79786158D01*
X98894500Y-79943842D01*
X98894500Y-79943845D01*
X98894501Y-79943847D01*
X98925263Y-80098497D01*
X98985606Y-80244179D01*
X99048603Y-80338461D01*
X99069480Y-80405137D01*
X99069500Y-80407350D01*
X99069500Y-96820991D01*
X99049815Y-96888030D01*
X98997011Y-96933785D01*
X98927853Y-96943729D01*
X98898052Y-96935554D01*
X98752497Y-96875263D01*
X98617745Y-96848459D01*
X98597847Y-96844501D01*
X98597844Y-96844500D01*
X98597842Y-96844500D01*
X98440156Y-96844500D01*
X98440155Y-96844501D01*
X98285503Y-96875263D01*
X98139821Y-96935606D01*
X98008711Y-97023211D01*
X98005553Y-97026369D01*
X97992181Y-97039740D01*
X97930858Y-97073225D01*
X97861166Y-97068241D01*
X97805233Y-97026369D01*
X97780816Y-96960905D01*
X97780500Y-96952059D01*
X97780500Y-77867350D01*
X97800185Y-77800311D01*
X97801374Y-77798497D01*
X97822198Y-77767332D01*
X97864391Y-77704185D01*
X97864398Y-77704172D01*
X97924736Y-77558502D01*
X97924739Y-77558490D01*
X97955500Y-77403847D01*
X97955500Y-77246154D01*
X97924739Y-77091511D01*
X97924736Y-77091499D01*
X97864398Y-76945828D01*
X97864391Y-76945815D01*
X97776790Y-76814712D01*
X97776787Y-76814708D01*
X97665293Y-76703214D01*
X97665289Y-76703211D01*
X97534186Y-76615610D01*
X97534173Y-76615603D01*
X97412712Y-76565293D01*
X97388497Y-76555263D01*
X97253745Y-76528459D01*
X97233847Y-76524501D01*
X97233844Y-76524500D01*
X97233842Y-76524500D01*
X97076156Y-76524500D01*
X97076155Y-76524501D01*
X96921503Y-76555263D01*
X96775821Y-76615606D01*
X96644711Y-76703211D01*
X96533211Y-76814711D01*
X96445606Y-76945821D01*
X96385263Y-77091503D01*
X96354500Y-77246158D01*
X96354500Y-77403842D01*
X96354500Y-77403845D01*
X96354501Y-77403847D01*
X96359170Y-77427318D01*
X96385263Y-77558497D01*
X96414688Y-77629535D01*
X96445603Y-77704172D01*
X96445604Y-77704173D01*
X96445606Y-77704179D01*
X96508603Y-77798461D01*
X96529480Y-77865137D01*
X96529500Y-77867350D01*
X96529500Y-105710991D01*
X96509815Y-105778030D01*
X96457011Y-105823785D01*
X96387853Y-105833729D01*
X96358052Y-105825554D01*
X96212497Y-105765263D01*
X96057847Y-105734501D01*
X96057844Y-105734500D01*
X96057842Y-105734500D01*
X95900156Y-105734500D01*
X95900155Y-105734501D01*
X95745503Y-105765263D01*
X95599821Y-105825606D01*
X95468711Y-105913211D01*
X95465553Y-105916369D01*
X95452181Y-105929740D01*
X95390858Y-105963225D01*
X95321166Y-105958241D01*
X95265233Y-105916369D01*
X95240816Y-105850905D01*
X95240500Y-105842059D01*
X95240500Y-79137350D01*
X95260185Y-79070311D01*
X95261374Y-79068497D01*
X95282198Y-79037332D01*
X95324391Y-78974185D01*
X95324398Y-78974172D01*
X95384736Y-78828502D01*
X95384739Y-78828490D01*
X95415500Y-78673847D01*
X95415500Y-78516154D01*
X95384739Y-78361511D01*
X95384736Y-78361499D01*
X95324398Y-78215828D01*
X95324391Y-78215815D01*
X95236790Y-78084712D01*
X95236787Y-78084708D01*
X95125293Y-77973214D01*
X95125289Y-77973211D01*
X94994186Y-77885610D01*
X94994173Y-77885603D01*
X94859296Y-77829736D01*
X94848497Y-77825263D01*
X94713745Y-77798459D01*
X94693847Y-77794501D01*
X94693844Y-77794500D01*
X94693842Y-77794500D01*
X94536156Y-77794500D01*
X94536155Y-77794501D01*
X94381503Y-77825263D01*
X94235821Y-77885606D01*
X94104711Y-77973211D01*
X93993211Y-78084711D01*
X93905606Y-78215821D01*
X93845263Y-78361503D01*
X93814500Y-78516158D01*
X93814500Y-78673842D01*
X93814500Y-78673845D01*
X93814501Y-78673847D01*
X93845263Y-78828497D01*
X93905606Y-78974179D01*
X93968603Y-79068461D01*
X93989480Y-79135137D01*
X93989500Y-79137350D01*
X93989500Y-104440991D01*
X93969815Y-104508030D01*
X93917011Y-104553785D01*
X93847853Y-104563729D01*
X93818052Y-104555554D01*
X93672497Y-104495263D01*
X93517847Y-104464501D01*
X93517844Y-104464500D01*
X93517842Y-104464500D01*
X93360156Y-104464500D01*
X93360155Y-104464501D01*
X93205503Y-104495263D01*
X93059821Y-104555606D01*
X92928711Y-104643211D01*
X92924981Y-104646941D01*
X92912181Y-104659740D01*
X92850858Y-104693225D01*
X92781166Y-104688241D01*
X92725233Y-104646369D01*
X92700816Y-104580905D01*
X92700500Y-104572059D01*
X92700500Y-81677350D01*
X92720185Y-81610311D01*
X92721374Y-81608497D01*
X92742198Y-81577332D01*
X92784391Y-81514185D01*
X92784398Y-81514172D01*
X92844736Y-81368502D01*
X92844739Y-81368490D01*
X92875500Y-81213847D01*
X92875500Y-81056154D01*
X92844739Y-80901511D01*
X92844736Y-80901499D01*
X92784398Y-80755828D01*
X92784391Y-80755815D01*
X92696790Y-80624712D01*
X92696787Y-80624708D01*
X92585293Y-80513214D01*
X92585289Y-80513211D01*
X92454186Y-80425610D01*
X92454173Y-80425603D01*
X92319296Y-80369736D01*
X92308497Y-80365263D01*
X92173745Y-80338459D01*
X92153847Y-80334501D01*
X92153844Y-80334500D01*
X92153842Y-80334500D01*
X91996156Y-80334500D01*
X91996155Y-80334501D01*
X91841503Y-80365263D01*
X91695821Y-80425606D01*
X91564711Y-80513211D01*
X91453211Y-80624711D01*
X91365606Y-80755821D01*
X91305263Y-80901503D01*
X91274500Y-81056158D01*
X91274500Y-81213842D01*
X91274500Y-81213845D01*
X91274501Y-81213847D01*
X91305263Y-81368497D01*
X91365606Y-81514179D01*
X91428603Y-81608461D01*
X91449480Y-81675137D01*
X91449500Y-81677350D01*
X91449500Y-94340900D01*
X91429815Y-94407939D01*
X91377011Y-94453694D01*
X91307853Y-94463638D01*
X91256609Y-94444002D01*
X91184186Y-94395610D01*
X91184173Y-94395603D01*
X91052106Y-94340900D01*
X91038497Y-94335263D01*
X90903745Y-94308459D01*
X90883847Y-94304501D01*
X90883844Y-94304500D01*
X90883842Y-94304500D01*
X90726156Y-94304500D01*
X90726155Y-94304501D01*
X90571503Y-94335263D01*
X90458834Y-94381933D01*
X90425828Y-94395603D01*
X90425828Y-94395604D01*
X90425821Y-94395606D01*
X90353391Y-94444002D01*
X90286714Y-94464880D01*
X90219334Y-94446396D01*
X90172643Y-94394417D01*
X90160500Y-94340900D01*
X90160500Y-84217350D01*
X90180185Y-84150311D01*
X90181374Y-84148497D01*
X90202198Y-84117332D01*
X90244391Y-84054185D01*
X90244398Y-84054172D01*
X90304736Y-83908502D01*
X90304739Y-83908490D01*
X90335500Y-83753847D01*
X90335500Y-83596154D01*
X90304739Y-83441511D01*
X90304736Y-83441499D01*
X90244398Y-83295828D01*
X90244391Y-83295815D01*
X90156790Y-83164712D01*
X90156787Y-83164708D01*
X90045293Y-83053214D01*
X90045289Y-83053211D01*
X89914186Y-82965610D01*
X89914173Y-82965603D01*
X89779296Y-82909736D01*
X89768497Y-82905263D01*
X89633745Y-82878459D01*
X89613847Y-82874501D01*
X89613844Y-82874500D01*
X89613842Y-82874500D01*
X89456156Y-82874500D01*
X89456155Y-82874501D01*
X89301503Y-82905263D01*
X89155821Y-82965606D01*
X89024711Y-83053211D01*
X88913211Y-83164711D01*
X88825606Y-83295821D01*
X88765263Y-83441503D01*
X88734500Y-83596158D01*
X88734500Y-83753842D01*
X88734500Y-83753845D01*
X88734501Y-83753847D01*
X88765263Y-83908497D01*
X88825606Y-84054179D01*
X88888603Y-84148461D01*
X88909480Y-84215137D01*
X88909500Y-84217350D01*
X88909500Y-90103847D01*
X84620500Y-90103847D01*
X84620500Y-89946154D01*
X84589739Y-89791511D01*
X84589736Y-89791499D01*
X84529398Y-89645828D01*
X84529391Y-89645816D01*
X84466398Y-89551541D01*
X84445520Y-89484864D01*
X84445500Y-89482650D01*
X84445500Y-75962350D01*
X84465185Y-75895311D01*
X84466398Y-75893459D01*
X84529391Y-75799185D01*
X84529398Y-75799172D01*
X84589736Y-75653502D01*
X84589739Y-75653490D01*
X84620500Y-75498847D01*
X84620500Y-75341154D01*
X84589739Y-75186511D01*
X84589736Y-75186499D01*
X84529398Y-75040828D01*
X84529391Y-75040815D01*
X84441790Y-74909712D01*
X84441787Y-74909708D01*
X84330293Y-74798214D01*
X84330289Y-74798211D01*
X84199186Y-74710610D01*
X84199173Y-74710603D01*
X84053502Y-74650265D01*
X84053497Y-74650263D01*
X83898847Y-74619501D01*
X83898844Y-74619500D01*
X83898842Y-74619500D01*
X83741156Y-74619500D01*
X83741155Y-74619501D01*
X83586503Y-74650263D01*
X83440821Y-74710606D01*
X83309711Y-74798211D01*
X83198211Y-74909711D01*
X83110606Y-75040821D01*
X83050263Y-75186503D01*
X83019500Y-75341158D01*
X83019500Y-75498842D01*
X83019500Y-75498845D01*
X83019501Y-75498847D01*
X83050262Y-75653490D01*
X83050263Y-75653497D01*
X83050265Y-75653502D01*
X83110603Y-75799172D01*
X83110604Y-75799173D01*
X83110606Y-75799179D01*
X83173603Y-75893461D01*
X83194480Y-75960137D01*
X83194500Y-75962350D01*
X83194500Y-89482650D01*
X83174815Y-89549689D01*
X83173602Y-89551541D01*
X83173191Y-89552157D01*
X83110606Y-89645821D01*
X83050263Y-89791503D01*
X83019500Y-89946158D01*
X83019500Y-90103842D01*
X83019500Y-90103845D01*
X83019501Y-90103847D01*
X83050263Y-90258497D01*
X83050265Y-90258502D01*
X83110603Y-90404173D01*
X83110610Y-90404186D01*
X83198211Y-90535289D01*
X83198214Y-90535293D01*
X83309708Y-90646787D01*
X83309712Y-90646790D01*
X83440815Y-90734391D01*
X83440828Y-90734398D01*
X83586499Y-90794736D01*
X83586511Y-90794739D01*
X83741155Y-90825500D01*
X83741158Y-90825500D01*
X83898842Y-90825500D01*
X83898845Y-90825500D01*
X84053490Y-90794739D01*
X84053502Y-90794736D01*
X84199173Y-90734398D01*
X84199186Y-90734391D01*
X84330289Y-90646790D01*
X84330293Y-90646787D01*
X84441787Y-90535293D01*
X84441790Y-90535289D01*
X84529391Y-90404186D01*
X84529398Y-90404173D01*
X84589736Y-90258502D01*
X84589739Y-90258490D01*
X84620500Y-90103847D01*
X88909500Y-90103847D01*
X88909500Y-111058847D01*
X81445500Y-111058847D01*
X81445500Y-110901154D01*
X81414739Y-110746511D01*
X81414736Y-110746499D01*
X81354398Y-110600828D01*
X81354391Y-110600816D01*
X81291398Y-110506541D01*
X81270520Y-110439864D01*
X81270500Y-110437650D01*
X81270500Y-71517350D01*
X81290185Y-71450311D01*
X81291398Y-71448459D01*
X81354391Y-71354185D01*
X81354398Y-71354172D01*
X81414736Y-71208502D01*
X81414739Y-71208490D01*
X81445500Y-71053847D01*
X81445500Y-70896154D01*
X81414739Y-70741511D01*
X81414736Y-70741499D01*
X81354398Y-70595828D01*
X81354391Y-70595815D01*
X81266790Y-70464712D01*
X81266787Y-70464708D01*
X81155293Y-70353214D01*
X81155289Y-70353211D01*
X81024186Y-70265610D01*
X81024173Y-70265603D01*
X80878502Y-70205265D01*
X80878497Y-70205263D01*
X80723847Y-70174501D01*
X80723844Y-70174500D01*
X80723842Y-70174500D01*
X80566156Y-70174500D01*
X80566155Y-70174501D01*
X80411503Y-70205263D01*
X80265821Y-70265606D01*
X80134711Y-70353211D01*
X80023211Y-70464711D01*
X79935606Y-70595821D01*
X79875263Y-70741503D01*
X79844500Y-70896158D01*
X79844500Y-71053842D01*
X79844500Y-71053845D01*
X79844501Y-71053847D01*
X79875262Y-71208490D01*
X79875263Y-71208497D01*
X79935606Y-71354179D01*
X79998603Y-71448461D01*
X80019480Y-71515137D01*
X80019500Y-71517350D01*
X80019500Y-109675017D01*
X76865500Y-109675017D01*
X76865500Y-108474999D01*
X76865499Y-108474982D01*
X76855000Y-108372204D01*
X76854999Y-108372201D01*
X76824877Y-108281300D01*
X76799814Y-108205666D01*
X76707712Y-108056344D01*
X76583656Y-107932288D01*
X76434334Y-107840186D01*
X76352430Y-107813046D01*
X76294985Y-107773273D01*
X76268162Y-107708757D01*
X76280477Y-107639982D01*
X76318549Y-107595022D01*
X76412213Y-107526972D01*
X76412218Y-107526968D01*
X76556972Y-107382214D01*
X76677285Y-107216614D01*
X76770219Y-107034224D01*
X76833478Y-106839535D01*
X76865500Y-106637352D01*
X76865500Y-106432649D01*
X76833478Y-106230466D01*
X76770219Y-106035777D01*
X76677285Y-105853387D01*
X76556972Y-105687787D01*
X76412214Y-105543029D01*
X76257251Y-105430444D01*
X76246610Y-105422713D01*
X76155160Y-105376117D01*
X76153920Y-105375485D01*
X76103124Y-105327510D01*
X76086329Y-105259689D01*
X76108866Y-105193554D01*
X76153920Y-105154515D01*
X76246614Y-105107285D01*
X76412214Y-104986972D01*
X76556972Y-104842214D01*
X76677285Y-104676614D01*
X76770219Y-104494224D01*
X76833478Y-104299535D01*
X76865500Y-104097352D01*
X76865500Y-103892649D01*
X76833478Y-103690466D01*
X76770219Y-103495777D01*
X76677285Y-103313387D01*
X76556972Y-103147787D01*
X76412214Y-103003029D01*
X76257251Y-102890444D01*
X76246610Y-102882713D01*
X76155160Y-102836117D01*
X76153920Y-102835485D01*
X76103124Y-102787510D01*
X76086329Y-102719689D01*
X76108866Y-102653554D01*
X76153920Y-102614515D01*
X76246614Y-102567285D01*
X76412214Y-102446972D01*
X76556972Y-102302214D01*
X76677285Y-102136614D01*
X76770219Y-101954224D01*
X76833478Y-101759535D01*
X76865500Y-101557352D01*
X76865500Y-101352649D01*
X76833478Y-101150466D01*
X76770219Y-100955777D01*
X76677285Y-100773387D01*
X76556972Y-100607787D01*
X76412214Y-100463029D01*
X76257251Y-100350444D01*
X76246610Y-100342713D01*
X76155160Y-100296117D01*
X76153920Y-100295485D01*
X76103124Y-100247510D01*
X76086329Y-100179689D01*
X76108866Y-100113554D01*
X76153920Y-100074515D01*
X76246614Y-100027285D01*
X76412214Y-99906972D01*
X76556972Y-99762214D01*
X76677285Y-99596614D01*
X76770219Y-99414224D01*
X76833478Y-99219535D01*
X76865500Y-99017352D01*
X76865500Y-98812649D01*
X76833478Y-98610466D01*
X76770219Y-98415777D01*
X76677285Y-98233387D01*
X76556972Y-98067787D01*
X76412214Y-97923029D01*
X76257251Y-97810444D01*
X76246610Y-97802713D01*
X76155160Y-97756117D01*
X76153920Y-97755485D01*
X76103124Y-97707510D01*
X76086329Y-97639689D01*
X76108866Y-97573554D01*
X76153920Y-97534515D01*
X76246614Y-97487285D01*
X76412214Y-97366972D01*
X76556972Y-97222214D01*
X76677285Y-97056614D01*
X76770219Y-96874224D01*
X76833478Y-96679535D01*
X76865500Y-96477352D01*
X76865500Y-96272649D01*
X76833478Y-96070466D01*
X76770219Y-95875777D01*
X76677285Y-95693387D01*
X76556972Y-95527787D01*
X76412214Y-95383029D01*
X76257251Y-95270444D01*
X76246610Y-95262713D01*
X76155160Y-95216117D01*
X76153920Y-95215485D01*
X76103124Y-95167510D01*
X76086329Y-95099689D01*
X76108866Y-95033554D01*
X76153920Y-94994515D01*
X76246614Y-94947285D01*
X76412214Y-94826972D01*
X76556972Y-94682214D01*
X76677285Y-94516614D01*
X76770219Y-94334224D01*
X76833478Y-94139535D01*
X76865500Y-93937352D01*
X76865500Y-93732649D01*
X76833478Y-93530466D01*
X76770219Y-93335777D01*
X76677285Y-93153387D01*
X76556972Y-92987787D01*
X76412214Y-92843029D01*
X76257251Y-92730444D01*
X76246610Y-92722713D01*
X76155160Y-92676117D01*
X76153920Y-92675485D01*
X76103124Y-92627510D01*
X76086329Y-92559689D01*
X76108866Y-92493554D01*
X76153920Y-92454515D01*
X76246614Y-92407285D01*
X76412214Y-92286972D01*
X76556972Y-92142214D01*
X76677285Y-91976614D01*
X76770219Y-91794224D01*
X76833478Y-91599535D01*
X76865500Y-91397352D01*
X76865500Y-91192649D01*
X76833478Y-90990466D01*
X76770219Y-90795777D01*
X76724787Y-90706614D01*
X76694304Y-90646787D01*
X76677285Y-90613387D01*
X76556972Y-90447787D01*
X76412214Y-90303029D01*
X76257251Y-90190444D01*
X76246610Y-90182713D01*
X76155160Y-90136117D01*
X76153920Y-90135485D01*
X76103124Y-90087510D01*
X76086329Y-90019689D01*
X76108866Y-89953554D01*
X76153920Y-89914515D01*
X76246614Y-89867285D01*
X76412214Y-89746972D01*
X76556972Y-89602214D01*
X76677285Y-89436614D01*
X76770219Y-89254224D01*
X76833478Y-89059535D01*
X76865500Y-88857352D01*
X76865500Y-88652649D01*
X76833478Y-88450466D01*
X76770219Y-88255777D01*
X76677285Y-88073387D01*
X76556972Y-87907787D01*
X76412214Y-87763029D01*
X76257251Y-87650444D01*
X76246610Y-87642713D01*
X76155160Y-87596117D01*
X76153920Y-87595485D01*
X76103124Y-87547510D01*
X76086329Y-87479689D01*
X76108866Y-87413554D01*
X76153920Y-87374515D01*
X76246614Y-87327285D01*
X76412214Y-87206972D01*
X76556972Y-87062214D01*
X76677285Y-86896614D01*
X76770219Y-86714224D01*
X76833478Y-86519535D01*
X76865500Y-86317352D01*
X76865500Y-86112649D01*
X76833478Y-85910466D01*
X76770219Y-85715777D01*
X76677285Y-85533387D01*
X76556972Y-85367787D01*
X76412214Y-85223029D01*
X76257251Y-85110444D01*
X76246610Y-85102713D01*
X76155160Y-85056117D01*
X76153920Y-85055485D01*
X76103124Y-85007510D01*
X76086329Y-84939689D01*
X76108866Y-84873554D01*
X76153920Y-84834515D01*
X76246614Y-84787285D01*
X76412214Y-84666972D01*
X76556972Y-84522214D01*
X76677285Y-84356614D01*
X76770219Y-84174224D01*
X76833478Y-83979535D01*
X76865500Y-83777352D01*
X76865500Y-83572649D01*
X76833478Y-83370466D01*
X76770219Y-83175777D01*
X76677285Y-82993387D01*
X76556972Y-82827787D01*
X76412214Y-82683029D01*
X76257251Y-82570444D01*
X76246610Y-82562713D01*
X76155160Y-82516117D01*
X76153920Y-82515485D01*
X76103124Y-82467510D01*
X76086329Y-82399689D01*
X76108866Y-82333554D01*
X76153920Y-82294515D01*
X76246614Y-82247285D01*
X76412214Y-82126972D01*
X76556972Y-81982214D01*
X76677285Y-81816614D01*
X76770219Y-81634224D01*
X76833478Y-81439535D01*
X76865500Y-81237352D01*
X76865500Y-81032649D01*
X76833478Y-80830466D01*
X76770219Y-80635777D01*
X76677285Y-80453387D01*
X76556972Y-80287787D01*
X76412214Y-80143029D01*
X76257251Y-80030444D01*
X76246610Y-80022713D01*
X76155160Y-79976117D01*
X76153920Y-79975485D01*
X76103124Y-79927510D01*
X76086329Y-79859689D01*
X76108866Y-79793554D01*
X76153920Y-79754515D01*
X76246614Y-79707285D01*
X76412214Y-79586972D01*
X76556972Y-79442214D01*
X76677285Y-79276614D01*
X76770219Y-79094224D01*
X76833478Y-78899535D01*
X76865500Y-78697352D01*
X76865500Y-78492649D01*
X76833478Y-78290466D01*
X76770219Y-78095777D01*
X76677285Y-77913387D01*
X76556972Y-77747787D01*
X76412214Y-77603029D01*
X76246615Y-77482716D01*
X76246613Y-77482715D01*
X76246610Y-77482713D01*
X76153920Y-77435485D01*
X76153370Y-77435205D01*
X76102574Y-77387230D01*
X76085779Y-77319409D01*
X76108316Y-77253275D01*
X76153370Y-77214235D01*
X76246356Y-77166857D01*
X76290923Y-77134477D01*
X76290923Y-77134476D01*
X75611446Y-76455000D01*
X75617661Y-76455000D01*
X75719394Y-76427741D01*
X75810606Y-76375080D01*
X75885080Y-76300606D01*
X75937741Y-76209394D01*
X75965000Y-76107661D01*
X75965000Y-76101447D01*
X76644476Y-76780923D01*
X76644477Y-76780923D01*
X76676857Y-76736356D01*
X76769756Y-76554032D01*
X76832991Y-76359418D01*
X76865000Y-76157318D01*
X76865000Y-75952683D01*
X76832991Y-75750583D01*
X76769756Y-75555969D01*
X76676859Y-75373650D01*
X76676853Y-75373641D01*
X76644477Y-75329079D01*
X76644476Y-75329078D01*
X75965000Y-76008554D01*
X75965000Y-76002339D01*
X75937741Y-75900606D01*
X75885080Y-75809394D01*
X75810606Y-75734920D01*
X75719394Y-75682259D01*
X75617661Y-75655000D01*
X75611447Y-75655000D01*
X76290924Y-74975526D01*
X76246350Y-74943141D01*
X76064032Y-74850245D01*
X75869418Y-74787010D01*
X75667317Y-74755000D01*
X75462683Y-74755000D01*
X75260583Y-74787010D01*
X75065969Y-74850245D01*
X74883651Y-74943141D01*
X74839079Y-74975526D01*
X75518553Y-75655000D01*
X75512339Y-75655000D01*
X75410606Y-75682259D01*
X75319394Y-75734920D01*
X75244920Y-75809394D01*
X75192259Y-75900606D01*
X75165000Y-76002339D01*
X75165000Y-76008552D01*
X74485526Y-75329078D01*
X74485526Y-75329079D01*
X74453141Y-75373651D01*
X74360245Y-75555969D01*
X74297010Y-75750583D01*
X74265000Y-75952683D01*
X74265000Y-76157318D01*
X74297010Y-76359418D01*
X74360245Y-76554032D01*
X74453141Y-76736350D01*
X74485526Y-76780923D01*
X74485526Y-76780924D01*
X75165000Y-76101449D01*
X75165000Y-76107661D01*
X75192259Y-76209394D01*
X75244920Y-76300606D01*
X75319394Y-76375080D01*
X75410606Y-76427741D01*
X75512339Y-76455000D01*
X75518554Y-76455000D01*
X74839078Y-77134476D01*
X74839079Y-77134477D01*
X74883641Y-77166853D01*
X74883650Y-77166859D01*
X74976631Y-77214235D01*
X75027427Y-77262210D01*
X75044222Y-77330031D01*
X75021685Y-77396165D01*
X74976630Y-77435205D01*
X74976080Y-77435485D01*
X74883390Y-77482713D01*
X74779081Y-77558497D01*
X74717787Y-77603029D01*
X74717785Y-77603032D01*
X74717781Y-77603034D01*
X74573034Y-77747781D01*
X74573032Y-77747785D01*
X74573029Y-77747787D01*
X74516741Y-77825262D01*
X74452713Y-77913390D01*
X74359780Y-78095781D01*
X74296523Y-78290466D01*
X74264500Y-78492648D01*
X74264500Y-78697352D01*
X74283573Y-78817772D01*
X74296523Y-78899535D01*
X74359782Y-79094224D01*
X74393497Y-79160393D01*
X74452713Y-79276610D01*
X74460444Y-79287251D01*
X74573029Y-79442214D01*
X74717787Y-79586972D01*
X74883386Y-79707285D01*
X74889994Y-79710652D01*
X74976083Y-79754517D01*
X75026877Y-79802489D01*
X75043672Y-79870310D01*
X75021135Y-79936445D01*
X74976083Y-79975484D01*
X74883390Y-80022713D01*
X74779081Y-80098497D01*
X74717787Y-80143029D01*
X74717785Y-80143032D01*
X74717781Y-80143034D01*
X74573034Y-80287781D01*
X74573032Y-80287785D01*
X74573029Y-80287787D01*
X74516741Y-80365262D01*
X74452713Y-80453390D01*
X74359780Y-80635781D01*
X74296523Y-80830466D01*
X74264500Y-81032648D01*
X74264500Y-81237352D01*
X74273269Y-81292716D01*
X74296523Y-81439535D01*
X74359782Y-81634224D01*
X74393497Y-81700393D01*
X74452713Y-81816610D01*
X74460444Y-81827251D01*
X74573029Y-81982214D01*
X74717787Y-82126972D01*
X74883386Y-82247285D01*
X74889994Y-82250652D01*
X74976083Y-82294517D01*
X75026877Y-82342489D01*
X75043672Y-82410310D01*
X75021135Y-82476445D01*
X74976083Y-82515484D01*
X74883390Y-82562713D01*
X74779081Y-82638497D01*
X74717787Y-82683029D01*
X74717785Y-82683032D01*
X74717781Y-82683034D01*
X74573034Y-82827781D01*
X74573032Y-82827785D01*
X74573029Y-82827787D01*
X74516741Y-82905262D01*
X74452713Y-82993390D01*
X74359780Y-83175781D01*
X74296523Y-83370466D01*
X74264500Y-83572648D01*
X74264500Y-83777352D01*
X74273269Y-83832716D01*
X74296523Y-83979535D01*
X74359782Y-84174224D01*
X74393497Y-84240393D01*
X74452713Y-84356610D01*
X74460444Y-84367251D01*
X74573029Y-84522214D01*
X74717787Y-84666972D01*
X74883386Y-84787285D01*
X74889994Y-84790652D01*
X74976083Y-84834517D01*
X75026877Y-84882489D01*
X75043672Y-84950310D01*
X75021135Y-85016445D01*
X74976083Y-85055484D01*
X74883390Y-85102713D01*
X74779081Y-85178497D01*
X74717787Y-85223029D01*
X74717785Y-85223032D01*
X74717781Y-85223034D01*
X74573034Y-85367781D01*
X74573032Y-85367785D01*
X74573029Y-85367787D01*
X74516741Y-85445262D01*
X74452713Y-85533390D01*
X74359780Y-85715781D01*
X74296523Y-85910466D01*
X74264500Y-86112648D01*
X74264500Y-86317352D01*
X74285270Y-86448489D01*
X74296523Y-86519535D01*
X74359782Y-86714224D01*
X74403438Y-86799902D01*
X74452713Y-86896610D01*
X74460444Y-86907251D01*
X74573029Y-87062214D01*
X74717787Y-87206972D01*
X74883386Y-87327285D01*
X74889994Y-87330652D01*
X74976083Y-87374517D01*
X75026877Y-87422489D01*
X75043672Y-87490310D01*
X75021135Y-87556445D01*
X74976083Y-87595484D01*
X74883390Y-87642713D01*
X74779081Y-87718497D01*
X74717787Y-87763029D01*
X74717785Y-87763032D01*
X74717781Y-87763034D01*
X74573034Y-87907781D01*
X74573032Y-87907785D01*
X74573029Y-87907787D01*
X74516741Y-87985262D01*
X74452713Y-88073390D01*
X74359780Y-88255781D01*
X74296523Y-88450466D01*
X74264500Y-88652648D01*
X74264500Y-88857352D01*
X74285270Y-88988489D01*
X74296523Y-89059535D01*
X74359782Y-89254224D01*
X74400064Y-89333281D01*
X74452713Y-89436610D01*
X74460444Y-89447251D01*
X74573029Y-89602214D01*
X74717787Y-89746972D01*
X74883386Y-89867285D01*
X74889994Y-89870652D01*
X74976083Y-89914517D01*
X75026877Y-89962489D01*
X75043672Y-90030310D01*
X75021135Y-90096445D01*
X74976083Y-90135484D01*
X74883390Y-90182713D01*
X74779081Y-90258497D01*
X74717787Y-90303029D01*
X74717785Y-90303032D01*
X74717781Y-90303034D01*
X74573034Y-90447781D01*
X74573032Y-90447785D01*
X74573029Y-90447787D01*
X74516741Y-90525262D01*
X74452713Y-90613390D01*
X74359780Y-90795781D01*
X74296523Y-90990466D01*
X74264500Y-91192648D01*
X74264500Y-91397352D01*
X74273269Y-91452716D01*
X74296523Y-91599535D01*
X74359782Y-91794224D01*
X74397342Y-91867939D01*
X74452713Y-91976610D01*
X74509456Y-92054711D01*
X74573029Y-92142214D01*
X74717787Y-92286972D01*
X74883386Y-92407285D01*
X74889994Y-92410652D01*
X74976083Y-92454517D01*
X75026877Y-92502489D01*
X75043672Y-92570310D01*
X75021135Y-92636445D01*
X74976083Y-92675484D01*
X74883390Y-92722713D01*
X74862230Y-92738087D01*
X74717787Y-92843029D01*
X74717785Y-92843032D01*
X74717781Y-92843034D01*
X74573034Y-92987781D01*
X74573032Y-92987785D01*
X74573029Y-92987787D01*
X74516741Y-93065262D01*
X74452713Y-93153390D01*
X74359780Y-93335781D01*
X74296523Y-93530466D01*
X74264500Y-93732648D01*
X74264500Y-93937352D01*
X74273269Y-93992716D01*
X74296523Y-94139535D01*
X74359782Y-94334224D01*
X74397342Y-94407939D01*
X74452713Y-94516610D01*
X74460444Y-94527251D01*
X74573029Y-94682214D01*
X74717787Y-94826972D01*
X74883386Y-94947285D01*
X74889994Y-94950652D01*
X74976083Y-94994517D01*
X75026877Y-95042489D01*
X75043672Y-95110310D01*
X75021135Y-95176445D01*
X74976083Y-95215484D01*
X74883390Y-95262713D01*
X74779081Y-95338497D01*
X74717787Y-95383029D01*
X74717785Y-95383032D01*
X74717781Y-95383034D01*
X74573034Y-95527781D01*
X74573032Y-95527785D01*
X74573029Y-95527787D01*
X74516741Y-95605262D01*
X74452713Y-95693390D01*
X74359780Y-95875781D01*
X74296523Y-96070466D01*
X74264500Y-96272648D01*
X74264500Y-96477352D01*
X74273269Y-96532716D01*
X74296523Y-96679535D01*
X74359782Y-96874224D01*
X74403949Y-96960905D01*
X74452713Y-97056610D01*
X74509456Y-97134711D01*
X74573029Y-97222214D01*
X74717787Y-97366972D01*
X74883386Y-97487285D01*
X74889994Y-97490652D01*
X74976083Y-97534517D01*
X75026877Y-97582489D01*
X75043672Y-97650310D01*
X75021135Y-97716445D01*
X74976083Y-97755484D01*
X74883390Y-97802713D01*
X74862230Y-97818087D01*
X74717787Y-97923029D01*
X74717785Y-97923032D01*
X74717781Y-97923034D01*
X74573034Y-98067781D01*
X74573032Y-98067785D01*
X74573029Y-98067787D01*
X74516741Y-98145262D01*
X74452713Y-98233390D01*
X74359780Y-98415781D01*
X74296523Y-98610466D01*
X74264500Y-98812648D01*
X74264500Y-99017352D01*
X74273269Y-99072716D01*
X74296523Y-99219535D01*
X74359782Y-99414224D01*
X74399442Y-99492059D01*
X74452713Y-99596610D01*
X74460444Y-99607251D01*
X74573029Y-99762214D01*
X74717787Y-99906972D01*
X74883386Y-100027285D01*
X74889994Y-100030652D01*
X74976083Y-100074517D01*
X75026877Y-100122489D01*
X75043672Y-100190310D01*
X75021135Y-100256445D01*
X74976083Y-100295484D01*
X74883390Y-100342713D01*
X74862230Y-100358087D01*
X74717787Y-100463029D01*
X74717785Y-100463032D01*
X74717781Y-100463034D01*
X74573034Y-100607781D01*
X74573032Y-100607785D01*
X74573029Y-100607787D01*
X74516741Y-100685262D01*
X74452713Y-100773390D01*
X74359780Y-100955781D01*
X74296523Y-101150466D01*
X74264500Y-101352648D01*
X74264500Y-101557352D01*
X74285270Y-101688489D01*
X74296523Y-101759535D01*
X74359782Y-101954224D01*
X74403438Y-102039902D01*
X74452713Y-102136610D01*
X74460444Y-102147251D01*
X74573029Y-102302214D01*
X74717787Y-102446972D01*
X74883386Y-102567285D01*
X74889994Y-102570652D01*
X74976083Y-102614517D01*
X75026877Y-102662489D01*
X75043672Y-102730310D01*
X75021135Y-102796445D01*
X74976083Y-102835484D01*
X74883390Y-102882713D01*
X74862230Y-102898087D01*
X74717787Y-103003029D01*
X74717785Y-103003032D01*
X74717781Y-103003034D01*
X74573034Y-103147781D01*
X74573032Y-103147785D01*
X74573029Y-103147787D01*
X74516741Y-103225262D01*
X74452713Y-103313390D01*
X74359780Y-103495781D01*
X74296523Y-103690466D01*
X74264500Y-103892648D01*
X74264500Y-104097352D01*
X74273269Y-104152716D01*
X74296523Y-104299535D01*
X74359782Y-104494224D01*
X74403949Y-104580905D01*
X74452713Y-104676610D01*
X74509456Y-104754711D01*
X74573029Y-104842214D01*
X74717787Y-104986972D01*
X74883386Y-105107285D01*
X74889994Y-105110652D01*
X74976083Y-105154517D01*
X75026877Y-105202489D01*
X75043672Y-105270310D01*
X75021135Y-105336445D01*
X74976083Y-105375484D01*
X74883390Y-105422713D01*
X74862230Y-105438087D01*
X74717787Y-105543029D01*
X74717785Y-105543032D01*
X74717781Y-105543034D01*
X74573034Y-105687781D01*
X74573032Y-105687785D01*
X74573029Y-105687787D01*
X74516741Y-105765262D01*
X74452713Y-105853390D01*
X74359780Y-106035781D01*
X74296523Y-106230466D01*
X74264500Y-106432648D01*
X74264500Y-106637352D01*
X74296523Y-106839534D01*
X74359780Y-107034219D01*
X74359782Y-107034222D01*
X74359782Y-107034224D01*
X74401744Y-107116578D01*
X74452713Y-107216610D01*
X74509456Y-107294711D01*
X74573029Y-107382214D01*
X74717781Y-107526966D01*
X74717789Y-107526972D01*
X74811453Y-107595022D01*
X74854118Y-107650351D01*
X74860097Y-107719964D01*
X74827492Y-107781760D01*
X74777574Y-107813045D01*
X74695666Y-107840186D01*
X74546344Y-107932288D01*
X74422288Y-108056344D01*
X74330186Y-108205666D01*
X74275001Y-108372203D01*
X74264500Y-108474991D01*
X74264501Y-109177352D01*
X69245500Y-109177352D01*
X69245500Y-108972648D01*
X69244212Y-108964515D01*
X69213478Y-108770466D01*
X69150219Y-108575777D01*
X69057285Y-108393387D01*
X68936972Y-108227787D01*
X68792214Y-108083029D01*
X68637251Y-107970444D01*
X68626610Y-107962713D01*
X68535160Y-107916117D01*
X68533920Y-107915485D01*
X68483124Y-107867510D01*
X68466329Y-107799689D01*
X68488866Y-107733554D01*
X68533920Y-107694515D01*
X68626614Y-107647285D01*
X68792214Y-107526972D01*
X68936972Y-107382214D01*
X69057285Y-107216614D01*
X69150219Y-107034224D01*
X69213478Y-106839535D01*
X69245500Y-106637352D01*
X69245500Y-106432649D01*
X69213478Y-106230466D01*
X69150219Y-106035777D01*
X69057285Y-105853387D01*
X68936972Y-105687787D01*
X68792214Y-105543029D01*
X68637251Y-105430444D01*
X68626610Y-105422713D01*
X68535160Y-105376117D01*
X68533920Y-105375485D01*
X68483124Y-105327510D01*
X68466329Y-105259689D01*
X68488866Y-105193554D01*
X68533920Y-105154515D01*
X68626614Y-105107285D01*
X68792214Y-104986972D01*
X68936972Y-104842214D01*
X69057285Y-104676614D01*
X69150219Y-104494224D01*
X69213478Y-104299535D01*
X69245500Y-104097352D01*
X69245500Y-103892649D01*
X69213478Y-103690466D01*
X69150219Y-103495777D01*
X69057285Y-103313387D01*
X68936972Y-103147787D01*
X68792214Y-103003029D01*
X68637251Y-102890444D01*
X68626610Y-102882713D01*
X68535160Y-102836117D01*
X68533920Y-102835485D01*
X68483124Y-102787510D01*
X68466329Y-102719689D01*
X68488866Y-102653554D01*
X68533920Y-102614515D01*
X68626614Y-102567285D01*
X68792214Y-102446972D01*
X68936972Y-102302214D01*
X69057285Y-102136614D01*
X69150219Y-101954224D01*
X69213478Y-101759535D01*
X69245500Y-101557352D01*
X69245500Y-101352649D01*
X69213478Y-101150466D01*
X69150219Y-100955777D01*
X69057285Y-100773387D01*
X68936972Y-100607787D01*
X68792214Y-100463029D01*
X68637251Y-100350444D01*
X68626610Y-100342713D01*
X68535160Y-100296117D01*
X68533920Y-100295485D01*
X68483124Y-100247510D01*
X68466329Y-100179689D01*
X68488866Y-100113554D01*
X68533920Y-100074515D01*
X68626614Y-100027285D01*
X68792214Y-99906972D01*
X68936972Y-99762214D01*
X69057285Y-99596614D01*
X69150219Y-99414224D01*
X69213478Y-99219535D01*
X69245500Y-99017352D01*
X69245500Y-98812649D01*
X69213478Y-98610466D01*
X69150219Y-98415777D01*
X69057285Y-98233387D01*
X68936972Y-98067787D01*
X68792214Y-97923029D01*
X68637251Y-97810444D01*
X68626610Y-97802713D01*
X68535160Y-97756117D01*
X68533920Y-97755485D01*
X68483124Y-97707510D01*
X68466329Y-97639689D01*
X68488866Y-97573554D01*
X68533920Y-97534515D01*
X68626614Y-97487285D01*
X68792214Y-97366972D01*
X68936972Y-97222214D01*
X69057285Y-97056614D01*
X69150219Y-96874224D01*
X69213478Y-96679535D01*
X69245500Y-96477352D01*
X69245500Y-96272649D01*
X69213478Y-96070466D01*
X69150219Y-95875777D01*
X69057285Y-95693387D01*
X68936972Y-95527787D01*
X68792214Y-95383029D01*
X68637251Y-95270444D01*
X68626610Y-95262713D01*
X68535160Y-95216117D01*
X68533920Y-95215485D01*
X68483124Y-95167510D01*
X68466329Y-95099689D01*
X68488866Y-95033554D01*
X68533920Y-94994515D01*
X68626614Y-94947285D01*
X68792214Y-94826972D01*
X68936972Y-94682214D01*
X69057285Y-94516614D01*
X69150219Y-94334224D01*
X69213478Y-94139535D01*
X69245500Y-93937352D01*
X69245500Y-93732649D01*
X69213478Y-93530466D01*
X69150219Y-93335777D01*
X69057285Y-93153387D01*
X68936972Y-92987787D01*
X68792214Y-92843029D01*
X68637251Y-92730444D01*
X68626610Y-92722713D01*
X68535160Y-92676117D01*
X68533920Y-92675485D01*
X68483124Y-92627510D01*
X68466329Y-92559689D01*
X68488866Y-92493554D01*
X68533920Y-92454515D01*
X68626614Y-92407285D01*
X68792214Y-92286972D01*
X68936972Y-92142214D01*
X69057285Y-91976614D01*
X69150219Y-91794224D01*
X69213478Y-91599535D01*
X69245500Y-91397352D01*
X69245500Y-91192649D01*
X69213478Y-90990466D01*
X69150219Y-90795777D01*
X69104787Y-90706614D01*
X69074304Y-90646787D01*
X69057285Y-90613387D01*
X68936972Y-90447787D01*
X68792214Y-90303029D01*
X68637251Y-90190444D01*
X68626610Y-90182713D01*
X68535160Y-90136117D01*
X68533920Y-90135485D01*
X68483124Y-90087510D01*
X68466329Y-90019689D01*
X68488866Y-89953554D01*
X68533920Y-89914515D01*
X68626614Y-89867285D01*
X68792214Y-89746972D01*
X68936972Y-89602214D01*
X69057285Y-89436614D01*
X69150219Y-89254224D01*
X69213478Y-89059535D01*
X69245500Y-88857352D01*
X69245500Y-88652649D01*
X69213478Y-88450466D01*
X69150219Y-88255777D01*
X69057285Y-88073387D01*
X68936972Y-87907787D01*
X68792214Y-87763029D01*
X68637251Y-87650444D01*
X68626610Y-87642713D01*
X68535160Y-87596117D01*
X68533920Y-87595485D01*
X68483124Y-87547510D01*
X68466329Y-87479689D01*
X68488866Y-87413554D01*
X68533920Y-87374515D01*
X68626614Y-87327285D01*
X68792214Y-87206972D01*
X68936972Y-87062214D01*
X69057285Y-86896614D01*
X69150219Y-86714224D01*
X69213478Y-86519535D01*
X69245500Y-86317352D01*
X69245500Y-86112649D01*
X69213478Y-85910466D01*
X69150219Y-85715777D01*
X69057285Y-85533387D01*
X68936972Y-85367787D01*
X68792214Y-85223029D01*
X68637251Y-85110444D01*
X68626610Y-85102713D01*
X68535160Y-85056117D01*
X68533920Y-85055485D01*
X68483124Y-85007510D01*
X68466329Y-84939689D01*
X68488866Y-84873554D01*
X68533920Y-84834515D01*
X68626614Y-84787285D01*
X68792214Y-84666972D01*
X68936972Y-84522214D01*
X69057285Y-84356614D01*
X69150219Y-84174224D01*
X69213478Y-83979535D01*
X69245500Y-83777352D01*
X69245500Y-83572649D01*
X69213478Y-83370466D01*
X69150219Y-83175777D01*
X69057285Y-82993387D01*
X68936972Y-82827787D01*
X68792214Y-82683029D01*
X68637251Y-82570444D01*
X68626610Y-82562713D01*
X68535160Y-82516117D01*
X68533920Y-82515485D01*
X68483124Y-82467510D01*
X68466329Y-82399689D01*
X68488866Y-82333554D01*
X68533920Y-82294515D01*
X68626614Y-82247285D01*
X68792214Y-82126972D01*
X68936972Y-81982214D01*
X69057285Y-81816614D01*
X69150219Y-81634224D01*
X69213478Y-81439535D01*
X69245500Y-81237352D01*
X69245500Y-81032649D01*
X69213478Y-80830466D01*
X69150219Y-80635777D01*
X69057285Y-80453387D01*
X68936972Y-80287787D01*
X68792214Y-80143029D01*
X68637251Y-80030444D01*
X68626610Y-80022713D01*
X68535160Y-79976117D01*
X68533920Y-79975485D01*
X68483124Y-79927510D01*
X68466329Y-79859689D01*
X68488866Y-79793554D01*
X68533920Y-79754515D01*
X68626614Y-79707285D01*
X68792214Y-79586972D01*
X68936972Y-79442214D01*
X69057285Y-79276614D01*
X69150219Y-79094224D01*
X69213478Y-78899535D01*
X69245500Y-78697352D01*
X69245500Y-78492649D01*
X69213478Y-78290466D01*
X69150219Y-78095777D01*
X69057285Y-77913387D01*
X68936972Y-77747787D01*
X68792214Y-77603029D01*
X68637251Y-77490444D01*
X68626610Y-77482713D01*
X68535160Y-77436117D01*
X68533920Y-77435485D01*
X68483124Y-77387510D01*
X68466329Y-77319689D01*
X68488866Y-77253554D01*
X68533920Y-77214515D01*
X68626614Y-77167285D01*
X68792214Y-77046972D01*
X68936972Y-76902214D01*
X69057285Y-76736614D01*
X69150219Y-76554224D01*
X69213478Y-76359535D01*
X69245500Y-76157352D01*
X69245500Y-75952649D01*
X69213478Y-75750466D01*
X69150219Y-75555777D01*
X69087769Y-75433214D01*
X69057415Y-75373641D01*
X69057285Y-75373387D01*
X68936972Y-75207787D01*
X68792214Y-75063029D01*
X68671774Y-74975526D01*
X68626610Y-74942713D01*
X68510393Y-74883497D01*
X68444224Y-74849782D01*
X68444222Y-74849782D01*
X68444219Y-74849780D01*
X68339863Y-74815873D01*
X68249535Y-74786523D01*
X68148443Y-74770512D01*
X68047352Y-74754500D01*
X68047351Y-74754500D01*
X67842649Y-74754500D01*
X67842648Y-74754500D01*
X67640466Y-74786523D01*
X67445781Y-74849780D01*
X67263390Y-74942713D01*
X67128363Y-75040815D01*
X67097787Y-75063029D01*
X67097785Y-75063032D01*
X67097781Y-75063034D01*
X66953034Y-75207781D01*
X66953032Y-75207785D01*
X66953029Y-75207787D01*
X66896741Y-75285262D01*
X66832713Y-75373390D01*
X66739780Y-75555781D01*
X66676523Y-75750466D01*
X66644500Y-75952648D01*
X66644500Y-76157352D01*
X66658466Y-76245526D01*
X66676523Y-76359535D01*
X66732012Y-76530311D01*
X66739780Y-76554219D01*
X66739782Y-76554222D01*
X66739782Y-76554224D01*
X66773497Y-76620393D01*
X66832713Y-76736610D01*
X66864908Y-76780923D01*
X66953029Y-76902214D01*
X67097787Y-77046972D01*
X67263386Y-77167285D01*
X67269994Y-77170652D01*
X67356083Y-77214517D01*
X67406877Y-77262489D01*
X67423672Y-77330310D01*
X67401135Y-77396445D01*
X67356083Y-77435484D01*
X67263390Y-77482713D01*
X67159081Y-77558497D01*
X67097787Y-77603029D01*
X67097785Y-77603032D01*
X67097781Y-77603034D01*
X66953034Y-77747781D01*
X66953032Y-77747785D01*
X66953029Y-77747787D01*
X66896741Y-77825262D01*
X66832713Y-77913390D01*
X66739780Y-78095781D01*
X66676523Y-78290466D01*
X66644500Y-78492648D01*
X66644500Y-78697352D01*
X66663573Y-78817772D01*
X66676523Y-78899535D01*
X66739782Y-79094224D01*
X66773497Y-79160393D01*
X66832713Y-79276610D01*
X66840444Y-79287251D01*
X66953029Y-79442214D01*
X67097787Y-79586972D01*
X67263386Y-79707285D01*
X67269994Y-79710652D01*
X67356083Y-79754517D01*
X67406877Y-79802489D01*
X67423672Y-79870310D01*
X67401135Y-79936445D01*
X67356083Y-79975484D01*
X67263390Y-80022713D01*
X67159081Y-80098497D01*
X67097787Y-80143029D01*
X67097785Y-80143032D01*
X67097781Y-80143034D01*
X66953034Y-80287781D01*
X66953032Y-80287785D01*
X66953029Y-80287787D01*
X66896741Y-80365262D01*
X66832713Y-80453390D01*
X66739780Y-80635781D01*
X66676523Y-80830466D01*
X66644500Y-81032648D01*
X66644500Y-81237352D01*
X66653269Y-81292716D01*
X66676523Y-81439535D01*
X66739782Y-81634224D01*
X66773497Y-81700393D01*
X66832713Y-81816610D01*
X66840444Y-81827251D01*
X66953029Y-81982214D01*
X67097787Y-82126972D01*
X67263386Y-82247285D01*
X67269994Y-82250652D01*
X67356083Y-82294517D01*
X67406877Y-82342489D01*
X67423672Y-82410310D01*
X67401135Y-82476445D01*
X67356083Y-82515484D01*
X67263390Y-82562713D01*
X67159081Y-82638497D01*
X67097787Y-82683029D01*
X67097785Y-82683032D01*
X67097781Y-82683034D01*
X66953034Y-82827781D01*
X66953032Y-82827785D01*
X66953029Y-82827787D01*
X66896741Y-82905262D01*
X66832713Y-82993390D01*
X66739780Y-83175781D01*
X66676523Y-83370466D01*
X66644500Y-83572648D01*
X66644500Y-83777352D01*
X66653269Y-83832716D01*
X66676523Y-83979535D01*
X66739782Y-84174224D01*
X66773497Y-84240393D01*
X66832713Y-84356610D01*
X66840444Y-84367251D01*
X66953029Y-84522214D01*
X67097787Y-84666972D01*
X67263386Y-84787285D01*
X67269994Y-84790652D01*
X67356083Y-84834517D01*
X67406877Y-84882489D01*
X67423672Y-84950310D01*
X67401135Y-85016445D01*
X67356083Y-85055484D01*
X67263390Y-85102713D01*
X67159081Y-85178497D01*
X67097787Y-85223029D01*
X67097785Y-85223032D01*
X67097781Y-85223034D01*
X66953034Y-85367781D01*
X66953032Y-85367785D01*
X66953029Y-85367787D01*
X66896741Y-85445262D01*
X66832713Y-85533390D01*
X66739780Y-85715781D01*
X66676523Y-85910466D01*
X66644500Y-86112648D01*
X66644500Y-86317352D01*
X66665270Y-86448489D01*
X66676523Y-86519535D01*
X66739782Y-86714224D01*
X66783438Y-86799902D01*
X66832713Y-86896610D01*
X66840444Y-86907251D01*
X66953029Y-87062214D01*
X67097787Y-87206972D01*
X67263386Y-87327285D01*
X67269994Y-87330652D01*
X67356083Y-87374517D01*
X67406877Y-87422489D01*
X67423672Y-87490310D01*
X67401135Y-87556445D01*
X67356083Y-87595484D01*
X67263390Y-87642713D01*
X67159081Y-87718497D01*
X67097787Y-87763029D01*
X67097785Y-87763032D01*
X67097781Y-87763034D01*
X66953034Y-87907781D01*
X66953032Y-87907785D01*
X66953029Y-87907787D01*
X66896741Y-87985262D01*
X66832713Y-88073390D01*
X66739780Y-88255781D01*
X66676523Y-88450466D01*
X66644500Y-88652648D01*
X66644500Y-88857352D01*
X66665270Y-88988489D01*
X66676523Y-89059535D01*
X66739782Y-89254224D01*
X66780064Y-89333281D01*
X66832713Y-89436610D01*
X66840444Y-89447251D01*
X66953029Y-89602214D01*
X67097787Y-89746972D01*
X67263386Y-89867285D01*
X67269994Y-89870652D01*
X67356083Y-89914517D01*
X67406877Y-89962489D01*
X67423672Y-90030310D01*
X67401135Y-90096445D01*
X67356083Y-90135484D01*
X67263390Y-90182713D01*
X67159081Y-90258497D01*
X67097787Y-90303029D01*
X67097785Y-90303032D01*
X67097781Y-90303034D01*
X66953034Y-90447781D01*
X66953032Y-90447785D01*
X66953029Y-90447787D01*
X66896741Y-90525262D01*
X66832713Y-90613390D01*
X66739780Y-90795781D01*
X66676523Y-90990466D01*
X66644500Y-91192648D01*
X66644500Y-91397352D01*
X66653269Y-91452716D01*
X66676523Y-91599535D01*
X66739782Y-91794224D01*
X66777342Y-91867939D01*
X66832713Y-91976610D01*
X66889456Y-92054711D01*
X66953029Y-92142214D01*
X67097787Y-92286972D01*
X67263386Y-92407285D01*
X67269994Y-92410652D01*
X67356083Y-92454517D01*
X67406877Y-92502489D01*
X67423672Y-92570310D01*
X67401135Y-92636445D01*
X67356083Y-92675484D01*
X67263390Y-92722713D01*
X67242230Y-92738087D01*
X67097787Y-92843029D01*
X67097785Y-92843032D01*
X67097781Y-92843034D01*
X66953034Y-92987781D01*
X66953032Y-92987785D01*
X66953029Y-92987787D01*
X66896741Y-93065262D01*
X66832713Y-93153390D01*
X66739780Y-93335781D01*
X66676523Y-93530466D01*
X66644500Y-93732648D01*
X66644500Y-93937352D01*
X66653269Y-93992716D01*
X66676523Y-94139535D01*
X66739782Y-94334224D01*
X66777342Y-94407939D01*
X66832713Y-94516610D01*
X66840444Y-94527251D01*
X66953029Y-94682214D01*
X67097787Y-94826972D01*
X67263386Y-94947285D01*
X67269994Y-94950652D01*
X67356083Y-94994517D01*
X67406877Y-95042489D01*
X67423672Y-95110310D01*
X67401135Y-95176445D01*
X67356083Y-95215484D01*
X67263390Y-95262713D01*
X67159081Y-95338497D01*
X67097787Y-95383029D01*
X67097785Y-95383032D01*
X67097781Y-95383034D01*
X66953034Y-95527781D01*
X66953032Y-95527785D01*
X66953029Y-95527787D01*
X66896741Y-95605262D01*
X66832713Y-95693390D01*
X66739780Y-95875781D01*
X66676523Y-96070466D01*
X66644500Y-96272648D01*
X66644500Y-96477352D01*
X66653269Y-96532716D01*
X66676523Y-96679535D01*
X66739782Y-96874224D01*
X66783949Y-96960905D01*
X66832713Y-97056610D01*
X66889456Y-97134711D01*
X66953029Y-97222214D01*
X67097787Y-97366972D01*
X67263386Y-97487285D01*
X67269994Y-97490652D01*
X67356083Y-97534517D01*
X67406877Y-97582489D01*
X67423672Y-97650310D01*
X67401135Y-97716445D01*
X67356083Y-97755484D01*
X67263390Y-97802713D01*
X67242230Y-97818087D01*
X67097787Y-97923029D01*
X67097785Y-97923032D01*
X67097781Y-97923034D01*
X66953034Y-98067781D01*
X66953032Y-98067785D01*
X66953029Y-98067787D01*
X66896741Y-98145262D01*
X66832713Y-98233390D01*
X66739780Y-98415781D01*
X66676523Y-98610466D01*
X66644500Y-98812648D01*
X66644500Y-99017352D01*
X66653269Y-99072716D01*
X66676523Y-99219535D01*
X66739782Y-99414224D01*
X66779442Y-99492059D01*
X66832713Y-99596610D01*
X66840444Y-99607251D01*
X66953029Y-99762214D01*
X67097787Y-99906972D01*
X67263386Y-100027285D01*
X67269994Y-100030652D01*
X67356083Y-100074517D01*
X67406877Y-100122489D01*
X67423672Y-100190310D01*
X67401135Y-100256445D01*
X67356083Y-100295484D01*
X67263390Y-100342713D01*
X67242230Y-100358087D01*
X67097787Y-100463029D01*
X67097785Y-100463032D01*
X67097781Y-100463034D01*
X66953034Y-100607781D01*
X66953032Y-100607785D01*
X66953029Y-100607787D01*
X66896741Y-100685262D01*
X66832713Y-100773390D01*
X66739780Y-100955781D01*
X66676523Y-101150466D01*
X66644500Y-101352648D01*
X66644500Y-101557352D01*
X66665270Y-101688489D01*
X66676523Y-101759535D01*
X66739782Y-101954224D01*
X66783438Y-102039902D01*
X66832713Y-102136610D01*
X66840444Y-102147251D01*
X66953029Y-102302214D01*
X67097787Y-102446972D01*
X67263386Y-102567285D01*
X67269994Y-102570652D01*
X67356083Y-102614517D01*
X67406877Y-102662489D01*
X67423672Y-102730310D01*
X67401135Y-102796445D01*
X67356083Y-102835484D01*
X67263390Y-102882713D01*
X67242230Y-102898087D01*
X67097787Y-103003029D01*
X67097785Y-103003032D01*
X67097781Y-103003034D01*
X66953034Y-103147781D01*
X66953032Y-103147785D01*
X66953029Y-103147787D01*
X66896741Y-103225262D01*
X66832713Y-103313390D01*
X66739780Y-103495781D01*
X66676523Y-103690466D01*
X66644500Y-103892648D01*
X66644500Y-104097352D01*
X66653269Y-104152716D01*
X66676523Y-104299535D01*
X66739782Y-104494224D01*
X66783949Y-104580905D01*
X66832713Y-104676610D01*
X66889456Y-104754711D01*
X66953029Y-104842214D01*
X67097787Y-104986972D01*
X67263386Y-105107285D01*
X67269994Y-105110652D01*
X67356083Y-105154517D01*
X67406877Y-105202489D01*
X67423672Y-105270310D01*
X67401135Y-105336445D01*
X67356083Y-105375484D01*
X67263390Y-105422713D01*
X67242230Y-105438087D01*
X67097787Y-105543029D01*
X67097785Y-105543032D01*
X67097781Y-105543034D01*
X66953034Y-105687781D01*
X66953032Y-105687785D01*
X66953029Y-105687787D01*
X66896741Y-105765262D01*
X66832713Y-105853390D01*
X66739780Y-106035781D01*
X66676523Y-106230466D01*
X66644500Y-106432648D01*
X66644500Y-106637352D01*
X66676523Y-106839534D01*
X66739780Y-107034219D01*
X66739782Y-107034222D01*
X66739782Y-107034224D01*
X66781744Y-107116578D01*
X66832713Y-107216610D01*
X66889456Y-107294711D01*
X66953029Y-107382214D01*
X67097787Y-107526972D01*
X67263386Y-107647285D01*
X67269994Y-107650652D01*
X67356083Y-107694517D01*
X67406877Y-107742489D01*
X67423672Y-107810310D01*
X67401135Y-107876445D01*
X67356083Y-107915484D01*
X67263390Y-107962713D01*
X67134518Y-108056343D01*
X67097787Y-108083029D01*
X67097785Y-108083032D01*
X67097781Y-108083034D01*
X66953034Y-108227781D01*
X66953032Y-108227785D01*
X66953029Y-108227787D01*
X66848108Y-108372201D01*
X66832713Y-108393390D01*
X66739780Y-108575781D01*
X66676523Y-108770466D01*
X66644500Y-108972648D01*
X66644500Y-109177352D01*
X66676523Y-109379534D01*
X66739780Y-109574219D01*
X66739782Y-109574222D01*
X66739782Y-109574224D01*
X66773497Y-109640393D01*
X66832713Y-109756610D01*
X66848108Y-109777800D01*
X66953029Y-109922214D01*
X67097787Y-110066972D01*
X67263387Y-110187285D01*
X67263388Y-110187286D01*
X67263390Y-110187287D01*
X67323102Y-110217712D01*
X67445777Y-110280219D01*
X67640466Y-110343478D01*
X67815005Y-110371122D01*
X67842648Y-110375500D01*
X68047352Y-110375500D01*
X68071671Y-110371649D01*
X68249535Y-110343478D01*
X68444224Y-110280219D01*
X68626614Y-110187285D01*
X68792214Y-110066972D01*
X68936972Y-109922214D01*
X69057285Y-109756614D01*
X69150219Y-109574224D01*
X69213478Y-109379535D01*
X69236664Y-109233139D01*
X69245500Y-109177352D01*
X74264501Y-109177352D01*
X74264501Y-109675008D01*
X74275001Y-109777797D01*
X74330186Y-109944334D01*
X74422288Y-110093656D01*
X74546344Y-110217712D01*
X74695666Y-110309814D01*
X74862203Y-110364999D01*
X74862205Y-110365000D01*
X74964990Y-110375500D01*
X76165002Y-110375500D01*
X76165019Y-110375499D01*
X76267797Y-110365000D01*
X76267800Y-110364999D01*
X76434332Y-110309815D01*
X76434337Y-110309813D01*
X76583658Y-110217711D01*
X76707711Y-110093658D01*
X76799813Y-109944337D01*
X76799814Y-109944334D01*
X76854999Y-109777797D01*
X76854999Y-109777796D01*
X76855000Y-109777796D01*
X76865500Y-109675017D01*
X80019500Y-109675017D01*
X80019500Y-110437650D01*
X79999815Y-110504689D01*
X79998602Y-110506541D01*
X79998191Y-110507157D01*
X79935606Y-110600821D01*
X79875263Y-110746503D01*
X79844500Y-110901158D01*
X79844500Y-111058842D01*
X79844500Y-111058845D01*
X79844501Y-111058847D01*
X79875262Y-111213490D01*
X79875263Y-111213497D01*
X79926405Y-111336966D01*
X79935603Y-111359173D01*
X79935610Y-111359186D01*
X80023211Y-111490289D01*
X80023214Y-111490293D01*
X80134708Y-111601787D01*
X80134712Y-111601790D01*
X80265815Y-111689391D01*
X80265828Y-111689398D01*
X80383707Y-111738224D01*
X80411499Y-111749736D01*
X80411511Y-111749739D01*
X80566155Y-111780500D01*
X80566158Y-111780500D01*
X80723842Y-111780500D01*
X80723845Y-111780500D01*
X80878490Y-111749739D01*
X80878502Y-111749736D01*
X81024173Y-111689398D01*
X81024186Y-111689391D01*
X81155289Y-111601790D01*
X81155293Y-111601787D01*
X81266787Y-111490293D01*
X81266790Y-111490289D01*
X81354391Y-111359186D01*
X81354398Y-111359173D01*
X81414736Y-111213502D01*
X81414739Y-111213490D01*
X81445500Y-111058847D01*
X88909500Y-111058847D01*
X88909500Y-112987318D01*
X74325000Y-112987318D01*
X74325000Y-112782683D01*
X74292991Y-112580583D01*
X74229756Y-112385969D01*
X74136859Y-112203650D01*
X74136853Y-112203641D01*
X74104477Y-112159079D01*
X74104476Y-112159078D01*
X73425000Y-112838554D01*
X73425000Y-112832339D01*
X73397741Y-112730606D01*
X73345080Y-112639394D01*
X73270606Y-112564920D01*
X73179394Y-112512259D01*
X73077661Y-112485000D01*
X73071447Y-112485000D01*
X73750924Y-111805526D01*
X73706350Y-111773141D01*
X73524032Y-111680245D01*
X73329418Y-111617010D01*
X73127317Y-111585000D01*
X72922683Y-111585000D01*
X72720583Y-111617010D01*
X72525969Y-111680245D01*
X72343651Y-111773141D01*
X72299079Y-111805526D01*
X72978553Y-112485000D01*
X72972339Y-112485000D01*
X72870606Y-112512259D01*
X72779394Y-112564920D01*
X72704920Y-112639394D01*
X72652259Y-112730606D01*
X72625000Y-112832339D01*
X72625000Y-112838552D01*
X71945526Y-112159078D01*
X71945526Y-112159079D01*
X71913141Y-112203651D01*
X71820245Y-112385969D01*
X71757010Y-112580583D01*
X71725000Y-112782683D01*
X71725000Y-112987318D01*
X71725005Y-112987352D01*
X69325500Y-112987352D01*
X69325500Y-112782649D01*
X69293478Y-112580466D01*
X69230219Y-112385777D01*
X69182247Y-112291629D01*
X69137415Y-112203641D01*
X69137285Y-112203387D01*
X69016972Y-112037787D01*
X68872214Y-111893029D01*
X68751774Y-111805526D01*
X68706610Y-111772713D01*
X68613920Y-111725485D01*
X68524224Y-111679782D01*
X68524222Y-111679782D01*
X68524219Y-111679780D01*
X68419863Y-111645873D01*
X68329535Y-111616523D01*
X68310303Y-111613477D01*
X68127352Y-111584500D01*
X68127351Y-111584500D01*
X67922649Y-111584500D01*
X67922648Y-111584500D01*
X67720466Y-111616523D01*
X67525781Y-111679780D01*
X67343390Y-111772713D01*
X67225670Y-111858241D01*
X67177787Y-111893029D01*
X67177785Y-111893032D01*
X67177781Y-111893034D01*
X67033034Y-112037781D01*
X67033032Y-112037785D01*
X67033029Y-112037787D01*
X66976741Y-112115262D01*
X66912713Y-112203390D01*
X66819780Y-112385781D01*
X66756523Y-112580466D01*
X66724500Y-112782648D01*
X66724500Y-112987352D01*
X66732743Y-113039394D01*
X66756523Y-113189535D01*
X66787542Y-113285000D01*
X66819780Y-113384219D01*
X66819782Y-113384222D01*
X66819782Y-113384224D01*
X66867753Y-113478371D01*
X66912713Y-113566610D01*
X66944908Y-113610923D01*
X67033029Y-113732214D01*
X67177787Y-113876972D01*
X67343387Y-113997285D01*
X67343388Y-113997286D01*
X67343390Y-113997287D01*
X67421466Y-114037069D01*
X67525777Y-114090219D01*
X67720466Y-114153478D01*
X67895005Y-114181122D01*
X67922648Y-114185500D01*
X68127352Y-114185500D01*
X68151671Y-114181649D01*
X68329535Y-114153478D01*
X68524224Y-114090219D01*
X68706614Y-113997285D01*
X68872214Y-113876972D01*
X69016972Y-113732214D01*
X69137285Y-113566614D01*
X69230219Y-113384224D01*
X69293478Y-113189535D01*
X69325500Y-112987352D01*
X71725005Y-112987352D01*
X71757010Y-113189418D01*
X71820245Y-113384032D01*
X71913141Y-113566350D01*
X71945526Y-113610923D01*
X71945526Y-113610924D01*
X72625000Y-112931449D01*
X72625000Y-112937661D01*
X72652259Y-113039394D01*
X72704920Y-113130606D01*
X72779394Y-113205080D01*
X72870606Y-113257741D01*
X72972339Y-113285000D01*
X72978554Y-113285000D01*
X72299078Y-113964476D01*
X72299079Y-113964477D01*
X72343641Y-113996853D01*
X72343650Y-113996859D01*
X72525969Y-114089756D01*
X72720583Y-114152991D01*
X72922683Y-114185000D01*
X73127317Y-114185000D01*
X73329418Y-114152991D01*
X73524032Y-114089756D01*
X73706356Y-113996857D01*
X73750923Y-113964477D01*
X73750923Y-113964476D01*
X73071446Y-113285000D01*
X73077661Y-113285000D01*
X73179394Y-113257741D01*
X73270606Y-113205080D01*
X73345080Y-113130606D01*
X73397741Y-113039394D01*
X73425000Y-112937661D01*
X73425000Y-112931447D01*
X74104476Y-113610923D01*
X74104477Y-113610923D01*
X74136857Y-113566356D01*
X74229756Y-113384032D01*
X74292991Y-113189418D01*
X74325000Y-112987318D01*
X88909500Y-112987318D01*
X88909500Y-123490991D01*
X88889815Y-123558030D01*
X88837011Y-123603785D01*
X88767853Y-123613729D01*
X88738052Y-123605554D01*
X88592497Y-123545263D01*
X88437847Y-123514501D01*
X88437844Y-123514500D01*
X88437842Y-123514500D01*
X88280156Y-123514500D01*
X88280155Y-123514501D01*
X88125503Y-123545263D01*
X87979821Y-123605606D01*
X87848711Y-123693211D01*
X87737211Y-123804711D01*
X87649606Y-123935821D01*
X87589263Y-124081503D01*
X87558500Y-124236158D01*
X87558500Y-124393842D01*
X87558500Y-124393845D01*
X87558501Y-124393847D01*
X87589263Y-124548497D01*
X87649606Y-124694179D01*
X87712603Y-124788461D01*
X87733480Y-124855137D01*
X87733500Y-124857350D01*
X87733500Y-126312650D01*
X87713815Y-126379689D01*
X87712602Y-126381541D01*
X87712191Y-126382157D01*
X87649606Y-126475821D01*
X87589263Y-126621503D01*
X87558500Y-126776158D01*
X87558500Y-126933842D01*
X87558500Y-126933845D01*
X87558501Y-126933847D01*
X87589263Y-127088497D01*
X87649606Y-127234179D01*
X87712603Y-127328461D01*
X87733480Y-127395137D01*
X87733500Y-127397350D01*
X87733500Y-130122650D01*
X87713815Y-130189689D01*
X87712602Y-130191541D01*
X87712191Y-130192157D01*
X87649606Y-130285821D01*
X87589263Y-130431503D01*
X87558500Y-130586158D01*
X87558500Y-130743842D01*
X87558500Y-130743845D01*
X87558501Y-130743847D01*
X87589261Y-130898489D01*
X87589264Y-130898499D01*
X87630061Y-130996993D01*
X87639500Y-131044445D01*
X87639500Y-135075017D01*
X76865500Y-135075017D01*
X76865500Y-133874999D01*
X76865499Y-133874982D01*
X76855000Y-133772204D01*
X76854999Y-133772201D01*
X76807144Y-133627787D01*
X76799814Y-133605666D01*
X76707712Y-133456344D01*
X76583656Y-133332288D01*
X76434334Y-133240186D01*
X76352430Y-133213046D01*
X76294985Y-133173273D01*
X76268162Y-133108757D01*
X76280477Y-133039982D01*
X76318549Y-132995022D01*
X76412213Y-132926972D01*
X76412218Y-132926968D01*
X76556972Y-132782214D01*
X76677285Y-132616614D01*
X76770219Y-132434224D01*
X76833478Y-132239535D01*
X76865500Y-132037352D01*
X76865500Y-131832649D01*
X76833478Y-131630466D01*
X76770219Y-131435777D01*
X76677285Y-131253387D01*
X76556972Y-131087787D01*
X76412214Y-130943029D01*
X76257251Y-130830444D01*
X76246610Y-130822713D01*
X76155160Y-130776117D01*
X76153920Y-130775485D01*
X76103124Y-130727510D01*
X76086329Y-130659689D01*
X76108866Y-130593554D01*
X76153920Y-130554515D01*
X76246614Y-130507285D01*
X76412214Y-130386972D01*
X76556972Y-130242214D01*
X76677285Y-130076614D01*
X76770219Y-129894224D01*
X76833478Y-129699535D01*
X76865500Y-129497352D01*
X76865500Y-129292649D01*
X76833478Y-129090466D01*
X76770219Y-128895777D01*
X76706309Y-128770347D01*
X76694304Y-128746787D01*
X76677285Y-128713387D01*
X76556972Y-128547787D01*
X76412214Y-128403029D01*
X76257251Y-128290444D01*
X76246610Y-128282713D01*
X76155160Y-128236117D01*
X76153920Y-128235485D01*
X76103124Y-128187510D01*
X76086329Y-128119689D01*
X76108866Y-128053554D01*
X76153920Y-128014515D01*
X76246614Y-127967285D01*
X76412214Y-127846972D01*
X76556972Y-127702214D01*
X76677285Y-127536614D01*
X76770219Y-127354224D01*
X76833478Y-127159535D01*
X76865500Y-126957352D01*
X76865500Y-126752649D01*
X76833478Y-126550466D01*
X76770219Y-126355777D01*
X76677285Y-126173387D01*
X76556972Y-126007787D01*
X76412214Y-125863029D01*
X76257251Y-125750444D01*
X76246610Y-125742713D01*
X76155160Y-125696117D01*
X76153920Y-125695485D01*
X76103124Y-125647510D01*
X76086329Y-125579689D01*
X76108866Y-125513554D01*
X76153920Y-125474515D01*
X76246614Y-125427285D01*
X76412214Y-125306972D01*
X76556972Y-125162214D01*
X76677285Y-124996614D01*
X76770219Y-124814224D01*
X76833478Y-124619535D01*
X76865500Y-124417352D01*
X76865500Y-124212649D01*
X76833478Y-124010466D01*
X76770219Y-123815777D01*
X76677285Y-123633387D01*
X76556972Y-123467787D01*
X76412214Y-123323029D01*
X76257251Y-123210444D01*
X76246610Y-123202713D01*
X76155160Y-123156117D01*
X76153920Y-123155485D01*
X76103124Y-123107510D01*
X76086329Y-123039689D01*
X76108866Y-122973554D01*
X76153920Y-122934515D01*
X76246614Y-122887285D01*
X76412214Y-122766972D01*
X76556972Y-122622214D01*
X76677285Y-122456614D01*
X76770219Y-122274224D01*
X76833478Y-122079535D01*
X76865500Y-121877352D01*
X76865500Y-121672649D01*
X76833478Y-121470466D01*
X76770219Y-121275777D01*
X76677285Y-121093387D01*
X76556972Y-120927787D01*
X76412214Y-120783029D01*
X76246615Y-120662716D01*
X76246613Y-120662715D01*
X76246610Y-120662713D01*
X76153920Y-120615485D01*
X76153370Y-120615205D01*
X76102574Y-120567230D01*
X76085779Y-120499409D01*
X76108316Y-120433275D01*
X76153370Y-120394235D01*
X76246356Y-120346857D01*
X76290923Y-120314477D01*
X76290923Y-120314476D01*
X75611446Y-119635000D01*
X75617661Y-119635000D01*
X75719394Y-119607741D01*
X75810606Y-119555080D01*
X75885080Y-119480606D01*
X75937741Y-119389394D01*
X75965000Y-119287661D01*
X75965000Y-119281447D01*
X76644476Y-119960923D01*
X76644477Y-119960923D01*
X76676857Y-119916356D01*
X76769756Y-119734032D01*
X76832991Y-119539418D01*
X76865000Y-119337318D01*
X76865000Y-119132683D01*
X76832991Y-118930583D01*
X76769756Y-118735969D01*
X76676859Y-118553650D01*
X76676853Y-118553641D01*
X76644477Y-118509079D01*
X76644476Y-118509078D01*
X75965000Y-119188554D01*
X75965000Y-119182339D01*
X75937741Y-119080606D01*
X75885080Y-118989394D01*
X75810606Y-118914920D01*
X75719394Y-118862259D01*
X75617661Y-118835000D01*
X75611447Y-118835000D01*
X76290924Y-118155526D01*
X76246350Y-118123141D01*
X76064032Y-118030245D01*
X75869418Y-117967010D01*
X75667317Y-117935000D01*
X75462683Y-117935000D01*
X75260583Y-117967010D01*
X75065969Y-118030245D01*
X74883651Y-118123141D01*
X74839079Y-118155526D01*
X75518553Y-118835000D01*
X75512339Y-118835000D01*
X75410606Y-118862259D01*
X75319394Y-118914920D01*
X75244920Y-118989394D01*
X75192259Y-119080606D01*
X75165000Y-119182339D01*
X75165000Y-119188552D01*
X74485526Y-118509078D01*
X74485526Y-118509079D01*
X74453141Y-118553651D01*
X74360245Y-118735969D01*
X74297010Y-118930583D01*
X74265000Y-119132683D01*
X74265000Y-119337318D01*
X74297010Y-119539418D01*
X74360245Y-119734032D01*
X74453141Y-119916350D01*
X74485526Y-119960923D01*
X74485526Y-119960924D01*
X75165000Y-119281449D01*
X75165000Y-119287661D01*
X75192259Y-119389394D01*
X75244920Y-119480606D01*
X75319394Y-119555080D01*
X75410606Y-119607741D01*
X75512339Y-119635000D01*
X75518554Y-119635000D01*
X74839078Y-120314476D01*
X74839079Y-120314477D01*
X74883641Y-120346853D01*
X74883650Y-120346859D01*
X74976631Y-120394235D01*
X75027427Y-120442210D01*
X75044222Y-120510031D01*
X75021685Y-120576165D01*
X74976630Y-120615205D01*
X74976080Y-120615485D01*
X74883390Y-120662713D01*
X74779081Y-120738497D01*
X74717787Y-120783029D01*
X74717785Y-120783032D01*
X74717781Y-120783034D01*
X74573034Y-120927781D01*
X74573032Y-120927785D01*
X74573029Y-120927787D01*
X74486163Y-121047350D01*
X74452713Y-121093390D01*
X74359780Y-121275781D01*
X74296523Y-121470466D01*
X74264500Y-121672648D01*
X74264500Y-121877352D01*
X74296523Y-122079535D01*
X74359782Y-122274224D01*
X74393497Y-122340393D01*
X74452713Y-122456610D01*
X74460444Y-122467251D01*
X74573029Y-122622214D01*
X74717787Y-122766972D01*
X74883386Y-122887285D01*
X74889994Y-122890652D01*
X74976083Y-122934517D01*
X75026877Y-122982489D01*
X75043672Y-123050310D01*
X75021135Y-123116445D01*
X74976083Y-123155484D01*
X74883390Y-123202713D01*
X74862230Y-123218087D01*
X74717787Y-123323029D01*
X74717785Y-123323032D01*
X74717781Y-123323034D01*
X74573034Y-123467781D01*
X74573032Y-123467785D01*
X74573029Y-123467787D01*
X74516741Y-123545262D01*
X74452713Y-123633390D01*
X74359780Y-123815781D01*
X74296523Y-124010466D01*
X74264500Y-124212648D01*
X74264500Y-124417352D01*
X74296523Y-124619535D01*
X74359782Y-124814224D01*
X74393497Y-124880393D01*
X74452713Y-124996610D01*
X74513491Y-125080265D01*
X74573029Y-125162214D01*
X74717787Y-125306972D01*
X74883386Y-125427285D01*
X74889994Y-125430652D01*
X74976083Y-125474517D01*
X75026877Y-125522489D01*
X75043672Y-125590310D01*
X75021135Y-125656445D01*
X74976083Y-125695484D01*
X74883390Y-125742713D01*
X74862230Y-125758087D01*
X74717787Y-125863029D01*
X74717785Y-125863032D01*
X74717781Y-125863034D01*
X74573034Y-126007781D01*
X74573032Y-126007785D01*
X74573029Y-126007787D01*
X74513491Y-126089736D01*
X74452713Y-126173390D01*
X74359780Y-126355781D01*
X74296523Y-126550466D01*
X74264500Y-126752648D01*
X74264500Y-126957352D01*
X74296523Y-127159535D01*
X74359782Y-127354224D01*
X74393497Y-127420393D01*
X74452713Y-127536610D01*
X74460444Y-127547251D01*
X74573029Y-127702214D01*
X74717787Y-127846972D01*
X74883386Y-127967285D01*
X74889994Y-127970652D01*
X74976083Y-128014517D01*
X75026877Y-128062489D01*
X75043672Y-128130310D01*
X75021135Y-128196445D01*
X74976083Y-128235484D01*
X74883390Y-128282713D01*
X74779081Y-128358497D01*
X74717787Y-128403029D01*
X74717785Y-128403032D01*
X74717781Y-128403034D01*
X74573034Y-128547781D01*
X74573032Y-128547785D01*
X74573029Y-128547787D01*
X74509453Y-128635293D01*
X74452713Y-128713390D01*
X74359780Y-128895781D01*
X74296523Y-129090466D01*
X74264500Y-129292648D01*
X74264500Y-129497352D01*
X74296523Y-129699534D01*
X74359780Y-129894219D01*
X74359782Y-129894222D01*
X74359782Y-129894224D01*
X74393497Y-129960393D01*
X74452713Y-130076610D01*
X74460444Y-130087251D01*
X74573029Y-130242214D01*
X74717787Y-130386972D01*
X74883386Y-130507285D01*
X74889994Y-130510652D01*
X74976083Y-130554517D01*
X75026877Y-130602489D01*
X75043672Y-130670310D01*
X75021135Y-130736445D01*
X74976083Y-130775484D01*
X74883390Y-130822713D01*
X74779081Y-130898497D01*
X74717787Y-130943029D01*
X74717785Y-130943032D01*
X74717781Y-130943034D01*
X74573034Y-131087781D01*
X74573032Y-131087785D01*
X74573029Y-131087787D01*
X74520268Y-131160410D01*
X74452713Y-131253390D01*
X74359780Y-131435781D01*
X74296523Y-131630466D01*
X74264500Y-131832648D01*
X74264500Y-132037352D01*
X74296523Y-132239535D01*
X74359782Y-132434224D01*
X74393497Y-132500393D01*
X74452713Y-132616610D01*
X74513491Y-132700265D01*
X74573029Y-132782214D01*
X74717781Y-132926966D01*
X74717789Y-132926972D01*
X74811453Y-132995022D01*
X74854118Y-133050351D01*
X74860097Y-133119964D01*
X74827492Y-133181760D01*
X74777574Y-133213045D01*
X74695666Y-133240186D01*
X74546344Y-133332288D01*
X74422288Y-133456344D01*
X74330186Y-133605666D01*
X74275001Y-133772203D01*
X74264500Y-133874991D01*
X74264501Y-134577352D01*
X69245500Y-134577352D01*
X69245500Y-134372649D01*
X69213478Y-134170466D01*
X69150219Y-133975777D01*
X69057285Y-133793387D01*
X68936972Y-133627787D01*
X68792214Y-133483029D01*
X68637251Y-133370444D01*
X68626610Y-133362713D01*
X68535160Y-133316117D01*
X68533920Y-133315485D01*
X68483124Y-133267510D01*
X68466329Y-133199689D01*
X68488866Y-133133554D01*
X68533920Y-133094515D01*
X68626614Y-133047285D01*
X68792214Y-132926972D01*
X68936972Y-132782214D01*
X69057285Y-132616614D01*
X69150219Y-132434224D01*
X69213478Y-132239535D01*
X69245500Y-132037352D01*
X69245500Y-131832649D01*
X69213478Y-131630466D01*
X69150219Y-131435777D01*
X69057285Y-131253387D01*
X68936972Y-131087787D01*
X68792214Y-130943029D01*
X68637251Y-130830444D01*
X68626610Y-130822713D01*
X68535160Y-130776117D01*
X68533920Y-130775485D01*
X68483124Y-130727510D01*
X68466329Y-130659689D01*
X68488866Y-130593554D01*
X68533920Y-130554515D01*
X68626614Y-130507285D01*
X68792214Y-130386972D01*
X68936972Y-130242214D01*
X69057285Y-130076614D01*
X69150219Y-129894224D01*
X69213478Y-129699535D01*
X69245500Y-129497352D01*
X69245500Y-129292649D01*
X69213478Y-129090466D01*
X69150219Y-128895777D01*
X69086309Y-128770347D01*
X69074304Y-128746787D01*
X69057285Y-128713387D01*
X68936972Y-128547787D01*
X68792214Y-128403029D01*
X68637251Y-128290444D01*
X68626610Y-128282713D01*
X68535160Y-128236117D01*
X68533920Y-128235485D01*
X68483124Y-128187510D01*
X68466329Y-128119689D01*
X68488866Y-128053554D01*
X68533920Y-128014515D01*
X68626614Y-127967285D01*
X68792214Y-127846972D01*
X68936972Y-127702214D01*
X69057285Y-127536614D01*
X69150219Y-127354224D01*
X69213478Y-127159535D01*
X69245500Y-126957352D01*
X69245500Y-126752649D01*
X69213478Y-126550466D01*
X69150219Y-126355777D01*
X69057285Y-126173387D01*
X68936972Y-126007787D01*
X68792214Y-125863029D01*
X68637251Y-125750444D01*
X68626610Y-125742713D01*
X68535160Y-125696117D01*
X68533920Y-125695485D01*
X68483124Y-125647510D01*
X68466329Y-125579689D01*
X68488866Y-125513554D01*
X68533920Y-125474515D01*
X68626614Y-125427285D01*
X68792214Y-125306972D01*
X68936972Y-125162214D01*
X69057285Y-124996614D01*
X69150219Y-124814224D01*
X69213478Y-124619535D01*
X69245500Y-124417352D01*
X69245500Y-124212649D01*
X69213478Y-124010466D01*
X69150219Y-123815777D01*
X69057285Y-123633387D01*
X68936972Y-123467787D01*
X68792214Y-123323029D01*
X68637251Y-123210444D01*
X68626610Y-123202713D01*
X68535160Y-123156117D01*
X68533920Y-123155485D01*
X68483124Y-123107510D01*
X68466329Y-123039689D01*
X68488866Y-122973554D01*
X68533920Y-122934515D01*
X68626614Y-122887285D01*
X68792214Y-122766972D01*
X68936972Y-122622214D01*
X69057285Y-122456614D01*
X69150219Y-122274224D01*
X69213478Y-122079535D01*
X69245500Y-121877352D01*
X69245500Y-121672649D01*
X69213478Y-121470466D01*
X69150219Y-121275777D01*
X69057285Y-121093387D01*
X68936972Y-120927787D01*
X68792214Y-120783029D01*
X68637251Y-120670444D01*
X68626610Y-120662713D01*
X68535160Y-120616117D01*
X68533920Y-120615485D01*
X68483124Y-120567510D01*
X68466329Y-120499689D01*
X68488866Y-120433554D01*
X68533920Y-120394515D01*
X68626614Y-120347285D01*
X68792214Y-120226972D01*
X68936972Y-120082214D01*
X69057285Y-119916614D01*
X69150219Y-119734224D01*
X69213478Y-119539535D01*
X69245500Y-119337352D01*
X69245500Y-119132649D01*
X69213478Y-118930466D01*
X69150219Y-118735777D01*
X69086309Y-118610347D01*
X69057415Y-118553641D01*
X69057285Y-118553387D01*
X68936972Y-118387787D01*
X68792214Y-118243029D01*
X68671774Y-118155526D01*
X68626610Y-118122713D01*
X68510393Y-118063497D01*
X68444224Y-118029782D01*
X68444222Y-118029782D01*
X68444219Y-118029780D01*
X68339863Y-117995873D01*
X68249535Y-117966523D01*
X68148443Y-117950512D01*
X68047352Y-117934500D01*
X68047351Y-117934500D01*
X67842649Y-117934500D01*
X67842648Y-117934500D01*
X67640466Y-117966523D01*
X67445781Y-118029780D01*
X67263390Y-118122713D01*
X67170410Y-118190268D01*
X67097787Y-118243029D01*
X67097785Y-118243032D01*
X67097781Y-118243034D01*
X66953034Y-118387781D01*
X66953032Y-118387785D01*
X66953029Y-118387787D01*
X66900268Y-118460410D01*
X66832713Y-118553390D01*
X66739780Y-118735781D01*
X66676523Y-118930466D01*
X66644500Y-119132648D01*
X66644500Y-119337352D01*
X66652743Y-119389394D01*
X66676523Y-119539535D01*
X66730124Y-119704501D01*
X66739780Y-119734219D01*
X66739782Y-119734222D01*
X66739782Y-119734224D01*
X66773497Y-119800393D01*
X66832713Y-119916610D01*
X66864908Y-119960923D01*
X66953029Y-120082214D01*
X67097787Y-120226972D01*
X67263386Y-120347285D01*
X67269994Y-120350652D01*
X67356083Y-120394517D01*
X67406877Y-120442489D01*
X67423672Y-120510310D01*
X67401135Y-120576445D01*
X67356083Y-120615484D01*
X67263390Y-120662713D01*
X67159081Y-120738497D01*
X67097787Y-120783029D01*
X67097785Y-120783032D01*
X67097781Y-120783034D01*
X66953034Y-120927781D01*
X66953032Y-120927785D01*
X66953029Y-120927787D01*
X66866163Y-121047350D01*
X66832713Y-121093390D01*
X66739780Y-121275781D01*
X66676523Y-121470466D01*
X66644500Y-121672648D01*
X66644500Y-121877352D01*
X66676523Y-122079535D01*
X66739782Y-122274224D01*
X66773497Y-122340393D01*
X66832713Y-122456610D01*
X66840444Y-122467251D01*
X66953029Y-122622214D01*
X67097787Y-122766972D01*
X67263386Y-122887285D01*
X67269994Y-122890652D01*
X67356083Y-122934517D01*
X67406877Y-122982489D01*
X67423672Y-123050310D01*
X67401135Y-123116445D01*
X67356083Y-123155484D01*
X67263390Y-123202713D01*
X67242230Y-123218087D01*
X67097787Y-123323029D01*
X67097785Y-123323032D01*
X67097781Y-123323034D01*
X66953034Y-123467781D01*
X66953032Y-123467785D01*
X66953029Y-123467787D01*
X66896741Y-123545262D01*
X66832713Y-123633390D01*
X66739780Y-123815781D01*
X66676523Y-124010466D01*
X66644500Y-124212648D01*
X66644500Y-124417352D01*
X66676523Y-124619535D01*
X66739782Y-124814224D01*
X66773497Y-124880393D01*
X66832713Y-124996610D01*
X66893491Y-125080265D01*
X66953029Y-125162214D01*
X67097787Y-125306972D01*
X67263386Y-125427285D01*
X67269994Y-125430652D01*
X67356083Y-125474517D01*
X67406877Y-125522489D01*
X67423672Y-125590310D01*
X67401135Y-125656445D01*
X67356083Y-125695484D01*
X67263390Y-125742713D01*
X67242230Y-125758087D01*
X67097787Y-125863029D01*
X67097785Y-125863032D01*
X67097781Y-125863034D01*
X66953034Y-126007781D01*
X66953032Y-126007785D01*
X66953029Y-126007787D01*
X66893491Y-126089736D01*
X66832713Y-126173390D01*
X66739780Y-126355781D01*
X66676523Y-126550466D01*
X66644500Y-126752648D01*
X66644500Y-126957352D01*
X66676523Y-127159535D01*
X66739782Y-127354224D01*
X66773497Y-127420393D01*
X66832713Y-127536610D01*
X66840444Y-127547251D01*
X66953029Y-127702214D01*
X67097787Y-127846972D01*
X67263386Y-127967285D01*
X67269994Y-127970652D01*
X67356083Y-128014517D01*
X67406877Y-128062489D01*
X67423672Y-128130310D01*
X67401135Y-128196445D01*
X67356083Y-128235484D01*
X67263390Y-128282713D01*
X67159081Y-128358497D01*
X67097787Y-128403029D01*
X67097785Y-128403032D01*
X67097781Y-128403034D01*
X66953034Y-128547781D01*
X66953032Y-128547785D01*
X66953029Y-128547787D01*
X66889453Y-128635293D01*
X66832713Y-128713390D01*
X66739780Y-128895781D01*
X66676523Y-129090466D01*
X66644500Y-129292648D01*
X66644500Y-129497352D01*
X66676523Y-129699534D01*
X66739780Y-129894219D01*
X66739782Y-129894222D01*
X66739782Y-129894224D01*
X66773497Y-129960393D01*
X66832713Y-130076610D01*
X66840444Y-130087251D01*
X66953029Y-130242214D01*
X67097787Y-130386972D01*
X67263386Y-130507285D01*
X67269994Y-130510652D01*
X67356083Y-130554517D01*
X67406877Y-130602489D01*
X67423672Y-130670310D01*
X67401135Y-130736445D01*
X67356083Y-130775484D01*
X67263390Y-130822713D01*
X67159081Y-130898497D01*
X67097787Y-130943029D01*
X67097785Y-130943032D01*
X67097781Y-130943034D01*
X66953034Y-131087781D01*
X66953032Y-131087785D01*
X66953029Y-131087787D01*
X66900268Y-131160410D01*
X66832713Y-131253390D01*
X66739780Y-131435781D01*
X66676523Y-131630466D01*
X66644500Y-131832648D01*
X66644500Y-132037352D01*
X66676523Y-132239535D01*
X66739782Y-132434224D01*
X66773497Y-132500393D01*
X66832713Y-132616610D01*
X66893491Y-132700265D01*
X66953029Y-132782214D01*
X67097787Y-132926972D01*
X67263386Y-133047285D01*
X67269994Y-133050652D01*
X67356083Y-133094517D01*
X67406877Y-133142489D01*
X67423672Y-133210310D01*
X67401135Y-133276445D01*
X67356083Y-133315484D01*
X67263390Y-133362713D01*
X67134518Y-133456343D01*
X67097787Y-133483029D01*
X67097785Y-133483032D01*
X67097781Y-133483034D01*
X66953034Y-133627781D01*
X66953032Y-133627785D01*
X66953029Y-133627787D01*
X66896741Y-133705262D01*
X66832713Y-133793390D01*
X66739780Y-133975781D01*
X66676523Y-134170466D01*
X66644500Y-134372648D01*
X66644500Y-134577352D01*
X66676523Y-134779535D01*
X66739782Y-134974224D01*
X66791135Y-135075009D01*
X66832713Y-135156610D01*
X66848108Y-135177800D01*
X66953029Y-135322214D01*
X67097787Y-135466972D01*
X67263387Y-135587285D01*
X67263388Y-135587286D01*
X67263390Y-135587287D01*
X67323102Y-135617712D01*
X67445777Y-135680219D01*
X67640466Y-135743478D01*
X67815005Y-135771122D01*
X67842648Y-135775500D01*
X68047352Y-135775500D01*
X68071671Y-135771649D01*
X68249535Y-135743478D01*
X68444224Y-135680219D01*
X68626614Y-135587285D01*
X68792214Y-135466972D01*
X68936972Y-135322214D01*
X69057285Y-135156614D01*
X69150219Y-134974224D01*
X69213478Y-134779535D01*
X69245500Y-134577352D01*
X74264501Y-134577352D01*
X74264501Y-135075008D01*
X74275001Y-135177797D01*
X74330186Y-135344334D01*
X74422288Y-135493656D01*
X74546344Y-135617712D01*
X74695666Y-135709814D01*
X74862203Y-135764999D01*
X74862205Y-135765000D01*
X74964990Y-135775500D01*
X76165002Y-135775500D01*
X76165019Y-135775499D01*
X76267797Y-135765000D01*
X76267800Y-135764999D01*
X76434332Y-135709815D01*
X76434337Y-135709813D01*
X76583658Y-135617711D01*
X76707711Y-135493658D01*
X76799813Y-135344337D01*
X76799814Y-135344334D01*
X76854999Y-135177797D01*
X76854999Y-135177796D01*
X76855000Y-135177796D01*
X76865500Y-135075017D01*
X87639500Y-135075017D01*
X87639500Y-138387318D01*
X74245000Y-138387318D01*
X74245000Y-138182683D01*
X74212991Y-137980583D01*
X74149756Y-137785969D01*
X74056859Y-137603650D01*
X74056853Y-137603641D01*
X74024477Y-137559079D01*
X74024476Y-137559078D01*
X73345000Y-138238554D01*
X73345000Y-138232339D01*
X73317741Y-138130606D01*
X73265080Y-138039394D01*
X73190606Y-137964920D01*
X73099394Y-137912259D01*
X72997661Y-137885000D01*
X72991447Y-137885000D01*
X73670924Y-137205526D01*
X73626350Y-137173141D01*
X73444032Y-137080245D01*
X73249418Y-137017010D01*
X73047317Y-136985000D01*
X72842683Y-136985000D01*
X72640583Y-137017010D01*
X72445969Y-137080245D01*
X72263651Y-137173141D01*
X72219079Y-137205526D01*
X72898553Y-137885000D01*
X72892339Y-137885000D01*
X72790606Y-137912259D01*
X72699394Y-137964920D01*
X72624920Y-138039394D01*
X72572259Y-138130606D01*
X72545000Y-138232339D01*
X72545000Y-138238552D01*
X71865526Y-137559078D01*
X71865526Y-137559079D01*
X71833141Y-137603651D01*
X71740245Y-137785969D01*
X71677010Y-137980583D01*
X71645000Y-138182683D01*
X71645000Y-138387318D01*
X71645005Y-138387352D01*
X69245500Y-138387352D01*
X69245500Y-138182649D01*
X69213478Y-137980466D01*
X69150219Y-137785777D01*
X69086309Y-137660347D01*
X69057415Y-137603641D01*
X69057285Y-137603387D01*
X68936972Y-137437787D01*
X68792214Y-137293029D01*
X68671774Y-137205526D01*
X68626610Y-137172713D01*
X68510393Y-137113497D01*
X68444224Y-137079782D01*
X68444222Y-137079782D01*
X68444219Y-137079780D01*
X68339863Y-137045873D01*
X68249535Y-137016523D01*
X68148443Y-137000512D01*
X68047352Y-136984500D01*
X68047351Y-136984500D01*
X67842649Y-136984500D01*
X67842648Y-136984500D01*
X67640466Y-137016523D01*
X67445781Y-137079780D01*
X67263390Y-137172713D01*
X67170410Y-137240268D01*
X67097787Y-137293029D01*
X67097785Y-137293032D01*
X67097781Y-137293034D01*
X66953034Y-137437781D01*
X66953032Y-137437785D01*
X66953029Y-137437787D01*
X66900268Y-137510410D01*
X66832713Y-137603390D01*
X66739780Y-137785781D01*
X66676523Y-137980466D01*
X66644500Y-138182648D01*
X66644500Y-138387352D01*
X66652743Y-138439394D01*
X66676523Y-138589535D01*
X66707542Y-138685000D01*
X66739780Y-138784219D01*
X66739782Y-138784222D01*
X66739782Y-138784224D01*
X66832581Y-138966350D01*
X66832713Y-138966610D01*
X66864908Y-139010923D01*
X66953029Y-139132214D01*
X67097787Y-139276972D01*
X67263387Y-139397285D01*
X67263388Y-139397286D01*
X67263390Y-139397287D01*
X67320347Y-139426309D01*
X67445777Y-139490219D01*
X67640466Y-139553478D01*
X67815005Y-139581122D01*
X67842648Y-139585500D01*
X68047352Y-139585500D01*
X68071671Y-139581649D01*
X68249535Y-139553478D01*
X68444224Y-139490219D01*
X68626614Y-139397285D01*
X68792214Y-139276972D01*
X68936972Y-139132214D01*
X69057285Y-138966614D01*
X69150219Y-138784224D01*
X69213478Y-138589535D01*
X69245500Y-138387352D01*
X71645005Y-138387352D01*
X71677010Y-138589418D01*
X71740245Y-138784032D01*
X71833141Y-138966350D01*
X71865526Y-139010923D01*
X71865526Y-139010924D01*
X72545000Y-138331449D01*
X72545000Y-138337661D01*
X72572259Y-138439394D01*
X72624920Y-138530606D01*
X72699394Y-138605080D01*
X72790606Y-138657741D01*
X72892339Y-138685000D01*
X72898554Y-138685000D01*
X72219078Y-139364476D01*
X72219079Y-139364477D01*
X72263641Y-139396853D01*
X72263650Y-139396859D01*
X72445969Y-139489756D01*
X72640583Y-139552991D01*
X72842683Y-139585000D01*
X73047317Y-139585000D01*
X73249418Y-139552991D01*
X73444032Y-139489756D01*
X73626356Y-139396857D01*
X73670923Y-139364477D01*
X73670923Y-139364476D01*
X72991446Y-138685000D01*
X72997661Y-138685000D01*
X73099394Y-138657741D01*
X73190606Y-138605080D01*
X73265080Y-138530606D01*
X73317741Y-138439394D01*
X73345000Y-138337661D01*
X73345000Y-138331447D01*
X74024476Y-139010923D01*
X74024477Y-139010923D01*
X74056857Y-138966356D01*
X74149756Y-138784032D01*
X74212991Y-138589418D01*
X74245000Y-138387318D01*
X87639500Y-138387318D01*
X87639500Y-152551607D01*
X87639501Y-152551611D01*
X87641885Y-152563597D01*
X87663537Y-152672452D01*
X87710689Y-152786286D01*
X87710690Y-152786287D01*
X87710693Y-152786293D01*
X87779142Y-152888733D01*
X87779145Y-152888737D01*
X87869363Y-152978955D01*
X87869394Y-152978984D01*
X88192572Y-153302162D01*
X88226057Y-153363485D01*
X88222823Y-153428159D01*
X88217754Y-153443757D01*
X88184500Y-153653713D01*
X88184500Y-153866287D01*
X88217754Y-154076243D01*
X88283443Y-154278412D01*
X88379949Y-154467816D01*
X88379951Y-154467819D01*
X88379952Y-154467821D01*
X88504891Y-154639787D01*
X88655214Y-154790110D01*
X88827180Y-154915049D01*
X89016586Y-155011556D01*
X89016587Y-155011557D01*
X89016588Y-155011557D01*
X89218757Y-155077246D01*
X89218759Y-155077247D01*
X89218760Y-155077247D01*
X89380043Y-155102792D01*
X89428713Y-155110500D01*
X89641287Y-155110500D01*
X89689958Y-155102792D01*
X89851240Y-155077247D01*
X90053415Y-155011556D01*
X90242821Y-154915049D01*
X90414787Y-154790110D01*
X90565110Y-154639787D01*
X90690051Y-154467818D01*
X90694516Y-154459054D01*
X90742491Y-154408258D01*
X90810312Y-154391464D01*
X90876447Y-154414002D01*
X90915484Y-154459054D01*
X90919950Y-154467818D01*
X91044891Y-154639787D01*
X91195214Y-154790110D01*
X91367180Y-154915049D01*
X91556586Y-155011556D01*
X91556587Y-155011557D01*
X91556588Y-155011557D01*
X91758757Y-155077246D01*
X91758759Y-155077247D01*
X91758760Y-155077247D01*
X91920043Y-155102792D01*
X91968713Y-155110500D01*
X92181287Y-155110500D01*
X92229958Y-155102792D01*
X92391240Y-155077247D01*
X92593415Y-155011556D01*
X92782821Y-154915049D01*
X92954787Y-154790110D01*
X93105110Y-154639787D01*
X93230051Y-154467818D01*
X93234516Y-154459054D01*
X93282491Y-154408258D01*
X93350312Y-154391464D01*
X93416447Y-154414002D01*
X93455484Y-154459054D01*
X93459950Y-154467818D01*
X93584891Y-154639787D01*
X93735214Y-154790110D01*
X93907180Y-154915049D01*
X94096586Y-155011556D01*
X94096587Y-155011557D01*
X94096588Y-155011557D01*
X94298757Y-155077246D01*
X94298759Y-155077247D01*
X94298760Y-155077247D01*
X94460043Y-155102792D01*
X94508713Y-155110500D01*
X94721287Y-155110500D01*
X94769958Y-155102792D01*
X94931240Y-155077247D01*
X95133415Y-155011556D01*
X95322821Y-154915049D01*
X95494787Y-154790110D01*
X95645110Y-154639787D01*
X95770051Y-154467818D01*
X95774516Y-154459054D01*
X95822491Y-154408258D01*
X95890312Y-154391464D01*
X95956447Y-154414002D01*
X95995484Y-154459054D01*
X95999950Y-154467818D01*
X96124891Y-154639787D01*
X96275214Y-154790110D01*
X96447180Y-154915049D01*
X96636586Y-155011556D01*
X96636587Y-155011557D01*
X96636588Y-155011557D01*
X96838757Y-155077246D01*
X96838759Y-155077247D01*
X96838760Y-155077247D01*
X97000043Y-155102792D01*
X97048713Y-155110500D01*
X97261287Y-155110500D01*
X97309958Y-155102792D01*
X97471240Y-155077247D01*
X97673415Y-155011556D01*
X97862821Y-154915049D01*
X98034787Y-154790110D01*
X98185110Y-154639787D01*
X98310051Y-154467818D01*
X98314516Y-154459054D01*
X98362491Y-154408258D01*
X98430312Y-154391464D01*
X98496447Y-154414002D01*
X98535484Y-154459054D01*
X98539950Y-154467818D01*
X98664891Y-154639787D01*
X98815214Y-154790110D01*
X98987180Y-154915049D01*
X99176586Y-155011556D01*
X99176587Y-155011557D01*
X99176588Y-155011557D01*
X99378757Y-155077246D01*
X99378759Y-155077247D01*
X99378760Y-155077247D01*
X99540043Y-155102792D01*
X99588713Y-155110500D01*
X99801287Y-155110500D01*
X99849958Y-155102792D01*
X100011240Y-155077247D01*
X100213415Y-155011556D01*
X100402821Y-154915049D01*
X100574787Y-154790110D01*
X100725110Y-154639787D01*
X100850051Y-154467818D01*
X100854516Y-154459054D01*
X100902491Y-154408258D01*
X100970312Y-154391464D01*
X101036447Y-154414002D01*
X101075484Y-154459054D01*
X101079950Y-154467818D01*
X101204891Y-154639787D01*
X101355214Y-154790110D01*
X101527180Y-154915049D01*
X101716586Y-155011556D01*
X101716587Y-155011557D01*
X101716588Y-155011557D01*
X101918757Y-155077246D01*
X101918759Y-155077247D01*
X101918760Y-155077247D01*
X102080043Y-155102792D01*
X102128713Y-155110500D01*
X102341287Y-155110500D01*
X102389958Y-155102792D01*
X102551240Y-155077247D01*
X102753415Y-155011556D01*
X102942821Y-154915049D01*
X103114787Y-154790110D01*
X103265110Y-154639787D01*
X103390051Y-154467818D01*
X103394516Y-154459054D01*
X103442491Y-154408258D01*
X103510312Y-154391464D01*
X103576447Y-154414002D01*
X103615484Y-154459054D01*
X103619950Y-154467818D01*
X103744891Y-154639787D01*
X103895214Y-154790110D01*
X104067180Y-154915049D01*
X104256586Y-155011556D01*
X104256587Y-155011557D01*
X104256588Y-155011557D01*
X104458757Y-155077246D01*
X104458759Y-155077247D01*
X104458760Y-155077247D01*
X104620043Y-155102792D01*
X104668713Y-155110500D01*
X104881287Y-155110500D01*
X104929958Y-155102792D01*
X105091240Y-155077247D01*
X105293415Y-155011556D01*
X105482821Y-154915049D01*
X105654787Y-154790110D01*
X105805110Y-154639787D01*
X105930051Y-154467818D01*
X105934516Y-154459054D01*
X105982491Y-154408258D01*
X106050312Y-154391464D01*
X106116447Y-154414002D01*
X106155484Y-154459054D01*
X106159950Y-154467818D01*
X106284891Y-154639787D01*
X106435214Y-154790110D01*
X106607180Y-154915049D01*
X106796586Y-155011556D01*
X106796587Y-155011557D01*
X106796588Y-155011557D01*
X106998757Y-155077246D01*
X106998759Y-155077247D01*
X106998760Y-155077247D01*
X107160043Y-155102792D01*
X107208713Y-155110500D01*
X107421287Y-155110500D01*
X107469958Y-155102792D01*
X107631240Y-155077247D01*
X107833415Y-155011556D01*
X108022821Y-154915049D01*
X108194787Y-154790110D01*
X108345110Y-154639787D01*
X108470051Y-154467818D01*
X108474516Y-154459054D01*
X108522491Y-154408258D01*
X108590312Y-154391464D01*
X108656447Y-154414002D01*
X108695484Y-154459054D01*
X108699950Y-154467818D01*
X108824891Y-154639787D01*
X108975214Y-154790110D01*
X109147180Y-154915049D01*
X109336586Y-155011556D01*
X109336587Y-155011557D01*
X109336588Y-155011557D01*
X109538757Y-155077246D01*
X109538759Y-155077247D01*
X109538760Y-155077247D01*
X109700043Y-155102792D01*
X109748713Y-155110500D01*
X109961287Y-155110500D01*
X110009958Y-155102792D01*
X110171240Y-155077247D01*
X110373415Y-155011556D01*
X110562821Y-154915049D01*
X110734787Y-154790110D01*
X110885110Y-154639787D01*
X111010051Y-154467818D01*
X111014516Y-154459054D01*
X111062491Y-154408258D01*
X111130312Y-154391464D01*
X111196447Y-154414002D01*
X111235484Y-154459054D01*
X111239950Y-154467818D01*
X111364891Y-154639787D01*
X111515214Y-154790110D01*
X111687180Y-154915049D01*
X111876586Y-155011556D01*
X111876587Y-155011557D01*
X111876588Y-155011557D01*
X112078757Y-155077246D01*
X112078759Y-155077247D01*
X112078760Y-155077247D01*
X112240043Y-155102792D01*
X112288713Y-155110500D01*
X112501287Y-155110500D01*
X112549958Y-155102792D01*
X112711240Y-155077247D01*
X112913415Y-155011556D01*
X113102821Y-154915049D01*
X113274787Y-154790110D01*
X113425110Y-154639787D01*
X113550051Y-154467818D01*
X113554516Y-154459054D01*
X113602491Y-154408258D01*
X113670312Y-154391464D01*
X113736447Y-154414002D01*
X113775484Y-154459054D01*
X113779950Y-154467818D01*
X113904891Y-154639787D01*
X114055214Y-154790110D01*
X114227180Y-154915049D01*
X114416586Y-155011556D01*
X114416587Y-155011557D01*
X114416588Y-155011557D01*
X114618757Y-155077246D01*
X114618759Y-155077247D01*
X114618760Y-155077247D01*
X114780043Y-155102792D01*
X114828713Y-155110500D01*
X115041287Y-155110500D01*
X115089958Y-155102792D01*
X115251240Y-155077247D01*
X115453415Y-155011556D01*
X115642821Y-154915049D01*
X115814787Y-154790110D01*
X115965110Y-154639787D01*
X116090051Y-154467818D01*
X116094516Y-154459054D01*
X116142491Y-154408258D01*
X116210312Y-154391464D01*
X116276447Y-154414002D01*
X116315484Y-154459054D01*
X116319950Y-154467818D01*
X116444891Y-154639787D01*
X116595214Y-154790110D01*
X116767180Y-154915049D01*
X116956586Y-155011556D01*
X116956587Y-155011557D01*
X116956588Y-155011557D01*
X117158757Y-155077246D01*
X117158759Y-155077247D01*
X117158760Y-155077247D01*
X117320043Y-155102792D01*
X117368713Y-155110500D01*
X117581287Y-155110500D01*
X117629958Y-155102792D01*
X117791240Y-155077247D01*
X117993415Y-155011556D01*
X118182821Y-154915049D01*
X118354787Y-154790110D01*
X118505110Y-154639787D01*
X118630051Y-154467818D01*
X118634516Y-154459054D01*
X118682491Y-154408258D01*
X118750312Y-154391464D01*
X118816447Y-154414002D01*
X118855484Y-154459054D01*
X118859950Y-154467818D01*
X118984891Y-154639787D01*
X119135214Y-154790110D01*
X119307180Y-154915049D01*
X119496586Y-155011556D01*
X119496587Y-155011557D01*
X119496588Y-155011557D01*
X119698757Y-155077246D01*
X119698759Y-155077247D01*
X119698760Y-155077247D01*
X119860043Y-155102792D01*
X119908713Y-155110500D01*
X120121287Y-155110500D01*
X120169958Y-155102792D01*
X120331240Y-155077247D01*
X120533415Y-155011556D01*
X120722821Y-154915049D01*
X120894787Y-154790110D01*
X121045110Y-154639787D01*
X121170051Y-154467818D01*
X121174516Y-154459054D01*
X121222491Y-154408258D01*
X121290312Y-154391464D01*
X121356447Y-154414002D01*
X121395484Y-154459054D01*
X121399950Y-154467818D01*
X121524891Y-154639787D01*
X121675214Y-154790110D01*
X121847180Y-154915049D01*
X122036586Y-155011556D01*
X122036587Y-155011557D01*
X122036588Y-155011557D01*
X122238757Y-155077246D01*
X122238759Y-155077247D01*
X122238760Y-155077247D01*
X122400043Y-155102792D01*
X122448713Y-155110500D01*
X122661287Y-155110500D01*
X122709958Y-155102792D01*
X122871240Y-155077247D01*
X123073415Y-155011556D01*
X123262821Y-154915049D01*
X123434787Y-154790110D01*
X123585110Y-154639787D01*
X123710051Y-154467818D01*
X123714516Y-154459054D01*
X123762491Y-154408258D01*
X123830312Y-154391464D01*
X123896447Y-154414002D01*
X123935484Y-154459054D01*
X123939950Y-154467818D01*
X124064891Y-154639787D01*
X124215214Y-154790110D01*
X124387180Y-154915049D01*
X124576586Y-155011556D01*
X124576587Y-155011557D01*
X124576588Y-155011557D01*
X124778757Y-155077246D01*
X124778759Y-155077247D01*
X124778760Y-155077247D01*
X124940043Y-155102792D01*
X124988713Y-155110500D01*
X125201287Y-155110500D01*
X125249958Y-155102792D01*
X125411240Y-155077247D01*
X125613415Y-155011556D01*
X125802821Y-154915049D01*
X125974787Y-154790110D01*
X126125110Y-154639787D01*
X126250051Y-154467818D01*
X126254516Y-154459054D01*
X126302491Y-154408258D01*
X126370312Y-154391464D01*
X126436447Y-154414002D01*
X126475484Y-154459054D01*
X126479950Y-154467818D01*
X126604891Y-154639787D01*
X126755214Y-154790110D01*
X126927180Y-154915049D01*
X127116586Y-155011556D01*
X127116587Y-155011557D01*
X127116588Y-155011557D01*
X127318757Y-155077246D01*
X127318759Y-155077247D01*
X127318760Y-155077247D01*
X127480043Y-155102792D01*
X127528713Y-155110500D01*
X127741287Y-155110500D01*
X127789958Y-155102792D01*
X127951240Y-155077247D01*
X128153415Y-155011556D01*
X128342821Y-154915049D01*
X128514787Y-154790110D01*
X128665110Y-154639787D01*
X128790051Y-154467818D01*
X128794516Y-154459054D01*
X128842491Y-154408258D01*
X128910312Y-154391464D01*
X128976447Y-154414002D01*
X129015484Y-154459054D01*
X129019950Y-154467818D01*
X129144891Y-154639787D01*
X129295214Y-154790110D01*
X129467180Y-154915049D01*
X129656586Y-155011556D01*
X129656587Y-155011557D01*
X129656588Y-155011557D01*
X129858757Y-155077246D01*
X129858759Y-155077247D01*
X129858760Y-155077247D01*
X130020043Y-155102792D01*
X130068713Y-155110500D01*
X130281287Y-155110500D01*
X130329958Y-155102792D01*
X130491240Y-155077247D01*
X130693415Y-155011556D01*
X130882821Y-154915049D01*
X131054787Y-154790110D01*
X131205110Y-154639787D01*
X131330051Y-154467818D01*
X131334516Y-154459054D01*
X131382491Y-154408258D01*
X131450312Y-154391464D01*
X131516447Y-154414002D01*
X131555484Y-154459054D01*
X131559950Y-154467818D01*
X131684891Y-154639787D01*
X131835214Y-154790110D01*
X132007180Y-154915049D01*
X132196586Y-155011556D01*
X132196587Y-155011557D01*
X132196588Y-155011557D01*
X132398757Y-155077246D01*
X132398759Y-155077247D01*
X132398760Y-155077247D01*
X132560043Y-155102792D01*
X132608713Y-155110500D01*
X132821287Y-155110500D01*
X132869958Y-155102792D01*
X133031240Y-155077247D01*
X133233415Y-155011556D01*
X133422821Y-154915049D01*
X133594787Y-154790110D01*
X133745110Y-154639787D01*
X133870051Y-154467818D01*
X133874516Y-154459054D01*
X133922491Y-154408258D01*
X133990312Y-154391464D01*
X134056447Y-154414002D01*
X134095484Y-154459054D01*
X134099950Y-154467818D01*
X134224891Y-154639787D01*
X134375214Y-154790110D01*
X134547180Y-154915049D01*
X134736586Y-155011556D01*
X134736587Y-155011557D01*
X134736588Y-155011557D01*
X134938757Y-155077246D01*
X134938759Y-155077247D01*
X134938760Y-155077247D01*
X135100043Y-155102792D01*
X135148713Y-155110500D01*
X135361287Y-155110500D01*
X135409958Y-155102792D01*
X135571240Y-155077247D01*
X135773415Y-155011556D01*
X135962821Y-154915049D01*
X136134787Y-154790110D01*
X136285110Y-154639787D01*
X136410051Y-154467818D01*
X136414798Y-154458501D01*
X136462773Y-154407707D01*
X136530595Y-154390913D01*
X136596729Y-154413452D01*
X136635766Y-154458505D01*
X136640374Y-154467548D01*
X136679730Y-154521718D01*
X136679731Y-154521718D01*
X137312038Y-153889410D01*
X137329075Y-153952993D01*
X137394901Y-154067007D01*
X137487993Y-154160099D01*
X137602007Y-154225925D01*
X137665591Y-154242963D01*
X137033284Y-154875272D01*
X137087450Y-154914625D01*
X137276783Y-155011096D01*
X137478871Y-155076758D01*
X137688754Y-155110000D01*
X137901246Y-155110000D01*
X138111128Y-155076758D01*
X138111131Y-155076758D01*
X138313218Y-155011096D01*
X138502561Y-154914620D01*
X138556718Y-154875273D01*
X138556718Y-154875272D01*
X137924409Y-154242963D01*
X137987993Y-154225925D01*
X138102007Y-154160099D01*
X138195099Y-154067007D01*
X138260925Y-153952993D01*
X138277963Y-153889409D01*
X138910272Y-154521718D01*
X138910273Y-154521718D01*
X138949620Y-154467561D01*
X139046096Y-154278218D01*
X139111758Y-154076131D01*
X139111758Y-154076128D01*
X139145000Y-153866247D01*
X162694500Y-153866247D01*
X162694500Y-157490500D01*
X162674815Y-157557539D01*
X162622011Y-157603294D01*
X162570500Y-157614500D01*
X64124500Y-157614500D01*
X64057461Y-157594815D01*
G37*
%TD.AperFunction*%
%TD*%
D19*
X107315000Y-87485000D03*
X103411000Y-100185000D03*
X135255000Y-134475000D03*
X102235000Y-82405000D03*
X99695000Y-79865000D03*
X94615000Y-78595000D03*
X113665000Y-98915000D03*
X89535000Y-83675000D03*
X116205000Y-96375000D03*
X132715000Y-120505000D03*
X109855000Y-107805000D03*
X109855000Y-133205000D03*
X98519000Y-97645000D03*
X125095000Y-90025000D03*
X83820000Y-75420000D03*
X83820000Y-90025000D03*
X125095000Y-129390000D03*
X90805000Y-125585000D03*
X90805000Y-109075000D03*
X90805000Y-95105000D03*
X126459000Y-86215000D03*
X104775000Y-84945000D03*
X108679000Y-103995000D03*
X95979000Y-106535000D03*
X100965000Y-92565000D03*
X112395000Y-112885000D03*
X118745000Y-93835000D03*
X92075000Y-81135000D03*
X123731000Y-88755000D03*
X97155000Y-77325000D03*
X105951000Y-102725000D03*
X127635000Y-90025000D03*
X137795000Y-76055000D03*
X127635000Y-131935000D03*
X127635000Y-121775000D03*
X137795000Y-90025000D03*
X88359000Y-126855000D03*
X88359000Y-130665000D03*
X88359000Y-124315000D03*
X93439000Y-105265000D03*
X121285000Y-91295000D03*
X111219000Y-101455000D03*
X80645000Y-70975000D03*
X141605000Y-76055000D03*
D20*
X130175000Y-115425000D03*
D19*
X139065000Y-115425000D03*
D20*
X130175000Y-136380000D03*
X130175000Y-110980000D03*
D19*
X80645000Y-110980000D03*
X137795000Y-95105000D03*
X137795000Y-128125000D03*
D20*
X68025000Y-112885000D03*
X73025000Y-112885000D03*
X137795000Y-153760000D03*
X135255000Y-153760000D03*
X132715000Y-153760000D03*
X130175000Y-153760000D03*
X127635000Y-153760000D03*
X125095000Y-153760000D03*
X122555000Y-153760000D03*
X120015000Y-153760000D03*
X117475000Y-153760000D03*
X114935000Y-153760000D03*
X112395000Y-153760000D03*
X109855000Y-153760000D03*
X107315000Y-153760000D03*
X104775000Y-153760000D03*
X102235000Y-153760000D03*
X99695000Y-153760000D03*
X97155000Y-153760000D03*
X94615000Y-153760000D03*
X92075000Y-153760000D03*
X89535000Y-153760000D03*
X89535000Y-151220000D03*
X92075000Y-151220000D03*
X94615000Y-151220000D03*
X97155000Y-151220000D03*
X99695000Y-151220000D03*
X102235000Y-151220000D03*
X104775000Y-151220000D03*
X107315000Y-151220000D03*
X109855000Y-151220000D03*
X112395000Y-151220000D03*
X114935000Y-151220000D03*
X117475000Y-151220000D03*
X120015000Y-151220000D03*
X122555000Y-151220000D03*
X125095000Y-151220000D03*
X127635000Y-151220000D03*
X130175000Y-151220000D03*
X132715000Y-151220000D03*
X135255000Y-151220000D03*
X137795000Y-151220000D03*
X159385000Y-115425000D03*
X159385000Y-112885000D03*
X159385000Y-110345000D03*
X159385000Y-107805000D03*
X159385000Y-105265000D03*
X159385000Y-102725000D03*
X159385000Y-100185000D03*
X159385000Y-97645000D03*
X159385000Y-95105000D03*
X159385000Y-92565000D03*
X159385000Y-90025000D03*
X159385000Y-87485000D03*
X159385000Y-84945000D03*
X159385000Y-82405000D03*
X159385000Y-79865000D03*
X159385000Y-77325000D03*
X144145000Y-77325000D03*
X144145000Y-79865000D03*
X144145000Y-82405000D03*
X144145000Y-84945000D03*
X144145000Y-87485000D03*
X144145000Y-90025000D03*
X144145000Y-92565000D03*
X144145000Y-95105000D03*
X144145000Y-97645000D03*
X144145000Y-100185000D03*
X144145000Y-102725000D03*
X144145000Y-105265000D03*
X144145000Y-107805000D03*
X144145000Y-110345000D03*
X144145000Y-112885000D03*
X144145000Y-115425000D03*
X75565000Y-134475000D03*
X75565000Y-131935000D03*
X75565000Y-129395000D03*
X75565000Y-126855000D03*
X75565000Y-124315000D03*
X75565000Y-121775000D03*
X75565000Y-119235000D03*
X67945000Y-119235000D03*
X67945000Y-121775000D03*
X67945000Y-124315000D03*
X67945000Y-126855000D03*
X67945000Y-129395000D03*
X67945000Y-131935000D03*
X67945000Y-134475000D03*
X140970000Y-112885000D03*
X140970000Y-115425000D03*
X75565000Y-109075000D03*
X75565000Y-106535000D03*
X75565000Y-103995000D03*
X75565000Y-101455000D03*
X75565000Y-98915000D03*
X75565000Y-96375000D03*
X75565000Y-93835000D03*
X75565000Y-91295000D03*
X75565000Y-88755000D03*
X75565000Y-86215000D03*
X75565000Y-83675000D03*
X75565000Y-81135000D03*
X75565000Y-78595000D03*
X75565000Y-76055000D03*
X67945000Y-76055000D03*
X67945000Y-78595000D03*
X67945000Y-81135000D03*
X67945000Y-83675000D03*
X67945000Y-86215000D03*
X67945000Y-88755000D03*
X67945000Y-91295000D03*
X67945000Y-93835000D03*
X67945000Y-96375000D03*
X67945000Y-98915000D03*
X67945000Y-101455000D03*
X67945000Y-103995000D03*
X67945000Y-106535000D03*
X67945000Y-109075000D03*
X67945000Y-138285000D03*
X72945000Y-138285000D03*
X144145000Y-119235000D03*
X149145000Y-119235000D03*
M02*
