M48
; DRILL file {KiCad 9.0.2+dfsg-1} date 2026-09-04T20:34:38+0200
; FORMAT={-:-/ absolute / metric / decimal}
; #@! TF.CreationDate,2026-09-04T20:34:38+02:00
; #@! TF.GenerationSoftware,Kicad,Pcbnew,9.0.2+dfsg-1
; #@! TF.FileFunction,Plated,1,2,PTH
FMAT,2
METRIC
; #@! TA.AperFunction,Plated,PTH,ViaDrill
T1C0.300
; #@! TA.AperFunction,Plated,PTH,ViaDrill
T2C0.500
; #@! TA.AperFunction,Plated,PTH,ComponentDrill
T3C0.700
; #@! TA.AperFunction,Plated,PTH,ComponentDrill
T4C0.800
; #@! TA.AperFunction,Plated,PTH,ComponentDrill
T5C1.000
%
G90
G05
T1
X80.645Y-70.975
X80.645Y-110.98
X83.82Y-75.42
X83.82Y-90.025
X88.359Y-124.315
X88.359Y-126.855
X88.359Y-130.665
X89.535Y-83.675
X90.805Y-95.105
X90.805Y-109.075
X90.805Y-125.585
X92.075Y-81.135
X93.439Y-105.265
X94.615Y-78.595
X95.979Y-106.535
X97.155Y-77.325
X98.519Y-97.645
X99.695Y-79.865
X100.965Y-92.565
X102.235Y-82.405
X103.411Y-100.185
X104.775Y-84.945
X105.951Y-102.725
X107.315Y-87.485
X108.679Y-103.995
X109.855Y-107.805
X109.855Y-133.205
X111.219Y-101.455
X112.395Y-112.885
X113.665Y-98.915
X116.205Y-96.375
X118.745Y-93.835
X121.285Y-91.295
X123.731Y-88.755
X125.095Y-90.025
X125.095Y-129.39
X126.459Y-86.215
X127.635Y-90.025
X127.635Y-121.775
X127.635Y-131.935
X132.715Y-120.505
X135.255Y-134.475
X137.795Y-76.055
X137.795Y-90.025
X137.795Y-95.105
X137.795Y-128.125
X139.065Y-115.425
X141.605Y-76.055
T2
X130.175Y-110.98
X130.175Y-115.425
X130.175Y-136.38
T3
X140.97Y-112.885
X140.97Y-115.425
T4
X67.945Y-76.055
X67.945Y-78.595
X67.945Y-81.135
X67.945Y-83.675
X67.945Y-86.215
X67.945Y-88.755
X67.945Y-91.295
X67.945Y-93.835
X67.945Y-96.375
X67.945Y-98.915
X67.945Y-101.455
X67.945Y-103.995
X67.945Y-106.535
X67.945Y-109.075
X67.945Y-119.235
X67.945Y-121.775
X67.945Y-124.315
X67.945Y-126.855
X67.945Y-129.395
X67.945Y-131.935
X67.945Y-134.475
X67.945Y-138.285
X68.025Y-112.885
X72.945Y-138.285
X73.025Y-112.885
X75.565Y-76.055
X75.565Y-78.595
X75.565Y-81.135
X75.565Y-83.675
X75.565Y-86.215
X75.565Y-88.755
X75.565Y-91.295
X75.565Y-93.835
X75.565Y-96.375
X75.565Y-98.915
X75.565Y-101.455
X75.565Y-103.995
X75.565Y-106.535
X75.565Y-109.075
X75.565Y-119.235
X75.565Y-121.775
X75.565Y-124.315
X75.565Y-126.855
X75.565Y-129.395
X75.565Y-131.935
X75.565Y-134.475
X144.145Y-77.325
X144.145Y-79.865
X144.145Y-82.405
X144.145Y-84.945
X144.145Y-87.485
X144.145Y-90.025
X144.145Y-92.565
X144.145Y-95.105
X144.145Y-97.645
X144.145Y-100.185
X144.145Y-102.725
X144.145Y-105.265
X144.145Y-107.805
X144.145Y-110.345
X144.145Y-112.885
X144.145Y-115.425
X144.145Y-119.235
X149.145Y-119.235
X159.385Y-77.325
X159.385Y-79.865
X159.385Y-82.405
X159.385Y-84.945
X159.385Y-87.485
X159.385Y-90.025
X159.385Y-92.565
X159.385Y-95.105
X159.385Y-97.645
X159.385Y-100.185
X159.385Y-102.725
X159.385Y-105.265
X159.385Y-107.805
X159.385Y-110.345
X159.385Y-112.885
X159.385Y-115.425
T5
X89.535Y-151.22
X89.535Y-153.76
X92.075Y-151.22
X92.075Y-153.76
X94.615Y-151.22
X94.615Y-153.76
X97.155Y-151.22
X97.155Y-153.76
X99.695Y-151.22
X99.695Y-153.76
X102.235Y-151.22
X102.235Y-153.76
X104.775Y-151.22
X104.775Y-153.76
X107.315Y-151.22
X107.315Y-153.76
X109.855Y-151.22
X109.855Y-153.76
X112.395Y-151.22
X112.395Y-153.76
X114.935Y-151.22
X114.935Y-153.76
X117.475Y-151.22
X117.475Y-153.76
X120.015Y-151.22
X120.015Y-153.76
X122.555Y-151.22
X122.555Y-153.76
X125.095Y-151.22
X125.095Y-153.76
X127.635Y-151.22
X127.635Y-153.76
X130.175Y-151.22
X130.175Y-153.76
X132.715Y-151.22
X132.715Y-153.76
X135.255Y-151.22
X135.255Y-153.76
X137.795Y-151.22
X137.795Y-153.76
M30
