%TF.GenerationSoftware,KiCad,Pcbnew,9.0.2+dfsg-1*%
%TF.CreationDate,2026-09-04T21:04:27+02:00*%
%TF.ProjectId,memory-card,6d656d6f-7279-42d6-9361-72642e6b6963,rev?*%
%TF.SameCoordinates,Original*%
%TF.FileFunction,Soldermask,Top*%
%TF.FilePolarity,Negative*%
%FSLAX46Y46*%
G04 Gerber Fmt 4.6, Leading zero omitted, Abs format (unit mm)*
G04 Created by KiCad (PCBNEW 9.0.2+dfsg-1) date 2026-09-04 21:04:27*
%MOMM*%
%LPD*%
G01*
G04 APERTURE LIST*
G04 Aperture macros list*
%AMRoundRect*
0 Rectangle with rounded corners*
0 $1 Rounding radius*
0 $2 $3 $4 $5 $6 $7 $8 $9 X,Y pos of 4 corners*
0 Add a 4 corners polygon primitive as box body*
4,1,4,$2,$3,$4,$5,$6,$7,$8,$9,$2,$3,0*
0 Add four circle primitives for the rounded corners*
1,1,$1+$1,$2,$3*
1,1,$1+$1,$4,$5*
1,1,$1+$1,$6,$7*
1,1,$1+$1,$8,$9*
0 Add four rect primitives between the rounded corners*
20,1,$1+$1,$2,$3,$4,$5,0*
20,1,$1+$1,$4,$5,$6,$7,0*
20,1,$1+$1,$6,$7,$8,$9,0*
20,1,$1+$1,$8,$9,$2,$3,0*%
G04 Aperture macros list end*
%ADD10RoundRect,0.250000X0.375000X0.625000X-0.375000X0.625000X-0.375000X-0.625000X0.375000X-0.625000X0*%
%ADD11C,1.600000*%
%ADD12C,1.700000*%
%ADD13R,1.700000X1.700000*%
%ADD14RoundRect,0.200000X0.200000X0.275000X-0.200000X0.275000X-0.200000X-0.275000X0.200000X-0.275000X0*%
%ADD15RoundRect,0.200000X-0.200000X-0.275000X0.200000X-0.275000X0.200000X0.275000X-0.200000X0.275000X0*%
%ADD16RoundRect,0.250000X0.550000X0.550000X-0.550000X0.550000X-0.550000X-0.550000X0.550000X-0.550000X0*%
%ADD17C,1.400000*%
%ADD18RoundRect,0.150000X-0.587500X-0.150000X0.587500X-0.150000X0.587500X0.150000X-0.587500X0.150000X0*%
%ADD19RoundRect,0.250000X-0.375000X-0.625000X0.375000X-0.625000X0.375000X0.625000X-0.375000X0.625000X0*%
%ADD20RoundRect,0.150000X0.587500X0.150000X-0.587500X0.150000X-0.587500X-0.150000X0.587500X-0.150000X0*%
G04 APERTURE END LIST*
D10*
%TO.C,D2*%
X153295000Y-74150000D03*
X150495000Y-74150000D03*
%TD*%
D11*
%TO.C,C2*%
X68025000Y-112885000D03*
X73025000Y-112885000D03*
%TD*%
D12*
%TO.C,J1*%
X137795000Y-153760000D03*
X135255000Y-153760000D03*
X132715000Y-153760000D03*
X130175000Y-153760000D03*
X127635000Y-153760000D03*
X125095000Y-153760000D03*
X122555000Y-153760000D03*
X120015000Y-153760000D03*
X117475000Y-153760000D03*
X114935000Y-153760000D03*
X112395000Y-153760000D03*
X109855000Y-153760000D03*
X107315000Y-153760000D03*
X104775000Y-153760000D03*
X102235000Y-153760000D03*
X99695000Y-153760000D03*
X97155000Y-153760000D03*
X94615000Y-153760000D03*
X92075000Y-153760000D03*
X89535000Y-153760000D03*
X89535000Y-151220000D03*
X92075000Y-151220000D03*
X94615000Y-151220000D03*
X97155000Y-151220000D03*
X99695000Y-151220000D03*
X102235000Y-151220000D03*
X104775000Y-151220000D03*
X107315000Y-151220000D03*
X109855000Y-151220000D03*
X112395000Y-151220000D03*
X114935000Y-151220000D03*
X117475000Y-151220000D03*
X120015000Y-151220000D03*
X122555000Y-151220000D03*
X125095000Y-151220000D03*
X127635000Y-151220000D03*
X130175000Y-151220000D03*
X132715000Y-151220000D03*
X135255000Y-151220000D03*
D13*
X137795000Y-151220000D03*
%TD*%
D14*
%TO.C,R4*%
X84835000Y-72245000D03*
X83185000Y-72245000D03*
%TD*%
D15*
%TO.C,R3*%
X83185000Y-74150000D03*
X84835000Y-74150000D03*
%TD*%
D16*
%TO.C,U3*%
X159385000Y-115425000D03*
D11*
X159385000Y-112885000D03*
X159385000Y-110345000D03*
X159385000Y-107805000D03*
X159385000Y-105265000D03*
X159385000Y-102725000D03*
X159385000Y-100185000D03*
X159385000Y-97645000D03*
X159385000Y-95105000D03*
X159385000Y-92565000D03*
X159385000Y-90025000D03*
X159385000Y-87485000D03*
X159385000Y-84945000D03*
X159385000Y-82405000D03*
X159385000Y-79865000D03*
X159385000Y-77325000D03*
X144145000Y-77325000D03*
X144145000Y-79865000D03*
X144145000Y-82405000D03*
X144145000Y-84945000D03*
X144145000Y-87485000D03*
X144145000Y-90025000D03*
X144145000Y-92565000D03*
X144145000Y-95105000D03*
X144145000Y-97645000D03*
X144145000Y-100185000D03*
X144145000Y-102725000D03*
X144145000Y-105265000D03*
X144145000Y-107805000D03*
X144145000Y-110345000D03*
X144145000Y-112885000D03*
X144145000Y-115425000D03*
%TD*%
D16*
%TO.C,U2*%
X75565000Y-134475000D03*
D11*
X75565000Y-131935000D03*
X75565000Y-129395000D03*
X75565000Y-126855000D03*
X75565000Y-124315000D03*
X75565000Y-121775000D03*
X75565000Y-119235000D03*
X67945000Y-119235000D03*
X67945000Y-121775000D03*
X67945000Y-124315000D03*
X67945000Y-126855000D03*
X67945000Y-129395000D03*
X67945000Y-131935000D03*
X67945000Y-134475000D03*
%TD*%
D17*
%TO.C,R1*%
X140970000Y-112885000D03*
X140970000Y-115425000D03*
%TD*%
D18*
%TO.C,Q2*%
X142875000Y-72880000D03*
X142875000Y-74780000D03*
X144750000Y-73830000D03*
%TD*%
D14*
%TO.C,R5*%
X140715000Y-72880000D03*
X139065000Y-72880000D03*
%TD*%
D16*
%TO.C,U1*%
X75565000Y-109075000D03*
D11*
X75565000Y-106535000D03*
X75565000Y-103995000D03*
X75565000Y-101455000D03*
X75565000Y-98915000D03*
X75565000Y-96375000D03*
X75565000Y-93835000D03*
X75565000Y-91295000D03*
X75565000Y-88755000D03*
X75565000Y-86215000D03*
X75565000Y-83675000D03*
X75565000Y-81135000D03*
X75565000Y-78595000D03*
X75565000Y-76055000D03*
X67945000Y-76055000D03*
X67945000Y-78595000D03*
X67945000Y-81135000D03*
X67945000Y-83675000D03*
X67945000Y-86215000D03*
X67945000Y-88755000D03*
X67945000Y-91295000D03*
X67945000Y-93835000D03*
X67945000Y-96375000D03*
X67945000Y-98915000D03*
X67945000Y-101455000D03*
X67945000Y-103995000D03*
X67945000Y-106535000D03*
X67945000Y-109075000D03*
%TD*%
%TO.C,C3*%
X67945000Y-138285000D03*
X72945000Y-138285000D03*
%TD*%
%TO.C,C1*%
X144145000Y-119235000D03*
X149145000Y-119235000D03*
%TD*%
D15*
%TO.C,R2*%
X75375000Y-72880000D03*
X77025000Y-72880000D03*
%TD*%
D19*
%TO.C,D1*%
X70485000Y-72880000D03*
X73285000Y-72880000D03*
%TD*%
D20*
%TO.C,Q1*%
X80947500Y-74132500D03*
X80947500Y-72232500D03*
X79072500Y-73182500D03*
%TD*%
D15*
%TO.C,R6*%
X139065000Y-74785000D03*
X140715000Y-74785000D03*
%TD*%
D14*
%TO.C,R7*%
X148590000Y-74150000D03*
X146940000Y-74150000D03*
%TD*%
M02*
