%TF.GenerationSoftware,KiCad,Pcbnew,9.0.2+dfsg-1*%
%TF.CreationDate,2026-09-02T22:03:45+02:00*%
%TF.ProjectId,memory-card,6d656d6f-7279-42d6-9361-72642e6b6963,rev?*%
%TF.SameCoordinates,Original*%
%TF.FileFunction,Legend,Top*%
%TF.FilePolarity,Positive*%
%FSLAX46Y46*%
G04 Gerber Fmt 4.6, Leading zero omitted, Abs format (unit mm)*
G04 Created by KiCad (PCBNEW 9.0.2+dfsg-1) date 2026-09-02 22:03:45*
%MOMM*%
%LPD*%
G01*
G04 APERTURE LIST*
%ADD10C,0.500000*%
%ADD11C,0.300000*%
%ADD12C,0.150000*%
%ADD13C,0.120000*%
%ADD14C,0.350000*%
G04 APERTURE END LIST*
D10*
X147772857Y-155381142D02*
X147630000Y-155524000D01*
X147630000Y-155524000D02*
X147201428Y-155666857D01*
X147201428Y-155666857D02*
X146915714Y-155666857D01*
X146915714Y-155666857D02*
X146487143Y-155524000D01*
X146487143Y-155524000D02*
X146201428Y-155238285D01*
X146201428Y-155238285D02*
X146058571Y-154952571D01*
X146058571Y-154952571D02*
X145915714Y-154381142D01*
X145915714Y-154381142D02*
X145915714Y-153952571D01*
X145915714Y-153952571D02*
X146058571Y-153381142D01*
X146058571Y-153381142D02*
X146201428Y-153095428D01*
X146201428Y-153095428D02*
X146487143Y-152809714D01*
X146487143Y-152809714D02*
X146915714Y-152666857D01*
X146915714Y-152666857D02*
X147201428Y-152666857D01*
X147201428Y-152666857D02*
X147630000Y-152809714D01*
X147630000Y-152809714D02*
X147772857Y-152952571D01*
X148915714Y-154809714D02*
X150344286Y-154809714D01*
X148630000Y-155666857D02*
X149630000Y-152666857D01*
X149630000Y-152666857D02*
X150630000Y-155666857D01*
X153344286Y-155666857D02*
X152344286Y-154238285D01*
X151630000Y-155666857D02*
X151630000Y-152666857D01*
X151630000Y-152666857D02*
X152772857Y-152666857D01*
X152772857Y-152666857D02*
X153058572Y-152809714D01*
X153058572Y-152809714D02*
X153201429Y-152952571D01*
X153201429Y-152952571D02*
X153344286Y-153238285D01*
X153344286Y-153238285D02*
X153344286Y-153666857D01*
X153344286Y-153666857D02*
X153201429Y-153952571D01*
X153201429Y-153952571D02*
X153058572Y-154095428D01*
X153058572Y-154095428D02*
X152772857Y-154238285D01*
X152772857Y-154238285D02*
X151630000Y-154238285D01*
X154630000Y-155666857D02*
X154630000Y-152666857D01*
X154630000Y-152666857D02*
X155344286Y-152666857D01*
X155344286Y-152666857D02*
X155772857Y-152809714D01*
X155772857Y-152809714D02*
X156058572Y-153095428D01*
X156058572Y-153095428D02*
X156201429Y-153381142D01*
X156201429Y-153381142D02*
X156344286Y-153952571D01*
X156344286Y-153952571D02*
X156344286Y-154381142D01*
X156344286Y-154381142D02*
X156201429Y-154952571D01*
X156201429Y-154952571D02*
X156058572Y-155238285D01*
X156058572Y-155238285D02*
X155772857Y-155524000D01*
X155772857Y-155524000D02*
X155344286Y-155666857D01*
X155344286Y-155666857D02*
X154630000Y-155666857D01*
D11*
X65469285Y-142238265D02*
X66421666Y-142238265D01*
X65278809Y-142809694D02*
X65945475Y-140809694D01*
X65945475Y-140809694D02*
X66612142Y-142809694D01*
X67278809Y-142809694D02*
X67278809Y-140809694D01*
X67278809Y-140809694D02*
X67754999Y-140809694D01*
X67754999Y-140809694D02*
X68040714Y-140904932D01*
X68040714Y-140904932D02*
X68231190Y-141095408D01*
X68231190Y-141095408D02*
X68326428Y-141285884D01*
X68326428Y-141285884D02*
X68421666Y-141666836D01*
X68421666Y-141666836D02*
X68421666Y-141952551D01*
X68421666Y-141952551D02*
X68326428Y-142333503D01*
X68326428Y-142333503D02*
X68231190Y-142523979D01*
X68231190Y-142523979D02*
X68040714Y-142714456D01*
X68040714Y-142714456D02*
X67754999Y-142809694D01*
X67754999Y-142809694D02*
X67278809Y-142809694D01*
X69278809Y-142809694D02*
X69278809Y-140809694D01*
X69278809Y-140809694D02*
X69754999Y-140809694D01*
X69754999Y-140809694D02*
X70040714Y-140904932D01*
X70040714Y-140904932D02*
X70231190Y-141095408D01*
X70231190Y-141095408D02*
X70326428Y-141285884D01*
X70326428Y-141285884D02*
X70421666Y-141666836D01*
X70421666Y-141666836D02*
X70421666Y-141952551D01*
X70421666Y-141952551D02*
X70326428Y-142333503D01*
X70326428Y-142333503D02*
X70231190Y-142523979D01*
X70231190Y-142523979D02*
X70040714Y-142714456D01*
X70040714Y-142714456D02*
X69754999Y-142809694D01*
X69754999Y-142809694D02*
X69278809Y-142809694D01*
X72421666Y-142809694D02*
X71754999Y-141857313D01*
X71278809Y-142809694D02*
X71278809Y-140809694D01*
X71278809Y-140809694D02*
X72040714Y-140809694D01*
X72040714Y-140809694D02*
X72231190Y-140904932D01*
X72231190Y-140904932D02*
X72326428Y-141000170D01*
X72326428Y-141000170D02*
X72421666Y-141190646D01*
X72421666Y-141190646D02*
X72421666Y-141476360D01*
X72421666Y-141476360D02*
X72326428Y-141666836D01*
X72326428Y-141666836D02*
X72231190Y-141762075D01*
X72231190Y-141762075D02*
X72040714Y-141857313D01*
X72040714Y-141857313D02*
X71278809Y-141857313D01*
X73278809Y-141762075D02*
X73945476Y-141762075D01*
X74231190Y-142809694D02*
X73278809Y-142809694D01*
X73278809Y-142809694D02*
X73278809Y-140809694D01*
X73278809Y-140809694D02*
X74231190Y-140809694D01*
X74993095Y-142714456D02*
X75278809Y-142809694D01*
X75278809Y-142809694D02*
X75755000Y-142809694D01*
X75755000Y-142809694D02*
X75945476Y-142714456D01*
X75945476Y-142714456D02*
X76040714Y-142619217D01*
X76040714Y-142619217D02*
X76135952Y-142428741D01*
X76135952Y-142428741D02*
X76135952Y-142238265D01*
X76135952Y-142238265D02*
X76040714Y-142047789D01*
X76040714Y-142047789D02*
X75945476Y-141952551D01*
X75945476Y-141952551D02*
X75755000Y-141857313D01*
X75755000Y-141857313D02*
X75374047Y-141762075D01*
X75374047Y-141762075D02*
X75183571Y-141666836D01*
X75183571Y-141666836D02*
X75088333Y-141571598D01*
X75088333Y-141571598D02*
X74993095Y-141381122D01*
X74993095Y-141381122D02*
X74993095Y-141190646D01*
X74993095Y-141190646D02*
X75088333Y-141000170D01*
X75088333Y-141000170D02*
X75183571Y-140904932D01*
X75183571Y-140904932D02*
X75374047Y-140809694D01*
X75374047Y-140809694D02*
X75850238Y-140809694D01*
X75850238Y-140809694D02*
X76135952Y-140904932D01*
X76897857Y-142714456D02*
X77183571Y-142809694D01*
X77183571Y-142809694D02*
X77659762Y-142809694D01*
X77659762Y-142809694D02*
X77850238Y-142714456D01*
X77850238Y-142714456D02*
X77945476Y-142619217D01*
X77945476Y-142619217D02*
X78040714Y-142428741D01*
X78040714Y-142428741D02*
X78040714Y-142238265D01*
X78040714Y-142238265D02*
X77945476Y-142047789D01*
X77945476Y-142047789D02*
X77850238Y-141952551D01*
X77850238Y-141952551D02*
X77659762Y-141857313D01*
X77659762Y-141857313D02*
X77278809Y-141762075D01*
X77278809Y-141762075D02*
X77088333Y-141666836D01*
X77088333Y-141666836D02*
X76993095Y-141571598D01*
X76993095Y-141571598D02*
X76897857Y-141381122D01*
X76897857Y-141381122D02*
X76897857Y-141190646D01*
X76897857Y-141190646D02*
X76993095Y-141000170D01*
X76993095Y-141000170D02*
X77088333Y-140904932D01*
X77088333Y-140904932D02*
X77278809Y-140809694D01*
X77278809Y-140809694D02*
X77755000Y-140809694D01*
X77755000Y-140809694D02*
X78040714Y-140904932D01*
X65374047Y-146029582D02*
X65374047Y-144029582D01*
X65374047Y-144029582D02*
X65850237Y-144029582D01*
X65850237Y-144029582D02*
X66135952Y-144124820D01*
X66135952Y-144124820D02*
X66326428Y-144315296D01*
X66326428Y-144315296D02*
X66421666Y-144505772D01*
X66421666Y-144505772D02*
X66516904Y-144886724D01*
X66516904Y-144886724D02*
X66516904Y-145172439D01*
X66516904Y-145172439D02*
X66421666Y-145553391D01*
X66421666Y-145553391D02*
X66326428Y-145743867D01*
X66326428Y-145743867D02*
X66135952Y-145934344D01*
X66135952Y-145934344D02*
X65850237Y-146029582D01*
X65850237Y-146029582D02*
X65374047Y-146029582D01*
X67374047Y-144981963D02*
X68040714Y-144981963D01*
X68326428Y-146029582D02*
X67374047Y-146029582D01*
X67374047Y-146029582D02*
X67374047Y-144029582D01*
X67374047Y-144029582D02*
X68326428Y-144029582D01*
X70326428Y-145839105D02*
X70231190Y-145934344D01*
X70231190Y-145934344D02*
X69945476Y-146029582D01*
X69945476Y-146029582D02*
X69755000Y-146029582D01*
X69755000Y-146029582D02*
X69469285Y-145934344D01*
X69469285Y-145934344D02*
X69278809Y-145743867D01*
X69278809Y-145743867D02*
X69183571Y-145553391D01*
X69183571Y-145553391D02*
X69088333Y-145172439D01*
X69088333Y-145172439D02*
X69088333Y-144886724D01*
X69088333Y-144886724D02*
X69183571Y-144505772D01*
X69183571Y-144505772D02*
X69278809Y-144315296D01*
X69278809Y-144315296D02*
X69469285Y-144124820D01*
X69469285Y-144124820D02*
X69755000Y-144029582D01*
X69755000Y-144029582D02*
X69945476Y-144029582D01*
X69945476Y-144029582D02*
X70231190Y-144124820D01*
X70231190Y-144124820D02*
X70326428Y-144220058D01*
X71564523Y-144029582D02*
X71945476Y-144029582D01*
X71945476Y-144029582D02*
X72135952Y-144124820D01*
X72135952Y-144124820D02*
X72326428Y-144315296D01*
X72326428Y-144315296D02*
X72421666Y-144696248D01*
X72421666Y-144696248D02*
X72421666Y-145362915D01*
X72421666Y-145362915D02*
X72326428Y-145743867D01*
X72326428Y-145743867D02*
X72135952Y-145934344D01*
X72135952Y-145934344D02*
X71945476Y-146029582D01*
X71945476Y-146029582D02*
X71564523Y-146029582D01*
X71564523Y-146029582D02*
X71374047Y-145934344D01*
X71374047Y-145934344D02*
X71183571Y-145743867D01*
X71183571Y-145743867D02*
X71088333Y-145362915D01*
X71088333Y-145362915D02*
X71088333Y-144696248D01*
X71088333Y-144696248D02*
X71183571Y-144315296D01*
X71183571Y-144315296D02*
X71374047Y-144124820D01*
X71374047Y-144124820D02*
X71564523Y-144029582D01*
X73278809Y-146029582D02*
X73278809Y-144029582D01*
X73278809Y-144029582D02*
X73754999Y-144029582D01*
X73754999Y-144029582D02*
X74040714Y-144124820D01*
X74040714Y-144124820D02*
X74231190Y-144315296D01*
X74231190Y-144315296D02*
X74326428Y-144505772D01*
X74326428Y-144505772D02*
X74421666Y-144886724D01*
X74421666Y-144886724D02*
X74421666Y-145172439D01*
X74421666Y-145172439D02*
X74326428Y-145553391D01*
X74326428Y-145553391D02*
X74231190Y-145743867D01*
X74231190Y-145743867D02*
X74040714Y-145934344D01*
X74040714Y-145934344D02*
X73754999Y-146029582D01*
X73754999Y-146029582D02*
X73278809Y-146029582D01*
X75278809Y-144981963D02*
X75945476Y-144981963D01*
X76231190Y-146029582D02*
X75278809Y-146029582D01*
X75278809Y-146029582D02*
X75278809Y-144029582D01*
X75278809Y-144029582D02*
X76231190Y-144029582D01*
X78231190Y-146029582D02*
X77564523Y-145077201D01*
X77088333Y-146029582D02*
X77088333Y-144029582D01*
X77088333Y-144029582D02*
X77850238Y-144029582D01*
X77850238Y-144029582D02*
X78040714Y-144124820D01*
X78040714Y-144124820D02*
X78135952Y-144220058D01*
X78135952Y-144220058D02*
X78231190Y-144410534D01*
X78231190Y-144410534D02*
X78231190Y-144696248D01*
X78231190Y-144696248D02*
X78135952Y-144886724D01*
X78135952Y-144886724D02*
X78040714Y-144981963D01*
X78040714Y-144981963D02*
X77850238Y-145077201D01*
X77850238Y-145077201D02*
X77088333Y-145077201D01*
D10*
X69683571Y-70431857D02*
X68683571Y-69003285D01*
X67969285Y-70431857D02*
X67969285Y-67431857D01*
X67969285Y-67431857D02*
X69112142Y-67431857D01*
X69112142Y-67431857D02*
X69397857Y-67574714D01*
X69397857Y-67574714D02*
X69540714Y-67717571D01*
X69540714Y-67717571D02*
X69683571Y-68003285D01*
X69683571Y-68003285D02*
X69683571Y-68431857D01*
X69683571Y-68431857D02*
X69540714Y-68717571D01*
X69540714Y-68717571D02*
X69397857Y-68860428D01*
X69397857Y-68860428D02*
X69112142Y-69003285D01*
X69112142Y-69003285D02*
X67969285Y-69003285D01*
X70826428Y-69574714D02*
X72255000Y-69574714D01*
X70540714Y-70431857D02*
X71540714Y-67431857D01*
X71540714Y-67431857D02*
X72540714Y-70431857D01*
X73540714Y-70431857D02*
X73540714Y-67431857D01*
X73540714Y-67431857D02*
X74540714Y-69574714D01*
X74540714Y-69574714D02*
X75540714Y-67431857D01*
X75540714Y-67431857D02*
X75540714Y-70431857D01*
X67136428Y-155666857D02*
X67136428Y-152666857D01*
X67136428Y-152666857D02*
X68136428Y-154809714D01*
X68136428Y-154809714D02*
X69136428Y-152666857D01*
X69136428Y-152666857D02*
X69136428Y-155666857D01*
X70564999Y-154095428D02*
X71564999Y-154095428D01*
X71993571Y-155666857D02*
X70564999Y-155666857D01*
X70564999Y-155666857D02*
X70564999Y-152666857D01*
X70564999Y-152666857D02*
X71993571Y-152666857D01*
X73279285Y-155666857D02*
X73279285Y-152666857D01*
X73279285Y-152666857D02*
X74279285Y-154809714D01*
X74279285Y-154809714D02*
X75279285Y-152666857D01*
X75279285Y-152666857D02*
X75279285Y-155666857D01*
X77279285Y-152666857D02*
X77850713Y-152666857D01*
X77850713Y-152666857D02*
X78136428Y-152809714D01*
X78136428Y-152809714D02*
X78422142Y-153095428D01*
X78422142Y-153095428D02*
X78564999Y-153666857D01*
X78564999Y-153666857D02*
X78564999Y-154666857D01*
X78564999Y-154666857D02*
X78422142Y-155238285D01*
X78422142Y-155238285D02*
X78136428Y-155524000D01*
X78136428Y-155524000D02*
X77850713Y-155666857D01*
X77850713Y-155666857D02*
X77279285Y-155666857D01*
X77279285Y-155666857D02*
X76993571Y-155524000D01*
X76993571Y-155524000D02*
X76707856Y-155238285D01*
X76707856Y-155238285D02*
X76564999Y-154666857D01*
X76564999Y-154666857D02*
X76564999Y-153666857D01*
X76564999Y-153666857D02*
X76707856Y-153095428D01*
X76707856Y-153095428D02*
X76993571Y-152809714D01*
X76993571Y-152809714D02*
X77279285Y-152666857D01*
X81564999Y-155666857D02*
X80564999Y-154238285D01*
X79850713Y-155666857D02*
X79850713Y-152666857D01*
X79850713Y-152666857D02*
X80993570Y-152666857D01*
X80993570Y-152666857D02*
X81279285Y-152809714D01*
X81279285Y-152809714D02*
X81422142Y-152952571D01*
X81422142Y-152952571D02*
X81564999Y-153238285D01*
X81564999Y-153238285D02*
X81564999Y-153666857D01*
X81564999Y-153666857D02*
X81422142Y-153952571D01*
X81422142Y-153952571D02*
X81279285Y-154095428D01*
X81279285Y-154095428D02*
X80993570Y-154238285D01*
X80993570Y-154238285D02*
X79850713Y-154238285D01*
X83422142Y-154238285D02*
X83422142Y-155666857D01*
X82422142Y-152666857D02*
X83422142Y-154238285D01*
X83422142Y-154238285D02*
X84422142Y-152666857D01*
X149407857Y-71701857D02*
X148407857Y-70273285D01*
X147693571Y-71701857D02*
X147693571Y-68701857D01*
X147693571Y-68701857D02*
X148836428Y-68701857D01*
X148836428Y-68701857D02*
X149122143Y-68844714D01*
X149122143Y-68844714D02*
X149265000Y-68987571D01*
X149265000Y-68987571D02*
X149407857Y-69273285D01*
X149407857Y-69273285D02*
X149407857Y-69701857D01*
X149407857Y-69701857D02*
X149265000Y-69987571D01*
X149265000Y-69987571D02*
X149122143Y-70130428D01*
X149122143Y-70130428D02*
X148836428Y-70273285D01*
X148836428Y-70273285D02*
X147693571Y-70273285D01*
X151265000Y-68701857D02*
X151836428Y-68701857D01*
X151836428Y-68701857D02*
X152122143Y-68844714D01*
X152122143Y-68844714D02*
X152407857Y-69130428D01*
X152407857Y-69130428D02*
X152550714Y-69701857D01*
X152550714Y-69701857D02*
X152550714Y-70701857D01*
X152550714Y-70701857D02*
X152407857Y-71273285D01*
X152407857Y-71273285D02*
X152122143Y-71559000D01*
X152122143Y-71559000D02*
X151836428Y-71701857D01*
X151836428Y-71701857D02*
X151265000Y-71701857D01*
X151265000Y-71701857D02*
X150979286Y-71559000D01*
X150979286Y-71559000D02*
X150693571Y-71273285D01*
X150693571Y-71273285D02*
X150550714Y-70701857D01*
X150550714Y-70701857D02*
X150550714Y-69701857D01*
X150550714Y-69701857D02*
X150693571Y-69130428D01*
X150693571Y-69130428D02*
X150979286Y-68844714D01*
X150979286Y-68844714D02*
X151265000Y-68701857D01*
X153836428Y-71701857D02*
X153836428Y-68701857D01*
X153836428Y-68701857D02*
X154836428Y-70844714D01*
X154836428Y-70844714D02*
X155836428Y-68701857D01*
X155836428Y-68701857D02*
X155836428Y-71701857D01*
D12*
X70318333Y-115784580D02*
X70270714Y-115832200D01*
X70270714Y-115832200D02*
X70127857Y-115879819D01*
X70127857Y-115879819D02*
X70032619Y-115879819D01*
X70032619Y-115879819D02*
X69889762Y-115832200D01*
X69889762Y-115832200D02*
X69794524Y-115736961D01*
X69794524Y-115736961D02*
X69746905Y-115641723D01*
X69746905Y-115641723D02*
X69699286Y-115451247D01*
X69699286Y-115451247D02*
X69699286Y-115308390D01*
X69699286Y-115308390D02*
X69746905Y-115117914D01*
X69746905Y-115117914D02*
X69794524Y-115022676D01*
X69794524Y-115022676D02*
X69889762Y-114927438D01*
X69889762Y-114927438D02*
X70032619Y-114879819D01*
X70032619Y-114879819D02*
X70127857Y-114879819D01*
X70127857Y-114879819D02*
X70270714Y-114927438D01*
X70270714Y-114927438D02*
X70318333Y-114975057D01*
X70699286Y-114975057D02*
X70746905Y-114927438D01*
X70746905Y-114927438D02*
X70842143Y-114879819D01*
X70842143Y-114879819D02*
X71080238Y-114879819D01*
X71080238Y-114879819D02*
X71175476Y-114927438D01*
X71175476Y-114927438D02*
X71223095Y-114975057D01*
X71223095Y-114975057D02*
X71270714Y-115070295D01*
X71270714Y-115070295D02*
X71270714Y-115165533D01*
X71270714Y-115165533D02*
X71223095Y-115308390D01*
X71223095Y-115308390D02*
X70651667Y-115879819D01*
X70651667Y-115879819D02*
X71270714Y-115879819D01*
X139519819Y-157208333D02*
X140234104Y-157208333D01*
X140234104Y-157208333D02*
X140376961Y-157255952D01*
X140376961Y-157255952D02*
X140472200Y-157351190D01*
X140472200Y-157351190D02*
X140519819Y-157494047D01*
X140519819Y-157494047D02*
X140519819Y-157589285D01*
X140519819Y-156208333D02*
X140519819Y-156779761D01*
X140519819Y-156494047D02*
X139519819Y-156494047D01*
X139519819Y-156494047D02*
X139662676Y-156589285D01*
X139662676Y-156589285D02*
X139757914Y-156684523D01*
X139757914Y-156684523D02*
X139805533Y-156779761D01*
X151003095Y-117209819D02*
X151003095Y-118019342D01*
X151003095Y-118019342D02*
X151050714Y-118114580D01*
X151050714Y-118114580D02*
X151098333Y-118162200D01*
X151098333Y-118162200D02*
X151193571Y-118209819D01*
X151193571Y-118209819D02*
X151384047Y-118209819D01*
X151384047Y-118209819D02*
X151479285Y-118162200D01*
X151479285Y-118162200D02*
X151526904Y-118114580D01*
X151526904Y-118114580D02*
X151574523Y-118019342D01*
X151574523Y-118019342D02*
X151574523Y-117209819D01*
X151955476Y-117209819D02*
X152574523Y-117209819D01*
X152574523Y-117209819D02*
X152241190Y-117590771D01*
X152241190Y-117590771D02*
X152384047Y-117590771D01*
X152384047Y-117590771D02*
X152479285Y-117638390D01*
X152479285Y-117638390D02*
X152526904Y-117686009D01*
X152526904Y-117686009D02*
X152574523Y-117781247D01*
X152574523Y-117781247D02*
X152574523Y-118019342D01*
X152574523Y-118019342D02*
X152526904Y-118114580D01*
X152526904Y-118114580D02*
X152479285Y-118162200D01*
X152479285Y-118162200D02*
X152384047Y-118209819D01*
X152384047Y-118209819D02*
X152098333Y-118209819D01*
X152098333Y-118209819D02*
X152003095Y-118162200D01*
X152003095Y-118162200D02*
X151955476Y-118114580D01*
X74803095Y-137109819D02*
X74803095Y-137919342D01*
X74803095Y-137919342D02*
X74850714Y-138014580D01*
X74850714Y-138014580D02*
X74898333Y-138062200D01*
X74898333Y-138062200D02*
X74993571Y-138109819D01*
X74993571Y-138109819D02*
X75184047Y-138109819D01*
X75184047Y-138109819D02*
X75279285Y-138062200D01*
X75279285Y-138062200D02*
X75326904Y-138014580D01*
X75326904Y-138014580D02*
X75374523Y-137919342D01*
X75374523Y-137919342D02*
X75374523Y-137109819D01*
X75803095Y-137205057D02*
X75850714Y-137157438D01*
X75850714Y-137157438D02*
X75945952Y-137109819D01*
X75945952Y-137109819D02*
X76184047Y-137109819D01*
X76184047Y-137109819D02*
X76279285Y-137157438D01*
X76279285Y-137157438D02*
X76326904Y-137205057D01*
X76326904Y-137205057D02*
X76374523Y-137300295D01*
X76374523Y-137300295D02*
X76374523Y-137395533D01*
X76374523Y-137395533D02*
X76326904Y-137538390D01*
X76326904Y-137538390D02*
X75755476Y-138109819D01*
X75755476Y-138109819D02*
X76374523Y-138109819D01*
X139519819Y-114281666D02*
X139043628Y-114614999D01*
X139519819Y-114853094D02*
X138519819Y-114853094D01*
X138519819Y-114853094D02*
X138519819Y-114472142D01*
X138519819Y-114472142D02*
X138567438Y-114376904D01*
X138567438Y-114376904D02*
X138615057Y-114329285D01*
X138615057Y-114329285D02*
X138710295Y-114281666D01*
X138710295Y-114281666D02*
X138853152Y-114281666D01*
X138853152Y-114281666D02*
X138948390Y-114329285D01*
X138948390Y-114329285D02*
X138996009Y-114376904D01*
X138996009Y-114376904D02*
X139043628Y-114472142D01*
X139043628Y-114472142D02*
X139043628Y-114853094D01*
X139519819Y-113329285D02*
X139519819Y-113900713D01*
X139519819Y-113614999D02*
X138519819Y-113614999D01*
X138519819Y-113614999D02*
X138662676Y-113710237D01*
X138662676Y-113710237D02*
X138757914Y-113805475D01*
X138757914Y-113805475D02*
X138805533Y-113900713D01*
X74803095Y-111704819D02*
X74803095Y-112514342D01*
X74803095Y-112514342D02*
X74850714Y-112609580D01*
X74850714Y-112609580D02*
X74898333Y-112657200D01*
X74898333Y-112657200D02*
X74993571Y-112704819D01*
X74993571Y-112704819D02*
X75184047Y-112704819D01*
X75184047Y-112704819D02*
X75279285Y-112657200D01*
X75279285Y-112657200D02*
X75326904Y-112609580D01*
X75326904Y-112609580D02*
X75374523Y-112514342D01*
X75374523Y-112514342D02*
X75374523Y-111704819D01*
X76374523Y-112704819D02*
X75803095Y-112704819D01*
X76088809Y-112704819D02*
X76088809Y-111704819D01*
X76088809Y-111704819D02*
X75993571Y-111847676D01*
X75993571Y-111847676D02*
X75898333Y-111942914D01*
X75898333Y-111942914D02*
X75803095Y-111990533D01*
X65158333Y-138639580D02*
X65110714Y-138687200D01*
X65110714Y-138687200D02*
X64967857Y-138734819D01*
X64967857Y-138734819D02*
X64872619Y-138734819D01*
X64872619Y-138734819D02*
X64729762Y-138687200D01*
X64729762Y-138687200D02*
X64634524Y-138591961D01*
X64634524Y-138591961D02*
X64586905Y-138496723D01*
X64586905Y-138496723D02*
X64539286Y-138306247D01*
X64539286Y-138306247D02*
X64539286Y-138163390D01*
X64539286Y-138163390D02*
X64586905Y-137972914D01*
X64586905Y-137972914D02*
X64634524Y-137877676D01*
X64634524Y-137877676D02*
X64729762Y-137782438D01*
X64729762Y-137782438D02*
X64872619Y-137734819D01*
X64872619Y-137734819D02*
X64967857Y-137734819D01*
X64967857Y-137734819D02*
X65110714Y-137782438D01*
X65110714Y-137782438D02*
X65158333Y-137830057D01*
X65491667Y-137734819D02*
X66110714Y-137734819D01*
X66110714Y-137734819D02*
X65777381Y-138115771D01*
X65777381Y-138115771D02*
X65920238Y-138115771D01*
X65920238Y-138115771D02*
X66015476Y-138163390D01*
X66015476Y-138163390D02*
X66063095Y-138211009D01*
X66063095Y-138211009D02*
X66110714Y-138306247D01*
X66110714Y-138306247D02*
X66110714Y-138544342D01*
X66110714Y-138544342D02*
X66063095Y-138639580D01*
X66063095Y-138639580D02*
X66015476Y-138687200D01*
X66015476Y-138687200D02*
X65920238Y-138734819D01*
X65920238Y-138734819D02*
X65634524Y-138734819D01*
X65634524Y-138734819D02*
X65539286Y-138687200D01*
X65539286Y-138687200D02*
X65491667Y-138639580D01*
X146478333Y-122134580D02*
X146430714Y-122182200D01*
X146430714Y-122182200D02*
X146287857Y-122229819D01*
X146287857Y-122229819D02*
X146192619Y-122229819D01*
X146192619Y-122229819D02*
X146049762Y-122182200D01*
X146049762Y-122182200D02*
X145954524Y-122086961D01*
X145954524Y-122086961D02*
X145906905Y-121991723D01*
X145906905Y-121991723D02*
X145859286Y-121801247D01*
X145859286Y-121801247D02*
X145859286Y-121658390D01*
X145859286Y-121658390D02*
X145906905Y-121467914D01*
X145906905Y-121467914D02*
X145954524Y-121372676D01*
X145954524Y-121372676D02*
X146049762Y-121277438D01*
X146049762Y-121277438D02*
X146192619Y-121229819D01*
X146192619Y-121229819D02*
X146287857Y-121229819D01*
X146287857Y-121229819D02*
X146430714Y-121277438D01*
X146430714Y-121277438D02*
X146478333Y-121325057D01*
X147430714Y-122229819D02*
X146859286Y-122229819D01*
X147145000Y-122229819D02*
X147145000Y-121229819D01*
X147145000Y-121229819D02*
X147049762Y-121372676D01*
X147049762Y-121372676D02*
X146954524Y-121467914D01*
X146954524Y-121467914D02*
X146859286Y-121515533D01*
D13*
%TO.C,D2*%
X150295000Y-75285000D02*
X154180000Y-75285000D01*
X154180000Y-73015000D02*
X150295000Y-73015000D01*
X154180000Y-75285000D02*
X154180000Y-73015000D01*
%TO.C,C2*%
X67905000Y-111515000D02*
X67905000Y-111852000D01*
X67905000Y-111515000D02*
X73145000Y-111515000D01*
X67905000Y-113918000D02*
X67905000Y-114255000D01*
X67905000Y-114255000D02*
X73145000Y-114255000D01*
X73145000Y-111515000D02*
X73145000Y-111852000D01*
X73145000Y-113918000D02*
X73145000Y-114255000D01*
%TO.C,R4*%
X84247258Y-71722500D02*
X83772742Y-71722500D01*
X84247258Y-72767500D02*
X83772742Y-72767500D01*
%TO.C,R3*%
X83772742Y-73627500D02*
X84247258Y-73627500D01*
X83772742Y-74672500D02*
X84247258Y-74672500D01*
%TO.C,U3*%
X145305000Y-75995000D02*
X145305000Y-116755000D01*
X145305000Y-116755000D02*
X150765000Y-116755000D01*
X152765000Y-116755000D02*
X158225000Y-116755000D01*
X158225000Y-75995000D02*
X145305000Y-75995000D01*
X158225000Y-116755000D02*
X158225000Y-75995000D01*
X160715000Y-116815000D02*
X142815000Y-116815000D01*
X142815000Y-75935000D01*
X160715000Y-75935000D01*
X160715000Y-116815000D01*
X150765000Y-116755000D02*
G75*
G02*
X152765000Y-116755000I1000000J0D01*
G01*
%TO.C,U2*%
X69105000Y-117905000D02*
X69105000Y-135805000D01*
X69105000Y-135805000D02*
X70755000Y-135805000D01*
X72755000Y-135805000D02*
X74405000Y-135805000D01*
X74405000Y-117905000D02*
X69105000Y-117905000D01*
X74405000Y-135805000D02*
X74405000Y-117905000D01*
X76895000Y-135865000D02*
X66615000Y-135865000D01*
X66615000Y-117845000D01*
X76895000Y-117845000D01*
X76895000Y-135865000D01*
X70755000Y-135805000D02*
G75*
G02*
X72755000Y-135805000I1000000J0D01*
G01*
%TO.C,R1*%
X140970000Y-113805000D02*
X140970000Y-114425000D01*
X141890000Y-112885000D02*
G75*
G02*
X140050000Y-112885000I-920000J0D01*
G01*
X140050000Y-112885000D02*
G75*
G02*
X141890000Y-112885000I920000J0D01*
G01*
%TO.C,Q2*%
X143812500Y-72270000D02*
X143162500Y-72270000D01*
X143812500Y-72270000D02*
X144462500Y-72270000D01*
X143812500Y-75390000D02*
X143162500Y-75390000D01*
X143812500Y-75390000D02*
X144462500Y-75390000D01*
X142650000Y-72320000D02*
X142410000Y-71990000D01*
X142890000Y-71990000D01*
X142650000Y-72320000D01*
G36*
X142650000Y-72320000D02*
G01*
X142410000Y-71990000D01*
X142890000Y-71990000D01*
X142650000Y-72320000D01*
G37*
%TO.C,R5*%
X140127258Y-72357500D02*
X139652742Y-72357500D01*
X140127258Y-73402500D02*
X139652742Y-73402500D01*
%TO.C,U1*%
X69105000Y-74725000D02*
X69105000Y-110405000D01*
X69105000Y-110405000D02*
X70755000Y-110405000D01*
X72755000Y-110405000D02*
X74405000Y-110405000D01*
X74405000Y-74725000D02*
X69105000Y-74725000D01*
X74405000Y-110405000D02*
X74405000Y-74725000D01*
X76895000Y-110465000D02*
X66615000Y-110465000D01*
X66615000Y-74665000D01*
X76895000Y-74665000D01*
X76895000Y-110465000D01*
X70755000Y-110405000D02*
G75*
G02*
X72755000Y-110405000I1000000J0D01*
G01*
%TO.C,C3*%
X67825000Y-136915000D02*
X67825000Y-137252000D01*
X67825000Y-136915000D02*
X73065000Y-136915000D01*
X67825000Y-139318000D02*
X67825000Y-139655000D01*
X67825000Y-139655000D02*
X73065000Y-139655000D01*
X73065000Y-136915000D02*
X73065000Y-137252000D01*
X73065000Y-139318000D02*
X73065000Y-139655000D01*
%TO.C,C1*%
X144025000Y-117865000D02*
X144025000Y-118202000D01*
X144025000Y-117865000D02*
X149265000Y-117865000D01*
X144025000Y-120268000D02*
X144025000Y-120605000D01*
X144025000Y-120605000D02*
X149265000Y-120605000D01*
X149265000Y-117865000D02*
X149265000Y-118202000D01*
X149265000Y-120268000D02*
X149265000Y-120605000D01*
%TO.C,R2*%
X75962742Y-72357500D02*
X76437258Y-72357500D01*
X75962742Y-73402500D02*
X76437258Y-73402500D01*
%TO.C,D1*%
X69600000Y-71745000D02*
X69600000Y-74015000D01*
X69600000Y-74015000D02*
X73485000Y-74015000D01*
X73485000Y-71745000D02*
X69600000Y-71745000D01*
%TO.C,Q1*%
X80010000Y-71622500D02*
X79360000Y-71622500D01*
X80010000Y-71622500D02*
X80660000Y-71622500D01*
X80010000Y-74742500D02*
X79360000Y-74742500D01*
X80010000Y-74742500D02*
X80660000Y-74742500D01*
X81412500Y-75022500D02*
X80932500Y-75022500D01*
X81172500Y-74692500D01*
X81412500Y-75022500D01*
G36*
X81412500Y-75022500D02*
G01*
X80932500Y-75022500D01*
X81172500Y-74692500D01*
X81412500Y-75022500D01*
G37*
%TO.C,R6*%
X139652742Y-74262500D02*
X140127258Y-74262500D01*
X139652742Y-75307500D02*
X140127258Y-75307500D01*
%TO.C,R7*%
X148002258Y-73627500D02*
X147527742Y-73627500D01*
X148002258Y-74672500D02*
X147527742Y-74672500D01*
%TD*%
D14*
X68025000Y-112885000D03*
X73025000Y-112885000D03*
X137795000Y-153760000D03*
X135255000Y-153760000D03*
X132715000Y-153760000D03*
X130175000Y-153760000D03*
X127635000Y-153760000D03*
X125095000Y-153760000D03*
X122555000Y-153760000D03*
X120015000Y-153760000D03*
X117475000Y-153760000D03*
X114935000Y-153760000D03*
X112395000Y-153760000D03*
X109855000Y-153760000D03*
X107315000Y-153760000D03*
X104775000Y-153760000D03*
X102235000Y-153760000D03*
X99695000Y-153760000D03*
X97155000Y-153760000D03*
X94615000Y-153760000D03*
X92075000Y-153760000D03*
X89535000Y-153760000D03*
X89535000Y-151220000D03*
X92075000Y-151220000D03*
X94615000Y-151220000D03*
X97155000Y-151220000D03*
X99695000Y-151220000D03*
X102235000Y-151220000D03*
X104775000Y-151220000D03*
X107315000Y-151220000D03*
X109855000Y-151220000D03*
X112395000Y-151220000D03*
X114935000Y-151220000D03*
X117475000Y-151220000D03*
X120015000Y-151220000D03*
X122555000Y-151220000D03*
X125095000Y-151220000D03*
X127635000Y-151220000D03*
X130175000Y-151220000D03*
X132715000Y-151220000D03*
X135255000Y-151220000D03*
X137795000Y-151220000D03*
X159385000Y-115425000D03*
X159385000Y-112885000D03*
X159385000Y-110345000D03*
X159385000Y-107805000D03*
X159385000Y-105265000D03*
X159385000Y-102725000D03*
X159385000Y-100185000D03*
X159385000Y-97645000D03*
X159385000Y-95105000D03*
X159385000Y-92565000D03*
X159385000Y-90025000D03*
X159385000Y-87485000D03*
X159385000Y-84945000D03*
X159385000Y-82405000D03*
X159385000Y-79865000D03*
X159385000Y-77325000D03*
X144145000Y-77325000D03*
X144145000Y-79865000D03*
X144145000Y-82405000D03*
X144145000Y-84945000D03*
X144145000Y-87485000D03*
X144145000Y-90025000D03*
X144145000Y-92565000D03*
X144145000Y-95105000D03*
X144145000Y-97645000D03*
X144145000Y-100185000D03*
X144145000Y-102725000D03*
X144145000Y-105265000D03*
X144145000Y-107805000D03*
X144145000Y-110345000D03*
X144145000Y-112885000D03*
X144145000Y-115425000D03*
X75565000Y-134475000D03*
X75565000Y-131935000D03*
X75565000Y-129395000D03*
X75565000Y-126855000D03*
X75565000Y-124315000D03*
X75565000Y-121775000D03*
X75565000Y-119235000D03*
X67945000Y-119235000D03*
X67945000Y-121775000D03*
X67945000Y-124315000D03*
X67945000Y-126855000D03*
X67945000Y-129395000D03*
X67945000Y-131935000D03*
X67945000Y-134475000D03*
X140970000Y-112885000D03*
X140970000Y-115425000D03*
X75565000Y-109075000D03*
X75565000Y-106535000D03*
X75565000Y-103995000D03*
X75565000Y-101455000D03*
X75565000Y-98915000D03*
X75565000Y-96375000D03*
X75565000Y-93835000D03*
X75565000Y-91295000D03*
X75565000Y-88755000D03*
X75565000Y-86215000D03*
X75565000Y-83675000D03*
X75565000Y-81135000D03*
X75565000Y-78595000D03*
X75565000Y-76055000D03*
X67945000Y-76055000D03*
X67945000Y-78595000D03*
X67945000Y-81135000D03*
X67945000Y-83675000D03*
X67945000Y-86215000D03*
X67945000Y-88755000D03*
X67945000Y-91295000D03*
X67945000Y-93835000D03*
X67945000Y-96375000D03*
X67945000Y-98915000D03*
X67945000Y-101455000D03*
X67945000Y-103995000D03*
X67945000Y-106535000D03*
X67945000Y-109075000D03*
X67945000Y-138285000D03*
X72945000Y-138285000D03*
X144145000Y-119235000D03*
X149145000Y-119235000D03*
M02*
