%TF.GenerationSoftware,KiCad,Pcbnew,9.0.2+dfsg-1*%
%TF.CreationDate,2026-09-04T21:04:27+02:00*%
%TF.ProjectId,memory-card,6d656d6f-7279-42d6-9361-72642e6b6963,rev?*%
%TF.SameCoordinates,Original*%
%TF.FileFunction,Drillmap*%
%TF.FilePolarity,Positive*%
%FSLAX45Y45*%
G04 Gerber Fmt 4.5, Leading zero omitted, Abs format (unit mm)*
G04 Created by KiCad (PCBNEW 9.0.2+dfsg-1) date 2026-09-04 21:04:27*
%MOMM*%
%LPD*%
G01*
G04 APERTURE LIST*
%ADD10C,0.050000*%
%ADD11C,0.200000*%
%ADD12C,0.100000*%
G04 APERTURE END LIST*
D10*
X6350000Y-15811500D02*
X16319500Y-15811500D01*
X6350000Y-5842000D02*
X6350000Y-15811500D01*
X6350000Y-5842000D02*
X16319500Y-5842000D01*
X16319500Y-15811500D02*
X16319500Y-5842000D01*
D11*
D12*
X8049500Y-7082500D02*
X8079500Y-7112500D01*
X8079500Y-7082500D02*
X8049500Y-7112500D01*
X8049500Y-11083000D02*
X8079500Y-11113000D01*
X8079500Y-11083000D02*
X8049500Y-11113000D01*
X8367000Y-7527000D02*
X8397000Y-7557000D01*
X8397000Y-7527000D02*
X8367000Y-7557000D01*
X8367000Y-8987500D02*
X8397000Y-9017500D01*
X8397000Y-8987500D02*
X8367000Y-9017500D01*
X8820900Y-12416500D02*
X8850900Y-12446500D01*
X8850900Y-12416500D02*
X8820900Y-12446500D01*
X8820900Y-12670500D02*
X8850900Y-12700500D01*
X8850900Y-12670500D02*
X8820900Y-12700500D01*
X8820900Y-13051500D02*
X8850900Y-13081500D01*
X8850900Y-13051500D02*
X8820900Y-13081500D01*
X8938500Y-8352500D02*
X8968500Y-8382500D01*
X8968500Y-8352500D02*
X8938500Y-8382500D01*
X9065500Y-9495500D02*
X9095500Y-9525500D01*
X9095500Y-9495500D02*
X9065500Y-9525500D01*
X9065500Y-10892500D02*
X9095500Y-10922500D01*
X9095500Y-10892500D02*
X9065500Y-10922500D01*
X9065500Y-12543500D02*
X9095500Y-12573500D01*
X9095500Y-12543500D02*
X9065500Y-12573500D01*
X9192500Y-8098500D02*
X9222500Y-8128500D01*
X9222500Y-8098500D02*
X9192500Y-8128500D01*
X9328900Y-10511500D02*
X9358900Y-10541500D01*
X9358900Y-10511500D02*
X9328900Y-10541500D01*
X9446500Y-7844500D02*
X9476500Y-7874500D01*
X9476500Y-7844500D02*
X9446500Y-7874500D01*
X9582900Y-10638500D02*
X9612900Y-10668500D01*
X9612900Y-10638500D02*
X9582900Y-10668500D01*
X9700500Y-7717500D02*
X9730500Y-7747500D01*
X9730500Y-7717500D02*
X9700500Y-7747500D01*
X9836900Y-9749500D02*
X9866900Y-9779500D01*
X9866900Y-9749500D02*
X9836900Y-9779500D01*
X9954500Y-7971500D02*
X9984500Y-8001500D01*
X9984500Y-7971500D02*
X9954500Y-8001500D01*
X10081500Y-9241500D02*
X10111500Y-9271500D01*
X10111500Y-9241500D02*
X10081500Y-9271500D01*
X10208500Y-8225500D02*
X10238500Y-8255500D01*
X10238500Y-8225500D02*
X10208500Y-8255500D01*
X10326100Y-10003500D02*
X10356100Y-10033500D01*
X10356100Y-10003500D02*
X10326100Y-10033500D01*
X10462500Y-8479500D02*
X10492500Y-8509500D01*
X10492500Y-8479500D02*
X10462500Y-8509500D01*
X10580100Y-10257500D02*
X10610100Y-10287500D01*
X10610100Y-10257500D02*
X10580100Y-10287500D01*
X10716500Y-8733500D02*
X10746500Y-8763500D01*
X10746500Y-8733500D02*
X10716500Y-8763500D01*
X10852900Y-10384500D02*
X10882900Y-10414500D01*
X10882900Y-10384500D02*
X10852900Y-10414500D01*
X10970500Y-10765500D02*
X11000500Y-10795500D01*
X11000500Y-10765500D02*
X10970500Y-10795500D01*
X10970500Y-13305500D02*
X11000500Y-13335500D01*
X11000500Y-13305500D02*
X10970500Y-13335500D01*
X11106900Y-10130500D02*
X11136900Y-10160500D01*
X11136900Y-10130500D02*
X11106900Y-10160500D01*
X11224500Y-11273500D02*
X11254500Y-11303500D01*
X11254500Y-11273500D02*
X11224500Y-11303500D01*
X11351500Y-9876500D02*
X11381500Y-9906500D01*
X11381500Y-9876500D02*
X11351500Y-9906500D01*
X11605500Y-9622500D02*
X11635500Y-9652500D01*
X11635500Y-9622500D02*
X11605500Y-9652500D01*
X11859500Y-9368500D02*
X11889500Y-9398500D01*
X11889500Y-9368500D02*
X11859500Y-9398500D01*
X12113500Y-9114500D02*
X12143500Y-9144500D01*
X12143500Y-9114500D02*
X12113500Y-9144500D01*
X12358100Y-8860500D02*
X12388100Y-8890500D01*
X12388100Y-8860500D02*
X12358100Y-8890500D01*
X12494500Y-8987500D02*
X12524500Y-9017500D01*
X12524500Y-8987500D02*
X12494500Y-9017500D01*
X12494500Y-12924000D02*
X12524500Y-12954000D01*
X12524500Y-12924000D02*
X12494500Y-12954000D01*
X12630900Y-8606500D02*
X12660900Y-8636500D01*
X12660900Y-8606500D02*
X12630900Y-8636500D01*
X12748500Y-8987500D02*
X12778500Y-9017500D01*
X12778500Y-8987500D02*
X12748500Y-9017500D01*
X12748500Y-12162500D02*
X12778500Y-12192500D01*
X12778500Y-12162500D02*
X12748500Y-12192500D01*
X12748500Y-13178500D02*
X12778500Y-13208500D01*
X12778500Y-13178500D02*
X12748500Y-13208500D01*
X13256500Y-12035500D02*
X13286500Y-12065500D01*
X13286500Y-12035500D02*
X13256500Y-12065500D01*
X13510500Y-13432500D02*
X13540500Y-13462500D01*
X13540500Y-13432500D02*
X13510500Y-13462500D01*
X13764500Y-7590500D02*
X13794500Y-7620500D01*
X13794500Y-7590500D02*
X13764500Y-7620500D01*
X13764500Y-8987500D02*
X13794500Y-9017500D01*
X13794500Y-8987500D02*
X13764500Y-9017500D01*
X13764500Y-9495500D02*
X13794500Y-9525500D01*
X13794500Y-9495500D02*
X13764500Y-9525500D01*
X13764500Y-12797500D02*
X13794500Y-12827500D01*
X13794500Y-12797500D02*
X13764500Y-12827500D01*
X13891500Y-11527500D02*
X13921500Y-11557500D01*
X13921500Y-11527500D02*
X13891500Y-11557500D01*
X14145500Y-7590500D02*
X14175500Y-7620500D01*
X14175500Y-7590500D02*
X14145500Y-7620500D01*
X13042500Y-11098000D02*
G75*
G02*
X12992500Y-11098000I-25000J0D01*
G01*
X12992500Y-11098000D02*
G75*
G02*
X13042500Y-11098000I25000J0D01*
G01*
X13042500Y-11542500D02*
G75*
G02*
X12992500Y-11542500I-25000J0D01*
G01*
X12992500Y-11542500D02*
G75*
G02*
X13042500Y-11542500I25000J0D01*
G01*
X13042500Y-13638000D02*
G75*
G02*
X12992500Y-13638000I-25000J0D01*
G01*
X12992500Y-13638000D02*
G75*
G02*
X13042500Y-13638000I25000J0D01*
G01*
X14097000Y-11253500D02*
X14097000Y-11323500D01*
X14062000Y-11288500D02*
X14132000Y-11288500D01*
X14097000Y-11507500D02*
X14097000Y-11577500D01*
X14062000Y-11542500D02*
X14132000Y-11542500D01*
X6822784Y-7633784D02*
X6822784Y-7577215D01*
X6766215Y-7577215D01*
X6766215Y-7633784D01*
X6822784Y-7633784D01*
X6822784Y-7887784D02*
X6822784Y-7831215D01*
X6766215Y-7831215D01*
X6766215Y-7887784D01*
X6822784Y-7887784D01*
X6822784Y-8141784D02*
X6822784Y-8085215D01*
X6766215Y-8085215D01*
X6766215Y-8141784D01*
X6822784Y-8141784D01*
X6822784Y-8395785D02*
X6822784Y-8339215D01*
X6766215Y-8339215D01*
X6766215Y-8395785D01*
X6822784Y-8395785D01*
X6822784Y-8649785D02*
X6822784Y-8593216D01*
X6766215Y-8593216D01*
X6766215Y-8649785D01*
X6822784Y-8649785D01*
X6822784Y-8903785D02*
X6822784Y-8847216D01*
X6766215Y-8847216D01*
X6766215Y-8903785D01*
X6822784Y-8903785D01*
X6822784Y-9157785D02*
X6822784Y-9101216D01*
X6766215Y-9101216D01*
X6766215Y-9157785D01*
X6822784Y-9157785D01*
X6822784Y-9411785D02*
X6822784Y-9355216D01*
X6766215Y-9355216D01*
X6766215Y-9411785D01*
X6822784Y-9411785D01*
X6822784Y-9665785D02*
X6822784Y-9609216D01*
X6766215Y-9609216D01*
X6766215Y-9665785D01*
X6822784Y-9665785D01*
X6822784Y-9919785D02*
X6822784Y-9863216D01*
X6766215Y-9863216D01*
X6766215Y-9919785D01*
X6822784Y-9919785D01*
X6822784Y-10173785D02*
X6822784Y-10117216D01*
X6766215Y-10117216D01*
X6766215Y-10173785D01*
X6822784Y-10173785D01*
X6822784Y-10427785D02*
X6822784Y-10371216D01*
X6766215Y-10371216D01*
X6766215Y-10427785D01*
X6822784Y-10427785D01*
X6822784Y-10681785D02*
X6822784Y-10625216D01*
X6766215Y-10625216D01*
X6766215Y-10681785D01*
X6822784Y-10681785D01*
X6822784Y-10935785D02*
X6822784Y-10879216D01*
X6766215Y-10879216D01*
X6766215Y-10935785D01*
X6822784Y-10935785D01*
X6822784Y-11951784D02*
X6822784Y-11895215D01*
X6766215Y-11895215D01*
X6766215Y-11951784D01*
X6822784Y-11951784D01*
X6822784Y-12205784D02*
X6822784Y-12149215D01*
X6766215Y-12149215D01*
X6766215Y-12205784D01*
X6822784Y-12205784D01*
X6822784Y-12459784D02*
X6822784Y-12403215D01*
X6766215Y-12403215D01*
X6766215Y-12459784D01*
X6822784Y-12459784D01*
X6822784Y-12713784D02*
X6822784Y-12657215D01*
X6766215Y-12657215D01*
X6766215Y-12713784D01*
X6822784Y-12713784D01*
X6822784Y-12967784D02*
X6822784Y-12911215D01*
X6766215Y-12911215D01*
X6766215Y-12967784D01*
X6822784Y-12967784D01*
X6822784Y-13221784D02*
X6822784Y-13165215D01*
X6766215Y-13165215D01*
X6766215Y-13221784D01*
X6822784Y-13221784D01*
X6822784Y-13475784D02*
X6822784Y-13419215D01*
X6766215Y-13419215D01*
X6766215Y-13475784D01*
X6822784Y-13475784D01*
X6822784Y-13856784D02*
X6822784Y-13800215D01*
X6766215Y-13800215D01*
X6766215Y-13856784D01*
X6822784Y-13856784D01*
X6830784Y-11316784D02*
X6830784Y-11260215D01*
X6774215Y-11260215D01*
X6774215Y-11316784D01*
X6830784Y-11316784D01*
X7322784Y-13856784D02*
X7322784Y-13800215D01*
X7266215Y-13800215D01*
X7266215Y-13856784D01*
X7322784Y-13856784D01*
X7330784Y-11316784D02*
X7330784Y-11260215D01*
X7274215Y-11260215D01*
X7274215Y-11316784D01*
X7330784Y-11316784D01*
X7584784Y-7633784D02*
X7584784Y-7577215D01*
X7528215Y-7577215D01*
X7528215Y-7633784D01*
X7584784Y-7633784D01*
X7584784Y-7887784D02*
X7584784Y-7831215D01*
X7528215Y-7831215D01*
X7528215Y-7887784D01*
X7584784Y-7887784D01*
X7584784Y-8141784D02*
X7584784Y-8085215D01*
X7528215Y-8085215D01*
X7528215Y-8141784D01*
X7584784Y-8141784D01*
X7584784Y-8395785D02*
X7584784Y-8339215D01*
X7528215Y-8339215D01*
X7528215Y-8395785D01*
X7584784Y-8395785D01*
X7584784Y-8649785D02*
X7584784Y-8593216D01*
X7528215Y-8593216D01*
X7528215Y-8649785D01*
X7584784Y-8649785D01*
X7584784Y-8903785D02*
X7584784Y-8847216D01*
X7528215Y-8847216D01*
X7528215Y-8903785D01*
X7584784Y-8903785D01*
X7584784Y-9157785D02*
X7584784Y-9101216D01*
X7528215Y-9101216D01*
X7528215Y-9157785D01*
X7584784Y-9157785D01*
X7584784Y-9411785D02*
X7584784Y-9355216D01*
X7528215Y-9355216D01*
X7528215Y-9411785D01*
X7584784Y-9411785D01*
X7584784Y-9665785D02*
X7584784Y-9609216D01*
X7528215Y-9609216D01*
X7528215Y-9665785D01*
X7584784Y-9665785D01*
X7584784Y-9919785D02*
X7584784Y-9863216D01*
X7528215Y-9863216D01*
X7528215Y-9919785D01*
X7584784Y-9919785D01*
X7584784Y-10173785D02*
X7584784Y-10117216D01*
X7528215Y-10117216D01*
X7528215Y-10173785D01*
X7584784Y-10173785D01*
X7584784Y-10427785D02*
X7584784Y-10371216D01*
X7528215Y-10371216D01*
X7528215Y-10427785D01*
X7584784Y-10427785D01*
X7584784Y-10681785D02*
X7584784Y-10625216D01*
X7528215Y-10625216D01*
X7528215Y-10681785D01*
X7584784Y-10681785D01*
X7584784Y-10935785D02*
X7584784Y-10879216D01*
X7528215Y-10879216D01*
X7528215Y-10935785D01*
X7584784Y-10935785D01*
X7584784Y-11951784D02*
X7584784Y-11895215D01*
X7528215Y-11895215D01*
X7528215Y-11951784D01*
X7584784Y-11951784D01*
X7584784Y-12205784D02*
X7584784Y-12149215D01*
X7528215Y-12149215D01*
X7528215Y-12205784D01*
X7584784Y-12205784D01*
X7584784Y-12459784D02*
X7584784Y-12403215D01*
X7528215Y-12403215D01*
X7528215Y-12459784D01*
X7584784Y-12459784D01*
X7584784Y-12713784D02*
X7584784Y-12657215D01*
X7528215Y-12657215D01*
X7528215Y-12713784D01*
X7584784Y-12713784D01*
X7584784Y-12967784D02*
X7584784Y-12911215D01*
X7528215Y-12911215D01*
X7528215Y-12967784D01*
X7584784Y-12967784D01*
X7584784Y-13221784D02*
X7584784Y-13165215D01*
X7528215Y-13165215D01*
X7528215Y-13221784D01*
X7584784Y-13221784D01*
X7584784Y-13475784D02*
X7584784Y-13419215D01*
X7528215Y-13419215D01*
X7528215Y-13475784D01*
X7584784Y-13475784D01*
X14442784Y-7760784D02*
X14442784Y-7704215D01*
X14386215Y-7704215D01*
X14386215Y-7760784D01*
X14442784Y-7760784D01*
X14442784Y-8014784D02*
X14442784Y-7958215D01*
X14386215Y-7958215D01*
X14386215Y-8014784D01*
X14442784Y-8014784D01*
X14442784Y-8268784D02*
X14442784Y-8212215D01*
X14386215Y-8212215D01*
X14386215Y-8268784D01*
X14442784Y-8268784D01*
X14442784Y-8522785D02*
X14442784Y-8466216D01*
X14386215Y-8466216D01*
X14386215Y-8522785D01*
X14442784Y-8522785D01*
X14442784Y-8776785D02*
X14442784Y-8720216D01*
X14386215Y-8720216D01*
X14386215Y-8776785D01*
X14442784Y-8776785D01*
X14442784Y-9030785D02*
X14442784Y-8974216D01*
X14386215Y-8974216D01*
X14386215Y-9030785D01*
X14442784Y-9030785D01*
X14442784Y-9284785D02*
X14442784Y-9228216D01*
X14386215Y-9228216D01*
X14386215Y-9284785D01*
X14442784Y-9284785D01*
X14442784Y-9538785D02*
X14442784Y-9482216D01*
X14386215Y-9482216D01*
X14386215Y-9538785D01*
X14442784Y-9538785D01*
X14442784Y-9792785D02*
X14442784Y-9736216D01*
X14386215Y-9736216D01*
X14386215Y-9792785D01*
X14442784Y-9792785D01*
X14442784Y-10046785D02*
X14442784Y-9990216D01*
X14386215Y-9990216D01*
X14386215Y-10046785D01*
X14442784Y-10046785D01*
X14442784Y-10300785D02*
X14442784Y-10244216D01*
X14386215Y-10244216D01*
X14386215Y-10300785D01*
X14442784Y-10300785D01*
X14442784Y-10554785D02*
X14442784Y-10498216D01*
X14386215Y-10498216D01*
X14386215Y-10554785D01*
X14442784Y-10554785D01*
X14442784Y-10808785D02*
X14442784Y-10752216D01*
X14386215Y-10752216D01*
X14386215Y-10808785D01*
X14442784Y-10808785D01*
X14442784Y-11062785D02*
X14442784Y-11006216D01*
X14386215Y-11006216D01*
X14386215Y-11062785D01*
X14442784Y-11062785D01*
X14442784Y-11316784D02*
X14442784Y-11260215D01*
X14386215Y-11260215D01*
X14386215Y-11316784D01*
X14442784Y-11316784D01*
X14442784Y-11570784D02*
X14442784Y-11514215D01*
X14386215Y-11514215D01*
X14386215Y-11570784D01*
X14442784Y-11570784D01*
X14442784Y-11951784D02*
X14442784Y-11895215D01*
X14386215Y-11895215D01*
X14386215Y-11951784D01*
X14442784Y-11951784D01*
X14942784Y-11951784D02*
X14942784Y-11895215D01*
X14886215Y-11895215D01*
X14886215Y-11951784D01*
X14942784Y-11951784D01*
X15966784Y-7760784D02*
X15966784Y-7704215D01*
X15910215Y-7704215D01*
X15910215Y-7760784D01*
X15966784Y-7760784D01*
X15966784Y-8014784D02*
X15966784Y-7958215D01*
X15910215Y-7958215D01*
X15910215Y-8014784D01*
X15966784Y-8014784D01*
X15966784Y-8268784D02*
X15966784Y-8212215D01*
X15910215Y-8212215D01*
X15910215Y-8268784D01*
X15966784Y-8268784D01*
X15966784Y-8522785D02*
X15966784Y-8466216D01*
X15910215Y-8466216D01*
X15910215Y-8522785D01*
X15966784Y-8522785D01*
X15966784Y-8776785D02*
X15966784Y-8720216D01*
X15910215Y-8720216D01*
X15910215Y-8776785D01*
X15966784Y-8776785D01*
X15966784Y-9030785D02*
X15966784Y-8974216D01*
X15910215Y-8974216D01*
X15910215Y-9030785D01*
X15966784Y-9030785D01*
X15966784Y-9284785D02*
X15966784Y-9228216D01*
X15910215Y-9228216D01*
X15910215Y-9284785D01*
X15966784Y-9284785D01*
X15966784Y-9538785D02*
X15966784Y-9482216D01*
X15910215Y-9482216D01*
X15910215Y-9538785D01*
X15966784Y-9538785D01*
X15966784Y-9792785D02*
X15966784Y-9736216D01*
X15910215Y-9736216D01*
X15910215Y-9792785D01*
X15966784Y-9792785D01*
X15966784Y-10046785D02*
X15966784Y-9990216D01*
X15910215Y-9990216D01*
X15910215Y-10046785D01*
X15966784Y-10046785D01*
X15966784Y-10300785D02*
X15966784Y-10244216D01*
X15910215Y-10244216D01*
X15910215Y-10300785D01*
X15966784Y-10300785D01*
X15966784Y-10554785D02*
X15966784Y-10498216D01*
X15910215Y-10498216D01*
X15910215Y-10554785D01*
X15966784Y-10554785D01*
X15966784Y-10808785D02*
X15966784Y-10752216D01*
X15910215Y-10752216D01*
X15910215Y-10808785D01*
X15966784Y-10808785D01*
X15966784Y-11062785D02*
X15966784Y-11006216D01*
X15910215Y-11006216D01*
X15910215Y-11062785D01*
X15966784Y-11062785D01*
X15966784Y-11316784D02*
X15966784Y-11260215D01*
X15910215Y-11260215D01*
X15910215Y-11316784D01*
X15966784Y-11316784D01*
X15966784Y-11570784D02*
X15966784Y-11514215D01*
X15910215Y-11514215D01*
X15910215Y-11570784D01*
X15966784Y-11570784D01*
X8953500Y-15172000D02*
X9003500Y-15122000D01*
X8953500Y-15072000D01*
X8903500Y-15122000D01*
X8953500Y-15172000D01*
X8953500Y-15426000D02*
X9003500Y-15376000D01*
X8953500Y-15326000D01*
X8903500Y-15376000D01*
X8953500Y-15426000D01*
X9207500Y-15172000D02*
X9257500Y-15122000D01*
X9207500Y-15072000D01*
X9157500Y-15122000D01*
X9207500Y-15172000D01*
X9207500Y-15426000D02*
X9257500Y-15376000D01*
X9207500Y-15326000D01*
X9157500Y-15376000D01*
X9207500Y-15426000D01*
X9461500Y-15172000D02*
X9511500Y-15122000D01*
X9461500Y-15072000D01*
X9411500Y-15122000D01*
X9461500Y-15172000D01*
X9461500Y-15426000D02*
X9511500Y-15376000D01*
X9461500Y-15326000D01*
X9411500Y-15376000D01*
X9461500Y-15426000D01*
X9715500Y-15172000D02*
X9765500Y-15122000D01*
X9715500Y-15072000D01*
X9665500Y-15122000D01*
X9715500Y-15172000D01*
X9715500Y-15426000D02*
X9765500Y-15376000D01*
X9715500Y-15326000D01*
X9665500Y-15376000D01*
X9715500Y-15426000D01*
X9969500Y-15172000D02*
X10019500Y-15122000D01*
X9969500Y-15072000D01*
X9919500Y-15122000D01*
X9969500Y-15172000D01*
X9969500Y-15426000D02*
X10019500Y-15376000D01*
X9969500Y-15326000D01*
X9919500Y-15376000D01*
X9969500Y-15426000D01*
X10223500Y-15172000D02*
X10273500Y-15122000D01*
X10223500Y-15072000D01*
X10173500Y-15122000D01*
X10223500Y-15172000D01*
X10223500Y-15426000D02*
X10273500Y-15376000D01*
X10223500Y-15326000D01*
X10173500Y-15376000D01*
X10223500Y-15426000D01*
X10477500Y-15172000D02*
X10527500Y-15122000D01*
X10477500Y-15072000D01*
X10427500Y-15122000D01*
X10477500Y-15172000D01*
X10477500Y-15426000D02*
X10527500Y-15376000D01*
X10477500Y-15326000D01*
X10427500Y-15376000D01*
X10477500Y-15426000D01*
X10731500Y-15172000D02*
X10781500Y-15122000D01*
X10731500Y-15072000D01*
X10681500Y-15122000D01*
X10731500Y-15172000D01*
X10731500Y-15426000D02*
X10781500Y-15376000D01*
X10731500Y-15326000D01*
X10681500Y-15376000D01*
X10731500Y-15426000D01*
X10985500Y-15172000D02*
X11035500Y-15122000D01*
X10985500Y-15072000D01*
X10935500Y-15122000D01*
X10985500Y-15172000D01*
X10985500Y-15426000D02*
X11035500Y-15376000D01*
X10985500Y-15326000D01*
X10935500Y-15376000D01*
X10985500Y-15426000D01*
X11239500Y-15172000D02*
X11289500Y-15122000D01*
X11239500Y-15072000D01*
X11189500Y-15122000D01*
X11239500Y-15172000D01*
X11239500Y-15426000D02*
X11289500Y-15376000D01*
X11239500Y-15326000D01*
X11189500Y-15376000D01*
X11239500Y-15426000D01*
X11493500Y-15172000D02*
X11543500Y-15122000D01*
X11493500Y-15072000D01*
X11443500Y-15122000D01*
X11493500Y-15172000D01*
X11493500Y-15426000D02*
X11543500Y-15376000D01*
X11493500Y-15326000D01*
X11443500Y-15376000D01*
X11493500Y-15426000D01*
X11747500Y-15172000D02*
X11797500Y-15122000D01*
X11747500Y-15072000D01*
X11697500Y-15122000D01*
X11747500Y-15172000D01*
X11747500Y-15426000D02*
X11797500Y-15376000D01*
X11747500Y-15326000D01*
X11697500Y-15376000D01*
X11747500Y-15426000D01*
X12001500Y-15172000D02*
X12051500Y-15122000D01*
X12001500Y-15072000D01*
X11951500Y-15122000D01*
X12001500Y-15172000D01*
X12001500Y-15426000D02*
X12051500Y-15376000D01*
X12001500Y-15326000D01*
X11951500Y-15376000D01*
X12001500Y-15426000D01*
X12255500Y-15172000D02*
X12305500Y-15122000D01*
X12255500Y-15072000D01*
X12205500Y-15122000D01*
X12255500Y-15172000D01*
X12255500Y-15426000D02*
X12305500Y-15376000D01*
X12255500Y-15326000D01*
X12205500Y-15376000D01*
X12255500Y-15426000D01*
X12509500Y-15172000D02*
X12559500Y-15122000D01*
X12509500Y-15072000D01*
X12459500Y-15122000D01*
X12509500Y-15172000D01*
X12509500Y-15426000D02*
X12559500Y-15376000D01*
X12509500Y-15326000D01*
X12459500Y-15376000D01*
X12509500Y-15426000D01*
X12763500Y-15172000D02*
X12813500Y-15122000D01*
X12763500Y-15072000D01*
X12713500Y-15122000D01*
X12763500Y-15172000D01*
X12763500Y-15426000D02*
X12813500Y-15376000D01*
X12763500Y-15326000D01*
X12713500Y-15376000D01*
X12763500Y-15426000D01*
X13017500Y-15172000D02*
X13067500Y-15122000D01*
X13017500Y-15072000D01*
X12967500Y-15122000D01*
X13017500Y-15172000D01*
X13017500Y-15426000D02*
X13067500Y-15376000D01*
X13017500Y-15326000D01*
X12967500Y-15376000D01*
X13017500Y-15426000D01*
X13271500Y-15172000D02*
X13321500Y-15122000D01*
X13271500Y-15072000D01*
X13221500Y-15122000D01*
X13271500Y-15172000D01*
X13271500Y-15426000D02*
X13321500Y-15376000D01*
X13271500Y-15326000D01*
X13221500Y-15376000D01*
X13271500Y-15426000D01*
X13525500Y-15172000D02*
X13575500Y-15122000D01*
X13525500Y-15072000D01*
X13475500Y-15122000D01*
X13525500Y-15172000D01*
X13525500Y-15426000D02*
X13575500Y-15376000D01*
X13525500Y-15326000D01*
X13475500Y-15376000D01*
X13525500Y-15426000D01*
X13779500Y-15172000D02*
X13829500Y-15122000D01*
X13779500Y-15072000D01*
X13729500Y-15122000D01*
X13779500Y-15172000D01*
X13779500Y-15426000D02*
X13829500Y-15376000D01*
X13779500Y-15326000D01*
X13729500Y-15376000D01*
X13779500Y-15426000D01*
D11*
X6608277Y-16125484D02*
X6608277Y-15925484D01*
X6608277Y-15925484D02*
X6655896Y-15925484D01*
X6655896Y-15925484D02*
X6684467Y-15935008D01*
X6684467Y-15935008D02*
X6703515Y-15954055D01*
X6703515Y-15954055D02*
X6713039Y-15973103D01*
X6713039Y-15973103D02*
X6722562Y-16011198D01*
X6722562Y-16011198D02*
X6722562Y-16039769D01*
X6722562Y-16039769D02*
X6713039Y-16077865D01*
X6713039Y-16077865D02*
X6703515Y-16096912D01*
X6703515Y-16096912D02*
X6684467Y-16115960D01*
X6684467Y-16115960D02*
X6655896Y-16125484D01*
X6655896Y-16125484D02*
X6608277Y-16125484D01*
X6808277Y-16125484D02*
X6808277Y-15992150D01*
X6808277Y-16030246D02*
X6817801Y-16011198D01*
X6817801Y-16011198D02*
X6827324Y-16001674D01*
X6827324Y-16001674D02*
X6846372Y-15992150D01*
X6846372Y-15992150D02*
X6865420Y-15992150D01*
X6932086Y-16125484D02*
X6932086Y-15992150D01*
X6932086Y-15925484D02*
X6922562Y-15935008D01*
X6922562Y-15935008D02*
X6932086Y-15944531D01*
X6932086Y-15944531D02*
X6941610Y-15935008D01*
X6941610Y-15935008D02*
X6932086Y-15925484D01*
X6932086Y-15925484D02*
X6932086Y-15944531D01*
X7055896Y-16125484D02*
X7036848Y-16115960D01*
X7036848Y-16115960D02*
X7027324Y-16096912D01*
X7027324Y-16096912D02*
X7027324Y-15925484D01*
X7160658Y-16125484D02*
X7141610Y-16115960D01*
X7141610Y-16115960D02*
X7132086Y-16096912D01*
X7132086Y-16096912D02*
X7132086Y-15925484D01*
X7389229Y-16125484D02*
X7389229Y-15925484D01*
X7389229Y-15925484D02*
X7455896Y-16068341D01*
X7455896Y-16068341D02*
X7522562Y-15925484D01*
X7522562Y-15925484D02*
X7522562Y-16125484D01*
X7703515Y-16125484D02*
X7703515Y-16020722D01*
X7703515Y-16020722D02*
X7693991Y-16001674D01*
X7693991Y-16001674D02*
X7674943Y-15992150D01*
X7674943Y-15992150D02*
X7636848Y-15992150D01*
X7636848Y-15992150D02*
X7617801Y-16001674D01*
X7703515Y-16115960D02*
X7684467Y-16125484D01*
X7684467Y-16125484D02*
X7636848Y-16125484D01*
X7636848Y-16125484D02*
X7617801Y-16115960D01*
X7617801Y-16115960D02*
X7608277Y-16096912D01*
X7608277Y-16096912D02*
X7608277Y-16077865D01*
X7608277Y-16077865D02*
X7617801Y-16058817D01*
X7617801Y-16058817D02*
X7636848Y-16049293D01*
X7636848Y-16049293D02*
X7684467Y-16049293D01*
X7684467Y-16049293D02*
X7703515Y-16039769D01*
X7798753Y-15992150D02*
X7798753Y-16192150D01*
X7798753Y-16001674D02*
X7817801Y-15992150D01*
X7817801Y-15992150D02*
X7855896Y-15992150D01*
X7855896Y-15992150D02*
X7874943Y-16001674D01*
X7874943Y-16001674D02*
X7884467Y-16011198D01*
X7884467Y-16011198D02*
X7893991Y-16030246D01*
X7893991Y-16030246D02*
X7893991Y-16087388D01*
X7893991Y-16087388D02*
X7884467Y-16106436D01*
X7884467Y-16106436D02*
X7874943Y-16115960D01*
X7874943Y-16115960D02*
X7855896Y-16125484D01*
X7855896Y-16125484D02*
X7817801Y-16125484D01*
X7817801Y-16125484D02*
X7798753Y-16115960D01*
X7979705Y-16106436D02*
X7989229Y-16115960D01*
X7989229Y-16115960D02*
X7979705Y-16125484D01*
X7979705Y-16125484D02*
X7970182Y-16115960D01*
X7970182Y-16115960D02*
X7979705Y-16106436D01*
X7979705Y-16106436D02*
X7979705Y-16125484D01*
X7979705Y-16001674D02*
X7989229Y-16011198D01*
X7989229Y-16011198D02*
X7979705Y-16020722D01*
X7979705Y-16020722D02*
X7970182Y-16011198D01*
X7970182Y-16011198D02*
X7979705Y-16001674D01*
X7979705Y-16001674D02*
X7979705Y-16020722D01*
D12*
X6317500Y-16439000D02*
X6347500Y-16469000D01*
X6347500Y-16439000D02*
X6317500Y-16469000D01*
D11*
X6646372Y-16345484D02*
X6665420Y-16345484D01*
X6665420Y-16345484D02*
X6684467Y-16355008D01*
X6684467Y-16355008D02*
X6693991Y-16364531D01*
X6693991Y-16364531D02*
X6703515Y-16383579D01*
X6703515Y-16383579D02*
X6713039Y-16421674D01*
X6713039Y-16421674D02*
X6713039Y-16469293D01*
X6713039Y-16469293D02*
X6703515Y-16507388D01*
X6703515Y-16507388D02*
X6693991Y-16526436D01*
X6693991Y-16526436D02*
X6684467Y-16535960D01*
X6684467Y-16535960D02*
X6665420Y-16545484D01*
X6665420Y-16545484D02*
X6646372Y-16545484D01*
X6646372Y-16545484D02*
X6627324Y-16535960D01*
X6627324Y-16535960D02*
X6617801Y-16526436D01*
X6617801Y-16526436D02*
X6608277Y-16507388D01*
X6608277Y-16507388D02*
X6598753Y-16469293D01*
X6598753Y-16469293D02*
X6598753Y-16421674D01*
X6598753Y-16421674D02*
X6608277Y-16383579D01*
X6608277Y-16383579D02*
X6617801Y-16364531D01*
X6617801Y-16364531D02*
X6627324Y-16355008D01*
X6627324Y-16355008D02*
X6646372Y-16345484D01*
X6798753Y-16526436D02*
X6808277Y-16535960D01*
X6808277Y-16535960D02*
X6798753Y-16545484D01*
X6798753Y-16545484D02*
X6789229Y-16535960D01*
X6789229Y-16535960D02*
X6798753Y-16526436D01*
X6798753Y-16526436D02*
X6798753Y-16545484D01*
X6874943Y-16345484D02*
X6998753Y-16345484D01*
X6998753Y-16345484D02*
X6932086Y-16421674D01*
X6932086Y-16421674D02*
X6960658Y-16421674D01*
X6960658Y-16421674D02*
X6979705Y-16431198D01*
X6979705Y-16431198D02*
X6989229Y-16440722D01*
X6989229Y-16440722D02*
X6998753Y-16459769D01*
X6998753Y-16459769D02*
X6998753Y-16507388D01*
X6998753Y-16507388D02*
X6989229Y-16526436D01*
X6989229Y-16526436D02*
X6979705Y-16535960D01*
X6979705Y-16535960D02*
X6960658Y-16545484D01*
X6960658Y-16545484D02*
X6903515Y-16545484D01*
X6903515Y-16545484D02*
X6884467Y-16535960D01*
X6884467Y-16535960D02*
X6874943Y-16526436D01*
X7122562Y-16345484D02*
X7141610Y-16345484D01*
X7141610Y-16345484D02*
X7160658Y-16355008D01*
X7160658Y-16355008D02*
X7170182Y-16364531D01*
X7170182Y-16364531D02*
X7179705Y-16383579D01*
X7179705Y-16383579D02*
X7189229Y-16421674D01*
X7189229Y-16421674D02*
X7189229Y-16469293D01*
X7189229Y-16469293D02*
X7179705Y-16507388D01*
X7179705Y-16507388D02*
X7170182Y-16526436D01*
X7170182Y-16526436D02*
X7160658Y-16535960D01*
X7160658Y-16535960D02*
X7141610Y-16545484D01*
X7141610Y-16545484D02*
X7122562Y-16545484D01*
X7122562Y-16545484D02*
X7103515Y-16535960D01*
X7103515Y-16535960D02*
X7093991Y-16526436D01*
X7093991Y-16526436D02*
X7084467Y-16507388D01*
X7084467Y-16507388D02*
X7074943Y-16469293D01*
X7074943Y-16469293D02*
X7074943Y-16421674D01*
X7074943Y-16421674D02*
X7084467Y-16383579D01*
X7084467Y-16383579D02*
X7093991Y-16364531D01*
X7093991Y-16364531D02*
X7103515Y-16355008D01*
X7103515Y-16355008D02*
X7122562Y-16345484D01*
X7313039Y-16345484D02*
X7332086Y-16345484D01*
X7332086Y-16345484D02*
X7351134Y-16355008D01*
X7351134Y-16355008D02*
X7360658Y-16364531D01*
X7360658Y-16364531D02*
X7370182Y-16383579D01*
X7370182Y-16383579D02*
X7379705Y-16421674D01*
X7379705Y-16421674D02*
X7379705Y-16469293D01*
X7379705Y-16469293D02*
X7370182Y-16507388D01*
X7370182Y-16507388D02*
X7360658Y-16526436D01*
X7360658Y-16526436D02*
X7351134Y-16535960D01*
X7351134Y-16535960D02*
X7332086Y-16545484D01*
X7332086Y-16545484D02*
X7313039Y-16545484D01*
X7313039Y-16545484D02*
X7293991Y-16535960D01*
X7293991Y-16535960D02*
X7284467Y-16526436D01*
X7284467Y-16526436D02*
X7274943Y-16507388D01*
X7274943Y-16507388D02*
X7265420Y-16469293D01*
X7265420Y-16469293D02*
X7265420Y-16421674D01*
X7265420Y-16421674D02*
X7274943Y-16383579D01*
X7274943Y-16383579D02*
X7284467Y-16364531D01*
X7284467Y-16364531D02*
X7293991Y-16355008D01*
X7293991Y-16355008D02*
X7313039Y-16345484D01*
X7465420Y-16545484D02*
X7465420Y-16412150D01*
X7465420Y-16431198D02*
X7474943Y-16421674D01*
X7474943Y-16421674D02*
X7493991Y-16412150D01*
X7493991Y-16412150D02*
X7522563Y-16412150D01*
X7522563Y-16412150D02*
X7541610Y-16421674D01*
X7541610Y-16421674D02*
X7551134Y-16440722D01*
X7551134Y-16440722D02*
X7551134Y-16545484D01*
X7551134Y-16440722D02*
X7560658Y-16421674D01*
X7560658Y-16421674D02*
X7579705Y-16412150D01*
X7579705Y-16412150D02*
X7608277Y-16412150D01*
X7608277Y-16412150D02*
X7627324Y-16421674D01*
X7627324Y-16421674D02*
X7636848Y-16440722D01*
X7636848Y-16440722D02*
X7636848Y-16545484D01*
X7732086Y-16545484D02*
X7732086Y-16412150D01*
X7732086Y-16431198D02*
X7741610Y-16421674D01*
X7741610Y-16421674D02*
X7760658Y-16412150D01*
X7760658Y-16412150D02*
X7789229Y-16412150D01*
X7789229Y-16412150D02*
X7808277Y-16421674D01*
X7808277Y-16421674D02*
X7817801Y-16440722D01*
X7817801Y-16440722D02*
X7817801Y-16545484D01*
X7817801Y-16440722D02*
X7827324Y-16421674D01*
X7827324Y-16421674D02*
X7846372Y-16412150D01*
X7846372Y-16412150D02*
X7874943Y-16412150D01*
X7874943Y-16412150D02*
X7893991Y-16421674D01*
X7893991Y-16421674D02*
X7903515Y-16440722D01*
X7903515Y-16440722D02*
X7903515Y-16545484D01*
X8293991Y-16335960D02*
X8122563Y-16593103D01*
X8551134Y-16345484D02*
X8570182Y-16345484D01*
X8570182Y-16345484D02*
X8589229Y-16355008D01*
X8589229Y-16355008D02*
X8598753Y-16364531D01*
X8598753Y-16364531D02*
X8608277Y-16383579D01*
X8608277Y-16383579D02*
X8617801Y-16421674D01*
X8617801Y-16421674D02*
X8617801Y-16469293D01*
X8617801Y-16469293D02*
X8608277Y-16507388D01*
X8608277Y-16507388D02*
X8598753Y-16526436D01*
X8598753Y-16526436D02*
X8589229Y-16535960D01*
X8589229Y-16535960D02*
X8570182Y-16545484D01*
X8570182Y-16545484D02*
X8551134Y-16545484D01*
X8551134Y-16545484D02*
X8532087Y-16535960D01*
X8532087Y-16535960D02*
X8522563Y-16526436D01*
X8522563Y-16526436D02*
X8513039Y-16507388D01*
X8513039Y-16507388D02*
X8503515Y-16469293D01*
X8503515Y-16469293D02*
X8503515Y-16421674D01*
X8503515Y-16421674D02*
X8513039Y-16383579D01*
X8513039Y-16383579D02*
X8522563Y-16364531D01*
X8522563Y-16364531D02*
X8532087Y-16355008D01*
X8532087Y-16355008D02*
X8551134Y-16345484D01*
X8703515Y-16526436D02*
X8713039Y-16535960D01*
X8713039Y-16535960D02*
X8703515Y-16545484D01*
X8703515Y-16545484D02*
X8693991Y-16535960D01*
X8693991Y-16535960D02*
X8703515Y-16526436D01*
X8703515Y-16526436D02*
X8703515Y-16545484D01*
X8836848Y-16345484D02*
X8855896Y-16345484D01*
X8855896Y-16345484D02*
X8874944Y-16355008D01*
X8874944Y-16355008D02*
X8884468Y-16364531D01*
X8884468Y-16364531D02*
X8893991Y-16383579D01*
X8893991Y-16383579D02*
X8903515Y-16421674D01*
X8903515Y-16421674D02*
X8903515Y-16469293D01*
X8903515Y-16469293D02*
X8893991Y-16507388D01*
X8893991Y-16507388D02*
X8884468Y-16526436D01*
X8884468Y-16526436D02*
X8874944Y-16535960D01*
X8874944Y-16535960D02*
X8855896Y-16545484D01*
X8855896Y-16545484D02*
X8836848Y-16545484D01*
X8836848Y-16545484D02*
X8817801Y-16535960D01*
X8817801Y-16535960D02*
X8808277Y-16526436D01*
X8808277Y-16526436D02*
X8798753Y-16507388D01*
X8798753Y-16507388D02*
X8789229Y-16469293D01*
X8789229Y-16469293D02*
X8789229Y-16421674D01*
X8789229Y-16421674D02*
X8798753Y-16383579D01*
X8798753Y-16383579D02*
X8808277Y-16364531D01*
X8808277Y-16364531D02*
X8817801Y-16355008D01*
X8817801Y-16355008D02*
X8836848Y-16345484D01*
X9093991Y-16545484D02*
X8979706Y-16545484D01*
X9036848Y-16545484D02*
X9036848Y-16345484D01*
X9036848Y-16345484D02*
X9017801Y-16374055D01*
X9017801Y-16374055D02*
X8998753Y-16393103D01*
X8998753Y-16393103D02*
X8979706Y-16402627D01*
X9284468Y-16545484D02*
X9170182Y-16545484D01*
X9227325Y-16545484D02*
X9227325Y-16345484D01*
X9227325Y-16345484D02*
X9208277Y-16374055D01*
X9208277Y-16374055D02*
X9189229Y-16393103D01*
X9189229Y-16393103D02*
X9170182Y-16402627D01*
X9398753Y-16431198D02*
X9379706Y-16421674D01*
X9379706Y-16421674D02*
X9370182Y-16412150D01*
X9370182Y-16412150D02*
X9360658Y-16393103D01*
X9360658Y-16393103D02*
X9360658Y-16383579D01*
X9360658Y-16383579D02*
X9370182Y-16364531D01*
X9370182Y-16364531D02*
X9379706Y-16355008D01*
X9379706Y-16355008D02*
X9398753Y-16345484D01*
X9398753Y-16345484D02*
X9436849Y-16345484D01*
X9436849Y-16345484D02*
X9455896Y-16355008D01*
X9455896Y-16355008D02*
X9465420Y-16364531D01*
X9465420Y-16364531D02*
X9474944Y-16383579D01*
X9474944Y-16383579D02*
X9474944Y-16393103D01*
X9474944Y-16393103D02*
X9465420Y-16412150D01*
X9465420Y-16412150D02*
X9455896Y-16421674D01*
X9455896Y-16421674D02*
X9436849Y-16431198D01*
X9436849Y-16431198D02*
X9398753Y-16431198D01*
X9398753Y-16431198D02*
X9379706Y-16440722D01*
X9379706Y-16440722D02*
X9370182Y-16450246D01*
X9370182Y-16450246D02*
X9360658Y-16469293D01*
X9360658Y-16469293D02*
X9360658Y-16507388D01*
X9360658Y-16507388D02*
X9370182Y-16526436D01*
X9370182Y-16526436D02*
X9379706Y-16535960D01*
X9379706Y-16535960D02*
X9398753Y-16545484D01*
X9398753Y-16545484D02*
X9436849Y-16545484D01*
X9436849Y-16545484D02*
X9455896Y-16535960D01*
X9455896Y-16535960D02*
X9465420Y-16526436D01*
X9465420Y-16526436D02*
X9474944Y-16507388D01*
X9474944Y-16507388D02*
X9474944Y-16469293D01*
X9474944Y-16469293D02*
X9465420Y-16450246D01*
X9465420Y-16450246D02*
X9455896Y-16440722D01*
X9455896Y-16440722D02*
X9436849Y-16431198D01*
X9551134Y-16345484D02*
X9551134Y-16383579D01*
X9627325Y-16345484D02*
X9627325Y-16383579D01*
X9922563Y-16621674D02*
X9913039Y-16612150D01*
X9913039Y-16612150D02*
X9893991Y-16583579D01*
X9893991Y-16583579D02*
X9884468Y-16564531D01*
X9884468Y-16564531D02*
X9874944Y-16535960D01*
X9874944Y-16535960D02*
X9865420Y-16488341D01*
X9865420Y-16488341D02*
X9865420Y-16450246D01*
X9865420Y-16450246D02*
X9874944Y-16402627D01*
X9874944Y-16402627D02*
X9884468Y-16374055D01*
X9884468Y-16374055D02*
X9893991Y-16355008D01*
X9893991Y-16355008D02*
X9913039Y-16326436D01*
X9913039Y-16326436D02*
X9922563Y-16316912D01*
X10084468Y-16412150D02*
X10084468Y-16545484D01*
X10036849Y-16335960D02*
X9989230Y-16478817D01*
X9989230Y-16478817D02*
X10113039Y-16478817D01*
X10217801Y-16431198D02*
X10198753Y-16421674D01*
X10198753Y-16421674D02*
X10189230Y-16412150D01*
X10189230Y-16412150D02*
X10179706Y-16393103D01*
X10179706Y-16393103D02*
X10179706Y-16383579D01*
X10179706Y-16383579D02*
X10189230Y-16364531D01*
X10189230Y-16364531D02*
X10198753Y-16355008D01*
X10198753Y-16355008D02*
X10217801Y-16345484D01*
X10217801Y-16345484D02*
X10255896Y-16345484D01*
X10255896Y-16345484D02*
X10274944Y-16355008D01*
X10274944Y-16355008D02*
X10284468Y-16364531D01*
X10284468Y-16364531D02*
X10293991Y-16383579D01*
X10293991Y-16383579D02*
X10293991Y-16393103D01*
X10293991Y-16393103D02*
X10284468Y-16412150D01*
X10284468Y-16412150D02*
X10274944Y-16421674D01*
X10274944Y-16421674D02*
X10255896Y-16431198D01*
X10255896Y-16431198D02*
X10217801Y-16431198D01*
X10217801Y-16431198D02*
X10198753Y-16440722D01*
X10198753Y-16440722D02*
X10189230Y-16450246D01*
X10189230Y-16450246D02*
X10179706Y-16469293D01*
X10179706Y-16469293D02*
X10179706Y-16507388D01*
X10179706Y-16507388D02*
X10189230Y-16526436D01*
X10189230Y-16526436D02*
X10198753Y-16535960D01*
X10198753Y-16535960D02*
X10217801Y-16545484D01*
X10217801Y-16545484D02*
X10255896Y-16545484D01*
X10255896Y-16545484D02*
X10274944Y-16535960D01*
X10274944Y-16535960D02*
X10284468Y-16526436D01*
X10284468Y-16526436D02*
X10293991Y-16507388D01*
X10293991Y-16507388D02*
X10293991Y-16469293D01*
X10293991Y-16469293D02*
X10284468Y-16450246D01*
X10284468Y-16450246D02*
X10274944Y-16440722D01*
X10274944Y-16440722D02*
X10255896Y-16431198D01*
X10532087Y-16545484D02*
X10532087Y-16345484D01*
X10617801Y-16545484D02*
X10617801Y-16440722D01*
X10617801Y-16440722D02*
X10608277Y-16421674D01*
X10608277Y-16421674D02*
X10589230Y-16412150D01*
X10589230Y-16412150D02*
X10560658Y-16412150D01*
X10560658Y-16412150D02*
X10541611Y-16421674D01*
X10541611Y-16421674D02*
X10532087Y-16431198D01*
X10741611Y-16545484D02*
X10722563Y-16535960D01*
X10722563Y-16535960D02*
X10713039Y-16526436D01*
X10713039Y-16526436D02*
X10703515Y-16507388D01*
X10703515Y-16507388D02*
X10703515Y-16450246D01*
X10703515Y-16450246D02*
X10713039Y-16431198D01*
X10713039Y-16431198D02*
X10722563Y-16421674D01*
X10722563Y-16421674D02*
X10741611Y-16412150D01*
X10741611Y-16412150D02*
X10770182Y-16412150D01*
X10770182Y-16412150D02*
X10789230Y-16421674D01*
X10789230Y-16421674D02*
X10798753Y-16431198D01*
X10798753Y-16431198D02*
X10808277Y-16450246D01*
X10808277Y-16450246D02*
X10808277Y-16507388D01*
X10808277Y-16507388D02*
X10798753Y-16526436D01*
X10798753Y-16526436D02*
X10789230Y-16535960D01*
X10789230Y-16535960D02*
X10770182Y-16545484D01*
X10770182Y-16545484D02*
X10741611Y-16545484D01*
X10922563Y-16545484D02*
X10903515Y-16535960D01*
X10903515Y-16535960D02*
X10893992Y-16516912D01*
X10893992Y-16516912D02*
X10893992Y-16345484D01*
X11074944Y-16535960D02*
X11055896Y-16545484D01*
X11055896Y-16545484D02*
X11017801Y-16545484D01*
X11017801Y-16545484D02*
X10998753Y-16535960D01*
X10998753Y-16535960D02*
X10989230Y-16516912D01*
X10989230Y-16516912D02*
X10989230Y-16440722D01*
X10989230Y-16440722D02*
X10998753Y-16421674D01*
X10998753Y-16421674D02*
X11017801Y-16412150D01*
X11017801Y-16412150D02*
X11055896Y-16412150D01*
X11055896Y-16412150D02*
X11074944Y-16421674D01*
X11074944Y-16421674D02*
X11084468Y-16440722D01*
X11084468Y-16440722D02*
X11084468Y-16459769D01*
X11084468Y-16459769D02*
X10989230Y-16478817D01*
X11160658Y-16535960D02*
X11179706Y-16545484D01*
X11179706Y-16545484D02*
X11217801Y-16545484D01*
X11217801Y-16545484D02*
X11236849Y-16535960D01*
X11236849Y-16535960D02*
X11246372Y-16516912D01*
X11246372Y-16516912D02*
X11246372Y-16507388D01*
X11246372Y-16507388D02*
X11236849Y-16488341D01*
X11236849Y-16488341D02*
X11217801Y-16478817D01*
X11217801Y-16478817D02*
X11189230Y-16478817D01*
X11189230Y-16478817D02*
X11170182Y-16469293D01*
X11170182Y-16469293D02*
X11160658Y-16450246D01*
X11160658Y-16450246D02*
X11160658Y-16440722D01*
X11160658Y-16440722D02*
X11170182Y-16421674D01*
X11170182Y-16421674D02*
X11189230Y-16412150D01*
X11189230Y-16412150D02*
X11217801Y-16412150D01*
X11217801Y-16412150D02*
X11236849Y-16421674D01*
X11313039Y-16621674D02*
X11322563Y-16612150D01*
X11322563Y-16612150D02*
X11341611Y-16583579D01*
X11341611Y-16583579D02*
X11351134Y-16564531D01*
X11351134Y-16564531D02*
X11360658Y-16535960D01*
X11360658Y-16535960D02*
X11370182Y-16488341D01*
X11370182Y-16488341D02*
X11370182Y-16450246D01*
X11370182Y-16450246D02*
X11360658Y-16402627D01*
X11360658Y-16402627D02*
X11351134Y-16374055D01*
X11351134Y-16374055D02*
X11341611Y-16355008D01*
X11341611Y-16355008D02*
X11322563Y-16326436D01*
X11322563Y-16326436D02*
X11313039Y-16316912D01*
D12*
X6347500Y-16718000D02*
G75*
G02*
X6297500Y-16718000I-25000J0D01*
G01*
X6297500Y-16718000D02*
G75*
G02*
X6347500Y-16718000I25000J0D01*
G01*
D11*
X6646372Y-16609484D02*
X6665420Y-16609484D01*
X6665420Y-16609484D02*
X6684467Y-16619008D01*
X6684467Y-16619008D02*
X6693991Y-16628531D01*
X6693991Y-16628531D02*
X6703515Y-16647579D01*
X6703515Y-16647579D02*
X6713039Y-16685674D01*
X6713039Y-16685674D02*
X6713039Y-16733293D01*
X6713039Y-16733293D02*
X6703515Y-16771388D01*
X6703515Y-16771388D02*
X6693991Y-16790436D01*
X6693991Y-16790436D02*
X6684467Y-16799960D01*
X6684467Y-16799960D02*
X6665420Y-16809484D01*
X6665420Y-16809484D02*
X6646372Y-16809484D01*
X6646372Y-16809484D02*
X6627324Y-16799960D01*
X6627324Y-16799960D02*
X6617801Y-16790436D01*
X6617801Y-16790436D02*
X6608277Y-16771388D01*
X6608277Y-16771388D02*
X6598753Y-16733293D01*
X6598753Y-16733293D02*
X6598753Y-16685674D01*
X6598753Y-16685674D02*
X6608277Y-16647579D01*
X6608277Y-16647579D02*
X6617801Y-16628531D01*
X6617801Y-16628531D02*
X6627324Y-16619008D01*
X6627324Y-16619008D02*
X6646372Y-16609484D01*
X6798753Y-16790436D02*
X6808277Y-16799960D01*
X6808277Y-16799960D02*
X6798753Y-16809484D01*
X6798753Y-16809484D02*
X6789229Y-16799960D01*
X6789229Y-16799960D02*
X6798753Y-16790436D01*
X6798753Y-16790436D02*
X6798753Y-16809484D01*
X6989229Y-16609484D02*
X6893991Y-16609484D01*
X6893991Y-16609484D02*
X6884467Y-16704722D01*
X6884467Y-16704722D02*
X6893991Y-16695198D01*
X6893991Y-16695198D02*
X6913039Y-16685674D01*
X6913039Y-16685674D02*
X6960658Y-16685674D01*
X6960658Y-16685674D02*
X6979705Y-16695198D01*
X6979705Y-16695198D02*
X6989229Y-16704722D01*
X6989229Y-16704722D02*
X6998753Y-16723769D01*
X6998753Y-16723769D02*
X6998753Y-16771388D01*
X6998753Y-16771388D02*
X6989229Y-16790436D01*
X6989229Y-16790436D02*
X6979705Y-16799960D01*
X6979705Y-16799960D02*
X6960658Y-16809484D01*
X6960658Y-16809484D02*
X6913039Y-16809484D01*
X6913039Y-16809484D02*
X6893991Y-16799960D01*
X6893991Y-16799960D02*
X6884467Y-16790436D01*
X7122562Y-16609484D02*
X7141610Y-16609484D01*
X7141610Y-16609484D02*
X7160658Y-16619008D01*
X7160658Y-16619008D02*
X7170182Y-16628531D01*
X7170182Y-16628531D02*
X7179705Y-16647579D01*
X7179705Y-16647579D02*
X7189229Y-16685674D01*
X7189229Y-16685674D02*
X7189229Y-16733293D01*
X7189229Y-16733293D02*
X7179705Y-16771388D01*
X7179705Y-16771388D02*
X7170182Y-16790436D01*
X7170182Y-16790436D02*
X7160658Y-16799960D01*
X7160658Y-16799960D02*
X7141610Y-16809484D01*
X7141610Y-16809484D02*
X7122562Y-16809484D01*
X7122562Y-16809484D02*
X7103515Y-16799960D01*
X7103515Y-16799960D02*
X7093991Y-16790436D01*
X7093991Y-16790436D02*
X7084467Y-16771388D01*
X7084467Y-16771388D02*
X7074943Y-16733293D01*
X7074943Y-16733293D02*
X7074943Y-16685674D01*
X7074943Y-16685674D02*
X7084467Y-16647579D01*
X7084467Y-16647579D02*
X7093991Y-16628531D01*
X7093991Y-16628531D02*
X7103515Y-16619008D01*
X7103515Y-16619008D02*
X7122562Y-16609484D01*
X7313039Y-16609484D02*
X7332086Y-16609484D01*
X7332086Y-16609484D02*
X7351134Y-16619008D01*
X7351134Y-16619008D02*
X7360658Y-16628531D01*
X7360658Y-16628531D02*
X7370182Y-16647579D01*
X7370182Y-16647579D02*
X7379705Y-16685674D01*
X7379705Y-16685674D02*
X7379705Y-16733293D01*
X7379705Y-16733293D02*
X7370182Y-16771388D01*
X7370182Y-16771388D02*
X7360658Y-16790436D01*
X7360658Y-16790436D02*
X7351134Y-16799960D01*
X7351134Y-16799960D02*
X7332086Y-16809484D01*
X7332086Y-16809484D02*
X7313039Y-16809484D01*
X7313039Y-16809484D02*
X7293991Y-16799960D01*
X7293991Y-16799960D02*
X7284467Y-16790436D01*
X7284467Y-16790436D02*
X7274943Y-16771388D01*
X7274943Y-16771388D02*
X7265420Y-16733293D01*
X7265420Y-16733293D02*
X7265420Y-16685674D01*
X7265420Y-16685674D02*
X7274943Y-16647579D01*
X7274943Y-16647579D02*
X7284467Y-16628531D01*
X7284467Y-16628531D02*
X7293991Y-16619008D01*
X7293991Y-16619008D02*
X7313039Y-16609484D01*
X7465420Y-16809484D02*
X7465420Y-16676150D01*
X7465420Y-16695198D02*
X7474943Y-16685674D01*
X7474943Y-16685674D02*
X7493991Y-16676150D01*
X7493991Y-16676150D02*
X7522563Y-16676150D01*
X7522563Y-16676150D02*
X7541610Y-16685674D01*
X7541610Y-16685674D02*
X7551134Y-16704722D01*
X7551134Y-16704722D02*
X7551134Y-16809484D01*
X7551134Y-16704722D02*
X7560658Y-16685674D01*
X7560658Y-16685674D02*
X7579705Y-16676150D01*
X7579705Y-16676150D02*
X7608277Y-16676150D01*
X7608277Y-16676150D02*
X7627324Y-16685674D01*
X7627324Y-16685674D02*
X7636848Y-16704722D01*
X7636848Y-16704722D02*
X7636848Y-16809484D01*
X7732086Y-16809484D02*
X7732086Y-16676150D01*
X7732086Y-16695198D02*
X7741610Y-16685674D01*
X7741610Y-16685674D02*
X7760658Y-16676150D01*
X7760658Y-16676150D02*
X7789229Y-16676150D01*
X7789229Y-16676150D02*
X7808277Y-16685674D01*
X7808277Y-16685674D02*
X7817801Y-16704722D01*
X7817801Y-16704722D02*
X7817801Y-16809484D01*
X7817801Y-16704722D02*
X7827324Y-16685674D01*
X7827324Y-16685674D02*
X7846372Y-16676150D01*
X7846372Y-16676150D02*
X7874943Y-16676150D01*
X7874943Y-16676150D02*
X7893991Y-16685674D01*
X7893991Y-16685674D02*
X7903515Y-16704722D01*
X7903515Y-16704722D02*
X7903515Y-16809484D01*
X8293991Y-16599960D02*
X8122563Y-16857103D01*
X8551134Y-16609484D02*
X8570182Y-16609484D01*
X8570182Y-16609484D02*
X8589229Y-16619008D01*
X8589229Y-16619008D02*
X8598753Y-16628531D01*
X8598753Y-16628531D02*
X8608277Y-16647579D01*
X8608277Y-16647579D02*
X8617801Y-16685674D01*
X8617801Y-16685674D02*
X8617801Y-16733293D01*
X8617801Y-16733293D02*
X8608277Y-16771388D01*
X8608277Y-16771388D02*
X8598753Y-16790436D01*
X8598753Y-16790436D02*
X8589229Y-16799960D01*
X8589229Y-16799960D02*
X8570182Y-16809484D01*
X8570182Y-16809484D02*
X8551134Y-16809484D01*
X8551134Y-16809484D02*
X8532087Y-16799960D01*
X8532087Y-16799960D02*
X8522563Y-16790436D01*
X8522563Y-16790436D02*
X8513039Y-16771388D01*
X8513039Y-16771388D02*
X8503515Y-16733293D01*
X8503515Y-16733293D02*
X8503515Y-16685674D01*
X8503515Y-16685674D02*
X8513039Y-16647579D01*
X8513039Y-16647579D02*
X8522563Y-16628531D01*
X8522563Y-16628531D02*
X8532087Y-16619008D01*
X8532087Y-16619008D02*
X8551134Y-16609484D01*
X8703515Y-16790436D02*
X8713039Y-16799960D01*
X8713039Y-16799960D02*
X8703515Y-16809484D01*
X8703515Y-16809484D02*
X8693991Y-16799960D01*
X8693991Y-16799960D02*
X8703515Y-16790436D01*
X8703515Y-16790436D02*
X8703515Y-16809484D01*
X8836848Y-16609484D02*
X8855896Y-16609484D01*
X8855896Y-16609484D02*
X8874944Y-16619008D01*
X8874944Y-16619008D02*
X8884468Y-16628531D01*
X8884468Y-16628531D02*
X8893991Y-16647579D01*
X8893991Y-16647579D02*
X8903515Y-16685674D01*
X8903515Y-16685674D02*
X8903515Y-16733293D01*
X8903515Y-16733293D02*
X8893991Y-16771388D01*
X8893991Y-16771388D02*
X8884468Y-16790436D01*
X8884468Y-16790436D02*
X8874944Y-16799960D01*
X8874944Y-16799960D02*
X8855896Y-16809484D01*
X8855896Y-16809484D02*
X8836848Y-16809484D01*
X8836848Y-16809484D02*
X8817801Y-16799960D01*
X8817801Y-16799960D02*
X8808277Y-16790436D01*
X8808277Y-16790436D02*
X8798753Y-16771388D01*
X8798753Y-16771388D02*
X8789229Y-16733293D01*
X8789229Y-16733293D02*
X8789229Y-16685674D01*
X8789229Y-16685674D02*
X8798753Y-16647579D01*
X8798753Y-16647579D02*
X8808277Y-16628531D01*
X8808277Y-16628531D02*
X8817801Y-16619008D01*
X8817801Y-16619008D02*
X8836848Y-16609484D01*
X9093991Y-16809484D02*
X8979706Y-16809484D01*
X9036848Y-16809484D02*
X9036848Y-16609484D01*
X9036848Y-16609484D02*
X9017801Y-16638055D01*
X9017801Y-16638055D02*
X8998753Y-16657103D01*
X8998753Y-16657103D02*
X8979706Y-16666627D01*
X9189229Y-16809484D02*
X9227325Y-16809484D01*
X9227325Y-16809484D02*
X9246372Y-16799960D01*
X9246372Y-16799960D02*
X9255896Y-16790436D01*
X9255896Y-16790436D02*
X9274944Y-16761865D01*
X9274944Y-16761865D02*
X9284468Y-16723769D01*
X9284468Y-16723769D02*
X9284468Y-16647579D01*
X9284468Y-16647579D02*
X9274944Y-16628531D01*
X9274944Y-16628531D02*
X9265420Y-16619008D01*
X9265420Y-16619008D02*
X9246372Y-16609484D01*
X9246372Y-16609484D02*
X9208277Y-16609484D01*
X9208277Y-16609484D02*
X9189229Y-16619008D01*
X9189229Y-16619008D02*
X9179706Y-16628531D01*
X9179706Y-16628531D02*
X9170182Y-16647579D01*
X9170182Y-16647579D02*
X9170182Y-16695198D01*
X9170182Y-16695198D02*
X9179706Y-16714246D01*
X9179706Y-16714246D02*
X9189229Y-16723769D01*
X9189229Y-16723769D02*
X9208277Y-16733293D01*
X9208277Y-16733293D02*
X9246372Y-16733293D01*
X9246372Y-16733293D02*
X9265420Y-16723769D01*
X9265420Y-16723769D02*
X9274944Y-16714246D01*
X9274944Y-16714246D02*
X9284468Y-16695198D01*
X9351134Y-16609484D02*
X9484468Y-16609484D01*
X9484468Y-16609484D02*
X9398753Y-16809484D01*
X9551134Y-16609484D02*
X9551134Y-16647579D01*
X9627325Y-16609484D02*
X9627325Y-16647579D01*
X9922563Y-16885674D02*
X9913039Y-16876150D01*
X9913039Y-16876150D02*
X9893991Y-16847579D01*
X9893991Y-16847579D02*
X9884468Y-16828531D01*
X9884468Y-16828531D02*
X9874944Y-16799960D01*
X9874944Y-16799960D02*
X9865420Y-16752341D01*
X9865420Y-16752341D02*
X9865420Y-16714246D01*
X9865420Y-16714246D02*
X9874944Y-16666627D01*
X9874944Y-16666627D02*
X9884468Y-16638055D01*
X9884468Y-16638055D02*
X9893991Y-16619008D01*
X9893991Y-16619008D02*
X9913039Y-16590436D01*
X9913039Y-16590436D02*
X9922563Y-16580912D01*
X9979706Y-16609484D02*
X10103515Y-16609484D01*
X10103515Y-16609484D02*
X10036849Y-16685674D01*
X10036849Y-16685674D02*
X10065420Y-16685674D01*
X10065420Y-16685674D02*
X10084468Y-16695198D01*
X10084468Y-16695198D02*
X10093991Y-16704722D01*
X10093991Y-16704722D02*
X10103515Y-16723769D01*
X10103515Y-16723769D02*
X10103515Y-16771388D01*
X10103515Y-16771388D02*
X10093991Y-16790436D01*
X10093991Y-16790436D02*
X10084468Y-16799960D01*
X10084468Y-16799960D02*
X10065420Y-16809484D01*
X10065420Y-16809484D02*
X10008277Y-16809484D01*
X10008277Y-16809484D02*
X9989230Y-16799960D01*
X9989230Y-16799960D02*
X9979706Y-16790436D01*
X10341611Y-16809484D02*
X10341611Y-16609484D01*
X10427325Y-16809484D02*
X10427325Y-16704722D01*
X10427325Y-16704722D02*
X10417801Y-16685674D01*
X10417801Y-16685674D02*
X10398753Y-16676150D01*
X10398753Y-16676150D02*
X10370182Y-16676150D01*
X10370182Y-16676150D02*
X10351134Y-16685674D01*
X10351134Y-16685674D02*
X10341611Y-16695198D01*
X10551134Y-16809484D02*
X10532087Y-16799960D01*
X10532087Y-16799960D02*
X10522563Y-16790436D01*
X10522563Y-16790436D02*
X10513039Y-16771388D01*
X10513039Y-16771388D02*
X10513039Y-16714246D01*
X10513039Y-16714246D02*
X10522563Y-16695198D01*
X10522563Y-16695198D02*
X10532087Y-16685674D01*
X10532087Y-16685674D02*
X10551134Y-16676150D01*
X10551134Y-16676150D02*
X10579706Y-16676150D01*
X10579706Y-16676150D02*
X10598753Y-16685674D01*
X10598753Y-16685674D02*
X10608277Y-16695198D01*
X10608277Y-16695198D02*
X10617801Y-16714246D01*
X10617801Y-16714246D02*
X10617801Y-16771388D01*
X10617801Y-16771388D02*
X10608277Y-16790436D01*
X10608277Y-16790436D02*
X10598753Y-16799960D01*
X10598753Y-16799960D02*
X10579706Y-16809484D01*
X10579706Y-16809484D02*
X10551134Y-16809484D01*
X10732087Y-16809484D02*
X10713039Y-16799960D01*
X10713039Y-16799960D02*
X10703515Y-16780912D01*
X10703515Y-16780912D02*
X10703515Y-16609484D01*
X10884468Y-16799960D02*
X10865420Y-16809484D01*
X10865420Y-16809484D02*
X10827325Y-16809484D01*
X10827325Y-16809484D02*
X10808277Y-16799960D01*
X10808277Y-16799960D02*
X10798753Y-16780912D01*
X10798753Y-16780912D02*
X10798753Y-16704722D01*
X10798753Y-16704722D02*
X10808277Y-16685674D01*
X10808277Y-16685674D02*
X10827325Y-16676150D01*
X10827325Y-16676150D02*
X10865420Y-16676150D01*
X10865420Y-16676150D02*
X10884468Y-16685674D01*
X10884468Y-16685674D02*
X10893992Y-16704722D01*
X10893992Y-16704722D02*
X10893992Y-16723769D01*
X10893992Y-16723769D02*
X10798753Y-16742817D01*
X10970182Y-16799960D02*
X10989230Y-16809484D01*
X10989230Y-16809484D02*
X11027325Y-16809484D01*
X11027325Y-16809484D02*
X11046373Y-16799960D01*
X11046373Y-16799960D02*
X11055896Y-16780912D01*
X11055896Y-16780912D02*
X11055896Y-16771388D01*
X11055896Y-16771388D02*
X11046373Y-16752341D01*
X11046373Y-16752341D02*
X11027325Y-16742817D01*
X11027325Y-16742817D02*
X10998753Y-16742817D01*
X10998753Y-16742817D02*
X10979706Y-16733293D01*
X10979706Y-16733293D02*
X10970182Y-16714246D01*
X10970182Y-16714246D02*
X10970182Y-16704722D01*
X10970182Y-16704722D02*
X10979706Y-16685674D01*
X10979706Y-16685674D02*
X10998753Y-16676150D01*
X10998753Y-16676150D02*
X11027325Y-16676150D01*
X11027325Y-16676150D02*
X11046373Y-16685674D01*
X11122563Y-16885674D02*
X11132087Y-16876150D01*
X11132087Y-16876150D02*
X11151134Y-16847579D01*
X11151134Y-16847579D02*
X11160658Y-16828531D01*
X11160658Y-16828531D02*
X11170182Y-16799960D01*
X11170182Y-16799960D02*
X11179706Y-16752341D01*
X11179706Y-16752341D02*
X11179706Y-16714246D01*
X11179706Y-16714246D02*
X11170182Y-16666627D01*
X11170182Y-16666627D02*
X11160658Y-16638055D01*
X11160658Y-16638055D02*
X11151134Y-16619008D01*
X11151134Y-16619008D02*
X11132087Y-16590436D01*
X11132087Y-16590436D02*
X11122563Y-16580912D01*
D12*
X6312500Y-16947000D02*
X6312500Y-17017000D01*
X6277500Y-16982000D02*
X6347500Y-16982000D01*
D11*
X6646372Y-16873484D02*
X6665420Y-16873484D01*
X6665420Y-16873484D02*
X6684467Y-16883008D01*
X6684467Y-16883008D02*
X6693991Y-16892531D01*
X6693991Y-16892531D02*
X6703515Y-16911579D01*
X6703515Y-16911579D02*
X6713039Y-16949674D01*
X6713039Y-16949674D02*
X6713039Y-16997293D01*
X6713039Y-16997293D02*
X6703515Y-17035389D01*
X6703515Y-17035389D02*
X6693991Y-17054436D01*
X6693991Y-17054436D02*
X6684467Y-17063960D01*
X6684467Y-17063960D02*
X6665420Y-17073484D01*
X6665420Y-17073484D02*
X6646372Y-17073484D01*
X6646372Y-17073484D02*
X6627324Y-17063960D01*
X6627324Y-17063960D02*
X6617801Y-17054436D01*
X6617801Y-17054436D02*
X6608277Y-17035389D01*
X6608277Y-17035389D02*
X6598753Y-16997293D01*
X6598753Y-16997293D02*
X6598753Y-16949674D01*
X6598753Y-16949674D02*
X6608277Y-16911579D01*
X6608277Y-16911579D02*
X6617801Y-16892531D01*
X6617801Y-16892531D02*
X6627324Y-16883008D01*
X6627324Y-16883008D02*
X6646372Y-16873484D01*
X6798753Y-17054436D02*
X6808277Y-17063960D01*
X6808277Y-17063960D02*
X6798753Y-17073484D01*
X6798753Y-17073484D02*
X6789229Y-17063960D01*
X6789229Y-17063960D02*
X6798753Y-17054436D01*
X6798753Y-17054436D02*
X6798753Y-17073484D01*
X6874943Y-16873484D02*
X7008277Y-16873484D01*
X7008277Y-16873484D02*
X6922562Y-17073484D01*
X7122562Y-16873484D02*
X7141610Y-16873484D01*
X7141610Y-16873484D02*
X7160658Y-16883008D01*
X7160658Y-16883008D02*
X7170182Y-16892531D01*
X7170182Y-16892531D02*
X7179705Y-16911579D01*
X7179705Y-16911579D02*
X7189229Y-16949674D01*
X7189229Y-16949674D02*
X7189229Y-16997293D01*
X7189229Y-16997293D02*
X7179705Y-17035389D01*
X7179705Y-17035389D02*
X7170182Y-17054436D01*
X7170182Y-17054436D02*
X7160658Y-17063960D01*
X7160658Y-17063960D02*
X7141610Y-17073484D01*
X7141610Y-17073484D02*
X7122562Y-17073484D01*
X7122562Y-17073484D02*
X7103515Y-17063960D01*
X7103515Y-17063960D02*
X7093991Y-17054436D01*
X7093991Y-17054436D02*
X7084467Y-17035389D01*
X7084467Y-17035389D02*
X7074943Y-16997293D01*
X7074943Y-16997293D02*
X7074943Y-16949674D01*
X7074943Y-16949674D02*
X7084467Y-16911579D01*
X7084467Y-16911579D02*
X7093991Y-16892531D01*
X7093991Y-16892531D02*
X7103515Y-16883008D01*
X7103515Y-16883008D02*
X7122562Y-16873484D01*
X7313039Y-16873484D02*
X7332086Y-16873484D01*
X7332086Y-16873484D02*
X7351134Y-16883008D01*
X7351134Y-16883008D02*
X7360658Y-16892531D01*
X7360658Y-16892531D02*
X7370182Y-16911579D01*
X7370182Y-16911579D02*
X7379705Y-16949674D01*
X7379705Y-16949674D02*
X7379705Y-16997293D01*
X7379705Y-16997293D02*
X7370182Y-17035389D01*
X7370182Y-17035389D02*
X7360658Y-17054436D01*
X7360658Y-17054436D02*
X7351134Y-17063960D01*
X7351134Y-17063960D02*
X7332086Y-17073484D01*
X7332086Y-17073484D02*
X7313039Y-17073484D01*
X7313039Y-17073484D02*
X7293991Y-17063960D01*
X7293991Y-17063960D02*
X7284467Y-17054436D01*
X7284467Y-17054436D02*
X7274943Y-17035389D01*
X7274943Y-17035389D02*
X7265420Y-16997293D01*
X7265420Y-16997293D02*
X7265420Y-16949674D01*
X7265420Y-16949674D02*
X7274943Y-16911579D01*
X7274943Y-16911579D02*
X7284467Y-16892531D01*
X7284467Y-16892531D02*
X7293991Y-16883008D01*
X7293991Y-16883008D02*
X7313039Y-16873484D01*
X7465420Y-17073484D02*
X7465420Y-16940150D01*
X7465420Y-16959198D02*
X7474943Y-16949674D01*
X7474943Y-16949674D02*
X7493991Y-16940150D01*
X7493991Y-16940150D02*
X7522563Y-16940150D01*
X7522563Y-16940150D02*
X7541610Y-16949674D01*
X7541610Y-16949674D02*
X7551134Y-16968722D01*
X7551134Y-16968722D02*
X7551134Y-17073484D01*
X7551134Y-16968722D02*
X7560658Y-16949674D01*
X7560658Y-16949674D02*
X7579705Y-16940150D01*
X7579705Y-16940150D02*
X7608277Y-16940150D01*
X7608277Y-16940150D02*
X7627324Y-16949674D01*
X7627324Y-16949674D02*
X7636848Y-16968722D01*
X7636848Y-16968722D02*
X7636848Y-17073484D01*
X7732086Y-17073484D02*
X7732086Y-16940150D01*
X7732086Y-16959198D02*
X7741610Y-16949674D01*
X7741610Y-16949674D02*
X7760658Y-16940150D01*
X7760658Y-16940150D02*
X7789229Y-16940150D01*
X7789229Y-16940150D02*
X7808277Y-16949674D01*
X7808277Y-16949674D02*
X7817801Y-16968722D01*
X7817801Y-16968722D02*
X7817801Y-17073484D01*
X7817801Y-16968722D02*
X7827324Y-16949674D01*
X7827324Y-16949674D02*
X7846372Y-16940150D01*
X7846372Y-16940150D02*
X7874943Y-16940150D01*
X7874943Y-16940150D02*
X7893991Y-16949674D01*
X7893991Y-16949674D02*
X7903515Y-16968722D01*
X7903515Y-16968722D02*
X7903515Y-17073484D01*
X8293991Y-16863960D02*
X8122563Y-17121103D01*
X8551134Y-16873484D02*
X8570182Y-16873484D01*
X8570182Y-16873484D02*
X8589229Y-16883008D01*
X8589229Y-16883008D02*
X8598753Y-16892531D01*
X8598753Y-16892531D02*
X8608277Y-16911579D01*
X8608277Y-16911579D02*
X8617801Y-16949674D01*
X8617801Y-16949674D02*
X8617801Y-16997293D01*
X8617801Y-16997293D02*
X8608277Y-17035389D01*
X8608277Y-17035389D02*
X8598753Y-17054436D01*
X8598753Y-17054436D02*
X8589229Y-17063960D01*
X8589229Y-17063960D02*
X8570182Y-17073484D01*
X8570182Y-17073484D02*
X8551134Y-17073484D01*
X8551134Y-17073484D02*
X8532087Y-17063960D01*
X8532087Y-17063960D02*
X8522563Y-17054436D01*
X8522563Y-17054436D02*
X8513039Y-17035389D01*
X8513039Y-17035389D02*
X8503515Y-16997293D01*
X8503515Y-16997293D02*
X8503515Y-16949674D01*
X8503515Y-16949674D02*
X8513039Y-16911579D01*
X8513039Y-16911579D02*
X8522563Y-16892531D01*
X8522563Y-16892531D02*
X8532087Y-16883008D01*
X8532087Y-16883008D02*
X8551134Y-16873484D01*
X8703515Y-17054436D02*
X8713039Y-17063960D01*
X8713039Y-17063960D02*
X8703515Y-17073484D01*
X8703515Y-17073484D02*
X8693991Y-17063960D01*
X8693991Y-17063960D02*
X8703515Y-17054436D01*
X8703515Y-17054436D02*
X8703515Y-17073484D01*
X8836848Y-16873484D02*
X8855896Y-16873484D01*
X8855896Y-16873484D02*
X8874944Y-16883008D01*
X8874944Y-16883008D02*
X8884468Y-16892531D01*
X8884468Y-16892531D02*
X8893991Y-16911579D01*
X8893991Y-16911579D02*
X8903515Y-16949674D01*
X8903515Y-16949674D02*
X8903515Y-16997293D01*
X8903515Y-16997293D02*
X8893991Y-17035389D01*
X8893991Y-17035389D02*
X8884468Y-17054436D01*
X8884468Y-17054436D02*
X8874944Y-17063960D01*
X8874944Y-17063960D02*
X8855896Y-17073484D01*
X8855896Y-17073484D02*
X8836848Y-17073484D01*
X8836848Y-17073484D02*
X8817801Y-17063960D01*
X8817801Y-17063960D02*
X8808277Y-17054436D01*
X8808277Y-17054436D02*
X8798753Y-17035389D01*
X8798753Y-17035389D02*
X8789229Y-16997293D01*
X8789229Y-16997293D02*
X8789229Y-16949674D01*
X8789229Y-16949674D02*
X8798753Y-16911579D01*
X8798753Y-16911579D02*
X8808277Y-16892531D01*
X8808277Y-16892531D02*
X8817801Y-16883008D01*
X8817801Y-16883008D02*
X8836848Y-16873484D01*
X8979706Y-16892531D02*
X8989229Y-16883008D01*
X8989229Y-16883008D02*
X9008277Y-16873484D01*
X9008277Y-16873484D02*
X9055896Y-16873484D01*
X9055896Y-16873484D02*
X9074944Y-16883008D01*
X9074944Y-16883008D02*
X9084468Y-16892531D01*
X9084468Y-16892531D02*
X9093991Y-16911579D01*
X9093991Y-16911579D02*
X9093991Y-16930627D01*
X9093991Y-16930627D02*
X9084468Y-16959198D01*
X9084468Y-16959198D02*
X8970182Y-17073484D01*
X8970182Y-17073484D02*
X9093991Y-17073484D01*
X9160658Y-16873484D02*
X9293991Y-16873484D01*
X9293991Y-16873484D02*
X9208277Y-17073484D01*
X9455896Y-16873484D02*
X9417801Y-16873484D01*
X9417801Y-16873484D02*
X9398753Y-16883008D01*
X9398753Y-16883008D02*
X9389229Y-16892531D01*
X9389229Y-16892531D02*
X9370182Y-16921103D01*
X9370182Y-16921103D02*
X9360658Y-16959198D01*
X9360658Y-16959198D02*
X9360658Y-17035389D01*
X9360658Y-17035389D02*
X9370182Y-17054436D01*
X9370182Y-17054436D02*
X9379706Y-17063960D01*
X9379706Y-17063960D02*
X9398753Y-17073484D01*
X9398753Y-17073484D02*
X9436849Y-17073484D01*
X9436849Y-17073484D02*
X9455896Y-17063960D01*
X9455896Y-17063960D02*
X9465420Y-17054436D01*
X9465420Y-17054436D02*
X9474944Y-17035389D01*
X9474944Y-17035389D02*
X9474944Y-16987770D01*
X9474944Y-16987770D02*
X9465420Y-16968722D01*
X9465420Y-16968722D02*
X9455896Y-16959198D01*
X9455896Y-16959198D02*
X9436849Y-16949674D01*
X9436849Y-16949674D02*
X9398753Y-16949674D01*
X9398753Y-16949674D02*
X9379706Y-16959198D01*
X9379706Y-16959198D02*
X9370182Y-16968722D01*
X9370182Y-16968722D02*
X9360658Y-16987770D01*
X9551134Y-16873484D02*
X9551134Y-16911579D01*
X9627325Y-16873484D02*
X9627325Y-16911579D01*
X9922563Y-17149674D02*
X9913039Y-17140150D01*
X9913039Y-17140150D02*
X9893991Y-17111579D01*
X9893991Y-17111579D02*
X9884468Y-17092531D01*
X9884468Y-17092531D02*
X9874944Y-17063960D01*
X9874944Y-17063960D02*
X9865420Y-17016341D01*
X9865420Y-17016341D02*
X9865420Y-16978246D01*
X9865420Y-16978246D02*
X9874944Y-16930627D01*
X9874944Y-16930627D02*
X9884468Y-16902055D01*
X9884468Y-16902055D02*
X9893991Y-16883008D01*
X9893991Y-16883008D02*
X9913039Y-16854436D01*
X9913039Y-16854436D02*
X9922563Y-16844912D01*
X9989230Y-16892531D02*
X9998753Y-16883008D01*
X9998753Y-16883008D02*
X10017801Y-16873484D01*
X10017801Y-16873484D02*
X10065420Y-16873484D01*
X10065420Y-16873484D02*
X10084468Y-16883008D01*
X10084468Y-16883008D02*
X10093991Y-16892531D01*
X10093991Y-16892531D02*
X10103515Y-16911579D01*
X10103515Y-16911579D02*
X10103515Y-16930627D01*
X10103515Y-16930627D02*
X10093991Y-16959198D01*
X10093991Y-16959198D02*
X9979706Y-17073484D01*
X9979706Y-17073484D02*
X10103515Y-17073484D01*
X10341611Y-17073484D02*
X10341611Y-16873484D01*
X10427325Y-17073484D02*
X10427325Y-16968722D01*
X10427325Y-16968722D02*
X10417801Y-16949674D01*
X10417801Y-16949674D02*
X10398753Y-16940150D01*
X10398753Y-16940150D02*
X10370182Y-16940150D01*
X10370182Y-16940150D02*
X10351134Y-16949674D01*
X10351134Y-16949674D02*
X10341611Y-16959198D01*
X10551134Y-17073484D02*
X10532087Y-17063960D01*
X10532087Y-17063960D02*
X10522563Y-17054436D01*
X10522563Y-17054436D02*
X10513039Y-17035389D01*
X10513039Y-17035389D02*
X10513039Y-16978246D01*
X10513039Y-16978246D02*
X10522563Y-16959198D01*
X10522563Y-16959198D02*
X10532087Y-16949674D01*
X10532087Y-16949674D02*
X10551134Y-16940150D01*
X10551134Y-16940150D02*
X10579706Y-16940150D01*
X10579706Y-16940150D02*
X10598753Y-16949674D01*
X10598753Y-16949674D02*
X10608277Y-16959198D01*
X10608277Y-16959198D02*
X10617801Y-16978246D01*
X10617801Y-16978246D02*
X10617801Y-17035389D01*
X10617801Y-17035389D02*
X10608277Y-17054436D01*
X10608277Y-17054436D02*
X10598753Y-17063960D01*
X10598753Y-17063960D02*
X10579706Y-17073484D01*
X10579706Y-17073484D02*
X10551134Y-17073484D01*
X10732087Y-17073484D02*
X10713039Y-17063960D01*
X10713039Y-17063960D02*
X10703515Y-17044912D01*
X10703515Y-17044912D02*
X10703515Y-16873484D01*
X10884468Y-17063960D02*
X10865420Y-17073484D01*
X10865420Y-17073484D02*
X10827325Y-17073484D01*
X10827325Y-17073484D02*
X10808277Y-17063960D01*
X10808277Y-17063960D02*
X10798753Y-17044912D01*
X10798753Y-17044912D02*
X10798753Y-16968722D01*
X10798753Y-16968722D02*
X10808277Y-16949674D01*
X10808277Y-16949674D02*
X10827325Y-16940150D01*
X10827325Y-16940150D02*
X10865420Y-16940150D01*
X10865420Y-16940150D02*
X10884468Y-16949674D01*
X10884468Y-16949674D02*
X10893992Y-16968722D01*
X10893992Y-16968722D02*
X10893992Y-16987770D01*
X10893992Y-16987770D02*
X10798753Y-17006817D01*
X10970182Y-17063960D02*
X10989230Y-17073484D01*
X10989230Y-17073484D02*
X11027325Y-17073484D01*
X11027325Y-17073484D02*
X11046373Y-17063960D01*
X11046373Y-17063960D02*
X11055896Y-17044912D01*
X11055896Y-17044912D02*
X11055896Y-17035389D01*
X11055896Y-17035389D02*
X11046373Y-17016341D01*
X11046373Y-17016341D02*
X11027325Y-17006817D01*
X11027325Y-17006817D02*
X10998753Y-17006817D01*
X10998753Y-17006817D02*
X10979706Y-16997293D01*
X10979706Y-16997293D02*
X10970182Y-16978246D01*
X10970182Y-16978246D02*
X10970182Y-16968722D01*
X10970182Y-16968722D02*
X10979706Y-16949674D01*
X10979706Y-16949674D02*
X10998753Y-16940150D01*
X10998753Y-16940150D02*
X11027325Y-16940150D01*
X11027325Y-16940150D02*
X11046373Y-16949674D01*
X11122563Y-17149674D02*
X11132087Y-17140150D01*
X11132087Y-17140150D02*
X11151134Y-17111579D01*
X11151134Y-17111579D02*
X11160658Y-17092531D01*
X11160658Y-17092531D02*
X11170182Y-17063960D01*
X11170182Y-17063960D02*
X11179706Y-17016341D01*
X11179706Y-17016341D02*
X11179706Y-16978246D01*
X11179706Y-16978246D02*
X11170182Y-16930627D01*
X11170182Y-16930627D02*
X11160658Y-16902055D01*
X11160658Y-16902055D02*
X11151134Y-16883008D01*
X11151134Y-16883008D02*
X11132087Y-16854436D01*
X11132087Y-16854436D02*
X11122563Y-16844912D01*
D12*
X6335784Y-17274285D02*
X6335784Y-17217716D01*
X6279215Y-17217716D01*
X6279215Y-17274285D01*
X6335784Y-17274285D01*
D11*
X6646372Y-17137484D02*
X6665420Y-17137484D01*
X6665420Y-17137484D02*
X6684467Y-17147008D01*
X6684467Y-17147008D02*
X6693991Y-17156531D01*
X6693991Y-17156531D02*
X6703515Y-17175579D01*
X6703515Y-17175579D02*
X6713039Y-17213674D01*
X6713039Y-17213674D02*
X6713039Y-17261293D01*
X6713039Y-17261293D02*
X6703515Y-17299389D01*
X6703515Y-17299389D02*
X6693991Y-17318436D01*
X6693991Y-17318436D02*
X6684467Y-17327960D01*
X6684467Y-17327960D02*
X6665420Y-17337484D01*
X6665420Y-17337484D02*
X6646372Y-17337484D01*
X6646372Y-17337484D02*
X6627324Y-17327960D01*
X6627324Y-17327960D02*
X6617801Y-17318436D01*
X6617801Y-17318436D02*
X6608277Y-17299389D01*
X6608277Y-17299389D02*
X6598753Y-17261293D01*
X6598753Y-17261293D02*
X6598753Y-17213674D01*
X6598753Y-17213674D02*
X6608277Y-17175579D01*
X6608277Y-17175579D02*
X6617801Y-17156531D01*
X6617801Y-17156531D02*
X6627324Y-17147008D01*
X6627324Y-17147008D02*
X6646372Y-17137484D01*
X6798753Y-17318436D02*
X6808277Y-17327960D01*
X6808277Y-17327960D02*
X6798753Y-17337484D01*
X6798753Y-17337484D02*
X6789229Y-17327960D01*
X6789229Y-17327960D02*
X6798753Y-17318436D01*
X6798753Y-17318436D02*
X6798753Y-17337484D01*
X6922562Y-17223198D02*
X6903515Y-17213674D01*
X6903515Y-17213674D02*
X6893991Y-17204150D01*
X6893991Y-17204150D02*
X6884467Y-17185103D01*
X6884467Y-17185103D02*
X6884467Y-17175579D01*
X6884467Y-17175579D02*
X6893991Y-17156531D01*
X6893991Y-17156531D02*
X6903515Y-17147008D01*
X6903515Y-17147008D02*
X6922562Y-17137484D01*
X6922562Y-17137484D02*
X6960658Y-17137484D01*
X6960658Y-17137484D02*
X6979705Y-17147008D01*
X6979705Y-17147008D02*
X6989229Y-17156531D01*
X6989229Y-17156531D02*
X6998753Y-17175579D01*
X6998753Y-17175579D02*
X6998753Y-17185103D01*
X6998753Y-17185103D02*
X6989229Y-17204150D01*
X6989229Y-17204150D02*
X6979705Y-17213674D01*
X6979705Y-17213674D02*
X6960658Y-17223198D01*
X6960658Y-17223198D02*
X6922562Y-17223198D01*
X6922562Y-17223198D02*
X6903515Y-17232722D01*
X6903515Y-17232722D02*
X6893991Y-17242246D01*
X6893991Y-17242246D02*
X6884467Y-17261293D01*
X6884467Y-17261293D02*
X6884467Y-17299389D01*
X6884467Y-17299389D02*
X6893991Y-17318436D01*
X6893991Y-17318436D02*
X6903515Y-17327960D01*
X6903515Y-17327960D02*
X6922562Y-17337484D01*
X6922562Y-17337484D02*
X6960658Y-17337484D01*
X6960658Y-17337484D02*
X6979705Y-17327960D01*
X6979705Y-17327960D02*
X6989229Y-17318436D01*
X6989229Y-17318436D02*
X6998753Y-17299389D01*
X6998753Y-17299389D02*
X6998753Y-17261293D01*
X6998753Y-17261293D02*
X6989229Y-17242246D01*
X6989229Y-17242246D02*
X6979705Y-17232722D01*
X6979705Y-17232722D02*
X6960658Y-17223198D01*
X7122562Y-17137484D02*
X7141610Y-17137484D01*
X7141610Y-17137484D02*
X7160658Y-17147008D01*
X7160658Y-17147008D02*
X7170182Y-17156531D01*
X7170182Y-17156531D02*
X7179705Y-17175579D01*
X7179705Y-17175579D02*
X7189229Y-17213674D01*
X7189229Y-17213674D02*
X7189229Y-17261293D01*
X7189229Y-17261293D02*
X7179705Y-17299389D01*
X7179705Y-17299389D02*
X7170182Y-17318436D01*
X7170182Y-17318436D02*
X7160658Y-17327960D01*
X7160658Y-17327960D02*
X7141610Y-17337484D01*
X7141610Y-17337484D02*
X7122562Y-17337484D01*
X7122562Y-17337484D02*
X7103515Y-17327960D01*
X7103515Y-17327960D02*
X7093991Y-17318436D01*
X7093991Y-17318436D02*
X7084467Y-17299389D01*
X7084467Y-17299389D02*
X7074943Y-17261293D01*
X7074943Y-17261293D02*
X7074943Y-17213674D01*
X7074943Y-17213674D02*
X7084467Y-17175579D01*
X7084467Y-17175579D02*
X7093991Y-17156531D01*
X7093991Y-17156531D02*
X7103515Y-17147008D01*
X7103515Y-17147008D02*
X7122562Y-17137484D01*
X7313039Y-17137484D02*
X7332086Y-17137484D01*
X7332086Y-17137484D02*
X7351134Y-17147008D01*
X7351134Y-17147008D02*
X7360658Y-17156531D01*
X7360658Y-17156531D02*
X7370182Y-17175579D01*
X7370182Y-17175579D02*
X7379705Y-17213674D01*
X7379705Y-17213674D02*
X7379705Y-17261293D01*
X7379705Y-17261293D02*
X7370182Y-17299389D01*
X7370182Y-17299389D02*
X7360658Y-17318436D01*
X7360658Y-17318436D02*
X7351134Y-17327960D01*
X7351134Y-17327960D02*
X7332086Y-17337484D01*
X7332086Y-17337484D02*
X7313039Y-17337484D01*
X7313039Y-17337484D02*
X7293991Y-17327960D01*
X7293991Y-17327960D02*
X7284467Y-17318436D01*
X7284467Y-17318436D02*
X7274943Y-17299389D01*
X7274943Y-17299389D02*
X7265420Y-17261293D01*
X7265420Y-17261293D02*
X7265420Y-17213674D01*
X7265420Y-17213674D02*
X7274943Y-17175579D01*
X7274943Y-17175579D02*
X7284467Y-17156531D01*
X7284467Y-17156531D02*
X7293991Y-17147008D01*
X7293991Y-17147008D02*
X7313039Y-17137484D01*
X7465420Y-17337484D02*
X7465420Y-17204150D01*
X7465420Y-17223198D02*
X7474943Y-17213674D01*
X7474943Y-17213674D02*
X7493991Y-17204150D01*
X7493991Y-17204150D02*
X7522563Y-17204150D01*
X7522563Y-17204150D02*
X7541610Y-17213674D01*
X7541610Y-17213674D02*
X7551134Y-17232722D01*
X7551134Y-17232722D02*
X7551134Y-17337484D01*
X7551134Y-17232722D02*
X7560658Y-17213674D01*
X7560658Y-17213674D02*
X7579705Y-17204150D01*
X7579705Y-17204150D02*
X7608277Y-17204150D01*
X7608277Y-17204150D02*
X7627324Y-17213674D01*
X7627324Y-17213674D02*
X7636848Y-17232722D01*
X7636848Y-17232722D02*
X7636848Y-17337484D01*
X7732086Y-17337484D02*
X7732086Y-17204150D01*
X7732086Y-17223198D02*
X7741610Y-17213674D01*
X7741610Y-17213674D02*
X7760658Y-17204150D01*
X7760658Y-17204150D02*
X7789229Y-17204150D01*
X7789229Y-17204150D02*
X7808277Y-17213674D01*
X7808277Y-17213674D02*
X7817801Y-17232722D01*
X7817801Y-17232722D02*
X7817801Y-17337484D01*
X7817801Y-17232722D02*
X7827324Y-17213674D01*
X7827324Y-17213674D02*
X7846372Y-17204150D01*
X7846372Y-17204150D02*
X7874943Y-17204150D01*
X7874943Y-17204150D02*
X7893991Y-17213674D01*
X7893991Y-17213674D02*
X7903515Y-17232722D01*
X7903515Y-17232722D02*
X7903515Y-17337484D01*
X8293991Y-17127960D02*
X8122563Y-17385103D01*
X8551134Y-17137484D02*
X8570182Y-17137484D01*
X8570182Y-17137484D02*
X8589229Y-17147008D01*
X8589229Y-17147008D02*
X8598753Y-17156531D01*
X8598753Y-17156531D02*
X8608277Y-17175579D01*
X8608277Y-17175579D02*
X8617801Y-17213674D01*
X8617801Y-17213674D02*
X8617801Y-17261293D01*
X8617801Y-17261293D02*
X8608277Y-17299389D01*
X8608277Y-17299389D02*
X8598753Y-17318436D01*
X8598753Y-17318436D02*
X8589229Y-17327960D01*
X8589229Y-17327960D02*
X8570182Y-17337484D01*
X8570182Y-17337484D02*
X8551134Y-17337484D01*
X8551134Y-17337484D02*
X8532087Y-17327960D01*
X8532087Y-17327960D02*
X8522563Y-17318436D01*
X8522563Y-17318436D02*
X8513039Y-17299389D01*
X8513039Y-17299389D02*
X8503515Y-17261293D01*
X8503515Y-17261293D02*
X8503515Y-17213674D01*
X8503515Y-17213674D02*
X8513039Y-17175579D01*
X8513039Y-17175579D02*
X8522563Y-17156531D01*
X8522563Y-17156531D02*
X8532087Y-17147008D01*
X8532087Y-17147008D02*
X8551134Y-17137484D01*
X8703515Y-17318436D02*
X8713039Y-17327960D01*
X8713039Y-17327960D02*
X8703515Y-17337484D01*
X8703515Y-17337484D02*
X8693991Y-17327960D01*
X8693991Y-17327960D02*
X8703515Y-17318436D01*
X8703515Y-17318436D02*
X8703515Y-17337484D01*
X8836848Y-17137484D02*
X8855896Y-17137484D01*
X8855896Y-17137484D02*
X8874944Y-17147008D01*
X8874944Y-17147008D02*
X8884468Y-17156531D01*
X8884468Y-17156531D02*
X8893991Y-17175579D01*
X8893991Y-17175579D02*
X8903515Y-17213674D01*
X8903515Y-17213674D02*
X8903515Y-17261293D01*
X8903515Y-17261293D02*
X8893991Y-17299389D01*
X8893991Y-17299389D02*
X8884468Y-17318436D01*
X8884468Y-17318436D02*
X8874944Y-17327960D01*
X8874944Y-17327960D02*
X8855896Y-17337484D01*
X8855896Y-17337484D02*
X8836848Y-17337484D01*
X8836848Y-17337484D02*
X8817801Y-17327960D01*
X8817801Y-17327960D02*
X8808277Y-17318436D01*
X8808277Y-17318436D02*
X8798753Y-17299389D01*
X8798753Y-17299389D02*
X8789229Y-17261293D01*
X8789229Y-17261293D02*
X8789229Y-17213674D01*
X8789229Y-17213674D02*
X8798753Y-17175579D01*
X8798753Y-17175579D02*
X8808277Y-17156531D01*
X8808277Y-17156531D02*
X8817801Y-17147008D01*
X8817801Y-17147008D02*
X8836848Y-17137484D01*
X8970182Y-17137484D02*
X9093991Y-17137484D01*
X9093991Y-17137484D02*
X9027325Y-17213674D01*
X9027325Y-17213674D02*
X9055896Y-17213674D01*
X9055896Y-17213674D02*
X9074944Y-17223198D01*
X9074944Y-17223198D02*
X9084468Y-17232722D01*
X9084468Y-17232722D02*
X9093991Y-17251770D01*
X9093991Y-17251770D02*
X9093991Y-17299389D01*
X9093991Y-17299389D02*
X9084468Y-17318436D01*
X9084468Y-17318436D02*
X9074944Y-17327960D01*
X9074944Y-17327960D02*
X9055896Y-17337484D01*
X9055896Y-17337484D02*
X8998753Y-17337484D01*
X8998753Y-17337484D02*
X8979706Y-17327960D01*
X8979706Y-17327960D02*
X8970182Y-17318436D01*
X9284468Y-17337484D02*
X9170182Y-17337484D01*
X9227325Y-17337484D02*
X9227325Y-17137484D01*
X9227325Y-17137484D02*
X9208277Y-17166055D01*
X9208277Y-17166055D02*
X9189229Y-17185103D01*
X9189229Y-17185103D02*
X9170182Y-17194627D01*
X9465420Y-17137484D02*
X9370182Y-17137484D01*
X9370182Y-17137484D02*
X9360658Y-17232722D01*
X9360658Y-17232722D02*
X9370182Y-17223198D01*
X9370182Y-17223198D02*
X9389229Y-17213674D01*
X9389229Y-17213674D02*
X9436849Y-17213674D01*
X9436849Y-17213674D02*
X9455896Y-17223198D01*
X9455896Y-17223198D02*
X9465420Y-17232722D01*
X9465420Y-17232722D02*
X9474944Y-17251770D01*
X9474944Y-17251770D02*
X9474944Y-17299389D01*
X9474944Y-17299389D02*
X9465420Y-17318436D01*
X9465420Y-17318436D02*
X9455896Y-17327960D01*
X9455896Y-17327960D02*
X9436849Y-17337484D01*
X9436849Y-17337484D02*
X9389229Y-17337484D01*
X9389229Y-17337484D02*
X9370182Y-17327960D01*
X9370182Y-17327960D02*
X9360658Y-17318436D01*
X9551134Y-17137484D02*
X9551134Y-17175579D01*
X9627325Y-17137484D02*
X9627325Y-17175579D01*
X9922563Y-17413674D02*
X9913039Y-17404150D01*
X9913039Y-17404150D02*
X9893991Y-17375579D01*
X9893991Y-17375579D02*
X9884468Y-17356531D01*
X9884468Y-17356531D02*
X9874944Y-17327960D01*
X9874944Y-17327960D02*
X9865420Y-17280341D01*
X9865420Y-17280341D02*
X9865420Y-17242246D01*
X9865420Y-17242246D02*
X9874944Y-17194627D01*
X9874944Y-17194627D02*
X9884468Y-17166055D01*
X9884468Y-17166055D02*
X9893991Y-17147008D01*
X9893991Y-17147008D02*
X9913039Y-17118436D01*
X9913039Y-17118436D02*
X9922563Y-17108912D01*
X10027325Y-17223198D02*
X10008277Y-17213674D01*
X10008277Y-17213674D02*
X9998753Y-17204150D01*
X9998753Y-17204150D02*
X9989230Y-17185103D01*
X9989230Y-17185103D02*
X9989230Y-17175579D01*
X9989230Y-17175579D02*
X9998753Y-17156531D01*
X9998753Y-17156531D02*
X10008277Y-17147008D01*
X10008277Y-17147008D02*
X10027325Y-17137484D01*
X10027325Y-17137484D02*
X10065420Y-17137484D01*
X10065420Y-17137484D02*
X10084468Y-17147008D01*
X10084468Y-17147008D02*
X10093991Y-17156531D01*
X10093991Y-17156531D02*
X10103515Y-17175579D01*
X10103515Y-17175579D02*
X10103515Y-17185103D01*
X10103515Y-17185103D02*
X10093991Y-17204150D01*
X10093991Y-17204150D02*
X10084468Y-17213674D01*
X10084468Y-17213674D02*
X10065420Y-17223198D01*
X10065420Y-17223198D02*
X10027325Y-17223198D01*
X10027325Y-17223198D02*
X10008277Y-17232722D01*
X10008277Y-17232722D02*
X9998753Y-17242246D01*
X9998753Y-17242246D02*
X9989230Y-17261293D01*
X9989230Y-17261293D02*
X9989230Y-17299389D01*
X9989230Y-17299389D02*
X9998753Y-17318436D01*
X9998753Y-17318436D02*
X10008277Y-17327960D01*
X10008277Y-17327960D02*
X10027325Y-17337484D01*
X10027325Y-17337484D02*
X10065420Y-17337484D01*
X10065420Y-17337484D02*
X10084468Y-17327960D01*
X10084468Y-17327960D02*
X10093991Y-17318436D01*
X10093991Y-17318436D02*
X10103515Y-17299389D01*
X10103515Y-17299389D02*
X10103515Y-17261293D01*
X10103515Y-17261293D02*
X10093991Y-17242246D01*
X10093991Y-17242246D02*
X10084468Y-17232722D01*
X10084468Y-17232722D02*
X10065420Y-17223198D01*
X10227325Y-17137484D02*
X10246372Y-17137484D01*
X10246372Y-17137484D02*
X10265420Y-17147008D01*
X10265420Y-17147008D02*
X10274944Y-17156531D01*
X10274944Y-17156531D02*
X10284468Y-17175579D01*
X10284468Y-17175579D02*
X10293991Y-17213674D01*
X10293991Y-17213674D02*
X10293991Y-17261293D01*
X10293991Y-17261293D02*
X10284468Y-17299389D01*
X10284468Y-17299389D02*
X10274944Y-17318436D01*
X10274944Y-17318436D02*
X10265420Y-17327960D01*
X10265420Y-17327960D02*
X10246372Y-17337484D01*
X10246372Y-17337484D02*
X10227325Y-17337484D01*
X10227325Y-17337484D02*
X10208277Y-17327960D01*
X10208277Y-17327960D02*
X10198753Y-17318436D01*
X10198753Y-17318436D02*
X10189230Y-17299389D01*
X10189230Y-17299389D02*
X10179706Y-17261293D01*
X10179706Y-17261293D02*
X10179706Y-17213674D01*
X10179706Y-17213674D02*
X10189230Y-17175579D01*
X10189230Y-17175579D02*
X10198753Y-17156531D01*
X10198753Y-17156531D02*
X10208277Y-17147008D01*
X10208277Y-17147008D02*
X10227325Y-17137484D01*
X10532087Y-17337484D02*
X10532087Y-17137484D01*
X10617801Y-17337484D02*
X10617801Y-17232722D01*
X10617801Y-17232722D02*
X10608277Y-17213674D01*
X10608277Y-17213674D02*
X10589230Y-17204150D01*
X10589230Y-17204150D02*
X10560658Y-17204150D01*
X10560658Y-17204150D02*
X10541611Y-17213674D01*
X10541611Y-17213674D02*
X10532087Y-17223198D01*
X10741611Y-17337484D02*
X10722563Y-17327960D01*
X10722563Y-17327960D02*
X10713039Y-17318436D01*
X10713039Y-17318436D02*
X10703515Y-17299389D01*
X10703515Y-17299389D02*
X10703515Y-17242246D01*
X10703515Y-17242246D02*
X10713039Y-17223198D01*
X10713039Y-17223198D02*
X10722563Y-17213674D01*
X10722563Y-17213674D02*
X10741611Y-17204150D01*
X10741611Y-17204150D02*
X10770182Y-17204150D01*
X10770182Y-17204150D02*
X10789230Y-17213674D01*
X10789230Y-17213674D02*
X10798753Y-17223198D01*
X10798753Y-17223198D02*
X10808277Y-17242246D01*
X10808277Y-17242246D02*
X10808277Y-17299389D01*
X10808277Y-17299389D02*
X10798753Y-17318436D01*
X10798753Y-17318436D02*
X10789230Y-17327960D01*
X10789230Y-17327960D02*
X10770182Y-17337484D01*
X10770182Y-17337484D02*
X10741611Y-17337484D01*
X10922563Y-17337484D02*
X10903515Y-17327960D01*
X10903515Y-17327960D02*
X10893992Y-17308912D01*
X10893992Y-17308912D02*
X10893992Y-17137484D01*
X11074944Y-17327960D02*
X11055896Y-17337484D01*
X11055896Y-17337484D02*
X11017801Y-17337484D01*
X11017801Y-17337484D02*
X10998753Y-17327960D01*
X10998753Y-17327960D02*
X10989230Y-17308912D01*
X10989230Y-17308912D02*
X10989230Y-17232722D01*
X10989230Y-17232722D02*
X10998753Y-17213674D01*
X10998753Y-17213674D02*
X11017801Y-17204150D01*
X11017801Y-17204150D02*
X11055896Y-17204150D01*
X11055896Y-17204150D02*
X11074944Y-17213674D01*
X11074944Y-17213674D02*
X11084468Y-17232722D01*
X11084468Y-17232722D02*
X11084468Y-17251770D01*
X11084468Y-17251770D02*
X10989230Y-17270817D01*
X11160658Y-17327960D02*
X11179706Y-17337484D01*
X11179706Y-17337484D02*
X11217801Y-17337484D01*
X11217801Y-17337484D02*
X11236849Y-17327960D01*
X11236849Y-17327960D02*
X11246372Y-17308912D01*
X11246372Y-17308912D02*
X11246372Y-17299389D01*
X11246372Y-17299389D02*
X11236849Y-17280341D01*
X11236849Y-17280341D02*
X11217801Y-17270817D01*
X11217801Y-17270817D02*
X11189230Y-17270817D01*
X11189230Y-17270817D02*
X11170182Y-17261293D01*
X11170182Y-17261293D02*
X11160658Y-17242246D01*
X11160658Y-17242246D02*
X11160658Y-17232722D01*
X11160658Y-17232722D02*
X11170182Y-17213674D01*
X11170182Y-17213674D02*
X11189230Y-17204150D01*
X11189230Y-17204150D02*
X11217801Y-17204150D01*
X11217801Y-17204150D02*
X11236849Y-17213674D01*
X11313039Y-17413674D02*
X11322563Y-17404150D01*
X11322563Y-17404150D02*
X11341611Y-17375579D01*
X11341611Y-17375579D02*
X11351134Y-17356531D01*
X11351134Y-17356531D02*
X11360658Y-17327960D01*
X11360658Y-17327960D02*
X11370182Y-17280341D01*
X11370182Y-17280341D02*
X11370182Y-17242246D01*
X11370182Y-17242246D02*
X11360658Y-17194627D01*
X11360658Y-17194627D02*
X11351134Y-17166055D01*
X11351134Y-17166055D02*
X11341611Y-17147008D01*
X11341611Y-17147008D02*
X11322563Y-17118436D01*
X11322563Y-17118436D02*
X11313039Y-17108912D01*
D12*
X6297500Y-17560000D02*
X6347500Y-17510000D01*
X6297500Y-17460000D01*
X6247500Y-17510000D01*
X6297500Y-17560000D01*
D11*
X6713039Y-17601484D02*
X6598753Y-17601484D01*
X6655896Y-17601484D02*
X6655896Y-17401484D01*
X6655896Y-17401484D02*
X6636848Y-17430055D01*
X6636848Y-17430055D02*
X6617801Y-17449103D01*
X6617801Y-17449103D02*
X6598753Y-17458627D01*
X6798753Y-17582436D02*
X6808277Y-17591960D01*
X6808277Y-17591960D02*
X6798753Y-17601484D01*
X6798753Y-17601484D02*
X6789229Y-17591960D01*
X6789229Y-17591960D02*
X6798753Y-17582436D01*
X6798753Y-17582436D02*
X6798753Y-17601484D01*
X6932086Y-17401484D02*
X6951134Y-17401484D01*
X6951134Y-17401484D02*
X6970182Y-17411008D01*
X6970182Y-17411008D02*
X6979705Y-17420531D01*
X6979705Y-17420531D02*
X6989229Y-17439579D01*
X6989229Y-17439579D02*
X6998753Y-17477674D01*
X6998753Y-17477674D02*
X6998753Y-17525293D01*
X6998753Y-17525293D02*
X6989229Y-17563389D01*
X6989229Y-17563389D02*
X6979705Y-17582436D01*
X6979705Y-17582436D02*
X6970182Y-17591960D01*
X6970182Y-17591960D02*
X6951134Y-17601484D01*
X6951134Y-17601484D02*
X6932086Y-17601484D01*
X6932086Y-17601484D02*
X6913039Y-17591960D01*
X6913039Y-17591960D02*
X6903515Y-17582436D01*
X6903515Y-17582436D02*
X6893991Y-17563389D01*
X6893991Y-17563389D02*
X6884467Y-17525293D01*
X6884467Y-17525293D02*
X6884467Y-17477674D01*
X6884467Y-17477674D02*
X6893991Y-17439579D01*
X6893991Y-17439579D02*
X6903515Y-17420531D01*
X6903515Y-17420531D02*
X6913039Y-17411008D01*
X6913039Y-17411008D02*
X6932086Y-17401484D01*
X7122562Y-17401484D02*
X7141610Y-17401484D01*
X7141610Y-17401484D02*
X7160658Y-17411008D01*
X7160658Y-17411008D02*
X7170182Y-17420531D01*
X7170182Y-17420531D02*
X7179705Y-17439579D01*
X7179705Y-17439579D02*
X7189229Y-17477674D01*
X7189229Y-17477674D02*
X7189229Y-17525293D01*
X7189229Y-17525293D02*
X7179705Y-17563389D01*
X7179705Y-17563389D02*
X7170182Y-17582436D01*
X7170182Y-17582436D02*
X7160658Y-17591960D01*
X7160658Y-17591960D02*
X7141610Y-17601484D01*
X7141610Y-17601484D02*
X7122562Y-17601484D01*
X7122562Y-17601484D02*
X7103515Y-17591960D01*
X7103515Y-17591960D02*
X7093991Y-17582436D01*
X7093991Y-17582436D02*
X7084467Y-17563389D01*
X7084467Y-17563389D02*
X7074943Y-17525293D01*
X7074943Y-17525293D02*
X7074943Y-17477674D01*
X7074943Y-17477674D02*
X7084467Y-17439579D01*
X7084467Y-17439579D02*
X7093991Y-17420531D01*
X7093991Y-17420531D02*
X7103515Y-17411008D01*
X7103515Y-17411008D02*
X7122562Y-17401484D01*
X7313039Y-17401484D02*
X7332086Y-17401484D01*
X7332086Y-17401484D02*
X7351134Y-17411008D01*
X7351134Y-17411008D02*
X7360658Y-17420531D01*
X7360658Y-17420531D02*
X7370182Y-17439579D01*
X7370182Y-17439579D02*
X7379705Y-17477674D01*
X7379705Y-17477674D02*
X7379705Y-17525293D01*
X7379705Y-17525293D02*
X7370182Y-17563389D01*
X7370182Y-17563389D02*
X7360658Y-17582436D01*
X7360658Y-17582436D02*
X7351134Y-17591960D01*
X7351134Y-17591960D02*
X7332086Y-17601484D01*
X7332086Y-17601484D02*
X7313039Y-17601484D01*
X7313039Y-17601484D02*
X7293991Y-17591960D01*
X7293991Y-17591960D02*
X7284467Y-17582436D01*
X7284467Y-17582436D02*
X7274943Y-17563389D01*
X7274943Y-17563389D02*
X7265420Y-17525293D01*
X7265420Y-17525293D02*
X7265420Y-17477674D01*
X7265420Y-17477674D02*
X7274943Y-17439579D01*
X7274943Y-17439579D02*
X7284467Y-17420531D01*
X7284467Y-17420531D02*
X7293991Y-17411008D01*
X7293991Y-17411008D02*
X7313039Y-17401484D01*
X7465420Y-17601484D02*
X7465420Y-17468150D01*
X7465420Y-17487198D02*
X7474943Y-17477674D01*
X7474943Y-17477674D02*
X7493991Y-17468150D01*
X7493991Y-17468150D02*
X7522563Y-17468150D01*
X7522563Y-17468150D02*
X7541610Y-17477674D01*
X7541610Y-17477674D02*
X7551134Y-17496722D01*
X7551134Y-17496722D02*
X7551134Y-17601484D01*
X7551134Y-17496722D02*
X7560658Y-17477674D01*
X7560658Y-17477674D02*
X7579705Y-17468150D01*
X7579705Y-17468150D02*
X7608277Y-17468150D01*
X7608277Y-17468150D02*
X7627324Y-17477674D01*
X7627324Y-17477674D02*
X7636848Y-17496722D01*
X7636848Y-17496722D02*
X7636848Y-17601484D01*
X7732086Y-17601484D02*
X7732086Y-17468150D01*
X7732086Y-17487198D02*
X7741610Y-17477674D01*
X7741610Y-17477674D02*
X7760658Y-17468150D01*
X7760658Y-17468150D02*
X7789229Y-17468150D01*
X7789229Y-17468150D02*
X7808277Y-17477674D01*
X7808277Y-17477674D02*
X7817801Y-17496722D01*
X7817801Y-17496722D02*
X7817801Y-17601484D01*
X7817801Y-17496722D02*
X7827324Y-17477674D01*
X7827324Y-17477674D02*
X7846372Y-17468150D01*
X7846372Y-17468150D02*
X7874943Y-17468150D01*
X7874943Y-17468150D02*
X7893991Y-17477674D01*
X7893991Y-17477674D02*
X7903515Y-17496722D01*
X7903515Y-17496722D02*
X7903515Y-17601484D01*
X8293991Y-17391960D02*
X8122563Y-17649103D01*
X8551134Y-17401484D02*
X8570182Y-17401484D01*
X8570182Y-17401484D02*
X8589229Y-17411008D01*
X8589229Y-17411008D02*
X8598753Y-17420531D01*
X8598753Y-17420531D02*
X8608277Y-17439579D01*
X8608277Y-17439579D02*
X8617801Y-17477674D01*
X8617801Y-17477674D02*
X8617801Y-17525293D01*
X8617801Y-17525293D02*
X8608277Y-17563389D01*
X8608277Y-17563389D02*
X8598753Y-17582436D01*
X8598753Y-17582436D02*
X8589229Y-17591960D01*
X8589229Y-17591960D02*
X8570182Y-17601484D01*
X8570182Y-17601484D02*
X8551134Y-17601484D01*
X8551134Y-17601484D02*
X8532087Y-17591960D01*
X8532087Y-17591960D02*
X8522563Y-17582436D01*
X8522563Y-17582436D02*
X8513039Y-17563389D01*
X8513039Y-17563389D02*
X8503515Y-17525293D01*
X8503515Y-17525293D02*
X8503515Y-17477674D01*
X8503515Y-17477674D02*
X8513039Y-17439579D01*
X8513039Y-17439579D02*
X8522563Y-17420531D01*
X8522563Y-17420531D02*
X8532087Y-17411008D01*
X8532087Y-17411008D02*
X8551134Y-17401484D01*
X8703515Y-17582436D02*
X8713039Y-17591960D01*
X8713039Y-17591960D02*
X8703515Y-17601484D01*
X8703515Y-17601484D02*
X8693991Y-17591960D01*
X8693991Y-17591960D02*
X8703515Y-17582436D01*
X8703515Y-17582436D02*
X8703515Y-17601484D01*
X8836848Y-17401484D02*
X8855896Y-17401484D01*
X8855896Y-17401484D02*
X8874944Y-17411008D01*
X8874944Y-17411008D02*
X8884468Y-17420531D01*
X8884468Y-17420531D02*
X8893991Y-17439579D01*
X8893991Y-17439579D02*
X8903515Y-17477674D01*
X8903515Y-17477674D02*
X8903515Y-17525293D01*
X8903515Y-17525293D02*
X8893991Y-17563389D01*
X8893991Y-17563389D02*
X8884468Y-17582436D01*
X8884468Y-17582436D02*
X8874944Y-17591960D01*
X8874944Y-17591960D02*
X8855896Y-17601484D01*
X8855896Y-17601484D02*
X8836848Y-17601484D01*
X8836848Y-17601484D02*
X8817801Y-17591960D01*
X8817801Y-17591960D02*
X8808277Y-17582436D01*
X8808277Y-17582436D02*
X8798753Y-17563389D01*
X8798753Y-17563389D02*
X8789229Y-17525293D01*
X8789229Y-17525293D02*
X8789229Y-17477674D01*
X8789229Y-17477674D02*
X8798753Y-17439579D01*
X8798753Y-17439579D02*
X8808277Y-17420531D01*
X8808277Y-17420531D02*
X8817801Y-17411008D01*
X8817801Y-17411008D02*
X8836848Y-17401484D01*
X8970182Y-17401484D02*
X9093991Y-17401484D01*
X9093991Y-17401484D02*
X9027325Y-17477674D01*
X9027325Y-17477674D02*
X9055896Y-17477674D01*
X9055896Y-17477674D02*
X9074944Y-17487198D01*
X9074944Y-17487198D02*
X9084468Y-17496722D01*
X9084468Y-17496722D02*
X9093991Y-17515770D01*
X9093991Y-17515770D02*
X9093991Y-17563389D01*
X9093991Y-17563389D02*
X9084468Y-17582436D01*
X9084468Y-17582436D02*
X9074944Y-17591960D01*
X9074944Y-17591960D02*
X9055896Y-17601484D01*
X9055896Y-17601484D02*
X8998753Y-17601484D01*
X8998753Y-17601484D02*
X8979706Y-17591960D01*
X8979706Y-17591960D02*
X8970182Y-17582436D01*
X9189229Y-17601484D02*
X9227325Y-17601484D01*
X9227325Y-17601484D02*
X9246372Y-17591960D01*
X9246372Y-17591960D02*
X9255896Y-17582436D01*
X9255896Y-17582436D02*
X9274944Y-17553865D01*
X9274944Y-17553865D02*
X9284468Y-17515770D01*
X9284468Y-17515770D02*
X9284468Y-17439579D01*
X9284468Y-17439579D02*
X9274944Y-17420531D01*
X9274944Y-17420531D02*
X9265420Y-17411008D01*
X9265420Y-17411008D02*
X9246372Y-17401484D01*
X9246372Y-17401484D02*
X9208277Y-17401484D01*
X9208277Y-17401484D02*
X9189229Y-17411008D01*
X9189229Y-17411008D02*
X9179706Y-17420531D01*
X9179706Y-17420531D02*
X9170182Y-17439579D01*
X9170182Y-17439579D02*
X9170182Y-17487198D01*
X9170182Y-17487198D02*
X9179706Y-17506246D01*
X9179706Y-17506246D02*
X9189229Y-17515770D01*
X9189229Y-17515770D02*
X9208277Y-17525293D01*
X9208277Y-17525293D02*
X9246372Y-17525293D01*
X9246372Y-17525293D02*
X9265420Y-17515770D01*
X9265420Y-17515770D02*
X9274944Y-17506246D01*
X9274944Y-17506246D02*
X9284468Y-17487198D01*
X9455896Y-17468150D02*
X9455896Y-17601484D01*
X9408277Y-17391960D02*
X9360658Y-17534817D01*
X9360658Y-17534817D02*
X9484468Y-17534817D01*
X9551134Y-17401484D02*
X9551134Y-17439579D01*
X9627325Y-17401484D02*
X9627325Y-17439579D01*
X9922563Y-17677674D02*
X9913039Y-17668150D01*
X9913039Y-17668150D02*
X9893991Y-17639579D01*
X9893991Y-17639579D02*
X9884468Y-17620531D01*
X9884468Y-17620531D02*
X9874944Y-17591960D01*
X9874944Y-17591960D02*
X9865420Y-17544341D01*
X9865420Y-17544341D02*
X9865420Y-17506246D01*
X9865420Y-17506246D02*
X9874944Y-17458627D01*
X9874944Y-17458627D02*
X9884468Y-17430055D01*
X9884468Y-17430055D02*
X9893991Y-17411008D01*
X9893991Y-17411008D02*
X9913039Y-17382436D01*
X9913039Y-17382436D02*
X9922563Y-17372912D01*
X10084468Y-17468150D02*
X10084468Y-17601484D01*
X10036849Y-17391960D02*
X9989230Y-17534817D01*
X9989230Y-17534817D02*
X10113039Y-17534817D01*
X10227325Y-17401484D02*
X10246372Y-17401484D01*
X10246372Y-17401484D02*
X10265420Y-17411008D01*
X10265420Y-17411008D02*
X10274944Y-17420531D01*
X10274944Y-17420531D02*
X10284468Y-17439579D01*
X10284468Y-17439579D02*
X10293991Y-17477674D01*
X10293991Y-17477674D02*
X10293991Y-17525293D01*
X10293991Y-17525293D02*
X10284468Y-17563389D01*
X10284468Y-17563389D02*
X10274944Y-17582436D01*
X10274944Y-17582436D02*
X10265420Y-17591960D01*
X10265420Y-17591960D02*
X10246372Y-17601484D01*
X10246372Y-17601484D02*
X10227325Y-17601484D01*
X10227325Y-17601484D02*
X10208277Y-17591960D01*
X10208277Y-17591960D02*
X10198753Y-17582436D01*
X10198753Y-17582436D02*
X10189230Y-17563389D01*
X10189230Y-17563389D02*
X10179706Y-17525293D01*
X10179706Y-17525293D02*
X10179706Y-17477674D01*
X10179706Y-17477674D02*
X10189230Y-17439579D01*
X10189230Y-17439579D02*
X10198753Y-17420531D01*
X10198753Y-17420531D02*
X10208277Y-17411008D01*
X10208277Y-17411008D02*
X10227325Y-17401484D01*
X10532087Y-17601484D02*
X10532087Y-17401484D01*
X10617801Y-17601484D02*
X10617801Y-17496722D01*
X10617801Y-17496722D02*
X10608277Y-17477674D01*
X10608277Y-17477674D02*
X10589230Y-17468150D01*
X10589230Y-17468150D02*
X10560658Y-17468150D01*
X10560658Y-17468150D02*
X10541611Y-17477674D01*
X10541611Y-17477674D02*
X10532087Y-17487198D01*
X10741611Y-17601484D02*
X10722563Y-17591960D01*
X10722563Y-17591960D02*
X10713039Y-17582436D01*
X10713039Y-17582436D02*
X10703515Y-17563389D01*
X10703515Y-17563389D02*
X10703515Y-17506246D01*
X10703515Y-17506246D02*
X10713039Y-17487198D01*
X10713039Y-17487198D02*
X10722563Y-17477674D01*
X10722563Y-17477674D02*
X10741611Y-17468150D01*
X10741611Y-17468150D02*
X10770182Y-17468150D01*
X10770182Y-17468150D02*
X10789230Y-17477674D01*
X10789230Y-17477674D02*
X10798753Y-17487198D01*
X10798753Y-17487198D02*
X10808277Y-17506246D01*
X10808277Y-17506246D02*
X10808277Y-17563389D01*
X10808277Y-17563389D02*
X10798753Y-17582436D01*
X10798753Y-17582436D02*
X10789230Y-17591960D01*
X10789230Y-17591960D02*
X10770182Y-17601484D01*
X10770182Y-17601484D02*
X10741611Y-17601484D01*
X10922563Y-17601484D02*
X10903515Y-17591960D01*
X10903515Y-17591960D02*
X10893992Y-17572912D01*
X10893992Y-17572912D02*
X10893992Y-17401484D01*
X11074944Y-17591960D02*
X11055896Y-17601484D01*
X11055896Y-17601484D02*
X11017801Y-17601484D01*
X11017801Y-17601484D02*
X10998753Y-17591960D01*
X10998753Y-17591960D02*
X10989230Y-17572912D01*
X10989230Y-17572912D02*
X10989230Y-17496722D01*
X10989230Y-17496722D02*
X10998753Y-17477674D01*
X10998753Y-17477674D02*
X11017801Y-17468150D01*
X11017801Y-17468150D02*
X11055896Y-17468150D01*
X11055896Y-17468150D02*
X11074944Y-17477674D01*
X11074944Y-17477674D02*
X11084468Y-17496722D01*
X11084468Y-17496722D02*
X11084468Y-17515770D01*
X11084468Y-17515770D02*
X10989230Y-17534817D01*
X11160658Y-17591960D02*
X11179706Y-17601484D01*
X11179706Y-17601484D02*
X11217801Y-17601484D01*
X11217801Y-17601484D02*
X11236849Y-17591960D01*
X11236849Y-17591960D02*
X11246372Y-17572912D01*
X11246372Y-17572912D02*
X11246372Y-17563389D01*
X11246372Y-17563389D02*
X11236849Y-17544341D01*
X11236849Y-17544341D02*
X11217801Y-17534817D01*
X11217801Y-17534817D02*
X11189230Y-17534817D01*
X11189230Y-17534817D02*
X11170182Y-17525293D01*
X11170182Y-17525293D02*
X11160658Y-17506246D01*
X11160658Y-17506246D02*
X11160658Y-17496722D01*
X11160658Y-17496722D02*
X11170182Y-17477674D01*
X11170182Y-17477674D02*
X11189230Y-17468150D01*
X11189230Y-17468150D02*
X11217801Y-17468150D01*
X11217801Y-17468150D02*
X11236849Y-17477674D01*
X11313039Y-17677674D02*
X11322563Y-17668150D01*
X11322563Y-17668150D02*
X11341611Y-17639579D01*
X11341611Y-17639579D02*
X11351134Y-17620531D01*
X11351134Y-17620531D02*
X11360658Y-17591960D01*
X11360658Y-17591960D02*
X11370182Y-17544341D01*
X11370182Y-17544341D02*
X11370182Y-17506246D01*
X11370182Y-17506246D02*
X11360658Y-17458627D01*
X11360658Y-17458627D02*
X11351134Y-17430055D01*
X11351134Y-17430055D02*
X11341611Y-17411008D01*
X11341611Y-17411008D02*
X11322563Y-17382436D01*
X11322563Y-17382436D02*
X11313039Y-17372912D01*
M02*
