%TF.GenerationSoftware,KiCad,Pcbnew,9.0.2+dfsg-1*%
%TF.CreationDate,2026-09-05T20:41:29+02:00*%
%TF.ProjectId,base-card,62617365-2d63-4617-9264-2e6b69636164,rev?*%
%TF.SameCoordinates,Original*%
%TF.FileFunction,Copper,L2,Bot*%
%TF.FilePolarity,Positive*%
%FSLAX46Y46*%
G04 Gerber Fmt 4.6, Leading zero omitted, Abs format (unit mm)*
G04 Created by KiCad (PCBNEW 9.0.2+dfsg-1) date 2026-09-05 20:41:29*
%MOMM*%
%LPD*%
G01*
G04 APERTURE LIST*
%TA.AperFunction,ComponentPad*%
%ADD10C,1.700000*%
%TD*%
%TA.AperFunction,ComponentPad*%
%ADD11R,1.700000X1.700000*%
%TD*%
%TA.AperFunction,Conductor*%
%ADD12C,1.000000*%
%TD*%
%ADD13C,0.350000*%
G04 APERTURE END LIST*
D10*
%TO.P,J1,1,Vss*%
%TO.N,GND*%
X88900000Y-67855000D03*
%TO.P,J1,2,SYNC*%
%TO.N,unconnected-(J1-SYNC-Pad2)*%
X91440000Y-67855000D03*
%TO.P,J1,3,VP/*%
%TO.N,unconnected-(J1-VP{slash}-Pad3)*%
X93980000Y-67855000D03*
%TO.P,J1,4,+5V*%
%TO.N,+5V*%
X96520000Y-67855000D03*
%TO.P,J1,5,A0*%
%TO.N,unconnected-(J1-A0-Pad5)*%
X99060000Y-67855000D03*
%TO.P,J1,6,A1*%
%TO.N,unconnected-(J1-A1-Pad6)*%
X101600000Y-67855000D03*
%TO.P,J1,7,A2*%
%TO.N,unconnected-(J1-A2-Pad7)*%
X104140000Y-67855000D03*
%TO.P,J1,8,A3*%
%TO.N,unconnected-(J1-A3-Pad8)*%
X106680000Y-67855000D03*
%TO.P,J1,9,A4*%
%TO.N,unconnected-(J1-A4-Pad9)*%
X109220000Y-67855000D03*
%TO.P,J1,10,A5*%
%TO.N,unconnected-(J1-A5-Pad10)*%
X111760000Y-67855000D03*
%TO.P,J1,11,A6*%
%TO.N,unconnected-(J1-A6-Pad11)*%
X114300000Y-67855000D03*
%TO.P,J1,12,A7*%
%TO.N,unconnected-(J1-A7-Pad12)*%
X116840000Y-67855000D03*
%TO.P,J1,13,A8*%
%TO.N,unconnected-(J1-A8-Pad13)*%
X119380000Y-67855000D03*
%TO.P,J1,14,A9*%
%TO.N,unconnected-(J1-A9-Pad14)*%
X121920000Y-67855000D03*
%TO.P,J1,15,A10*%
%TO.N,unconnected-(J1-A10-Pad15)*%
X124460000Y-67855000D03*
%TO.P,J1,16,A11*%
%TO.N,unconnected-(J1-A11-Pad16)*%
X127000000Y-67855000D03*
%TO.P,J1,17,A12*%
%TO.N,unconnected-(J1-A12-Pad17)*%
X129540000Y-67855000D03*
%TO.P,J1,18,A13*%
%TO.N,unconnected-(J1-A13-Pad18)*%
X132080000Y-67855000D03*
%TO.P,J1,19,A14*%
%TO.N,unconnected-(J1-A14-Pad19)*%
X134620000Y-67855000D03*
%TO.P,J1,20,A15*%
%TO.N,unconnected-(J1-A15-Pad20)*%
X137160000Y-67855000D03*
%TO.P,J1,21,D0*%
%TO.N,unconnected-(J1-D0-Pad21)*%
X137160000Y-70395000D03*
%TO.P,J1,22,D1*%
%TO.N,unconnected-(J1-D1-Pad22)*%
X134620000Y-70395000D03*
%TO.P,J1,23,D2*%
%TO.N,unconnected-(J1-D2-Pad23)*%
X132080000Y-70395000D03*
%TO.P,J1,24,D3*%
%TO.N,unconnected-(J1-D3-Pad24)*%
X129540000Y-70395000D03*
%TO.P,J1,25,D4*%
%TO.N,unconnected-(J1-D4-Pad25)*%
X127000000Y-70395000D03*
%TO.P,J1,26,D5*%
%TO.N,unconnected-(J1-D5-Pad26)*%
X124460000Y-70395000D03*
%TO.P,J1,27,D6*%
%TO.N,unconnected-(J1-D6-Pad27)*%
X121920000Y-70395000D03*
%TO.P,J1,28,D7*%
%TO.N,unconnected-(J1-D7-Pad28)*%
X119380000Y-70395000D03*
%TO.P,J1,29,RW/*%
%TO.N,unconnected-(J1-RW{slash}-Pad29)*%
X116840000Y-70395000D03*
%TO.P,J1,30,NC*%
%TO.N,unconnected-(J1-NC-Pad30)*%
X114300000Y-70395000D03*
%TO.P,J1,31,BE*%
%TO.N,unconnected-(J1-BE-Pad31)*%
X111760000Y-70395000D03*
%TO.P,J1,32,IRQ/*%
%TO.N,unconnected-(J1-IRQ{slash}-Pad32)*%
X109220000Y-70395000D03*
%TO.P,J1,33,NMI/*%
%TO.N,unconnected-(J1-NMI{slash}-Pad33)*%
X106680000Y-70395000D03*
%TO.P,J1,34,RES/*%
%TO.N,unconnected-(J1-RES{slash}-Pad34)*%
X104140000Y-70395000D03*
%TO.P,J1,35,RAM/*%
%TO.N,unconnected-(J1-RAM{slash}-Pad35)*%
X101600000Y-70395000D03*
%TO.P,J1,36,ROM/*%
%TO.N,unconnected-(J1-ROM{slash}-Pad36)*%
X99060000Y-70395000D03*
%TO.P,J1,37,+5V*%
%TO.N,+5V*%
X96520000Y-70395000D03*
%TO.P,J1,38,ACC/*%
%TO.N,unconnected-(J1-ACC{slash}-Pad38)*%
X93980000Y-70395000D03*
%TO.P,J1,39,CLK*%
%TO.N,unconnected-(J1-CLK-Pad39)*%
X91440000Y-70395000D03*
D11*
%TO.P,J1,40,Vss*%
%TO.N,GND*%
X88900000Y-70395000D03*
%TD*%
D12*
%TO.N,GND*%
X88900000Y-67855000D02*
X88900000Y-70395000D01*
%TO.N,+5V*%
X96520000Y-67855000D02*
X96520000Y-70395000D01*
%TD*%
%TA.AperFunction,Conductor*%
%TO.N,GND*%
G36*
X90015270Y-68616717D02*
G01*
X90015270Y-68616716D01*
X90054622Y-68562555D01*
X90059232Y-68553507D01*
X90107205Y-68502709D01*
X90175025Y-68485912D01*
X90241161Y-68508447D01*
X90280204Y-68553504D01*
X90284949Y-68562817D01*
X90409890Y-68734786D01*
X90560213Y-68885109D01*
X90732182Y-69010050D01*
X90740946Y-69014516D01*
X90791742Y-69062491D01*
X90808536Y-69130312D01*
X90785998Y-69196447D01*
X90740946Y-69235484D01*
X90732182Y-69239949D01*
X90560215Y-69364889D01*
X90446285Y-69478819D01*
X90384962Y-69512303D01*
X90315270Y-69507319D01*
X90259337Y-69465447D01*
X90242422Y-69434470D01*
X90193354Y-69302913D01*
X90193350Y-69302906D01*
X90107190Y-69187812D01*
X90107187Y-69187809D01*
X89992093Y-69101649D01*
X89992086Y-69101645D01*
X89857380Y-69051403D01*
X89857373Y-69051401D01*
X89774555Y-69042497D01*
X89774884Y-69039431D01*
X89757875Y-69040330D01*
X89698803Y-69007356D01*
X89029408Y-68337962D01*
X89092993Y-68320925D01*
X89207007Y-68255099D01*
X89300099Y-68162007D01*
X89365925Y-68047993D01*
X89382962Y-67984409D01*
X90015270Y-68616717D01*
G37*
%TD.AperFunction*%
%TA.AperFunction,Conductor*%
G36*
X162637539Y-64020185D02*
G01*
X162683294Y-64072989D01*
X162694500Y-64124500D01*
X162694500Y-162570500D01*
X162674815Y-162637539D01*
X162622011Y-162683294D01*
X162570500Y-162694500D01*
X64124500Y-162694500D01*
X64057461Y-162674815D01*
X64011706Y-162622011D01*
X64000500Y-162570500D01*
X64000500Y-67748753D01*
X87550000Y-67748753D01*
X87550000Y-67961246D01*
X87583242Y-68171127D01*
X87583242Y-68171130D01*
X87648904Y-68373217D01*
X87745375Y-68562550D01*
X87784728Y-68616716D01*
X88417037Y-67984408D01*
X88434075Y-68047993D01*
X88499901Y-68162007D01*
X88592993Y-68255099D01*
X88707007Y-68320925D01*
X88770590Y-68337962D01*
X88101195Y-69007356D01*
X88039872Y-69040841D01*
X88025167Y-69039924D01*
X88025444Y-69042497D01*
X87942626Y-69051401D01*
X87942619Y-69051403D01*
X87807913Y-69101645D01*
X87807906Y-69101649D01*
X87692812Y-69187809D01*
X87692809Y-69187812D01*
X87606649Y-69302906D01*
X87606645Y-69302913D01*
X87556403Y-69437620D01*
X87556401Y-69437627D01*
X87550000Y-69497155D01*
X87550000Y-70145000D01*
X88466988Y-70145000D01*
X88434075Y-70202007D01*
X88400000Y-70329174D01*
X88400000Y-70460826D01*
X88434075Y-70587993D01*
X88466988Y-70645000D01*
X87550000Y-70645000D01*
X87550000Y-71292844D01*
X87556401Y-71352372D01*
X87556403Y-71352379D01*
X87606645Y-71487086D01*
X87606649Y-71487093D01*
X87692809Y-71602187D01*
X87692812Y-71602190D01*
X87807906Y-71688350D01*
X87807913Y-71688354D01*
X87942620Y-71738596D01*
X87942627Y-71738598D01*
X88002155Y-71744999D01*
X88002172Y-71745000D01*
X88650000Y-71745000D01*
X88650000Y-70828012D01*
X88707007Y-70860925D01*
X88834174Y-70895000D01*
X88965826Y-70895000D01*
X89092993Y-70860925D01*
X89150000Y-70828012D01*
X89150000Y-71745000D01*
X89797828Y-71745000D01*
X89797844Y-71744999D01*
X89857372Y-71738598D01*
X89857379Y-71738596D01*
X89992086Y-71688354D01*
X89992093Y-71688350D01*
X90107187Y-71602190D01*
X90107190Y-71602187D01*
X90193350Y-71487093D01*
X90193354Y-71487086D01*
X90242422Y-71355529D01*
X90284293Y-71299595D01*
X90349757Y-71275178D01*
X90418030Y-71290030D01*
X90446285Y-71311181D01*
X90560213Y-71425109D01*
X90732179Y-71550048D01*
X90732181Y-71550049D01*
X90732184Y-71550051D01*
X90921588Y-71646557D01*
X91123757Y-71712246D01*
X91333713Y-71745500D01*
X91333714Y-71745500D01*
X91546286Y-71745500D01*
X91546287Y-71745500D01*
X91756243Y-71712246D01*
X91958412Y-71646557D01*
X92147816Y-71550051D01*
X92234471Y-71487093D01*
X92319786Y-71425109D01*
X92319788Y-71425106D01*
X92319792Y-71425104D01*
X92470104Y-71274792D01*
X92470106Y-71274788D01*
X92470109Y-71274786D01*
X92595048Y-71102820D01*
X92595047Y-71102820D01*
X92595051Y-71102816D01*
X92599514Y-71094054D01*
X92647488Y-71043259D01*
X92715308Y-71026463D01*
X92781444Y-71048999D01*
X92820486Y-71094056D01*
X92824951Y-71102820D01*
X92949890Y-71274786D01*
X93100213Y-71425109D01*
X93272179Y-71550048D01*
X93272181Y-71550049D01*
X93272184Y-71550051D01*
X93461588Y-71646557D01*
X93663757Y-71712246D01*
X93873713Y-71745500D01*
X93873714Y-71745500D01*
X94086286Y-71745500D01*
X94086287Y-71745500D01*
X94296243Y-71712246D01*
X94498412Y-71646557D01*
X94687816Y-71550051D01*
X94774471Y-71487093D01*
X94859786Y-71425109D01*
X94859788Y-71425106D01*
X94859792Y-71425104D01*
X95010104Y-71274792D01*
X95010106Y-71274788D01*
X95010109Y-71274786D01*
X95135048Y-71102820D01*
X95135047Y-71102820D01*
X95135051Y-71102816D01*
X95139514Y-71094054D01*
X95187488Y-71043259D01*
X95255308Y-71026463D01*
X95321444Y-71048999D01*
X95360486Y-71094056D01*
X95364951Y-71102820D01*
X95489890Y-71274786D01*
X95640213Y-71425109D01*
X95812179Y-71550048D01*
X95812181Y-71550049D01*
X95812184Y-71550051D01*
X96001588Y-71646557D01*
X96203757Y-71712246D01*
X96413713Y-71745500D01*
X96413714Y-71745500D01*
X96626286Y-71745500D01*
X96626287Y-71745500D01*
X96836243Y-71712246D01*
X97038412Y-71646557D01*
X97227816Y-71550051D01*
X97314471Y-71487093D01*
X97399786Y-71425109D01*
X97399788Y-71425106D01*
X97399792Y-71425104D01*
X97550104Y-71274792D01*
X97550106Y-71274788D01*
X97550109Y-71274786D01*
X97675048Y-71102820D01*
X97675047Y-71102820D01*
X97675051Y-71102816D01*
X97679514Y-71094054D01*
X97727488Y-71043259D01*
X97795308Y-71026463D01*
X97861444Y-71048999D01*
X97900486Y-71094056D01*
X97904951Y-71102820D01*
X98029890Y-71274786D01*
X98180213Y-71425109D01*
X98352179Y-71550048D01*
X98352181Y-71550049D01*
X98352184Y-71550051D01*
X98541588Y-71646557D01*
X98743757Y-71712246D01*
X98953713Y-71745500D01*
X98953714Y-71745500D01*
X99166286Y-71745500D01*
X99166287Y-71745500D01*
X99376243Y-71712246D01*
X99578412Y-71646557D01*
X99767816Y-71550051D01*
X99854471Y-71487093D01*
X99939786Y-71425109D01*
X99939788Y-71425106D01*
X99939792Y-71425104D01*
X100090104Y-71274792D01*
X100090106Y-71274788D01*
X100090109Y-71274786D01*
X100215048Y-71102820D01*
X100215047Y-71102820D01*
X100215051Y-71102816D01*
X100219514Y-71094054D01*
X100267488Y-71043259D01*
X100335308Y-71026463D01*
X100401444Y-71048999D01*
X100440486Y-71094056D01*
X100444951Y-71102820D01*
X100569890Y-71274786D01*
X100720213Y-71425109D01*
X100892179Y-71550048D01*
X100892181Y-71550049D01*
X100892184Y-71550051D01*
X101081588Y-71646557D01*
X101283757Y-71712246D01*
X101493713Y-71745500D01*
X101493714Y-71745500D01*
X101706286Y-71745500D01*
X101706287Y-71745500D01*
X101916243Y-71712246D01*
X102118412Y-71646557D01*
X102307816Y-71550051D01*
X102394471Y-71487093D01*
X102479786Y-71425109D01*
X102479788Y-71425106D01*
X102479792Y-71425104D01*
X102630104Y-71274792D01*
X102630106Y-71274788D01*
X102630109Y-71274786D01*
X102755048Y-71102820D01*
X102755047Y-71102820D01*
X102755051Y-71102816D01*
X102759514Y-71094054D01*
X102807488Y-71043259D01*
X102875308Y-71026463D01*
X102941444Y-71048999D01*
X102980486Y-71094056D01*
X102984951Y-71102820D01*
X103109890Y-71274786D01*
X103260213Y-71425109D01*
X103432179Y-71550048D01*
X103432181Y-71550049D01*
X103432184Y-71550051D01*
X103621588Y-71646557D01*
X103823757Y-71712246D01*
X104033713Y-71745500D01*
X104033714Y-71745500D01*
X104246286Y-71745500D01*
X104246287Y-71745500D01*
X104456243Y-71712246D01*
X104658412Y-71646557D01*
X104847816Y-71550051D01*
X104934471Y-71487093D01*
X105019786Y-71425109D01*
X105019788Y-71425106D01*
X105019792Y-71425104D01*
X105170104Y-71274792D01*
X105170106Y-71274788D01*
X105170109Y-71274786D01*
X105295048Y-71102820D01*
X105295047Y-71102820D01*
X105295051Y-71102816D01*
X105299514Y-71094054D01*
X105347488Y-71043259D01*
X105415308Y-71026463D01*
X105481444Y-71048999D01*
X105520486Y-71094056D01*
X105524951Y-71102820D01*
X105649890Y-71274786D01*
X105800213Y-71425109D01*
X105972179Y-71550048D01*
X105972181Y-71550049D01*
X105972184Y-71550051D01*
X106161588Y-71646557D01*
X106363757Y-71712246D01*
X106573713Y-71745500D01*
X106573714Y-71745500D01*
X106786286Y-71745500D01*
X106786287Y-71745500D01*
X106996243Y-71712246D01*
X107198412Y-71646557D01*
X107387816Y-71550051D01*
X107474471Y-71487093D01*
X107559786Y-71425109D01*
X107559788Y-71425106D01*
X107559792Y-71425104D01*
X107710104Y-71274792D01*
X107710106Y-71274788D01*
X107710109Y-71274786D01*
X107835048Y-71102820D01*
X107835047Y-71102820D01*
X107835051Y-71102816D01*
X107839514Y-71094054D01*
X107887488Y-71043259D01*
X107955308Y-71026463D01*
X108021444Y-71048999D01*
X108060486Y-71094056D01*
X108064951Y-71102820D01*
X108189890Y-71274786D01*
X108340213Y-71425109D01*
X108512179Y-71550048D01*
X108512181Y-71550049D01*
X108512184Y-71550051D01*
X108701588Y-71646557D01*
X108903757Y-71712246D01*
X109113713Y-71745500D01*
X109113714Y-71745500D01*
X109326286Y-71745500D01*
X109326287Y-71745500D01*
X109536243Y-71712246D01*
X109738412Y-71646557D01*
X109927816Y-71550051D01*
X110014471Y-71487093D01*
X110099786Y-71425109D01*
X110099788Y-71425106D01*
X110099792Y-71425104D01*
X110250104Y-71274792D01*
X110250106Y-71274788D01*
X110250109Y-71274786D01*
X110375048Y-71102820D01*
X110375047Y-71102820D01*
X110375051Y-71102816D01*
X110379514Y-71094054D01*
X110427488Y-71043259D01*
X110495308Y-71026463D01*
X110561444Y-71048999D01*
X110600486Y-71094056D01*
X110604951Y-71102820D01*
X110729890Y-71274786D01*
X110880213Y-71425109D01*
X111052179Y-71550048D01*
X111052181Y-71550049D01*
X111052184Y-71550051D01*
X111241588Y-71646557D01*
X111443757Y-71712246D01*
X111653713Y-71745500D01*
X111653714Y-71745500D01*
X111866286Y-71745500D01*
X111866287Y-71745500D01*
X112076243Y-71712246D01*
X112278412Y-71646557D01*
X112467816Y-71550051D01*
X112554471Y-71487093D01*
X112639786Y-71425109D01*
X112639788Y-71425106D01*
X112639792Y-71425104D01*
X112790104Y-71274792D01*
X112790106Y-71274788D01*
X112790109Y-71274786D01*
X112915048Y-71102820D01*
X112915047Y-71102820D01*
X112915051Y-71102816D01*
X112919514Y-71094054D01*
X112967488Y-71043259D01*
X113035308Y-71026463D01*
X113101444Y-71048999D01*
X113140486Y-71094056D01*
X113144951Y-71102820D01*
X113269890Y-71274786D01*
X113420213Y-71425109D01*
X113592179Y-71550048D01*
X113592181Y-71550049D01*
X113592184Y-71550051D01*
X113781588Y-71646557D01*
X113983757Y-71712246D01*
X114193713Y-71745500D01*
X114193714Y-71745500D01*
X114406286Y-71745500D01*
X114406287Y-71745500D01*
X114616243Y-71712246D01*
X114818412Y-71646557D01*
X115007816Y-71550051D01*
X115094471Y-71487093D01*
X115179786Y-71425109D01*
X115179788Y-71425106D01*
X115179792Y-71425104D01*
X115330104Y-71274792D01*
X115330106Y-71274788D01*
X115330109Y-71274786D01*
X115455048Y-71102820D01*
X115455047Y-71102820D01*
X115455051Y-71102816D01*
X115459514Y-71094054D01*
X115507488Y-71043259D01*
X115575308Y-71026463D01*
X115641444Y-71048999D01*
X115680486Y-71094056D01*
X115684951Y-71102820D01*
X115809890Y-71274786D01*
X115960213Y-71425109D01*
X116132179Y-71550048D01*
X116132181Y-71550049D01*
X116132184Y-71550051D01*
X116321588Y-71646557D01*
X116523757Y-71712246D01*
X116733713Y-71745500D01*
X116733714Y-71745500D01*
X116946286Y-71745500D01*
X116946287Y-71745500D01*
X117156243Y-71712246D01*
X117358412Y-71646557D01*
X117547816Y-71550051D01*
X117634471Y-71487093D01*
X117719786Y-71425109D01*
X117719788Y-71425106D01*
X117719792Y-71425104D01*
X117870104Y-71274792D01*
X117870106Y-71274788D01*
X117870109Y-71274786D01*
X117995048Y-71102820D01*
X117995047Y-71102820D01*
X117995051Y-71102816D01*
X117999514Y-71094054D01*
X118047488Y-71043259D01*
X118115308Y-71026463D01*
X118181444Y-71048999D01*
X118220486Y-71094056D01*
X118224951Y-71102820D01*
X118349890Y-71274786D01*
X118500213Y-71425109D01*
X118672179Y-71550048D01*
X118672181Y-71550049D01*
X118672184Y-71550051D01*
X118861588Y-71646557D01*
X119063757Y-71712246D01*
X119273713Y-71745500D01*
X119273714Y-71745500D01*
X119486286Y-71745500D01*
X119486287Y-71745500D01*
X119696243Y-71712246D01*
X119898412Y-71646557D01*
X120087816Y-71550051D01*
X120174471Y-71487093D01*
X120259786Y-71425109D01*
X120259788Y-71425106D01*
X120259792Y-71425104D01*
X120410104Y-71274792D01*
X120410106Y-71274788D01*
X120410109Y-71274786D01*
X120535048Y-71102820D01*
X120535047Y-71102820D01*
X120535051Y-71102816D01*
X120539514Y-71094054D01*
X120587488Y-71043259D01*
X120655308Y-71026463D01*
X120721444Y-71048999D01*
X120760486Y-71094056D01*
X120764951Y-71102820D01*
X120889890Y-71274786D01*
X121040213Y-71425109D01*
X121212179Y-71550048D01*
X121212181Y-71550049D01*
X121212184Y-71550051D01*
X121401588Y-71646557D01*
X121603757Y-71712246D01*
X121813713Y-71745500D01*
X121813714Y-71745500D01*
X122026286Y-71745500D01*
X122026287Y-71745500D01*
X122236243Y-71712246D01*
X122438412Y-71646557D01*
X122627816Y-71550051D01*
X122714471Y-71487093D01*
X122799786Y-71425109D01*
X122799788Y-71425106D01*
X122799792Y-71425104D01*
X122950104Y-71274792D01*
X122950106Y-71274788D01*
X122950109Y-71274786D01*
X123075048Y-71102820D01*
X123075047Y-71102820D01*
X123075051Y-71102816D01*
X123079514Y-71094054D01*
X123127488Y-71043259D01*
X123195308Y-71026463D01*
X123261444Y-71048999D01*
X123300486Y-71094056D01*
X123304951Y-71102820D01*
X123429890Y-71274786D01*
X123580213Y-71425109D01*
X123752179Y-71550048D01*
X123752181Y-71550049D01*
X123752184Y-71550051D01*
X123941588Y-71646557D01*
X124143757Y-71712246D01*
X124353713Y-71745500D01*
X124353714Y-71745500D01*
X124566286Y-71745500D01*
X124566287Y-71745500D01*
X124776243Y-71712246D01*
X124978412Y-71646557D01*
X125167816Y-71550051D01*
X125254471Y-71487093D01*
X125339786Y-71425109D01*
X125339788Y-71425106D01*
X125339792Y-71425104D01*
X125490104Y-71274792D01*
X125490106Y-71274788D01*
X125490109Y-71274786D01*
X125615048Y-71102820D01*
X125615047Y-71102820D01*
X125615051Y-71102816D01*
X125619514Y-71094054D01*
X125667488Y-71043259D01*
X125735308Y-71026463D01*
X125801444Y-71048999D01*
X125840486Y-71094056D01*
X125844951Y-71102820D01*
X125969890Y-71274786D01*
X126120213Y-71425109D01*
X126292179Y-71550048D01*
X126292181Y-71550049D01*
X126292184Y-71550051D01*
X126481588Y-71646557D01*
X126683757Y-71712246D01*
X126893713Y-71745500D01*
X126893714Y-71745500D01*
X127106286Y-71745500D01*
X127106287Y-71745500D01*
X127316243Y-71712246D01*
X127518412Y-71646557D01*
X127707816Y-71550051D01*
X127794471Y-71487093D01*
X127879786Y-71425109D01*
X127879788Y-71425106D01*
X127879792Y-71425104D01*
X128030104Y-71274792D01*
X128030106Y-71274788D01*
X128030109Y-71274786D01*
X128155048Y-71102820D01*
X128155047Y-71102820D01*
X128155051Y-71102816D01*
X128159514Y-71094054D01*
X128207488Y-71043259D01*
X128275308Y-71026463D01*
X128341444Y-71048999D01*
X128380486Y-71094056D01*
X128384951Y-71102820D01*
X128509890Y-71274786D01*
X128660213Y-71425109D01*
X128832179Y-71550048D01*
X128832181Y-71550049D01*
X128832184Y-71550051D01*
X129021588Y-71646557D01*
X129223757Y-71712246D01*
X129433713Y-71745500D01*
X129433714Y-71745500D01*
X129646286Y-71745500D01*
X129646287Y-71745500D01*
X129856243Y-71712246D01*
X130058412Y-71646557D01*
X130247816Y-71550051D01*
X130334471Y-71487093D01*
X130419786Y-71425109D01*
X130419788Y-71425106D01*
X130419792Y-71425104D01*
X130570104Y-71274792D01*
X130570106Y-71274788D01*
X130570109Y-71274786D01*
X130695048Y-71102820D01*
X130695047Y-71102820D01*
X130695051Y-71102816D01*
X130699514Y-71094054D01*
X130747488Y-71043259D01*
X130815308Y-71026463D01*
X130881444Y-71048999D01*
X130920486Y-71094056D01*
X130924951Y-71102820D01*
X131049890Y-71274786D01*
X131200213Y-71425109D01*
X131372179Y-71550048D01*
X131372181Y-71550049D01*
X131372184Y-71550051D01*
X131561588Y-71646557D01*
X131763757Y-71712246D01*
X131973713Y-71745500D01*
X131973714Y-71745500D01*
X132186286Y-71745500D01*
X132186287Y-71745500D01*
X132396243Y-71712246D01*
X132598412Y-71646557D01*
X132787816Y-71550051D01*
X132874471Y-71487093D01*
X132959786Y-71425109D01*
X132959788Y-71425106D01*
X132959792Y-71425104D01*
X133110104Y-71274792D01*
X133110106Y-71274788D01*
X133110109Y-71274786D01*
X133235048Y-71102820D01*
X133235047Y-71102820D01*
X133235051Y-71102816D01*
X133239514Y-71094054D01*
X133287488Y-71043259D01*
X133355308Y-71026463D01*
X133421444Y-71048999D01*
X133460486Y-71094056D01*
X133464951Y-71102820D01*
X133589890Y-71274786D01*
X133740213Y-71425109D01*
X133912179Y-71550048D01*
X133912181Y-71550049D01*
X133912184Y-71550051D01*
X134101588Y-71646557D01*
X134303757Y-71712246D01*
X134513713Y-71745500D01*
X134513714Y-71745500D01*
X134726286Y-71745500D01*
X134726287Y-71745500D01*
X134936243Y-71712246D01*
X135138412Y-71646557D01*
X135327816Y-71550051D01*
X135414471Y-71487093D01*
X135499786Y-71425109D01*
X135499788Y-71425106D01*
X135499792Y-71425104D01*
X135650104Y-71274792D01*
X135650106Y-71274788D01*
X135650109Y-71274786D01*
X135775048Y-71102820D01*
X135775047Y-71102820D01*
X135775051Y-71102816D01*
X135779514Y-71094054D01*
X135827488Y-71043259D01*
X135895308Y-71026463D01*
X135961444Y-71048999D01*
X136000486Y-71094056D01*
X136004951Y-71102820D01*
X136129890Y-71274786D01*
X136280213Y-71425109D01*
X136452179Y-71550048D01*
X136452181Y-71550049D01*
X136452184Y-71550051D01*
X136641588Y-71646557D01*
X136843757Y-71712246D01*
X137053713Y-71745500D01*
X137053714Y-71745500D01*
X137266286Y-71745500D01*
X137266287Y-71745500D01*
X137476243Y-71712246D01*
X137678412Y-71646557D01*
X137867816Y-71550051D01*
X137954471Y-71487093D01*
X138039786Y-71425109D01*
X138039788Y-71425106D01*
X138039792Y-71425104D01*
X138190104Y-71274792D01*
X138190106Y-71274788D01*
X138190109Y-71274786D01*
X138315048Y-71102820D01*
X138315047Y-71102820D01*
X138315051Y-71102816D01*
X138411557Y-70913412D01*
X138477246Y-70711243D01*
X138510500Y-70501287D01*
X138510500Y-70288713D01*
X138477246Y-70078757D01*
X138411557Y-69876588D01*
X138315051Y-69687184D01*
X138315049Y-69687181D01*
X138315048Y-69687179D01*
X138190109Y-69515213D01*
X138039786Y-69364890D01*
X137867820Y-69239951D01*
X137867115Y-69239591D01*
X137859054Y-69235485D01*
X137808259Y-69187512D01*
X137791463Y-69119692D01*
X137813999Y-69053556D01*
X137859054Y-69014515D01*
X137867816Y-69010051D01*
X137889789Y-68994086D01*
X138039786Y-68885109D01*
X138039788Y-68885106D01*
X138039792Y-68885104D01*
X138190104Y-68734792D01*
X138190106Y-68734788D01*
X138190109Y-68734786D01*
X138315048Y-68562820D01*
X138315050Y-68562817D01*
X138315051Y-68562816D01*
X138411557Y-68373412D01*
X138477246Y-68171243D01*
X138510500Y-67961287D01*
X138510500Y-67748713D01*
X138477246Y-67538757D01*
X138411557Y-67336588D01*
X138315051Y-67147184D01*
X138315049Y-67147181D01*
X138315048Y-67147179D01*
X138190109Y-66975213D01*
X138039786Y-66824890D01*
X137867820Y-66699951D01*
X137678414Y-66603444D01*
X137678413Y-66603443D01*
X137678412Y-66603443D01*
X137476243Y-66537754D01*
X137476241Y-66537753D01*
X137476240Y-66537753D01*
X137314957Y-66512208D01*
X137266287Y-66504500D01*
X137053713Y-66504500D01*
X137005042Y-66512208D01*
X136843760Y-66537753D01*
X136641585Y-66603444D01*
X136452179Y-66699951D01*
X136280213Y-66824890D01*
X136129890Y-66975213D01*
X136004949Y-67147182D01*
X136000484Y-67155946D01*
X135952509Y-67206742D01*
X135884688Y-67223536D01*
X135818553Y-67200998D01*
X135779516Y-67155946D01*
X135775050Y-67147182D01*
X135650109Y-66975213D01*
X135499786Y-66824890D01*
X135327820Y-66699951D01*
X135138414Y-66603444D01*
X135138413Y-66603443D01*
X135138412Y-66603443D01*
X134936243Y-66537754D01*
X134936241Y-66537753D01*
X134936240Y-66537753D01*
X134774957Y-66512208D01*
X134726287Y-66504500D01*
X134513713Y-66504500D01*
X134465042Y-66512208D01*
X134303760Y-66537753D01*
X134101585Y-66603444D01*
X133912179Y-66699951D01*
X133740213Y-66824890D01*
X133589890Y-66975213D01*
X133464949Y-67147182D01*
X133460484Y-67155946D01*
X133412509Y-67206742D01*
X133344688Y-67223536D01*
X133278553Y-67200998D01*
X133239516Y-67155946D01*
X133235050Y-67147182D01*
X133110109Y-66975213D01*
X132959786Y-66824890D01*
X132787820Y-66699951D01*
X132598414Y-66603444D01*
X132598413Y-66603443D01*
X132598412Y-66603443D01*
X132396243Y-66537754D01*
X132396241Y-66537753D01*
X132396240Y-66537753D01*
X132234957Y-66512208D01*
X132186287Y-66504500D01*
X131973713Y-66504500D01*
X131925042Y-66512208D01*
X131763760Y-66537753D01*
X131561585Y-66603444D01*
X131372179Y-66699951D01*
X131200213Y-66824890D01*
X131049890Y-66975213D01*
X130924949Y-67147182D01*
X130920484Y-67155946D01*
X130872509Y-67206742D01*
X130804688Y-67223536D01*
X130738553Y-67200998D01*
X130699516Y-67155946D01*
X130695050Y-67147182D01*
X130570109Y-66975213D01*
X130419786Y-66824890D01*
X130247820Y-66699951D01*
X130058414Y-66603444D01*
X130058413Y-66603443D01*
X130058412Y-66603443D01*
X129856243Y-66537754D01*
X129856241Y-66537753D01*
X129856240Y-66537753D01*
X129694957Y-66512208D01*
X129646287Y-66504500D01*
X129433713Y-66504500D01*
X129385042Y-66512208D01*
X129223760Y-66537753D01*
X129021585Y-66603444D01*
X128832179Y-66699951D01*
X128660213Y-66824890D01*
X128509890Y-66975213D01*
X128384949Y-67147182D01*
X128380484Y-67155946D01*
X128332509Y-67206742D01*
X128264688Y-67223536D01*
X128198553Y-67200998D01*
X128159516Y-67155946D01*
X128155050Y-67147182D01*
X128030109Y-66975213D01*
X127879786Y-66824890D01*
X127707820Y-66699951D01*
X127518414Y-66603444D01*
X127518413Y-66603443D01*
X127518412Y-66603443D01*
X127316243Y-66537754D01*
X127316241Y-66537753D01*
X127316240Y-66537753D01*
X127154957Y-66512208D01*
X127106287Y-66504500D01*
X126893713Y-66504500D01*
X126845042Y-66512208D01*
X126683760Y-66537753D01*
X126481585Y-66603444D01*
X126292179Y-66699951D01*
X126120213Y-66824890D01*
X125969890Y-66975213D01*
X125844949Y-67147182D01*
X125840484Y-67155946D01*
X125792509Y-67206742D01*
X125724688Y-67223536D01*
X125658553Y-67200998D01*
X125619516Y-67155946D01*
X125615050Y-67147182D01*
X125490109Y-66975213D01*
X125339786Y-66824890D01*
X125167820Y-66699951D01*
X124978414Y-66603444D01*
X124978413Y-66603443D01*
X124978412Y-66603443D01*
X124776243Y-66537754D01*
X124776241Y-66537753D01*
X124776240Y-66537753D01*
X124614957Y-66512208D01*
X124566287Y-66504500D01*
X124353713Y-66504500D01*
X124305042Y-66512208D01*
X124143760Y-66537753D01*
X123941585Y-66603444D01*
X123752179Y-66699951D01*
X123580213Y-66824890D01*
X123429890Y-66975213D01*
X123304949Y-67147182D01*
X123300484Y-67155946D01*
X123252509Y-67206742D01*
X123184688Y-67223536D01*
X123118553Y-67200998D01*
X123079516Y-67155946D01*
X123075050Y-67147182D01*
X122950109Y-66975213D01*
X122799786Y-66824890D01*
X122627820Y-66699951D01*
X122438414Y-66603444D01*
X122438413Y-66603443D01*
X122438412Y-66603443D01*
X122236243Y-66537754D01*
X122236241Y-66537753D01*
X122236240Y-66537753D01*
X122074957Y-66512208D01*
X122026287Y-66504500D01*
X121813713Y-66504500D01*
X121765042Y-66512208D01*
X121603760Y-66537753D01*
X121401585Y-66603444D01*
X121212179Y-66699951D01*
X121040213Y-66824890D01*
X120889890Y-66975213D01*
X120764949Y-67147182D01*
X120760484Y-67155946D01*
X120712509Y-67206742D01*
X120644688Y-67223536D01*
X120578553Y-67200998D01*
X120539516Y-67155946D01*
X120535050Y-67147182D01*
X120410109Y-66975213D01*
X120259786Y-66824890D01*
X120087820Y-66699951D01*
X119898414Y-66603444D01*
X119898413Y-66603443D01*
X119898412Y-66603443D01*
X119696243Y-66537754D01*
X119696241Y-66537753D01*
X119696240Y-66537753D01*
X119534957Y-66512208D01*
X119486287Y-66504500D01*
X119273713Y-66504500D01*
X119225042Y-66512208D01*
X119063760Y-66537753D01*
X118861585Y-66603444D01*
X118672179Y-66699951D01*
X118500213Y-66824890D01*
X118349890Y-66975213D01*
X118224949Y-67147182D01*
X118220484Y-67155946D01*
X118172509Y-67206742D01*
X118104688Y-67223536D01*
X118038553Y-67200998D01*
X117999516Y-67155946D01*
X117995050Y-67147182D01*
X117870109Y-66975213D01*
X117719786Y-66824890D01*
X117547820Y-66699951D01*
X117358414Y-66603444D01*
X117358413Y-66603443D01*
X117358412Y-66603443D01*
X117156243Y-66537754D01*
X117156241Y-66537753D01*
X117156240Y-66537753D01*
X116994957Y-66512208D01*
X116946287Y-66504500D01*
X116733713Y-66504500D01*
X116685042Y-66512208D01*
X116523760Y-66537753D01*
X116321585Y-66603444D01*
X116132179Y-66699951D01*
X115960213Y-66824890D01*
X115809890Y-66975213D01*
X115684949Y-67147182D01*
X115680484Y-67155946D01*
X115632509Y-67206742D01*
X115564688Y-67223536D01*
X115498553Y-67200998D01*
X115459516Y-67155946D01*
X115455050Y-67147182D01*
X115330109Y-66975213D01*
X115179786Y-66824890D01*
X115007820Y-66699951D01*
X114818414Y-66603444D01*
X114818413Y-66603443D01*
X114818412Y-66603443D01*
X114616243Y-66537754D01*
X114616241Y-66537753D01*
X114616240Y-66537753D01*
X114454957Y-66512208D01*
X114406287Y-66504500D01*
X114193713Y-66504500D01*
X114145042Y-66512208D01*
X113983760Y-66537753D01*
X113781585Y-66603444D01*
X113592179Y-66699951D01*
X113420213Y-66824890D01*
X113269890Y-66975213D01*
X113144949Y-67147182D01*
X113140484Y-67155946D01*
X113092509Y-67206742D01*
X113024688Y-67223536D01*
X112958553Y-67200998D01*
X112919516Y-67155946D01*
X112915050Y-67147182D01*
X112790109Y-66975213D01*
X112639786Y-66824890D01*
X112467820Y-66699951D01*
X112278414Y-66603444D01*
X112278413Y-66603443D01*
X112278412Y-66603443D01*
X112076243Y-66537754D01*
X112076241Y-66537753D01*
X112076240Y-66537753D01*
X111914957Y-66512208D01*
X111866287Y-66504500D01*
X111653713Y-66504500D01*
X111605042Y-66512208D01*
X111443760Y-66537753D01*
X111241585Y-66603444D01*
X111052179Y-66699951D01*
X110880213Y-66824890D01*
X110729890Y-66975213D01*
X110604949Y-67147182D01*
X110600484Y-67155946D01*
X110552509Y-67206742D01*
X110484688Y-67223536D01*
X110418553Y-67200998D01*
X110379516Y-67155946D01*
X110375050Y-67147182D01*
X110250109Y-66975213D01*
X110099786Y-66824890D01*
X109927820Y-66699951D01*
X109738414Y-66603444D01*
X109738413Y-66603443D01*
X109738412Y-66603443D01*
X109536243Y-66537754D01*
X109536241Y-66537753D01*
X109536240Y-66537753D01*
X109374957Y-66512208D01*
X109326287Y-66504500D01*
X109113713Y-66504500D01*
X109065042Y-66512208D01*
X108903760Y-66537753D01*
X108701585Y-66603444D01*
X108512179Y-66699951D01*
X108340213Y-66824890D01*
X108189890Y-66975213D01*
X108064949Y-67147182D01*
X108060484Y-67155946D01*
X108012509Y-67206742D01*
X107944688Y-67223536D01*
X107878553Y-67200998D01*
X107839516Y-67155946D01*
X107835050Y-67147182D01*
X107710109Y-66975213D01*
X107559786Y-66824890D01*
X107387820Y-66699951D01*
X107198414Y-66603444D01*
X107198413Y-66603443D01*
X107198412Y-66603443D01*
X106996243Y-66537754D01*
X106996241Y-66537753D01*
X106996240Y-66537753D01*
X106834957Y-66512208D01*
X106786287Y-66504500D01*
X106573713Y-66504500D01*
X106525042Y-66512208D01*
X106363760Y-66537753D01*
X106161585Y-66603444D01*
X105972179Y-66699951D01*
X105800213Y-66824890D01*
X105649890Y-66975213D01*
X105524949Y-67147182D01*
X105520484Y-67155946D01*
X105472509Y-67206742D01*
X105404688Y-67223536D01*
X105338553Y-67200998D01*
X105299516Y-67155946D01*
X105295050Y-67147182D01*
X105170109Y-66975213D01*
X105019786Y-66824890D01*
X104847820Y-66699951D01*
X104658414Y-66603444D01*
X104658413Y-66603443D01*
X104658412Y-66603443D01*
X104456243Y-66537754D01*
X104456241Y-66537753D01*
X104456240Y-66537753D01*
X104294957Y-66512208D01*
X104246287Y-66504500D01*
X104033713Y-66504500D01*
X103985042Y-66512208D01*
X103823760Y-66537753D01*
X103621585Y-66603444D01*
X103432179Y-66699951D01*
X103260213Y-66824890D01*
X103109890Y-66975213D01*
X102984949Y-67147182D01*
X102980484Y-67155946D01*
X102932509Y-67206742D01*
X102864688Y-67223536D01*
X102798553Y-67200998D01*
X102759516Y-67155946D01*
X102755050Y-67147182D01*
X102630109Y-66975213D01*
X102479786Y-66824890D01*
X102307820Y-66699951D01*
X102118414Y-66603444D01*
X102118413Y-66603443D01*
X102118412Y-66603443D01*
X101916243Y-66537754D01*
X101916241Y-66537753D01*
X101916240Y-66537753D01*
X101754957Y-66512208D01*
X101706287Y-66504500D01*
X101493713Y-66504500D01*
X101445042Y-66512208D01*
X101283760Y-66537753D01*
X101081585Y-66603444D01*
X100892179Y-66699951D01*
X100720213Y-66824890D01*
X100569890Y-66975213D01*
X100444949Y-67147182D01*
X100440484Y-67155946D01*
X100392509Y-67206742D01*
X100324688Y-67223536D01*
X100258553Y-67200998D01*
X100219516Y-67155946D01*
X100215050Y-67147182D01*
X100090109Y-66975213D01*
X99939786Y-66824890D01*
X99767820Y-66699951D01*
X99578414Y-66603444D01*
X99578413Y-66603443D01*
X99578412Y-66603443D01*
X99376243Y-66537754D01*
X99376241Y-66537753D01*
X99376240Y-66537753D01*
X99214957Y-66512208D01*
X99166287Y-66504500D01*
X98953713Y-66504500D01*
X98905042Y-66512208D01*
X98743760Y-66537753D01*
X98541585Y-66603444D01*
X98352179Y-66699951D01*
X98180213Y-66824890D01*
X98029890Y-66975213D01*
X97904949Y-67147182D01*
X97900484Y-67155946D01*
X97852509Y-67206742D01*
X97784688Y-67223536D01*
X97718553Y-67200998D01*
X97679516Y-67155946D01*
X97675050Y-67147182D01*
X97550109Y-66975213D01*
X97399786Y-66824890D01*
X97227820Y-66699951D01*
X97038414Y-66603444D01*
X97038413Y-66603443D01*
X97038412Y-66603443D01*
X96836243Y-66537754D01*
X96836241Y-66537753D01*
X96836240Y-66537753D01*
X96674957Y-66512208D01*
X96626287Y-66504500D01*
X96413713Y-66504500D01*
X96365042Y-66512208D01*
X96203760Y-66537753D01*
X96001585Y-66603444D01*
X95812179Y-66699951D01*
X95640213Y-66824890D01*
X95489890Y-66975213D01*
X95364949Y-67147182D01*
X95360484Y-67155946D01*
X95312509Y-67206742D01*
X95244688Y-67223536D01*
X95178553Y-67200998D01*
X95139516Y-67155946D01*
X95135050Y-67147182D01*
X95010109Y-66975213D01*
X94859786Y-66824890D01*
X94687820Y-66699951D01*
X94498414Y-66603444D01*
X94498413Y-66603443D01*
X94498412Y-66603443D01*
X94296243Y-66537754D01*
X94296241Y-66537753D01*
X94296240Y-66537753D01*
X94134957Y-66512208D01*
X94086287Y-66504500D01*
X93873713Y-66504500D01*
X93825042Y-66512208D01*
X93663760Y-66537753D01*
X93461585Y-66603444D01*
X93272179Y-66699951D01*
X93100213Y-66824890D01*
X92949890Y-66975213D01*
X92824949Y-67147182D01*
X92820484Y-67155946D01*
X92772509Y-67206742D01*
X92704688Y-67223536D01*
X92638553Y-67200998D01*
X92599516Y-67155946D01*
X92595050Y-67147182D01*
X92470109Y-66975213D01*
X92319786Y-66824890D01*
X92147820Y-66699951D01*
X91958414Y-66603444D01*
X91958413Y-66603443D01*
X91958412Y-66603443D01*
X91756243Y-66537754D01*
X91756241Y-66537753D01*
X91756240Y-66537753D01*
X91594957Y-66512208D01*
X91546287Y-66504500D01*
X91333713Y-66504500D01*
X91285042Y-66512208D01*
X91123760Y-66537753D01*
X90921585Y-66603444D01*
X90732179Y-66699951D01*
X90560213Y-66824890D01*
X90409890Y-66975213D01*
X90284949Y-67147182D01*
X90280202Y-67156499D01*
X90232227Y-67207293D01*
X90164405Y-67224087D01*
X90098271Y-67201548D01*
X90059234Y-67156495D01*
X90054626Y-67147452D01*
X90015270Y-67093282D01*
X90015269Y-67093282D01*
X89382962Y-67725590D01*
X89365925Y-67662007D01*
X89300099Y-67547993D01*
X89207007Y-67454901D01*
X89092993Y-67389075D01*
X89029409Y-67372037D01*
X89661716Y-66739728D01*
X89607550Y-66700375D01*
X89418217Y-66603904D01*
X89216129Y-66538242D01*
X89006246Y-66505000D01*
X88793754Y-66505000D01*
X88583872Y-66538242D01*
X88583869Y-66538242D01*
X88381782Y-66603904D01*
X88192439Y-66700380D01*
X88138282Y-66739727D01*
X88138282Y-66739728D01*
X88770591Y-67372037D01*
X88707007Y-67389075D01*
X88592993Y-67454901D01*
X88499901Y-67547993D01*
X88434075Y-67662007D01*
X88417037Y-67725591D01*
X87784728Y-67093282D01*
X87784727Y-67093282D01*
X87745380Y-67147439D01*
X87648904Y-67336782D01*
X87583242Y-67538869D01*
X87583242Y-67538872D01*
X87550000Y-67748753D01*
X64000500Y-67748753D01*
X64000500Y-64124500D01*
X64020185Y-64057461D01*
X64072989Y-64011706D01*
X64124500Y-64000500D01*
X162570500Y-64000500D01*
X162637539Y-64020185D01*
G37*
%TD.AperFunction*%
%TD*%
D13*
X88900000Y-67855000D03*
X91440000Y-67855000D03*
X93980000Y-67855000D03*
X96520000Y-67855000D03*
X99060000Y-67855000D03*
X101600000Y-67855000D03*
X104140000Y-67855000D03*
X106680000Y-67855000D03*
X109220000Y-67855000D03*
X111760000Y-67855000D03*
X114300000Y-67855000D03*
X116840000Y-67855000D03*
X119380000Y-67855000D03*
X121920000Y-67855000D03*
X124460000Y-67855000D03*
X127000000Y-67855000D03*
X129540000Y-67855000D03*
X132080000Y-67855000D03*
X134620000Y-67855000D03*
X137160000Y-67855000D03*
X137160000Y-70395000D03*
X134620000Y-70395000D03*
X132080000Y-70395000D03*
X129540000Y-70395000D03*
X127000000Y-70395000D03*
X124460000Y-70395000D03*
X121920000Y-70395000D03*
X119380000Y-70395000D03*
X116840000Y-70395000D03*
X114300000Y-70395000D03*
X111760000Y-70395000D03*
X109220000Y-70395000D03*
X106680000Y-70395000D03*
X104140000Y-70395000D03*
X101600000Y-70395000D03*
X99060000Y-70395000D03*
X96520000Y-70395000D03*
X93980000Y-70395000D03*
X91440000Y-70395000D03*
X88900000Y-70395000D03*
M02*
