%TF.GenerationSoftware,KiCad,Pcbnew,9.0.2+dfsg-1*%
%TF.CreationDate,2026-09-13T22:14:17+02:00*%
%TF.ProjectId,acia-card,61636961-2d63-4617-9264-2e6b69636164,rev?*%
%TF.SameCoordinates,Original*%
%TF.FileFunction,Copper,L2,Bot*%
%TF.FilePolarity,Positive*%
%FSLAX46Y46*%
G04 Gerber Fmt 4.6, Leading zero omitted, Abs format (unit mm)*
G04 Created by KiCad (PCBNEW 9.0.2+dfsg-1) date 2026-09-13 22:14:17*
%MOMM*%
%LPD*%
G01*
G04 APERTURE LIST*
G04 Aperture macros list*
%AMRoundRect*
0 Rectangle with rounded corners*
0 $1 Rounding radius*
0 $2 $3 $4 $5 $6 $7 $8 $9 X,Y pos of 4 corners*
0 Add a 4 corners polygon primitive as box body*
4,1,4,$2,$3,$4,$5,$6,$7,$8,$9,$2,$3,0*
0 Add four circle primitives for the rounded corners*
1,1,$1+$1,$2,$3*
1,1,$1+$1,$4,$5*
1,1,$1+$1,$6,$7*
1,1,$1+$1,$8,$9*
0 Add four rect primitives between the rounded corners*
20,1,$1+$1,$2,$3,$4,$5,0*
20,1,$1+$1,$4,$5,$6,$7,0*
20,1,$1+$1,$6,$7,$8,$9,0*
20,1,$1+$1,$8,$9,$2,$3,0*%
G04 Aperture macros list end*
%TA.AperFunction,ComponentPad*%
%ADD10C,1.600000*%
%TD*%
%TA.AperFunction,ComponentPad*%
%ADD11C,1.400000*%
%TD*%
%TA.AperFunction,ComponentPad*%
%ADD12C,1.700000*%
%TD*%
%TA.AperFunction,ComponentPad*%
%ADD13R,1.700000X1.700000*%
%TD*%
%TA.AperFunction,ComponentPad*%
%ADD14R,1.800000X1.800000*%
%TD*%
%TA.AperFunction,ComponentPad*%
%ADD15C,1.800000*%
%TD*%
%TA.AperFunction,ComponentPad*%
%ADD16RoundRect,0.250000X0.550000X0.550000X-0.550000X0.550000X-0.550000X-0.550000X0.550000X-0.550000X0*%
%TD*%
%TA.AperFunction,ComponentPad*%
%ADD17C,1.500000*%
%TD*%
%TA.AperFunction,ComponentPad*%
%ADD18RoundRect,0.250000X0.550000X-0.550000X0.550000X0.550000X-0.550000X0.550000X-0.550000X-0.550000X0*%
%TD*%
%TA.AperFunction,ComponentPad*%
%ADD19RoundRect,0.250000X-0.550000X0.550000X-0.550000X-0.550000X0.550000X-0.550000X0.550000X0.550000X0*%
%TD*%
%TA.AperFunction,ComponentPad*%
%ADD20C,4.000000*%
%TD*%
%TA.AperFunction,ComponentPad*%
%ADD21R,1.600000X1.600000*%
%TD*%
%TA.AperFunction,ViaPad*%
%ADD22C,0.600000*%
%TD*%
%TA.AperFunction,ViaPad*%
%ADD23C,1.200000*%
%TD*%
%TA.AperFunction,Conductor*%
%ADD24C,0.250000*%
%TD*%
%TA.AperFunction,Conductor*%
%ADD25C,1.000000*%
%TD*%
%TA.AperFunction,Conductor*%
%ADD26C,0.500000*%
%TD*%
%ADD27C,0.300000*%
%ADD28C,0.350000*%
G04 APERTURE END LIST*
D10*
%TO.P,C7,1*%
%TO.N,Net-(U10-VS-)*%
X109260000Y-130319000D03*
%TO.P,C7,2*%
%TO.N,GND*%
X114260000Y-130319000D03*
%TD*%
%TO.P,C2,1*%
%TO.N,Net-(U10-C1+)*%
X121920000Y-134129000D03*
%TO.P,C2,2*%
%TO.N,Net-(U10-C1-)*%
X116920000Y-134129000D03*
%TD*%
D11*
%TO.P,R4,1*%
%TO.N,Net-(Q2-D)*%
X144780000Y-123825000D03*
%TO.P,R4,2*%
%TO.N,Net-(D3-A)*%
X147320000Y-123825000D03*
%TD*%
%TO.P,R2,1*%
%TO.N,Net-(Q1-D)*%
X139065000Y-123825000D03*
%TO.P,R2,2*%
%TO.N,Net-(D1-A)*%
X141605000Y-123825000D03*
%TD*%
%TO.P,R1,1*%
%TO.N,Net-(Q1-G)*%
X140335000Y-116840000D03*
%TO.P,R1,2*%
%TO.N,+5V*%
X137795000Y-116840000D03*
%TD*%
D12*
%TO.P,J1,1,Vss*%
%TO.N,GND*%
X88900000Y-67855000D03*
%TO.P,J1,2,SYNC*%
%TO.N,unconnected-(J1-SYNC-Pad2)*%
X91440000Y-67855000D03*
%TO.P,J1,3,VP/*%
%TO.N,unconnected-(J1-VP{slash}-Pad3)*%
X93980000Y-67855000D03*
%TO.P,J1,4,+5V*%
%TO.N,+5V*%
X96520000Y-67855000D03*
%TO.P,J1,5,A0*%
%TO.N,/A0*%
X99060000Y-67855000D03*
%TO.P,J1,6,A1*%
%TO.N,/A1*%
X101600000Y-67855000D03*
%TO.P,J1,7,A2*%
%TO.N,/A2*%
X104140000Y-67855000D03*
%TO.P,J1,8,A3*%
%TO.N,/A3*%
X106680000Y-67855000D03*
%TO.P,J1,9,A4*%
%TO.N,/A4*%
X109220000Y-67855000D03*
%TO.P,J1,10,A5*%
%TO.N,/A5*%
X111760000Y-67855000D03*
%TO.P,J1,11,A6*%
%TO.N,/A6*%
X114300000Y-67855000D03*
%TO.P,J1,12,A7*%
%TO.N,/A7*%
X116840000Y-67855000D03*
%TO.P,J1,13,A8*%
%TO.N,/A8*%
X119380000Y-67855000D03*
%TO.P,J1,14,A9*%
%TO.N,/A9*%
X121920000Y-67855000D03*
%TO.P,J1,15,A10*%
%TO.N,/A10*%
X124460000Y-67855000D03*
%TO.P,J1,16,A11*%
%TO.N,/A11*%
X127000000Y-67855000D03*
%TO.P,J1,17,A12*%
%TO.N,/A12*%
X129540000Y-67855000D03*
%TO.P,J1,18,A13*%
%TO.N,/A13*%
X132080000Y-67855000D03*
%TO.P,J1,19,A14*%
%TO.N,/A14*%
X134620000Y-67855000D03*
%TO.P,J1,20,A15*%
%TO.N,/A15*%
X137160000Y-67855000D03*
%TO.P,J1,21,D0*%
%TO.N,/D0*%
X137160000Y-70395000D03*
%TO.P,J1,22,D1*%
%TO.N,/D1*%
X134620000Y-70395000D03*
%TO.P,J1,23,D2*%
%TO.N,/D2*%
X132080000Y-70395000D03*
%TO.P,J1,24,D3*%
%TO.N,/D3*%
X129540000Y-70395000D03*
%TO.P,J1,25,D4*%
%TO.N,/D4*%
X127000000Y-70395000D03*
%TO.P,J1,26,D5*%
%TO.N,/D5*%
X124460000Y-70395000D03*
%TO.P,J1,27,D6*%
%TO.N,/D6*%
X121920000Y-70395000D03*
%TO.P,J1,28,D7*%
%TO.N,/D7*%
X119380000Y-70395000D03*
%TO.P,J1,29,RW/*%
%TO.N,RW{slash}*%
X116840000Y-70395000D03*
%TO.P,J1,30,NC*%
%TO.N,unconnected-(J1-NC-Pad30)*%
X114300000Y-70395000D03*
%TO.P,J1,31,BE*%
%TO.N,unconnected-(J1-BE-Pad31)*%
X111760000Y-70395000D03*
%TO.P,J1,32,IRQ/*%
%TO.N,IRQ{slash}*%
X109220000Y-70395000D03*
%TO.P,J1,33,NMI/*%
%TO.N,unconnected-(J1-NMI{slash}-Pad33)*%
X106680000Y-70395000D03*
%TO.P,J1,34,RES/*%
%TO.N,RES{slash}*%
X104140000Y-70395000D03*
%TO.P,J1,35,RAM/*%
%TO.N,unconnected-(J1-RAM{slash}-Pad35)*%
X101600000Y-70395000D03*
%TO.P,J1,36,ROM/*%
%TO.N,unconnected-(J1-ROM{slash}-Pad36)*%
X99060000Y-70395000D03*
%TO.P,J1,37,+5V*%
%TO.N,+5V*%
X96520000Y-70395000D03*
%TO.P,J1,38,ACC/*%
%TO.N,ACC{slash}*%
X93980000Y-70395000D03*
%TO.P,J1,39,CLK*%
%TO.N,CLK*%
X91440000Y-70395000D03*
D13*
%TO.P,J1,40,Vss*%
%TO.N,GND*%
X88900000Y-70395000D03*
%TD*%
D14*
%TO.P,D1,1,K*%
%TO.N,GND*%
X139015000Y-127000000D03*
D15*
%TO.P,D1,2,A*%
%TO.N,Net-(D1-A)*%
X141555000Y-127000000D03*
%TD*%
D16*
%TO.P,D2,1,K*%
%TO.N,Net-(D2-K)*%
X101600000Y-86995000D03*
D10*
%TO.P,D2,2,A*%
%TO.N,IRQ{slash}*%
X93980000Y-86995000D03*
%TD*%
%TO.P,C4,1*%
%TO.N,Net-(U10-VS+)*%
X119380000Y-130319000D03*
%TO.P,C4,2*%
%TO.N,GND*%
X124380000Y-130319000D03*
%TD*%
D17*
%TO.P,Y2,1,1*%
%TO.N,Net-(U6-XTAL2)*%
X111760000Y-113030000D03*
%TO.P,Y2,2,2*%
%TO.N,Net-(U6-XTAL1)*%
X106860000Y-113030000D03*
%TD*%
D18*
%TO.P,U6,1,VSS*%
%TO.N,GND*%
X96520000Y-105410000D03*
D10*
%TO.P,U6,2,CS1*%
%TO.N,/A10*%
X99060000Y-105410000D03*
%TO.P,U6,3,~{CS2}*%
%TO.N,ACC{slash}*%
X101600000Y-105410000D03*
%TO.P,U6,4,~{RES}*%
%TO.N,RES{slash}*%
X104140000Y-105410000D03*
%TO.P,U6,5,RxC*%
%TO.N,unconnected-(U6-RxC-Pad5)*%
X106680000Y-105410000D03*
%TO.P,U6,6,XTAL1*%
%TO.N,Net-(U6-XTAL1)*%
X109220000Y-105410000D03*
%TO.P,U6,7,XTAL2*%
%TO.N,Net-(U6-XTAL2)*%
X111760000Y-105410000D03*
%TO.P,U6,8,~{RTS}*%
%TO.N,unconnected-(U6-~{RTS}-Pad8)*%
X114300000Y-105410000D03*
%TO.P,U6,9,~{CTS}*%
%TO.N,unconnected-(U6-~{CTS}-Pad9)*%
X116840000Y-105410000D03*
%TO.P,U6,10,TxD*%
%TO.N,Net-(Q1-G)*%
X119380000Y-105410000D03*
%TO.P,U6,11,~{DTR}*%
%TO.N,unconnected-(U6-~{DTR}-Pad11)*%
X121920000Y-105410000D03*
%TO.P,U6,12,RxD*%
%TO.N,Net-(Q2-G)*%
X124460000Y-105410000D03*
%TO.P,U6,13,RS0*%
%TO.N,/A0*%
X127000000Y-105410000D03*
%TO.P,U6,14,RS1*%
%TO.N,/A1*%
X129540000Y-105410000D03*
%TO.P,U6,15,VCC*%
%TO.N,+5V*%
X129540000Y-90170000D03*
%TO.P,U6,16,~{DCD}*%
%TO.N,unconnected-(U6-~{DCD}-Pad16)*%
X127000000Y-90170000D03*
%TO.P,U6,17,~{DSR}*%
%TO.N,unconnected-(U6-~{DSR}-Pad17)*%
X124460000Y-90170000D03*
%TO.P,U6,18,D0*%
%TO.N,/D0*%
X121920000Y-90170000D03*
%TO.P,U6,19,D1*%
%TO.N,/D1*%
X119380000Y-90170000D03*
%TO.P,U6,20,D2*%
%TO.N,/D2*%
X116840000Y-90170000D03*
%TO.P,U6,21,D3*%
%TO.N,/D3*%
X114300000Y-90170000D03*
%TO.P,U6,22,D4*%
%TO.N,/D4*%
X111760000Y-90170000D03*
%TO.P,U6,23,D5*%
%TO.N,/D5*%
X109220000Y-90170000D03*
%TO.P,U6,24,D6*%
%TO.N,/D6*%
X106680000Y-90170000D03*
%TO.P,U6,25,D7*%
%TO.N,/D7*%
X104140000Y-90170000D03*
%TO.P,U6,26,~{IRQ}*%
%TO.N,Net-(D2-K)*%
X101600000Y-90170000D03*
%TO.P,U6,27,\u03D52*%
%TO.N,CLK*%
X99060000Y-90170000D03*
%TO.P,U6,28,R/~{W}*%
%TO.N,RW{slash}*%
X96520000Y-90170000D03*
%TD*%
%TO.P,C1,1*%
%TO.N,Net-(U6-XTAL2)*%
X111760000Y-118110000D03*
%TO.P,C1,2*%
%TO.N,GND*%
X106760000Y-118110000D03*
%TD*%
%TO.P,C35,1*%
%TO.N,+5V*%
X121920000Y-149329000D03*
%TO.P,C35,2*%
%TO.N,GND*%
X116920000Y-149329000D03*
%TD*%
D14*
%TO.P,D3,1,K*%
%TO.N,GND*%
X144730000Y-127000000D03*
D15*
%TO.P,D3,2,A*%
%TO.N,Net-(D3-A)*%
X147270000Y-127000000D03*
%TD*%
D19*
%TO.P,U10,1,C1+*%
%TO.N,Net-(U10-C1+)*%
X121920000Y-137939000D03*
D10*
%TO.P,U10,2,VS+*%
%TO.N,Net-(U10-VS+)*%
X119380000Y-137939000D03*
%TO.P,U10,3,C1-*%
%TO.N,Net-(U10-C1-)*%
X116840000Y-137939000D03*
%TO.P,U10,4,C2+*%
%TO.N,Net-(U10-C2+)*%
X114300000Y-137939000D03*
%TO.P,U10,5,C2-*%
%TO.N,Net-(U10-C2-)*%
X111760000Y-137939000D03*
%TO.P,U10,6,VS-*%
%TO.N,Net-(U10-VS-)*%
X109220000Y-137939000D03*
%TO.P,U10,7,T2OUT*%
%TO.N,unconnected-(U10-T2OUT-Pad7)*%
X106680000Y-137939000D03*
%TO.P,U10,8,R2IN*%
%TO.N,unconnected-(U10-R2IN-Pad8)*%
X104140000Y-137939000D03*
%TO.P,U10,9,R2OUT*%
%TO.N,unconnected-(U10-R2OUT-Pad9)*%
X104140000Y-145559000D03*
%TO.P,U10,10,T2IN*%
%TO.N,unconnected-(U10-T2IN-Pad10)*%
X106680000Y-145559000D03*
%TO.P,U10,11,T1IN*%
%TO.N,Net-(Q1-G)*%
X109220000Y-145559000D03*
%TO.P,U10,12,R1OUT*%
%TO.N,Net-(Q2-G)*%
X111760000Y-145559000D03*
%TO.P,U10,13,R1IN*%
%TO.N,Net-(U10-R1IN)*%
X114300000Y-145559000D03*
%TO.P,U10,14,T1OUT*%
%TO.N,Net-(U10-T1OUT)*%
X116840000Y-145559000D03*
%TO.P,U10,15,GND*%
%TO.N,GND*%
X119380000Y-145559000D03*
%TO.P,U10,16,VCC*%
%TO.N,+5V*%
X121920000Y-145559000D03*
%TD*%
D20*
%TO.P,J2,0*%
%TO.N,N/C*%
X100730000Y-156989000D03*
X125730000Y-156989000D03*
D21*
%TO.P,J2,1,1*%
%TO.N,unconnected-(J2-Pad1)*%
X107690000Y-154149000D03*
D10*
%TO.P,J2,2,2*%
%TO.N,Net-(U10-T1OUT)*%
X110460000Y-154149000D03*
%TO.P,J2,3,3*%
%TO.N,Net-(U10-R1IN)*%
X113230000Y-154149000D03*
%TO.P,J2,4,4*%
%TO.N,unconnected-(J2-Pad4)*%
X116000000Y-154149000D03*
%TO.P,J2,5,5*%
%TO.N,GND*%
X118770000Y-154149000D03*
%TO.P,J2,6,6*%
%TO.N,unconnected-(J2-Pad6)*%
X109075000Y-156989000D03*
%TO.P,J2,7,7*%
%TO.N,unconnected-(J2-Pad7)*%
X111845000Y-156989000D03*
%TO.P,J2,8,8*%
%TO.N,unconnected-(J2-Pad8)*%
X114615000Y-156989000D03*
%TO.P,J2,9,9*%
%TO.N,+5V*%
X117385000Y-156989000D03*
%TD*%
D11*
%TO.P,R65,1*%
%TO.N,Net-(U6-XTAL1)*%
X109270000Y-108535000D03*
%TO.P,R65,2*%
%TO.N,Net-(U6-XTAL2)*%
X111810000Y-108535000D03*
%TD*%
%TO.P,R3,1*%
%TO.N,Net-(Q2-G)*%
X146000000Y-116840000D03*
%TO.P,R3,2*%
%TO.N,+5V*%
X143460000Y-116840000D03*
%TD*%
D10*
%TO.P,C3,1*%
%TO.N,Net-(U10-C2+)*%
X114300000Y-134129000D03*
%TO.P,C3,2*%
%TO.N,Net-(U10-C2-)*%
X109300000Y-134129000D03*
%TD*%
%TO.P,C36,1*%
%TO.N,+5V*%
X133350000Y-90170000D03*
%TO.P,C36,2*%
%TO.N,GND*%
X133350000Y-95170000D03*
%TD*%
D22*
%TO.N,RES{slash}*%
X103505000Y-82550000D03*
X104140000Y-76835000D03*
X103505000Y-85090000D03*
X104140000Y-74295000D03*
%TO.N,ACC{slash}*%
X90170000Y-78740000D03*
X93345000Y-77470000D03*
%TO.N,/A10*%
X124460000Y-64770000D03*
D23*
%TO.N,+5V*%
X84455000Y-110490000D03*
X84455000Y-74930000D03*
D22*
%TO.N,Net-(Q1-G)*%
X123190000Y-114935000D03*
X125730000Y-114935000D03*
%TD*%
D24*
%TO.N,RES{slash}*%
X104140000Y-76835000D02*
X104140000Y-74295000D01*
X103505000Y-85090000D02*
X103505000Y-82550000D01*
%TO.N,ACC{slash}*%
X90170000Y-78740000D02*
X90805000Y-78105000D01*
X90805000Y-78105000D02*
X92710000Y-78105000D01*
X92710000Y-78105000D02*
X93345000Y-77470000D01*
%TO.N,/A10*%
X124460000Y-64770000D02*
X124460000Y-67855000D01*
D25*
%TO.N,GND*%
X88900000Y-67855000D02*
X88900000Y-70395000D01*
%TO.N,+5V*%
X91985000Y-74930000D02*
X96520000Y-70395000D01*
D26*
X139700000Y-114935000D02*
X137795000Y-116840000D01*
X141555000Y-114935000D02*
X139700000Y-114935000D01*
X132715000Y-110490000D02*
X137160000Y-106045000D01*
X117385000Y-156989000D02*
X118110000Y-156989000D01*
D25*
X84455000Y-74930000D02*
X91985000Y-74930000D01*
X84455000Y-110490000D02*
X132715000Y-110490000D01*
D26*
X118110000Y-156989000D02*
X121920000Y-153179000D01*
X132715000Y-110490000D02*
X137795000Y-115570000D01*
X143460000Y-116840000D02*
X141555000Y-114935000D01*
X121920000Y-153179000D02*
X121920000Y-149329000D01*
X137160000Y-93980000D02*
X133350000Y-90170000D01*
X137160000Y-106045000D02*
X137160000Y-93980000D01*
X137795000Y-115570000D02*
X137795000Y-116840000D01*
D25*
X96520000Y-67855000D02*
X96520000Y-70395000D01*
D24*
%TO.N,Net-(U10-T1OUT)*%
X110460000Y-154149000D02*
X110460000Y-151939000D01*
X110460000Y-151939000D02*
X116840000Y-145559000D01*
%TO.N,Net-(Q1-G)*%
X125730000Y-114935000D02*
X123190000Y-114935000D01*
%TD*%
%TA.AperFunction,Conductor*%
%TO.N,GND*%
G36*
X123865098Y-64020185D02*
G01*
X123910853Y-64072989D01*
X123920797Y-64142147D01*
X123891772Y-64205703D01*
X123885740Y-64212181D01*
X123838213Y-64259707D01*
X123838210Y-64259711D01*
X123750609Y-64390814D01*
X123750602Y-64390827D01*
X123690264Y-64536498D01*
X123690261Y-64536510D01*
X123659500Y-64691153D01*
X123659500Y-64848846D01*
X123690261Y-65003489D01*
X123690264Y-65003501D01*
X123750602Y-65149172D01*
X123750609Y-65149184D01*
X123813602Y-65243459D01*
X123834480Y-65310136D01*
X123834500Y-65312350D01*
X123834500Y-66582019D01*
X123814815Y-66649058D01*
X123766797Y-66692503D01*
X123752180Y-66699950D01*
X123580213Y-66824890D01*
X123429890Y-66975213D01*
X123304949Y-67147182D01*
X123300484Y-67155946D01*
X123252509Y-67206742D01*
X123184688Y-67223536D01*
X123118553Y-67200998D01*
X123079516Y-67155946D01*
X123075050Y-67147182D01*
X122950109Y-66975213D01*
X122799786Y-66824890D01*
X122627820Y-66699951D01*
X122438414Y-66603444D01*
X122438413Y-66603443D01*
X122438412Y-66603443D01*
X122236243Y-66537754D01*
X122236241Y-66537753D01*
X122236240Y-66537753D01*
X122074957Y-66512208D01*
X122026287Y-66504500D01*
X121813713Y-66504500D01*
X121765042Y-66512208D01*
X121603760Y-66537753D01*
X121401585Y-66603444D01*
X121212179Y-66699951D01*
X121040213Y-66824890D01*
X120889890Y-66975213D01*
X120764949Y-67147182D01*
X120760484Y-67155946D01*
X120712509Y-67206742D01*
X120644688Y-67223536D01*
X120578553Y-67200998D01*
X120539516Y-67155946D01*
X120535050Y-67147182D01*
X120410109Y-66975213D01*
X120259786Y-66824890D01*
X120087820Y-66699951D01*
X119898414Y-66603444D01*
X119898413Y-66603443D01*
X119898412Y-66603443D01*
X119696243Y-66537754D01*
X119696241Y-66537753D01*
X119696240Y-66537753D01*
X119534957Y-66512208D01*
X119486287Y-66504500D01*
X119273713Y-66504500D01*
X119225042Y-66512208D01*
X119063760Y-66537753D01*
X118861585Y-66603444D01*
X118672179Y-66699951D01*
X118500213Y-66824890D01*
X118349890Y-66975213D01*
X118224949Y-67147182D01*
X118220484Y-67155946D01*
X118172509Y-67206742D01*
X118104688Y-67223536D01*
X118038553Y-67200998D01*
X117999516Y-67155946D01*
X117995050Y-67147182D01*
X117870109Y-66975213D01*
X117719786Y-66824890D01*
X117547820Y-66699951D01*
X117358414Y-66603444D01*
X117358413Y-66603443D01*
X117358412Y-66603443D01*
X117156243Y-66537754D01*
X117156241Y-66537753D01*
X117156240Y-66537753D01*
X116994957Y-66512208D01*
X116946287Y-66504500D01*
X116733713Y-66504500D01*
X116685042Y-66512208D01*
X116523760Y-66537753D01*
X116321585Y-66603444D01*
X116132179Y-66699951D01*
X115960213Y-66824890D01*
X115809890Y-66975213D01*
X115684949Y-67147182D01*
X115680484Y-67155946D01*
X115632509Y-67206742D01*
X115564688Y-67223536D01*
X115498553Y-67200998D01*
X115459516Y-67155946D01*
X115455050Y-67147182D01*
X115330109Y-66975213D01*
X115179786Y-66824890D01*
X115007820Y-66699951D01*
X114818414Y-66603444D01*
X114818413Y-66603443D01*
X114818412Y-66603443D01*
X114616243Y-66537754D01*
X114616241Y-66537753D01*
X114616240Y-66537753D01*
X114454957Y-66512208D01*
X114406287Y-66504500D01*
X114193713Y-66504500D01*
X114145042Y-66512208D01*
X113983760Y-66537753D01*
X113781585Y-66603444D01*
X113592179Y-66699951D01*
X113420213Y-66824890D01*
X113269890Y-66975213D01*
X113144949Y-67147182D01*
X113140484Y-67155946D01*
X113092509Y-67206742D01*
X113024688Y-67223536D01*
X112958553Y-67200998D01*
X112919516Y-67155946D01*
X112915050Y-67147182D01*
X112790109Y-66975213D01*
X112639786Y-66824890D01*
X112467820Y-66699951D01*
X112278414Y-66603444D01*
X112278413Y-66603443D01*
X112278412Y-66603443D01*
X112076243Y-66537754D01*
X112076241Y-66537753D01*
X112076240Y-66537753D01*
X111914957Y-66512208D01*
X111866287Y-66504500D01*
X111653713Y-66504500D01*
X111605042Y-66512208D01*
X111443760Y-66537753D01*
X111241585Y-66603444D01*
X111052179Y-66699951D01*
X110880213Y-66824890D01*
X110729890Y-66975213D01*
X110604949Y-67147182D01*
X110600484Y-67155946D01*
X110552509Y-67206742D01*
X110484688Y-67223536D01*
X110418553Y-67200998D01*
X110379516Y-67155946D01*
X110375050Y-67147182D01*
X110250109Y-66975213D01*
X110099786Y-66824890D01*
X109927820Y-66699951D01*
X109738414Y-66603444D01*
X109738413Y-66603443D01*
X109738412Y-66603443D01*
X109536243Y-66537754D01*
X109536241Y-66537753D01*
X109536240Y-66537753D01*
X109374957Y-66512208D01*
X109326287Y-66504500D01*
X109113713Y-66504500D01*
X109065042Y-66512208D01*
X108903760Y-66537753D01*
X108701585Y-66603444D01*
X108512179Y-66699951D01*
X108340213Y-66824890D01*
X108189890Y-66975213D01*
X108064949Y-67147182D01*
X108060484Y-67155946D01*
X108012509Y-67206742D01*
X107944688Y-67223536D01*
X107878553Y-67200998D01*
X107839516Y-67155946D01*
X107835050Y-67147182D01*
X107710109Y-66975213D01*
X107559786Y-66824890D01*
X107387820Y-66699951D01*
X107198414Y-66603444D01*
X107198413Y-66603443D01*
X107198412Y-66603443D01*
X106996243Y-66537754D01*
X106996241Y-66537753D01*
X106996240Y-66537753D01*
X106834957Y-66512208D01*
X106786287Y-66504500D01*
X106573713Y-66504500D01*
X106525042Y-66512208D01*
X106363760Y-66537753D01*
X106161585Y-66603444D01*
X105972179Y-66699951D01*
X105800213Y-66824890D01*
X105649890Y-66975213D01*
X105524949Y-67147182D01*
X105520484Y-67155946D01*
X105472509Y-67206742D01*
X105404688Y-67223536D01*
X105338553Y-67200998D01*
X105299516Y-67155946D01*
X105295050Y-67147182D01*
X105170109Y-66975213D01*
X105019786Y-66824890D01*
X104847820Y-66699951D01*
X104658414Y-66603444D01*
X104658413Y-66603443D01*
X104658412Y-66603443D01*
X104456243Y-66537754D01*
X104456241Y-66537753D01*
X104456240Y-66537753D01*
X104294957Y-66512208D01*
X104246287Y-66504500D01*
X104033713Y-66504500D01*
X103985042Y-66512208D01*
X103823760Y-66537753D01*
X103621585Y-66603444D01*
X103432179Y-66699951D01*
X103260213Y-66824890D01*
X103109890Y-66975213D01*
X102984949Y-67147182D01*
X102980484Y-67155946D01*
X102932509Y-67206742D01*
X102864688Y-67223536D01*
X102798553Y-67200998D01*
X102759516Y-67155946D01*
X102755050Y-67147182D01*
X102630109Y-66975213D01*
X102479786Y-66824890D01*
X102307820Y-66699951D01*
X102118414Y-66603444D01*
X102118413Y-66603443D01*
X102118412Y-66603443D01*
X101916243Y-66537754D01*
X101916241Y-66537753D01*
X101916240Y-66537753D01*
X101754957Y-66512208D01*
X101706287Y-66504500D01*
X101493713Y-66504500D01*
X101445042Y-66512208D01*
X101283760Y-66537753D01*
X101081585Y-66603444D01*
X100892179Y-66699951D01*
X100720213Y-66824890D01*
X100569890Y-66975213D01*
X100444949Y-67147182D01*
X100440484Y-67155946D01*
X100392509Y-67206742D01*
X100324688Y-67223536D01*
X100258553Y-67200998D01*
X100219516Y-67155946D01*
X100215050Y-67147182D01*
X100090109Y-66975213D01*
X99939786Y-66824890D01*
X99767820Y-66699951D01*
X99578414Y-66603444D01*
X99578413Y-66603443D01*
X99578412Y-66603443D01*
X99376243Y-66537754D01*
X99376241Y-66537753D01*
X99376240Y-66537753D01*
X99214957Y-66512208D01*
X99166287Y-66504500D01*
X98953713Y-66504500D01*
X98905042Y-66512208D01*
X98743760Y-66537753D01*
X98541585Y-66603444D01*
X98352179Y-66699951D01*
X98180213Y-66824890D01*
X98029890Y-66975213D01*
X97904949Y-67147182D01*
X97900484Y-67155946D01*
X97852509Y-67206742D01*
X97784688Y-67223536D01*
X97718553Y-67200998D01*
X97679516Y-67155946D01*
X97675050Y-67147182D01*
X97550109Y-66975213D01*
X97399786Y-66824890D01*
X97227820Y-66699951D01*
X97038414Y-66603444D01*
X97038413Y-66603443D01*
X97038412Y-66603443D01*
X96836243Y-66537754D01*
X96836241Y-66537753D01*
X96836240Y-66537753D01*
X96674957Y-66512208D01*
X96626287Y-66504500D01*
X96413713Y-66504500D01*
X96365042Y-66512208D01*
X96203760Y-66537753D01*
X96001585Y-66603444D01*
X95812179Y-66699951D01*
X95640213Y-66824890D01*
X95489890Y-66975213D01*
X95364949Y-67147182D01*
X95360484Y-67155946D01*
X95312509Y-67206742D01*
X95244688Y-67223536D01*
X95178553Y-67200998D01*
X95139516Y-67155946D01*
X95135050Y-67147182D01*
X95010109Y-66975213D01*
X94859786Y-66824890D01*
X94687820Y-66699951D01*
X94498414Y-66603444D01*
X94498413Y-66603443D01*
X94498412Y-66603443D01*
X94296243Y-66537754D01*
X94296241Y-66537753D01*
X94296240Y-66537753D01*
X94134957Y-66512208D01*
X94086287Y-66504500D01*
X93873713Y-66504500D01*
X93825042Y-66512208D01*
X93663760Y-66537753D01*
X93461585Y-66603444D01*
X93272179Y-66699951D01*
X93100213Y-66824890D01*
X92949890Y-66975213D01*
X92824949Y-67147182D01*
X92820484Y-67155946D01*
X92772509Y-67206742D01*
X92704688Y-67223536D01*
X92638553Y-67200998D01*
X92599516Y-67155946D01*
X92595050Y-67147182D01*
X92470109Y-66975213D01*
X92319786Y-66824890D01*
X92147820Y-66699951D01*
X91958414Y-66603444D01*
X91958413Y-66603443D01*
X91958412Y-66603443D01*
X91756243Y-66537754D01*
X91756241Y-66537753D01*
X91756240Y-66537753D01*
X91594957Y-66512208D01*
X91546287Y-66504500D01*
X91333713Y-66504500D01*
X91285042Y-66512208D01*
X91123760Y-66537753D01*
X90921585Y-66603444D01*
X90732179Y-66699951D01*
X90560213Y-66824890D01*
X90409890Y-66975213D01*
X90284949Y-67147182D01*
X90280202Y-67156499D01*
X90232227Y-67207293D01*
X90164405Y-67224087D01*
X90098271Y-67201548D01*
X90059234Y-67156495D01*
X90054626Y-67147452D01*
X90015270Y-67093282D01*
X90015269Y-67093282D01*
X89382962Y-67725590D01*
X89365925Y-67662007D01*
X89300099Y-67547993D01*
X89207007Y-67454901D01*
X89092993Y-67389075D01*
X89029409Y-67372037D01*
X89661716Y-66739728D01*
X89607550Y-66700375D01*
X89418217Y-66603904D01*
X89216129Y-66538242D01*
X89006246Y-66505000D01*
X88793754Y-66505000D01*
X88583872Y-66538242D01*
X88583869Y-66538242D01*
X88381782Y-66603904D01*
X88192439Y-66700380D01*
X88138282Y-66739727D01*
X88138282Y-66739728D01*
X88770591Y-67372037D01*
X88707007Y-67389075D01*
X88592993Y-67454901D01*
X88499901Y-67547993D01*
X88434075Y-67662007D01*
X88417037Y-67725591D01*
X87784728Y-67093282D01*
X87784727Y-67093282D01*
X87745380Y-67147439D01*
X87648904Y-67336782D01*
X87583242Y-67538869D01*
X87583242Y-67538872D01*
X87550000Y-67748753D01*
X87550000Y-67961246D01*
X87583242Y-68171127D01*
X87583242Y-68171130D01*
X87648904Y-68373217D01*
X87745375Y-68562550D01*
X87784728Y-68616716D01*
X88417037Y-67984408D01*
X88434075Y-68047993D01*
X88499901Y-68162007D01*
X88592993Y-68255099D01*
X88707007Y-68320925D01*
X88770590Y-68337962D01*
X88101195Y-69007356D01*
X88039872Y-69040841D01*
X88025167Y-69039924D01*
X88025444Y-69042497D01*
X87942626Y-69051401D01*
X87942619Y-69051403D01*
X87807913Y-69101645D01*
X87807906Y-69101649D01*
X87692812Y-69187809D01*
X87692809Y-69187812D01*
X87606649Y-69302906D01*
X87606645Y-69302913D01*
X87556403Y-69437620D01*
X87556401Y-69437627D01*
X87550000Y-69497155D01*
X87550000Y-70145000D01*
X88466988Y-70145000D01*
X88434075Y-70202007D01*
X88400000Y-70329174D01*
X88400000Y-70460826D01*
X88434075Y-70587993D01*
X88466988Y-70645000D01*
X87550000Y-70645000D01*
X87550000Y-71292844D01*
X87556401Y-71352372D01*
X87556403Y-71352379D01*
X87606645Y-71487086D01*
X87606649Y-71487093D01*
X87692809Y-71602187D01*
X87692812Y-71602190D01*
X87807906Y-71688350D01*
X87807913Y-71688354D01*
X87942620Y-71738596D01*
X87942627Y-71738598D01*
X88002155Y-71744999D01*
X88002172Y-71745000D01*
X88650000Y-71745000D01*
X88650000Y-70828012D01*
X88707007Y-70860925D01*
X88834174Y-70895000D01*
X88965826Y-70895000D01*
X89092993Y-70860925D01*
X89150000Y-70828012D01*
X89150000Y-71745000D01*
X89797828Y-71745000D01*
X89797844Y-71744999D01*
X89857372Y-71738598D01*
X89857379Y-71738596D01*
X89992086Y-71688354D01*
X89992093Y-71688350D01*
X90107187Y-71602190D01*
X90107190Y-71602187D01*
X90193350Y-71487093D01*
X90193354Y-71487086D01*
X90242422Y-71355529D01*
X90284293Y-71299595D01*
X90349757Y-71275178D01*
X90418030Y-71290030D01*
X90446285Y-71311181D01*
X90560213Y-71425109D01*
X90732179Y-71550048D01*
X90732181Y-71550049D01*
X90732184Y-71550051D01*
X90921588Y-71646557D01*
X91123757Y-71712246D01*
X91333713Y-71745500D01*
X91333714Y-71745500D01*
X91546286Y-71745500D01*
X91546287Y-71745500D01*
X91756243Y-71712246D01*
X91958412Y-71646557D01*
X92147816Y-71550051D01*
X92234471Y-71487093D01*
X92319786Y-71425109D01*
X92319788Y-71425106D01*
X92319792Y-71425104D01*
X92470104Y-71274792D01*
X92470106Y-71274788D01*
X92470109Y-71274786D01*
X92595048Y-71102820D01*
X92595047Y-71102820D01*
X92595051Y-71102816D01*
X92599514Y-71094054D01*
X92647488Y-71043259D01*
X92715308Y-71026463D01*
X92781444Y-71048999D01*
X92820486Y-71094056D01*
X92824951Y-71102820D01*
X92949890Y-71274786D01*
X93100213Y-71425109D01*
X93272179Y-71550048D01*
X93272181Y-71550049D01*
X93272184Y-71550051D01*
X93461588Y-71646557D01*
X93564958Y-71680144D01*
X93622634Y-71719582D01*
X93649832Y-71783940D01*
X93637917Y-71852787D01*
X93614321Y-71885756D01*
X91606899Y-73893181D01*
X91545576Y-73926666D01*
X91519218Y-73929500D01*
X84356457Y-73929500D01*
X84163170Y-73967947D01*
X84163160Y-73967950D01*
X83981092Y-74043364D01*
X83981079Y-74043371D01*
X83817218Y-74152860D01*
X83817214Y-74152863D01*
X83677863Y-74292214D01*
X83677860Y-74292218D01*
X83568371Y-74456079D01*
X83568364Y-74456092D01*
X83492950Y-74638160D01*
X83492947Y-74638170D01*
X83454500Y-74831456D01*
X83454500Y-74831459D01*
X83454500Y-75028541D01*
X83454500Y-75028543D01*
X83454499Y-75028543D01*
X83492947Y-75221829D01*
X83492950Y-75221839D01*
X83568364Y-75403907D01*
X83568371Y-75403920D01*
X83677860Y-75567781D01*
X83677863Y-75567785D01*
X83817214Y-75707136D01*
X83817218Y-75707139D01*
X83981079Y-75816628D01*
X83981092Y-75816635D01*
X84163160Y-75892049D01*
X84163165Y-75892051D01*
X84163169Y-75892051D01*
X84163170Y-75892052D01*
X84356456Y-75930500D01*
X84356459Y-75930500D01*
X92083542Y-75930500D01*
X92114566Y-75924328D01*
X92180188Y-75911275D01*
X92276836Y-75892051D01*
X92330165Y-75869961D01*
X92458914Y-75816632D01*
X92622782Y-75707139D01*
X92762139Y-75567782D01*
X92762139Y-75567780D01*
X92772347Y-75557573D01*
X92772348Y-75557570D01*
X94113766Y-74216153D01*
X103339500Y-74216153D01*
X103339500Y-74373846D01*
X103370261Y-74528489D01*
X103370264Y-74528501D01*
X103430602Y-74674172D01*
X103430609Y-74674184D01*
X103493602Y-74768459D01*
X103514480Y-74835136D01*
X103514500Y-74837350D01*
X103514500Y-76292650D01*
X103494815Y-76359689D01*
X103493602Y-76361541D01*
X103430609Y-76455815D01*
X103430602Y-76455828D01*
X103370264Y-76601498D01*
X103370261Y-76601510D01*
X103339500Y-76756153D01*
X103339500Y-76913846D01*
X103370261Y-77068489D01*
X103370264Y-77068501D01*
X103430602Y-77214172D01*
X103430609Y-77214185D01*
X103518210Y-77345288D01*
X103518213Y-77345292D01*
X103629707Y-77456786D01*
X103629711Y-77456789D01*
X103760814Y-77544390D01*
X103760827Y-77544397D01*
X103906498Y-77604735D01*
X103906503Y-77604737D01*
X104061153Y-77635499D01*
X104061156Y-77635500D01*
X104061158Y-77635500D01*
X104218844Y-77635500D01*
X104218845Y-77635499D01*
X104373497Y-77604737D01*
X104508436Y-77548844D01*
X104519172Y-77544397D01*
X104519172Y-77544396D01*
X104519179Y-77544394D01*
X104650289Y-77456789D01*
X104761789Y-77345289D01*
X104849394Y-77214179D01*
X104909737Y-77068497D01*
X104940500Y-76913842D01*
X104940500Y-76756158D01*
X104940500Y-76756155D01*
X104940499Y-76756153D01*
X104929381Y-76700261D01*
X104909737Y-76601503D01*
X104849394Y-76455821D01*
X104786397Y-76361539D01*
X104765520Y-76294863D01*
X104765500Y-76292650D01*
X104765500Y-74837350D01*
X104785185Y-74770311D01*
X104786398Y-74768459D01*
X104786809Y-74767843D01*
X104849394Y-74674179D01*
X104909737Y-74528497D01*
X104940500Y-74373842D01*
X104940500Y-74216158D01*
X104940500Y-74216155D01*
X104940499Y-74216153D01*
X104909738Y-74061510D01*
X104909737Y-74061503D01*
X104902224Y-74043364D01*
X104849397Y-73915827D01*
X104849390Y-73915814D01*
X104761789Y-73784711D01*
X104761786Y-73784707D01*
X104650292Y-73673213D01*
X104650288Y-73673210D01*
X104519185Y-73585609D01*
X104519172Y-73585602D01*
X104373501Y-73525264D01*
X104373489Y-73525261D01*
X104218845Y-73494500D01*
X104218842Y-73494500D01*
X104061158Y-73494500D01*
X104061155Y-73494500D01*
X103906510Y-73525261D01*
X103906498Y-73525264D01*
X103760827Y-73585602D01*
X103760814Y-73585609D01*
X103629711Y-73673210D01*
X103629707Y-73673213D01*
X103518213Y-73784707D01*
X103518210Y-73784711D01*
X103430609Y-73915814D01*
X103430602Y-73915827D01*
X103370264Y-74061498D01*
X103370261Y-74061510D01*
X103339500Y-74216153D01*
X94113766Y-74216153D01*
X96548499Y-71781421D01*
X96609820Y-71747938D01*
X96625291Y-71745657D01*
X96626282Y-71745500D01*
X96626287Y-71745500D01*
X96836243Y-71712246D01*
X97038412Y-71646557D01*
X97227816Y-71550051D01*
X97314471Y-71487093D01*
X97399786Y-71425109D01*
X97399788Y-71425106D01*
X97399792Y-71425104D01*
X97550104Y-71274792D01*
X97550106Y-71274788D01*
X97550109Y-71274786D01*
X97675048Y-71102820D01*
X97675047Y-71102820D01*
X97675051Y-71102816D01*
X97679514Y-71094054D01*
X97727488Y-71043259D01*
X97795308Y-71026463D01*
X97861444Y-71048999D01*
X97900486Y-71094056D01*
X97904951Y-71102820D01*
X98029890Y-71274786D01*
X98180213Y-71425109D01*
X98352179Y-71550048D01*
X98352181Y-71550049D01*
X98352184Y-71550051D01*
X98541588Y-71646557D01*
X98743757Y-71712246D01*
X98953713Y-71745500D01*
X98953714Y-71745500D01*
X99166286Y-71745500D01*
X99166287Y-71745500D01*
X99376243Y-71712246D01*
X99578412Y-71646557D01*
X99767816Y-71550051D01*
X99854471Y-71487093D01*
X99939786Y-71425109D01*
X99939788Y-71425106D01*
X99939792Y-71425104D01*
X100090104Y-71274792D01*
X100090106Y-71274788D01*
X100090109Y-71274786D01*
X100215048Y-71102820D01*
X100215047Y-71102820D01*
X100215051Y-71102816D01*
X100219514Y-71094054D01*
X100267488Y-71043259D01*
X100335308Y-71026463D01*
X100401444Y-71048999D01*
X100440486Y-71094056D01*
X100444951Y-71102820D01*
X100569890Y-71274786D01*
X100720213Y-71425109D01*
X100892179Y-71550048D01*
X100892181Y-71550049D01*
X100892184Y-71550051D01*
X101081588Y-71646557D01*
X101283757Y-71712246D01*
X101493713Y-71745500D01*
X101493714Y-71745500D01*
X101706286Y-71745500D01*
X101706287Y-71745500D01*
X101916243Y-71712246D01*
X102118412Y-71646557D01*
X102307816Y-71550051D01*
X102394471Y-71487093D01*
X102479786Y-71425109D01*
X102479788Y-71425106D01*
X102479792Y-71425104D01*
X102630104Y-71274792D01*
X102630106Y-71274788D01*
X102630109Y-71274786D01*
X102755048Y-71102820D01*
X102755047Y-71102820D01*
X102755051Y-71102816D01*
X102759514Y-71094054D01*
X102807488Y-71043259D01*
X102875308Y-71026463D01*
X102941444Y-71048999D01*
X102980486Y-71094056D01*
X102984951Y-71102820D01*
X103109890Y-71274786D01*
X103260213Y-71425109D01*
X103432179Y-71550048D01*
X103432181Y-71550049D01*
X103432184Y-71550051D01*
X103621588Y-71646557D01*
X103823757Y-71712246D01*
X104033713Y-71745500D01*
X104033714Y-71745500D01*
X104246286Y-71745500D01*
X104246287Y-71745500D01*
X104456243Y-71712246D01*
X104658412Y-71646557D01*
X104847816Y-71550051D01*
X104934471Y-71487093D01*
X105019786Y-71425109D01*
X105019788Y-71425106D01*
X105019792Y-71425104D01*
X105170104Y-71274792D01*
X105170106Y-71274788D01*
X105170109Y-71274786D01*
X105295048Y-71102820D01*
X105295047Y-71102820D01*
X105295051Y-71102816D01*
X105299514Y-71094054D01*
X105347488Y-71043259D01*
X105415308Y-71026463D01*
X105481444Y-71048999D01*
X105520486Y-71094056D01*
X105524951Y-71102820D01*
X105649890Y-71274786D01*
X105800213Y-71425109D01*
X105972179Y-71550048D01*
X105972181Y-71550049D01*
X105972184Y-71550051D01*
X106161588Y-71646557D01*
X106363757Y-71712246D01*
X106573713Y-71745500D01*
X106573714Y-71745500D01*
X106786286Y-71745500D01*
X106786287Y-71745500D01*
X106996243Y-71712246D01*
X107198412Y-71646557D01*
X107387816Y-71550051D01*
X107474471Y-71487093D01*
X107559786Y-71425109D01*
X107559788Y-71425106D01*
X107559792Y-71425104D01*
X107710104Y-71274792D01*
X107710106Y-71274788D01*
X107710109Y-71274786D01*
X107835048Y-71102820D01*
X107835047Y-71102820D01*
X107835051Y-71102816D01*
X107839514Y-71094054D01*
X107887488Y-71043259D01*
X107955308Y-71026463D01*
X108021444Y-71048999D01*
X108060486Y-71094056D01*
X108064951Y-71102820D01*
X108189890Y-71274786D01*
X108340213Y-71425109D01*
X108512179Y-71550048D01*
X108512181Y-71550049D01*
X108512184Y-71550051D01*
X108701588Y-71646557D01*
X108903757Y-71712246D01*
X109113713Y-71745500D01*
X109113714Y-71745500D01*
X109326286Y-71745500D01*
X109326287Y-71745500D01*
X109536243Y-71712246D01*
X109738412Y-71646557D01*
X109927816Y-71550051D01*
X110014471Y-71487093D01*
X110099786Y-71425109D01*
X110099788Y-71425106D01*
X110099792Y-71425104D01*
X110250104Y-71274792D01*
X110250106Y-71274788D01*
X110250109Y-71274786D01*
X110375048Y-71102820D01*
X110375047Y-71102820D01*
X110375051Y-71102816D01*
X110379514Y-71094054D01*
X110427488Y-71043259D01*
X110495308Y-71026463D01*
X110561444Y-71048999D01*
X110600486Y-71094056D01*
X110604951Y-71102820D01*
X110729890Y-71274786D01*
X110880213Y-71425109D01*
X111052179Y-71550048D01*
X111052181Y-71550049D01*
X111052184Y-71550051D01*
X111241588Y-71646557D01*
X111443757Y-71712246D01*
X111653713Y-71745500D01*
X111653714Y-71745500D01*
X111866286Y-71745500D01*
X111866287Y-71745500D01*
X112076243Y-71712246D01*
X112278412Y-71646557D01*
X112467816Y-71550051D01*
X112554471Y-71487093D01*
X112639786Y-71425109D01*
X112639788Y-71425106D01*
X112639792Y-71425104D01*
X112790104Y-71274792D01*
X112790106Y-71274788D01*
X112790109Y-71274786D01*
X112915048Y-71102820D01*
X112915047Y-71102820D01*
X112915051Y-71102816D01*
X112919514Y-71094054D01*
X112967488Y-71043259D01*
X113035308Y-71026463D01*
X113101444Y-71048999D01*
X113140486Y-71094056D01*
X113144951Y-71102820D01*
X113269890Y-71274786D01*
X113420213Y-71425109D01*
X113592179Y-71550048D01*
X113592181Y-71550049D01*
X113592184Y-71550051D01*
X113781588Y-71646557D01*
X113983757Y-71712246D01*
X114193713Y-71745500D01*
X114193714Y-71745500D01*
X114406286Y-71745500D01*
X114406287Y-71745500D01*
X114616243Y-71712246D01*
X114818412Y-71646557D01*
X115007816Y-71550051D01*
X115094471Y-71487093D01*
X115179786Y-71425109D01*
X115179788Y-71425106D01*
X115179792Y-71425104D01*
X115330104Y-71274792D01*
X115330106Y-71274788D01*
X115330109Y-71274786D01*
X115455048Y-71102820D01*
X115455047Y-71102820D01*
X115455051Y-71102816D01*
X115459514Y-71094054D01*
X115507488Y-71043259D01*
X115575308Y-71026463D01*
X115641444Y-71048999D01*
X115680486Y-71094056D01*
X115684951Y-71102820D01*
X115809890Y-71274786D01*
X115960213Y-71425109D01*
X116132179Y-71550048D01*
X116132181Y-71550049D01*
X116132184Y-71550051D01*
X116321588Y-71646557D01*
X116523757Y-71712246D01*
X116733713Y-71745500D01*
X116733714Y-71745500D01*
X116946286Y-71745500D01*
X116946287Y-71745500D01*
X117156243Y-71712246D01*
X117358412Y-71646557D01*
X117547816Y-71550051D01*
X117634471Y-71487093D01*
X117719786Y-71425109D01*
X117719788Y-71425106D01*
X117719792Y-71425104D01*
X117870104Y-71274792D01*
X117870106Y-71274788D01*
X117870109Y-71274786D01*
X117995048Y-71102820D01*
X117995047Y-71102820D01*
X117995051Y-71102816D01*
X117999514Y-71094054D01*
X118047488Y-71043259D01*
X118115308Y-71026463D01*
X118181444Y-71048999D01*
X118220486Y-71094056D01*
X118224951Y-71102820D01*
X118349890Y-71274786D01*
X118500213Y-71425109D01*
X118672179Y-71550048D01*
X118672181Y-71550049D01*
X118672184Y-71550051D01*
X118861588Y-71646557D01*
X119063757Y-71712246D01*
X119273713Y-71745500D01*
X119273714Y-71745500D01*
X119486286Y-71745500D01*
X119486287Y-71745500D01*
X119696243Y-71712246D01*
X119898412Y-71646557D01*
X120087816Y-71550051D01*
X120174471Y-71487093D01*
X120259786Y-71425109D01*
X120259788Y-71425106D01*
X120259792Y-71425104D01*
X120410104Y-71274792D01*
X120410106Y-71274788D01*
X120410109Y-71274786D01*
X120535048Y-71102820D01*
X120535047Y-71102820D01*
X120535051Y-71102816D01*
X120539514Y-71094054D01*
X120587488Y-71043259D01*
X120655308Y-71026463D01*
X120721444Y-71048999D01*
X120760486Y-71094056D01*
X120764951Y-71102820D01*
X120889890Y-71274786D01*
X121040213Y-71425109D01*
X121212179Y-71550048D01*
X121212181Y-71550049D01*
X121212184Y-71550051D01*
X121401588Y-71646557D01*
X121603757Y-71712246D01*
X121813713Y-71745500D01*
X121813714Y-71745500D01*
X122026286Y-71745500D01*
X122026287Y-71745500D01*
X122236243Y-71712246D01*
X122438412Y-71646557D01*
X122627816Y-71550051D01*
X122714471Y-71487093D01*
X122799786Y-71425109D01*
X122799788Y-71425106D01*
X122799792Y-71425104D01*
X122950104Y-71274792D01*
X122950106Y-71274788D01*
X122950109Y-71274786D01*
X123075048Y-71102820D01*
X123075047Y-71102820D01*
X123075051Y-71102816D01*
X123079514Y-71094054D01*
X123127488Y-71043259D01*
X123195308Y-71026463D01*
X123261444Y-71048999D01*
X123300486Y-71094056D01*
X123304951Y-71102820D01*
X123429890Y-71274786D01*
X123580213Y-71425109D01*
X123752179Y-71550048D01*
X123752181Y-71550049D01*
X123752184Y-71550051D01*
X123941588Y-71646557D01*
X124143757Y-71712246D01*
X124353713Y-71745500D01*
X124353714Y-71745500D01*
X124566286Y-71745500D01*
X124566287Y-71745500D01*
X124776243Y-71712246D01*
X124978412Y-71646557D01*
X125167816Y-71550051D01*
X125254471Y-71487093D01*
X125339786Y-71425109D01*
X125339788Y-71425106D01*
X125339792Y-71425104D01*
X125490104Y-71274792D01*
X125490106Y-71274788D01*
X125490109Y-71274786D01*
X125615048Y-71102820D01*
X125615047Y-71102820D01*
X125615051Y-71102816D01*
X125619514Y-71094054D01*
X125667488Y-71043259D01*
X125735308Y-71026463D01*
X125801444Y-71048999D01*
X125840486Y-71094056D01*
X125844951Y-71102820D01*
X125969890Y-71274786D01*
X126120213Y-71425109D01*
X126292179Y-71550048D01*
X126292181Y-71550049D01*
X126292184Y-71550051D01*
X126481588Y-71646557D01*
X126683757Y-71712246D01*
X126893713Y-71745500D01*
X126893714Y-71745500D01*
X127106286Y-71745500D01*
X127106287Y-71745500D01*
X127316243Y-71712246D01*
X127518412Y-71646557D01*
X127707816Y-71550051D01*
X127794471Y-71487093D01*
X127879786Y-71425109D01*
X127879788Y-71425106D01*
X127879792Y-71425104D01*
X128030104Y-71274792D01*
X128030106Y-71274788D01*
X128030109Y-71274786D01*
X128155048Y-71102820D01*
X128155047Y-71102820D01*
X128155051Y-71102816D01*
X128159514Y-71094054D01*
X128207488Y-71043259D01*
X128275308Y-71026463D01*
X128341444Y-71048999D01*
X128380486Y-71094056D01*
X128384951Y-71102820D01*
X128509890Y-71274786D01*
X128660213Y-71425109D01*
X128832179Y-71550048D01*
X128832181Y-71550049D01*
X128832184Y-71550051D01*
X129021588Y-71646557D01*
X129223757Y-71712246D01*
X129433713Y-71745500D01*
X129433714Y-71745500D01*
X129646286Y-71745500D01*
X129646287Y-71745500D01*
X129856243Y-71712246D01*
X130058412Y-71646557D01*
X130247816Y-71550051D01*
X130334471Y-71487093D01*
X130419786Y-71425109D01*
X130419788Y-71425106D01*
X130419792Y-71425104D01*
X130570104Y-71274792D01*
X130570106Y-71274788D01*
X130570109Y-71274786D01*
X130695048Y-71102820D01*
X130695047Y-71102820D01*
X130695051Y-71102816D01*
X130699514Y-71094054D01*
X130747488Y-71043259D01*
X130815308Y-71026463D01*
X130881444Y-71048999D01*
X130920486Y-71094056D01*
X130924951Y-71102820D01*
X131049890Y-71274786D01*
X131200213Y-71425109D01*
X131372179Y-71550048D01*
X131372181Y-71550049D01*
X131372184Y-71550051D01*
X131561588Y-71646557D01*
X131763757Y-71712246D01*
X131973713Y-71745500D01*
X131973714Y-71745500D01*
X132186286Y-71745500D01*
X132186287Y-71745500D01*
X132396243Y-71712246D01*
X132598412Y-71646557D01*
X132787816Y-71550051D01*
X132874471Y-71487093D01*
X132959786Y-71425109D01*
X132959788Y-71425106D01*
X132959792Y-71425104D01*
X133110104Y-71274792D01*
X133110106Y-71274788D01*
X133110109Y-71274786D01*
X133235048Y-71102820D01*
X133235047Y-71102820D01*
X133235051Y-71102816D01*
X133239514Y-71094054D01*
X133287488Y-71043259D01*
X133355308Y-71026463D01*
X133421444Y-71048999D01*
X133460486Y-71094056D01*
X133464951Y-71102820D01*
X133589890Y-71274786D01*
X133740213Y-71425109D01*
X133912179Y-71550048D01*
X133912181Y-71550049D01*
X133912184Y-71550051D01*
X134101588Y-71646557D01*
X134303757Y-71712246D01*
X134513713Y-71745500D01*
X134513714Y-71745500D01*
X134726286Y-71745500D01*
X134726287Y-71745500D01*
X134936243Y-71712246D01*
X135138412Y-71646557D01*
X135327816Y-71550051D01*
X135414471Y-71487093D01*
X135499786Y-71425109D01*
X135499788Y-71425106D01*
X135499792Y-71425104D01*
X135650104Y-71274792D01*
X135650106Y-71274788D01*
X135650109Y-71274786D01*
X135775048Y-71102820D01*
X135775047Y-71102820D01*
X135775051Y-71102816D01*
X135779514Y-71094054D01*
X135827488Y-71043259D01*
X135895308Y-71026463D01*
X135961444Y-71048999D01*
X136000486Y-71094056D01*
X136004951Y-71102820D01*
X136129890Y-71274786D01*
X136280213Y-71425109D01*
X136452179Y-71550048D01*
X136452181Y-71550049D01*
X136452184Y-71550051D01*
X136641588Y-71646557D01*
X136843757Y-71712246D01*
X137053713Y-71745500D01*
X137053714Y-71745500D01*
X137266286Y-71745500D01*
X137266287Y-71745500D01*
X137476243Y-71712246D01*
X137678412Y-71646557D01*
X137867816Y-71550051D01*
X137954471Y-71487093D01*
X138039786Y-71425109D01*
X138039788Y-71425106D01*
X138039792Y-71425104D01*
X138190104Y-71274792D01*
X138190106Y-71274788D01*
X138190109Y-71274786D01*
X138315048Y-71102820D01*
X138315047Y-71102820D01*
X138315051Y-71102816D01*
X138411557Y-70913412D01*
X138477246Y-70711243D01*
X138510500Y-70501287D01*
X138510500Y-70288713D01*
X138477246Y-70078757D01*
X138411557Y-69876588D01*
X138315051Y-69687184D01*
X138315049Y-69687181D01*
X138315048Y-69687179D01*
X138190109Y-69515213D01*
X138039786Y-69364890D01*
X137867820Y-69239951D01*
X137867115Y-69239591D01*
X137859054Y-69235485D01*
X137808259Y-69187512D01*
X137791463Y-69119692D01*
X137813999Y-69053556D01*
X137859054Y-69014515D01*
X137867816Y-69010051D01*
X137889789Y-68994086D01*
X138039786Y-68885109D01*
X138039788Y-68885106D01*
X138039792Y-68885104D01*
X138190104Y-68734792D01*
X138190106Y-68734788D01*
X138190109Y-68734786D01*
X138315048Y-68562820D01*
X138315050Y-68562817D01*
X138315051Y-68562816D01*
X138411557Y-68373412D01*
X138477246Y-68171243D01*
X138510500Y-67961287D01*
X138510500Y-67748713D01*
X138477246Y-67538757D01*
X138411557Y-67336588D01*
X138315051Y-67147184D01*
X138315049Y-67147181D01*
X138315048Y-67147179D01*
X138190109Y-66975213D01*
X138039786Y-66824890D01*
X137867820Y-66699951D01*
X137678414Y-66603444D01*
X137678413Y-66603443D01*
X137678412Y-66603443D01*
X137476243Y-66537754D01*
X137476241Y-66537753D01*
X137476240Y-66537753D01*
X137314957Y-66512208D01*
X137266287Y-66504500D01*
X137053713Y-66504500D01*
X137005042Y-66512208D01*
X136843760Y-66537753D01*
X136641585Y-66603444D01*
X136452179Y-66699951D01*
X136280213Y-66824890D01*
X136129890Y-66975213D01*
X136004949Y-67147182D01*
X136000484Y-67155946D01*
X135952509Y-67206742D01*
X135884688Y-67223536D01*
X135818553Y-67200998D01*
X135779516Y-67155946D01*
X135775050Y-67147182D01*
X135650109Y-66975213D01*
X135499786Y-66824890D01*
X135327820Y-66699951D01*
X135138414Y-66603444D01*
X135138413Y-66603443D01*
X135138412Y-66603443D01*
X134936243Y-66537754D01*
X134936241Y-66537753D01*
X134936240Y-66537753D01*
X134774957Y-66512208D01*
X134726287Y-66504500D01*
X134513713Y-66504500D01*
X134465042Y-66512208D01*
X134303760Y-66537753D01*
X134101585Y-66603444D01*
X133912179Y-66699951D01*
X133740213Y-66824890D01*
X133589890Y-66975213D01*
X133464949Y-67147182D01*
X133460484Y-67155946D01*
X133412509Y-67206742D01*
X133344688Y-67223536D01*
X133278553Y-67200998D01*
X133239516Y-67155946D01*
X133235050Y-67147182D01*
X133110109Y-66975213D01*
X132959786Y-66824890D01*
X132787820Y-66699951D01*
X132598414Y-66603444D01*
X132598413Y-66603443D01*
X132598412Y-66603443D01*
X132396243Y-66537754D01*
X132396241Y-66537753D01*
X132396240Y-66537753D01*
X132234957Y-66512208D01*
X132186287Y-66504500D01*
X131973713Y-66504500D01*
X131925042Y-66512208D01*
X131763760Y-66537753D01*
X131561585Y-66603444D01*
X131372179Y-66699951D01*
X131200213Y-66824890D01*
X131049890Y-66975213D01*
X130924949Y-67147182D01*
X130920484Y-67155946D01*
X130872509Y-67206742D01*
X130804688Y-67223536D01*
X130738553Y-67200998D01*
X130699516Y-67155946D01*
X130695050Y-67147182D01*
X130570109Y-66975213D01*
X130419786Y-66824890D01*
X130247820Y-66699951D01*
X130058414Y-66603444D01*
X130058413Y-66603443D01*
X130058412Y-66603443D01*
X129856243Y-66537754D01*
X129856241Y-66537753D01*
X129856240Y-66537753D01*
X129694957Y-66512208D01*
X129646287Y-66504500D01*
X129433713Y-66504500D01*
X129385042Y-66512208D01*
X129223760Y-66537753D01*
X129021585Y-66603444D01*
X128832179Y-66699951D01*
X128660213Y-66824890D01*
X128509890Y-66975213D01*
X128384949Y-67147182D01*
X128380484Y-67155946D01*
X128332509Y-67206742D01*
X128264688Y-67223536D01*
X128198553Y-67200998D01*
X128159516Y-67155946D01*
X128155050Y-67147182D01*
X128030109Y-66975213D01*
X127879786Y-66824890D01*
X127707820Y-66699951D01*
X127518414Y-66603444D01*
X127518413Y-66603443D01*
X127518412Y-66603443D01*
X127316243Y-66537754D01*
X127316241Y-66537753D01*
X127316240Y-66537753D01*
X127154957Y-66512208D01*
X127106287Y-66504500D01*
X126893713Y-66504500D01*
X126845042Y-66512208D01*
X126683760Y-66537753D01*
X126481585Y-66603444D01*
X126292179Y-66699951D01*
X126120213Y-66824890D01*
X125969890Y-66975213D01*
X125844949Y-67147182D01*
X125840484Y-67155946D01*
X125792509Y-67206742D01*
X125724688Y-67223536D01*
X125658553Y-67200998D01*
X125619516Y-67155946D01*
X125615050Y-67147182D01*
X125490109Y-66975213D01*
X125339786Y-66824890D01*
X125167819Y-66699950D01*
X125153203Y-66692503D01*
X125102408Y-66644527D01*
X125085500Y-66582019D01*
X125085500Y-65312350D01*
X125105185Y-65245311D01*
X125106398Y-65243459D01*
X125106809Y-65242843D01*
X125169394Y-65149179D01*
X125229737Y-65003497D01*
X125260500Y-64848842D01*
X125260500Y-64691158D01*
X125260500Y-64691155D01*
X125260499Y-64691153D01*
X125229738Y-64536510D01*
X125229737Y-64536503D01*
X125229735Y-64536498D01*
X125169397Y-64390827D01*
X125169390Y-64390814D01*
X125081789Y-64259711D01*
X125081786Y-64259707D01*
X125034260Y-64212181D01*
X125000775Y-64150858D01*
X125005759Y-64081166D01*
X125047631Y-64025233D01*
X125113095Y-64000816D01*
X125121941Y-64000500D01*
X162570500Y-64000500D01*
X162637539Y-64020185D01*
X162683294Y-64072989D01*
X162694500Y-64124500D01*
X162694500Y-162570500D01*
X162674815Y-162637539D01*
X162622011Y-162683294D01*
X162570500Y-162694500D01*
X64124500Y-162694500D01*
X64057461Y-162674815D01*
X64011706Y-162622011D01*
X64000500Y-162570500D01*
X64000500Y-156848568D01*
X98229500Y-156848568D01*
X98229500Y-157129431D01*
X98260942Y-157408494D01*
X98260945Y-157408512D01*
X98323439Y-157682317D01*
X98323443Y-157682329D01*
X98416200Y-157947411D01*
X98538053Y-158200442D01*
X98538055Y-158200445D01*
X98687477Y-158438248D01*
X98862584Y-158657825D01*
X99061175Y-158856416D01*
X99280752Y-159031523D01*
X99518555Y-159180945D01*
X99771592Y-159302801D01*
X99970680Y-159372465D01*
X100036670Y-159395556D01*
X100036682Y-159395560D01*
X100310491Y-159458055D01*
X100310497Y-159458055D01*
X100310505Y-159458057D01*
X100496547Y-159479018D01*
X100589569Y-159489499D01*
X100589572Y-159489500D01*
X100589575Y-159489500D01*
X100870428Y-159489500D01*
X100870429Y-159489499D01*
X101013055Y-159473429D01*
X101149494Y-159458057D01*
X101149499Y-159458056D01*
X101149509Y-159458055D01*
X101423318Y-159395560D01*
X101688408Y-159302801D01*
X101941445Y-159180945D01*
X102179248Y-159031523D01*
X102398825Y-158856416D01*
X102597416Y-158657825D01*
X102772523Y-158438248D01*
X102921945Y-158200445D01*
X103043801Y-157947408D01*
X103136560Y-157682318D01*
X103199055Y-157408509D01*
X103212010Y-157293534D01*
X103214429Y-157272055D01*
X103230500Y-157129425D01*
X103230500Y-156848575D01*
X103214418Y-156705845D01*
X103199057Y-156569505D01*
X103199054Y-156569487D01*
X103136560Y-156295682D01*
X103136556Y-156295670D01*
X103082709Y-156141786D01*
X103043801Y-156030592D01*
X102921945Y-155777555D01*
X102772523Y-155539752D01*
X102597416Y-155320175D01*
X102398825Y-155121584D01*
X102179248Y-154946477D01*
X101941445Y-154797055D01*
X101941442Y-154797053D01*
X101688411Y-154675200D01*
X101423329Y-154582443D01*
X101423317Y-154582439D01*
X101149512Y-154519945D01*
X101149494Y-154519942D01*
X100870431Y-154488500D01*
X100870425Y-154488500D01*
X100589575Y-154488500D01*
X100589568Y-154488500D01*
X100310505Y-154519942D01*
X100310487Y-154519945D01*
X100036682Y-154582439D01*
X100036670Y-154582443D01*
X99771588Y-154675200D01*
X99518557Y-154797053D01*
X99280753Y-154946476D01*
X99061175Y-155121583D01*
X98862583Y-155320175D01*
X98687476Y-155539753D01*
X98538053Y-155777557D01*
X98416200Y-156030588D01*
X98323443Y-156295670D01*
X98323439Y-156295682D01*
X98260945Y-156569487D01*
X98260942Y-156569505D01*
X98229500Y-156848568D01*
X64000500Y-156848568D01*
X64000500Y-145456648D01*
X102839500Y-145456648D01*
X102839500Y-145661351D01*
X102871522Y-145863534D01*
X102934781Y-146058223D01*
X102998691Y-146183653D01*
X103027585Y-146240359D01*
X103027715Y-146240613D01*
X103148028Y-146406213D01*
X103292786Y-146550971D01*
X103413226Y-146638474D01*
X103458390Y-146671287D01*
X103574607Y-146730503D01*
X103640776Y-146764218D01*
X103640778Y-146764218D01*
X103640781Y-146764220D01*
X103745137Y-146798127D01*
X103835465Y-146827477D01*
X103936557Y-146843488D01*
X104037648Y-146859500D01*
X104037649Y-146859500D01*
X104242351Y-146859500D01*
X104242352Y-146859500D01*
X104444534Y-146827477D01*
X104639219Y-146764220D01*
X104821610Y-146671287D01*
X104914590Y-146603732D01*
X104987213Y-146550971D01*
X104987215Y-146550968D01*
X104987219Y-146550966D01*
X105131966Y-146406219D01*
X105131968Y-146406215D01*
X105131971Y-146406213D01*
X105252284Y-146240614D01*
X105252286Y-146240611D01*
X105252287Y-146240610D01*
X105299516Y-146147917D01*
X105347489Y-146097123D01*
X105415310Y-146080328D01*
X105481445Y-146102865D01*
X105520485Y-146147919D01*
X105567715Y-146240614D01*
X105688028Y-146406213D01*
X105832786Y-146550971D01*
X105953226Y-146638474D01*
X105998390Y-146671287D01*
X106114607Y-146730503D01*
X106180776Y-146764218D01*
X106180778Y-146764218D01*
X106180781Y-146764220D01*
X106285137Y-146798127D01*
X106375465Y-146827477D01*
X106476557Y-146843488D01*
X106577648Y-146859500D01*
X106577649Y-146859500D01*
X106782351Y-146859500D01*
X106782352Y-146859500D01*
X106984534Y-146827477D01*
X107179219Y-146764220D01*
X107361610Y-146671287D01*
X107454590Y-146603732D01*
X107527213Y-146550971D01*
X107527215Y-146550968D01*
X107527219Y-146550966D01*
X107671966Y-146406219D01*
X107671968Y-146406215D01*
X107671971Y-146406213D01*
X107792284Y-146240614D01*
X107792286Y-146240611D01*
X107792287Y-146240610D01*
X107839516Y-146147917D01*
X107887489Y-146097123D01*
X107955310Y-146080328D01*
X108021445Y-146102865D01*
X108060485Y-146147919D01*
X108107715Y-146240614D01*
X108228028Y-146406213D01*
X108372786Y-146550971D01*
X108493226Y-146638474D01*
X108538390Y-146671287D01*
X108654607Y-146730503D01*
X108720776Y-146764218D01*
X108720778Y-146764218D01*
X108720781Y-146764220D01*
X108825137Y-146798127D01*
X108915465Y-146827477D01*
X109016557Y-146843488D01*
X109117648Y-146859500D01*
X109117649Y-146859500D01*
X109322351Y-146859500D01*
X109322352Y-146859500D01*
X109524534Y-146827477D01*
X109719219Y-146764220D01*
X109901610Y-146671287D01*
X109994590Y-146603732D01*
X110067213Y-146550971D01*
X110067215Y-146550968D01*
X110067219Y-146550966D01*
X110211966Y-146406219D01*
X110211968Y-146406215D01*
X110211971Y-146406213D01*
X110332284Y-146240614D01*
X110332286Y-146240611D01*
X110332287Y-146240610D01*
X110379516Y-146147917D01*
X110427489Y-146097123D01*
X110495310Y-146080328D01*
X110561445Y-146102865D01*
X110600485Y-146147919D01*
X110647715Y-146240614D01*
X110768028Y-146406213D01*
X110912786Y-146550971D01*
X111033226Y-146638474D01*
X111078390Y-146671287D01*
X111194607Y-146730503D01*
X111260776Y-146764218D01*
X111260778Y-146764218D01*
X111260781Y-146764220D01*
X111365137Y-146798127D01*
X111455465Y-146827477D01*
X111556557Y-146843488D01*
X111657648Y-146859500D01*
X111657649Y-146859500D01*
X111862351Y-146859500D01*
X111862352Y-146859500D01*
X112064534Y-146827477D01*
X112259219Y-146764220D01*
X112441610Y-146671287D01*
X112534590Y-146603732D01*
X112607213Y-146550971D01*
X112607215Y-146550968D01*
X112607219Y-146550966D01*
X112751966Y-146406219D01*
X112751968Y-146406215D01*
X112751971Y-146406213D01*
X112872284Y-146240614D01*
X112872286Y-146240611D01*
X112872287Y-146240610D01*
X112919516Y-146147917D01*
X112967489Y-146097123D01*
X113035310Y-146080328D01*
X113101445Y-146102865D01*
X113140485Y-146147919D01*
X113187715Y-146240614D01*
X113308028Y-146406213D01*
X113452786Y-146550971D01*
X113573226Y-146638474D01*
X113618390Y-146671287D01*
X113734607Y-146730503D01*
X113800776Y-146764218D01*
X113800778Y-146764218D01*
X113800781Y-146764220D01*
X113905137Y-146798127D01*
X113995465Y-146827477D01*
X114096557Y-146843488D01*
X114197648Y-146859500D01*
X114197649Y-146859500D01*
X114355546Y-146859500D01*
X114422585Y-146879185D01*
X114468340Y-146931989D01*
X114478284Y-147001147D01*
X114449259Y-147064703D01*
X114443227Y-147071181D01*
X110061269Y-151453140D01*
X109974144Y-151540264D01*
X109974138Y-151540272D01*
X109905692Y-151642705D01*
X109905684Y-151642719D01*
X109872347Y-151723207D01*
X109866823Y-151736543D01*
X109858537Y-151756545D01*
X109858535Y-151756553D01*
X109834500Y-151877389D01*
X109834500Y-152932885D01*
X109814815Y-152999924D01*
X109781428Y-153032606D01*
X109782331Y-153033849D01*
X109612786Y-153157028D01*
X109468028Y-153301786D01*
X109347715Y-153467386D01*
X109254781Y-153649776D01*
X109232430Y-153718567D01*
X109192992Y-153776242D01*
X109128633Y-153803440D01*
X109059787Y-153791525D01*
X109008311Y-153744280D01*
X108990499Y-153680248D01*
X108990499Y-153301129D01*
X108990498Y-153301123D01*
X108990497Y-153301116D01*
X108984091Y-153241517D01*
X108933796Y-153106669D01*
X108933795Y-153106668D01*
X108933793Y-153106664D01*
X108847547Y-152991455D01*
X108847544Y-152991452D01*
X108732335Y-152905206D01*
X108732328Y-152905202D01*
X108597482Y-152854908D01*
X108597483Y-152854908D01*
X108537883Y-152848501D01*
X108537881Y-152848500D01*
X108537873Y-152848500D01*
X108537864Y-152848500D01*
X106842129Y-152848500D01*
X106842123Y-152848501D01*
X106782516Y-152854908D01*
X106647671Y-152905202D01*
X106647664Y-152905206D01*
X106532455Y-152991452D01*
X106532452Y-152991455D01*
X106446206Y-153106664D01*
X106446202Y-153106671D01*
X106395908Y-153241517D01*
X106389501Y-153301116D01*
X106389501Y-153301123D01*
X106389500Y-153301135D01*
X106389500Y-154996870D01*
X106389501Y-154996876D01*
X106395908Y-155056483D01*
X106446202Y-155191328D01*
X106446206Y-155191335D01*
X106532452Y-155306544D01*
X106532455Y-155306547D01*
X106647664Y-155392793D01*
X106647671Y-155392797D01*
X106782517Y-155443091D01*
X106782516Y-155443091D01*
X106789444Y-155443835D01*
X106842127Y-155449500D01*
X108537872Y-155449499D01*
X108597483Y-155443091D01*
X108732331Y-155392796D01*
X108847546Y-155306546D01*
X108933796Y-155191331D01*
X108984091Y-155056483D01*
X108990500Y-154996873D01*
X108990499Y-154617750D01*
X109010183Y-154550714D01*
X109062987Y-154504959D01*
X109132146Y-154495015D01*
X109195701Y-154524040D01*
X109232430Y-154579433D01*
X109254782Y-154648224D01*
X109304723Y-154746238D01*
X109347585Y-154830359D01*
X109347715Y-154830613D01*
X109468028Y-154996213D01*
X109612786Y-155140971D01*
X109733226Y-155228474D01*
X109778390Y-155261287D01*
X109867212Y-155306544D01*
X109960776Y-155354218D01*
X109960778Y-155354218D01*
X109960781Y-155354220D01*
X110065137Y-155388127D01*
X110155465Y-155417477D01*
X110246679Y-155431924D01*
X110357648Y-155449500D01*
X110357649Y-155449500D01*
X110562351Y-155449500D01*
X110562352Y-155449500D01*
X110764534Y-155417477D01*
X110959219Y-155354220D01*
X111141610Y-155261287D01*
X111237901Y-155191328D01*
X111307213Y-155140971D01*
X111307215Y-155140968D01*
X111307219Y-155140966D01*
X111451966Y-154996219D01*
X111451968Y-154996215D01*
X111451971Y-154996213D01*
X111504732Y-154923590D01*
X111572287Y-154830610D01*
X111665220Y-154648219D01*
X111727069Y-154457868D01*
X111766507Y-154400193D01*
X111830866Y-154372995D01*
X111899712Y-154384910D01*
X111951188Y-154432154D01*
X111962931Y-154457868D01*
X112024781Y-154648223D01*
X112088691Y-154773653D01*
X112117585Y-154830359D01*
X112117715Y-154830613D01*
X112238028Y-154996213D01*
X112382786Y-155140971D01*
X112503226Y-155228474D01*
X112548390Y-155261287D01*
X112637212Y-155306544D01*
X112730776Y-155354218D01*
X112730778Y-155354218D01*
X112730781Y-155354220D01*
X112835137Y-155388127D01*
X112925465Y-155417477D01*
X113016679Y-155431924D01*
X113127648Y-155449500D01*
X113127649Y-155449500D01*
X113332351Y-155449500D01*
X113332352Y-155449500D01*
X113534534Y-155417477D01*
X113729219Y-155354220D01*
X113911610Y-155261287D01*
X114007901Y-155191328D01*
X114077213Y-155140971D01*
X114077215Y-155140968D01*
X114077219Y-155140966D01*
X114221966Y-154996219D01*
X114221968Y-154996215D01*
X114221971Y-154996213D01*
X114274732Y-154923590D01*
X114342287Y-154830610D01*
X114435220Y-154648219D01*
X114497069Y-154457868D01*
X114536507Y-154400193D01*
X114600866Y-154372995D01*
X114669712Y-154384910D01*
X114721188Y-154432154D01*
X114732931Y-154457868D01*
X114794781Y-154648223D01*
X114858691Y-154773653D01*
X114887585Y-154830359D01*
X114887715Y-154830613D01*
X115008028Y-154996213D01*
X115152786Y-155140971D01*
X115273226Y-155228474D01*
X115318390Y-155261287D01*
X115407212Y-155306544D01*
X115500776Y-155354218D01*
X115500778Y-155354218D01*
X115500781Y-155354220D01*
X115605137Y-155388127D01*
X115695465Y-155417477D01*
X115786679Y-155431924D01*
X115897648Y-155449500D01*
X115897649Y-155449500D01*
X116102351Y-155449500D01*
X116102352Y-155449500D01*
X116304534Y-155417477D01*
X116499219Y-155354220D01*
X116681610Y-155261287D01*
X116777901Y-155191328D01*
X116847213Y-155140971D01*
X116847215Y-155140968D01*
X116847219Y-155140966D01*
X116991966Y-154996219D01*
X116991968Y-154996215D01*
X116991971Y-154996213D01*
X117044732Y-154923590D01*
X117112287Y-154830610D01*
X117205220Y-154648219D01*
X117267331Y-154457060D01*
X117306769Y-154399385D01*
X117371127Y-154372187D01*
X117439974Y-154384102D01*
X117491449Y-154431346D01*
X117503193Y-154457060D01*
X117565244Y-154648031D01*
X117658141Y-154830350D01*
X117658147Y-154830359D01*
X117690523Y-154874921D01*
X117690524Y-154874922D01*
X118287037Y-154278409D01*
X118304075Y-154341993D01*
X118369901Y-154456007D01*
X118462993Y-154549099D01*
X118577007Y-154614925D01*
X118640590Y-154631962D01*
X118044076Y-155228474D01*
X118088650Y-155260859D01*
X118270968Y-155353754D01*
X118390169Y-155392486D01*
X118447844Y-155431924D01*
X118475042Y-155496283D01*
X118463127Y-155565129D01*
X118439531Y-155598098D01*
X118192789Y-155844841D01*
X118131466Y-155878326D01*
X118061775Y-155873342D01*
X118048813Y-155867645D01*
X117884223Y-155783781D01*
X117689534Y-155720522D01*
X117514995Y-155692878D01*
X117487352Y-155688500D01*
X117282648Y-155688500D01*
X117258329Y-155692351D01*
X117080465Y-155720522D01*
X116885776Y-155783781D01*
X116703386Y-155876715D01*
X116537786Y-155997028D01*
X116393028Y-156141786D01*
X116272715Y-156307386D01*
X116179781Y-156489776D01*
X116117931Y-156680131D01*
X116078493Y-156737806D01*
X116014134Y-156765004D01*
X115945288Y-156753089D01*
X115893812Y-156705845D01*
X115882069Y-156680131D01*
X115820218Y-156489776D01*
X115786503Y-156423607D01*
X115727287Y-156307390D01*
X115718772Y-156295670D01*
X115606971Y-156141786D01*
X115462213Y-155997028D01*
X115296613Y-155876715D01*
X115296612Y-155876714D01*
X115296610Y-155876713D01*
X115234058Y-155844841D01*
X115114223Y-155783781D01*
X114919534Y-155720522D01*
X114744995Y-155692878D01*
X114717352Y-155688500D01*
X114512648Y-155688500D01*
X114488329Y-155692351D01*
X114310465Y-155720522D01*
X114115776Y-155783781D01*
X113933386Y-155876715D01*
X113767786Y-155997028D01*
X113623028Y-156141786D01*
X113502715Y-156307386D01*
X113409781Y-156489776D01*
X113347931Y-156680131D01*
X113308493Y-156737806D01*
X113244134Y-156765004D01*
X113175288Y-156753089D01*
X113123812Y-156705845D01*
X113112069Y-156680131D01*
X113050218Y-156489776D01*
X113016503Y-156423607D01*
X112957287Y-156307390D01*
X112948772Y-156295670D01*
X112836971Y-156141786D01*
X112692213Y-155997028D01*
X112526613Y-155876715D01*
X112526612Y-155876714D01*
X112526610Y-155876713D01*
X112464058Y-155844841D01*
X112344223Y-155783781D01*
X112149534Y-155720522D01*
X111974995Y-155692878D01*
X111947352Y-155688500D01*
X111742648Y-155688500D01*
X111718329Y-155692351D01*
X111540465Y-155720522D01*
X111345776Y-155783781D01*
X111163386Y-155876715D01*
X110997786Y-155997028D01*
X110853028Y-156141786D01*
X110732715Y-156307386D01*
X110639781Y-156489776D01*
X110577931Y-156680131D01*
X110538493Y-156737806D01*
X110474134Y-156765004D01*
X110405288Y-156753089D01*
X110353812Y-156705845D01*
X110342069Y-156680131D01*
X110280218Y-156489776D01*
X110246503Y-156423607D01*
X110187287Y-156307390D01*
X110178772Y-156295670D01*
X110066971Y-156141786D01*
X109922213Y-155997028D01*
X109756613Y-155876715D01*
X109756612Y-155876714D01*
X109756610Y-155876713D01*
X109694058Y-155844841D01*
X109574223Y-155783781D01*
X109379534Y-155720522D01*
X109204995Y-155692878D01*
X109177352Y-155688500D01*
X108972648Y-155688500D01*
X108948329Y-155692351D01*
X108770465Y-155720522D01*
X108575776Y-155783781D01*
X108393386Y-155876715D01*
X108227786Y-155997028D01*
X108083028Y-156141786D01*
X107962715Y-156307386D01*
X107869781Y-156489776D01*
X107806522Y-156684465D01*
X107774500Y-156886648D01*
X107774500Y-157091351D01*
X107806522Y-157293534D01*
X107869781Y-157488223D01*
X107912443Y-157571950D01*
X107962710Y-157670605D01*
X107962715Y-157670613D01*
X108083028Y-157836213D01*
X108227786Y-157980971D01*
X108382749Y-158093556D01*
X108393390Y-158101287D01*
X108509607Y-158160503D01*
X108575776Y-158194218D01*
X108575778Y-158194218D01*
X108575781Y-158194220D01*
X108680137Y-158228127D01*
X108770465Y-158257477D01*
X108871557Y-158273488D01*
X108972648Y-158289500D01*
X108972649Y-158289500D01*
X109177351Y-158289500D01*
X109177352Y-158289500D01*
X109379534Y-158257477D01*
X109574219Y-158194220D01*
X109756610Y-158101287D01*
X109849590Y-158033732D01*
X109922213Y-157980971D01*
X109922215Y-157980968D01*
X109922219Y-157980966D01*
X110066966Y-157836219D01*
X110066968Y-157836215D01*
X110066971Y-157836213D01*
X110119732Y-157763590D01*
X110187287Y-157670610D01*
X110280220Y-157488219D01*
X110342069Y-157297868D01*
X110381507Y-157240193D01*
X110445866Y-157212995D01*
X110514712Y-157224910D01*
X110566188Y-157272154D01*
X110577931Y-157297868D01*
X110639781Y-157488223D01*
X110682443Y-157571950D01*
X110732710Y-157670605D01*
X110732715Y-157670613D01*
X110853028Y-157836213D01*
X110997786Y-157980971D01*
X111152749Y-158093556D01*
X111163390Y-158101287D01*
X111279607Y-158160503D01*
X111345776Y-158194218D01*
X111345778Y-158194218D01*
X111345781Y-158194220D01*
X111450137Y-158228127D01*
X111540465Y-158257477D01*
X111641557Y-158273488D01*
X111742648Y-158289500D01*
X111742649Y-158289500D01*
X111947351Y-158289500D01*
X111947352Y-158289500D01*
X112149534Y-158257477D01*
X112344219Y-158194220D01*
X112526610Y-158101287D01*
X112619590Y-158033732D01*
X112692213Y-157980971D01*
X112692215Y-157980968D01*
X112692219Y-157980966D01*
X112836966Y-157836219D01*
X112836968Y-157836215D01*
X112836971Y-157836213D01*
X112889732Y-157763590D01*
X112957287Y-157670610D01*
X113050220Y-157488219D01*
X113112069Y-157297868D01*
X113151507Y-157240193D01*
X113215866Y-157212995D01*
X113284712Y-157224910D01*
X113336188Y-157272154D01*
X113347931Y-157297868D01*
X113409781Y-157488223D01*
X113452443Y-157571950D01*
X113502710Y-157670605D01*
X113502715Y-157670613D01*
X113623028Y-157836213D01*
X113767786Y-157980971D01*
X113922749Y-158093556D01*
X113933390Y-158101287D01*
X114049607Y-158160503D01*
X114115776Y-158194218D01*
X114115778Y-158194218D01*
X114115781Y-158194220D01*
X114220137Y-158228127D01*
X114310465Y-158257477D01*
X114411557Y-158273488D01*
X114512648Y-158289500D01*
X114512649Y-158289500D01*
X114717351Y-158289500D01*
X114717352Y-158289500D01*
X114919534Y-158257477D01*
X115114219Y-158194220D01*
X115296610Y-158101287D01*
X115389590Y-158033732D01*
X115462213Y-157980971D01*
X115462215Y-157980968D01*
X115462219Y-157980966D01*
X115606966Y-157836219D01*
X115606968Y-157836215D01*
X115606971Y-157836213D01*
X115659732Y-157763590D01*
X115727287Y-157670610D01*
X115820220Y-157488219D01*
X115882069Y-157297868D01*
X115921507Y-157240193D01*
X115985866Y-157212995D01*
X116054712Y-157224910D01*
X116106188Y-157272154D01*
X116117931Y-157297868D01*
X116179781Y-157488223D01*
X116222443Y-157571950D01*
X116272710Y-157670605D01*
X116272715Y-157670613D01*
X116393028Y-157836213D01*
X116537786Y-157980971D01*
X116692749Y-158093556D01*
X116703390Y-158101287D01*
X116819607Y-158160503D01*
X116885776Y-158194218D01*
X116885778Y-158194218D01*
X116885781Y-158194220D01*
X116990137Y-158228127D01*
X117080465Y-158257477D01*
X117181557Y-158273488D01*
X117282648Y-158289500D01*
X117282649Y-158289500D01*
X117487351Y-158289500D01*
X117487352Y-158289500D01*
X117689534Y-158257477D01*
X117884219Y-158194220D01*
X118066610Y-158101287D01*
X118159590Y-158033732D01*
X118232213Y-157980971D01*
X118232215Y-157980968D01*
X118232219Y-157980966D01*
X118376966Y-157836219D01*
X118497287Y-157670610D01*
X118511772Y-157642179D01*
X118553368Y-157595368D01*
X118588416Y-157571952D01*
X119311800Y-156848568D01*
X123229500Y-156848568D01*
X123229500Y-157129431D01*
X123260942Y-157408494D01*
X123260945Y-157408512D01*
X123323439Y-157682317D01*
X123323443Y-157682329D01*
X123416200Y-157947411D01*
X123538053Y-158200442D01*
X123538055Y-158200445D01*
X123687477Y-158438248D01*
X123862584Y-158657825D01*
X124061175Y-158856416D01*
X124280752Y-159031523D01*
X124518555Y-159180945D01*
X124771592Y-159302801D01*
X124970680Y-159372465D01*
X125036670Y-159395556D01*
X125036682Y-159395560D01*
X125310491Y-159458055D01*
X125310497Y-159458055D01*
X125310505Y-159458057D01*
X125496547Y-159479018D01*
X125589569Y-159489499D01*
X125589572Y-159489500D01*
X125589575Y-159489500D01*
X125870428Y-159489500D01*
X125870429Y-159489499D01*
X126013055Y-159473429D01*
X126149494Y-159458057D01*
X126149499Y-159458056D01*
X126149509Y-159458055D01*
X126423318Y-159395560D01*
X126688408Y-159302801D01*
X126941445Y-159180945D01*
X127179248Y-159031523D01*
X127398825Y-158856416D01*
X127597416Y-158657825D01*
X127772523Y-158438248D01*
X127921945Y-158200445D01*
X128043801Y-157947408D01*
X128136560Y-157682318D01*
X128199055Y-157408509D01*
X128212010Y-157293534D01*
X128214429Y-157272055D01*
X128230500Y-157129425D01*
X128230500Y-156848575D01*
X128214418Y-156705845D01*
X128199057Y-156569505D01*
X128199054Y-156569487D01*
X128136560Y-156295682D01*
X128136556Y-156295670D01*
X128082709Y-156141786D01*
X128043801Y-156030592D01*
X127921945Y-155777555D01*
X127772523Y-155539752D01*
X127597416Y-155320175D01*
X127398825Y-155121584D01*
X127179248Y-154946477D01*
X126941445Y-154797055D01*
X126941442Y-154797053D01*
X126688411Y-154675200D01*
X126423329Y-154582443D01*
X126423317Y-154582439D01*
X126149512Y-154519945D01*
X126149494Y-154519942D01*
X125870431Y-154488500D01*
X125870425Y-154488500D01*
X125589575Y-154488500D01*
X125589568Y-154488500D01*
X125310505Y-154519942D01*
X125310487Y-154519945D01*
X125036682Y-154582439D01*
X125036670Y-154582443D01*
X124771588Y-154675200D01*
X124518557Y-154797053D01*
X124280753Y-154946476D01*
X124061175Y-155121583D01*
X123862583Y-155320175D01*
X123687476Y-155539753D01*
X123538053Y-155777557D01*
X123416200Y-156030588D01*
X123323443Y-156295670D01*
X123323439Y-156295682D01*
X123260945Y-156569487D01*
X123260942Y-156569505D01*
X123229500Y-156848568D01*
X119311800Y-156848568D01*
X122502952Y-153657415D01*
X122530205Y-153616627D01*
X122585084Y-153534495D01*
X122612880Y-153467390D01*
X122641659Y-153397912D01*
X122670500Y-153252917D01*
X122670500Y-153105082D01*
X122670500Y-150454416D01*
X122690185Y-150387377D01*
X122721613Y-150354099D01*
X122767219Y-150320966D01*
X122911966Y-150176219D01*
X122911968Y-150176215D01*
X122911971Y-150176213D01*
X122964732Y-150103590D01*
X123032287Y-150010610D01*
X123125220Y-149828219D01*
X123188477Y-149633534D01*
X123220500Y-149431352D01*
X123220500Y-149226648D01*
X123212257Y-149174606D01*
X123188477Y-149024465D01*
X123157458Y-148929000D01*
X123125220Y-148829781D01*
X123125218Y-148829778D01*
X123125218Y-148829776D01*
X123032419Y-148647650D01*
X123032287Y-148647390D01*
X123000092Y-148603077D01*
X122911971Y-148481786D01*
X122767213Y-148337028D01*
X122601613Y-148216715D01*
X122601612Y-148216714D01*
X122601610Y-148216713D01*
X122544653Y-148187691D01*
X122419223Y-148123781D01*
X122224534Y-148060522D01*
X122049995Y-148032878D01*
X122022352Y-148028500D01*
X121817648Y-148028500D01*
X121793329Y-148032351D01*
X121615465Y-148060522D01*
X121420776Y-148123781D01*
X121238386Y-148216715D01*
X121072786Y-148337028D01*
X120928028Y-148481786D01*
X120807715Y-148647386D01*
X120714781Y-148829776D01*
X120651522Y-149024465D01*
X120619500Y-149226648D01*
X120619500Y-149431351D01*
X120651522Y-149633534D01*
X120714781Y-149828223D01*
X120778691Y-149953653D01*
X120807585Y-150010359D01*
X120807715Y-150010613D01*
X120928028Y-150176213D01*
X120928034Y-150176219D01*
X121072781Y-150320966D01*
X121118384Y-150354098D01*
X121161050Y-150409425D01*
X121169500Y-150454416D01*
X121169500Y-152816769D01*
X121149815Y-152883808D01*
X121133181Y-152904450D01*
X120219098Y-153818531D01*
X120157775Y-153852016D01*
X120088083Y-153847032D01*
X120032150Y-153805160D01*
X120013486Y-153769169D01*
X119974754Y-153649968D01*
X119881859Y-153467650D01*
X119849474Y-153423077D01*
X119849474Y-153423076D01*
X119252962Y-154019590D01*
X119235925Y-153956007D01*
X119170099Y-153841993D01*
X119077007Y-153748901D01*
X118962993Y-153683075D01*
X118899408Y-153666037D01*
X119495922Y-153069524D01*
X119495921Y-153069523D01*
X119451359Y-153037147D01*
X119451350Y-153037141D01*
X119269031Y-152944244D01*
X119074417Y-152881009D01*
X118872317Y-152849000D01*
X118667683Y-152849000D01*
X118465582Y-152881009D01*
X118270968Y-152944244D01*
X118088644Y-153037143D01*
X118044077Y-153069523D01*
X118044077Y-153069524D01*
X118640591Y-153666037D01*
X118577007Y-153683075D01*
X118462993Y-153748901D01*
X118369901Y-153841993D01*
X118304075Y-153956007D01*
X118287037Y-154019590D01*
X117690524Y-153423077D01*
X117690523Y-153423077D01*
X117658143Y-153467644D01*
X117565244Y-153649968D01*
X117503193Y-153840939D01*
X117463755Y-153898614D01*
X117399396Y-153925812D01*
X117330550Y-153913897D01*
X117279074Y-153866652D01*
X117267331Y-153840938D01*
X117246310Y-153776242D01*
X117205220Y-153649781D01*
X117112287Y-153467390D01*
X117080092Y-153423077D01*
X116991971Y-153301786D01*
X116847213Y-153157028D01*
X116681613Y-153036715D01*
X116681612Y-153036714D01*
X116681610Y-153036713D01*
X116609408Y-152999924D01*
X116499223Y-152943781D01*
X116304534Y-152880522D01*
X116129995Y-152852878D01*
X116102352Y-152848500D01*
X115897648Y-152848500D01*
X115873329Y-152852351D01*
X115695465Y-152880522D01*
X115500776Y-152943781D01*
X115318386Y-153036715D01*
X115152786Y-153157028D01*
X115008028Y-153301786D01*
X114887715Y-153467386D01*
X114794781Y-153649776D01*
X114732931Y-153840131D01*
X114693493Y-153897806D01*
X114629134Y-153925004D01*
X114560288Y-153913089D01*
X114508812Y-153865845D01*
X114497069Y-153840131D01*
X114437700Y-153657415D01*
X114435220Y-153649781D01*
X114435218Y-153649778D01*
X114435218Y-153649776D01*
X114401503Y-153583607D01*
X114342287Y-153467390D01*
X114310092Y-153423077D01*
X114221971Y-153301786D01*
X114077213Y-153157028D01*
X113911613Y-153036715D01*
X113911612Y-153036714D01*
X113911610Y-153036713D01*
X113839408Y-152999924D01*
X113729223Y-152943781D01*
X113534534Y-152880522D01*
X113359995Y-152852878D01*
X113332352Y-152848500D01*
X113127648Y-152848500D01*
X113103329Y-152852351D01*
X112925465Y-152880522D01*
X112730776Y-152943781D01*
X112548386Y-153036715D01*
X112382786Y-153157028D01*
X112238028Y-153301786D01*
X112117715Y-153467386D01*
X112024781Y-153649776D01*
X111962931Y-153840131D01*
X111923493Y-153897806D01*
X111859134Y-153925004D01*
X111790288Y-153913089D01*
X111738812Y-153865845D01*
X111727069Y-153840131D01*
X111667700Y-153657415D01*
X111665220Y-153649781D01*
X111665218Y-153649778D01*
X111665218Y-153649776D01*
X111631503Y-153583607D01*
X111572287Y-153467390D01*
X111540092Y-153423077D01*
X111451971Y-153301786D01*
X111307213Y-153157028D01*
X111137669Y-153033849D01*
X111138884Y-153032176D01*
X111097831Y-152986792D01*
X111085500Y-152932885D01*
X111085500Y-152249451D01*
X111105185Y-152182412D01*
X111121814Y-152161775D01*
X114056906Y-149226682D01*
X115620000Y-149226682D01*
X115620000Y-149431317D01*
X115652009Y-149633417D01*
X115715244Y-149828031D01*
X115808141Y-150010350D01*
X115808147Y-150010359D01*
X115840523Y-150054921D01*
X115840524Y-150054922D01*
X116520000Y-149375446D01*
X116520000Y-149381661D01*
X116547259Y-149483394D01*
X116599920Y-149574606D01*
X116674394Y-149649080D01*
X116765606Y-149701741D01*
X116867339Y-149729000D01*
X116873553Y-149729000D01*
X116194076Y-150408474D01*
X116238650Y-150440859D01*
X116420968Y-150533755D01*
X116615582Y-150596990D01*
X116817683Y-150629000D01*
X117022317Y-150629000D01*
X117224417Y-150596990D01*
X117419031Y-150533755D01*
X117601349Y-150440859D01*
X117645921Y-150408474D01*
X116966447Y-149729000D01*
X116972661Y-149729000D01*
X117074394Y-149701741D01*
X117165606Y-149649080D01*
X117240080Y-149574606D01*
X117292741Y-149483394D01*
X117320000Y-149381661D01*
X117320000Y-149375448D01*
X117999474Y-150054922D01*
X117999474Y-150054921D01*
X118031859Y-150010349D01*
X118124755Y-149828031D01*
X118187990Y-149633417D01*
X118220000Y-149431317D01*
X118220000Y-149226682D01*
X118187990Y-149024582D01*
X118124755Y-148829968D01*
X118031859Y-148647650D01*
X117999474Y-148603077D01*
X117999474Y-148603076D01*
X117320000Y-149282551D01*
X117320000Y-149276339D01*
X117292741Y-149174606D01*
X117240080Y-149083394D01*
X117165606Y-149008920D01*
X117074394Y-148956259D01*
X116972661Y-148929000D01*
X116966446Y-148929000D01*
X117645922Y-148249524D01*
X117645921Y-148249523D01*
X117601359Y-148217147D01*
X117601350Y-148217141D01*
X117419031Y-148124244D01*
X117224417Y-148061009D01*
X117022317Y-148029000D01*
X116817683Y-148029000D01*
X116615582Y-148061009D01*
X116420968Y-148124244D01*
X116238644Y-148217143D01*
X116194077Y-148249523D01*
X116194077Y-148249524D01*
X116873554Y-148929000D01*
X116867339Y-148929000D01*
X116765606Y-148956259D01*
X116674394Y-149008920D01*
X116599920Y-149083394D01*
X116547259Y-149174606D01*
X116520000Y-149276339D01*
X116520000Y-149282553D01*
X115840524Y-148603077D01*
X115840523Y-148603077D01*
X115808143Y-148647644D01*
X115715244Y-148829968D01*
X115652009Y-149024582D01*
X115620000Y-149226682D01*
X114056906Y-149226682D01*
X116422373Y-146861215D01*
X116483694Y-146827732D01*
X116530410Y-146828249D01*
X116530654Y-146826715D01*
X116634101Y-146843099D01*
X116737648Y-146859500D01*
X116737649Y-146859500D01*
X116942351Y-146859500D01*
X116942352Y-146859500D01*
X117144534Y-146827477D01*
X117339219Y-146764220D01*
X117521610Y-146671287D01*
X117614590Y-146603732D01*
X117687213Y-146550971D01*
X117687215Y-146550968D01*
X117687219Y-146550966D01*
X117831966Y-146406219D01*
X117831968Y-146406215D01*
X117831971Y-146406213D01*
X117952286Y-146240611D01*
X117952415Y-146240359D01*
X117999795Y-146147369D01*
X118047769Y-146096573D01*
X118115590Y-146079778D01*
X118181725Y-146102315D01*
X118220765Y-146147369D01*
X118268141Y-146240350D01*
X118268147Y-146240359D01*
X118300523Y-146284921D01*
X118300524Y-146284922D01*
X118980000Y-145605446D01*
X118980000Y-145611661D01*
X119007259Y-145713394D01*
X119059920Y-145804606D01*
X119134394Y-145879080D01*
X119225606Y-145931741D01*
X119327339Y-145959000D01*
X119333553Y-145959000D01*
X118654076Y-146638474D01*
X118698650Y-146670859D01*
X118880968Y-146763755D01*
X119075582Y-146826990D01*
X119277683Y-146859000D01*
X119482317Y-146859000D01*
X119684417Y-146826990D01*
X119879031Y-146763755D01*
X120061349Y-146670859D01*
X120105921Y-146638474D01*
X119426447Y-145959000D01*
X119432661Y-145959000D01*
X119534394Y-145931741D01*
X119625606Y-145879080D01*
X119700080Y-145804606D01*
X119752741Y-145713394D01*
X119780000Y-145611661D01*
X119780000Y-145605448D01*
X120459474Y-146284922D01*
X120459474Y-146284921D01*
X120491861Y-146240347D01*
X120491861Y-146240346D01*
X120539234Y-146147371D01*
X120587208Y-146096575D01*
X120655028Y-146079779D01*
X120721164Y-146102316D01*
X120760203Y-146147369D01*
X120807713Y-146240611D01*
X120928028Y-146406213D01*
X121072786Y-146550971D01*
X121193226Y-146638474D01*
X121238390Y-146671287D01*
X121354607Y-146730503D01*
X121420776Y-146764218D01*
X121420778Y-146764218D01*
X121420781Y-146764220D01*
X121525137Y-146798127D01*
X121615465Y-146827477D01*
X121716557Y-146843488D01*
X121817648Y-146859500D01*
X121817649Y-146859500D01*
X122022351Y-146859500D01*
X122022352Y-146859500D01*
X122224534Y-146827477D01*
X122419219Y-146764220D01*
X122601610Y-146671287D01*
X122694590Y-146603732D01*
X122767213Y-146550971D01*
X122767215Y-146550968D01*
X122767219Y-146550966D01*
X122911966Y-146406219D01*
X122911968Y-146406215D01*
X122911971Y-146406213D01*
X122964732Y-146333590D01*
X123032287Y-146240610D01*
X123125220Y-146058219D01*
X123188477Y-145863534D01*
X123220500Y-145661352D01*
X123220500Y-145456648D01*
X123212257Y-145404606D01*
X123188477Y-145254465D01*
X123125218Y-145059776D01*
X123032420Y-144877652D01*
X123032287Y-144877390D01*
X123000092Y-144833077D01*
X122911971Y-144711786D01*
X122767213Y-144567028D01*
X122601613Y-144446715D01*
X122601612Y-144446714D01*
X122601610Y-144446713D01*
X122544653Y-144417691D01*
X122419223Y-144353781D01*
X122224534Y-144290522D01*
X122049995Y-144262878D01*
X122022352Y-144258500D01*
X121817648Y-144258500D01*
X121793329Y-144262351D01*
X121615465Y-144290522D01*
X121420776Y-144353781D01*
X121238386Y-144446715D01*
X121072786Y-144567028D01*
X120928028Y-144711786D01*
X120807713Y-144877388D01*
X120760203Y-144970630D01*
X120712228Y-145021426D01*
X120644407Y-145038220D01*
X120578272Y-145015682D01*
X120539234Y-144970628D01*
X120491861Y-144877652D01*
X120459474Y-144833077D01*
X120459474Y-144833076D01*
X119780000Y-145512551D01*
X119780000Y-145506339D01*
X119752741Y-145404606D01*
X119700080Y-145313394D01*
X119625606Y-145238920D01*
X119534394Y-145186259D01*
X119432661Y-145159000D01*
X119426446Y-145159000D01*
X120105922Y-144479524D01*
X120105921Y-144479523D01*
X120061359Y-144447147D01*
X120061350Y-144447141D01*
X119879031Y-144354244D01*
X119684417Y-144291009D01*
X119482317Y-144259000D01*
X119277683Y-144259000D01*
X119075582Y-144291009D01*
X118880968Y-144354244D01*
X118698644Y-144447143D01*
X118654077Y-144479523D01*
X118654077Y-144479524D01*
X119333554Y-145159000D01*
X119327339Y-145159000D01*
X119225606Y-145186259D01*
X119134394Y-145238920D01*
X119059920Y-145313394D01*
X119007259Y-145404606D01*
X118980000Y-145506339D01*
X118980000Y-145512553D01*
X118300524Y-144833077D01*
X118300523Y-144833077D01*
X118268143Y-144877644D01*
X118220765Y-144970630D01*
X118172790Y-145021426D01*
X118104969Y-145038221D01*
X118038834Y-145015683D01*
X117999795Y-144970630D01*
X117952284Y-144877385D01*
X117831971Y-144711786D01*
X117687213Y-144567028D01*
X117521613Y-144446715D01*
X117521612Y-144446714D01*
X117521610Y-144446713D01*
X117464653Y-144417691D01*
X117339223Y-144353781D01*
X117144534Y-144290522D01*
X116969995Y-144262878D01*
X116942352Y-144258500D01*
X116737648Y-144258500D01*
X116713329Y-144262351D01*
X116535465Y-144290522D01*
X116340776Y-144353781D01*
X116158386Y-144446715D01*
X115992786Y-144567028D01*
X115848028Y-144711786D01*
X115727715Y-144877386D01*
X115680485Y-144970080D01*
X115632510Y-145020876D01*
X115564689Y-145037671D01*
X115498554Y-145015134D01*
X115459515Y-144970080D01*
X115412420Y-144877652D01*
X115412287Y-144877390D01*
X115380092Y-144833077D01*
X115291971Y-144711786D01*
X115147213Y-144567028D01*
X114981613Y-144446715D01*
X114981612Y-144446714D01*
X114981610Y-144446713D01*
X114924653Y-144417691D01*
X114799223Y-144353781D01*
X114604534Y-144290522D01*
X114429995Y-144262878D01*
X114402352Y-144258500D01*
X114197648Y-144258500D01*
X114173329Y-144262351D01*
X113995465Y-144290522D01*
X113800776Y-144353781D01*
X113618386Y-144446715D01*
X113452786Y-144567028D01*
X113308028Y-144711786D01*
X113187715Y-144877386D01*
X113140485Y-144970080D01*
X113092510Y-145020876D01*
X113024689Y-145037671D01*
X112958554Y-145015134D01*
X112919515Y-144970080D01*
X112872420Y-144877652D01*
X112872287Y-144877390D01*
X112840092Y-144833077D01*
X112751971Y-144711786D01*
X112607213Y-144567028D01*
X112441613Y-144446715D01*
X112441612Y-144446714D01*
X112441610Y-144446713D01*
X112384653Y-144417691D01*
X112259223Y-144353781D01*
X112064534Y-144290522D01*
X111889995Y-144262878D01*
X111862352Y-144258500D01*
X111657648Y-144258500D01*
X111633329Y-144262351D01*
X111455465Y-144290522D01*
X111260776Y-144353781D01*
X111078386Y-144446715D01*
X110912786Y-144567028D01*
X110768028Y-144711786D01*
X110647715Y-144877386D01*
X110600485Y-144970080D01*
X110552510Y-145020876D01*
X110484689Y-145037671D01*
X110418554Y-145015134D01*
X110379515Y-144970080D01*
X110332420Y-144877652D01*
X110332287Y-144877390D01*
X110300092Y-144833077D01*
X110211971Y-144711786D01*
X110067213Y-144567028D01*
X109901613Y-144446715D01*
X109901612Y-144446714D01*
X109901610Y-144446713D01*
X109844653Y-144417691D01*
X109719223Y-144353781D01*
X109524534Y-144290522D01*
X109349995Y-144262878D01*
X109322352Y-144258500D01*
X109117648Y-144258500D01*
X109093329Y-144262351D01*
X108915465Y-144290522D01*
X108720776Y-144353781D01*
X108538386Y-144446715D01*
X108372786Y-144567028D01*
X108228028Y-144711786D01*
X108107715Y-144877386D01*
X108060485Y-144970080D01*
X108012510Y-145020876D01*
X107944689Y-145037671D01*
X107878554Y-145015134D01*
X107839515Y-144970080D01*
X107792420Y-144877652D01*
X107792287Y-144877390D01*
X107760092Y-144833077D01*
X107671971Y-144711786D01*
X107527213Y-144567028D01*
X107361613Y-144446715D01*
X107361612Y-144446714D01*
X107361610Y-144446713D01*
X107304653Y-144417691D01*
X107179223Y-144353781D01*
X106984534Y-144290522D01*
X106809995Y-144262878D01*
X106782352Y-144258500D01*
X106577648Y-144258500D01*
X106553329Y-144262351D01*
X106375465Y-144290522D01*
X106180776Y-144353781D01*
X105998386Y-144446715D01*
X105832786Y-144567028D01*
X105688028Y-144711786D01*
X105567715Y-144877386D01*
X105520485Y-144970080D01*
X105472510Y-145020876D01*
X105404689Y-145037671D01*
X105338554Y-145015134D01*
X105299515Y-144970080D01*
X105252420Y-144877652D01*
X105252287Y-144877390D01*
X105220092Y-144833077D01*
X105131971Y-144711786D01*
X104987213Y-144567028D01*
X104821613Y-144446715D01*
X104821612Y-144446714D01*
X104821610Y-144446713D01*
X104764653Y-144417691D01*
X104639223Y-144353781D01*
X104444534Y-144290522D01*
X104269995Y-144262878D01*
X104242352Y-144258500D01*
X104037648Y-144258500D01*
X104013329Y-144262351D01*
X103835465Y-144290522D01*
X103640776Y-144353781D01*
X103458386Y-144446715D01*
X103292786Y-144567028D01*
X103148028Y-144711786D01*
X103027715Y-144877386D01*
X102934781Y-145059776D01*
X102871522Y-145254465D01*
X102839500Y-145456648D01*
X64000500Y-145456648D01*
X64000500Y-137836648D01*
X102839500Y-137836648D01*
X102839500Y-138041351D01*
X102871522Y-138243534D01*
X102934781Y-138438223D01*
X103027715Y-138620613D01*
X103148028Y-138786213D01*
X103292786Y-138930971D01*
X103447749Y-139043556D01*
X103458390Y-139051287D01*
X103574607Y-139110503D01*
X103640776Y-139144218D01*
X103640778Y-139144218D01*
X103640781Y-139144220D01*
X103731856Y-139173812D01*
X103835465Y-139207477D01*
X103936557Y-139223488D01*
X104037648Y-139239500D01*
X104037649Y-139239500D01*
X104242351Y-139239500D01*
X104242352Y-139239500D01*
X104444534Y-139207477D01*
X104639219Y-139144220D01*
X104821610Y-139051287D01*
X104950482Y-138957657D01*
X104987213Y-138930971D01*
X104987215Y-138930968D01*
X104987219Y-138930966D01*
X105131966Y-138786219D01*
X105131968Y-138786215D01*
X105131971Y-138786213D01*
X105252284Y-138620614D01*
X105252285Y-138620613D01*
X105252287Y-138620610D01*
X105299516Y-138527917D01*
X105347489Y-138477123D01*
X105415310Y-138460328D01*
X105481445Y-138482865D01*
X105520483Y-138527917D01*
X105526139Y-138539016D01*
X105567715Y-138620614D01*
X105688028Y-138786213D01*
X105832786Y-138930971D01*
X105987749Y-139043556D01*
X105998390Y-139051287D01*
X106114607Y-139110503D01*
X106180776Y-139144218D01*
X106180778Y-139144218D01*
X106180781Y-139144220D01*
X106271856Y-139173812D01*
X106375465Y-139207477D01*
X106476557Y-139223488D01*
X106577648Y-139239500D01*
X106577649Y-139239500D01*
X106782351Y-139239500D01*
X106782352Y-139239500D01*
X106984534Y-139207477D01*
X107179219Y-139144220D01*
X107361610Y-139051287D01*
X107490482Y-138957657D01*
X107527213Y-138930971D01*
X107527215Y-138930968D01*
X107527219Y-138930966D01*
X107671966Y-138786219D01*
X107671968Y-138786215D01*
X107671971Y-138786213D01*
X107792284Y-138620614D01*
X107792285Y-138620613D01*
X107792287Y-138620610D01*
X107839516Y-138527917D01*
X107887489Y-138477123D01*
X107955310Y-138460328D01*
X108021445Y-138482865D01*
X108060483Y-138527917D01*
X108066139Y-138539016D01*
X108107715Y-138620614D01*
X108228028Y-138786213D01*
X108372786Y-138930971D01*
X108527749Y-139043556D01*
X108538390Y-139051287D01*
X108654607Y-139110503D01*
X108720776Y-139144218D01*
X108720778Y-139144218D01*
X108720781Y-139144220D01*
X108811856Y-139173812D01*
X108915465Y-139207477D01*
X109016557Y-139223488D01*
X109117648Y-139239500D01*
X109117649Y-139239500D01*
X109322351Y-139239500D01*
X109322352Y-139239500D01*
X109524534Y-139207477D01*
X109719219Y-139144220D01*
X109901610Y-139051287D01*
X110030482Y-138957657D01*
X110067213Y-138930971D01*
X110067215Y-138930968D01*
X110067219Y-138930966D01*
X110211966Y-138786219D01*
X110211968Y-138786215D01*
X110211971Y-138786213D01*
X110332284Y-138620614D01*
X110332285Y-138620613D01*
X110332287Y-138620610D01*
X110379516Y-138527917D01*
X110427489Y-138477123D01*
X110495310Y-138460328D01*
X110561445Y-138482865D01*
X110600483Y-138527917D01*
X110606139Y-138539016D01*
X110647715Y-138620614D01*
X110768028Y-138786213D01*
X110912786Y-138930971D01*
X111067749Y-139043556D01*
X111078390Y-139051287D01*
X111194607Y-139110503D01*
X111260776Y-139144218D01*
X111260778Y-139144218D01*
X111260781Y-139144220D01*
X111351856Y-139173812D01*
X111455465Y-139207477D01*
X111556557Y-139223488D01*
X111657648Y-139239500D01*
X111657649Y-139239500D01*
X111862351Y-139239500D01*
X111862352Y-139239500D01*
X112064534Y-139207477D01*
X112259219Y-139144220D01*
X112441610Y-139051287D01*
X112570482Y-138957657D01*
X112607213Y-138930971D01*
X112607215Y-138930968D01*
X112607219Y-138930966D01*
X112751966Y-138786219D01*
X112751968Y-138786215D01*
X112751971Y-138786213D01*
X112872284Y-138620614D01*
X112872285Y-138620613D01*
X112872287Y-138620610D01*
X112919516Y-138527917D01*
X112967489Y-138477123D01*
X113035310Y-138460328D01*
X113101445Y-138482865D01*
X113140483Y-138527917D01*
X113146139Y-138539016D01*
X113187715Y-138620614D01*
X113308028Y-138786213D01*
X113452786Y-138930971D01*
X113607749Y-139043556D01*
X113618390Y-139051287D01*
X113734607Y-139110503D01*
X113800776Y-139144218D01*
X113800778Y-139144218D01*
X113800781Y-139144220D01*
X113891856Y-139173812D01*
X113995465Y-139207477D01*
X114096557Y-139223488D01*
X114197648Y-139239500D01*
X114197649Y-139239500D01*
X114402351Y-139239500D01*
X114402352Y-139239500D01*
X114604534Y-139207477D01*
X114799219Y-139144220D01*
X114981610Y-139051287D01*
X115110482Y-138957657D01*
X115147213Y-138930971D01*
X115147215Y-138930968D01*
X115147219Y-138930966D01*
X115291966Y-138786219D01*
X115291968Y-138786215D01*
X115291971Y-138786213D01*
X115412284Y-138620614D01*
X115412285Y-138620613D01*
X115412287Y-138620610D01*
X115459516Y-138527917D01*
X115507489Y-138477123D01*
X115575310Y-138460328D01*
X115641445Y-138482865D01*
X115680483Y-138527917D01*
X115686139Y-138539016D01*
X115727715Y-138620614D01*
X115848028Y-138786213D01*
X115992786Y-138930971D01*
X116147749Y-139043556D01*
X116158390Y-139051287D01*
X116274607Y-139110503D01*
X116340776Y-139144218D01*
X116340778Y-139144218D01*
X116340781Y-139144220D01*
X116431856Y-139173812D01*
X116535465Y-139207477D01*
X116636557Y-139223488D01*
X116737648Y-139239500D01*
X116737649Y-139239500D01*
X116942351Y-139239500D01*
X116942352Y-139239500D01*
X117144534Y-139207477D01*
X117339219Y-139144220D01*
X117521610Y-139051287D01*
X117650482Y-138957657D01*
X117687213Y-138930971D01*
X117687215Y-138930968D01*
X117687219Y-138930966D01*
X117831966Y-138786219D01*
X117831968Y-138786215D01*
X117831971Y-138786213D01*
X117952284Y-138620614D01*
X117952285Y-138620613D01*
X117952287Y-138620610D01*
X117999516Y-138527917D01*
X118047489Y-138477123D01*
X118115310Y-138460328D01*
X118181445Y-138482865D01*
X118220483Y-138527917D01*
X118226139Y-138539016D01*
X118267715Y-138620614D01*
X118388028Y-138786213D01*
X118532786Y-138930971D01*
X118687749Y-139043556D01*
X118698390Y-139051287D01*
X118814607Y-139110503D01*
X118880776Y-139144218D01*
X118880778Y-139144218D01*
X118880781Y-139144220D01*
X118971856Y-139173812D01*
X119075465Y-139207477D01*
X119176557Y-139223488D01*
X119277648Y-139239500D01*
X119277649Y-139239500D01*
X119482351Y-139239500D01*
X119482352Y-139239500D01*
X119684534Y-139207477D01*
X119879219Y-139144220D01*
X120061610Y-139051287D01*
X120190482Y-138957657D01*
X120227213Y-138930971D01*
X120227215Y-138930968D01*
X120227219Y-138930966D01*
X120371966Y-138786219D01*
X120440021Y-138692547D01*
X120495349Y-138649882D01*
X120564963Y-138643902D01*
X120626758Y-138676507D01*
X120658044Y-138726427D01*
X120685186Y-138808334D01*
X120777288Y-138957656D01*
X120901344Y-139081712D01*
X121050666Y-139173814D01*
X121217203Y-139228999D01*
X121319991Y-139239500D01*
X122520008Y-139239499D01*
X122622797Y-139228999D01*
X122789334Y-139173814D01*
X122938656Y-139081712D01*
X123062712Y-138957656D01*
X123154814Y-138808334D01*
X123209999Y-138641797D01*
X123220500Y-138539009D01*
X123220499Y-137338992D01*
X123209999Y-137236203D01*
X123154814Y-137069666D01*
X123062712Y-136920344D01*
X122938656Y-136796288D01*
X122789334Y-136704186D01*
X122622797Y-136649001D01*
X122622795Y-136649000D01*
X122520010Y-136638500D01*
X121319998Y-136638500D01*
X121319981Y-136638501D01*
X121217203Y-136649000D01*
X121217200Y-136649001D01*
X121050668Y-136704185D01*
X121050663Y-136704187D01*
X120901342Y-136796289D01*
X120777289Y-136920342D01*
X120685187Y-137069663D01*
X120685186Y-137069666D01*
X120658045Y-137151571D01*
X120618271Y-137209016D01*
X120553755Y-137235838D01*
X120484979Y-137223522D01*
X120440021Y-137185452D01*
X120371966Y-137091781D01*
X120227219Y-136947034D01*
X120227213Y-136947028D01*
X120061613Y-136826715D01*
X120061612Y-136826714D01*
X120061610Y-136826713D01*
X120001898Y-136796288D01*
X119879223Y-136733781D01*
X119684534Y-136670522D01*
X119509995Y-136642878D01*
X119482352Y-136638500D01*
X119277648Y-136638500D01*
X119253329Y-136642351D01*
X119075465Y-136670522D01*
X118880776Y-136733781D01*
X118698386Y-136826715D01*
X118532786Y-136947028D01*
X118388028Y-137091786D01*
X118267715Y-137257386D01*
X118220485Y-137350080D01*
X118172510Y-137400876D01*
X118104689Y-137417671D01*
X118038554Y-137395134D01*
X117999515Y-137350080D01*
X117993860Y-137338981D01*
X117952287Y-137257390D01*
X117875406Y-137151571D01*
X117831971Y-137091786D01*
X117687213Y-136947028D01*
X117521613Y-136826715D01*
X117521612Y-136826714D01*
X117521610Y-136826713D01*
X117461898Y-136796288D01*
X117339223Y-136733781D01*
X117144534Y-136670522D01*
X116969995Y-136642878D01*
X116942352Y-136638500D01*
X116737648Y-136638500D01*
X116713329Y-136642351D01*
X116535465Y-136670522D01*
X116340776Y-136733781D01*
X116158386Y-136826715D01*
X115992786Y-136947028D01*
X115848028Y-137091786D01*
X115727715Y-137257386D01*
X115680485Y-137350080D01*
X115632510Y-137400876D01*
X115564689Y-137417671D01*
X115498554Y-137395134D01*
X115459515Y-137350080D01*
X115453860Y-137338981D01*
X115412287Y-137257390D01*
X115335406Y-137151571D01*
X115291971Y-137091786D01*
X115147213Y-136947028D01*
X114981613Y-136826715D01*
X114981612Y-136826714D01*
X114981610Y-136826713D01*
X114921898Y-136796288D01*
X114799223Y-136733781D01*
X114604534Y-136670522D01*
X114429995Y-136642878D01*
X114402352Y-136638500D01*
X114197648Y-136638500D01*
X114173329Y-136642351D01*
X113995465Y-136670522D01*
X113800776Y-136733781D01*
X113618386Y-136826715D01*
X113452786Y-136947028D01*
X113308028Y-137091786D01*
X113187715Y-137257386D01*
X113140485Y-137350080D01*
X113092510Y-137400876D01*
X113024689Y-137417671D01*
X112958554Y-137395134D01*
X112919515Y-137350080D01*
X112913860Y-137338981D01*
X112872287Y-137257390D01*
X112795406Y-137151571D01*
X112751971Y-137091786D01*
X112607213Y-136947028D01*
X112441613Y-136826715D01*
X112441612Y-136826714D01*
X112441610Y-136826713D01*
X112381898Y-136796288D01*
X112259223Y-136733781D01*
X112064534Y-136670522D01*
X111889995Y-136642878D01*
X111862352Y-136638500D01*
X111657648Y-136638500D01*
X111633329Y-136642351D01*
X111455465Y-136670522D01*
X111260776Y-136733781D01*
X111078386Y-136826715D01*
X110912786Y-136947028D01*
X110768028Y-137091786D01*
X110647715Y-137257386D01*
X110600485Y-137350080D01*
X110552510Y-137400876D01*
X110484689Y-137417671D01*
X110418554Y-137395134D01*
X110379515Y-137350080D01*
X110373860Y-137338981D01*
X110332287Y-137257390D01*
X110255406Y-137151571D01*
X110211971Y-137091786D01*
X110067213Y-136947028D01*
X109901613Y-136826715D01*
X109901612Y-136826714D01*
X109901610Y-136826713D01*
X109841898Y-136796288D01*
X109719223Y-136733781D01*
X109524534Y-136670522D01*
X109349995Y-136642878D01*
X109322352Y-136638500D01*
X109117648Y-136638500D01*
X109093329Y-136642351D01*
X108915465Y-136670522D01*
X108720776Y-136733781D01*
X108538386Y-136826715D01*
X108372786Y-136947028D01*
X108228028Y-137091786D01*
X108107715Y-137257386D01*
X108060485Y-137350080D01*
X108012510Y-137400876D01*
X107944689Y-137417671D01*
X107878554Y-137395134D01*
X107839515Y-137350080D01*
X107833860Y-137338981D01*
X107792287Y-137257390D01*
X107715406Y-137151571D01*
X107671971Y-137091786D01*
X107527213Y-136947028D01*
X107361613Y-136826715D01*
X107361612Y-136826714D01*
X107361610Y-136826713D01*
X107301898Y-136796288D01*
X107179223Y-136733781D01*
X106984534Y-136670522D01*
X106809995Y-136642878D01*
X106782352Y-136638500D01*
X106577648Y-136638500D01*
X106553329Y-136642351D01*
X106375465Y-136670522D01*
X106180776Y-136733781D01*
X105998386Y-136826715D01*
X105832786Y-136947028D01*
X105688028Y-137091786D01*
X105567715Y-137257386D01*
X105520485Y-137350080D01*
X105472510Y-137400876D01*
X105404689Y-137417671D01*
X105338554Y-137395134D01*
X105299515Y-137350080D01*
X105293860Y-137338981D01*
X105252287Y-137257390D01*
X105175406Y-137151571D01*
X105131971Y-137091786D01*
X104987213Y-136947028D01*
X104821613Y-136826715D01*
X104821612Y-136826714D01*
X104821610Y-136826713D01*
X104761898Y-136796288D01*
X104639223Y-136733781D01*
X104444534Y-136670522D01*
X104269995Y-136642878D01*
X104242352Y-136638500D01*
X104037648Y-136638500D01*
X104013329Y-136642351D01*
X103835465Y-136670522D01*
X103640776Y-136733781D01*
X103458386Y-136826715D01*
X103292786Y-136947028D01*
X103148028Y-137091786D01*
X103027715Y-137257386D01*
X102934781Y-137439776D01*
X102871522Y-137634465D01*
X102839500Y-137836648D01*
X64000500Y-137836648D01*
X64000500Y-134026648D01*
X107999500Y-134026648D01*
X107999500Y-134231351D01*
X108031522Y-134433534D01*
X108094781Y-134628223D01*
X108187715Y-134810613D01*
X108308028Y-134976213D01*
X108452786Y-135120971D01*
X108607749Y-135233556D01*
X108618390Y-135241287D01*
X108734607Y-135300503D01*
X108800776Y-135334218D01*
X108800778Y-135334218D01*
X108800781Y-135334220D01*
X108905137Y-135368127D01*
X108995465Y-135397477D01*
X109096557Y-135413488D01*
X109197648Y-135429500D01*
X109197649Y-135429500D01*
X109402351Y-135429500D01*
X109402352Y-135429500D01*
X109604534Y-135397477D01*
X109799219Y-135334220D01*
X109981610Y-135241287D01*
X110074590Y-135173732D01*
X110147213Y-135120971D01*
X110147215Y-135120968D01*
X110147219Y-135120966D01*
X110291966Y-134976219D01*
X110291968Y-134976215D01*
X110291971Y-134976213D01*
X110344732Y-134903590D01*
X110412287Y-134810610D01*
X110505220Y-134628219D01*
X110568477Y-134433534D01*
X110600500Y-134231352D01*
X110600500Y-134026648D01*
X112999500Y-134026648D01*
X112999500Y-134231351D01*
X113031522Y-134433534D01*
X113094781Y-134628223D01*
X113187715Y-134810613D01*
X113308028Y-134976213D01*
X113452786Y-135120971D01*
X113607749Y-135233556D01*
X113618390Y-135241287D01*
X113734607Y-135300503D01*
X113800776Y-135334218D01*
X113800778Y-135334218D01*
X113800781Y-135334220D01*
X113905137Y-135368127D01*
X113995465Y-135397477D01*
X114096557Y-135413488D01*
X114197648Y-135429500D01*
X114197649Y-135429500D01*
X114402351Y-135429500D01*
X114402352Y-135429500D01*
X114604534Y-135397477D01*
X114799219Y-135334220D01*
X114981610Y-135241287D01*
X115074590Y-135173732D01*
X115147213Y-135120971D01*
X115147215Y-135120968D01*
X115147219Y-135120966D01*
X115291966Y-134976219D01*
X115291968Y-134976215D01*
X115291971Y-134976213D01*
X115412284Y-134810614D01*
X115412285Y-134810613D01*
X115412287Y-134810610D01*
X115499515Y-134639414D01*
X115547490Y-134588619D01*
X115615310Y-134571824D01*
X115681445Y-134594361D01*
X115720485Y-134639415D01*
X115807715Y-134810614D01*
X115928028Y-134976213D01*
X116072786Y-135120971D01*
X116227749Y-135233556D01*
X116238390Y-135241287D01*
X116354607Y-135300503D01*
X116420776Y-135334218D01*
X116420778Y-135334218D01*
X116420781Y-135334220D01*
X116525137Y-135368127D01*
X116615465Y-135397477D01*
X116716557Y-135413488D01*
X116817648Y-135429500D01*
X116817649Y-135429500D01*
X117022351Y-135429500D01*
X117022352Y-135429500D01*
X117224534Y-135397477D01*
X117419219Y-135334220D01*
X117601610Y-135241287D01*
X117694590Y-135173732D01*
X117767213Y-135120971D01*
X117767215Y-135120968D01*
X117767219Y-135120966D01*
X117911966Y-134976219D01*
X117911968Y-134976215D01*
X117911971Y-134976213D01*
X117964732Y-134903590D01*
X118032287Y-134810610D01*
X118125220Y-134628219D01*
X118188477Y-134433534D01*
X118220500Y-134231352D01*
X118220500Y-134026648D01*
X120619500Y-134026648D01*
X120619500Y-134231351D01*
X120651522Y-134433534D01*
X120714781Y-134628223D01*
X120807715Y-134810613D01*
X120928028Y-134976213D01*
X121072786Y-135120971D01*
X121227749Y-135233556D01*
X121238390Y-135241287D01*
X121354607Y-135300503D01*
X121420776Y-135334218D01*
X121420778Y-135334218D01*
X121420781Y-135334220D01*
X121525137Y-135368127D01*
X121615465Y-135397477D01*
X121716557Y-135413488D01*
X121817648Y-135429500D01*
X121817649Y-135429500D01*
X122022351Y-135429500D01*
X122022352Y-135429500D01*
X122224534Y-135397477D01*
X122419219Y-135334220D01*
X122601610Y-135241287D01*
X122694590Y-135173732D01*
X122767213Y-135120971D01*
X122767215Y-135120968D01*
X122767219Y-135120966D01*
X122911966Y-134976219D01*
X122911968Y-134976215D01*
X122911971Y-134976213D01*
X122964732Y-134903590D01*
X123032287Y-134810610D01*
X123125220Y-134628219D01*
X123188477Y-134433534D01*
X123220500Y-134231352D01*
X123220500Y-134026648D01*
X123188477Y-133824466D01*
X123125220Y-133629781D01*
X123125218Y-133629778D01*
X123125218Y-133629776D01*
X123091503Y-133563607D01*
X123032287Y-133447390D01*
X123024556Y-133436749D01*
X122911971Y-133281786D01*
X122767213Y-133137028D01*
X122601613Y-133016715D01*
X122601612Y-133016714D01*
X122601610Y-133016713D01*
X122544653Y-132987691D01*
X122419223Y-132923781D01*
X122224534Y-132860522D01*
X122049995Y-132832878D01*
X122022352Y-132828500D01*
X121817648Y-132828500D01*
X121793329Y-132832351D01*
X121615465Y-132860522D01*
X121420776Y-132923781D01*
X121238386Y-133016715D01*
X121072786Y-133137028D01*
X120928028Y-133281786D01*
X120807715Y-133447386D01*
X120714781Y-133629776D01*
X120651522Y-133824465D01*
X120619500Y-134026648D01*
X118220500Y-134026648D01*
X118188477Y-133824466D01*
X118125220Y-133629781D01*
X118125218Y-133629778D01*
X118125218Y-133629776D01*
X118091503Y-133563607D01*
X118032287Y-133447390D01*
X118024556Y-133436749D01*
X117911971Y-133281786D01*
X117767213Y-133137028D01*
X117601613Y-133016715D01*
X117601612Y-133016714D01*
X117601610Y-133016713D01*
X117544653Y-132987691D01*
X117419223Y-132923781D01*
X117224534Y-132860522D01*
X117049995Y-132832878D01*
X117022352Y-132828500D01*
X116817648Y-132828500D01*
X116793329Y-132832351D01*
X116615465Y-132860522D01*
X116420776Y-132923781D01*
X116238386Y-133016715D01*
X116072786Y-133137028D01*
X115928028Y-133281786D01*
X115807715Y-133447386D01*
X115720485Y-133618584D01*
X115672510Y-133669380D01*
X115604689Y-133686175D01*
X115538554Y-133663637D01*
X115499515Y-133618584D01*
X115486723Y-133593480D01*
X115412287Y-133447390D01*
X115404556Y-133436749D01*
X115291971Y-133281786D01*
X115147213Y-133137028D01*
X114981613Y-133016715D01*
X114981612Y-133016714D01*
X114981610Y-133016713D01*
X114924653Y-132987691D01*
X114799223Y-132923781D01*
X114604534Y-132860522D01*
X114429995Y-132832878D01*
X114402352Y-132828500D01*
X114197648Y-132828500D01*
X114173329Y-132832351D01*
X113995465Y-132860522D01*
X113800776Y-132923781D01*
X113618386Y-133016715D01*
X113452786Y-133137028D01*
X113308028Y-133281786D01*
X113187715Y-133447386D01*
X113094781Y-133629776D01*
X113031522Y-133824465D01*
X112999500Y-134026648D01*
X110600500Y-134026648D01*
X110568477Y-133824466D01*
X110505220Y-133629781D01*
X110505218Y-133629778D01*
X110505218Y-133629776D01*
X110471503Y-133563607D01*
X110412287Y-133447390D01*
X110404556Y-133436749D01*
X110291971Y-133281786D01*
X110147213Y-133137028D01*
X109981613Y-133016715D01*
X109981612Y-133016714D01*
X109981610Y-133016713D01*
X109924653Y-132987691D01*
X109799223Y-132923781D01*
X109604534Y-132860522D01*
X109429995Y-132832878D01*
X109402352Y-132828500D01*
X109197648Y-132828500D01*
X109173329Y-132832351D01*
X108995465Y-132860522D01*
X108800776Y-132923781D01*
X108618386Y-133016715D01*
X108452786Y-133137028D01*
X108308028Y-133281786D01*
X108187715Y-133447386D01*
X108094781Y-133629776D01*
X108031522Y-133824465D01*
X107999500Y-134026648D01*
X64000500Y-134026648D01*
X64000500Y-130216648D01*
X107959500Y-130216648D01*
X107959500Y-130421351D01*
X107991522Y-130623534D01*
X108054781Y-130818223D01*
X108118691Y-130943653D01*
X108147585Y-131000359D01*
X108147715Y-131000613D01*
X108268028Y-131166213D01*
X108412786Y-131310971D01*
X108533226Y-131398474D01*
X108578390Y-131431287D01*
X108694607Y-131490503D01*
X108760776Y-131524218D01*
X108760778Y-131524218D01*
X108760781Y-131524220D01*
X108865137Y-131558127D01*
X108955465Y-131587477D01*
X109056557Y-131603488D01*
X109157648Y-131619500D01*
X109157649Y-131619500D01*
X109362351Y-131619500D01*
X109362352Y-131619500D01*
X109564534Y-131587477D01*
X109759219Y-131524220D01*
X109941610Y-131431287D01*
X110034590Y-131363732D01*
X110107213Y-131310971D01*
X110107215Y-131310968D01*
X110107219Y-131310966D01*
X110251966Y-131166219D01*
X110251968Y-131166215D01*
X110251971Y-131166213D01*
X110304732Y-131093590D01*
X110372287Y-131000610D01*
X110465220Y-130818219D01*
X110528477Y-130623534D01*
X110560500Y-130421352D01*
X110560500Y-130216682D01*
X112960000Y-130216682D01*
X112960000Y-130421317D01*
X112992009Y-130623417D01*
X113055244Y-130818031D01*
X113148141Y-131000350D01*
X113148147Y-131000359D01*
X113180523Y-131044921D01*
X113180524Y-131044922D01*
X113860000Y-130365446D01*
X113860000Y-130371661D01*
X113887259Y-130473394D01*
X113939920Y-130564606D01*
X114014394Y-130639080D01*
X114105606Y-130691741D01*
X114207339Y-130719000D01*
X114213553Y-130719000D01*
X113534076Y-131398474D01*
X113578650Y-131430859D01*
X113760968Y-131523755D01*
X113955582Y-131586990D01*
X114157683Y-131619000D01*
X114362317Y-131619000D01*
X114564417Y-131586990D01*
X114759031Y-131523755D01*
X114941349Y-131430859D01*
X114985921Y-131398474D01*
X114306447Y-130719000D01*
X114312661Y-130719000D01*
X114414394Y-130691741D01*
X114505606Y-130639080D01*
X114580080Y-130564606D01*
X114632741Y-130473394D01*
X114660000Y-130371661D01*
X114660000Y-130365447D01*
X115339474Y-131044921D01*
X115371859Y-131000349D01*
X115464755Y-130818031D01*
X115527990Y-130623417D01*
X115560000Y-130421317D01*
X115560000Y-130216682D01*
X115559995Y-130216648D01*
X118079500Y-130216648D01*
X118079500Y-130421351D01*
X118111522Y-130623534D01*
X118174781Y-130818223D01*
X118238691Y-130943653D01*
X118267585Y-131000359D01*
X118267715Y-131000613D01*
X118388028Y-131166213D01*
X118532786Y-131310971D01*
X118653226Y-131398474D01*
X118698390Y-131431287D01*
X118814607Y-131490503D01*
X118880776Y-131524218D01*
X118880778Y-131524218D01*
X118880781Y-131524220D01*
X118985137Y-131558127D01*
X119075465Y-131587477D01*
X119176557Y-131603488D01*
X119277648Y-131619500D01*
X119277649Y-131619500D01*
X119482351Y-131619500D01*
X119482352Y-131619500D01*
X119684534Y-131587477D01*
X119879219Y-131524220D01*
X120061610Y-131431287D01*
X120154590Y-131363732D01*
X120227213Y-131310971D01*
X120227215Y-131310968D01*
X120227219Y-131310966D01*
X120371966Y-131166219D01*
X120371968Y-131166215D01*
X120371971Y-131166213D01*
X120424732Y-131093590D01*
X120492287Y-131000610D01*
X120585220Y-130818219D01*
X120648477Y-130623534D01*
X120680500Y-130421352D01*
X120680500Y-130216682D01*
X123080000Y-130216682D01*
X123080000Y-130421317D01*
X123112009Y-130623417D01*
X123175244Y-130818031D01*
X123268141Y-131000350D01*
X123268147Y-131000359D01*
X123300523Y-131044921D01*
X123300524Y-131044922D01*
X123980000Y-130365446D01*
X123980000Y-130371661D01*
X124007259Y-130473394D01*
X124059920Y-130564606D01*
X124134394Y-130639080D01*
X124225606Y-130691741D01*
X124327339Y-130719000D01*
X124333553Y-130719000D01*
X123654076Y-131398474D01*
X123698650Y-131430859D01*
X123880968Y-131523755D01*
X124075582Y-131586990D01*
X124277683Y-131619000D01*
X124482317Y-131619000D01*
X124684417Y-131586990D01*
X124879031Y-131523755D01*
X125061349Y-131430859D01*
X125105921Y-131398474D01*
X124426447Y-130719000D01*
X124432661Y-130719000D01*
X124534394Y-130691741D01*
X124625606Y-130639080D01*
X124700080Y-130564606D01*
X124752741Y-130473394D01*
X124780000Y-130371661D01*
X124780000Y-130365447D01*
X125459474Y-131044921D01*
X125491859Y-131000349D01*
X125584755Y-130818031D01*
X125647990Y-130623417D01*
X125680000Y-130421317D01*
X125680000Y-130216682D01*
X125647990Y-130014582D01*
X125584755Y-129819968D01*
X125491859Y-129637650D01*
X125459474Y-129593077D01*
X125459474Y-129593076D01*
X124780000Y-130272551D01*
X124780000Y-130266339D01*
X124752741Y-130164606D01*
X124700080Y-130073394D01*
X124625606Y-129998920D01*
X124534394Y-129946259D01*
X124432661Y-129919000D01*
X124426446Y-129919000D01*
X125105922Y-129239524D01*
X125105921Y-129239523D01*
X125061359Y-129207147D01*
X125061350Y-129207141D01*
X124879031Y-129114244D01*
X124684417Y-129051009D01*
X124482317Y-129019000D01*
X124277683Y-129019000D01*
X124075582Y-129051009D01*
X123880968Y-129114244D01*
X123698644Y-129207143D01*
X123654077Y-129239523D01*
X123654077Y-129239524D01*
X124333554Y-129919000D01*
X124327339Y-129919000D01*
X124225606Y-129946259D01*
X124134394Y-129998920D01*
X124059920Y-130073394D01*
X124007259Y-130164606D01*
X123980000Y-130266339D01*
X123980000Y-130272553D01*
X123300524Y-129593077D01*
X123300523Y-129593077D01*
X123268143Y-129637644D01*
X123175244Y-129819968D01*
X123112009Y-130014582D01*
X123080000Y-130216682D01*
X120680500Y-130216682D01*
X120680500Y-130216648D01*
X120672257Y-130164606D01*
X120648477Y-130014465D01*
X120617458Y-129919000D01*
X120585220Y-129819781D01*
X120585218Y-129819778D01*
X120585218Y-129819776D01*
X120492419Y-129637650D01*
X120492287Y-129637390D01*
X120460092Y-129593077D01*
X120371971Y-129471786D01*
X120227213Y-129327028D01*
X120061613Y-129206715D01*
X120061612Y-129206714D01*
X120061610Y-129206713D01*
X120004653Y-129177691D01*
X119879223Y-129113781D01*
X119684534Y-129050522D01*
X119509995Y-129022878D01*
X119482352Y-129018500D01*
X119277648Y-129018500D01*
X119253329Y-129022351D01*
X119075465Y-129050522D01*
X118880776Y-129113781D01*
X118698386Y-129206715D01*
X118532786Y-129327028D01*
X118388028Y-129471786D01*
X118267715Y-129637386D01*
X118174781Y-129819776D01*
X118111522Y-130014465D01*
X118079500Y-130216648D01*
X115559995Y-130216648D01*
X115527990Y-130014582D01*
X115464755Y-129819968D01*
X115371859Y-129637650D01*
X115339474Y-129593077D01*
X115339474Y-129593076D01*
X114660000Y-130272551D01*
X114660000Y-130266339D01*
X114632741Y-130164606D01*
X114580080Y-130073394D01*
X114505606Y-129998920D01*
X114414394Y-129946259D01*
X114312661Y-129919000D01*
X114306446Y-129919000D01*
X114985922Y-129239524D01*
X114985921Y-129239523D01*
X114941359Y-129207147D01*
X114941350Y-129207141D01*
X114759031Y-129114244D01*
X114564417Y-129051009D01*
X114362317Y-129019000D01*
X114157683Y-129019000D01*
X113955582Y-129051009D01*
X113760968Y-129114244D01*
X113578644Y-129207143D01*
X113534077Y-129239523D01*
X113534077Y-129239524D01*
X114213554Y-129919000D01*
X114207339Y-129919000D01*
X114105606Y-129946259D01*
X114014394Y-129998920D01*
X113939920Y-130073394D01*
X113887259Y-130164606D01*
X113860000Y-130266339D01*
X113860000Y-130272553D01*
X113180524Y-129593077D01*
X113180523Y-129593077D01*
X113148143Y-129637644D01*
X113055244Y-129819968D01*
X112992009Y-130014582D01*
X112960000Y-130216682D01*
X110560500Y-130216682D01*
X110560500Y-130216648D01*
X110552257Y-130164606D01*
X110528477Y-130014465D01*
X110497458Y-129919000D01*
X110465220Y-129819781D01*
X110465218Y-129819778D01*
X110465218Y-129819776D01*
X110372419Y-129637650D01*
X110372287Y-129637390D01*
X110340092Y-129593077D01*
X110251971Y-129471786D01*
X110107213Y-129327028D01*
X109941613Y-129206715D01*
X109941612Y-129206714D01*
X109941610Y-129206713D01*
X109884653Y-129177691D01*
X109759223Y-129113781D01*
X109564534Y-129050522D01*
X109389995Y-129022878D01*
X109362352Y-129018500D01*
X109157648Y-129018500D01*
X109133329Y-129022351D01*
X108955465Y-129050522D01*
X108760776Y-129113781D01*
X108578386Y-129206715D01*
X108412786Y-129327028D01*
X108268028Y-129471786D01*
X108147715Y-129637386D01*
X108054781Y-129819776D01*
X107991522Y-130014465D01*
X107959500Y-130216648D01*
X64000500Y-130216648D01*
X64000500Y-126052155D01*
X137615000Y-126052155D01*
X137615000Y-126750000D01*
X138639722Y-126750000D01*
X138595667Y-126826306D01*
X138565000Y-126940756D01*
X138565000Y-127059244D01*
X138595667Y-127173694D01*
X138639722Y-127250000D01*
X137615000Y-127250000D01*
X137615000Y-127947844D01*
X137621401Y-128007372D01*
X137621403Y-128007379D01*
X137671645Y-128142086D01*
X137671649Y-128142093D01*
X137757809Y-128257187D01*
X137757812Y-128257190D01*
X137872906Y-128343350D01*
X137872913Y-128343354D01*
X138007620Y-128393596D01*
X138007627Y-128393598D01*
X138067155Y-128399999D01*
X138067172Y-128400000D01*
X138765000Y-128400000D01*
X138765000Y-127375277D01*
X138841306Y-127419333D01*
X138955756Y-127450000D01*
X139074244Y-127450000D01*
X139188694Y-127419333D01*
X139265000Y-127375277D01*
X139265000Y-128400000D01*
X139962828Y-128400000D01*
X139962844Y-128399999D01*
X140022372Y-128393598D01*
X140022379Y-128393596D01*
X140157086Y-128343354D01*
X140157093Y-128343350D01*
X140272187Y-128257190D01*
X140272190Y-128257187D01*
X140358350Y-128142093D01*
X140358354Y-128142086D01*
X140388213Y-128062031D01*
X140430084Y-128006097D01*
X140495548Y-127981680D01*
X140563821Y-127996531D01*
X140592076Y-128017683D01*
X140642636Y-128068243D01*
X140642641Y-128068247D01*
X140798192Y-128181260D01*
X140820978Y-128197815D01*
X140937501Y-128257187D01*
X141017393Y-128297895D01*
X141017396Y-128297896D01*
X141122221Y-128331955D01*
X141227049Y-128366015D01*
X141444778Y-128400500D01*
X141444779Y-128400500D01*
X141665221Y-128400500D01*
X141665222Y-128400500D01*
X141882951Y-128366015D01*
X142092606Y-128297895D01*
X142289022Y-128197815D01*
X142467365Y-128068242D01*
X142623242Y-127912365D01*
X142752815Y-127734022D01*
X142852895Y-127537606D01*
X142921015Y-127327951D01*
X142955500Y-127110222D01*
X142955500Y-126889778D01*
X142921015Y-126672049D01*
X142886955Y-126567221D01*
X142852896Y-126462396D01*
X142852895Y-126462393D01*
X142752815Y-126265978D01*
X142648018Y-126121736D01*
X142648017Y-126121735D01*
X142623243Y-126087636D01*
X142587762Y-126052155D01*
X143330000Y-126052155D01*
X143330000Y-126750000D01*
X144354722Y-126750000D01*
X144310667Y-126826306D01*
X144280000Y-126940756D01*
X144280000Y-127059244D01*
X144310667Y-127173694D01*
X144354722Y-127250000D01*
X143330000Y-127250000D01*
X143330000Y-127947844D01*
X143336401Y-128007372D01*
X143336403Y-128007379D01*
X143386645Y-128142086D01*
X143386649Y-128142093D01*
X143472809Y-128257187D01*
X143472812Y-128257190D01*
X143587906Y-128343350D01*
X143587913Y-128343354D01*
X143722620Y-128393596D01*
X143722627Y-128393598D01*
X143782155Y-128399999D01*
X143782172Y-128400000D01*
X144480000Y-128400000D01*
X144480000Y-127375277D01*
X144556306Y-127419333D01*
X144670756Y-127450000D01*
X144789244Y-127450000D01*
X144903694Y-127419333D01*
X144980000Y-127375277D01*
X144980000Y-128400000D01*
X145677828Y-128400000D01*
X145677844Y-128399999D01*
X145737372Y-128393598D01*
X145737379Y-128393596D01*
X145872086Y-128343354D01*
X145872093Y-128343350D01*
X145987187Y-128257190D01*
X145987190Y-128257187D01*
X146073350Y-128142093D01*
X146073354Y-128142086D01*
X146103213Y-128062031D01*
X146145084Y-128006097D01*
X146210548Y-127981680D01*
X146278821Y-127996531D01*
X146307076Y-128017683D01*
X146357636Y-128068243D01*
X146357641Y-128068247D01*
X146513192Y-128181260D01*
X146535978Y-128197815D01*
X146652501Y-128257187D01*
X146732393Y-128297895D01*
X146732396Y-128297896D01*
X146837221Y-128331955D01*
X146942049Y-128366015D01*
X147159778Y-128400500D01*
X147159779Y-128400500D01*
X147380221Y-128400500D01*
X147380222Y-128400500D01*
X147597951Y-128366015D01*
X147807606Y-128297895D01*
X148004022Y-128197815D01*
X148182365Y-128068242D01*
X148338242Y-127912365D01*
X148467815Y-127734022D01*
X148567895Y-127537606D01*
X148636015Y-127327951D01*
X148670500Y-127110222D01*
X148670500Y-126889778D01*
X148636015Y-126672049D01*
X148601955Y-126567221D01*
X148567896Y-126462396D01*
X148567895Y-126462393D01*
X148533237Y-126394375D01*
X148467815Y-126265978D01*
X148363017Y-126121735D01*
X148338247Y-126087641D01*
X148338243Y-126087636D01*
X148182363Y-125931756D01*
X148182358Y-125931752D01*
X148004025Y-125802187D01*
X148004024Y-125802186D01*
X148004022Y-125802185D01*
X147941096Y-125770122D01*
X147807606Y-125702104D01*
X147807603Y-125702103D01*
X147597952Y-125633985D01*
X147489086Y-125616742D01*
X147380222Y-125599500D01*
X147159778Y-125599500D01*
X147087201Y-125610995D01*
X146942047Y-125633985D01*
X146732396Y-125702103D01*
X146732393Y-125702104D01*
X146535974Y-125802187D01*
X146357641Y-125931752D01*
X146357636Y-125931756D01*
X146307075Y-125982317D01*
X146245752Y-126015801D01*
X146176060Y-126010816D01*
X146120127Y-125968945D01*
X146103213Y-125937968D01*
X146073354Y-125857913D01*
X146073350Y-125857906D01*
X145987190Y-125742812D01*
X145987187Y-125742809D01*
X145872093Y-125656649D01*
X145872086Y-125656645D01*
X145737379Y-125606403D01*
X145737372Y-125606401D01*
X145677844Y-125600000D01*
X144980000Y-125600000D01*
X144980000Y-126624722D01*
X144903694Y-126580667D01*
X144789244Y-126550000D01*
X144670756Y-126550000D01*
X144556306Y-126580667D01*
X144480000Y-126624722D01*
X144480000Y-125600000D01*
X143782155Y-125600000D01*
X143722627Y-125606401D01*
X143722620Y-125606403D01*
X143587913Y-125656645D01*
X143587906Y-125656649D01*
X143472812Y-125742809D01*
X143472809Y-125742812D01*
X143386649Y-125857906D01*
X143386645Y-125857913D01*
X143336403Y-125992620D01*
X143336401Y-125992627D01*
X143330000Y-126052155D01*
X142587762Y-126052155D01*
X142467363Y-125931756D01*
X142467358Y-125931752D01*
X142289025Y-125802187D01*
X142289024Y-125802186D01*
X142289022Y-125802185D01*
X142226096Y-125770122D01*
X142092606Y-125702104D01*
X142092603Y-125702103D01*
X141882952Y-125633985D01*
X141774086Y-125616742D01*
X141665222Y-125599500D01*
X141444778Y-125599500D01*
X141372201Y-125610995D01*
X141227047Y-125633985D01*
X141017396Y-125702103D01*
X141017393Y-125702104D01*
X140820974Y-125802187D01*
X140642641Y-125931752D01*
X140642636Y-125931756D01*
X140592075Y-125982317D01*
X140530752Y-126015801D01*
X140461060Y-126010816D01*
X140405127Y-125968945D01*
X140388213Y-125937968D01*
X140358354Y-125857913D01*
X140358350Y-125857906D01*
X140272190Y-125742812D01*
X140272187Y-125742809D01*
X140157093Y-125656649D01*
X140157086Y-125656645D01*
X140022379Y-125606403D01*
X140022372Y-125606401D01*
X139962844Y-125600000D01*
X139265000Y-125600000D01*
X139265000Y-126624722D01*
X139188694Y-126580667D01*
X139074244Y-126550000D01*
X138955756Y-126550000D01*
X138841306Y-126580667D01*
X138765000Y-126624722D01*
X138765000Y-125600000D01*
X138067155Y-125600000D01*
X138007627Y-125606401D01*
X138007620Y-125606403D01*
X137872913Y-125656645D01*
X137872906Y-125656649D01*
X137757812Y-125742809D01*
X137757809Y-125742812D01*
X137671649Y-125857906D01*
X137671645Y-125857913D01*
X137621403Y-125992620D01*
X137621401Y-125992627D01*
X137615000Y-126052155D01*
X64000500Y-126052155D01*
X64000500Y-123730513D01*
X137864500Y-123730513D01*
X137864500Y-123919486D01*
X137894059Y-124106118D01*
X137952454Y-124285836D01*
X138038240Y-124454199D01*
X138149310Y-124607073D01*
X138282927Y-124740690D01*
X138435801Y-124851760D01*
X138515347Y-124892290D01*
X138604163Y-124937545D01*
X138604165Y-124937545D01*
X138604168Y-124937547D01*
X138700497Y-124968846D01*
X138783881Y-124995940D01*
X138970514Y-125025500D01*
X138970519Y-125025500D01*
X139159486Y-125025500D01*
X139346118Y-124995940D01*
X139525832Y-124937547D01*
X139694199Y-124851760D01*
X139847073Y-124740690D01*
X139980690Y-124607073D01*
X140091760Y-124454199D01*
X140177547Y-124285832D01*
X140217069Y-124164195D01*
X140256507Y-124106521D01*
X140320866Y-124079323D01*
X140389712Y-124091238D01*
X140441188Y-124138482D01*
X140452931Y-124164196D01*
X140492454Y-124285836D01*
X140578240Y-124454199D01*
X140689310Y-124607073D01*
X140822927Y-124740690D01*
X140975801Y-124851760D01*
X141055347Y-124892290D01*
X141144163Y-124937545D01*
X141144165Y-124937545D01*
X141144168Y-124937547D01*
X141240497Y-124968846D01*
X141323881Y-124995940D01*
X141510514Y-125025500D01*
X141510519Y-125025500D01*
X141699486Y-125025500D01*
X141886118Y-124995940D01*
X142065832Y-124937547D01*
X142234199Y-124851760D01*
X142387073Y-124740690D01*
X142520690Y-124607073D01*
X142631760Y-124454199D01*
X142717547Y-124285832D01*
X142775940Y-124106118D01*
X142780184Y-124079323D01*
X142805500Y-123919486D01*
X142805500Y-123730513D01*
X143579500Y-123730513D01*
X143579500Y-123919486D01*
X143609059Y-124106118D01*
X143667454Y-124285836D01*
X143753240Y-124454199D01*
X143864310Y-124607073D01*
X143997927Y-124740690D01*
X144150801Y-124851760D01*
X144230347Y-124892290D01*
X144319163Y-124937545D01*
X144319165Y-124937545D01*
X144319168Y-124937547D01*
X144415497Y-124968846D01*
X144498881Y-124995940D01*
X144685514Y-125025500D01*
X144685519Y-125025500D01*
X144874486Y-125025500D01*
X145061118Y-124995940D01*
X145240832Y-124937547D01*
X145409199Y-124851760D01*
X145562073Y-124740690D01*
X145695690Y-124607073D01*
X145806760Y-124454199D01*
X145892547Y-124285832D01*
X145932069Y-124164195D01*
X145971507Y-124106521D01*
X146035866Y-124079323D01*
X146104712Y-124091238D01*
X146156188Y-124138482D01*
X146167931Y-124164196D01*
X146207454Y-124285836D01*
X146293240Y-124454199D01*
X146404310Y-124607073D01*
X146537927Y-124740690D01*
X146690801Y-124851760D01*
X146770347Y-124892290D01*
X146859163Y-124937545D01*
X146859165Y-124937545D01*
X146859168Y-124937547D01*
X146955497Y-124968846D01*
X147038881Y-124995940D01*
X147225514Y-125025500D01*
X147225519Y-125025500D01*
X147414486Y-125025500D01*
X147601118Y-124995940D01*
X147780832Y-124937547D01*
X147949199Y-124851760D01*
X148102073Y-124740690D01*
X148235690Y-124607073D01*
X148346760Y-124454199D01*
X148432547Y-124285832D01*
X148490940Y-124106118D01*
X148495184Y-124079323D01*
X148520500Y-123919486D01*
X148520500Y-123730513D01*
X148490940Y-123543881D01*
X148432545Y-123364163D01*
X148346759Y-123195800D01*
X148235690Y-123042927D01*
X148102073Y-122909310D01*
X147949199Y-122798240D01*
X147780836Y-122712454D01*
X147601118Y-122654059D01*
X147414486Y-122624500D01*
X147414481Y-122624500D01*
X147225519Y-122624500D01*
X147225514Y-122624500D01*
X147038881Y-122654059D01*
X146859163Y-122712454D01*
X146690800Y-122798240D01*
X146603579Y-122861610D01*
X146537927Y-122909310D01*
X146537925Y-122909312D01*
X146537924Y-122909312D01*
X146404312Y-123042924D01*
X146404312Y-123042925D01*
X146404310Y-123042927D01*
X146356610Y-123108579D01*
X146293240Y-123195800D01*
X146207454Y-123364163D01*
X146167931Y-123485803D01*
X146128493Y-123543478D01*
X146064134Y-123570676D01*
X145995288Y-123558761D01*
X145943812Y-123511516D01*
X145932069Y-123485803D01*
X145892545Y-123364163D01*
X145806759Y-123195800D01*
X145695690Y-123042927D01*
X145562073Y-122909310D01*
X145409199Y-122798240D01*
X145240836Y-122712454D01*
X145061118Y-122654059D01*
X144874486Y-122624500D01*
X144874481Y-122624500D01*
X144685519Y-122624500D01*
X144685514Y-122624500D01*
X144498881Y-122654059D01*
X144319163Y-122712454D01*
X144150800Y-122798240D01*
X144063579Y-122861610D01*
X143997927Y-122909310D01*
X143997925Y-122909312D01*
X143997924Y-122909312D01*
X143864312Y-123042924D01*
X143864312Y-123042925D01*
X143864310Y-123042927D01*
X143816610Y-123108579D01*
X143753240Y-123195800D01*
X143667454Y-123364163D01*
X143609059Y-123543881D01*
X143579500Y-123730513D01*
X142805500Y-123730513D01*
X142775940Y-123543881D01*
X142717545Y-123364163D01*
X142631759Y-123195800D01*
X142520690Y-123042927D01*
X142387073Y-122909310D01*
X142234199Y-122798240D01*
X142065836Y-122712454D01*
X141886118Y-122654059D01*
X141699486Y-122624500D01*
X141699481Y-122624500D01*
X141510519Y-122624500D01*
X141510514Y-122624500D01*
X141323881Y-122654059D01*
X141144163Y-122712454D01*
X140975800Y-122798240D01*
X140888579Y-122861610D01*
X140822927Y-122909310D01*
X140822925Y-122909312D01*
X140822924Y-122909312D01*
X140689312Y-123042924D01*
X140689312Y-123042925D01*
X140689310Y-123042927D01*
X140641610Y-123108579D01*
X140578240Y-123195800D01*
X140492454Y-123364163D01*
X140452931Y-123485803D01*
X140413493Y-123543478D01*
X140349134Y-123570676D01*
X140280288Y-123558761D01*
X140228812Y-123511516D01*
X140217069Y-123485803D01*
X140177545Y-123364163D01*
X140091759Y-123195800D01*
X139980690Y-123042927D01*
X139847073Y-122909310D01*
X139694199Y-122798240D01*
X139525836Y-122712454D01*
X139346118Y-122654059D01*
X139159486Y-122624500D01*
X139159481Y-122624500D01*
X138970519Y-122624500D01*
X138970514Y-122624500D01*
X138783881Y-122654059D01*
X138604163Y-122712454D01*
X138435800Y-122798240D01*
X138348579Y-122861610D01*
X138282927Y-122909310D01*
X138282925Y-122909312D01*
X138282924Y-122909312D01*
X138149312Y-123042924D01*
X138149312Y-123042925D01*
X138149310Y-123042927D01*
X138101610Y-123108579D01*
X138038240Y-123195800D01*
X137952454Y-123364163D01*
X137894059Y-123543881D01*
X137864500Y-123730513D01*
X64000500Y-123730513D01*
X64000500Y-118007682D01*
X105460000Y-118007682D01*
X105460000Y-118212317D01*
X105492009Y-118414417D01*
X105555244Y-118609031D01*
X105648141Y-118791350D01*
X105648147Y-118791359D01*
X105680523Y-118835921D01*
X105680524Y-118835922D01*
X106360000Y-118156446D01*
X106360000Y-118162661D01*
X106387259Y-118264394D01*
X106439920Y-118355606D01*
X106514394Y-118430080D01*
X106605606Y-118482741D01*
X106707339Y-118510000D01*
X106713553Y-118510000D01*
X106034076Y-119189474D01*
X106078650Y-119221859D01*
X106260968Y-119314755D01*
X106455582Y-119377990D01*
X106657683Y-119410000D01*
X106862317Y-119410000D01*
X107064417Y-119377990D01*
X107259031Y-119314755D01*
X107441349Y-119221859D01*
X107485921Y-119189474D01*
X106806447Y-118510000D01*
X106812661Y-118510000D01*
X106914394Y-118482741D01*
X107005606Y-118430080D01*
X107080080Y-118355606D01*
X107132741Y-118264394D01*
X107160000Y-118162661D01*
X107160000Y-118156448D01*
X107839474Y-118835922D01*
X107839474Y-118835921D01*
X107871859Y-118791349D01*
X107964755Y-118609031D01*
X108027990Y-118414417D01*
X108060000Y-118212317D01*
X108060000Y-118007682D01*
X108059995Y-118007648D01*
X110459500Y-118007648D01*
X110459500Y-118212351D01*
X110491522Y-118414534D01*
X110554781Y-118609223D01*
X110618691Y-118734653D01*
X110647585Y-118791359D01*
X110647715Y-118791613D01*
X110768028Y-118957213D01*
X110912786Y-119101971D01*
X111033226Y-119189474D01*
X111078390Y-119222287D01*
X111194607Y-119281503D01*
X111260776Y-119315218D01*
X111260778Y-119315218D01*
X111260781Y-119315220D01*
X111365137Y-119349127D01*
X111455465Y-119378477D01*
X111556557Y-119394488D01*
X111657648Y-119410500D01*
X111657649Y-119410500D01*
X111862351Y-119410500D01*
X111862352Y-119410500D01*
X112064534Y-119378477D01*
X112259219Y-119315220D01*
X112441610Y-119222287D01*
X112534590Y-119154732D01*
X112607213Y-119101971D01*
X112607215Y-119101968D01*
X112607219Y-119101966D01*
X112751966Y-118957219D01*
X112751968Y-118957215D01*
X112751971Y-118957213D01*
X112804732Y-118884590D01*
X112872287Y-118791610D01*
X112965220Y-118609219D01*
X113028477Y-118414534D01*
X113060500Y-118212352D01*
X113060500Y-118007648D01*
X113038185Y-117866759D01*
X113028477Y-117805465D01*
X112997458Y-117710000D01*
X112965220Y-117610781D01*
X112965218Y-117610778D01*
X112965218Y-117610776D01*
X112872419Y-117428650D01*
X112872287Y-117428390D01*
X112840092Y-117384077D01*
X112751971Y-117262786D01*
X112607213Y-117118028D01*
X112441613Y-116997715D01*
X112441612Y-116997714D01*
X112441610Y-116997713D01*
X112384653Y-116968691D01*
X112259223Y-116904781D01*
X112064534Y-116841522D01*
X111889995Y-116813878D01*
X111862352Y-116809500D01*
X111657648Y-116809500D01*
X111633329Y-116813351D01*
X111455465Y-116841522D01*
X111260776Y-116904781D01*
X111078386Y-116997715D01*
X110912786Y-117118028D01*
X110768028Y-117262786D01*
X110647715Y-117428386D01*
X110554781Y-117610776D01*
X110491522Y-117805465D01*
X110459500Y-118007648D01*
X108059995Y-118007648D01*
X108027990Y-117805582D01*
X107964755Y-117610968D01*
X107871859Y-117428650D01*
X107839474Y-117384077D01*
X107839474Y-117384076D01*
X107160000Y-118063551D01*
X107160000Y-118057339D01*
X107132741Y-117955606D01*
X107080080Y-117864394D01*
X107005606Y-117789920D01*
X106914394Y-117737259D01*
X106812661Y-117710000D01*
X106806446Y-117710000D01*
X107485922Y-117030524D01*
X107485921Y-117030523D01*
X107441359Y-116998147D01*
X107441350Y-116998141D01*
X107259031Y-116905244D01*
X107064417Y-116842009D01*
X106862317Y-116810000D01*
X106657683Y-116810000D01*
X106455582Y-116842009D01*
X106260968Y-116905244D01*
X106078644Y-116998143D01*
X106034077Y-117030523D01*
X106034077Y-117030524D01*
X106713554Y-117710000D01*
X106707339Y-117710000D01*
X106605606Y-117737259D01*
X106514394Y-117789920D01*
X106439920Y-117864394D01*
X106387259Y-117955606D01*
X106360000Y-118057339D01*
X106360000Y-118063553D01*
X105680524Y-117384077D01*
X105680523Y-117384077D01*
X105648143Y-117428644D01*
X105555244Y-117610968D01*
X105492009Y-117805582D01*
X105460000Y-118007682D01*
X64000500Y-118007682D01*
X64000500Y-114856153D01*
X122389500Y-114856153D01*
X122389500Y-115013846D01*
X122420261Y-115168489D01*
X122420264Y-115168501D01*
X122480602Y-115314172D01*
X122480609Y-115314185D01*
X122568210Y-115445288D01*
X122568213Y-115445292D01*
X122679707Y-115556786D01*
X122679711Y-115556789D01*
X122810814Y-115644390D01*
X122810827Y-115644397D01*
X122870370Y-115669060D01*
X122956503Y-115704737D01*
X123111153Y-115735499D01*
X123111156Y-115735500D01*
X123111158Y-115735500D01*
X123268844Y-115735500D01*
X123268845Y-115735499D01*
X123423497Y-115704737D01*
X123536166Y-115658067D01*
X123569172Y-115644397D01*
X123569172Y-115644396D01*
X123569179Y-115644394D01*
X123663459Y-115581398D01*
X123730136Y-115560520D01*
X123732350Y-115560500D01*
X125187650Y-115560500D01*
X125254689Y-115580185D01*
X125256541Y-115581398D01*
X125289141Y-115603181D01*
X125350821Y-115644394D01*
X125350823Y-115644395D01*
X125350827Y-115644397D01*
X125410370Y-115669060D01*
X125496503Y-115704737D01*
X125651153Y-115735499D01*
X125651156Y-115735500D01*
X125651158Y-115735500D01*
X125808844Y-115735500D01*
X125808845Y-115735499D01*
X125963497Y-115704737D01*
X126076166Y-115658067D01*
X126109172Y-115644397D01*
X126109172Y-115644396D01*
X126109179Y-115644394D01*
X126240289Y-115556789D01*
X126351789Y-115445289D01*
X126439394Y-115314179D01*
X126499737Y-115168497D01*
X126530500Y-115013842D01*
X126530500Y-114856158D01*
X126530500Y-114856155D01*
X126530499Y-114856153D01*
X126499738Y-114701510D01*
X126499737Y-114701503D01*
X126499735Y-114701498D01*
X126439397Y-114555827D01*
X126439390Y-114555814D01*
X126351789Y-114424711D01*
X126351786Y-114424707D01*
X126240292Y-114313213D01*
X126240288Y-114313210D01*
X126109185Y-114225609D01*
X126109172Y-114225602D01*
X125963501Y-114165264D01*
X125963489Y-114165261D01*
X125808845Y-114134500D01*
X125808842Y-114134500D01*
X125651158Y-114134500D01*
X125651155Y-114134500D01*
X125496510Y-114165261D01*
X125496498Y-114165264D01*
X125350827Y-114225602D01*
X125350815Y-114225609D01*
X125256541Y-114288602D01*
X125189864Y-114309480D01*
X125187650Y-114309500D01*
X123732350Y-114309500D01*
X123665311Y-114289815D01*
X123663459Y-114288602D01*
X123569184Y-114225609D01*
X123569172Y-114225602D01*
X123423501Y-114165264D01*
X123423489Y-114165261D01*
X123268845Y-114134500D01*
X123268842Y-114134500D01*
X123111158Y-114134500D01*
X123111155Y-114134500D01*
X122956510Y-114165261D01*
X122956498Y-114165264D01*
X122810827Y-114225602D01*
X122810814Y-114225609D01*
X122679711Y-114313210D01*
X122679707Y-114313213D01*
X122568213Y-114424707D01*
X122568210Y-114424711D01*
X122480609Y-114555814D01*
X122480602Y-114555827D01*
X122420264Y-114701498D01*
X122420261Y-114701510D01*
X122389500Y-114856153D01*
X64000500Y-114856153D01*
X64000500Y-112931577D01*
X105609500Y-112931577D01*
X105609500Y-113128422D01*
X105640290Y-113322826D01*
X105701117Y-113510029D01*
X105790476Y-113685405D01*
X105906172Y-113844646D01*
X106045354Y-113983828D01*
X106204595Y-114099524D01*
X106273240Y-114134500D01*
X106379970Y-114188882D01*
X106379972Y-114188882D01*
X106379975Y-114188884D01*
X106455249Y-114213342D01*
X106567173Y-114249709D01*
X106761578Y-114280500D01*
X106761583Y-114280500D01*
X106958422Y-114280500D01*
X107152826Y-114249709D01*
X107340025Y-114188884D01*
X107515405Y-114099524D01*
X107674646Y-113983828D01*
X107813828Y-113844646D01*
X107929524Y-113685405D01*
X108018884Y-113510025D01*
X108079709Y-113322826D01*
X108110500Y-113128422D01*
X108110500Y-112931577D01*
X110509500Y-112931577D01*
X110509500Y-113128422D01*
X110540290Y-113322826D01*
X110601117Y-113510029D01*
X110690476Y-113685405D01*
X110806172Y-113844646D01*
X110945354Y-113983828D01*
X111104595Y-114099524D01*
X111173240Y-114134500D01*
X111279970Y-114188882D01*
X111279972Y-114188882D01*
X111279975Y-114188884D01*
X111355249Y-114213342D01*
X111467173Y-114249709D01*
X111661578Y-114280500D01*
X111661583Y-114280500D01*
X111858422Y-114280500D01*
X112052826Y-114249709D01*
X112240025Y-114188884D01*
X112415405Y-114099524D01*
X112574646Y-113983828D01*
X112713828Y-113844646D01*
X112829524Y-113685405D01*
X112918884Y-113510025D01*
X112979709Y-113322826D01*
X113010500Y-113128422D01*
X113010500Y-112931577D01*
X112979709Y-112737173D01*
X112918882Y-112549970D01*
X112829523Y-112374594D01*
X112713828Y-112215354D01*
X112574646Y-112076172D01*
X112415405Y-111960476D01*
X112240029Y-111871117D01*
X112052826Y-111810290D01*
X111858422Y-111779500D01*
X111858417Y-111779500D01*
X111661583Y-111779500D01*
X111661578Y-111779500D01*
X111467173Y-111810290D01*
X111279970Y-111871117D01*
X111104594Y-111960476D01*
X111013741Y-112026485D01*
X110945354Y-112076172D01*
X110945352Y-112076174D01*
X110945351Y-112076174D01*
X110806174Y-112215351D01*
X110806174Y-112215352D01*
X110806172Y-112215354D01*
X110756485Y-112283741D01*
X110690476Y-112374594D01*
X110601117Y-112549970D01*
X110540290Y-112737173D01*
X110509500Y-112931577D01*
X108110500Y-112931577D01*
X108079709Y-112737173D01*
X108018882Y-112549970D01*
X107929523Y-112374594D01*
X107813828Y-112215354D01*
X107674646Y-112076172D01*
X107515405Y-111960476D01*
X107340029Y-111871117D01*
X107152826Y-111810290D01*
X106958422Y-111779500D01*
X106958417Y-111779500D01*
X106761583Y-111779500D01*
X106761578Y-111779500D01*
X106567173Y-111810290D01*
X106379970Y-111871117D01*
X106204594Y-111960476D01*
X106113741Y-112026485D01*
X106045354Y-112076172D01*
X106045352Y-112076174D01*
X106045351Y-112076174D01*
X105906174Y-112215351D01*
X105906174Y-112215352D01*
X105906172Y-112215354D01*
X105856485Y-112283741D01*
X105790476Y-112374594D01*
X105701117Y-112549970D01*
X105640290Y-112737173D01*
X105609500Y-112931577D01*
X64000500Y-112931577D01*
X64000500Y-110588543D01*
X83454499Y-110588543D01*
X83492947Y-110781829D01*
X83492950Y-110781839D01*
X83568364Y-110963907D01*
X83568371Y-110963920D01*
X83677860Y-111127781D01*
X83677863Y-111127785D01*
X83817214Y-111267136D01*
X83817218Y-111267139D01*
X83981079Y-111376628D01*
X83981092Y-111376635D01*
X84163160Y-111452049D01*
X84163165Y-111452051D01*
X84163169Y-111452051D01*
X84163170Y-111452052D01*
X84356456Y-111490500D01*
X84356459Y-111490500D01*
X132602770Y-111490500D01*
X132669809Y-111510185D01*
X132690451Y-111526819D01*
X136962753Y-115799121D01*
X136996238Y-115860444D01*
X136991254Y-115930136D01*
X136962754Y-115974483D01*
X136879309Y-116057928D01*
X136768240Y-116210800D01*
X136682454Y-116379163D01*
X136624059Y-116558881D01*
X136594500Y-116745513D01*
X136594500Y-116934486D01*
X136624059Y-117121118D01*
X136682454Y-117300836D01*
X136724868Y-117384077D01*
X136768240Y-117469199D01*
X136879310Y-117622073D01*
X137012927Y-117755690D01*
X137165801Y-117866760D01*
X137245347Y-117907290D01*
X137334163Y-117952545D01*
X137334165Y-117952545D01*
X137334168Y-117952547D01*
X137430497Y-117983846D01*
X137513881Y-118010940D01*
X137700514Y-118040500D01*
X137700519Y-118040500D01*
X137889486Y-118040500D01*
X138076118Y-118010940D01*
X138086250Y-118007648D01*
X138255832Y-117952547D01*
X138424199Y-117866760D01*
X138577073Y-117755690D01*
X138710690Y-117622073D01*
X138821760Y-117469199D01*
X138907547Y-117300832D01*
X138947069Y-117179195D01*
X138986507Y-117121521D01*
X139050866Y-117094323D01*
X139119712Y-117106238D01*
X139171188Y-117153482D01*
X139182931Y-117179196D01*
X139222454Y-117300836D01*
X139264868Y-117384077D01*
X139308240Y-117469199D01*
X139419310Y-117622073D01*
X139552927Y-117755690D01*
X139705801Y-117866760D01*
X139785347Y-117907290D01*
X139874163Y-117952545D01*
X139874165Y-117952545D01*
X139874168Y-117952547D01*
X139970497Y-117983846D01*
X140053881Y-118010940D01*
X140240514Y-118040500D01*
X140240519Y-118040500D01*
X140429486Y-118040500D01*
X140616118Y-118010940D01*
X140626250Y-118007648D01*
X140795832Y-117952547D01*
X140964199Y-117866760D01*
X141117073Y-117755690D01*
X141250690Y-117622073D01*
X141361760Y-117469199D01*
X141447547Y-117300832D01*
X141505940Y-117121118D01*
X141510184Y-117094323D01*
X141535500Y-116934486D01*
X141535500Y-116745513D01*
X141505940Y-116558881D01*
X141447545Y-116379163D01*
X141361759Y-116210800D01*
X141250690Y-116057927D01*
X141117073Y-115924310D01*
X141114518Y-115922454D01*
X141097126Y-115909817D01*
X141054460Y-115854487D01*
X141048482Y-115784874D01*
X141081088Y-115723079D01*
X141141928Y-115688722D01*
X141170012Y-115685500D01*
X141192770Y-115685500D01*
X141259809Y-115705185D01*
X141280451Y-115721819D01*
X142223181Y-116664549D01*
X142256666Y-116725872D01*
X142259500Y-116752230D01*
X142259500Y-116934486D01*
X142289059Y-117121118D01*
X142347454Y-117300836D01*
X142389868Y-117384077D01*
X142433240Y-117469199D01*
X142544310Y-117622073D01*
X142677927Y-117755690D01*
X142830801Y-117866760D01*
X142910347Y-117907290D01*
X142999163Y-117952545D01*
X142999165Y-117952545D01*
X142999168Y-117952547D01*
X143095497Y-117983846D01*
X143178881Y-118010940D01*
X143365514Y-118040500D01*
X143365519Y-118040500D01*
X143554486Y-118040500D01*
X143741118Y-118010940D01*
X143751250Y-118007648D01*
X143920832Y-117952547D01*
X144089199Y-117866760D01*
X144242073Y-117755690D01*
X144375690Y-117622073D01*
X144486760Y-117469199D01*
X144572547Y-117300832D01*
X144612069Y-117179195D01*
X144651507Y-117121521D01*
X144715866Y-117094323D01*
X144784712Y-117106238D01*
X144836188Y-117153482D01*
X144847931Y-117179196D01*
X144887454Y-117300836D01*
X144929868Y-117384077D01*
X144973240Y-117469199D01*
X145084310Y-117622073D01*
X145217927Y-117755690D01*
X145370801Y-117866760D01*
X145450347Y-117907290D01*
X145539163Y-117952545D01*
X145539165Y-117952545D01*
X145539168Y-117952547D01*
X145635497Y-117983846D01*
X145718881Y-118010940D01*
X145905514Y-118040500D01*
X145905519Y-118040500D01*
X146094486Y-118040500D01*
X146281118Y-118010940D01*
X146291250Y-118007648D01*
X146460832Y-117952547D01*
X146629199Y-117866760D01*
X146782073Y-117755690D01*
X146915690Y-117622073D01*
X147026760Y-117469199D01*
X147112547Y-117300832D01*
X147170940Y-117121118D01*
X147175184Y-117094323D01*
X147200500Y-116934486D01*
X147200500Y-116745513D01*
X147170940Y-116558881D01*
X147112545Y-116379163D01*
X147026759Y-116210800D01*
X146915690Y-116057927D01*
X146782073Y-115924310D01*
X146629199Y-115813240D01*
X146601489Y-115799121D01*
X146460836Y-115727454D01*
X146281118Y-115669059D01*
X146094486Y-115639500D01*
X146094481Y-115639500D01*
X145905519Y-115639500D01*
X145905514Y-115639500D01*
X145718881Y-115669059D01*
X145539163Y-115727454D01*
X145370800Y-115813240D01*
X145283579Y-115876610D01*
X145217927Y-115924310D01*
X145217925Y-115924312D01*
X145217924Y-115924312D01*
X145084312Y-116057924D01*
X145084312Y-116057925D01*
X145084310Y-116057927D01*
X145036610Y-116123579D01*
X144973240Y-116210800D01*
X144887454Y-116379163D01*
X144847931Y-116500803D01*
X144808493Y-116558478D01*
X144744134Y-116585676D01*
X144675288Y-116573761D01*
X144623812Y-116526516D01*
X144612069Y-116500803D01*
X144572545Y-116379163D01*
X144486759Y-116210800D01*
X144375690Y-116057927D01*
X144242073Y-115924310D01*
X144089199Y-115813240D01*
X144061489Y-115799121D01*
X143920836Y-115727454D01*
X143741118Y-115669059D01*
X143554486Y-115639500D01*
X143554481Y-115639500D01*
X143372230Y-115639500D01*
X143305191Y-115619815D01*
X143284549Y-115603181D01*
X142033421Y-114352052D01*
X142033414Y-114352046D01*
X141959729Y-114302812D01*
X141959729Y-114302813D01*
X141910491Y-114269913D01*
X141773917Y-114213343D01*
X141773907Y-114213340D01*
X141628920Y-114184500D01*
X141628918Y-114184500D01*
X139626082Y-114184500D01*
X139626080Y-114184500D01*
X139481092Y-114213340D01*
X139481086Y-114213342D01*
X139344508Y-114269914D01*
X139344496Y-114269921D01*
X139295270Y-114302811D01*
X139295271Y-114302812D01*
X139221581Y-114352049D01*
X138517680Y-115055950D01*
X138456357Y-115089435D01*
X138386665Y-115084451D01*
X138342318Y-115055950D01*
X133864048Y-110577680D01*
X133830563Y-110516357D01*
X133835547Y-110446665D01*
X133864048Y-110402318D01*
X137742948Y-106523419D01*
X137742948Y-106523418D01*
X137742951Y-106523416D01*
X137825084Y-106400495D01*
X137881658Y-106263913D01*
X137894982Y-106196932D01*
X137910500Y-106118920D01*
X137910500Y-93906081D01*
X137904763Y-93877242D01*
X137904763Y-93877240D01*
X137881660Y-93761095D01*
X137881659Y-93761088D01*
X137827408Y-93630117D01*
X137825764Y-93625522D01*
X137742954Y-93501588D01*
X137742953Y-93501587D01*
X137742951Y-93501584D01*
X137638416Y-93397049D01*
X134676473Y-90435106D01*
X134642988Y-90373783D01*
X134641681Y-90328028D01*
X134650500Y-90272352D01*
X134650500Y-90067648D01*
X134618477Y-89865466D01*
X134555220Y-89670781D01*
X134555218Y-89670778D01*
X134555218Y-89670776D01*
X134509515Y-89581080D01*
X134462287Y-89488390D01*
X134454556Y-89477749D01*
X134341971Y-89322786D01*
X134197213Y-89178028D01*
X134031613Y-89057715D01*
X134031612Y-89057714D01*
X134031610Y-89057713D01*
X133974653Y-89028691D01*
X133849223Y-88964781D01*
X133654534Y-88901522D01*
X133479995Y-88873878D01*
X133452352Y-88869500D01*
X133247648Y-88869500D01*
X133223329Y-88873351D01*
X133045465Y-88901522D01*
X132850776Y-88964781D01*
X132668386Y-89057715D01*
X132502786Y-89178028D01*
X132358028Y-89322786D01*
X132237715Y-89488386D01*
X132144781Y-89670776D01*
X132081522Y-89865465D01*
X132049500Y-90067648D01*
X132049500Y-90272351D01*
X132081522Y-90474534D01*
X132144781Y-90669223D01*
X132237715Y-90851613D01*
X132358028Y-91017213D01*
X132502786Y-91161971D01*
X132657749Y-91274556D01*
X132668390Y-91282287D01*
X132784607Y-91341503D01*
X132850776Y-91375218D01*
X132850778Y-91375218D01*
X132850781Y-91375220D01*
X132955137Y-91409127D01*
X133045465Y-91438477D01*
X133129564Y-91451797D01*
X133247648Y-91470500D01*
X133247649Y-91470500D01*
X133452350Y-91470500D01*
X133452352Y-91470500D01*
X133508027Y-91461681D01*
X133577319Y-91470635D01*
X133615106Y-91496473D01*
X136373181Y-94254548D01*
X136406666Y-94315871D01*
X136409500Y-94342229D01*
X136409500Y-105682770D01*
X136389815Y-105749809D01*
X136373181Y-105770451D01*
X132690451Y-109453181D01*
X132629128Y-109486666D01*
X132602770Y-109489500D01*
X112843778Y-109489500D01*
X112776739Y-109469815D01*
X112730984Y-109417011D01*
X112721040Y-109347853D01*
X112743459Y-109292615D01*
X112836760Y-109164199D01*
X112922547Y-108995832D01*
X112980940Y-108816118D01*
X112985184Y-108789323D01*
X113010500Y-108629486D01*
X113010500Y-108440513D01*
X112980940Y-108253881D01*
X112922545Y-108074163D01*
X112836759Y-107905800D01*
X112725690Y-107752927D01*
X112592073Y-107619310D01*
X112439199Y-107508240D01*
X112270836Y-107422454D01*
X112091118Y-107364059D01*
X111904486Y-107334500D01*
X111904481Y-107334500D01*
X111715519Y-107334500D01*
X111715514Y-107334500D01*
X111528881Y-107364059D01*
X111349163Y-107422454D01*
X111180800Y-107508240D01*
X111093579Y-107571610D01*
X111027927Y-107619310D01*
X111027925Y-107619312D01*
X111027924Y-107619312D01*
X110894312Y-107752924D01*
X110894312Y-107752925D01*
X110894310Y-107752927D01*
X110846610Y-107818579D01*
X110783240Y-107905800D01*
X110697454Y-108074163D01*
X110657931Y-108195803D01*
X110618493Y-108253478D01*
X110554134Y-108280676D01*
X110485288Y-108268761D01*
X110433812Y-108221516D01*
X110422069Y-108195803D01*
X110382545Y-108074163D01*
X110296759Y-107905800D01*
X110185690Y-107752927D01*
X110052073Y-107619310D01*
X109899199Y-107508240D01*
X109730836Y-107422454D01*
X109551118Y-107364059D01*
X109364486Y-107334500D01*
X109364481Y-107334500D01*
X109175519Y-107334500D01*
X109175514Y-107334500D01*
X108988881Y-107364059D01*
X108809163Y-107422454D01*
X108640800Y-107508240D01*
X108553579Y-107571610D01*
X108487927Y-107619310D01*
X108487925Y-107619312D01*
X108487924Y-107619312D01*
X108354312Y-107752924D01*
X108354312Y-107752925D01*
X108354310Y-107752927D01*
X108306610Y-107818579D01*
X108243240Y-107905800D01*
X108157454Y-108074163D01*
X108099059Y-108253881D01*
X108069500Y-108440513D01*
X108069500Y-108629486D01*
X108099059Y-108816118D01*
X108157454Y-108995836D01*
X108243240Y-109164199D01*
X108336540Y-109292615D01*
X108360020Y-109358420D01*
X108344195Y-109426474D01*
X108294089Y-109475169D01*
X108236222Y-109489500D01*
X84356457Y-109489500D01*
X84163170Y-109527947D01*
X84163160Y-109527950D01*
X83981092Y-109603364D01*
X83981079Y-109603371D01*
X83817218Y-109712860D01*
X83817214Y-109712863D01*
X83677863Y-109852214D01*
X83677860Y-109852218D01*
X83568371Y-110016079D01*
X83568364Y-110016092D01*
X83492950Y-110198160D01*
X83492947Y-110198170D01*
X83454500Y-110391456D01*
X83454500Y-110391459D01*
X83454500Y-110588541D01*
X83454500Y-110588543D01*
X83454499Y-110588543D01*
X64000500Y-110588543D01*
X64000500Y-104810013D01*
X95220000Y-104810013D01*
X95220000Y-105160000D01*
X96204314Y-105160000D01*
X96199920Y-105164394D01*
X96147259Y-105255606D01*
X96120000Y-105357339D01*
X96120000Y-105462661D01*
X96147259Y-105564394D01*
X96199920Y-105655606D01*
X96204314Y-105660000D01*
X95220001Y-105660000D01*
X95220001Y-106009986D01*
X95230494Y-106112697D01*
X95285641Y-106279119D01*
X95285643Y-106279124D01*
X95377684Y-106428345D01*
X95501654Y-106552315D01*
X95650875Y-106644356D01*
X95650880Y-106644358D01*
X95817302Y-106699505D01*
X95817309Y-106699506D01*
X95920019Y-106709999D01*
X96269999Y-106709999D01*
X96270000Y-106709998D01*
X96270000Y-105725686D01*
X96274394Y-105730080D01*
X96365606Y-105782741D01*
X96467339Y-105810000D01*
X96572661Y-105810000D01*
X96674394Y-105782741D01*
X96765606Y-105730080D01*
X96770000Y-105725686D01*
X96770000Y-106709999D01*
X97119972Y-106709999D01*
X97119986Y-106709998D01*
X97222697Y-106699505D01*
X97389119Y-106644358D01*
X97389124Y-106644356D01*
X97538345Y-106552315D01*
X97662315Y-106428345D01*
X97754356Y-106279124D01*
X97754359Y-106279117D01*
X97781592Y-106196932D01*
X97821364Y-106139487D01*
X97885879Y-106112663D01*
X97954655Y-106124977D01*
X97999617Y-106163050D01*
X98068034Y-106257219D01*
X98212786Y-106401971D01*
X98367749Y-106514556D01*
X98378390Y-106522287D01*
X98494607Y-106581503D01*
X98560776Y-106615218D01*
X98560778Y-106615218D01*
X98560781Y-106615220D01*
X98650459Y-106644358D01*
X98755465Y-106678477D01*
X98856557Y-106694488D01*
X98957648Y-106710500D01*
X98957649Y-106710500D01*
X99162351Y-106710500D01*
X99162352Y-106710500D01*
X99364534Y-106678477D01*
X99559219Y-106615220D01*
X99741610Y-106522287D01*
X99834590Y-106454732D01*
X99907213Y-106401971D01*
X99907215Y-106401968D01*
X99907219Y-106401966D01*
X100051966Y-106257219D01*
X100051968Y-106257215D01*
X100051971Y-106257213D01*
X100172284Y-106091614D01*
X100172285Y-106091613D01*
X100172287Y-106091610D01*
X100219516Y-105998917D01*
X100267489Y-105948123D01*
X100335310Y-105931328D01*
X100401445Y-105953865D01*
X100440483Y-105998917D01*
X100484348Y-106085006D01*
X100487715Y-106091614D01*
X100608028Y-106257213D01*
X100752786Y-106401971D01*
X100907749Y-106514556D01*
X100918390Y-106522287D01*
X101034607Y-106581503D01*
X101100776Y-106615218D01*
X101100778Y-106615218D01*
X101100781Y-106615220D01*
X101190459Y-106644358D01*
X101295465Y-106678477D01*
X101396557Y-106694488D01*
X101497648Y-106710500D01*
X101497649Y-106710500D01*
X101702351Y-106710500D01*
X101702352Y-106710500D01*
X101904534Y-106678477D01*
X102099219Y-106615220D01*
X102281610Y-106522287D01*
X102374590Y-106454732D01*
X102447213Y-106401971D01*
X102447215Y-106401968D01*
X102447219Y-106401966D01*
X102591966Y-106257219D01*
X102591968Y-106257215D01*
X102591971Y-106257213D01*
X102712284Y-106091614D01*
X102712285Y-106091613D01*
X102712287Y-106091610D01*
X102759516Y-105998917D01*
X102807489Y-105948123D01*
X102875310Y-105931328D01*
X102941445Y-105953865D01*
X102980483Y-105998917D01*
X103024348Y-106085006D01*
X103027715Y-106091614D01*
X103148028Y-106257213D01*
X103292786Y-106401971D01*
X103447749Y-106514556D01*
X103458390Y-106522287D01*
X103574607Y-106581503D01*
X103640776Y-106615218D01*
X103640778Y-106615218D01*
X103640781Y-106615220D01*
X103730459Y-106644358D01*
X103835465Y-106678477D01*
X103936557Y-106694488D01*
X104037648Y-106710500D01*
X104037649Y-106710500D01*
X104242351Y-106710500D01*
X104242352Y-106710500D01*
X104444534Y-106678477D01*
X104639219Y-106615220D01*
X104821610Y-106522287D01*
X104914590Y-106454732D01*
X104987213Y-106401971D01*
X104987215Y-106401968D01*
X104987219Y-106401966D01*
X105131966Y-106257219D01*
X105131968Y-106257215D01*
X105131971Y-106257213D01*
X105252284Y-106091614D01*
X105252285Y-106091613D01*
X105252287Y-106091610D01*
X105299516Y-105998917D01*
X105347489Y-105948123D01*
X105415310Y-105931328D01*
X105481445Y-105953865D01*
X105520483Y-105998917D01*
X105564348Y-106085006D01*
X105567715Y-106091614D01*
X105688028Y-106257213D01*
X105832786Y-106401971D01*
X105987749Y-106514556D01*
X105998390Y-106522287D01*
X106114607Y-106581503D01*
X106180776Y-106615218D01*
X106180778Y-106615218D01*
X106180781Y-106615220D01*
X106270459Y-106644358D01*
X106375465Y-106678477D01*
X106476557Y-106694488D01*
X106577648Y-106710500D01*
X106577649Y-106710500D01*
X106782351Y-106710500D01*
X106782352Y-106710500D01*
X106984534Y-106678477D01*
X107179219Y-106615220D01*
X107361610Y-106522287D01*
X107454590Y-106454732D01*
X107527213Y-106401971D01*
X107527215Y-106401968D01*
X107527219Y-106401966D01*
X107671966Y-106257219D01*
X107671968Y-106257215D01*
X107671971Y-106257213D01*
X107792284Y-106091614D01*
X107792285Y-106091613D01*
X107792287Y-106091610D01*
X107839516Y-105998917D01*
X107887489Y-105948123D01*
X107955310Y-105931328D01*
X108021445Y-105953865D01*
X108060483Y-105998917D01*
X108104348Y-106085006D01*
X108107715Y-106091614D01*
X108228028Y-106257213D01*
X108372786Y-106401971D01*
X108527749Y-106514556D01*
X108538390Y-106522287D01*
X108654607Y-106581503D01*
X108720776Y-106615218D01*
X108720778Y-106615218D01*
X108720781Y-106615220D01*
X108810459Y-106644358D01*
X108915465Y-106678477D01*
X109016557Y-106694488D01*
X109117648Y-106710500D01*
X109117649Y-106710500D01*
X109322351Y-106710500D01*
X109322352Y-106710500D01*
X109524534Y-106678477D01*
X109719219Y-106615220D01*
X109901610Y-106522287D01*
X109994590Y-106454732D01*
X110067213Y-106401971D01*
X110067215Y-106401968D01*
X110067219Y-106401966D01*
X110211966Y-106257219D01*
X110211968Y-106257215D01*
X110211971Y-106257213D01*
X110332284Y-106091614D01*
X110332285Y-106091613D01*
X110332287Y-106091610D01*
X110379516Y-105998917D01*
X110427489Y-105948123D01*
X110495310Y-105931328D01*
X110561445Y-105953865D01*
X110600483Y-105998917D01*
X110644348Y-106085006D01*
X110647715Y-106091614D01*
X110768028Y-106257213D01*
X110912786Y-106401971D01*
X111067749Y-106514556D01*
X111078390Y-106522287D01*
X111194607Y-106581503D01*
X111260776Y-106615218D01*
X111260778Y-106615218D01*
X111260781Y-106615220D01*
X111350459Y-106644358D01*
X111455465Y-106678477D01*
X111556557Y-106694488D01*
X111657648Y-106710500D01*
X111657649Y-106710500D01*
X111862351Y-106710500D01*
X111862352Y-106710500D01*
X112064534Y-106678477D01*
X112259219Y-106615220D01*
X112441610Y-106522287D01*
X112534590Y-106454732D01*
X112607213Y-106401971D01*
X112607215Y-106401968D01*
X112607219Y-106401966D01*
X112751966Y-106257219D01*
X112751968Y-106257215D01*
X112751971Y-106257213D01*
X112872284Y-106091614D01*
X112872285Y-106091613D01*
X112872287Y-106091610D01*
X112919516Y-105998917D01*
X112967489Y-105948123D01*
X113035310Y-105931328D01*
X113101445Y-105953865D01*
X113140483Y-105998917D01*
X113184348Y-106085006D01*
X113187715Y-106091614D01*
X113308028Y-106257213D01*
X113452786Y-106401971D01*
X113607749Y-106514556D01*
X113618390Y-106522287D01*
X113734607Y-106581503D01*
X113800776Y-106615218D01*
X113800778Y-106615218D01*
X113800781Y-106615220D01*
X113890459Y-106644358D01*
X113995465Y-106678477D01*
X114096557Y-106694488D01*
X114197648Y-106710500D01*
X114197649Y-106710500D01*
X114402351Y-106710500D01*
X114402352Y-106710500D01*
X114604534Y-106678477D01*
X114799219Y-106615220D01*
X114981610Y-106522287D01*
X115074590Y-106454732D01*
X115147213Y-106401971D01*
X115147215Y-106401968D01*
X115147219Y-106401966D01*
X115291966Y-106257219D01*
X115291968Y-106257215D01*
X115291971Y-106257213D01*
X115412284Y-106091614D01*
X115412285Y-106091613D01*
X115412287Y-106091610D01*
X115459516Y-105998917D01*
X115507489Y-105948123D01*
X115575310Y-105931328D01*
X115641445Y-105953865D01*
X115680483Y-105998917D01*
X115724348Y-106085006D01*
X115727715Y-106091614D01*
X115848028Y-106257213D01*
X115992786Y-106401971D01*
X116147749Y-106514556D01*
X116158390Y-106522287D01*
X116274607Y-106581503D01*
X116340776Y-106615218D01*
X116340778Y-106615218D01*
X116340781Y-106615220D01*
X116430459Y-106644358D01*
X116535465Y-106678477D01*
X116636557Y-106694488D01*
X116737648Y-106710500D01*
X116737649Y-106710500D01*
X116942351Y-106710500D01*
X116942352Y-106710500D01*
X117144534Y-106678477D01*
X117339219Y-106615220D01*
X117521610Y-106522287D01*
X117614590Y-106454732D01*
X117687213Y-106401971D01*
X117687215Y-106401968D01*
X117687219Y-106401966D01*
X117831966Y-106257219D01*
X117831968Y-106257215D01*
X117831971Y-106257213D01*
X117952284Y-106091614D01*
X117952285Y-106091613D01*
X117952287Y-106091610D01*
X117999516Y-105998917D01*
X118047489Y-105948123D01*
X118115310Y-105931328D01*
X118181445Y-105953865D01*
X118220483Y-105998917D01*
X118264348Y-106085006D01*
X118267715Y-106091614D01*
X118388028Y-106257213D01*
X118532786Y-106401971D01*
X118687749Y-106514556D01*
X118698390Y-106522287D01*
X118814607Y-106581503D01*
X118880776Y-106615218D01*
X118880778Y-106615218D01*
X118880781Y-106615220D01*
X118970459Y-106644358D01*
X119075465Y-106678477D01*
X119176557Y-106694488D01*
X119277648Y-106710500D01*
X119277649Y-106710500D01*
X119482351Y-106710500D01*
X119482352Y-106710500D01*
X119684534Y-106678477D01*
X119879219Y-106615220D01*
X120061610Y-106522287D01*
X120154590Y-106454732D01*
X120227213Y-106401971D01*
X120227215Y-106401968D01*
X120227219Y-106401966D01*
X120371966Y-106257219D01*
X120371968Y-106257215D01*
X120371971Y-106257213D01*
X120492284Y-106091614D01*
X120492285Y-106091613D01*
X120492287Y-106091610D01*
X120539516Y-105998917D01*
X120587489Y-105948123D01*
X120655310Y-105931328D01*
X120721445Y-105953865D01*
X120760483Y-105998917D01*
X120804348Y-106085006D01*
X120807715Y-106091614D01*
X120928028Y-106257213D01*
X121072786Y-106401971D01*
X121227749Y-106514556D01*
X121238390Y-106522287D01*
X121354607Y-106581503D01*
X121420776Y-106615218D01*
X121420778Y-106615218D01*
X121420781Y-106615220D01*
X121510459Y-106644358D01*
X121615465Y-106678477D01*
X121716557Y-106694488D01*
X121817648Y-106710500D01*
X121817649Y-106710500D01*
X122022351Y-106710500D01*
X122022352Y-106710500D01*
X122224534Y-106678477D01*
X122419219Y-106615220D01*
X122601610Y-106522287D01*
X122694590Y-106454732D01*
X122767213Y-106401971D01*
X122767215Y-106401968D01*
X122767219Y-106401966D01*
X122911966Y-106257219D01*
X122911968Y-106257215D01*
X122911971Y-106257213D01*
X123032284Y-106091614D01*
X123032285Y-106091613D01*
X123032287Y-106091610D01*
X123079516Y-105998917D01*
X123127489Y-105948123D01*
X123195310Y-105931328D01*
X123261445Y-105953865D01*
X123300483Y-105998917D01*
X123344348Y-106085006D01*
X123347715Y-106091614D01*
X123468028Y-106257213D01*
X123612786Y-106401971D01*
X123767749Y-106514556D01*
X123778390Y-106522287D01*
X123894607Y-106581503D01*
X123960776Y-106615218D01*
X123960778Y-106615218D01*
X123960781Y-106615220D01*
X124050459Y-106644358D01*
X124155465Y-106678477D01*
X124256557Y-106694488D01*
X124357648Y-106710500D01*
X124357649Y-106710500D01*
X124562351Y-106710500D01*
X124562352Y-106710500D01*
X124764534Y-106678477D01*
X124959219Y-106615220D01*
X125141610Y-106522287D01*
X125234590Y-106454732D01*
X125307213Y-106401971D01*
X125307215Y-106401968D01*
X125307219Y-106401966D01*
X125451966Y-106257219D01*
X125451968Y-106257215D01*
X125451971Y-106257213D01*
X125572284Y-106091614D01*
X125572285Y-106091613D01*
X125572287Y-106091610D01*
X125619516Y-105998917D01*
X125667489Y-105948123D01*
X125735310Y-105931328D01*
X125801445Y-105953865D01*
X125840483Y-105998917D01*
X125884348Y-106085006D01*
X125887715Y-106091614D01*
X126008028Y-106257213D01*
X126152786Y-106401971D01*
X126307749Y-106514556D01*
X126318390Y-106522287D01*
X126434607Y-106581503D01*
X126500776Y-106615218D01*
X126500778Y-106615218D01*
X126500781Y-106615220D01*
X126590459Y-106644358D01*
X126695465Y-106678477D01*
X126796557Y-106694488D01*
X126897648Y-106710500D01*
X126897649Y-106710500D01*
X127102351Y-106710500D01*
X127102352Y-106710500D01*
X127304534Y-106678477D01*
X127499219Y-106615220D01*
X127681610Y-106522287D01*
X127774590Y-106454732D01*
X127847213Y-106401971D01*
X127847215Y-106401968D01*
X127847219Y-106401966D01*
X127991966Y-106257219D01*
X127991968Y-106257215D01*
X127991971Y-106257213D01*
X128112284Y-106091614D01*
X128112285Y-106091613D01*
X128112287Y-106091610D01*
X128159516Y-105998917D01*
X128207489Y-105948123D01*
X128275310Y-105931328D01*
X128341445Y-105953865D01*
X128380483Y-105998917D01*
X128424348Y-106085006D01*
X128427715Y-106091614D01*
X128548028Y-106257213D01*
X128692786Y-106401971D01*
X128847749Y-106514556D01*
X128858390Y-106522287D01*
X128974607Y-106581503D01*
X129040776Y-106615218D01*
X129040778Y-106615218D01*
X129040781Y-106615220D01*
X129130459Y-106644358D01*
X129235465Y-106678477D01*
X129336557Y-106694488D01*
X129437648Y-106710500D01*
X129437649Y-106710500D01*
X129642351Y-106710500D01*
X129642352Y-106710500D01*
X129844534Y-106678477D01*
X130039219Y-106615220D01*
X130221610Y-106522287D01*
X130314590Y-106454732D01*
X130387213Y-106401971D01*
X130387215Y-106401968D01*
X130387219Y-106401966D01*
X130531966Y-106257219D01*
X130531968Y-106257215D01*
X130531971Y-106257213D01*
X130600383Y-106163050D01*
X130652287Y-106091610D01*
X130745220Y-105909219D01*
X130808477Y-105714534D01*
X130840500Y-105512352D01*
X130840500Y-105307648D01*
X130832257Y-105255606D01*
X130808477Y-105105465D01*
X130745218Y-104910776D01*
X130693876Y-104810013D01*
X130652287Y-104728390D01*
X130612035Y-104672987D01*
X130531971Y-104562786D01*
X130387213Y-104418028D01*
X130221613Y-104297715D01*
X130221612Y-104297714D01*
X130221610Y-104297713D01*
X130162675Y-104267684D01*
X130039223Y-104204781D01*
X129844534Y-104141522D01*
X129669995Y-104113878D01*
X129642352Y-104109500D01*
X129437648Y-104109500D01*
X129413329Y-104113351D01*
X129235465Y-104141522D01*
X129040776Y-104204781D01*
X128858386Y-104297715D01*
X128692786Y-104418028D01*
X128548028Y-104562786D01*
X128427715Y-104728386D01*
X128380485Y-104821080D01*
X128332510Y-104871876D01*
X128264689Y-104888671D01*
X128198554Y-104866134D01*
X128159515Y-104821080D01*
X128153876Y-104810013D01*
X128112287Y-104728390D01*
X128072035Y-104672987D01*
X127991971Y-104562786D01*
X127847213Y-104418028D01*
X127681613Y-104297715D01*
X127681612Y-104297714D01*
X127681610Y-104297713D01*
X127622675Y-104267684D01*
X127499223Y-104204781D01*
X127304534Y-104141522D01*
X127129995Y-104113878D01*
X127102352Y-104109500D01*
X126897648Y-104109500D01*
X126873329Y-104113351D01*
X126695465Y-104141522D01*
X126500776Y-104204781D01*
X126318386Y-104297715D01*
X126152786Y-104418028D01*
X126008028Y-104562786D01*
X125887715Y-104728386D01*
X125840485Y-104821080D01*
X125792510Y-104871876D01*
X125724689Y-104888671D01*
X125658554Y-104866134D01*
X125619515Y-104821080D01*
X125613876Y-104810013D01*
X125572287Y-104728390D01*
X125532035Y-104672987D01*
X125451971Y-104562786D01*
X125307213Y-104418028D01*
X125141613Y-104297715D01*
X125141612Y-104297714D01*
X125141610Y-104297713D01*
X125082675Y-104267684D01*
X124959223Y-104204781D01*
X124764534Y-104141522D01*
X124589995Y-104113878D01*
X124562352Y-104109500D01*
X124357648Y-104109500D01*
X124333329Y-104113351D01*
X124155465Y-104141522D01*
X123960776Y-104204781D01*
X123778386Y-104297715D01*
X123612786Y-104418028D01*
X123468028Y-104562786D01*
X123347715Y-104728386D01*
X123300485Y-104821080D01*
X123252510Y-104871876D01*
X123184689Y-104888671D01*
X123118554Y-104866134D01*
X123079515Y-104821080D01*
X123073876Y-104810013D01*
X123032287Y-104728390D01*
X122992035Y-104672987D01*
X122911971Y-104562786D01*
X122767213Y-104418028D01*
X122601613Y-104297715D01*
X122601612Y-104297714D01*
X122601610Y-104297713D01*
X122542675Y-104267684D01*
X122419223Y-104204781D01*
X122224534Y-104141522D01*
X122049995Y-104113878D01*
X122022352Y-104109500D01*
X121817648Y-104109500D01*
X121793329Y-104113351D01*
X121615465Y-104141522D01*
X121420776Y-104204781D01*
X121238386Y-104297715D01*
X121072786Y-104418028D01*
X120928028Y-104562786D01*
X120807715Y-104728386D01*
X120760485Y-104821080D01*
X120712510Y-104871876D01*
X120644689Y-104888671D01*
X120578554Y-104866134D01*
X120539515Y-104821080D01*
X120533876Y-104810013D01*
X120492287Y-104728390D01*
X120452035Y-104672987D01*
X120371971Y-104562786D01*
X120227213Y-104418028D01*
X120061613Y-104297715D01*
X120061612Y-104297714D01*
X120061610Y-104297713D01*
X120002675Y-104267684D01*
X119879223Y-104204781D01*
X119684534Y-104141522D01*
X119509995Y-104113878D01*
X119482352Y-104109500D01*
X119277648Y-104109500D01*
X119253329Y-104113351D01*
X119075465Y-104141522D01*
X118880776Y-104204781D01*
X118698386Y-104297715D01*
X118532786Y-104418028D01*
X118388028Y-104562786D01*
X118267715Y-104728386D01*
X118220485Y-104821080D01*
X118172510Y-104871876D01*
X118104689Y-104888671D01*
X118038554Y-104866134D01*
X117999515Y-104821080D01*
X117993876Y-104810013D01*
X117952287Y-104728390D01*
X117912035Y-104672987D01*
X117831971Y-104562786D01*
X117687213Y-104418028D01*
X117521613Y-104297715D01*
X117521612Y-104297714D01*
X117521610Y-104297713D01*
X117462675Y-104267684D01*
X117339223Y-104204781D01*
X117144534Y-104141522D01*
X116969995Y-104113878D01*
X116942352Y-104109500D01*
X116737648Y-104109500D01*
X116713329Y-104113351D01*
X116535465Y-104141522D01*
X116340776Y-104204781D01*
X116158386Y-104297715D01*
X115992786Y-104418028D01*
X115848028Y-104562786D01*
X115727715Y-104728386D01*
X115680485Y-104821080D01*
X115632510Y-104871876D01*
X115564689Y-104888671D01*
X115498554Y-104866134D01*
X115459515Y-104821080D01*
X115453876Y-104810013D01*
X115412287Y-104728390D01*
X115372035Y-104672987D01*
X115291971Y-104562786D01*
X115147213Y-104418028D01*
X114981613Y-104297715D01*
X114981612Y-104297714D01*
X114981610Y-104297713D01*
X114922675Y-104267684D01*
X114799223Y-104204781D01*
X114604534Y-104141522D01*
X114429995Y-104113878D01*
X114402352Y-104109500D01*
X114197648Y-104109500D01*
X114173329Y-104113351D01*
X113995465Y-104141522D01*
X113800776Y-104204781D01*
X113618386Y-104297715D01*
X113452786Y-104418028D01*
X113308028Y-104562786D01*
X113187715Y-104728386D01*
X113140485Y-104821080D01*
X113092510Y-104871876D01*
X113024689Y-104888671D01*
X112958554Y-104866134D01*
X112919515Y-104821080D01*
X112913876Y-104810013D01*
X112872287Y-104728390D01*
X112832035Y-104672987D01*
X112751971Y-104562786D01*
X112607213Y-104418028D01*
X112441613Y-104297715D01*
X112441612Y-104297714D01*
X112441610Y-104297713D01*
X112382675Y-104267684D01*
X112259223Y-104204781D01*
X112064534Y-104141522D01*
X111889995Y-104113878D01*
X111862352Y-104109500D01*
X111657648Y-104109500D01*
X111633329Y-104113351D01*
X111455465Y-104141522D01*
X111260776Y-104204781D01*
X111078386Y-104297715D01*
X110912786Y-104418028D01*
X110768028Y-104562786D01*
X110647715Y-104728386D01*
X110600485Y-104821080D01*
X110552510Y-104871876D01*
X110484689Y-104888671D01*
X110418554Y-104866134D01*
X110379515Y-104821080D01*
X110373876Y-104810013D01*
X110332287Y-104728390D01*
X110292035Y-104672987D01*
X110211971Y-104562786D01*
X110067213Y-104418028D01*
X109901613Y-104297715D01*
X109901612Y-104297714D01*
X109901610Y-104297713D01*
X109842675Y-104267684D01*
X109719223Y-104204781D01*
X109524534Y-104141522D01*
X109349995Y-104113878D01*
X109322352Y-104109500D01*
X109117648Y-104109500D01*
X109093329Y-104113351D01*
X108915465Y-104141522D01*
X108720776Y-104204781D01*
X108538386Y-104297715D01*
X108372786Y-104418028D01*
X108228028Y-104562786D01*
X108107715Y-104728386D01*
X108060485Y-104821080D01*
X108012510Y-104871876D01*
X107944689Y-104888671D01*
X107878554Y-104866134D01*
X107839515Y-104821080D01*
X107833876Y-104810013D01*
X107792287Y-104728390D01*
X107752035Y-104672987D01*
X107671971Y-104562786D01*
X107527213Y-104418028D01*
X107361613Y-104297715D01*
X107361612Y-104297714D01*
X107361610Y-104297713D01*
X107302675Y-104267684D01*
X107179223Y-104204781D01*
X106984534Y-104141522D01*
X106809995Y-104113878D01*
X106782352Y-104109500D01*
X106577648Y-104109500D01*
X106553329Y-104113351D01*
X106375465Y-104141522D01*
X106180776Y-104204781D01*
X105998386Y-104297715D01*
X105832786Y-104418028D01*
X105688028Y-104562786D01*
X105567715Y-104728386D01*
X105520485Y-104821080D01*
X105472510Y-104871876D01*
X105404689Y-104888671D01*
X105338554Y-104866134D01*
X105299515Y-104821080D01*
X105293876Y-104810013D01*
X105252287Y-104728390D01*
X105212035Y-104672987D01*
X105131971Y-104562786D01*
X104987213Y-104418028D01*
X104821613Y-104297715D01*
X104821612Y-104297714D01*
X104821610Y-104297713D01*
X104762675Y-104267684D01*
X104639223Y-104204781D01*
X104444534Y-104141522D01*
X104269995Y-104113878D01*
X104242352Y-104109500D01*
X104037648Y-104109500D01*
X104013329Y-104113351D01*
X103835465Y-104141522D01*
X103640776Y-104204781D01*
X103458386Y-104297715D01*
X103292786Y-104418028D01*
X103148028Y-104562786D01*
X103027715Y-104728386D01*
X102980485Y-104821080D01*
X102932510Y-104871876D01*
X102864689Y-104888671D01*
X102798554Y-104866134D01*
X102759515Y-104821080D01*
X102753876Y-104810013D01*
X102712287Y-104728390D01*
X102672035Y-104672987D01*
X102591971Y-104562786D01*
X102447213Y-104418028D01*
X102281613Y-104297715D01*
X102281612Y-104297714D01*
X102281610Y-104297713D01*
X102222675Y-104267684D01*
X102099223Y-104204781D01*
X101904534Y-104141522D01*
X101729995Y-104113878D01*
X101702352Y-104109500D01*
X101497648Y-104109500D01*
X101473329Y-104113351D01*
X101295465Y-104141522D01*
X101100776Y-104204781D01*
X100918386Y-104297715D01*
X100752786Y-104418028D01*
X100608028Y-104562786D01*
X100487715Y-104728386D01*
X100440485Y-104821080D01*
X100392510Y-104871876D01*
X100324689Y-104888671D01*
X100258554Y-104866134D01*
X100219515Y-104821080D01*
X100213876Y-104810013D01*
X100172287Y-104728390D01*
X100132035Y-104672987D01*
X100051971Y-104562786D01*
X99907213Y-104418028D01*
X99741613Y-104297715D01*
X99741612Y-104297714D01*
X99741610Y-104297713D01*
X99682675Y-104267684D01*
X99559223Y-104204781D01*
X99364534Y-104141522D01*
X99189995Y-104113878D01*
X99162352Y-104109500D01*
X98957648Y-104109500D01*
X98933329Y-104113351D01*
X98755465Y-104141522D01*
X98560776Y-104204781D01*
X98378386Y-104297715D01*
X98212786Y-104418028D01*
X98068032Y-104562782D01*
X97999616Y-104656949D01*
X97944286Y-104699614D01*
X97874672Y-104705593D01*
X97812877Y-104672987D01*
X97781592Y-104623067D01*
X97754358Y-104540880D01*
X97754356Y-104540875D01*
X97662315Y-104391654D01*
X97538345Y-104267684D01*
X97389124Y-104175643D01*
X97389119Y-104175641D01*
X97222697Y-104120494D01*
X97222690Y-104120493D01*
X97119986Y-104110000D01*
X96770000Y-104110000D01*
X96770000Y-105094314D01*
X96765606Y-105089920D01*
X96674394Y-105037259D01*
X96572661Y-105010000D01*
X96467339Y-105010000D01*
X96365606Y-105037259D01*
X96274394Y-105089920D01*
X96270000Y-105094314D01*
X96270000Y-104110000D01*
X95920028Y-104110000D01*
X95920012Y-104110001D01*
X95817302Y-104120494D01*
X95650880Y-104175641D01*
X95650875Y-104175643D01*
X95501654Y-104267684D01*
X95377684Y-104391654D01*
X95285643Y-104540875D01*
X95285641Y-104540880D01*
X95230494Y-104707302D01*
X95230493Y-104707309D01*
X95220000Y-104810013D01*
X64000500Y-104810013D01*
X64000500Y-95067682D01*
X132050000Y-95067682D01*
X132050000Y-95272317D01*
X132082009Y-95474417D01*
X132145244Y-95669031D01*
X132238141Y-95851350D01*
X132238147Y-95851359D01*
X132270523Y-95895921D01*
X132270524Y-95895922D01*
X132950000Y-95216446D01*
X132950000Y-95222661D01*
X132977259Y-95324394D01*
X133029920Y-95415606D01*
X133104394Y-95490080D01*
X133195606Y-95542741D01*
X133297339Y-95570000D01*
X133303553Y-95570000D01*
X132624076Y-96249474D01*
X132668650Y-96281859D01*
X132850968Y-96374755D01*
X133045582Y-96437990D01*
X133247683Y-96470000D01*
X133452317Y-96470000D01*
X133654417Y-96437990D01*
X133849031Y-96374755D01*
X134031349Y-96281859D01*
X134075921Y-96249474D01*
X133396447Y-95570000D01*
X133402661Y-95570000D01*
X133504394Y-95542741D01*
X133595606Y-95490080D01*
X133670080Y-95415606D01*
X133722741Y-95324394D01*
X133750000Y-95222661D01*
X133750000Y-95216448D01*
X134429474Y-95895922D01*
X134429474Y-95895921D01*
X134461859Y-95851349D01*
X134554755Y-95669031D01*
X134617990Y-95474417D01*
X134650000Y-95272317D01*
X134650000Y-95067682D01*
X134617990Y-94865582D01*
X134554755Y-94670968D01*
X134461859Y-94488650D01*
X134429474Y-94444077D01*
X134429474Y-94444076D01*
X133750000Y-95123551D01*
X133750000Y-95117339D01*
X133722741Y-95015606D01*
X133670080Y-94924394D01*
X133595606Y-94849920D01*
X133504394Y-94797259D01*
X133402661Y-94770000D01*
X133396446Y-94770000D01*
X134075922Y-94090524D01*
X134075921Y-94090523D01*
X134031359Y-94058147D01*
X134031350Y-94058141D01*
X133849031Y-93965244D01*
X133654417Y-93902009D01*
X133452317Y-93870000D01*
X133247683Y-93870000D01*
X133045582Y-93902009D01*
X132850968Y-93965244D01*
X132668644Y-94058143D01*
X132624077Y-94090523D01*
X132624077Y-94090524D01*
X133303554Y-94770000D01*
X133297339Y-94770000D01*
X133195606Y-94797259D01*
X133104394Y-94849920D01*
X133029920Y-94924394D01*
X132977259Y-95015606D01*
X132950000Y-95117339D01*
X132950000Y-95123553D01*
X132270524Y-94444077D01*
X132270523Y-94444077D01*
X132238143Y-94488644D01*
X132145244Y-94670968D01*
X132082009Y-94865582D01*
X132050000Y-95067682D01*
X64000500Y-95067682D01*
X64000500Y-90067648D01*
X95219500Y-90067648D01*
X95219500Y-90272351D01*
X95251522Y-90474534D01*
X95314781Y-90669223D01*
X95407715Y-90851613D01*
X95528028Y-91017213D01*
X95672786Y-91161971D01*
X95827749Y-91274556D01*
X95838390Y-91282287D01*
X95954607Y-91341503D01*
X96020776Y-91375218D01*
X96020778Y-91375218D01*
X96020781Y-91375220D01*
X96125137Y-91409127D01*
X96215465Y-91438477D01*
X96299564Y-91451797D01*
X96417648Y-91470500D01*
X96417649Y-91470500D01*
X96622351Y-91470500D01*
X96622352Y-91470500D01*
X96824534Y-91438477D01*
X97019219Y-91375220D01*
X97201610Y-91282287D01*
X97294590Y-91214732D01*
X97367213Y-91161971D01*
X97367215Y-91161968D01*
X97367219Y-91161966D01*
X97511966Y-91017219D01*
X97511968Y-91017215D01*
X97511971Y-91017213D01*
X97632284Y-90851614D01*
X97632285Y-90851613D01*
X97632287Y-90851610D01*
X97679516Y-90758917D01*
X97727489Y-90708123D01*
X97795310Y-90691328D01*
X97861445Y-90713865D01*
X97900485Y-90758919D01*
X97947715Y-90851614D01*
X98068028Y-91017213D01*
X98212786Y-91161971D01*
X98367749Y-91274556D01*
X98378390Y-91282287D01*
X98494607Y-91341503D01*
X98560776Y-91375218D01*
X98560778Y-91375218D01*
X98560781Y-91375220D01*
X98665137Y-91409127D01*
X98755465Y-91438477D01*
X98839564Y-91451797D01*
X98957648Y-91470500D01*
X98957649Y-91470500D01*
X99162351Y-91470500D01*
X99162352Y-91470500D01*
X99364534Y-91438477D01*
X99559219Y-91375220D01*
X99741610Y-91282287D01*
X99834590Y-91214732D01*
X99907213Y-91161971D01*
X99907215Y-91161968D01*
X99907219Y-91161966D01*
X100051966Y-91017219D01*
X100051968Y-91017215D01*
X100051971Y-91017213D01*
X100172284Y-90851614D01*
X100172285Y-90851613D01*
X100172287Y-90851610D01*
X100219516Y-90758917D01*
X100267489Y-90708123D01*
X100335310Y-90691328D01*
X100401445Y-90713865D01*
X100440485Y-90758919D01*
X100487715Y-90851614D01*
X100608028Y-91017213D01*
X100752786Y-91161971D01*
X100907749Y-91274556D01*
X100918390Y-91282287D01*
X101034607Y-91341503D01*
X101100776Y-91375218D01*
X101100778Y-91375218D01*
X101100781Y-91375220D01*
X101205137Y-91409127D01*
X101295465Y-91438477D01*
X101379564Y-91451797D01*
X101497648Y-91470500D01*
X101497649Y-91470500D01*
X101702351Y-91470500D01*
X101702352Y-91470500D01*
X101904534Y-91438477D01*
X102099219Y-91375220D01*
X102281610Y-91282287D01*
X102374590Y-91214732D01*
X102447213Y-91161971D01*
X102447215Y-91161968D01*
X102447219Y-91161966D01*
X102591966Y-91017219D01*
X102591968Y-91017215D01*
X102591971Y-91017213D01*
X102712284Y-90851614D01*
X102712285Y-90851613D01*
X102712287Y-90851610D01*
X102759516Y-90758917D01*
X102807489Y-90708123D01*
X102875310Y-90691328D01*
X102941445Y-90713865D01*
X102980485Y-90758919D01*
X103027715Y-90851614D01*
X103148028Y-91017213D01*
X103292786Y-91161971D01*
X103447749Y-91274556D01*
X103458390Y-91282287D01*
X103574607Y-91341503D01*
X103640776Y-91375218D01*
X103640778Y-91375218D01*
X103640781Y-91375220D01*
X103745137Y-91409127D01*
X103835465Y-91438477D01*
X103919564Y-91451797D01*
X104037648Y-91470500D01*
X104037649Y-91470500D01*
X104242351Y-91470500D01*
X104242352Y-91470500D01*
X104444534Y-91438477D01*
X104639219Y-91375220D01*
X104821610Y-91282287D01*
X104914590Y-91214732D01*
X104987213Y-91161971D01*
X104987215Y-91161968D01*
X104987219Y-91161966D01*
X105131966Y-91017219D01*
X105131968Y-91017215D01*
X105131971Y-91017213D01*
X105252284Y-90851614D01*
X105252285Y-90851613D01*
X105252287Y-90851610D01*
X105299516Y-90758917D01*
X105347489Y-90708123D01*
X105415310Y-90691328D01*
X105481445Y-90713865D01*
X105520485Y-90758919D01*
X105567715Y-90851614D01*
X105688028Y-91017213D01*
X105832786Y-91161971D01*
X105987749Y-91274556D01*
X105998390Y-91282287D01*
X106114607Y-91341503D01*
X106180776Y-91375218D01*
X106180778Y-91375218D01*
X106180781Y-91375220D01*
X106285137Y-91409127D01*
X106375465Y-91438477D01*
X106459564Y-91451797D01*
X106577648Y-91470500D01*
X106577649Y-91470500D01*
X106782351Y-91470500D01*
X106782352Y-91470500D01*
X106984534Y-91438477D01*
X107179219Y-91375220D01*
X107361610Y-91282287D01*
X107454590Y-91214732D01*
X107527213Y-91161971D01*
X107527215Y-91161968D01*
X107527219Y-91161966D01*
X107671966Y-91017219D01*
X107671968Y-91017215D01*
X107671971Y-91017213D01*
X107792284Y-90851614D01*
X107792285Y-90851613D01*
X107792287Y-90851610D01*
X107839516Y-90758917D01*
X107887489Y-90708123D01*
X107955310Y-90691328D01*
X108021445Y-90713865D01*
X108060485Y-90758919D01*
X108107715Y-90851614D01*
X108228028Y-91017213D01*
X108372786Y-91161971D01*
X108527749Y-91274556D01*
X108538390Y-91282287D01*
X108654607Y-91341503D01*
X108720776Y-91375218D01*
X108720778Y-91375218D01*
X108720781Y-91375220D01*
X108825137Y-91409127D01*
X108915465Y-91438477D01*
X108999564Y-91451797D01*
X109117648Y-91470500D01*
X109117649Y-91470500D01*
X109322351Y-91470500D01*
X109322352Y-91470500D01*
X109524534Y-91438477D01*
X109719219Y-91375220D01*
X109901610Y-91282287D01*
X109994590Y-91214732D01*
X110067213Y-91161971D01*
X110067215Y-91161968D01*
X110067219Y-91161966D01*
X110211966Y-91017219D01*
X110211968Y-91017215D01*
X110211971Y-91017213D01*
X110332284Y-90851614D01*
X110332285Y-90851613D01*
X110332287Y-90851610D01*
X110379516Y-90758917D01*
X110427489Y-90708123D01*
X110495310Y-90691328D01*
X110561445Y-90713865D01*
X110600485Y-90758919D01*
X110647715Y-90851614D01*
X110768028Y-91017213D01*
X110912786Y-91161971D01*
X111067749Y-91274556D01*
X111078390Y-91282287D01*
X111194607Y-91341503D01*
X111260776Y-91375218D01*
X111260778Y-91375218D01*
X111260781Y-91375220D01*
X111365137Y-91409127D01*
X111455465Y-91438477D01*
X111539564Y-91451797D01*
X111657648Y-91470500D01*
X111657649Y-91470500D01*
X111862351Y-91470500D01*
X111862352Y-91470500D01*
X112064534Y-91438477D01*
X112259219Y-91375220D01*
X112441610Y-91282287D01*
X112534590Y-91214732D01*
X112607213Y-91161971D01*
X112607215Y-91161968D01*
X112607219Y-91161966D01*
X112751966Y-91017219D01*
X112751968Y-91017215D01*
X112751971Y-91017213D01*
X112872284Y-90851614D01*
X112872285Y-90851613D01*
X112872287Y-90851610D01*
X112919516Y-90758917D01*
X112967489Y-90708123D01*
X113035310Y-90691328D01*
X113101445Y-90713865D01*
X113140485Y-90758919D01*
X113187715Y-90851614D01*
X113308028Y-91017213D01*
X113452786Y-91161971D01*
X113607749Y-91274556D01*
X113618390Y-91282287D01*
X113734607Y-91341503D01*
X113800776Y-91375218D01*
X113800778Y-91375218D01*
X113800781Y-91375220D01*
X113905137Y-91409127D01*
X113995465Y-91438477D01*
X114079564Y-91451797D01*
X114197648Y-91470500D01*
X114197649Y-91470500D01*
X114402351Y-91470500D01*
X114402352Y-91470500D01*
X114604534Y-91438477D01*
X114799219Y-91375220D01*
X114981610Y-91282287D01*
X115074590Y-91214732D01*
X115147213Y-91161971D01*
X115147215Y-91161968D01*
X115147219Y-91161966D01*
X115291966Y-91017219D01*
X115291968Y-91017215D01*
X115291971Y-91017213D01*
X115412284Y-90851614D01*
X115412285Y-90851613D01*
X115412287Y-90851610D01*
X115459516Y-90758917D01*
X115507489Y-90708123D01*
X115575310Y-90691328D01*
X115641445Y-90713865D01*
X115680485Y-90758919D01*
X115727715Y-90851614D01*
X115848028Y-91017213D01*
X115992786Y-91161971D01*
X116147749Y-91274556D01*
X116158390Y-91282287D01*
X116274607Y-91341503D01*
X116340776Y-91375218D01*
X116340778Y-91375218D01*
X116340781Y-91375220D01*
X116445137Y-91409127D01*
X116535465Y-91438477D01*
X116619564Y-91451797D01*
X116737648Y-91470500D01*
X116737649Y-91470500D01*
X116942351Y-91470500D01*
X116942352Y-91470500D01*
X117144534Y-91438477D01*
X117339219Y-91375220D01*
X117521610Y-91282287D01*
X117614590Y-91214732D01*
X117687213Y-91161971D01*
X117687215Y-91161968D01*
X117687219Y-91161966D01*
X117831966Y-91017219D01*
X117831968Y-91017215D01*
X117831971Y-91017213D01*
X117952284Y-90851614D01*
X117952285Y-90851613D01*
X117952287Y-90851610D01*
X117999516Y-90758917D01*
X118047489Y-90708123D01*
X118115310Y-90691328D01*
X118181445Y-90713865D01*
X118220485Y-90758919D01*
X118267715Y-90851614D01*
X118388028Y-91017213D01*
X118532786Y-91161971D01*
X118687749Y-91274556D01*
X118698390Y-91282287D01*
X118814607Y-91341503D01*
X118880776Y-91375218D01*
X118880778Y-91375218D01*
X118880781Y-91375220D01*
X118985137Y-91409127D01*
X119075465Y-91438477D01*
X119159564Y-91451797D01*
X119277648Y-91470500D01*
X119277649Y-91470500D01*
X119482351Y-91470500D01*
X119482352Y-91470500D01*
X119684534Y-91438477D01*
X119879219Y-91375220D01*
X120061610Y-91282287D01*
X120154590Y-91214732D01*
X120227213Y-91161971D01*
X120227215Y-91161968D01*
X120227219Y-91161966D01*
X120371966Y-91017219D01*
X120371968Y-91017215D01*
X120371971Y-91017213D01*
X120492284Y-90851614D01*
X120492285Y-90851613D01*
X120492287Y-90851610D01*
X120539516Y-90758917D01*
X120587489Y-90708123D01*
X120655310Y-90691328D01*
X120721445Y-90713865D01*
X120760485Y-90758919D01*
X120807715Y-90851614D01*
X120928028Y-91017213D01*
X121072786Y-91161971D01*
X121227749Y-91274556D01*
X121238390Y-91282287D01*
X121354607Y-91341503D01*
X121420776Y-91375218D01*
X121420778Y-91375218D01*
X121420781Y-91375220D01*
X121525137Y-91409127D01*
X121615465Y-91438477D01*
X121699564Y-91451797D01*
X121817648Y-91470500D01*
X121817649Y-91470500D01*
X122022351Y-91470500D01*
X122022352Y-91470500D01*
X122224534Y-91438477D01*
X122419219Y-91375220D01*
X122601610Y-91282287D01*
X122694590Y-91214732D01*
X122767213Y-91161971D01*
X122767215Y-91161968D01*
X122767219Y-91161966D01*
X122911966Y-91017219D01*
X122911968Y-91017215D01*
X122911971Y-91017213D01*
X123032284Y-90851614D01*
X123032285Y-90851613D01*
X123032287Y-90851610D01*
X123079516Y-90758917D01*
X123127489Y-90708123D01*
X123195310Y-90691328D01*
X123261445Y-90713865D01*
X123300485Y-90758919D01*
X123347715Y-90851614D01*
X123468028Y-91017213D01*
X123612786Y-91161971D01*
X123767749Y-91274556D01*
X123778390Y-91282287D01*
X123894607Y-91341503D01*
X123960776Y-91375218D01*
X123960778Y-91375218D01*
X123960781Y-91375220D01*
X124065137Y-91409127D01*
X124155465Y-91438477D01*
X124239564Y-91451797D01*
X124357648Y-91470500D01*
X124357649Y-91470500D01*
X124562351Y-91470500D01*
X124562352Y-91470500D01*
X124764534Y-91438477D01*
X124959219Y-91375220D01*
X125141610Y-91282287D01*
X125234590Y-91214732D01*
X125307213Y-91161971D01*
X125307215Y-91161968D01*
X125307219Y-91161966D01*
X125451966Y-91017219D01*
X125451968Y-91017215D01*
X125451971Y-91017213D01*
X125572284Y-90851614D01*
X125572285Y-90851613D01*
X125572287Y-90851610D01*
X125619516Y-90758917D01*
X125667489Y-90708123D01*
X125735310Y-90691328D01*
X125801445Y-90713865D01*
X125840485Y-90758919D01*
X125887715Y-90851614D01*
X126008028Y-91017213D01*
X126152786Y-91161971D01*
X126307749Y-91274556D01*
X126318390Y-91282287D01*
X126434607Y-91341503D01*
X126500776Y-91375218D01*
X126500778Y-91375218D01*
X126500781Y-91375220D01*
X126605137Y-91409127D01*
X126695465Y-91438477D01*
X126779564Y-91451797D01*
X126897648Y-91470500D01*
X126897649Y-91470500D01*
X127102351Y-91470500D01*
X127102352Y-91470500D01*
X127304534Y-91438477D01*
X127499219Y-91375220D01*
X127681610Y-91282287D01*
X127774590Y-91214732D01*
X127847213Y-91161971D01*
X127847215Y-91161968D01*
X127847219Y-91161966D01*
X127991966Y-91017219D01*
X127991968Y-91017215D01*
X127991971Y-91017213D01*
X128112284Y-90851614D01*
X128112285Y-90851613D01*
X128112287Y-90851610D01*
X128159516Y-90758917D01*
X128207489Y-90708123D01*
X128275310Y-90691328D01*
X128341445Y-90713865D01*
X128380485Y-90758919D01*
X128427715Y-90851614D01*
X128548028Y-91017213D01*
X128692786Y-91161971D01*
X128847749Y-91274556D01*
X128858390Y-91282287D01*
X128974607Y-91341503D01*
X129040776Y-91375218D01*
X129040778Y-91375218D01*
X129040781Y-91375220D01*
X129145137Y-91409127D01*
X129235465Y-91438477D01*
X129319564Y-91451797D01*
X129437648Y-91470500D01*
X129437649Y-91470500D01*
X129642351Y-91470500D01*
X129642352Y-91470500D01*
X129844534Y-91438477D01*
X130039219Y-91375220D01*
X130221610Y-91282287D01*
X130314590Y-91214732D01*
X130387213Y-91161971D01*
X130387215Y-91161968D01*
X130387219Y-91161966D01*
X130531966Y-91017219D01*
X130531968Y-91017215D01*
X130531971Y-91017213D01*
X130584732Y-90944590D01*
X130652287Y-90851610D01*
X130745220Y-90669219D01*
X130808477Y-90474534D01*
X130840500Y-90272352D01*
X130840500Y-90067648D01*
X130808477Y-89865466D01*
X130745220Y-89670781D01*
X130745218Y-89670778D01*
X130745218Y-89670776D01*
X130699515Y-89581080D01*
X130652287Y-89488390D01*
X130644556Y-89477749D01*
X130531971Y-89322786D01*
X130387213Y-89178028D01*
X130221613Y-89057715D01*
X130221612Y-89057714D01*
X130221610Y-89057713D01*
X130164653Y-89028691D01*
X130039223Y-88964781D01*
X129844534Y-88901522D01*
X129669995Y-88873878D01*
X129642352Y-88869500D01*
X129437648Y-88869500D01*
X129413329Y-88873351D01*
X129235465Y-88901522D01*
X129040776Y-88964781D01*
X128858386Y-89057715D01*
X128692786Y-89178028D01*
X128548028Y-89322786D01*
X128427715Y-89488386D01*
X128380485Y-89581080D01*
X128332510Y-89631876D01*
X128264689Y-89648671D01*
X128198554Y-89626134D01*
X128159515Y-89581080D01*
X128158883Y-89579840D01*
X128112287Y-89488390D01*
X128104556Y-89477749D01*
X127991971Y-89322786D01*
X127847213Y-89178028D01*
X127681613Y-89057715D01*
X127681612Y-89057714D01*
X127681610Y-89057713D01*
X127624653Y-89028691D01*
X127499223Y-88964781D01*
X127304534Y-88901522D01*
X127129995Y-88873878D01*
X127102352Y-88869500D01*
X126897648Y-88869500D01*
X126873329Y-88873351D01*
X126695465Y-88901522D01*
X126500776Y-88964781D01*
X126318386Y-89057715D01*
X126152786Y-89178028D01*
X126008028Y-89322786D01*
X125887715Y-89488386D01*
X125840485Y-89581080D01*
X125792510Y-89631876D01*
X125724689Y-89648671D01*
X125658554Y-89626134D01*
X125619515Y-89581080D01*
X125618883Y-89579840D01*
X125572287Y-89488390D01*
X125564556Y-89477749D01*
X125451971Y-89322786D01*
X125307213Y-89178028D01*
X125141613Y-89057715D01*
X125141612Y-89057714D01*
X125141610Y-89057713D01*
X125084653Y-89028691D01*
X124959223Y-88964781D01*
X124764534Y-88901522D01*
X124589995Y-88873878D01*
X124562352Y-88869500D01*
X124357648Y-88869500D01*
X124333329Y-88873351D01*
X124155465Y-88901522D01*
X123960776Y-88964781D01*
X123778386Y-89057715D01*
X123612786Y-89178028D01*
X123468028Y-89322786D01*
X123347715Y-89488386D01*
X123300485Y-89581080D01*
X123252510Y-89631876D01*
X123184689Y-89648671D01*
X123118554Y-89626134D01*
X123079515Y-89581080D01*
X123078883Y-89579840D01*
X123032287Y-89488390D01*
X123024556Y-89477749D01*
X122911971Y-89322786D01*
X122767213Y-89178028D01*
X122601613Y-89057715D01*
X122601612Y-89057714D01*
X122601610Y-89057713D01*
X122544653Y-89028691D01*
X122419223Y-88964781D01*
X122224534Y-88901522D01*
X122049995Y-88873878D01*
X122022352Y-88869500D01*
X121817648Y-88869500D01*
X121793329Y-88873351D01*
X121615465Y-88901522D01*
X121420776Y-88964781D01*
X121238386Y-89057715D01*
X121072786Y-89178028D01*
X120928028Y-89322786D01*
X120807715Y-89488386D01*
X120760485Y-89581080D01*
X120712510Y-89631876D01*
X120644689Y-89648671D01*
X120578554Y-89626134D01*
X120539515Y-89581080D01*
X120538883Y-89579840D01*
X120492287Y-89488390D01*
X120484556Y-89477749D01*
X120371971Y-89322786D01*
X120227213Y-89178028D01*
X120061613Y-89057715D01*
X120061612Y-89057714D01*
X120061610Y-89057713D01*
X120004653Y-89028691D01*
X119879223Y-88964781D01*
X119684534Y-88901522D01*
X119509995Y-88873878D01*
X119482352Y-88869500D01*
X119277648Y-88869500D01*
X119253329Y-88873351D01*
X119075465Y-88901522D01*
X118880776Y-88964781D01*
X118698386Y-89057715D01*
X118532786Y-89178028D01*
X118388028Y-89322786D01*
X118267715Y-89488386D01*
X118220485Y-89581080D01*
X118172510Y-89631876D01*
X118104689Y-89648671D01*
X118038554Y-89626134D01*
X117999515Y-89581080D01*
X117998883Y-89579840D01*
X117952287Y-89488390D01*
X117944556Y-89477749D01*
X117831971Y-89322786D01*
X117687213Y-89178028D01*
X117521613Y-89057715D01*
X117521612Y-89057714D01*
X117521610Y-89057713D01*
X117464653Y-89028691D01*
X117339223Y-88964781D01*
X117144534Y-88901522D01*
X116969995Y-88873878D01*
X116942352Y-88869500D01*
X116737648Y-88869500D01*
X116713329Y-88873351D01*
X116535465Y-88901522D01*
X116340776Y-88964781D01*
X116158386Y-89057715D01*
X115992786Y-89178028D01*
X115848028Y-89322786D01*
X115727715Y-89488386D01*
X115680485Y-89581080D01*
X115632510Y-89631876D01*
X115564689Y-89648671D01*
X115498554Y-89626134D01*
X115459515Y-89581080D01*
X115458883Y-89579840D01*
X115412287Y-89488390D01*
X115404556Y-89477749D01*
X115291971Y-89322786D01*
X115147213Y-89178028D01*
X114981613Y-89057715D01*
X114981612Y-89057714D01*
X114981610Y-89057713D01*
X114924653Y-89028691D01*
X114799223Y-88964781D01*
X114604534Y-88901522D01*
X114429995Y-88873878D01*
X114402352Y-88869500D01*
X114197648Y-88869500D01*
X114173329Y-88873351D01*
X113995465Y-88901522D01*
X113800776Y-88964781D01*
X113618386Y-89057715D01*
X113452786Y-89178028D01*
X113308028Y-89322786D01*
X113187715Y-89488386D01*
X113140485Y-89581080D01*
X113092510Y-89631876D01*
X113024689Y-89648671D01*
X112958554Y-89626134D01*
X112919515Y-89581080D01*
X112918883Y-89579840D01*
X112872287Y-89488390D01*
X112864556Y-89477749D01*
X112751971Y-89322786D01*
X112607213Y-89178028D01*
X112441613Y-89057715D01*
X112441612Y-89057714D01*
X112441610Y-89057713D01*
X112384653Y-89028691D01*
X112259223Y-88964781D01*
X112064534Y-88901522D01*
X111889995Y-88873878D01*
X111862352Y-88869500D01*
X111657648Y-88869500D01*
X111633329Y-88873351D01*
X111455465Y-88901522D01*
X111260776Y-88964781D01*
X111078386Y-89057715D01*
X110912786Y-89178028D01*
X110768028Y-89322786D01*
X110647715Y-89488386D01*
X110600485Y-89581080D01*
X110552510Y-89631876D01*
X110484689Y-89648671D01*
X110418554Y-89626134D01*
X110379515Y-89581080D01*
X110378883Y-89579840D01*
X110332287Y-89488390D01*
X110324556Y-89477749D01*
X110211971Y-89322786D01*
X110067213Y-89178028D01*
X109901613Y-89057715D01*
X109901612Y-89057714D01*
X109901610Y-89057713D01*
X109844653Y-89028691D01*
X109719223Y-88964781D01*
X109524534Y-88901522D01*
X109349995Y-88873878D01*
X109322352Y-88869500D01*
X109117648Y-88869500D01*
X109093329Y-88873351D01*
X108915465Y-88901522D01*
X108720776Y-88964781D01*
X108538386Y-89057715D01*
X108372786Y-89178028D01*
X108228028Y-89322786D01*
X108107715Y-89488386D01*
X108060485Y-89581080D01*
X108012510Y-89631876D01*
X107944689Y-89648671D01*
X107878554Y-89626134D01*
X107839515Y-89581080D01*
X107838883Y-89579840D01*
X107792287Y-89488390D01*
X107784556Y-89477749D01*
X107671971Y-89322786D01*
X107527213Y-89178028D01*
X107361613Y-89057715D01*
X107361612Y-89057714D01*
X107361610Y-89057713D01*
X107304653Y-89028691D01*
X107179223Y-88964781D01*
X106984534Y-88901522D01*
X106809995Y-88873878D01*
X106782352Y-88869500D01*
X106577648Y-88869500D01*
X106553329Y-88873351D01*
X106375465Y-88901522D01*
X106180776Y-88964781D01*
X105998386Y-89057715D01*
X105832786Y-89178028D01*
X105688028Y-89322786D01*
X105567715Y-89488386D01*
X105520485Y-89581080D01*
X105472510Y-89631876D01*
X105404689Y-89648671D01*
X105338554Y-89626134D01*
X105299515Y-89581080D01*
X105298883Y-89579840D01*
X105252287Y-89488390D01*
X105244556Y-89477749D01*
X105131971Y-89322786D01*
X104987213Y-89178028D01*
X104821613Y-89057715D01*
X104821612Y-89057714D01*
X104821610Y-89057713D01*
X104764653Y-89028691D01*
X104639223Y-88964781D01*
X104444534Y-88901522D01*
X104269995Y-88873878D01*
X104242352Y-88869500D01*
X104037648Y-88869500D01*
X104013329Y-88873351D01*
X103835465Y-88901522D01*
X103640776Y-88964781D01*
X103458386Y-89057715D01*
X103292786Y-89178028D01*
X103148028Y-89322786D01*
X103027715Y-89488386D01*
X102980485Y-89581080D01*
X102932510Y-89631876D01*
X102864689Y-89648671D01*
X102798554Y-89626134D01*
X102759515Y-89581080D01*
X102758883Y-89579840D01*
X102712287Y-89488390D01*
X102704556Y-89477749D01*
X102591971Y-89322786D01*
X102447213Y-89178028D01*
X102281613Y-89057715D01*
X102281612Y-89057714D01*
X102281610Y-89057713D01*
X102224653Y-89028691D01*
X102099223Y-88964781D01*
X101904534Y-88901522D01*
X101729995Y-88873878D01*
X101702352Y-88869500D01*
X101497648Y-88869500D01*
X101473329Y-88873351D01*
X101295465Y-88901522D01*
X101100776Y-88964781D01*
X100918386Y-89057715D01*
X100752786Y-89178028D01*
X100608028Y-89322786D01*
X100487715Y-89488386D01*
X100440485Y-89581080D01*
X100392510Y-89631876D01*
X100324689Y-89648671D01*
X100258554Y-89626134D01*
X100219515Y-89581080D01*
X100218883Y-89579840D01*
X100172287Y-89488390D01*
X100164556Y-89477749D01*
X100051971Y-89322786D01*
X99907213Y-89178028D01*
X99741613Y-89057715D01*
X99741612Y-89057714D01*
X99741610Y-89057713D01*
X99684653Y-89028691D01*
X99559223Y-88964781D01*
X99364534Y-88901522D01*
X99189995Y-88873878D01*
X99162352Y-88869500D01*
X98957648Y-88869500D01*
X98933329Y-88873351D01*
X98755465Y-88901522D01*
X98560776Y-88964781D01*
X98378386Y-89057715D01*
X98212786Y-89178028D01*
X98068028Y-89322786D01*
X97947715Y-89488386D01*
X97900485Y-89581080D01*
X97852510Y-89631876D01*
X97784689Y-89648671D01*
X97718554Y-89626134D01*
X97679515Y-89581080D01*
X97678883Y-89579840D01*
X97632287Y-89488390D01*
X97624556Y-89477749D01*
X97511971Y-89322786D01*
X97367213Y-89178028D01*
X97201613Y-89057715D01*
X97201612Y-89057714D01*
X97201610Y-89057713D01*
X97144653Y-89028691D01*
X97019223Y-88964781D01*
X96824534Y-88901522D01*
X96649995Y-88873878D01*
X96622352Y-88869500D01*
X96417648Y-88869500D01*
X96393329Y-88873351D01*
X96215465Y-88901522D01*
X96020776Y-88964781D01*
X95838386Y-89057715D01*
X95672786Y-89178028D01*
X95528028Y-89322786D01*
X95407715Y-89488386D01*
X95314781Y-89670776D01*
X95251522Y-89865465D01*
X95219500Y-90067648D01*
X64000500Y-90067648D01*
X64000500Y-86892648D01*
X92679500Y-86892648D01*
X92679500Y-87097351D01*
X92711522Y-87299534D01*
X92774781Y-87494223D01*
X92867715Y-87676613D01*
X92988028Y-87842213D01*
X93132786Y-87986971D01*
X93287749Y-88099556D01*
X93298390Y-88107287D01*
X93414607Y-88166503D01*
X93480776Y-88200218D01*
X93480778Y-88200218D01*
X93480781Y-88200220D01*
X93571856Y-88229812D01*
X93675465Y-88263477D01*
X93776557Y-88279488D01*
X93877648Y-88295500D01*
X93877649Y-88295500D01*
X94082351Y-88295500D01*
X94082352Y-88295500D01*
X94284534Y-88263477D01*
X94479219Y-88200220D01*
X94661610Y-88107287D01*
X94790482Y-88013657D01*
X94827213Y-87986971D01*
X94827215Y-87986968D01*
X94827219Y-87986966D01*
X94971966Y-87842219D01*
X94971968Y-87842215D01*
X94971971Y-87842213D01*
X95076892Y-87697799D01*
X95092287Y-87676610D01*
X95185220Y-87494219D01*
X95248477Y-87299534D01*
X95280500Y-87097352D01*
X95280500Y-86892648D01*
X95248477Y-86690466D01*
X95185220Y-86495781D01*
X95185218Y-86495778D01*
X95185218Y-86495776D01*
X95160940Y-86448129D01*
X95133861Y-86394983D01*
X100299500Y-86394983D01*
X100299500Y-87595001D01*
X100299501Y-87595018D01*
X100310000Y-87697796D01*
X100310001Y-87697799D01*
X100357856Y-87842213D01*
X100365186Y-87864334D01*
X100457288Y-88013656D01*
X100581344Y-88137712D01*
X100730666Y-88229814D01*
X100897203Y-88284999D01*
X100999991Y-88295500D01*
X102200008Y-88295499D01*
X102302797Y-88284999D01*
X102469334Y-88229814D01*
X102618656Y-88137712D01*
X102742712Y-88013656D01*
X102834814Y-87864334D01*
X102889999Y-87697797D01*
X102900500Y-87595009D01*
X102900499Y-86394992D01*
X102889999Y-86292203D01*
X102834814Y-86125666D01*
X102742712Y-85976344D01*
X102618656Y-85852288D01*
X102469334Y-85760186D01*
X102302797Y-85705001D01*
X102302795Y-85705000D01*
X102200010Y-85694500D01*
X100999998Y-85694500D01*
X100999981Y-85694501D01*
X100897203Y-85705000D01*
X100897200Y-85705001D01*
X100730668Y-85760185D01*
X100730663Y-85760187D01*
X100581342Y-85852289D01*
X100457289Y-85976342D01*
X100365187Y-86125663D01*
X100365186Y-86125666D01*
X100310001Y-86292203D01*
X100310001Y-86292204D01*
X100310000Y-86292204D01*
X100299500Y-86394983D01*
X95133861Y-86394983D01*
X95092284Y-86313385D01*
X94971971Y-86147786D01*
X94827213Y-86003028D01*
X94661613Y-85882715D01*
X94661612Y-85882714D01*
X94661610Y-85882713D01*
X94601898Y-85852288D01*
X94479223Y-85789781D01*
X94284534Y-85726522D01*
X94109995Y-85698878D01*
X94082352Y-85694500D01*
X93877648Y-85694500D01*
X93853329Y-85698351D01*
X93675465Y-85726522D01*
X93480776Y-85789781D01*
X93298386Y-85882715D01*
X93132786Y-86003028D01*
X92988028Y-86147786D01*
X92867715Y-86313386D01*
X92774781Y-86495776D01*
X92711522Y-86690465D01*
X92679500Y-86892648D01*
X64000500Y-86892648D01*
X64000500Y-82471153D01*
X102704500Y-82471153D01*
X102704500Y-82628846D01*
X102735261Y-82783489D01*
X102735264Y-82783501D01*
X102795602Y-82929172D01*
X102795609Y-82929184D01*
X102858602Y-83023459D01*
X102879480Y-83090136D01*
X102879500Y-83092350D01*
X102879500Y-84547650D01*
X102859815Y-84614689D01*
X102858602Y-84616541D01*
X102795609Y-84710815D01*
X102795602Y-84710828D01*
X102735264Y-84856498D01*
X102735261Y-84856510D01*
X102704500Y-85011153D01*
X102704500Y-85168846D01*
X102735261Y-85323489D01*
X102735264Y-85323501D01*
X102795602Y-85469172D01*
X102795609Y-85469185D01*
X102883210Y-85600288D01*
X102883213Y-85600292D01*
X102994707Y-85711786D01*
X102994711Y-85711789D01*
X103125814Y-85799390D01*
X103125827Y-85799397D01*
X103271498Y-85859735D01*
X103271503Y-85859737D01*
X103426153Y-85890499D01*
X103426156Y-85890500D01*
X103426158Y-85890500D01*
X103583844Y-85890500D01*
X103583845Y-85890499D01*
X103738497Y-85859737D01*
X103884179Y-85799394D01*
X104015289Y-85711789D01*
X104126789Y-85600289D01*
X104214394Y-85469179D01*
X104274737Y-85323497D01*
X104305500Y-85168842D01*
X104305500Y-85011158D01*
X104305500Y-85011155D01*
X104305499Y-85011153D01*
X104274738Y-84856510D01*
X104274737Y-84856503D01*
X104214394Y-84710821D01*
X104151397Y-84616539D01*
X104130520Y-84549863D01*
X104130500Y-84547650D01*
X104130500Y-83092350D01*
X104150185Y-83025311D01*
X104151398Y-83023459D01*
X104151809Y-83022843D01*
X104214394Y-82929179D01*
X104274737Y-82783497D01*
X104305500Y-82628842D01*
X104305500Y-82471158D01*
X104305500Y-82471155D01*
X104305499Y-82471153D01*
X104274738Y-82316510D01*
X104274737Y-82316503D01*
X104274735Y-82316498D01*
X104214397Y-82170827D01*
X104214390Y-82170814D01*
X104126789Y-82039711D01*
X104126786Y-82039707D01*
X104015292Y-81928213D01*
X104015288Y-81928210D01*
X103884185Y-81840609D01*
X103884172Y-81840602D01*
X103738501Y-81780264D01*
X103738489Y-81780261D01*
X103583845Y-81749500D01*
X103583842Y-81749500D01*
X103426158Y-81749500D01*
X103426155Y-81749500D01*
X103271510Y-81780261D01*
X103271498Y-81780264D01*
X103125827Y-81840602D01*
X103125814Y-81840609D01*
X102994711Y-81928210D01*
X102994707Y-81928213D01*
X102883213Y-82039707D01*
X102883210Y-82039711D01*
X102795609Y-82170814D01*
X102795602Y-82170827D01*
X102735264Y-82316498D01*
X102735261Y-82316510D01*
X102704500Y-82471153D01*
X64000500Y-82471153D01*
X64000500Y-78661153D01*
X89369500Y-78661153D01*
X89369500Y-78818846D01*
X89400261Y-78973489D01*
X89400264Y-78973501D01*
X89460602Y-79119172D01*
X89460609Y-79119185D01*
X89548210Y-79250288D01*
X89548213Y-79250292D01*
X89659707Y-79361786D01*
X89659711Y-79361789D01*
X89790814Y-79449390D01*
X89790827Y-79449397D01*
X89936498Y-79509735D01*
X89936503Y-79509737D01*
X90091153Y-79540499D01*
X90091156Y-79540500D01*
X90091158Y-79540500D01*
X90248844Y-79540500D01*
X90248845Y-79540499D01*
X90403497Y-79509737D01*
X90549179Y-79449394D01*
X90680289Y-79361789D01*
X90791789Y-79250289D01*
X90879394Y-79119179D01*
X90939737Y-78973497D01*
X90961858Y-78862282D01*
X90970623Y-78845525D01*
X90974644Y-78827046D01*
X90993379Y-78802019D01*
X90994240Y-78800375D01*
X90995706Y-78798883D01*
X91027774Y-78766815D01*
X91089098Y-78733333D01*
X91115452Y-78730500D01*
X92771607Y-78730500D01*
X92832029Y-78718481D01*
X92892452Y-78706463D01*
X92925792Y-78692652D01*
X93006286Y-78659312D01*
X93057509Y-78625084D01*
X93108733Y-78590858D01*
X93195858Y-78503733D01*
X93195858Y-78503731D01*
X93206066Y-78493524D01*
X93206068Y-78493521D01*
X93403797Y-78295791D01*
X93465118Y-78262308D01*
X93467128Y-78261889D01*
X93578497Y-78239737D01*
X93724179Y-78179394D01*
X93855289Y-78091789D01*
X93966789Y-77980289D01*
X94054394Y-77849179D01*
X94114737Y-77703497D01*
X94145500Y-77548842D01*
X94145500Y-77391158D01*
X94145500Y-77391155D01*
X94145499Y-77391153D01*
X94114738Y-77236510D01*
X94114738Y-77236508D01*
X94114737Y-77236503D01*
X94105487Y-77214172D01*
X94054397Y-77090827D01*
X94054390Y-77090814D01*
X93966789Y-76959711D01*
X93966786Y-76959707D01*
X93855292Y-76848213D01*
X93855288Y-76848210D01*
X93724185Y-76760609D01*
X93724172Y-76760602D01*
X93578501Y-76700264D01*
X93578489Y-76700261D01*
X93423845Y-76669500D01*
X93423842Y-76669500D01*
X93266158Y-76669500D01*
X93266155Y-76669500D01*
X93111510Y-76700261D01*
X93111498Y-76700264D01*
X92965827Y-76760602D01*
X92965814Y-76760609D01*
X92834711Y-76848210D01*
X92834707Y-76848213D01*
X92723213Y-76959707D01*
X92723210Y-76959711D01*
X92635609Y-77090814D01*
X92635602Y-77090827D01*
X92575264Y-77236498D01*
X92575261Y-77236508D01*
X92553141Y-77347713D01*
X92544376Y-77364467D01*
X92540358Y-77382944D01*
X92521612Y-77407987D01*
X92520756Y-77409624D01*
X92519208Y-77411199D01*
X92487231Y-77443178D01*
X92425909Y-77476665D01*
X92399547Y-77479500D01*
X90872741Y-77479500D01*
X90872721Y-77479499D01*
X90866607Y-77479499D01*
X90743394Y-77479499D01*
X90642597Y-77499548D01*
X90642592Y-77499548D01*
X90622549Y-77503536D01*
X90622547Y-77503536D01*
X90575397Y-77523067D01*
X90508719Y-77550685D01*
X90508717Y-77550686D01*
X90406266Y-77619141D01*
X90406263Y-77619144D01*
X90111203Y-77914205D01*
X90049880Y-77947690D01*
X90047714Y-77948141D01*
X89936508Y-77970261D01*
X89936498Y-77970264D01*
X89790827Y-78030602D01*
X89790814Y-78030609D01*
X89659711Y-78118210D01*
X89659707Y-78118213D01*
X89548213Y-78229707D01*
X89548210Y-78229711D01*
X89460609Y-78360814D01*
X89460602Y-78360827D01*
X89400264Y-78506498D01*
X89400261Y-78506510D01*
X89369500Y-78661153D01*
X64000500Y-78661153D01*
X64000500Y-64124500D01*
X64020185Y-64057461D01*
X64072989Y-64011706D01*
X64124500Y-64000500D01*
X123798059Y-64000500D01*
X123865098Y-64020185D01*
G37*
%TD.AperFunction*%
%TA.AperFunction,Conductor*%
G36*
X90015270Y-68616717D02*
G01*
X90015270Y-68616716D01*
X90054622Y-68562555D01*
X90059232Y-68553507D01*
X90107205Y-68502709D01*
X90175025Y-68485912D01*
X90241161Y-68508447D01*
X90280204Y-68553504D01*
X90284949Y-68562817D01*
X90409890Y-68734786D01*
X90560213Y-68885109D01*
X90732182Y-69010050D01*
X90740946Y-69014516D01*
X90791742Y-69062491D01*
X90808536Y-69130312D01*
X90785998Y-69196447D01*
X90740946Y-69235484D01*
X90732182Y-69239949D01*
X90560215Y-69364889D01*
X90446285Y-69478819D01*
X90384962Y-69512303D01*
X90315270Y-69507319D01*
X90259337Y-69465447D01*
X90242422Y-69434470D01*
X90193354Y-69302913D01*
X90193350Y-69302906D01*
X90107190Y-69187812D01*
X90107187Y-69187809D01*
X89992093Y-69101649D01*
X89992086Y-69101645D01*
X89857380Y-69051403D01*
X89857373Y-69051401D01*
X89774555Y-69042497D01*
X89774884Y-69039431D01*
X89757875Y-69040330D01*
X89698803Y-69007356D01*
X89029408Y-68337962D01*
X89092993Y-68320925D01*
X89207007Y-68255099D01*
X89300099Y-68162007D01*
X89365925Y-68047993D01*
X89382962Y-67984409D01*
X90015270Y-68616717D01*
G37*
%TD.AperFunction*%
%TD*%
D27*
X103505000Y-82550000D03*
X104140000Y-76835000D03*
X103505000Y-85090000D03*
X104140000Y-74295000D03*
X90170000Y-78740000D03*
X93345000Y-77470000D03*
X124460000Y-64770000D03*
D28*
X84455000Y-110490000D03*
X84455000Y-74930000D03*
D27*
X123190000Y-114935000D03*
X125730000Y-114935000D03*
D28*
X109260000Y-130319000D03*
X114260000Y-130319000D03*
X121920000Y-134129000D03*
X116920000Y-134129000D03*
X144780000Y-123825000D03*
X147320000Y-123825000D03*
X139065000Y-123825000D03*
X141605000Y-123825000D03*
X140335000Y-116840000D03*
X137795000Y-116840000D03*
X88900000Y-67855000D03*
X91440000Y-67855000D03*
X93980000Y-67855000D03*
X96520000Y-67855000D03*
X99060000Y-67855000D03*
X101600000Y-67855000D03*
X104140000Y-67855000D03*
X106680000Y-67855000D03*
X109220000Y-67855000D03*
X111760000Y-67855000D03*
X114300000Y-67855000D03*
X116840000Y-67855000D03*
X119380000Y-67855000D03*
X121920000Y-67855000D03*
X124460000Y-67855000D03*
X127000000Y-67855000D03*
X129540000Y-67855000D03*
X132080000Y-67855000D03*
X134620000Y-67855000D03*
X137160000Y-67855000D03*
X137160000Y-70395000D03*
X134620000Y-70395000D03*
X132080000Y-70395000D03*
X129540000Y-70395000D03*
X127000000Y-70395000D03*
X124460000Y-70395000D03*
X121920000Y-70395000D03*
X119380000Y-70395000D03*
X116840000Y-70395000D03*
X114300000Y-70395000D03*
X111760000Y-70395000D03*
X109220000Y-70395000D03*
X106680000Y-70395000D03*
X104140000Y-70395000D03*
X101600000Y-70395000D03*
X99060000Y-70395000D03*
X96520000Y-70395000D03*
X93980000Y-70395000D03*
X91440000Y-70395000D03*
X88900000Y-70395000D03*
X139015000Y-127000000D03*
X141555000Y-127000000D03*
X101600000Y-86995000D03*
X93980000Y-86995000D03*
X119380000Y-130319000D03*
X124380000Y-130319000D03*
X111760000Y-113030000D03*
X106860000Y-113030000D03*
X96520000Y-105410000D03*
X99060000Y-105410000D03*
X101600000Y-105410000D03*
X104140000Y-105410000D03*
X106680000Y-105410000D03*
X109220000Y-105410000D03*
X111760000Y-105410000D03*
X114300000Y-105410000D03*
X116840000Y-105410000D03*
X119380000Y-105410000D03*
X121920000Y-105410000D03*
X124460000Y-105410000D03*
X127000000Y-105410000D03*
X129540000Y-105410000D03*
X129540000Y-90170000D03*
X127000000Y-90170000D03*
X124460000Y-90170000D03*
X121920000Y-90170000D03*
X119380000Y-90170000D03*
X116840000Y-90170000D03*
X114300000Y-90170000D03*
X111760000Y-90170000D03*
X109220000Y-90170000D03*
X106680000Y-90170000D03*
X104140000Y-90170000D03*
X101600000Y-90170000D03*
X99060000Y-90170000D03*
X96520000Y-90170000D03*
X111760000Y-118110000D03*
X106760000Y-118110000D03*
X121920000Y-149329000D03*
X116920000Y-149329000D03*
X144730000Y-127000000D03*
X147270000Y-127000000D03*
X121920000Y-137939000D03*
X119380000Y-137939000D03*
X116840000Y-137939000D03*
X114300000Y-137939000D03*
X111760000Y-137939000D03*
X109220000Y-137939000D03*
X106680000Y-137939000D03*
X104140000Y-137939000D03*
X104140000Y-145559000D03*
X106680000Y-145559000D03*
X109220000Y-145559000D03*
X111760000Y-145559000D03*
X114300000Y-145559000D03*
X116840000Y-145559000D03*
X119380000Y-145559000D03*
X121920000Y-145559000D03*
X100730000Y-156989000D03*
X125730000Y-156989000D03*
X107690000Y-154149000D03*
X110460000Y-154149000D03*
X113230000Y-154149000D03*
X116000000Y-154149000D03*
X118770000Y-154149000D03*
X109075000Y-156989000D03*
X111845000Y-156989000D03*
X114615000Y-156989000D03*
X117385000Y-156989000D03*
X109270000Y-108535000D03*
X111810000Y-108535000D03*
X146000000Y-116840000D03*
X143460000Y-116840000D03*
X114300000Y-134129000D03*
X109300000Y-134129000D03*
X133350000Y-90170000D03*
X133350000Y-95170000D03*
M02*
