%TF.GenerationSoftware,KiCad,Pcbnew,9.0.2+dfsg-1*%
%TF.CreationDate,2026-09-13T22:14:18+02:00*%
%TF.ProjectId,acia-card,61636961-2d63-4617-9264-2e6b69636164,rev?*%
%TF.SameCoordinates,Original*%
%TF.FileFunction,Legend,Top*%
%TF.FilePolarity,Positive*%
%FSLAX46Y46*%
G04 Gerber Fmt 4.6, Leading zero omitted, Abs format (unit mm)*
G04 Created by KiCad (PCBNEW 9.0.2+dfsg-1) date 2026-09-13 22:14:18*
%MOMM*%
%LPD*%
G01*
G04 APERTURE LIST*
%ADD10C,0.500000*%
%ADD11C,0.150000*%
%ADD12C,0.120000*%
%ADD13C,0.350000*%
G04 APERTURE END LIST*
D10*
X147772857Y-68386142D02*
X147630000Y-68529000D01*
X147630000Y-68529000D02*
X147201428Y-68671857D01*
X147201428Y-68671857D02*
X146915714Y-68671857D01*
X146915714Y-68671857D02*
X146487143Y-68529000D01*
X146487143Y-68529000D02*
X146201428Y-68243285D01*
X146201428Y-68243285D02*
X146058571Y-67957571D01*
X146058571Y-67957571D02*
X145915714Y-67386142D01*
X145915714Y-67386142D02*
X145915714Y-66957571D01*
X145915714Y-66957571D02*
X146058571Y-66386142D01*
X146058571Y-66386142D02*
X146201428Y-66100428D01*
X146201428Y-66100428D02*
X146487143Y-65814714D01*
X146487143Y-65814714D02*
X146915714Y-65671857D01*
X146915714Y-65671857D02*
X147201428Y-65671857D01*
X147201428Y-65671857D02*
X147630000Y-65814714D01*
X147630000Y-65814714D02*
X147772857Y-65957571D01*
X148915714Y-67814714D02*
X150344286Y-67814714D01*
X148630000Y-68671857D02*
X149630000Y-65671857D01*
X149630000Y-65671857D02*
X150630000Y-68671857D01*
X153344286Y-68671857D02*
X152344286Y-67243285D01*
X151630000Y-68671857D02*
X151630000Y-65671857D01*
X151630000Y-65671857D02*
X152772857Y-65671857D01*
X152772857Y-65671857D02*
X153058572Y-65814714D01*
X153058572Y-65814714D02*
X153201429Y-65957571D01*
X153201429Y-65957571D02*
X153344286Y-66243285D01*
X153344286Y-66243285D02*
X153344286Y-66671857D01*
X153344286Y-66671857D02*
X153201429Y-66957571D01*
X153201429Y-66957571D02*
X153058572Y-67100428D01*
X153058572Y-67100428D02*
X152772857Y-67243285D01*
X152772857Y-67243285D02*
X151630000Y-67243285D01*
X154630000Y-68671857D02*
X154630000Y-65671857D01*
X154630000Y-65671857D02*
X155344286Y-65671857D01*
X155344286Y-65671857D02*
X155772857Y-65814714D01*
X155772857Y-65814714D02*
X156058572Y-66100428D01*
X156058572Y-66100428D02*
X156201429Y-66386142D01*
X156201429Y-66386142D02*
X156344286Y-66957571D01*
X156344286Y-66957571D02*
X156344286Y-67386142D01*
X156344286Y-67386142D02*
X156201429Y-67957571D01*
X156201429Y-67957571D02*
X156058572Y-68243285D01*
X156058572Y-68243285D02*
X155772857Y-68529000D01*
X155772857Y-68529000D02*
X155344286Y-68671857D01*
X155344286Y-68671857D02*
X154630000Y-68671857D01*
X145550000Y-132806857D02*
X144550000Y-131378285D01*
X143835714Y-132806857D02*
X143835714Y-129806857D01*
X143835714Y-129806857D02*
X144978571Y-129806857D01*
X144978571Y-129806857D02*
X145264286Y-129949714D01*
X145264286Y-129949714D02*
X145407143Y-130092571D01*
X145407143Y-130092571D02*
X145550000Y-130378285D01*
X145550000Y-130378285D02*
X145550000Y-130806857D01*
X145550000Y-130806857D02*
X145407143Y-131092571D01*
X145407143Y-131092571D02*
X145264286Y-131235428D01*
X145264286Y-131235428D02*
X144978571Y-131378285D01*
X144978571Y-131378285D02*
X143835714Y-131378285D01*
X146550000Y-129806857D02*
X148550000Y-132806857D01*
X148550000Y-129806857D02*
X146550000Y-132806857D01*
X137414286Y-129806857D02*
X139128572Y-129806857D01*
X138271429Y-132806857D02*
X138271429Y-129806857D01*
X139842857Y-129806857D02*
X141842857Y-132806857D01*
X141842857Y-129806857D02*
X139842857Y-132806857D01*
X133057142Y-158841857D02*
X132057142Y-157413285D01*
X131342856Y-158841857D02*
X131342856Y-155841857D01*
X131342856Y-155841857D02*
X132485713Y-155841857D01*
X132485713Y-155841857D02*
X132771428Y-155984714D01*
X132771428Y-155984714D02*
X132914285Y-156127571D01*
X132914285Y-156127571D02*
X133057142Y-156413285D01*
X133057142Y-156413285D02*
X133057142Y-156841857D01*
X133057142Y-156841857D02*
X132914285Y-157127571D01*
X132914285Y-157127571D02*
X132771428Y-157270428D01*
X132771428Y-157270428D02*
X132485713Y-157413285D01*
X132485713Y-157413285D02*
X131342856Y-157413285D01*
X134199999Y-158699000D02*
X134628571Y-158841857D01*
X134628571Y-158841857D02*
X135342856Y-158841857D01*
X135342856Y-158841857D02*
X135628571Y-158699000D01*
X135628571Y-158699000D02*
X135771428Y-158556142D01*
X135771428Y-158556142D02*
X135914285Y-158270428D01*
X135914285Y-158270428D02*
X135914285Y-157984714D01*
X135914285Y-157984714D02*
X135771428Y-157699000D01*
X135771428Y-157699000D02*
X135628571Y-157556142D01*
X135628571Y-157556142D02*
X135342856Y-157413285D01*
X135342856Y-157413285D02*
X134771428Y-157270428D01*
X134771428Y-157270428D02*
X134485713Y-157127571D01*
X134485713Y-157127571D02*
X134342856Y-156984714D01*
X134342856Y-156984714D02*
X134199999Y-156699000D01*
X134199999Y-156699000D02*
X134199999Y-156413285D01*
X134199999Y-156413285D02*
X134342856Y-156127571D01*
X134342856Y-156127571D02*
X134485713Y-155984714D01*
X134485713Y-155984714D02*
X134771428Y-155841857D01*
X134771428Y-155841857D02*
X135485713Y-155841857D01*
X135485713Y-155841857D02*
X135914285Y-155984714D01*
X137199999Y-157699000D02*
X139485714Y-157699000D01*
X140771428Y-156127571D02*
X140914285Y-155984714D01*
X140914285Y-155984714D02*
X141200000Y-155841857D01*
X141200000Y-155841857D02*
X141914285Y-155841857D01*
X141914285Y-155841857D02*
X142200000Y-155984714D01*
X142200000Y-155984714D02*
X142342857Y-156127571D01*
X142342857Y-156127571D02*
X142485714Y-156413285D01*
X142485714Y-156413285D02*
X142485714Y-156699000D01*
X142485714Y-156699000D02*
X142342857Y-157127571D01*
X142342857Y-157127571D02*
X140628571Y-158841857D01*
X140628571Y-158841857D02*
X142485714Y-158841857D01*
X143485714Y-155841857D02*
X145342857Y-155841857D01*
X145342857Y-155841857D02*
X144342857Y-156984714D01*
X144342857Y-156984714D02*
X144771428Y-156984714D01*
X144771428Y-156984714D02*
X145057143Y-157127571D01*
X145057143Y-157127571D02*
X145200000Y-157270428D01*
X145200000Y-157270428D02*
X145342857Y-157556142D01*
X145342857Y-157556142D02*
X145342857Y-158270428D01*
X145342857Y-158270428D02*
X145200000Y-158556142D01*
X145200000Y-158556142D02*
X145057143Y-158699000D01*
X145057143Y-158699000D02*
X144771428Y-158841857D01*
X144771428Y-158841857D02*
X143914285Y-158841857D01*
X143914285Y-158841857D02*
X143628571Y-158699000D01*
X143628571Y-158699000D02*
X143485714Y-158556142D01*
X146485714Y-156127571D02*
X146628571Y-155984714D01*
X146628571Y-155984714D02*
X146914286Y-155841857D01*
X146914286Y-155841857D02*
X147628571Y-155841857D01*
X147628571Y-155841857D02*
X147914286Y-155984714D01*
X147914286Y-155984714D02*
X148057143Y-156127571D01*
X148057143Y-156127571D02*
X148200000Y-156413285D01*
X148200000Y-156413285D02*
X148200000Y-156699000D01*
X148200000Y-156699000D02*
X148057143Y-157127571D01*
X148057143Y-157127571D02*
X146342857Y-158841857D01*
X146342857Y-158841857D02*
X148200000Y-158841857D01*
X76979047Y-157617333D02*
X78502857Y-157617333D01*
X77740952Y-158379238D02*
X77740952Y-156855428D01*
X80407618Y-156379238D02*
X79455237Y-156379238D01*
X79455237Y-156379238D02*
X79359999Y-157331619D01*
X79359999Y-157331619D02*
X79455237Y-157236380D01*
X79455237Y-157236380D02*
X79645713Y-157141142D01*
X79645713Y-157141142D02*
X80121904Y-157141142D01*
X80121904Y-157141142D02*
X80312380Y-157236380D01*
X80312380Y-157236380D02*
X80407618Y-157331619D01*
X80407618Y-157331619D02*
X80502856Y-157522095D01*
X80502856Y-157522095D02*
X80502856Y-157998285D01*
X80502856Y-157998285D02*
X80407618Y-158188761D01*
X80407618Y-158188761D02*
X80312380Y-158284000D01*
X80312380Y-158284000D02*
X80121904Y-158379238D01*
X80121904Y-158379238D02*
X79645713Y-158379238D01*
X79645713Y-158379238D02*
X79455237Y-158284000D01*
X79455237Y-158284000D02*
X79359999Y-158188761D01*
X81074285Y-156379238D02*
X81740951Y-158379238D01*
X81740951Y-158379238D02*
X82407618Y-156379238D01*
X84883809Y-158379238D02*
X84693333Y-158284000D01*
X84693333Y-158284000D02*
X84598095Y-158188761D01*
X84598095Y-158188761D02*
X84502857Y-157998285D01*
X84502857Y-157998285D02*
X84502857Y-157426857D01*
X84502857Y-157426857D02*
X84598095Y-157236380D01*
X84598095Y-157236380D02*
X84693333Y-157141142D01*
X84693333Y-157141142D02*
X84883809Y-157045904D01*
X84883809Y-157045904D02*
X85169524Y-157045904D01*
X85169524Y-157045904D02*
X85360000Y-157141142D01*
X85360000Y-157141142D02*
X85455238Y-157236380D01*
X85455238Y-157236380D02*
X85550476Y-157426857D01*
X85550476Y-157426857D02*
X85550476Y-157998285D01*
X85550476Y-157998285D02*
X85455238Y-158188761D01*
X85455238Y-158188761D02*
X85360000Y-158284000D01*
X85360000Y-158284000D02*
X85169524Y-158379238D01*
X85169524Y-158379238D02*
X84883809Y-158379238D01*
X86407619Y-157045904D02*
X86407619Y-158379238D01*
X86407619Y-157236380D02*
X86502857Y-157141142D01*
X86502857Y-157141142D02*
X86693333Y-157045904D01*
X86693333Y-157045904D02*
X86979048Y-157045904D01*
X86979048Y-157045904D02*
X87169524Y-157141142D01*
X87169524Y-157141142D02*
X87264762Y-157331619D01*
X87264762Y-157331619D02*
X87264762Y-158379238D01*
X90883810Y-158379238D02*
X90217143Y-157426857D01*
X89740953Y-158379238D02*
X89740953Y-156379238D01*
X89740953Y-156379238D02*
X90502858Y-156379238D01*
X90502858Y-156379238D02*
X90693334Y-156474476D01*
X90693334Y-156474476D02*
X90788572Y-156569714D01*
X90788572Y-156569714D02*
X90883810Y-156760190D01*
X90883810Y-156760190D02*
X90883810Y-157045904D01*
X90883810Y-157045904D02*
X90788572Y-157236380D01*
X90788572Y-157236380D02*
X90693334Y-157331619D01*
X90693334Y-157331619D02*
X90502858Y-157426857D01*
X90502858Y-157426857D02*
X89740953Y-157426857D01*
X91740953Y-158379238D02*
X91740953Y-156379238D01*
X94121905Y-156284000D02*
X92407620Y-158855428D01*
X94883810Y-158379238D02*
X95264762Y-158379238D01*
X95264762Y-158379238D02*
X95455239Y-158284000D01*
X95455239Y-158284000D02*
X95550477Y-158188761D01*
X95550477Y-158188761D02*
X95740953Y-157903047D01*
X95740953Y-157903047D02*
X95836191Y-157522095D01*
X95836191Y-157522095D02*
X95836191Y-156760190D01*
X95836191Y-156760190D02*
X95740953Y-156569714D01*
X95740953Y-156569714D02*
X95645715Y-156474476D01*
X95645715Y-156474476D02*
X95455239Y-156379238D01*
X95455239Y-156379238D02*
X95074286Y-156379238D01*
X95074286Y-156379238D02*
X94883810Y-156474476D01*
X94883810Y-156474476D02*
X94788572Y-156569714D01*
X94788572Y-156569714D02*
X94693334Y-156760190D01*
X94693334Y-156760190D02*
X94693334Y-157236380D01*
X94693334Y-157236380D02*
X94788572Y-157426857D01*
X94788572Y-157426857D02*
X94883810Y-157522095D01*
X94883810Y-157522095D02*
X95074286Y-157617333D01*
X95074286Y-157617333D02*
X95455239Y-157617333D01*
X95455239Y-157617333D02*
X95645715Y-157522095D01*
X95645715Y-157522095D02*
X95740953Y-157426857D01*
X95740953Y-157426857D02*
X95836191Y-157236380D01*
X71350714Y-67814714D02*
X72779286Y-67814714D01*
X71065000Y-68671857D02*
X72065000Y-65671857D01*
X72065000Y-65671857D02*
X73065000Y-68671857D01*
X75779286Y-68386142D02*
X75636429Y-68529000D01*
X75636429Y-68529000D02*
X75207857Y-68671857D01*
X75207857Y-68671857D02*
X74922143Y-68671857D01*
X74922143Y-68671857D02*
X74493572Y-68529000D01*
X74493572Y-68529000D02*
X74207857Y-68243285D01*
X74207857Y-68243285D02*
X74065000Y-67957571D01*
X74065000Y-67957571D02*
X73922143Y-67386142D01*
X73922143Y-67386142D02*
X73922143Y-66957571D01*
X73922143Y-66957571D02*
X74065000Y-66386142D01*
X74065000Y-66386142D02*
X74207857Y-66100428D01*
X74207857Y-66100428D02*
X74493572Y-65814714D01*
X74493572Y-65814714D02*
X74922143Y-65671857D01*
X74922143Y-65671857D02*
X75207857Y-65671857D01*
X75207857Y-65671857D02*
X75636429Y-65814714D01*
X75636429Y-65814714D02*
X75779286Y-65957571D01*
X77065000Y-68671857D02*
X77065000Y-65671857D01*
X78350714Y-67814714D02*
X79779286Y-67814714D01*
X78065000Y-68671857D02*
X79065000Y-65671857D01*
X79065000Y-65671857D02*
X80065000Y-68671857D01*
D11*
X106513333Y-130678580D02*
X106465714Y-130726200D01*
X106465714Y-130726200D02*
X106322857Y-130773819D01*
X106322857Y-130773819D02*
X106227619Y-130773819D01*
X106227619Y-130773819D02*
X106084762Y-130726200D01*
X106084762Y-130726200D02*
X105989524Y-130630961D01*
X105989524Y-130630961D02*
X105941905Y-130535723D01*
X105941905Y-130535723D02*
X105894286Y-130345247D01*
X105894286Y-130345247D02*
X105894286Y-130202390D01*
X105894286Y-130202390D02*
X105941905Y-130011914D01*
X105941905Y-130011914D02*
X105989524Y-129916676D01*
X105989524Y-129916676D02*
X106084762Y-129821438D01*
X106084762Y-129821438D02*
X106227619Y-129773819D01*
X106227619Y-129773819D02*
X106322857Y-129773819D01*
X106322857Y-129773819D02*
X106465714Y-129821438D01*
X106465714Y-129821438D02*
X106513333Y-129869057D01*
X106846667Y-129773819D02*
X107513333Y-129773819D01*
X107513333Y-129773819D02*
X107084762Y-130773819D01*
X124293333Y-134488580D02*
X124245714Y-134536200D01*
X124245714Y-134536200D02*
X124102857Y-134583819D01*
X124102857Y-134583819D02*
X124007619Y-134583819D01*
X124007619Y-134583819D02*
X123864762Y-134536200D01*
X123864762Y-134536200D02*
X123769524Y-134440961D01*
X123769524Y-134440961D02*
X123721905Y-134345723D01*
X123721905Y-134345723D02*
X123674286Y-134155247D01*
X123674286Y-134155247D02*
X123674286Y-134012390D01*
X123674286Y-134012390D02*
X123721905Y-133821914D01*
X123721905Y-133821914D02*
X123769524Y-133726676D01*
X123769524Y-133726676D02*
X123864762Y-133631438D01*
X123864762Y-133631438D02*
X124007619Y-133583819D01*
X124007619Y-133583819D02*
X124102857Y-133583819D01*
X124102857Y-133583819D02*
X124245714Y-133631438D01*
X124245714Y-133631438D02*
X124293333Y-133679057D01*
X124674286Y-133679057D02*
X124721905Y-133631438D01*
X124721905Y-133631438D02*
X124817143Y-133583819D01*
X124817143Y-133583819D02*
X125055238Y-133583819D01*
X125055238Y-133583819D02*
X125150476Y-133631438D01*
X125150476Y-133631438D02*
X125198095Y-133679057D01*
X125198095Y-133679057D02*
X125245714Y-133774295D01*
X125245714Y-133774295D02*
X125245714Y-133869533D01*
X125245714Y-133869533D02*
X125198095Y-134012390D01*
X125198095Y-134012390D02*
X124626667Y-134583819D01*
X124626667Y-134583819D02*
X125245714Y-134583819D01*
X147103333Y-122374819D02*
X146770000Y-121898628D01*
X146531905Y-122374819D02*
X146531905Y-121374819D01*
X146531905Y-121374819D02*
X146912857Y-121374819D01*
X146912857Y-121374819D02*
X147008095Y-121422438D01*
X147008095Y-121422438D02*
X147055714Y-121470057D01*
X147055714Y-121470057D02*
X147103333Y-121565295D01*
X147103333Y-121565295D02*
X147103333Y-121708152D01*
X147103333Y-121708152D02*
X147055714Y-121803390D01*
X147055714Y-121803390D02*
X147008095Y-121851009D01*
X147008095Y-121851009D02*
X146912857Y-121898628D01*
X146912857Y-121898628D02*
X146531905Y-121898628D01*
X147960476Y-121708152D02*
X147960476Y-122374819D01*
X147722381Y-121327200D02*
X147484286Y-122041485D01*
X147484286Y-122041485D02*
X148103333Y-122041485D01*
X141388333Y-122359819D02*
X141055000Y-121883628D01*
X140816905Y-122359819D02*
X140816905Y-121359819D01*
X140816905Y-121359819D02*
X141197857Y-121359819D01*
X141197857Y-121359819D02*
X141293095Y-121407438D01*
X141293095Y-121407438D02*
X141340714Y-121455057D01*
X141340714Y-121455057D02*
X141388333Y-121550295D01*
X141388333Y-121550295D02*
X141388333Y-121693152D01*
X141388333Y-121693152D02*
X141340714Y-121788390D01*
X141340714Y-121788390D02*
X141293095Y-121836009D01*
X141293095Y-121836009D02*
X141197857Y-121883628D01*
X141197857Y-121883628D02*
X140816905Y-121883628D01*
X141769286Y-121455057D02*
X141816905Y-121407438D01*
X141816905Y-121407438D02*
X141912143Y-121359819D01*
X141912143Y-121359819D02*
X142150238Y-121359819D01*
X142150238Y-121359819D02*
X142245476Y-121407438D01*
X142245476Y-121407438D02*
X142293095Y-121455057D01*
X142293095Y-121455057D02*
X142340714Y-121550295D01*
X142340714Y-121550295D02*
X142340714Y-121645533D01*
X142340714Y-121645533D02*
X142293095Y-121788390D01*
X142293095Y-121788390D02*
X141721667Y-122359819D01*
X141721667Y-122359819D02*
X142340714Y-122359819D01*
X135088333Y-117294819D02*
X134755000Y-116818628D01*
X134516905Y-117294819D02*
X134516905Y-116294819D01*
X134516905Y-116294819D02*
X134897857Y-116294819D01*
X134897857Y-116294819D02*
X134993095Y-116342438D01*
X134993095Y-116342438D02*
X135040714Y-116390057D01*
X135040714Y-116390057D02*
X135088333Y-116485295D01*
X135088333Y-116485295D02*
X135088333Y-116628152D01*
X135088333Y-116628152D02*
X135040714Y-116723390D01*
X135040714Y-116723390D02*
X134993095Y-116771009D01*
X134993095Y-116771009D02*
X134897857Y-116818628D01*
X134897857Y-116818628D02*
X134516905Y-116818628D01*
X136040714Y-117294819D02*
X135469286Y-117294819D01*
X135755000Y-117294819D02*
X135755000Y-116294819D01*
X135755000Y-116294819D02*
X135659762Y-116437676D01*
X135659762Y-116437676D02*
X135564524Y-116532914D01*
X135564524Y-116532914D02*
X135469286Y-116580533D01*
X86084819Y-65073333D02*
X86799104Y-65073333D01*
X86799104Y-65073333D02*
X86941961Y-65120952D01*
X86941961Y-65120952D02*
X87037200Y-65216190D01*
X87037200Y-65216190D02*
X87084819Y-65359047D01*
X87084819Y-65359047D02*
X87084819Y-65454285D01*
X87084819Y-64073333D02*
X87084819Y-64644761D01*
X87084819Y-64359047D02*
X86084819Y-64359047D01*
X86084819Y-64359047D02*
X86227676Y-64454285D01*
X86227676Y-64454285D02*
X86322914Y-64549523D01*
X86322914Y-64549523D02*
X86370533Y-64644761D01*
X141965057Y-120412738D02*
X141917438Y-120507976D01*
X141917438Y-120507976D02*
X141822200Y-120603214D01*
X141822200Y-120603214D02*
X141679342Y-120746071D01*
X141679342Y-120746071D02*
X141631723Y-120841309D01*
X141631723Y-120841309D02*
X141631723Y-120936547D01*
X141869819Y-120888928D02*
X141822200Y-120984166D01*
X141822200Y-120984166D02*
X141726961Y-121079404D01*
X141726961Y-121079404D02*
X141536485Y-121127023D01*
X141536485Y-121127023D02*
X141203152Y-121127023D01*
X141203152Y-121127023D02*
X141012676Y-121079404D01*
X141012676Y-121079404D02*
X140917438Y-120984166D01*
X140917438Y-120984166D02*
X140869819Y-120888928D01*
X140869819Y-120888928D02*
X140869819Y-120698452D01*
X140869819Y-120698452D02*
X140917438Y-120603214D01*
X140917438Y-120603214D02*
X141012676Y-120507976D01*
X141012676Y-120507976D02*
X141203152Y-120460357D01*
X141203152Y-120460357D02*
X141536485Y-120460357D01*
X141536485Y-120460357D02*
X141726961Y-120507976D01*
X141726961Y-120507976D02*
X141822200Y-120603214D01*
X141822200Y-120603214D02*
X141869819Y-120698452D01*
X141869819Y-120698452D02*
X141869819Y-120888928D01*
X141869819Y-119507976D02*
X141869819Y-120079404D01*
X141869819Y-119793690D02*
X140869819Y-119793690D01*
X140869819Y-119793690D02*
X141012676Y-119888928D01*
X141012676Y-119888928D02*
X141107914Y-119984166D01*
X141107914Y-119984166D02*
X141155533Y-120079404D01*
X135736905Y-127454819D02*
X135736905Y-126454819D01*
X135736905Y-126454819D02*
X135975000Y-126454819D01*
X135975000Y-126454819D02*
X136117857Y-126502438D01*
X136117857Y-126502438D02*
X136213095Y-126597676D01*
X136213095Y-126597676D02*
X136260714Y-126692914D01*
X136260714Y-126692914D02*
X136308333Y-126883390D01*
X136308333Y-126883390D02*
X136308333Y-127026247D01*
X136308333Y-127026247D02*
X136260714Y-127216723D01*
X136260714Y-127216723D02*
X136213095Y-127311961D01*
X136213095Y-127311961D02*
X136117857Y-127407200D01*
X136117857Y-127407200D02*
X135975000Y-127454819D01*
X135975000Y-127454819D02*
X135736905Y-127454819D01*
X137260714Y-127454819D02*
X136689286Y-127454819D01*
X136975000Y-127454819D02*
X136975000Y-126454819D01*
X136975000Y-126454819D02*
X136879762Y-126597676D01*
X136879762Y-126597676D02*
X136784524Y-126692914D01*
X136784524Y-126692914D02*
X136689286Y-126740533D01*
X97051905Y-85544819D02*
X97051905Y-84544819D01*
X97051905Y-84544819D02*
X97290000Y-84544819D01*
X97290000Y-84544819D02*
X97432857Y-84592438D01*
X97432857Y-84592438D02*
X97528095Y-84687676D01*
X97528095Y-84687676D02*
X97575714Y-84782914D01*
X97575714Y-84782914D02*
X97623333Y-84973390D01*
X97623333Y-84973390D02*
X97623333Y-85116247D01*
X97623333Y-85116247D02*
X97575714Y-85306723D01*
X97575714Y-85306723D02*
X97528095Y-85401961D01*
X97528095Y-85401961D02*
X97432857Y-85497200D01*
X97432857Y-85497200D02*
X97290000Y-85544819D01*
X97290000Y-85544819D02*
X97051905Y-85544819D01*
X98004286Y-84640057D02*
X98051905Y-84592438D01*
X98051905Y-84592438D02*
X98147143Y-84544819D01*
X98147143Y-84544819D02*
X98385238Y-84544819D01*
X98385238Y-84544819D02*
X98480476Y-84592438D01*
X98480476Y-84592438D02*
X98528095Y-84640057D01*
X98528095Y-84640057D02*
X98575714Y-84735295D01*
X98575714Y-84735295D02*
X98575714Y-84830533D01*
X98575714Y-84830533D02*
X98528095Y-84973390D01*
X98528095Y-84973390D02*
X97956667Y-85544819D01*
X97956667Y-85544819D02*
X98575714Y-85544819D01*
X101338095Y-89249819D02*
X101338095Y-88249819D01*
X101909523Y-89249819D02*
X101480952Y-88678390D01*
X101909523Y-88249819D02*
X101338095Y-88821247D01*
X126833333Y-130678580D02*
X126785714Y-130726200D01*
X126785714Y-130726200D02*
X126642857Y-130773819D01*
X126642857Y-130773819D02*
X126547619Y-130773819D01*
X126547619Y-130773819D02*
X126404762Y-130726200D01*
X126404762Y-130726200D02*
X126309524Y-130630961D01*
X126309524Y-130630961D02*
X126261905Y-130535723D01*
X126261905Y-130535723D02*
X126214286Y-130345247D01*
X126214286Y-130345247D02*
X126214286Y-130202390D01*
X126214286Y-130202390D02*
X126261905Y-130011914D01*
X126261905Y-130011914D02*
X126309524Y-129916676D01*
X126309524Y-129916676D02*
X126404762Y-129821438D01*
X126404762Y-129821438D02*
X126547619Y-129773819D01*
X126547619Y-129773819D02*
X126642857Y-129773819D01*
X126642857Y-129773819D02*
X126785714Y-129821438D01*
X126785714Y-129821438D02*
X126833333Y-129869057D01*
X127690476Y-130107152D02*
X127690476Y-130773819D01*
X127452381Y-129726200D02*
X127214286Y-130440485D01*
X127214286Y-130440485D02*
X127833333Y-130440485D01*
X101123809Y-113008628D02*
X101123809Y-113484819D01*
X100790476Y-112484819D02*
X101123809Y-113008628D01*
X101123809Y-113008628D02*
X101457142Y-112484819D01*
X101742857Y-112580057D02*
X101790476Y-112532438D01*
X101790476Y-112532438D02*
X101885714Y-112484819D01*
X101885714Y-112484819D02*
X102123809Y-112484819D01*
X102123809Y-112484819D02*
X102219047Y-112532438D01*
X102219047Y-112532438D02*
X102266666Y-112580057D01*
X102266666Y-112580057D02*
X102314285Y-112675295D01*
X102314285Y-112675295D02*
X102314285Y-112770533D01*
X102314285Y-112770533D02*
X102266666Y-112913390D01*
X102266666Y-112913390D02*
X101695238Y-113484819D01*
X101695238Y-113484819D02*
X102314285Y-113484819D01*
X93644819Y-96011904D02*
X94454342Y-96011904D01*
X94454342Y-96011904D02*
X94549580Y-95964285D01*
X94549580Y-95964285D02*
X94597200Y-95916666D01*
X94597200Y-95916666D02*
X94644819Y-95821428D01*
X94644819Y-95821428D02*
X94644819Y-95630952D01*
X94644819Y-95630952D02*
X94597200Y-95535714D01*
X94597200Y-95535714D02*
X94549580Y-95488095D01*
X94549580Y-95488095D02*
X94454342Y-95440476D01*
X94454342Y-95440476D02*
X93644819Y-95440476D01*
X93644819Y-94535714D02*
X93644819Y-94726190D01*
X93644819Y-94726190D02*
X93692438Y-94821428D01*
X93692438Y-94821428D02*
X93740057Y-94869047D01*
X93740057Y-94869047D02*
X93882914Y-94964285D01*
X93882914Y-94964285D02*
X94073390Y-95011904D01*
X94073390Y-95011904D02*
X94454342Y-95011904D01*
X94454342Y-95011904D02*
X94549580Y-94964285D01*
X94549580Y-94964285D02*
X94597200Y-94916666D01*
X94597200Y-94916666D02*
X94644819Y-94821428D01*
X94644819Y-94821428D02*
X94644819Y-94630952D01*
X94644819Y-94630952D02*
X94597200Y-94535714D01*
X94597200Y-94535714D02*
X94549580Y-94488095D01*
X94549580Y-94488095D02*
X94454342Y-94440476D01*
X94454342Y-94440476D02*
X94216247Y-94440476D01*
X94216247Y-94440476D02*
X94121009Y-94488095D01*
X94121009Y-94488095D02*
X94073390Y-94535714D01*
X94073390Y-94535714D02*
X94025771Y-94630952D01*
X94025771Y-94630952D02*
X94025771Y-94821428D01*
X94025771Y-94821428D02*
X94073390Y-94916666D01*
X94073390Y-94916666D02*
X94121009Y-94964285D01*
X94121009Y-94964285D02*
X94216247Y-95011904D01*
X103973333Y-118469580D02*
X103925714Y-118517200D01*
X103925714Y-118517200D02*
X103782857Y-118564819D01*
X103782857Y-118564819D02*
X103687619Y-118564819D01*
X103687619Y-118564819D02*
X103544762Y-118517200D01*
X103544762Y-118517200D02*
X103449524Y-118421961D01*
X103449524Y-118421961D02*
X103401905Y-118326723D01*
X103401905Y-118326723D02*
X103354286Y-118136247D01*
X103354286Y-118136247D02*
X103354286Y-117993390D01*
X103354286Y-117993390D02*
X103401905Y-117802914D01*
X103401905Y-117802914D02*
X103449524Y-117707676D01*
X103449524Y-117707676D02*
X103544762Y-117612438D01*
X103544762Y-117612438D02*
X103687619Y-117564819D01*
X103687619Y-117564819D02*
X103782857Y-117564819D01*
X103782857Y-117564819D02*
X103925714Y-117612438D01*
X103925714Y-117612438D02*
X103973333Y-117660057D01*
X104925714Y-118564819D02*
X104354286Y-118564819D01*
X104640000Y-118564819D02*
X104640000Y-117564819D01*
X104640000Y-117564819D02*
X104544762Y-117707676D01*
X104544762Y-117707676D02*
X104449524Y-117802914D01*
X104449524Y-117802914D02*
X104354286Y-117850533D01*
X124452142Y-149728580D02*
X124404523Y-149776200D01*
X124404523Y-149776200D02*
X124261666Y-149823819D01*
X124261666Y-149823819D02*
X124166428Y-149823819D01*
X124166428Y-149823819D02*
X124023571Y-149776200D01*
X124023571Y-149776200D02*
X123928333Y-149680961D01*
X123928333Y-149680961D02*
X123880714Y-149585723D01*
X123880714Y-149585723D02*
X123833095Y-149395247D01*
X123833095Y-149395247D02*
X123833095Y-149252390D01*
X123833095Y-149252390D02*
X123880714Y-149061914D01*
X123880714Y-149061914D02*
X123928333Y-148966676D01*
X123928333Y-148966676D02*
X124023571Y-148871438D01*
X124023571Y-148871438D02*
X124166428Y-148823819D01*
X124166428Y-148823819D02*
X124261666Y-148823819D01*
X124261666Y-148823819D02*
X124404523Y-148871438D01*
X124404523Y-148871438D02*
X124452142Y-148919057D01*
X124785476Y-148823819D02*
X125404523Y-148823819D01*
X125404523Y-148823819D02*
X125071190Y-149204771D01*
X125071190Y-149204771D02*
X125214047Y-149204771D01*
X125214047Y-149204771D02*
X125309285Y-149252390D01*
X125309285Y-149252390D02*
X125356904Y-149300009D01*
X125356904Y-149300009D02*
X125404523Y-149395247D01*
X125404523Y-149395247D02*
X125404523Y-149633342D01*
X125404523Y-149633342D02*
X125356904Y-149728580D01*
X125356904Y-149728580D02*
X125309285Y-149776200D01*
X125309285Y-149776200D02*
X125214047Y-149823819D01*
X125214047Y-149823819D02*
X124928333Y-149823819D01*
X124928333Y-149823819D02*
X124833095Y-149776200D01*
X124833095Y-149776200D02*
X124785476Y-149728580D01*
X126309285Y-148823819D02*
X125833095Y-148823819D01*
X125833095Y-148823819D02*
X125785476Y-149300009D01*
X125785476Y-149300009D02*
X125833095Y-149252390D01*
X125833095Y-149252390D02*
X125928333Y-149204771D01*
X125928333Y-149204771D02*
X126166428Y-149204771D01*
X126166428Y-149204771D02*
X126261666Y-149252390D01*
X126261666Y-149252390D02*
X126309285Y-149300009D01*
X126309285Y-149300009D02*
X126356904Y-149395247D01*
X126356904Y-149395247D02*
X126356904Y-149633342D01*
X126356904Y-149633342D02*
X126309285Y-149728580D01*
X126309285Y-149728580D02*
X126261666Y-149776200D01*
X126261666Y-149776200D02*
X126166428Y-149823819D01*
X126166428Y-149823819D02*
X125928333Y-149823819D01*
X125928333Y-149823819D02*
X125833095Y-149776200D01*
X125833095Y-149776200D02*
X125785476Y-149728580D01*
X147680057Y-120442738D02*
X147632438Y-120537976D01*
X147632438Y-120537976D02*
X147537200Y-120633214D01*
X147537200Y-120633214D02*
X147394342Y-120776071D01*
X147394342Y-120776071D02*
X147346723Y-120871309D01*
X147346723Y-120871309D02*
X147346723Y-120966547D01*
X147584819Y-120918928D02*
X147537200Y-121014166D01*
X147537200Y-121014166D02*
X147441961Y-121109404D01*
X147441961Y-121109404D02*
X147251485Y-121157023D01*
X147251485Y-121157023D02*
X146918152Y-121157023D01*
X146918152Y-121157023D02*
X146727676Y-121109404D01*
X146727676Y-121109404D02*
X146632438Y-121014166D01*
X146632438Y-121014166D02*
X146584819Y-120918928D01*
X146584819Y-120918928D02*
X146584819Y-120728452D01*
X146584819Y-120728452D02*
X146632438Y-120633214D01*
X146632438Y-120633214D02*
X146727676Y-120537976D01*
X146727676Y-120537976D02*
X146918152Y-120490357D01*
X146918152Y-120490357D02*
X147251485Y-120490357D01*
X147251485Y-120490357D02*
X147441961Y-120537976D01*
X147441961Y-120537976D02*
X147537200Y-120633214D01*
X147537200Y-120633214D02*
X147584819Y-120728452D01*
X147584819Y-120728452D02*
X147584819Y-120918928D01*
X146680057Y-120109404D02*
X146632438Y-120061785D01*
X146632438Y-120061785D02*
X146584819Y-119966547D01*
X146584819Y-119966547D02*
X146584819Y-119728452D01*
X146584819Y-119728452D02*
X146632438Y-119633214D01*
X146632438Y-119633214D02*
X146680057Y-119585595D01*
X146680057Y-119585595D02*
X146775295Y-119537976D01*
X146775295Y-119537976D02*
X146870533Y-119537976D01*
X146870533Y-119537976D02*
X147013390Y-119585595D01*
X147013390Y-119585595D02*
X147584819Y-120157023D01*
X147584819Y-120157023D02*
X147584819Y-119537976D01*
X149071905Y-127454819D02*
X149071905Y-126454819D01*
X149071905Y-126454819D02*
X149310000Y-126454819D01*
X149310000Y-126454819D02*
X149452857Y-126502438D01*
X149452857Y-126502438D02*
X149548095Y-126597676D01*
X149548095Y-126597676D02*
X149595714Y-126692914D01*
X149595714Y-126692914D02*
X149643333Y-126883390D01*
X149643333Y-126883390D02*
X149643333Y-127026247D01*
X149643333Y-127026247D02*
X149595714Y-127216723D01*
X149595714Y-127216723D02*
X149548095Y-127311961D01*
X149548095Y-127311961D02*
X149452857Y-127407200D01*
X149452857Y-127407200D02*
X149310000Y-127454819D01*
X149310000Y-127454819D02*
X149071905Y-127454819D01*
X149976667Y-126454819D02*
X150595714Y-126454819D01*
X150595714Y-126454819D02*
X150262381Y-126835771D01*
X150262381Y-126835771D02*
X150405238Y-126835771D01*
X150405238Y-126835771D02*
X150500476Y-126883390D01*
X150500476Y-126883390D02*
X150548095Y-126931009D01*
X150548095Y-126931009D02*
X150595714Y-127026247D01*
X150595714Y-127026247D02*
X150595714Y-127264342D01*
X150595714Y-127264342D02*
X150548095Y-127359580D01*
X150548095Y-127359580D02*
X150500476Y-127407200D01*
X150500476Y-127407200D02*
X150405238Y-127454819D01*
X150405238Y-127454819D02*
X150119524Y-127454819D01*
X150119524Y-127454819D02*
X150024286Y-127407200D01*
X150024286Y-127407200D02*
X149976667Y-127359580D01*
X123704819Y-142987094D02*
X124514342Y-142987094D01*
X124514342Y-142987094D02*
X124609580Y-142939475D01*
X124609580Y-142939475D02*
X124657200Y-142891856D01*
X124657200Y-142891856D02*
X124704819Y-142796618D01*
X124704819Y-142796618D02*
X124704819Y-142606142D01*
X124704819Y-142606142D02*
X124657200Y-142510904D01*
X124657200Y-142510904D02*
X124609580Y-142463285D01*
X124609580Y-142463285D02*
X124514342Y-142415666D01*
X124514342Y-142415666D02*
X123704819Y-142415666D01*
X124704819Y-141415666D02*
X124704819Y-141987094D01*
X124704819Y-141701380D02*
X123704819Y-141701380D01*
X123704819Y-141701380D02*
X123847676Y-141796618D01*
X123847676Y-141796618D02*
X123942914Y-141891856D01*
X123942914Y-141891856D02*
X123990533Y-141987094D01*
X123704819Y-140796618D02*
X123704819Y-140701380D01*
X123704819Y-140701380D02*
X123752438Y-140606142D01*
X123752438Y-140606142D02*
X123800057Y-140558523D01*
X123800057Y-140558523D02*
X123895295Y-140510904D01*
X123895295Y-140510904D02*
X124085771Y-140463285D01*
X124085771Y-140463285D02*
X124323866Y-140463285D01*
X124323866Y-140463285D02*
X124514342Y-140510904D01*
X124514342Y-140510904D02*
X124609580Y-140558523D01*
X124609580Y-140558523D02*
X124657200Y-140606142D01*
X124657200Y-140606142D02*
X124704819Y-140701380D01*
X124704819Y-140701380D02*
X124704819Y-140796618D01*
X124704819Y-140796618D02*
X124657200Y-140891856D01*
X124657200Y-140891856D02*
X124609580Y-140939475D01*
X124609580Y-140939475D02*
X124514342Y-140987094D01*
X124514342Y-140987094D02*
X124323866Y-141034713D01*
X124323866Y-141034713D02*
X124085771Y-141034713D01*
X124085771Y-141034713D02*
X123895295Y-140987094D01*
X123895295Y-140987094D02*
X123800057Y-140939475D01*
X123800057Y-140939475D02*
X123752438Y-140891856D01*
X123752438Y-140891856D02*
X123704819Y-140796618D01*
X113966666Y-150093819D02*
X113966666Y-150808104D01*
X113966666Y-150808104D02*
X113919047Y-150950961D01*
X113919047Y-150950961D02*
X113823809Y-151046200D01*
X113823809Y-151046200D02*
X113680952Y-151093819D01*
X113680952Y-151093819D02*
X113585714Y-151093819D01*
X114395238Y-150189057D02*
X114442857Y-150141438D01*
X114442857Y-150141438D02*
X114538095Y-150093819D01*
X114538095Y-150093819D02*
X114776190Y-150093819D01*
X114776190Y-150093819D02*
X114871428Y-150141438D01*
X114871428Y-150141438D02*
X114919047Y-150189057D01*
X114919047Y-150189057D02*
X114966666Y-150284295D01*
X114966666Y-150284295D02*
X114966666Y-150379533D01*
X114966666Y-150379533D02*
X114919047Y-150522390D01*
X114919047Y-150522390D02*
X114347619Y-151093819D01*
X114347619Y-151093819D02*
X114966666Y-151093819D01*
X105402142Y-109039819D02*
X105068809Y-108563628D01*
X104830714Y-109039819D02*
X104830714Y-108039819D01*
X104830714Y-108039819D02*
X105211666Y-108039819D01*
X105211666Y-108039819D02*
X105306904Y-108087438D01*
X105306904Y-108087438D02*
X105354523Y-108135057D01*
X105354523Y-108135057D02*
X105402142Y-108230295D01*
X105402142Y-108230295D02*
X105402142Y-108373152D01*
X105402142Y-108373152D02*
X105354523Y-108468390D01*
X105354523Y-108468390D02*
X105306904Y-108516009D01*
X105306904Y-108516009D02*
X105211666Y-108563628D01*
X105211666Y-108563628D02*
X104830714Y-108563628D01*
X106259285Y-108039819D02*
X106068809Y-108039819D01*
X106068809Y-108039819D02*
X105973571Y-108087438D01*
X105973571Y-108087438D02*
X105925952Y-108135057D01*
X105925952Y-108135057D02*
X105830714Y-108277914D01*
X105830714Y-108277914D02*
X105783095Y-108468390D01*
X105783095Y-108468390D02*
X105783095Y-108849342D01*
X105783095Y-108849342D02*
X105830714Y-108944580D01*
X105830714Y-108944580D02*
X105878333Y-108992200D01*
X105878333Y-108992200D02*
X105973571Y-109039819D01*
X105973571Y-109039819D02*
X106164047Y-109039819D01*
X106164047Y-109039819D02*
X106259285Y-108992200D01*
X106259285Y-108992200D02*
X106306904Y-108944580D01*
X106306904Y-108944580D02*
X106354523Y-108849342D01*
X106354523Y-108849342D02*
X106354523Y-108611247D01*
X106354523Y-108611247D02*
X106306904Y-108516009D01*
X106306904Y-108516009D02*
X106259285Y-108468390D01*
X106259285Y-108468390D02*
X106164047Y-108420771D01*
X106164047Y-108420771D02*
X105973571Y-108420771D01*
X105973571Y-108420771D02*
X105878333Y-108468390D01*
X105878333Y-108468390D02*
X105830714Y-108516009D01*
X105830714Y-108516009D02*
X105783095Y-108611247D01*
X107259285Y-108039819D02*
X106783095Y-108039819D01*
X106783095Y-108039819D02*
X106735476Y-108516009D01*
X106735476Y-108516009D02*
X106783095Y-108468390D01*
X106783095Y-108468390D02*
X106878333Y-108420771D01*
X106878333Y-108420771D02*
X107116428Y-108420771D01*
X107116428Y-108420771D02*
X107211666Y-108468390D01*
X107211666Y-108468390D02*
X107259285Y-108516009D01*
X107259285Y-108516009D02*
X107306904Y-108611247D01*
X107306904Y-108611247D02*
X107306904Y-108849342D01*
X107306904Y-108849342D02*
X107259285Y-108944580D01*
X107259285Y-108944580D02*
X107211666Y-108992200D01*
X107211666Y-108992200D02*
X107116428Y-109039819D01*
X107116428Y-109039819D02*
X106878333Y-109039819D01*
X106878333Y-109039819D02*
X106783095Y-108992200D01*
X106783095Y-108992200D02*
X106735476Y-108944580D01*
X148423333Y-117294819D02*
X148090000Y-116818628D01*
X147851905Y-117294819D02*
X147851905Y-116294819D01*
X147851905Y-116294819D02*
X148232857Y-116294819D01*
X148232857Y-116294819D02*
X148328095Y-116342438D01*
X148328095Y-116342438D02*
X148375714Y-116390057D01*
X148375714Y-116390057D02*
X148423333Y-116485295D01*
X148423333Y-116485295D02*
X148423333Y-116628152D01*
X148423333Y-116628152D02*
X148375714Y-116723390D01*
X148375714Y-116723390D02*
X148328095Y-116771009D01*
X148328095Y-116771009D02*
X148232857Y-116818628D01*
X148232857Y-116818628D02*
X147851905Y-116818628D01*
X148756667Y-116294819D02*
X149375714Y-116294819D01*
X149375714Y-116294819D02*
X149042381Y-116675771D01*
X149042381Y-116675771D02*
X149185238Y-116675771D01*
X149185238Y-116675771D02*
X149280476Y-116723390D01*
X149280476Y-116723390D02*
X149328095Y-116771009D01*
X149328095Y-116771009D02*
X149375714Y-116866247D01*
X149375714Y-116866247D02*
X149375714Y-117104342D01*
X149375714Y-117104342D02*
X149328095Y-117199580D01*
X149328095Y-117199580D02*
X149280476Y-117247200D01*
X149280476Y-117247200D02*
X149185238Y-117294819D01*
X149185238Y-117294819D02*
X148899524Y-117294819D01*
X148899524Y-117294819D02*
X148804286Y-117247200D01*
X148804286Y-117247200D02*
X148756667Y-117199580D01*
X106513333Y-134488580D02*
X106465714Y-134536200D01*
X106465714Y-134536200D02*
X106322857Y-134583819D01*
X106322857Y-134583819D02*
X106227619Y-134583819D01*
X106227619Y-134583819D02*
X106084762Y-134536200D01*
X106084762Y-134536200D02*
X105989524Y-134440961D01*
X105989524Y-134440961D02*
X105941905Y-134345723D01*
X105941905Y-134345723D02*
X105894286Y-134155247D01*
X105894286Y-134155247D02*
X105894286Y-134012390D01*
X105894286Y-134012390D02*
X105941905Y-133821914D01*
X105941905Y-133821914D02*
X105989524Y-133726676D01*
X105989524Y-133726676D02*
X106084762Y-133631438D01*
X106084762Y-133631438D02*
X106227619Y-133583819D01*
X106227619Y-133583819D02*
X106322857Y-133583819D01*
X106322857Y-133583819D02*
X106465714Y-133631438D01*
X106465714Y-133631438D02*
X106513333Y-133679057D01*
X106846667Y-133583819D02*
X107465714Y-133583819D01*
X107465714Y-133583819D02*
X107132381Y-133964771D01*
X107132381Y-133964771D02*
X107275238Y-133964771D01*
X107275238Y-133964771D02*
X107370476Y-134012390D01*
X107370476Y-134012390D02*
X107418095Y-134060009D01*
X107418095Y-134060009D02*
X107465714Y-134155247D01*
X107465714Y-134155247D02*
X107465714Y-134393342D01*
X107465714Y-134393342D02*
X107418095Y-134488580D01*
X107418095Y-134488580D02*
X107370476Y-134536200D01*
X107370476Y-134536200D02*
X107275238Y-134583819D01*
X107275238Y-134583819D02*
X106989524Y-134583819D01*
X106989524Y-134583819D02*
X106894286Y-134536200D01*
X106894286Y-134536200D02*
X106846667Y-134488580D01*
X136209580Y-93312857D02*
X136257200Y-93360476D01*
X136257200Y-93360476D02*
X136304819Y-93503333D01*
X136304819Y-93503333D02*
X136304819Y-93598571D01*
X136304819Y-93598571D02*
X136257200Y-93741428D01*
X136257200Y-93741428D02*
X136161961Y-93836666D01*
X136161961Y-93836666D02*
X136066723Y-93884285D01*
X136066723Y-93884285D02*
X135876247Y-93931904D01*
X135876247Y-93931904D02*
X135733390Y-93931904D01*
X135733390Y-93931904D02*
X135542914Y-93884285D01*
X135542914Y-93884285D02*
X135447676Y-93836666D01*
X135447676Y-93836666D02*
X135352438Y-93741428D01*
X135352438Y-93741428D02*
X135304819Y-93598571D01*
X135304819Y-93598571D02*
X135304819Y-93503333D01*
X135304819Y-93503333D02*
X135352438Y-93360476D01*
X135352438Y-93360476D02*
X135400057Y-93312857D01*
X135304819Y-92979523D02*
X135304819Y-92360476D01*
X135304819Y-92360476D02*
X135685771Y-92693809D01*
X135685771Y-92693809D02*
X135685771Y-92550952D01*
X135685771Y-92550952D02*
X135733390Y-92455714D01*
X135733390Y-92455714D02*
X135781009Y-92408095D01*
X135781009Y-92408095D02*
X135876247Y-92360476D01*
X135876247Y-92360476D02*
X136114342Y-92360476D01*
X136114342Y-92360476D02*
X136209580Y-92408095D01*
X136209580Y-92408095D02*
X136257200Y-92455714D01*
X136257200Y-92455714D02*
X136304819Y-92550952D01*
X136304819Y-92550952D02*
X136304819Y-92836666D01*
X136304819Y-92836666D02*
X136257200Y-92931904D01*
X136257200Y-92931904D02*
X136209580Y-92979523D01*
X135304819Y-91503333D02*
X135304819Y-91693809D01*
X135304819Y-91693809D02*
X135352438Y-91789047D01*
X135352438Y-91789047D02*
X135400057Y-91836666D01*
X135400057Y-91836666D02*
X135542914Y-91931904D01*
X135542914Y-91931904D02*
X135733390Y-91979523D01*
X135733390Y-91979523D02*
X136114342Y-91979523D01*
X136114342Y-91979523D02*
X136209580Y-91931904D01*
X136209580Y-91931904D02*
X136257200Y-91884285D01*
X136257200Y-91884285D02*
X136304819Y-91789047D01*
X136304819Y-91789047D02*
X136304819Y-91598571D01*
X136304819Y-91598571D02*
X136257200Y-91503333D01*
X136257200Y-91503333D02*
X136209580Y-91455714D01*
X136209580Y-91455714D02*
X136114342Y-91408095D01*
X136114342Y-91408095D02*
X135876247Y-91408095D01*
X135876247Y-91408095D02*
X135781009Y-91455714D01*
X135781009Y-91455714D02*
X135733390Y-91503333D01*
X135733390Y-91503333D02*
X135685771Y-91598571D01*
X135685771Y-91598571D02*
X135685771Y-91789047D01*
X135685771Y-91789047D02*
X135733390Y-91884285D01*
X135733390Y-91884285D02*
X135781009Y-91931904D01*
X135781009Y-91931904D02*
X135876247Y-91979523D01*
D12*
%TO.C,C7*%
X109140000Y-128949000D02*
X109140000Y-129286000D01*
X109140000Y-128949000D02*
X114380000Y-128949000D01*
X109140000Y-131352000D02*
X109140000Y-131689000D01*
X109140000Y-131689000D02*
X114380000Y-131689000D01*
X114380000Y-128949000D02*
X114380000Y-129286000D01*
X114380000Y-131352000D02*
X114380000Y-131689000D01*
%TO.C,C2*%
X116800000Y-133096000D02*
X116800000Y-132759000D01*
X116800000Y-135499000D02*
X116800000Y-135162000D01*
X122040000Y-132759000D02*
X116800000Y-132759000D01*
X122040000Y-133096000D02*
X122040000Y-132759000D01*
X122040000Y-135499000D02*
X116800000Y-135499000D01*
X122040000Y-135499000D02*
X122040000Y-135162000D01*
%TO.C,R4*%
X145700000Y-123825000D02*
X146320000Y-123825000D01*
X145700000Y-123825000D02*
G75*
G02*
X143860000Y-123825000I-920000J0D01*
G01*
X143860000Y-123825000D02*
G75*
G02*
X145700000Y-123825000I920000J0D01*
G01*
%TO.C,R2*%
X139985000Y-123825000D02*
X140605000Y-123825000D01*
X139985000Y-123825000D02*
G75*
G02*
X138145000Y-123825000I-920000J0D01*
G01*
X138145000Y-123825000D02*
G75*
G02*
X139985000Y-123825000I920000J0D01*
G01*
%TO.C,R1*%
X139415000Y-116840000D02*
X138795000Y-116840000D01*
X141255000Y-116840000D02*
G75*
G02*
X139415000Y-116840000I-920000J0D01*
G01*
X139415000Y-116840000D02*
G75*
G02*
X141255000Y-116840000I920000J0D01*
G01*
%TO.C,Q1*%
X137455000Y-120317500D02*
X137455000Y-119667500D01*
X137455000Y-120317500D02*
X137455000Y-120967500D01*
X140575000Y-120317500D02*
X140575000Y-119667500D01*
X140575000Y-120317500D02*
X140575000Y-120967500D01*
X140855000Y-119395000D02*
X140525000Y-119155000D01*
X140855000Y-118915000D01*
X140855000Y-119395000D01*
G36*
X140855000Y-119395000D02*
G01*
X140525000Y-119155000D01*
X140855000Y-118915000D01*
X140855000Y-119395000D01*
G37*
%TO.C,D1*%
X138575000Y-125740000D02*
X138575000Y-125920000D01*
X138575000Y-125740000D02*
X141995000Y-125740000D01*
X138575000Y-128080000D02*
X138575000Y-128260000D01*
X138575000Y-128260000D02*
X141995000Y-128260000D01*
X138695000Y-125740000D02*
X138695000Y-125920000D01*
X138695000Y-128080000D02*
X138695000Y-128260000D01*
X138815000Y-125740000D02*
X138815000Y-125920000D01*
X138815000Y-128080000D02*
X138815000Y-128260000D01*
X141995000Y-125740000D02*
X141995000Y-126014000D01*
X141995000Y-127986000D02*
X141995000Y-128260000D01*
%TO.C,D2*%
X95020000Y-86995000D02*
X95670000Y-86995000D01*
X99070000Y-88115000D02*
X99070000Y-85875000D01*
X99190000Y-88115000D02*
X99190000Y-85875000D01*
X99310000Y-88115000D02*
X99310000Y-85875000D01*
X100560000Y-86995000D02*
X99910000Y-86995000D01*
X99910000Y-88115000D02*
X95670000Y-88115000D01*
X95670000Y-85875000D01*
X99910000Y-85875000D01*
X99910000Y-88115000D01*
%TO.C,C4*%
X119260000Y-128949000D02*
X119260000Y-129286000D01*
X119260000Y-128949000D02*
X124500000Y-128949000D01*
X119260000Y-131352000D02*
X119260000Y-131689000D01*
X119260000Y-131689000D02*
X124500000Y-131689000D01*
X124500000Y-128949000D02*
X124500000Y-129286000D01*
X124500000Y-131352000D02*
X124500000Y-131689000D01*
%TO.C,Y2*%
X112435000Y-110595000D02*
X106185000Y-110595000D01*
X112435000Y-115465000D02*
X106185000Y-115465000D01*
X106185000Y-115465000D02*
G75*
G02*
X106185000Y-110595000I0J2435000D01*
G01*
X112435000Y-110595000D02*
G75*
G02*
X112435000Y-115465000I0J-2435000D01*
G01*
%TO.C,U6*%
X95190000Y-91330000D02*
X95190000Y-96790000D01*
X95190000Y-98790000D02*
X95190000Y-104250000D01*
X95190000Y-104250000D02*
X130870000Y-104250000D01*
X130870000Y-91330000D02*
X95190000Y-91330000D01*
X130870000Y-104250000D02*
X130870000Y-91330000D01*
X95190000Y-96790000D02*
G75*
G02*
X95190000Y-98790000I0J-1000000D01*
G01*
%TO.C,C1*%
X106640000Y-117077000D02*
X106640000Y-116740000D01*
X106640000Y-119480000D02*
X106640000Y-119143000D01*
X111880000Y-116740000D02*
X106640000Y-116740000D01*
X111880000Y-117077000D02*
X111880000Y-116740000D01*
X111880000Y-119480000D02*
X106640000Y-119480000D01*
X111880000Y-119480000D02*
X111880000Y-119143000D01*
%TO.C,C35*%
X116800000Y-148296000D02*
X116800000Y-147959000D01*
X116800000Y-150699000D02*
X116800000Y-150362000D01*
X122040000Y-147959000D02*
X116800000Y-147959000D01*
X122040000Y-148296000D02*
X122040000Y-147959000D01*
X122040000Y-150699000D02*
X116800000Y-150699000D01*
X122040000Y-150699000D02*
X122040000Y-150362000D01*
%TO.C,Q2*%
X143170000Y-120347500D02*
X143170000Y-119697500D01*
X143170000Y-120347500D02*
X143170000Y-120997500D01*
X146290000Y-120347500D02*
X146290000Y-119697500D01*
X146290000Y-120347500D02*
X146290000Y-120997500D01*
X146570000Y-119425000D02*
X146240000Y-119185000D01*
X146570000Y-118945000D01*
X146570000Y-119425000D01*
G36*
X146570000Y-119425000D02*
G01*
X146240000Y-119185000D01*
X146570000Y-118945000D01*
X146570000Y-119425000D01*
G37*
%TO.C,D3*%
X144290000Y-125740000D02*
X144290000Y-125920000D01*
X144290000Y-125740000D02*
X147710000Y-125740000D01*
X144290000Y-128080000D02*
X144290000Y-128260000D01*
X144290000Y-128260000D02*
X147710000Y-128260000D01*
X144410000Y-125740000D02*
X144410000Y-125920000D01*
X144410000Y-128080000D02*
X144410000Y-128260000D01*
X144530000Y-125740000D02*
X144530000Y-125920000D01*
X144530000Y-128080000D02*
X144530000Y-128260000D01*
X147710000Y-125740000D02*
X147710000Y-126014000D01*
X147710000Y-127986000D02*
X147710000Y-128260000D01*
%TO.C,U10*%
X102810000Y-139099000D02*
X102810000Y-144399000D01*
X102810000Y-144399000D02*
X123250000Y-144399000D01*
X123250000Y-139099000D02*
X102810000Y-139099000D01*
X123250000Y-140749000D02*
X123250000Y-139099000D01*
X123250000Y-144399000D02*
X123250000Y-142749000D01*
X123310000Y-136609000D02*
X102750000Y-136609000D01*
X102750000Y-146889000D01*
X123310000Y-146889000D01*
X123310000Y-136609000D01*
X123250000Y-142749000D02*
G75*
G02*
X123250000Y-140749000I0J1000000D01*
G01*
%TO.C,J2*%
X97745000Y-152289000D02*
X128715000Y-152289000D01*
X97745000Y-161869000D02*
X97745000Y-152289000D01*
X107440000Y-151394662D02*
X107940000Y-151394662D01*
X107690000Y-151827675D02*
X107440000Y-151394662D01*
X107940000Y-151394662D02*
X107690000Y-151827675D01*
X128715000Y-152289000D02*
X128715000Y-161869000D01*
%TO.C,R65*%
X110190000Y-108535000D02*
X110810000Y-108535000D01*
X110190000Y-108535000D02*
G75*
G02*
X108350000Y-108535000I-920000J0D01*
G01*
X108350000Y-108535000D02*
G75*
G02*
X110190000Y-108535000I920000J0D01*
G01*
%TO.C,R3*%
X145080000Y-116840000D02*
X144460000Y-116840000D01*
X146920000Y-116840000D02*
G75*
G02*
X145080000Y-116840000I-920000J0D01*
G01*
X145080000Y-116840000D02*
G75*
G02*
X146920000Y-116840000I920000J0D01*
G01*
%TO.C,C3*%
X109180000Y-133096000D02*
X109180000Y-132759000D01*
X109180000Y-135499000D02*
X109180000Y-135162000D01*
X114420000Y-132759000D02*
X109180000Y-132759000D01*
X114420000Y-133096000D02*
X114420000Y-132759000D01*
X114420000Y-135499000D02*
X109180000Y-135499000D01*
X114420000Y-135499000D02*
X114420000Y-135162000D01*
%TO.C,C36*%
X131980000Y-90050000D02*
X131980000Y-95290000D01*
X132317000Y-90050000D02*
X131980000Y-90050000D01*
X132317000Y-95290000D02*
X131980000Y-95290000D01*
X134720000Y-90050000D02*
X134383000Y-90050000D01*
X134720000Y-90050000D02*
X134720000Y-95290000D01*
X134720000Y-95290000D02*
X134383000Y-95290000D01*
%TD*%
D13*
X109260000Y-130319000D03*
X114260000Y-130319000D03*
X121920000Y-134129000D03*
X116920000Y-134129000D03*
X144780000Y-123825000D03*
X147320000Y-123825000D03*
X139065000Y-123825000D03*
X141605000Y-123825000D03*
X140335000Y-116840000D03*
X137795000Y-116840000D03*
X88900000Y-67855000D03*
X91440000Y-67855000D03*
X93980000Y-67855000D03*
X96520000Y-67855000D03*
X99060000Y-67855000D03*
X101600000Y-67855000D03*
X104140000Y-67855000D03*
X106680000Y-67855000D03*
X109220000Y-67855000D03*
X111760000Y-67855000D03*
X114300000Y-67855000D03*
X116840000Y-67855000D03*
X119380000Y-67855000D03*
X121920000Y-67855000D03*
X124460000Y-67855000D03*
X127000000Y-67855000D03*
X129540000Y-67855000D03*
X132080000Y-67855000D03*
X134620000Y-67855000D03*
X137160000Y-67855000D03*
X137160000Y-70395000D03*
X134620000Y-70395000D03*
X132080000Y-70395000D03*
X129540000Y-70395000D03*
X127000000Y-70395000D03*
X124460000Y-70395000D03*
X121920000Y-70395000D03*
X119380000Y-70395000D03*
X116840000Y-70395000D03*
X114300000Y-70395000D03*
X111760000Y-70395000D03*
X109220000Y-70395000D03*
X106680000Y-70395000D03*
X104140000Y-70395000D03*
X101600000Y-70395000D03*
X99060000Y-70395000D03*
X96520000Y-70395000D03*
X93980000Y-70395000D03*
X91440000Y-70395000D03*
X88900000Y-70395000D03*
X139015000Y-127000000D03*
X141555000Y-127000000D03*
X101600000Y-86995000D03*
X93980000Y-86995000D03*
X119380000Y-130319000D03*
X124380000Y-130319000D03*
X111760000Y-113030000D03*
X106860000Y-113030000D03*
X96520000Y-105410000D03*
X99060000Y-105410000D03*
X101600000Y-105410000D03*
X104140000Y-105410000D03*
X106680000Y-105410000D03*
X109220000Y-105410000D03*
X111760000Y-105410000D03*
X114300000Y-105410000D03*
X116840000Y-105410000D03*
X119380000Y-105410000D03*
X121920000Y-105410000D03*
X124460000Y-105410000D03*
X127000000Y-105410000D03*
X129540000Y-105410000D03*
X129540000Y-90170000D03*
X127000000Y-90170000D03*
X124460000Y-90170000D03*
X121920000Y-90170000D03*
X119380000Y-90170000D03*
X116840000Y-90170000D03*
X114300000Y-90170000D03*
X111760000Y-90170000D03*
X109220000Y-90170000D03*
X106680000Y-90170000D03*
X104140000Y-90170000D03*
X101600000Y-90170000D03*
X99060000Y-90170000D03*
X96520000Y-90170000D03*
X111760000Y-118110000D03*
X106760000Y-118110000D03*
X121920000Y-149329000D03*
X116920000Y-149329000D03*
X144730000Y-127000000D03*
X147270000Y-127000000D03*
X121920000Y-137939000D03*
X119380000Y-137939000D03*
X116840000Y-137939000D03*
X114300000Y-137939000D03*
X111760000Y-137939000D03*
X109220000Y-137939000D03*
X106680000Y-137939000D03*
X104140000Y-137939000D03*
X104140000Y-145559000D03*
X106680000Y-145559000D03*
X109220000Y-145559000D03*
X111760000Y-145559000D03*
X114300000Y-145559000D03*
X116840000Y-145559000D03*
X119380000Y-145559000D03*
X121920000Y-145559000D03*
X100730000Y-156989000D03*
X125730000Y-156989000D03*
X107690000Y-154149000D03*
X110460000Y-154149000D03*
X113230000Y-154149000D03*
X116000000Y-154149000D03*
X118770000Y-154149000D03*
X109075000Y-156989000D03*
X111845000Y-156989000D03*
X114615000Y-156989000D03*
X117385000Y-156989000D03*
X109270000Y-108535000D03*
X111810000Y-108535000D03*
X146000000Y-116840000D03*
X143460000Y-116840000D03*
X114300000Y-134129000D03*
X109300000Y-134129000D03*
X133350000Y-90170000D03*
X133350000Y-95170000D03*
M02*
