%TF.GenerationSoftware,KiCad,Pcbnew,9.0.2+dfsg-1*%
%TF.CreationDate,2026-09-13T22:14:18+02:00*%
%TF.ProjectId,acia-card,61636961-2d63-4617-9264-2e6b69636164,rev?*%
%TF.SameCoordinates,Original*%
%TF.FileFunction,Drillmap*%
%TF.FilePolarity,Positive*%
%FSLAX45Y45*%
G04 Gerber Fmt 4.5, Leading zero omitted, Abs format (unit mm)*
G04 Created by KiCad (PCBNEW 9.0.2+dfsg-1) date 2026-09-13 22:14:18*
%MOMM*%
%LPD*%
G01*
G04 APERTURE LIST*
%ADD10C,0.050000*%
%ADD11C,0.200000*%
%ADD12C,0.100000*%
%ADD13C,0.320000*%
G04 APERTURE END LIST*
D10*
X16319500Y-6350000D02*
X6350000Y-6350000D01*
X16319500Y-16319500D02*
X16319500Y-6350000D01*
X16319500Y-16319500D02*
X6350000Y-16319500D01*
X6350000Y-6350000D02*
X6350000Y-16319500D01*
D11*
D12*
X9002000Y-7859000D02*
X9032000Y-7889000D01*
X9032000Y-7859000D02*
X9002000Y-7889000D01*
X9319500Y-7732000D02*
X9349500Y-7762000D01*
X9349500Y-7732000D02*
X9319500Y-7762000D01*
X10335500Y-8240000D02*
X10365500Y-8270000D01*
X10365500Y-8240000D02*
X10335500Y-8270000D01*
X10335500Y-8494000D02*
X10365500Y-8524000D01*
X10365500Y-8494000D02*
X10335500Y-8524000D01*
X10399000Y-7414500D02*
X10429000Y-7444500D01*
X10429000Y-7414500D02*
X10399000Y-7444500D01*
X10399000Y-7668500D02*
X10429000Y-7698500D01*
X10429000Y-7668500D02*
X10399000Y-7698500D01*
X12304000Y-11478500D02*
X12334000Y-11508500D01*
X12334000Y-11478500D02*
X12304000Y-11508500D01*
X12431000Y-6462000D02*
X12461000Y-6492000D01*
X12461000Y-6462000D02*
X12431000Y-6492000D01*
X12558000Y-11478500D02*
X12588000Y-11508500D01*
X12588000Y-11478500D02*
X12558000Y-11508500D01*
X8475500Y-7493000D02*
G75*
G02*
X8415500Y-7493000I-30000J0D01*
G01*
X8415500Y-7493000D02*
G75*
G02*
X8475500Y-7493000I30000J0D01*
G01*
X8475500Y-11049000D02*
G75*
G02*
X8415500Y-11049000I-30000J0D01*
G01*
X8415500Y-11049000D02*
G75*
G02*
X8475500Y-11049000I30000J0D01*
G01*
X10927000Y-10818500D02*
X10927000Y-10888500D01*
X10892000Y-10853500D02*
X10962000Y-10853500D01*
X11181000Y-10818500D02*
X11181000Y-10888500D01*
X11146000Y-10853500D02*
X11216000Y-10853500D01*
X13779500Y-11649000D02*
X13779500Y-11719000D01*
X13744500Y-11684000D02*
X13814500Y-11684000D01*
X13906500Y-12347500D02*
X13906500Y-12417500D01*
X13871500Y-12382500D02*
X13941500Y-12382500D01*
X14033500Y-11649000D02*
X14033500Y-11719000D01*
X13998500Y-11684000D02*
X14068500Y-11684000D01*
X14160500Y-12347500D02*
X14160500Y-12417500D01*
X14125500Y-12382500D02*
X14195500Y-12382500D01*
X14346000Y-11649000D02*
X14346000Y-11719000D01*
X14311000Y-11684000D02*
X14381000Y-11684000D01*
X14478000Y-12347500D02*
X14478000Y-12417500D01*
X14443000Y-12382500D02*
X14513000Y-12382500D01*
X14600000Y-11649000D02*
X14600000Y-11719000D01*
X14565000Y-11684000D02*
X14635000Y-11684000D01*
X14732000Y-12347500D02*
X14732000Y-12417500D01*
X14697000Y-12382500D02*
X14767000Y-12382500D01*
X9426285Y-8727785D02*
X9426285Y-8671216D01*
X9369716Y-8671216D01*
X9369716Y-8727785D01*
X9426285Y-8727785D01*
X9680285Y-9045285D02*
X9680285Y-8988716D01*
X9623716Y-8988716D01*
X9623716Y-9045285D01*
X9680285Y-9045285D01*
X9680285Y-10569285D02*
X9680285Y-10512716D01*
X9623716Y-10512716D01*
X9623716Y-10569285D01*
X9680285Y-10569285D01*
X9934285Y-9045285D02*
X9934285Y-8988716D01*
X9877716Y-8988716D01*
X9877716Y-9045285D01*
X9934285Y-9045285D01*
X9934285Y-10569285D02*
X9934285Y-10512716D01*
X9877716Y-10512716D01*
X9877716Y-10569285D01*
X9934285Y-10569285D01*
X10188285Y-8727785D02*
X10188285Y-8671216D01*
X10131716Y-8671216D01*
X10131716Y-8727785D01*
X10188285Y-8727785D01*
X10188285Y-9045285D02*
X10188285Y-8988716D01*
X10131716Y-8988716D01*
X10131716Y-9045285D01*
X10188285Y-9045285D01*
X10188285Y-10569285D02*
X10188285Y-10512716D01*
X10131716Y-10512716D01*
X10131716Y-10569285D01*
X10188285Y-10569285D01*
X10442285Y-9045285D02*
X10442285Y-8988716D01*
X10385716Y-8988716D01*
X10385716Y-9045285D01*
X10442285Y-9045285D01*
X10442285Y-10569285D02*
X10442285Y-10512716D01*
X10385716Y-10512716D01*
X10385716Y-10569285D01*
X10442285Y-10569285D01*
X10442285Y-13822184D02*
X10442285Y-13765615D01*
X10385716Y-13765615D01*
X10385716Y-13822184D01*
X10442285Y-13822184D01*
X10442285Y-14584184D02*
X10442285Y-14527615D01*
X10385716Y-14527615D01*
X10385716Y-14584184D01*
X10442285Y-14584184D01*
X10696285Y-9045285D02*
X10696285Y-8988716D01*
X10639716Y-8988716D01*
X10639716Y-9045285D01*
X10696285Y-9045285D01*
X10696285Y-10569285D02*
X10696285Y-10512716D01*
X10639716Y-10512716D01*
X10639716Y-10569285D01*
X10696285Y-10569285D01*
X10696285Y-13822184D02*
X10696285Y-13765615D01*
X10639716Y-13765615D01*
X10639716Y-13822184D01*
X10696285Y-13822184D01*
X10696285Y-14584184D02*
X10696285Y-14527615D01*
X10639716Y-14527615D01*
X10639716Y-14584184D01*
X10696285Y-14584184D01*
X10704285Y-11839284D02*
X10704285Y-11782715D01*
X10647716Y-11782715D01*
X10647716Y-11839284D01*
X10704285Y-11839284D01*
X10714285Y-11331284D02*
X10714285Y-11274715D01*
X10657716Y-11274715D01*
X10657716Y-11331284D01*
X10714285Y-11331284D01*
X10950285Y-9045285D02*
X10950285Y-8988716D01*
X10893716Y-8988716D01*
X10893716Y-9045285D01*
X10950285Y-9045285D01*
X10950285Y-10569285D02*
X10950285Y-10512716D01*
X10893716Y-10512716D01*
X10893716Y-10569285D01*
X10950285Y-10569285D01*
X10950285Y-13822184D02*
X10950285Y-13765615D01*
X10893716Y-13765615D01*
X10893716Y-13822184D01*
X10950285Y-13822184D01*
X10950285Y-14584184D02*
X10950285Y-14527615D01*
X10893716Y-14527615D01*
X10893716Y-14584184D01*
X10950285Y-14584184D01*
X10954285Y-13060184D02*
X10954285Y-13003615D01*
X10897716Y-13003615D01*
X10897716Y-13060184D01*
X10954285Y-13060184D01*
X10958285Y-13441184D02*
X10958285Y-13384615D01*
X10901716Y-13384615D01*
X10901716Y-13441184D01*
X10958285Y-13441184D01*
X11204284Y-9045285D02*
X11204284Y-8988716D01*
X11147716Y-8988716D01*
X11147716Y-9045285D01*
X11204284Y-9045285D01*
X11204284Y-10569285D02*
X11204284Y-10512716D01*
X11147716Y-10512716D01*
X11147716Y-10569285D01*
X11204284Y-10569285D01*
X11204284Y-11331284D02*
X11204284Y-11274715D01*
X11147716Y-11274715D01*
X11147716Y-11331284D01*
X11204284Y-11331284D01*
X11204284Y-11839284D02*
X11204284Y-11782715D01*
X11147716Y-11782715D01*
X11147716Y-11839284D01*
X11204284Y-11839284D01*
X11204284Y-13822184D02*
X11204284Y-13765615D01*
X11147716Y-13765615D01*
X11147716Y-13822184D01*
X11204284Y-13822184D01*
X11204284Y-14584184D02*
X11204284Y-14527615D01*
X11147716Y-14527615D01*
X11147716Y-14584184D01*
X11204284Y-14584184D01*
X11454284Y-13060184D02*
X11454284Y-13003615D01*
X11397715Y-13003615D01*
X11397715Y-13060184D01*
X11454284Y-13060184D01*
X11458284Y-9045285D02*
X11458284Y-8988716D01*
X11401715Y-8988716D01*
X11401715Y-9045285D01*
X11458284Y-9045285D01*
X11458284Y-10569285D02*
X11458284Y-10512716D01*
X11401715Y-10512716D01*
X11401715Y-10569285D01*
X11458284Y-10569285D01*
X11458284Y-13441184D02*
X11458284Y-13384615D01*
X11401715Y-13384615D01*
X11401715Y-13441184D01*
X11458284Y-13441184D01*
X11458284Y-13822184D02*
X11458284Y-13765615D01*
X11401715Y-13765615D01*
X11401715Y-13822184D01*
X11458284Y-13822184D01*
X11458284Y-14584184D02*
X11458284Y-14527615D01*
X11401715Y-14527615D01*
X11401715Y-14584184D01*
X11458284Y-14584184D01*
X11712284Y-9045285D02*
X11712284Y-8988716D01*
X11655715Y-8988716D01*
X11655715Y-9045285D01*
X11712284Y-9045285D01*
X11712284Y-10569285D02*
X11712284Y-10512716D01*
X11655715Y-10512716D01*
X11655715Y-10569285D01*
X11712284Y-10569285D01*
X11712284Y-13822184D02*
X11712284Y-13765615D01*
X11655715Y-13765615D01*
X11655715Y-13822184D01*
X11712284Y-13822184D01*
X11712284Y-14584184D02*
X11712284Y-14527615D01*
X11655715Y-14527615D01*
X11655715Y-14584184D01*
X11712284Y-14584184D01*
X11720284Y-13441184D02*
X11720284Y-13384615D01*
X11663715Y-13384615D01*
X11663715Y-13441184D01*
X11720284Y-13441184D01*
X11720284Y-14961184D02*
X11720284Y-14904615D01*
X11663715Y-14904615D01*
X11663715Y-14961184D01*
X11720284Y-14961184D01*
X11966284Y-9045285D02*
X11966284Y-8988716D01*
X11909715Y-8988716D01*
X11909715Y-9045285D01*
X11966284Y-9045285D01*
X11966284Y-10569285D02*
X11966284Y-10512716D01*
X11909715Y-10512716D01*
X11909715Y-10569285D01*
X11966284Y-10569285D01*
X11966284Y-13060184D02*
X11966284Y-13003615D01*
X11909715Y-13003615D01*
X11909715Y-13060184D01*
X11966284Y-13060184D01*
X11966284Y-13822184D02*
X11966284Y-13765615D01*
X11909715Y-13765615D01*
X11909715Y-13822184D01*
X11966284Y-13822184D01*
X11966284Y-14584184D02*
X11966284Y-14527615D01*
X11909715Y-14527615D01*
X11909715Y-14584184D01*
X11966284Y-14584184D01*
X12220284Y-9045285D02*
X12220284Y-8988716D01*
X12163715Y-8988716D01*
X12163715Y-9045285D01*
X12220284Y-9045285D01*
X12220284Y-10569285D02*
X12220284Y-10512716D01*
X12163715Y-10512716D01*
X12163715Y-10569285D01*
X12220284Y-10569285D01*
X12220284Y-13441184D02*
X12220284Y-13384615D01*
X12163715Y-13384615D01*
X12163715Y-13441184D01*
X12220284Y-13441184D01*
X12220284Y-13822184D02*
X12220284Y-13765615D01*
X12163715Y-13765615D01*
X12163715Y-13822184D01*
X12220284Y-13822184D01*
X12220284Y-14584184D02*
X12220284Y-14527615D01*
X12163715Y-14527615D01*
X12163715Y-14584184D01*
X12220284Y-14584184D01*
X12220284Y-14961184D02*
X12220284Y-14904615D01*
X12163715Y-14904615D01*
X12163715Y-14961184D01*
X12220284Y-14961184D01*
X12466284Y-13060184D02*
X12466284Y-13003615D01*
X12409715Y-13003615D01*
X12409715Y-13060184D01*
X12466284Y-13060184D01*
X12474284Y-9045285D02*
X12474284Y-8988716D01*
X12417715Y-8988716D01*
X12417715Y-9045285D01*
X12474284Y-9045285D01*
X12474284Y-10569285D02*
X12474284Y-10512716D01*
X12417715Y-10512716D01*
X12417715Y-10569285D01*
X12474284Y-10569285D01*
X12728284Y-9045285D02*
X12728284Y-8988716D01*
X12671715Y-8988716D01*
X12671715Y-9045285D01*
X12728284Y-9045285D01*
X12728284Y-10569285D02*
X12728284Y-10512716D01*
X12671715Y-10512716D01*
X12671715Y-10569285D01*
X12728284Y-10569285D01*
X12982284Y-9045285D02*
X12982284Y-8988716D01*
X12925715Y-8988716D01*
X12925715Y-9045285D01*
X12982284Y-9045285D01*
X12982284Y-10569285D02*
X12982284Y-10512716D01*
X12925715Y-10512716D01*
X12925715Y-10569285D01*
X12982284Y-10569285D01*
X13363284Y-9045285D02*
X13363284Y-8988716D01*
X13306715Y-8988716D01*
X13306715Y-9045285D01*
X13363284Y-9045285D01*
X13363284Y-9545285D02*
X13363284Y-9488716D01*
X13306715Y-9488716D01*
X13306715Y-9545285D01*
X13363284Y-9545285D01*
X13901500Y-12745000D02*
X13946500Y-12700000D01*
X13901500Y-12655000D01*
X13856500Y-12700000D01*
X13901500Y-12745000D01*
X14155500Y-12745000D02*
X14200500Y-12700000D01*
X14155500Y-12655000D01*
X14110500Y-12700000D01*
X14155500Y-12745000D01*
X14473000Y-12745000D02*
X14518000Y-12700000D01*
X14473000Y-12655000D01*
X14428000Y-12700000D01*
X14473000Y-12745000D01*
X14727000Y-12745000D02*
X14772000Y-12700000D01*
X14727000Y-12655000D01*
X14682000Y-12700000D01*
X14727000Y-12745000D01*
X8840000Y-6735500D02*
X8940000Y-6835500D01*
X8940000Y-6735500D02*
X8840000Y-6835500D01*
X8940000Y-6785500D02*
G75*
G02*
X8840000Y-6785500I-50000J0D01*
G01*
X8840000Y-6785500D02*
G75*
G02*
X8940000Y-6785500I50000J0D01*
G01*
X8840000Y-6989500D02*
X8940000Y-7089500D01*
X8940000Y-6989500D02*
X8840000Y-7089500D01*
X8940000Y-7039500D02*
G75*
G02*
X8840000Y-7039500I-50000J0D01*
G01*
X8840000Y-7039500D02*
G75*
G02*
X8940000Y-7039500I50000J0D01*
G01*
X9094000Y-6735500D02*
X9194000Y-6835500D01*
X9194000Y-6735500D02*
X9094000Y-6835500D01*
X9194000Y-6785500D02*
G75*
G02*
X9094000Y-6785500I-50000J0D01*
G01*
X9094000Y-6785500D02*
G75*
G02*
X9194000Y-6785500I50000J0D01*
G01*
X9094000Y-6989500D02*
X9194000Y-7089500D01*
X9194000Y-6989500D02*
X9094000Y-7089500D01*
X9194000Y-7039500D02*
G75*
G02*
X9094000Y-7039500I-50000J0D01*
G01*
X9094000Y-7039500D02*
G75*
G02*
X9194000Y-7039500I50000J0D01*
G01*
X9348000Y-6735500D02*
X9448000Y-6835500D01*
X9448000Y-6735500D02*
X9348000Y-6835500D01*
X9448000Y-6785500D02*
G75*
G02*
X9348000Y-6785500I-50000J0D01*
G01*
X9348000Y-6785500D02*
G75*
G02*
X9448000Y-6785500I50000J0D01*
G01*
X9348000Y-6989500D02*
X9448000Y-7089500D01*
X9448000Y-6989500D02*
X9348000Y-7089500D01*
X9448000Y-7039500D02*
G75*
G02*
X9348000Y-7039500I-50000J0D01*
G01*
X9348000Y-7039500D02*
G75*
G02*
X9448000Y-7039500I50000J0D01*
G01*
X9602000Y-6735500D02*
X9702000Y-6835500D01*
X9702000Y-6735500D02*
X9602000Y-6835500D01*
X9702000Y-6785500D02*
G75*
G02*
X9602000Y-6785500I-50000J0D01*
G01*
X9602000Y-6785500D02*
G75*
G02*
X9702000Y-6785500I50000J0D01*
G01*
X9602000Y-6989500D02*
X9702000Y-7089500D01*
X9702000Y-6989500D02*
X9602000Y-7089500D01*
X9702000Y-7039500D02*
G75*
G02*
X9602000Y-7039500I-50000J0D01*
G01*
X9602000Y-7039500D02*
G75*
G02*
X9702000Y-7039500I50000J0D01*
G01*
X9856000Y-6735500D02*
X9956000Y-6835500D01*
X9956000Y-6735500D02*
X9856000Y-6835500D01*
X9956000Y-6785500D02*
G75*
G02*
X9856000Y-6785500I-50000J0D01*
G01*
X9856000Y-6785500D02*
G75*
G02*
X9956000Y-6785500I50000J0D01*
G01*
X9856000Y-6989500D02*
X9956000Y-7089500D01*
X9956000Y-6989500D02*
X9856000Y-7089500D01*
X9956000Y-7039500D02*
G75*
G02*
X9856000Y-7039500I-50000J0D01*
G01*
X9856000Y-7039500D02*
G75*
G02*
X9956000Y-7039500I50000J0D01*
G01*
X10110000Y-6735500D02*
X10210000Y-6835500D01*
X10210000Y-6735500D02*
X10110000Y-6835500D01*
X10210000Y-6785500D02*
G75*
G02*
X10110000Y-6785500I-50000J0D01*
G01*
X10110000Y-6785500D02*
G75*
G02*
X10210000Y-6785500I50000J0D01*
G01*
X10110000Y-6989500D02*
X10210000Y-7089500D01*
X10210000Y-6989500D02*
X10110000Y-7089500D01*
X10210000Y-7039500D02*
G75*
G02*
X10110000Y-7039500I-50000J0D01*
G01*
X10110000Y-7039500D02*
G75*
G02*
X10210000Y-7039500I50000J0D01*
G01*
X10364000Y-6735500D02*
X10464000Y-6835500D01*
X10464000Y-6735500D02*
X10364000Y-6835500D01*
X10464000Y-6785500D02*
G75*
G02*
X10364000Y-6785500I-50000J0D01*
G01*
X10364000Y-6785500D02*
G75*
G02*
X10464000Y-6785500I50000J0D01*
G01*
X10364000Y-6989500D02*
X10464000Y-7089500D01*
X10464000Y-6989500D02*
X10364000Y-7089500D01*
X10464000Y-7039500D02*
G75*
G02*
X10364000Y-7039500I-50000J0D01*
G01*
X10364000Y-7039500D02*
G75*
G02*
X10464000Y-7039500I50000J0D01*
G01*
X10618000Y-6735500D02*
X10718000Y-6835500D01*
X10718000Y-6735500D02*
X10618000Y-6835500D01*
X10718000Y-6785500D02*
G75*
G02*
X10618000Y-6785500I-50000J0D01*
G01*
X10618000Y-6785500D02*
G75*
G02*
X10718000Y-6785500I50000J0D01*
G01*
X10618000Y-6989500D02*
X10718000Y-7089500D01*
X10718000Y-6989500D02*
X10618000Y-7089500D01*
X10718000Y-7039500D02*
G75*
G02*
X10618000Y-7039500I-50000J0D01*
G01*
X10618000Y-7039500D02*
G75*
G02*
X10718000Y-7039500I50000J0D01*
G01*
X10719000Y-15364900D02*
X10819000Y-15464900D01*
X10819000Y-15364900D02*
X10719000Y-15464900D01*
X10819000Y-15414900D02*
G75*
G02*
X10719000Y-15414900I-50000J0D01*
G01*
X10719000Y-15414900D02*
G75*
G02*
X10819000Y-15414900I50000J0D01*
G01*
X10857500Y-15648900D02*
X10957500Y-15748900D01*
X10957500Y-15648900D02*
X10857500Y-15748900D01*
X10957500Y-15698900D02*
G75*
G02*
X10857500Y-15698900I-50000J0D01*
G01*
X10857500Y-15698900D02*
G75*
G02*
X10957500Y-15698900I50000J0D01*
G01*
X10872000Y-6735500D02*
X10972000Y-6835500D01*
X10972000Y-6735500D02*
X10872000Y-6835500D01*
X10972000Y-6785500D02*
G75*
G02*
X10872000Y-6785500I-50000J0D01*
G01*
X10872000Y-6785500D02*
G75*
G02*
X10972000Y-6785500I50000J0D01*
G01*
X10872000Y-6989500D02*
X10972000Y-7089500D01*
X10972000Y-6989500D02*
X10872000Y-7089500D01*
X10972000Y-7039500D02*
G75*
G02*
X10872000Y-7039500I-50000J0D01*
G01*
X10872000Y-7039500D02*
G75*
G02*
X10972000Y-7039500I50000J0D01*
G01*
X10996000Y-15364900D02*
X11096000Y-15464900D01*
X11096000Y-15364900D02*
X10996000Y-15464900D01*
X11096000Y-15414900D02*
G75*
G02*
X10996000Y-15414900I-50000J0D01*
G01*
X10996000Y-15414900D02*
G75*
G02*
X11096000Y-15414900I50000J0D01*
G01*
X11126000Y-6735500D02*
X11226000Y-6835500D01*
X11226000Y-6735500D02*
X11126000Y-6835500D01*
X11226000Y-6785500D02*
G75*
G02*
X11126000Y-6785500I-50000J0D01*
G01*
X11126000Y-6785500D02*
G75*
G02*
X11226000Y-6785500I50000J0D01*
G01*
X11126000Y-6989500D02*
X11226000Y-7089500D01*
X11226000Y-6989500D02*
X11126000Y-7089500D01*
X11226000Y-7039500D02*
G75*
G02*
X11126000Y-7039500I-50000J0D01*
G01*
X11126000Y-7039500D02*
G75*
G02*
X11226000Y-7039500I50000J0D01*
G01*
X11134500Y-15648900D02*
X11234500Y-15748900D01*
X11234500Y-15648900D02*
X11134500Y-15748900D01*
X11234500Y-15698900D02*
G75*
G02*
X11134500Y-15698900I-50000J0D01*
G01*
X11134500Y-15698900D02*
G75*
G02*
X11234500Y-15698900I50000J0D01*
G01*
X11273000Y-15364900D02*
X11373000Y-15464900D01*
X11373000Y-15364900D02*
X11273000Y-15464900D01*
X11373000Y-15414900D02*
G75*
G02*
X11273000Y-15414900I-50000J0D01*
G01*
X11273000Y-15414900D02*
G75*
G02*
X11373000Y-15414900I50000J0D01*
G01*
X11380000Y-6735500D02*
X11480000Y-6835500D01*
X11480000Y-6735500D02*
X11380000Y-6835500D01*
X11480000Y-6785500D02*
G75*
G02*
X11380000Y-6785500I-50000J0D01*
G01*
X11380000Y-6785500D02*
G75*
G02*
X11480000Y-6785500I50000J0D01*
G01*
X11380000Y-6989500D02*
X11480000Y-7089500D01*
X11480000Y-6989500D02*
X11380000Y-7089500D01*
X11480000Y-7039500D02*
G75*
G02*
X11380000Y-7039500I-50000J0D01*
G01*
X11380000Y-7039500D02*
G75*
G02*
X11480000Y-7039500I50000J0D01*
G01*
X11411500Y-15648900D02*
X11511500Y-15748900D01*
X11511500Y-15648900D02*
X11411500Y-15748900D01*
X11511500Y-15698900D02*
G75*
G02*
X11411500Y-15698900I-50000J0D01*
G01*
X11411500Y-15698900D02*
G75*
G02*
X11511500Y-15698900I50000J0D01*
G01*
X11550000Y-15364900D02*
X11650000Y-15464900D01*
X11650000Y-15364900D02*
X11550000Y-15464900D01*
X11650000Y-15414900D02*
G75*
G02*
X11550000Y-15414900I-50000J0D01*
G01*
X11550000Y-15414900D02*
G75*
G02*
X11650000Y-15414900I50000J0D01*
G01*
X11634000Y-6735500D02*
X11734000Y-6835500D01*
X11734000Y-6735500D02*
X11634000Y-6835500D01*
X11734000Y-6785500D02*
G75*
G02*
X11634000Y-6785500I-50000J0D01*
G01*
X11634000Y-6785500D02*
G75*
G02*
X11734000Y-6785500I50000J0D01*
G01*
X11634000Y-6989500D02*
X11734000Y-7089500D01*
X11734000Y-6989500D02*
X11634000Y-7089500D01*
X11734000Y-7039500D02*
G75*
G02*
X11634000Y-7039500I-50000J0D01*
G01*
X11634000Y-7039500D02*
G75*
G02*
X11734000Y-7039500I50000J0D01*
G01*
X11688500Y-15648900D02*
X11788500Y-15748900D01*
X11788500Y-15648900D02*
X11688500Y-15748900D01*
X11788500Y-15698900D02*
G75*
G02*
X11688500Y-15698900I-50000J0D01*
G01*
X11688500Y-15698900D02*
G75*
G02*
X11788500Y-15698900I50000J0D01*
G01*
X11827000Y-15364900D02*
X11927000Y-15464900D01*
X11927000Y-15364900D02*
X11827000Y-15464900D01*
X11927000Y-15414900D02*
G75*
G02*
X11827000Y-15414900I-50000J0D01*
G01*
X11827000Y-15414900D02*
G75*
G02*
X11927000Y-15414900I50000J0D01*
G01*
X11888000Y-6735500D02*
X11988000Y-6835500D01*
X11988000Y-6735500D02*
X11888000Y-6835500D01*
X11988000Y-6785500D02*
G75*
G02*
X11888000Y-6785500I-50000J0D01*
G01*
X11888000Y-6785500D02*
G75*
G02*
X11988000Y-6785500I50000J0D01*
G01*
X11888000Y-6989500D02*
X11988000Y-7089500D01*
X11988000Y-6989500D02*
X11888000Y-7089500D01*
X11988000Y-7039500D02*
G75*
G02*
X11888000Y-7039500I-50000J0D01*
G01*
X11888000Y-7039500D02*
G75*
G02*
X11988000Y-7039500I50000J0D01*
G01*
X12142000Y-6735500D02*
X12242000Y-6835500D01*
X12242000Y-6735500D02*
X12142000Y-6835500D01*
X12242000Y-6785500D02*
G75*
G02*
X12142000Y-6785500I-50000J0D01*
G01*
X12142000Y-6785500D02*
G75*
G02*
X12242000Y-6785500I50000J0D01*
G01*
X12142000Y-6989500D02*
X12242000Y-7089500D01*
X12242000Y-6989500D02*
X12142000Y-7089500D01*
X12242000Y-7039500D02*
G75*
G02*
X12142000Y-7039500I-50000J0D01*
G01*
X12142000Y-7039500D02*
G75*
G02*
X12242000Y-7039500I50000J0D01*
G01*
X12396000Y-6735500D02*
X12496000Y-6835500D01*
X12496000Y-6735500D02*
X12396000Y-6835500D01*
X12496000Y-6785500D02*
G75*
G02*
X12396000Y-6785500I-50000J0D01*
G01*
X12396000Y-6785500D02*
G75*
G02*
X12496000Y-6785500I50000J0D01*
G01*
X12396000Y-6989500D02*
X12496000Y-7089500D01*
X12496000Y-6989500D02*
X12396000Y-7089500D01*
X12496000Y-7039500D02*
G75*
G02*
X12396000Y-7039500I-50000J0D01*
G01*
X12396000Y-7039500D02*
G75*
G02*
X12496000Y-7039500I50000J0D01*
G01*
X12650000Y-6735500D02*
X12750000Y-6835500D01*
X12750000Y-6735500D02*
X12650000Y-6835500D01*
X12750000Y-6785500D02*
G75*
G02*
X12650000Y-6785500I-50000J0D01*
G01*
X12650000Y-6785500D02*
G75*
G02*
X12750000Y-6785500I50000J0D01*
G01*
X12650000Y-6989500D02*
X12750000Y-7089500D01*
X12750000Y-6989500D02*
X12650000Y-7089500D01*
X12750000Y-7039500D02*
G75*
G02*
X12650000Y-7039500I-50000J0D01*
G01*
X12650000Y-7039500D02*
G75*
G02*
X12750000Y-7039500I50000J0D01*
G01*
X12904000Y-6735500D02*
X13004000Y-6835500D01*
X13004000Y-6735500D02*
X12904000Y-6835500D01*
X13004000Y-6785500D02*
G75*
G02*
X12904000Y-6785500I-50000J0D01*
G01*
X12904000Y-6785500D02*
G75*
G02*
X13004000Y-6785500I50000J0D01*
G01*
X12904000Y-6989500D02*
X13004000Y-7089500D01*
X13004000Y-6989500D02*
X12904000Y-7089500D01*
X13004000Y-7039500D02*
G75*
G02*
X12904000Y-7039500I-50000J0D01*
G01*
X12904000Y-7039500D02*
G75*
G02*
X13004000Y-7039500I50000J0D01*
G01*
X13158000Y-6735500D02*
X13258000Y-6835500D01*
X13258000Y-6735500D02*
X13158000Y-6835500D01*
X13258000Y-6785500D02*
G75*
G02*
X13158000Y-6785500I-50000J0D01*
G01*
X13158000Y-6785500D02*
G75*
G02*
X13258000Y-6785500I50000J0D01*
G01*
X13158000Y-6989500D02*
X13258000Y-7089500D01*
X13258000Y-6989500D02*
X13158000Y-7089500D01*
X13258000Y-7039500D02*
G75*
G02*
X13158000Y-7039500I-50000J0D01*
G01*
X13158000Y-7039500D02*
G75*
G02*
X13258000Y-7039500I50000J0D01*
G01*
X13412000Y-6735500D02*
X13512000Y-6835500D01*
X13512000Y-6735500D02*
X13412000Y-6835500D01*
X13512000Y-6785500D02*
G75*
G02*
X13412000Y-6785500I-50000J0D01*
G01*
X13412000Y-6785500D02*
G75*
G02*
X13512000Y-6785500I50000J0D01*
G01*
X13412000Y-6989500D02*
X13512000Y-7089500D01*
X13512000Y-6989500D02*
X13412000Y-7089500D01*
X13512000Y-7039500D02*
G75*
G02*
X13412000Y-7039500I-50000J0D01*
G01*
X13412000Y-7039500D02*
G75*
G02*
X13512000Y-7039500I50000J0D01*
G01*
X13666000Y-6735500D02*
X13766000Y-6835500D01*
X13766000Y-6735500D02*
X13666000Y-6835500D01*
X13766000Y-6785500D02*
G75*
G02*
X13666000Y-6785500I-50000J0D01*
G01*
X13666000Y-6785500D02*
G75*
G02*
X13766000Y-6785500I50000J0D01*
G01*
X13666000Y-6989500D02*
X13766000Y-7089500D01*
X13766000Y-6989500D02*
X13666000Y-7089500D01*
X13766000Y-7039500D02*
G75*
G02*
X13666000Y-7039500I-50000J0D01*
G01*
X13666000Y-7039500D02*
G75*
G02*
X13766000Y-7039500I50000J0D01*
G01*
D13*
X9913000Y-15538900D02*
X10233000Y-15858900D01*
X10233000Y-15538900D02*
X9913000Y-15858900D01*
X10073000Y-15538900D02*
X10073000Y-15858900D01*
X9913000Y-15698900D02*
X10233000Y-15698900D01*
X12413000Y-15538900D02*
X12733000Y-15858900D01*
X12733000Y-15538900D02*
X12413000Y-15858900D01*
X12573000Y-15538900D02*
X12573000Y-15858900D01*
X12413000Y-15698900D02*
X12733000Y-15698900D01*
D11*
X6608277Y-16633484D02*
X6608277Y-16433484D01*
X6608277Y-16433484D02*
X6655896Y-16433484D01*
X6655896Y-16433484D02*
X6684467Y-16443008D01*
X6684467Y-16443008D02*
X6703515Y-16462055D01*
X6703515Y-16462055D02*
X6713039Y-16481103D01*
X6713039Y-16481103D02*
X6722562Y-16519198D01*
X6722562Y-16519198D02*
X6722562Y-16547769D01*
X6722562Y-16547769D02*
X6713039Y-16585865D01*
X6713039Y-16585865D02*
X6703515Y-16604912D01*
X6703515Y-16604912D02*
X6684467Y-16623960D01*
X6684467Y-16623960D02*
X6655896Y-16633484D01*
X6655896Y-16633484D02*
X6608277Y-16633484D01*
X6808277Y-16633484D02*
X6808277Y-16500150D01*
X6808277Y-16538246D02*
X6817801Y-16519198D01*
X6817801Y-16519198D02*
X6827324Y-16509674D01*
X6827324Y-16509674D02*
X6846372Y-16500150D01*
X6846372Y-16500150D02*
X6865420Y-16500150D01*
X6932086Y-16633484D02*
X6932086Y-16500150D01*
X6932086Y-16433484D02*
X6922562Y-16443008D01*
X6922562Y-16443008D02*
X6932086Y-16452531D01*
X6932086Y-16452531D02*
X6941610Y-16443008D01*
X6941610Y-16443008D02*
X6932086Y-16433484D01*
X6932086Y-16433484D02*
X6932086Y-16452531D01*
X7055896Y-16633484D02*
X7036848Y-16623960D01*
X7036848Y-16623960D02*
X7027324Y-16604912D01*
X7027324Y-16604912D02*
X7027324Y-16433484D01*
X7160658Y-16633484D02*
X7141610Y-16623960D01*
X7141610Y-16623960D02*
X7132086Y-16604912D01*
X7132086Y-16604912D02*
X7132086Y-16433484D01*
X7389229Y-16633484D02*
X7389229Y-16433484D01*
X7389229Y-16433484D02*
X7455896Y-16576341D01*
X7455896Y-16576341D02*
X7522562Y-16433484D01*
X7522562Y-16433484D02*
X7522562Y-16633484D01*
X7703515Y-16633484D02*
X7703515Y-16528722D01*
X7703515Y-16528722D02*
X7693991Y-16509674D01*
X7693991Y-16509674D02*
X7674943Y-16500150D01*
X7674943Y-16500150D02*
X7636848Y-16500150D01*
X7636848Y-16500150D02*
X7617801Y-16509674D01*
X7703515Y-16623960D02*
X7684467Y-16633484D01*
X7684467Y-16633484D02*
X7636848Y-16633484D01*
X7636848Y-16633484D02*
X7617801Y-16623960D01*
X7617801Y-16623960D02*
X7608277Y-16604912D01*
X7608277Y-16604912D02*
X7608277Y-16585865D01*
X7608277Y-16585865D02*
X7617801Y-16566817D01*
X7617801Y-16566817D02*
X7636848Y-16557293D01*
X7636848Y-16557293D02*
X7684467Y-16557293D01*
X7684467Y-16557293D02*
X7703515Y-16547769D01*
X7798753Y-16500150D02*
X7798753Y-16700150D01*
X7798753Y-16509674D02*
X7817801Y-16500150D01*
X7817801Y-16500150D02*
X7855896Y-16500150D01*
X7855896Y-16500150D02*
X7874943Y-16509674D01*
X7874943Y-16509674D02*
X7884467Y-16519198D01*
X7884467Y-16519198D02*
X7893991Y-16538246D01*
X7893991Y-16538246D02*
X7893991Y-16595388D01*
X7893991Y-16595388D02*
X7884467Y-16614436D01*
X7884467Y-16614436D02*
X7874943Y-16623960D01*
X7874943Y-16623960D02*
X7855896Y-16633484D01*
X7855896Y-16633484D02*
X7817801Y-16633484D01*
X7817801Y-16633484D02*
X7798753Y-16623960D01*
X7979705Y-16614436D02*
X7989229Y-16623960D01*
X7989229Y-16623960D02*
X7979705Y-16633484D01*
X7979705Y-16633484D02*
X7970182Y-16623960D01*
X7970182Y-16623960D02*
X7979705Y-16614436D01*
X7979705Y-16614436D02*
X7979705Y-16633484D01*
X7979705Y-16509674D02*
X7989229Y-16519198D01*
X7989229Y-16519198D02*
X7979705Y-16528722D01*
X7979705Y-16528722D02*
X7970182Y-16519198D01*
X7970182Y-16519198D02*
X7979705Y-16509674D01*
X7979705Y-16509674D02*
X7979705Y-16528722D01*
D12*
X6317500Y-16947000D02*
X6347500Y-16977000D01*
X6347500Y-16947000D02*
X6317500Y-16977000D01*
D11*
X6646372Y-16853484D02*
X6665420Y-16853484D01*
X6665420Y-16853484D02*
X6684467Y-16863008D01*
X6684467Y-16863008D02*
X6693991Y-16872531D01*
X6693991Y-16872531D02*
X6703515Y-16891579D01*
X6703515Y-16891579D02*
X6713039Y-16929674D01*
X6713039Y-16929674D02*
X6713039Y-16977293D01*
X6713039Y-16977293D02*
X6703515Y-17015389D01*
X6703515Y-17015389D02*
X6693991Y-17034436D01*
X6693991Y-17034436D02*
X6684467Y-17043960D01*
X6684467Y-17043960D02*
X6665420Y-17053484D01*
X6665420Y-17053484D02*
X6646372Y-17053484D01*
X6646372Y-17053484D02*
X6627324Y-17043960D01*
X6627324Y-17043960D02*
X6617801Y-17034436D01*
X6617801Y-17034436D02*
X6608277Y-17015389D01*
X6608277Y-17015389D02*
X6598753Y-16977293D01*
X6598753Y-16977293D02*
X6598753Y-16929674D01*
X6598753Y-16929674D02*
X6608277Y-16891579D01*
X6608277Y-16891579D02*
X6617801Y-16872531D01*
X6617801Y-16872531D02*
X6627324Y-16863008D01*
X6627324Y-16863008D02*
X6646372Y-16853484D01*
X6798753Y-17034436D02*
X6808277Y-17043960D01*
X6808277Y-17043960D02*
X6798753Y-17053484D01*
X6798753Y-17053484D02*
X6789229Y-17043960D01*
X6789229Y-17043960D02*
X6798753Y-17034436D01*
X6798753Y-17034436D02*
X6798753Y-17053484D01*
X6874943Y-16853484D02*
X6998753Y-16853484D01*
X6998753Y-16853484D02*
X6932086Y-16929674D01*
X6932086Y-16929674D02*
X6960658Y-16929674D01*
X6960658Y-16929674D02*
X6979705Y-16939198D01*
X6979705Y-16939198D02*
X6989229Y-16948722D01*
X6989229Y-16948722D02*
X6998753Y-16967770D01*
X6998753Y-16967770D02*
X6998753Y-17015389D01*
X6998753Y-17015389D02*
X6989229Y-17034436D01*
X6989229Y-17034436D02*
X6979705Y-17043960D01*
X6979705Y-17043960D02*
X6960658Y-17053484D01*
X6960658Y-17053484D02*
X6903515Y-17053484D01*
X6903515Y-17053484D02*
X6884467Y-17043960D01*
X6884467Y-17043960D02*
X6874943Y-17034436D01*
X7122562Y-16853484D02*
X7141610Y-16853484D01*
X7141610Y-16853484D02*
X7160658Y-16863008D01*
X7160658Y-16863008D02*
X7170182Y-16872531D01*
X7170182Y-16872531D02*
X7179705Y-16891579D01*
X7179705Y-16891579D02*
X7189229Y-16929674D01*
X7189229Y-16929674D02*
X7189229Y-16977293D01*
X7189229Y-16977293D02*
X7179705Y-17015389D01*
X7179705Y-17015389D02*
X7170182Y-17034436D01*
X7170182Y-17034436D02*
X7160658Y-17043960D01*
X7160658Y-17043960D02*
X7141610Y-17053484D01*
X7141610Y-17053484D02*
X7122562Y-17053484D01*
X7122562Y-17053484D02*
X7103515Y-17043960D01*
X7103515Y-17043960D02*
X7093991Y-17034436D01*
X7093991Y-17034436D02*
X7084467Y-17015389D01*
X7084467Y-17015389D02*
X7074943Y-16977293D01*
X7074943Y-16977293D02*
X7074943Y-16929674D01*
X7074943Y-16929674D02*
X7084467Y-16891579D01*
X7084467Y-16891579D02*
X7093991Y-16872531D01*
X7093991Y-16872531D02*
X7103515Y-16863008D01*
X7103515Y-16863008D02*
X7122562Y-16853484D01*
X7313039Y-16853484D02*
X7332086Y-16853484D01*
X7332086Y-16853484D02*
X7351134Y-16863008D01*
X7351134Y-16863008D02*
X7360658Y-16872531D01*
X7360658Y-16872531D02*
X7370182Y-16891579D01*
X7370182Y-16891579D02*
X7379705Y-16929674D01*
X7379705Y-16929674D02*
X7379705Y-16977293D01*
X7379705Y-16977293D02*
X7370182Y-17015389D01*
X7370182Y-17015389D02*
X7360658Y-17034436D01*
X7360658Y-17034436D02*
X7351134Y-17043960D01*
X7351134Y-17043960D02*
X7332086Y-17053484D01*
X7332086Y-17053484D02*
X7313039Y-17053484D01*
X7313039Y-17053484D02*
X7293991Y-17043960D01*
X7293991Y-17043960D02*
X7284467Y-17034436D01*
X7284467Y-17034436D02*
X7274943Y-17015389D01*
X7274943Y-17015389D02*
X7265420Y-16977293D01*
X7265420Y-16977293D02*
X7265420Y-16929674D01*
X7265420Y-16929674D02*
X7274943Y-16891579D01*
X7274943Y-16891579D02*
X7284467Y-16872531D01*
X7284467Y-16872531D02*
X7293991Y-16863008D01*
X7293991Y-16863008D02*
X7313039Y-16853484D01*
X7465420Y-17053484D02*
X7465420Y-16920150D01*
X7465420Y-16939198D02*
X7474943Y-16929674D01*
X7474943Y-16929674D02*
X7493991Y-16920150D01*
X7493991Y-16920150D02*
X7522563Y-16920150D01*
X7522563Y-16920150D02*
X7541610Y-16929674D01*
X7541610Y-16929674D02*
X7551134Y-16948722D01*
X7551134Y-16948722D02*
X7551134Y-17053484D01*
X7551134Y-16948722D02*
X7560658Y-16929674D01*
X7560658Y-16929674D02*
X7579705Y-16920150D01*
X7579705Y-16920150D02*
X7608277Y-16920150D01*
X7608277Y-16920150D02*
X7627324Y-16929674D01*
X7627324Y-16929674D02*
X7636848Y-16948722D01*
X7636848Y-16948722D02*
X7636848Y-17053484D01*
X7732086Y-17053484D02*
X7732086Y-16920150D01*
X7732086Y-16939198D02*
X7741610Y-16929674D01*
X7741610Y-16929674D02*
X7760658Y-16920150D01*
X7760658Y-16920150D02*
X7789229Y-16920150D01*
X7789229Y-16920150D02*
X7808277Y-16929674D01*
X7808277Y-16929674D02*
X7817801Y-16948722D01*
X7817801Y-16948722D02*
X7817801Y-17053484D01*
X7817801Y-16948722D02*
X7827324Y-16929674D01*
X7827324Y-16929674D02*
X7846372Y-16920150D01*
X7846372Y-16920150D02*
X7874943Y-16920150D01*
X7874943Y-16920150D02*
X7893991Y-16929674D01*
X7893991Y-16929674D02*
X7903515Y-16948722D01*
X7903515Y-16948722D02*
X7903515Y-17053484D01*
X8293991Y-16843960D02*
X8122563Y-17101103D01*
X8551134Y-16853484D02*
X8570182Y-16853484D01*
X8570182Y-16853484D02*
X8589229Y-16863008D01*
X8589229Y-16863008D02*
X8598753Y-16872531D01*
X8598753Y-16872531D02*
X8608277Y-16891579D01*
X8608277Y-16891579D02*
X8617801Y-16929674D01*
X8617801Y-16929674D02*
X8617801Y-16977293D01*
X8617801Y-16977293D02*
X8608277Y-17015389D01*
X8608277Y-17015389D02*
X8598753Y-17034436D01*
X8598753Y-17034436D02*
X8589229Y-17043960D01*
X8589229Y-17043960D02*
X8570182Y-17053484D01*
X8570182Y-17053484D02*
X8551134Y-17053484D01*
X8551134Y-17053484D02*
X8532087Y-17043960D01*
X8532087Y-17043960D02*
X8522563Y-17034436D01*
X8522563Y-17034436D02*
X8513039Y-17015389D01*
X8513039Y-17015389D02*
X8503515Y-16977293D01*
X8503515Y-16977293D02*
X8503515Y-16929674D01*
X8503515Y-16929674D02*
X8513039Y-16891579D01*
X8513039Y-16891579D02*
X8522563Y-16872531D01*
X8522563Y-16872531D02*
X8532087Y-16863008D01*
X8532087Y-16863008D02*
X8551134Y-16853484D01*
X8703515Y-17034436D02*
X8713039Y-17043960D01*
X8713039Y-17043960D02*
X8703515Y-17053484D01*
X8703515Y-17053484D02*
X8693991Y-17043960D01*
X8693991Y-17043960D02*
X8703515Y-17034436D01*
X8703515Y-17034436D02*
X8703515Y-17053484D01*
X8836848Y-16853484D02*
X8855896Y-16853484D01*
X8855896Y-16853484D02*
X8874944Y-16863008D01*
X8874944Y-16863008D02*
X8884468Y-16872531D01*
X8884468Y-16872531D02*
X8893991Y-16891579D01*
X8893991Y-16891579D02*
X8903515Y-16929674D01*
X8903515Y-16929674D02*
X8903515Y-16977293D01*
X8903515Y-16977293D02*
X8893991Y-17015389D01*
X8893991Y-17015389D02*
X8884468Y-17034436D01*
X8884468Y-17034436D02*
X8874944Y-17043960D01*
X8874944Y-17043960D02*
X8855896Y-17053484D01*
X8855896Y-17053484D02*
X8836848Y-17053484D01*
X8836848Y-17053484D02*
X8817801Y-17043960D01*
X8817801Y-17043960D02*
X8808277Y-17034436D01*
X8808277Y-17034436D02*
X8798753Y-17015389D01*
X8798753Y-17015389D02*
X8789229Y-16977293D01*
X8789229Y-16977293D02*
X8789229Y-16929674D01*
X8789229Y-16929674D02*
X8798753Y-16891579D01*
X8798753Y-16891579D02*
X8808277Y-16872531D01*
X8808277Y-16872531D02*
X8817801Y-16863008D01*
X8817801Y-16863008D02*
X8836848Y-16853484D01*
X9093991Y-17053484D02*
X8979706Y-17053484D01*
X9036848Y-17053484D02*
X9036848Y-16853484D01*
X9036848Y-16853484D02*
X9017801Y-16882055D01*
X9017801Y-16882055D02*
X8998753Y-16901103D01*
X8998753Y-16901103D02*
X8979706Y-16910627D01*
X9284468Y-17053484D02*
X9170182Y-17053484D01*
X9227325Y-17053484D02*
X9227325Y-16853484D01*
X9227325Y-16853484D02*
X9208277Y-16882055D01*
X9208277Y-16882055D02*
X9189229Y-16901103D01*
X9189229Y-16901103D02*
X9170182Y-16910627D01*
X9398753Y-16939198D02*
X9379706Y-16929674D01*
X9379706Y-16929674D02*
X9370182Y-16920150D01*
X9370182Y-16920150D02*
X9360658Y-16901103D01*
X9360658Y-16901103D02*
X9360658Y-16891579D01*
X9360658Y-16891579D02*
X9370182Y-16872531D01*
X9370182Y-16872531D02*
X9379706Y-16863008D01*
X9379706Y-16863008D02*
X9398753Y-16853484D01*
X9398753Y-16853484D02*
X9436849Y-16853484D01*
X9436849Y-16853484D02*
X9455896Y-16863008D01*
X9455896Y-16863008D02*
X9465420Y-16872531D01*
X9465420Y-16872531D02*
X9474944Y-16891579D01*
X9474944Y-16891579D02*
X9474944Y-16901103D01*
X9474944Y-16901103D02*
X9465420Y-16920150D01*
X9465420Y-16920150D02*
X9455896Y-16929674D01*
X9455896Y-16929674D02*
X9436849Y-16939198D01*
X9436849Y-16939198D02*
X9398753Y-16939198D01*
X9398753Y-16939198D02*
X9379706Y-16948722D01*
X9379706Y-16948722D02*
X9370182Y-16958246D01*
X9370182Y-16958246D02*
X9360658Y-16977293D01*
X9360658Y-16977293D02*
X9360658Y-17015389D01*
X9360658Y-17015389D02*
X9370182Y-17034436D01*
X9370182Y-17034436D02*
X9379706Y-17043960D01*
X9379706Y-17043960D02*
X9398753Y-17053484D01*
X9398753Y-17053484D02*
X9436849Y-17053484D01*
X9436849Y-17053484D02*
X9455896Y-17043960D01*
X9455896Y-17043960D02*
X9465420Y-17034436D01*
X9465420Y-17034436D02*
X9474944Y-17015389D01*
X9474944Y-17015389D02*
X9474944Y-16977293D01*
X9474944Y-16977293D02*
X9465420Y-16958246D01*
X9465420Y-16958246D02*
X9455896Y-16948722D01*
X9455896Y-16948722D02*
X9436849Y-16939198D01*
X9551134Y-16853484D02*
X9551134Y-16891579D01*
X9627325Y-16853484D02*
X9627325Y-16891579D01*
X9922563Y-17129674D02*
X9913039Y-17120150D01*
X9913039Y-17120150D02*
X9893991Y-17091579D01*
X9893991Y-17091579D02*
X9884468Y-17072531D01*
X9884468Y-17072531D02*
X9874944Y-17043960D01*
X9874944Y-17043960D02*
X9865420Y-16996341D01*
X9865420Y-16996341D02*
X9865420Y-16958246D01*
X9865420Y-16958246D02*
X9874944Y-16910627D01*
X9874944Y-16910627D02*
X9884468Y-16882055D01*
X9884468Y-16882055D02*
X9893991Y-16863008D01*
X9893991Y-16863008D02*
X9913039Y-16834436D01*
X9913039Y-16834436D02*
X9922563Y-16824912D01*
X10008277Y-17053484D02*
X10046372Y-17053484D01*
X10046372Y-17053484D02*
X10065420Y-17043960D01*
X10065420Y-17043960D02*
X10074944Y-17034436D01*
X10074944Y-17034436D02*
X10093991Y-17005865D01*
X10093991Y-17005865D02*
X10103515Y-16967770D01*
X10103515Y-16967770D02*
X10103515Y-16891579D01*
X10103515Y-16891579D02*
X10093991Y-16872531D01*
X10093991Y-16872531D02*
X10084468Y-16863008D01*
X10084468Y-16863008D02*
X10065420Y-16853484D01*
X10065420Y-16853484D02*
X10027325Y-16853484D01*
X10027325Y-16853484D02*
X10008277Y-16863008D01*
X10008277Y-16863008D02*
X9998753Y-16872531D01*
X9998753Y-16872531D02*
X9989230Y-16891579D01*
X9989230Y-16891579D02*
X9989230Y-16939198D01*
X9989230Y-16939198D02*
X9998753Y-16958246D01*
X9998753Y-16958246D02*
X10008277Y-16967770D01*
X10008277Y-16967770D02*
X10027325Y-16977293D01*
X10027325Y-16977293D02*
X10065420Y-16977293D01*
X10065420Y-16977293D02*
X10084468Y-16967770D01*
X10084468Y-16967770D02*
X10093991Y-16958246D01*
X10093991Y-16958246D02*
X10103515Y-16939198D01*
X10341611Y-17053484D02*
X10341611Y-16853484D01*
X10427325Y-17053484D02*
X10427325Y-16948722D01*
X10427325Y-16948722D02*
X10417801Y-16929674D01*
X10417801Y-16929674D02*
X10398753Y-16920150D01*
X10398753Y-16920150D02*
X10370182Y-16920150D01*
X10370182Y-16920150D02*
X10351134Y-16929674D01*
X10351134Y-16929674D02*
X10341611Y-16939198D01*
X10551134Y-17053484D02*
X10532087Y-17043960D01*
X10532087Y-17043960D02*
X10522563Y-17034436D01*
X10522563Y-17034436D02*
X10513039Y-17015389D01*
X10513039Y-17015389D02*
X10513039Y-16958246D01*
X10513039Y-16958246D02*
X10522563Y-16939198D01*
X10522563Y-16939198D02*
X10532087Y-16929674D01*
X10532087Y-16929674D02*
X10551134Y-16920150D01*
X10551134Y-16920150D02*
X10579706Y-16920150D01*
X10579706Y-16920150D02*
X10598753Y-16929674D01*
X10598753Y-16929674D02*
X10608277Y-16939198D01*
X10608277Y-16939198D02*
X10617801Y-16958246D01*
X10617801Y-16958246D02*
X10617801Y-17015389D01*
X10617801Y-17015389D02*
X10608277Y-17034436D01*
X10608277Y-17034436D02*
X10598753Y-17043960D01*
X10598753Y-17043960D02*
X10579706Y-17053484D01*
X10579706Y-17053484D02*
X10551134Y-17053484D01*
X10732087Y-17053484D02*
X10713039Y-17043960D01*
X10713039Y-17043960D02*
X10703515Y-17024912D01*
X10703515Y-17024912D02*
X10703515Y-16853484D01*
X10884468Y-17043960D02*
X10865420Y-17053484D01*
X10865420Y-17053484D02*
X10827325Y-17053484D01*
X10827325Y-17053484D02*
X10808277Y-17043960D01*
X10808277Y-17043960D02*
X10798753Y-17024912D01*
X10798753Y-17024912D02*
X10798753Y-16948722D01*
X10798753Y-16948722D02*
X10808277Y-16929674D01*
X10808277Y-16929674D02*
X10827325Y-16920150D01*
X10827325Y-16920150D02*
X10865420Y-16920150D01*
X10865420Y-16920150D02*
X10884468Y-16929674D01*
X10884468Y-16929674D02*
X10893992Y-16948722D01*
X10893992Y-16948722D02*
X10893992Y-16967770D01*
X10893992Y-16967770D02*
X10798753Y-16986817D01*
X10970182Y-17043960D02*
X10989230Y-17053484D01*
X10989230Y-17053484D02*
X11027325Y-17053484D01*
X11027325Y-17053484D02*
X11046373Y-17043960D01*
X11046373Y-17043960D02*
X11055896Y-17024912D01*
X11055896Y-17024912D02*
X11055896Y-17015389D01*
X11055896Y-17015389D02*
X11046373Y-16996341D01*
X11046373Y-16996341D02*
X11027325Y-16986817D01*
X11027325Y-16986817D02*
X10998753Y-16986817D01*
X10998753Y-16986817D02*
X10979706Y-16977293D01*
X10979706Y-16977293D02*
X10970182Y-16958246D01*
X10970182Y-16958246D02*
X10970182Y-16948722D01*
X10970182Y-16948722D02*
X10979706Y-16929674D01*
X10979706Y-16929674D02*
X10998753Y-16920150D01*
X10998753Y-16920150D02*
X11027325Y-16920150D01*
X11027325Y-16920150D02*
X11046373Y-16929674D01*
X11122563Y-17129674D02*
X11132087Y-17120150D01*
X11132087Y-17120150D02*
X11151134Y-17091579D01*
X11151134Y-17091579D02*
X11160658Y-17072531D01*
X11160658Y-17072531D02*
X11170182Y-17043960D01*
X11170182Y-17043960D02*
X11179706Y-16996341D01*
X11179706Y-16996341D02*
X11179706Y-16958246D01*
X11179706Y-16958246D02*
X11170182Y-16910627D01*
X11170182Y-16910627D02*
X11160658Y-16882055D01*
X11160658Y-16882055D02*
X11151134Y-16863008D01*
X11151134Y-16863008D02*
X11132087Y-16834436D01*
X11132087Y-16834436D02*
X11122563Y-16824912D01*
D12*
X6347500Y-17226000D02*
G75*
G02*
X6287500Y-17226000I-30000J0D01*
G01*
X6287500Y-17226000D02*
G75*
G02*
X6347500Y-17226000I30000J0D01*
G01*
D11*
X6646372Y-17117484D02*
X6665420Y-17117484D01*
X6665420Y-17117484D02*
X6684467Y-17127008D01*
X6684467Y-17127008D02*
X6693991Y-17136531D01*
X6693991Y-17136531D02*
X6703515Y-17155579D01*
X6703515Y-17155579D02*
X6713039Y-17193674D01*
X6713039Y-17193674D02*
X6713039Y-17241293D01*
X6713039Y-17241293D02*
X6703515Y-17279389D01*
X6703515Y-17279389D02*
X6693991Y-17298436D01*
X6693991Y-17298436D02*
X6684467Y-17307960D01*
X6684467Y-17307960D02*
X6665420Y-17317484D01*
X6665420Y-17317484D02*
X6646372Y-17317484D01*
X6646372Y-17317484D02*
X6627324Y-17307960D01*
X6627324Y-17307960D02*
X6617801Y-17298436D01*
X6617801Y-17298436D02*
X6608277Y-17279389D01*
X6608277Y-17279389D02*
X6598753Y-17241293D01*
X6598753Y-17241293D02*
X6598753Y-17193674D01*
X6598753Y-17193674D02*
X6608277Y-17155579D01*
X6608277Y-17155579D02*
X6617801Y-17136531D01*
X6617801Y-17136531D02*
X6627324Y-17127008D01*
X6627324Y-17127008D02*
X6646372Y-17117484D01*
X6798753Y-17298436D02*
X6808277Y-17307960D01*
X6808277Y-17307960D02*
X6798753Y-17317484D01*
X6798753Y-17317484D02*
X6789229Y-17307960D01*
X6789229Y-17307960D02*
X6798753Y-17298436D01*
X6798753Y-17298436D02*
X6798753Y-17317484D01*
X6979705Y-17117484D02*
X6941610Y-17117484D01*
X6941610Y-17117484D02*
X6922562Y-17127008D01*
X6922562Y-17127008D02*
X6913039Y-17136531D01*
X6913039Y-17136531D02*
X6893991Y-17165103D01*
X6893991Y-17165103D02*
X6884467Y-17203198D01*
X6884467Y-17203198D02*
X6884467Y-17279389D01*
X6884467Y-17279389D02*
X6893991Y-17298436D01*
X6893991Y-17298436D02*
X6903515Y-17307960D01*
X6903515Y-17307960D02*
X6922562Y-17317484D01*
X6922562Y-17317484D02*
X6960658Y-17317484D01*
X6960658Y-17317484D02*
X6979705Y-17307960D01*
X6979705Y-17307960D02*
X6989229Y-17298436D01*
X6989229Y-17298436D02*
X6998753Y-17279389D01*
X6998753Y-17279389D02*
X6998753Y-17231770D01*
X6998753Y-17231770D02*
X6989229Y-17212722D01*
X6989229Y-17212722D02*
X6979705Y-17203198D01*
X6979705Y-17203198D02*
X6960658Y-17193674D01*
X6960658Y-17193674D02*
X6922562Y-17193674D01*
X6922562Y-17193674D02*
X6903515Y-17203198D01*
X6903515Y-17203198D02*
X6893991Y-17212722D01*
X6893991Y-17212722D02*
X6884467Y-17231770D01*
X7122562Y-17117484D02*
X7141610Y-17117484D01*
X7141610Y-17117484D02*
X7160658Y-17127008D01*
X7160658Y-17127008D02*
X7170182Y-17136531D01*
X7170182Y-17136531D02*
X7179705Y-17155579D01*
X7179705Y-17155579D02*
X7189229Y-17193674D01*
X7189229Y-17193674D02*
X7189229Y-17241293D01*
X7189229Y-17241293D02*
X7179705Y-17279389D01*
X7179705Y-17279389D02*
X7170182Y-17298436D01*
X7170182Y-17298436D02*
X7160658Y-17307960D01*
X7160658Y-17307960D02*
X7141610Y-17317484D01*
X7141610Y-17317484D02*
X7122562Y-17317484D01*
X7122562Y-17317484D02*
X7103515Y-17307960D01*
X7103515Y-17307960D02*
X7093991Y-17298436D01*
X7093991Y-17298436D02*
X7084467Y-17279389D01*
X7084467Y-17279389D02*
X7074943Y-17241293D01*
X7074943Y-17241293D02*
X7074943Y-17193674D01*
X7074943Y-17193674D02*
X7084467Y-17155579D01*
X7084467Y-17155579D02*
X7093991Y-17136531D01*
X7093991Y-17136531D02*
X7103515Y-17127008D01*
X7103515Y-17127008D02*
X7122562Y-17117484D01*
X7313039Y-17117484D02*
X7332086Y-17117484D01*
X7332086Y-17117484D02*
X7351134Y-17127008D01*
X7351134Y-17127008D02*
X7360658Y-17136531D01*
X7360658Y-17136531D02*
X7370182Y-17155579D01*
X7370182Y-17155579D02*
X7379705Y-17193674D01*
X7379705Y-17193674D02*
X7379705Y-17241293D01*
X7379705Y-17241293D02*
X7370182Y-17279389D01*
X7370182Y-17279389D02*
X7360658Y-17298436D01*
X7360658Y-17298436D02*
X7351134Y-17307960D01*
X7351134Y-17307960D02*
X7332086Y-17317484D01*
X7332086Y-17317484D02*
X7313039Y-17317484D01*
X7313039Y-17317484D02*
X7293991Y-17307960D01*
X7293991Y-17307960D02*
X7284467Y-17298436D01*
X7284467Y-17298436D02*
X7274943Y-17279389D01*
X7274943Y-17279389D02*
X7265420Y-17241293D01*
X7265420Y-17241293D02*
X7265420Y-17193674D01*
X7265420Y-17193674D02*
X7274943Y-17155579D01*
X7274943Y-17155579D02*
X7284467Y-17136531D01*
X7284467Y-17136531D02*
X7293991Y-17127008D01*
X7293991Y-17127008D02*
X7313039Y-17117484D01*
X7465420Y-17317484D02*
X7465420Y-17184150D01*
X7465420Y-17203198D02*
X7474943Y-17193674D01*
X7474943Y-17193674D02*
X7493991Y-17184150D01*
X7493991Y-17184150D02*
X7522563Y-17184150D01*
X7522563Y-17184150D02*
X7541610Y-17193674D01*
X7541610Y-17193674D02*
X7551134Y-17212722D01*
X7551134Y-17212722D02*
X7551134Y-17317484D01*
X7551134Y-17212722D02*
X7560658Y-17193674D01*
X7560658Y-17193674D02*
X7579705Y-17184150D01*
X7579705Y-17184150D02*
X7608277Y-17184150D01*
X7608277Y-17184150D02*
X7627324Y-17193674D01*
X7627324Y-17193674D02*
X7636848Y-17212722D01*
X7636848Y-17212722D02*
X7636848Y-17317484D01*
X7732086Y-17317484D02*
X7732086Y-17184150D01*
X7732086Y-17203198D02*
X7741610Y-17193674D01*
X7741610Y-17193674D02*
X7760658Y-17184150D01*
X7760658Y-17184150D02*
X7789229Y-17184150D01*
X7789229Y-17184150D02*
X7808277Y-17193674D01*
X7808277Y-17193674D02*
X7817801Y-17212722D01*
X7817801Y-17212722D02*
X7817801Y-17317484D01*
X7817801Y-17212722D02*
X7827324Y-17193674D01*
X7827324Y-17193674D02*
X7846372Y-17184150D01*
X7846372Y-17184150D02*
X7874943Y-17184150D01*
X7874943Y-17184150D02*
X7893991Y-17193674D01*
X7893991Y-17193674D02*
X7903515Y-17212722D01*
X7903515Y-17212722D02*
X7903515Y-17317484D01*
X8293991Y-17107960D02*
X8122563Y-17365103D01*
X8551134Y-17117484D02*
X8570182Y-17117484D01*
X8570182Y-17117484D02*
X8589229Y-17127008D01*
X8589229Y-17127008D02*
X8598753Y-17136531D01*
X8598753Y-17136531D02*
X8608277Y-17155579D01*
X8608277Y-17155579D02*
X8617801Y-17193674D01*
X8617801Y-17193674D02*
X8617801Y-17241293D01*
X8617801Y-17241293D02*
X8608277Y-17279389D01*
X8608277Y-17279389D02*
X8598753Y-17298436D01*
X8598753Y-17298436D02*
X8589229Y-17307960D01*
X8589229Y-17307960D02*
X8570182Y-17317484D01*
X8570182Y-17317484D02*
X8551134Y-17317484D01*
X8551134Y-17317484D02*
X8532087Y-17307960D01*
X8532087Y-17307960D02*
X8522563Y-17298436D01*
X8522563Y-17298436D02*
X8513039Y-17279389D01*
X8513039Y-17279389D02*
X8503515Y-17241293D01*
X8503515Y-17241293D02*
X8503515Y-17193674D01*
X8503515Y-17193674D02*
X8513039Y-17155579D01*
X8513039Y-17155579D02*
X8522563Y-17136531D01*
X8522563Y-17136531D02*
X8532087Y-17127008D01*
X8532087Y-17127008D02*
X8551134Y-17117484D01*
X8703515Y-17298436D02*
X8713039Y-17307960D01*
X8713039Y-17307960D02*
X8703515Y-17317484D01*
X8703515Y-17317484D02*
X8693991Y-17307960D01*
X8693991Y-17307960D02*
X8703515Y-17298436D01*
X8703515Y-17298436D02*
X8703515Y-17317484D01*
X8836848Y-17117484D02*
X8855896Y-17117484D01*
X8855896Y-17117484D02*
X8874944Y-17127008D01*
X8874944Y-17127008D02*
X8884468Y-17136531D01*
X8884468Y-17136531D02*
X8893991Y-17155579D01*
X8893991Y-17155579D02*
X8903515Y-17193674D01*
X8903515Y-17193674D02*
X8903515Y-17241293D01*
X8903515Y-17241293D02*
X8893991Y-17279389D01*
X8893991Y-17279389D02*
X8884468Y-17298436D01*
X8884468Y-17298436D02*
X8874944Y-17307960D01*
X8874944Y-17307960D02*
X8855896Y-17317484D01*
X8855896Y-17317484D02*
X8836848Y-17317484D01*
X8836848Y-17317484D02*
X8817801Y-17307960D01*
X8817801Y-17307960D02*
X8808277Y-17298436D01*
X8808277Y-17298436D02*
X8798753Y-17279389D01*
X8798753Y-17279389D02*
X8789229Y-17241293D01*
X8789229Y-17241293D02*
X8789229Y-17193674D01*
X8789229Y-17193674D02*
X8798753Y-17155579D01*
X8798753Y-17155579D02*
X8808277Y-17136531D01*
X8808277Y-17136531D02*
X8817801Y-17127008D01*
X8817801Y-17127008D02*
X8836848Y-17117484D01*
X8979706Y-17136531D02*
X8989229Y-17127008D01*
X8989229Y-17127008D02*
X9008277Y-17117484D01*
X9008277Y-17117484D02*
X9055896Y-17117484D01*
X9055896Y-17117484D02*
X9074944Y-17127008D01*
X9074944Y-17127008D02*
X9084468Y-17136531D01*
X9084468Y-17136531D02*
X9093991Y-17155579D01*
X9093991Y-17155579D02*
X9093991Y-17174627D01*
X9093991Y-17174627D02*
X9084468Y-17203198D01*
X9084468Y-17203198D02*
X8970182Y-17317484D01*
X8970182Y-17317484D02*
X9093991Y-17317484D01*
X9160658Y-17117484D02*
X9284468Y-17117484D01*
X9284468Y-17117484D02*
X9217801Y-17193674D01*
X9217801Y-17193674D02*
X9246372Y-17193674D01*
X9246372Y-17193674D02*
X9265420Y-17203198D01*
X9265420Y-17203198D02*
X9274944Y-17212722D01*
X9274944Y-17212722D02*
X9284468Y-17231770D01*
X9284468Y-17231770D02*
X9284468Y-17279389D01*
X9284468Y-17279389D02*
X9274944Y-17298436D01*
X9274944Y-17298436D02*
X9265420Y-17307960D01*
X9265420Y-17307960D02*
X9246372Y-17317484D01*
X9246372Y-17317484D02*
X9189229Y-17317484D01*
X9189229Y-17317484D02*
X9170182Y-17307960D01*
X9170182Y-17307960D02*
X9160658Y-17298436D01*
X9455896Y-17117484D02*
X9417801Y-17117484D01*
X9417801Y-17117484D02*
X9398753Y-17127008D01*
X9398753Y-17127008D02*
X9389229Y-17136531D01*
X9389229Y-17136531D02*
X9370182Y-17165103D01*
X9370182Y-17165103D02*
X9360658Y-17203198D01*
X9360658Y-17203198D02*
X9360658Y-17279389D01*
X9360658Y-17279389D02*
X9370182Y-17298436D01*
X9370182Y-17298436D02*
X9379706Y-17307960D01*
X9379706Y-17307960D02*
X9398753Y-17317484D01*
X9398753Y-17317484D02*
X9436849Y-17317484D01*
X9436849Y-17317484D02*
X9455896Y-17307960D01*
X9455896Y-17307960D02*
X9465420Y-17298436D01*
X9465420Y-17298436D02*
X9474944Y-17279389D01*
X9474944Y-17279389D02*
X9474944Y-17231770D01*
X9474944Y-17231770D02*
X9465420Y-17212722D01*
X9465420Y-17212722D02*
X9455896Y-17203198D01*
X9455896Y-17203198D02*
X9436849Y-17193674D01*
X9436849Y-17193674D02*
X9398753Y-17193674D01*
X9398753Y-17193674D02*
X9379706Y-17203198D01*
X9379706Y-17203198D02*
X9370182Y-17212722D01*
X9370182Y-17212722D02*
X9360658Y-17231770D01*
X9551134Y-17117484D02*
X9551134Y-17155579D01*
X9627325Y-17117484D02*
X9627325Y-17155579D01*
X9922563Y-17393674D02*
X9913039Y-17384150D01*
X9913039Y-17384150D02*
X9893991Y-17355579D01*
X9893991Y-17355579D02*
X9884468Y-17336531D01*
X9884468Y-17336531D02*
X9874944Y-17307960D01*
X9874944Y-17307960D02*
X9865420Y-17260341D01*
X9865420Y-17260341D02*
X9865420Y-17222246D01*
X9865420Y-17222246D02*
X9874944Y-17174627D01*
X9874944Y-17174627D02*
X9884468Y-17146055D01*
X9884468Y-17146055D02*
X9893991Y-17127008D01*
X9893991Y-17127008D02*
X9913039Y-17098436D01*
X9913039Y-17098436D02*
X9922563Y-17088912D01*
X9989230Y-17136531D02*
X9998753Y-17127008D01*
X9998753Y-17127008D02*
X10017801Y-17117484D01*
X10017801Y-17117484D02*
X10065420Y-17117484D01*
X10065420Y-17117484D02*
X10084468Y-17127008D01*
X10084468Y-17127008D02*
X10093991Y-17136531D01*
X10093991Y-17136531D02*
X10103515Y-17155579D01*
X10103515Y-17155579D02*
X10103515Y-17174627D01*
X10103515Y-17174627D02*
X10093991Y-17203198D01*
X10093991Y-17203198D02*
X9979706Y-17317484D01*
X9979706Y-17317484D02*
X10103515Y-17317484D01*
X10341611Y-17317484D02*
X10341611Y-17117484D01*
X10427325Y-17317484D02*
X10427325Y-17212722D01*
X10427325Y-17212722D02*
X10417801Y-17193674D01*
X10417801Y-17193674D02*
X10398753Y-17184150D01*
X10398753Y-17184150D02*
X10370182Y-17184150D01*
X10370182Y-17184150D02*
X10351134Y-17193674D01*
X10351134Y-17193674D02*
X10341611Y-17203198D01*
X10551134Y-17317484D02*
X10532087Y-17307960D01*
X10532087Y-17307960D02*
X10522563Y-17298436D01*
X10522563Y-17298436D02*
X10513039Y-17279389D01*
X10513039Y-17279389D02*
X10513039Y-17222246D01*
X10513039Y-17222246D02*
X10522563Y-17203198D01*
X10522563Y-17203198D02*
X10532087Y-17193674D01*
X10532087Y-17193674D02*
X10551134Y-17184150D01*
X10551134Y-17184150D02*
X10579706Y-17184150D01*
X10579706Y-17184150D02*
X10598753Y-17193674D01*
X10598753Y-17193674D02*
X10608277Y-17203198D01*
X10608277Y-17203198D02*
X10617801Y-17222246D01*
X10617801Y-17222246D02*
X10617801Y-17279389D01*
X10617801Y-17279389D02*
X10608277Y-17298436D01*
X10608277Y-17298436D02*
X10598753Y-17307960D01*
X10598753Y-17307960D02*
X10579706Y-17317484D01*
X10579706Y-17317484D02*
X10551134Y-17317484D01*
X10732087Y-17317484D02*
X10713039Y-17307960D01*
X10713039Y-17307960D02*
X10703515Y-17288912D01*
X10703515Y-17288912D02*
X10703515Y-17117484D01*
X10884468Y-17307960D02*
X10865420Y-17317484D01*
X10865420Y-17317484D02*
X10827325Y-17317484D01*
X10827325Y-17317484D02*
X10808277Y-17307960D01*
X10808277Y-17307960D02*
X10798753Y-17288912D01*
X10798753Y-17288912D02*
X10798753Y-17212722D01*
X10798753Y-17212722D02*
X10808277Y-17193674D01*
X10808277Y-17193674D02*
X10827325Y-17184150D01*
X10827325Y-17184150D02*
X10865420Y-17184150D01*
X10865420Y-17184150D02*
X10884468Y-17193674D01*
X10884468Y-17193674D02*
X10893992Y-17212722D01*
X10893992Y-17212722D02*
X10893992Y-17231770D01*
X10893992Y-17231770D02*
X10798753Y-17250817D01*
X10970182Y-17307960D02*
X10989230Y-17317484D01*
X10989230Y-17317484D02*
X11027325Y-17317484D01*
X11027325Y-17317484D02*
X11046373Y-17307960D01*
X11046373Y-17307960D02*
X11055896Y-17288912D01*
X11055896Y-17288912D02*
X11055896Y-17279389D01*
X11055896Y-17279389D02*
X11046373Y-17260341D01*
X11046373Y-17260341D02*
X11027325Y-17250817D01*
X11027325Y-17250817D02*
X10998753Y-17250817D01*
X10998753Y-17250817D02*
X10979706Y-17241293D01*
X10979706Y-17241293D02*
X10970182Y-17222246D01*
X10970182Y-17222246D02*
X10970182Y-17212722D01*
X10970182Y-17212722D02*
X10979706Y-17193674D01*
X10979706Y-17193674D02*
X10998753Y-17184150D01*
X10998753Y-17184150D02*
X11027325Y-17184150D01*
X11027325Y-17184150D02*
X11046373Y-17193674D01*
X11122563Y-17393674D02*
X11132087Y-17384150D01*
X11132087Y-17384150D02*
X11151134Y-17355579D01*
X11151134Y-17355579D02*
X11160658Y-17336531D01*
X11160658Y-17336531D02*
X11170182Y-17307960D01*
X11170182Y-17307960D02*
X11179706Y-17260341D01*
X11179706Y-17260341D02*
X11179706Y-17222246D01*
X11179706Y-17222246D02*
X11170182Y-17174627D01*
X11170182Y-17174627D02*
X11160658Y-17146055D01*
X11160658Y-17146055D02*
X11151134Y-17127008D01*
X11151134Y-17127008D02*
X11132087Y-17098436D01*
X11132087Y-17098436D02*
X11122563Y-17088912D01*
D12*
X6312500Y-17455000D02*
X6312500Y-17525000D01*
X6277500Y-17490000D02*
X6347500Y-17490000D01*
D11*
X6646372Y-17381484D02*
X6665420Y-17381484D01*
X6665420Y-17381484D02*
X6684467Y-17391008D01*
X6684467Y-17391008D02*
X6693991Y-17400531D01*
X6693991Y-17400531D02*
X6703515Y-17419579D01*
X6703515Y-17419579D02*
X6713039Y-17457674D01*
X6713039Y-17457674D02*
X6713039Y-17505293D01*
X6713039Y-17505293D02*
X6703515Y-17543389D01*
X6703515Y-17543389D02*
X6693991Y-17562436D01*
X6693991Y-17562436D02*
X6684467Y-17571960D01*
X6684467Y-17571960D02*
X6665420Y-17581484D01*
X6665420Y-17581484D02*
X6646372Y-17581484D01*
X6646372Y-17581484D02*
X6627324Y-17571960D01*
X6627324Y-17571960D02*
X6617801Y-17562436D01*
X6617801Y-17562436D02*
X6608277Y-17543389D01*
X6608277Y-17543389D02*
X6598753Y-17505293D01*
X6598753Y-17505293D02*
X6598753Y-17457674D01*
X6598753Y-17457674D02*
X6608277Y-17419579D01*
X6608277Y-17419579D02*
X6617801Y-17400531D01*
X6617801Y-17400531D02*
X6627324Y-17391008D01*
X6627324Y-17391008D02*
X6646372Y-17381484D01*
X6798753Y-17562436D02*
X6808277Y-17571960D01*
X6808277Y-17571960D02*
X6798753Y-17581484D01*
X6798753Y-17581484D02*
X6789229Y-17571960D01*
X6789229Y-17571960D02*
X6798753Y-17562436D01*
X6798753Y-17562436D02*
X6798753Y-17581484D01*
X6874943Y-17381484D02*
X7008277Y-17381484D01*
X7008277Y-17381484D02*
X6922562Y-17581484D01*
X7122562Y-17381484D02*
X7141610Y-17381484D01*
X7141610Y-17381484D02*
X7160658Y-17391008D01*
X7160658Y-17391008D02*
X7170182Y-17400531D01*
X7170182Y-17400531D02*
X7179705Y-17419579D01*
X7179705Y-17419579D02*
X7189229Y-17457674D01*
X7189229Y-17457674D02*
X7189229Y-17505293D01*
X7189229Y-17505293D02*
X7179705Y-17543389D01*
X7179705Y-17543389D02*
X7170182Y-17562436D01*
X7170182Y-17562436D02*
X7160658Y-17571960D01*
X7160658Y-17571960D02*
X7141610Y-17581484D01*
X7141610Y-17581484D02*
X7122562Y-17581484D01*
X7122562Y-17581484D02*
X7103515Y-17571960D01*
X7103515Y-17571960D02*
X7093991Y-17562436D01*
X7093991Y-17562436D02*
X7084467Y-17543389D01*
X7084467Y-17543389D02*
X7074943Y-17505293D01*
X7074943Y-17505293D02*
X7074943Y-17457674D01*
X7074943Y-17457674D02*
X7084467Y-17419579D01*
X7084467Y-17419579D02*
X7093991Y-17400531D01*
X7093991Y-17400531D02*
X7103515Y-17391008D01*
X7103515Y-17391008D02*
X7122562Y-17381484D01*
X7313039Y-17381484D02*
X7332086Y-17381484D01*
X7332086Y-17381484D02*
X7351134Y-17391008D01*
X7351134Y-17391008D02*
X7360658Y-17400531D01*
X7360658Y-17400531D02*
X7370182Y-17419579D01*
X7370182Y-17419579D02*
X7379705Y-17457674D01*
X7379705Y-17457674D02*
X7379705Y-17505293D01*
X7379705Y-17505293D02*
X7370182Y-17543389D01*
X7370182Y-17543389D02*
X7360658Y-17562436D01*
X7360658Y-17562436D02*
X7351134Y-17571960D01*
X7351134Y-17571960D02*
X7332086Y-17581484D01*
X7332086Y-17581484D02*
X7313039Y-17581484D01*
X7313039Y-17581484D02*
X7293991Y-17571960D01*
X7293991Y-17571960D02*
X7284467Y-17562436D01*
X7284467Y-17562436D02*
X7274943Y-17543389D01*
X7274943Y-17543389D02*
X7265420Y-17505293D01*
X7265420Y-17505293D02*
X7265420Y-17457674D01*
X7265420Y-17457674D02*
X7274943Y-17419579D01*
X7274943Y-17419579D02*
X7284467Y-17400531D01*
X7284467Y-17400531D02*
X7293991Y-17391008D01*
X7293991Y-17391008D02*
X7313039Y-17381484D01*
X7465420Y-17581484D02*
X7465420Y-17448150D01*
X7465420Y-17467198D02*
X7474943Y-17457674D01*
X7474943Y-17457674D02*
X7493991Y-17448150D01*
X7493991Y-17448150D02*
X7522563Y-17448150D01*
X7522563Y-17448150D02*
X7541610Y-17457674D01*
X7541610Y-17457674D02*
X7551134Y-17476722D01*
X7551134Y-17476722D02*
X7551134Y-17581484D01*
X7551134Y-17476722D02*
X7560658Y-17457674D01*
X7560658Y-17457674D02*
X7579705Y-17448150D01*
X7579705Y-17448150D02*
X7608277Y-17448150D01*
X7608277Y-17448150D02*
X7627324Y-17457674D01*
X7627324Y-17457674D02*
X7636848Y-17476722D01*
X7636848Y-17476722D02*
X7636848Y-17581484D01*
X7732086Y-17581484D02*
X7732086Y-17448150D01*
X7732086Y-17467198D02*
X7741610Y-17457674D01*
X7741610Y-17457674D02*
X7760658Y-17448150D01*
X7760658Y-17448150D02*
X7789229Y-17448150D01*
X7789229Y-17448150D02*
X7808277Y-17457674D01*
X7808277Y-17457674D02*
X7817801Y-17476722D01*
X7817801Y-17476722D02*
X7817801Y-17581484D01*
X7817801Y-17476722D02*
X7827324Y-17457674D01*
X7827324Y-17457674D02*
X7846372Y-17448150D01*
X7846372Y-17448150D02*
X7874943Y-17448150D01*
X7874943Y-17448150D02*
X7893991Y-17457674D01*
X7893991Y-17457674D02*
X7903515Y-17476722D01*
X7903515Y-17476722D02*
X7903515Y-17581484D01*
X8293991Y-17371960D02*
X8122563Y-17629103D01*
X8551134Y-17381484D02*
X8570182Y-17381484D01*
X8570182Y-17381484D02*
X8589229Y-17391008D01*
X8589229Y-17391008D02*
X8598753Y-17400531D01*
X8598753Y-17400531D02*
X8608277Y-17419579D01*
X8608277Y-17419579D02*
X8617801Y-17457674D01*
X8617801Y-17457674D02*
X8617801Y-17505293D01*
X8617801Y-17505293D02*
X8608277Y-17543389D01*
X8608277Y-17543389D02*
X8598753Y-17562436D01*
X8598753Y-17562436D02*
X8589229Y-17571960D01*
X8589229Y-17571960D02*
X8570182Y-17581484D01*
X8570182Y-17581484D02*
X8551134Y-17581484D01*
X8551134Y-17581484D02*
X8532087Y-17571960D01*
X8532087Y-17571960D02*
X8522563Y-17562436D01*
X8522563Y-17562436D02*
X8513039Y-17543389D01*
X8513039Y-17543389D02*
X8503515Y-17505293D01*
X8503515Y-17505293D02*
X8503515Y-17457674D01*
X8503515Y-17457674D02*
X8513039Y-17419579D01*
X8513039Y-17419579D02*
X8522563Y-17400531D01*
X8522563Y-17400531D02*
X8532087Y-17391008D01*
X8532087Y-17391008D02*
X8551134Y-17381484D01*
X8703515Y-17562436D02*
X8713039Y-17571960D01*
X8713039Y-17571960D02*
X8703515Y-17581484D01*
X8703515Y-17581484D02*
X8693991Y-17571960D01*
X8693991Y-17571960D02*
X8703515Y-17562436D01*
X8703515Y-17562436D02*
X8703515Y-17581484D01*
X8836848Y-17381484D02*
X8855896Y-17381484D01*
X8855896Y-17381484D02*
X8874944Y-17391008D01*
X8874944Y-17391008D02*
X8884468Y-17400531D01*
X8884468Y-17400531D02*
X8893991Y-17419579D01*
X8893991Y-17419579D02*
X8903515Y-17457674D01*
X8903515Y-17457674D02*
X8903515Y-17505293D01*
X8903515Y-17505293D02*
X8893991Y-17543389D01*
X8893991Y-17543389D02*
X8884468Y-17562436D01*
X8884468Y-17562436D02*
X8874944Y-17571960D01*
X8874944Y-17571960D02*
X8855896Y-17581484D01*
X8855896Y-17581484D02*
X8836848Y-17581484D01*
X8836848Y-17581484D02*
X8817801Y-17571960D01*
X8817801Y-17571960D02*
X8808277Y-17562436D01*
X8808277Y-17562436D02*
X8798753Y-17543389D01*
X8798753Y-17543389D02*
X8789229Y-17505293D01*
X8789229Y-17505293D02*
X8789229Y-17457674D01*
X8789229Y-17457674D02*
X8798753Y-17419579D01*
X8798753Y-17419579D02*
X8808277Y-17400531D01*
X8808277Y-17400531D02*
X8817801Y-17391008D01*
X8817801Y-17391008D02*
X8836848Y-17381484D01*
X8979706Y-17400531D02*
X8989229Y-17391008D01*
X8989229Y-17391008D02*
X9008277Y-17381484D01*
X9008277Y-17381484D02*
X9055896Y-17381484D01*
X9055896Y-17381484D02*
X9074944Y-17391008D01*
X9074944Y-17391008D02*
X9084468Y-17400531D01*
X9084468Y-17400531D02*
X9093991Y-17419579D01*
X9093991Y-17419579D02*
X9093991Y-17438627D01*
X9093991Y-17438627D02*
X9084468Y-17467198D01*
X9084468Y-17467198D02*
X8970182Y-17581484D01*
X8970182Y-17581484D02*
X9093991Y-17581484D01*
X9160658Y-17381484D02*
X9293991Y-17381484D01*
X9293991Y-17381484D02*
X9208277Y-17581484D01*
X9455896Y-17381484D02*
X9417801Y-17381484D01*
X9417801Y-17381484D02*
X9398753Y-17391008D01*
X9398753Y-17391008D02*
X9389229Y-17400531D01*
X9389229Y-17400531D02*
X9370182Y-17429103D01*
X9370182Y-17429103D02*
X9360658Y-17467198D01*
X9360658Y-17467198D02*
X9360658Y-17543389D01*
X9360658Y-17543389D02*
X9370182Y-17562436D01*
X9370182Y-17562436D02*
X9379706Y-17571960D01*
X9379706Y-17571960D02*
X9398753Y-17581484D01*
X9398753Y-17581484D02*
X9436849Y-17581484D01*
X9436849Y-17581484D02*
X9455896Y-17571960D01*
X9455896Y-17571960D02*
X9465420Y-17562436D01*
X9465420Y-17562436D02*
X9474944Y-17543389D01*
X9474944Y-17543389D02*
X9474944Y-17495770D01*
X9474944Y-17495770D02*
X9465420Y-17476722D01*
X9465420Y-17476722D02*
X9455896Y-17467198D01*
X9455896Y-17467198D02*
X9436849Y-17457674D01*
X9436849Y-17457674D02*
X9398753Y-17457674D01*
X9398753Y-17457674D02*
X9379706Y-17467198D01*
X9379706Y-17467198D02*
X9370182Y-17476722D01*
X9370182Y-17476722D02*
X9360658Y-17495770D01*
X9551134Y-17381484D02*
X9551134Y-17419579D01*
X9627325Y-17381484D02*
X9627325Y-17419579D01*
X9922563Y-17657674D02*
X9913039Y-17648150D01*
X9913039Y-17648150D02*
X9893991Y-17619579D01*
X9893991Y-17619579D02*
X9884468Y-17600531D01*
X9884468Y-17600531D02*
X9874944Y-17571960D01*
X9874944Y-17571960D02*
X9865420Y-17524341D01*
X9865420Y-17524341D02*
X9865420Y-17486246D01*
X9865420Y-17486246D02*
X9874944Y-17438627D01*
X9874944Y-17438627D02*
X9884468Y-17410055D01*
X9884468Y-17410055D02*
X9893991Y-17391008D01*
X9893991Y-17391008D02*
X9913039Y-17362436D01*
X9913039Y-17362436D02*
X9922563Y-17352912D01*
X10103515Y-17581484D02*
X9989230Y-17581484D01*
X10046372Y-17581484D02*
X10046372Y-17381484D01*
X10046372Y-17381484D02*
X10027325Y-17410055D01*
X10027325Y-17410055D02*
X10008277Y-17429103D01*
X10008277Y-17429103D02*
X9989230Y-17438627D01*
X10227325Y-17381484D02*
X10246372Y-17381484D01*
X10246372Y-17381484D02*
X10265420Y-17391008D01*
X10265420Y-17391008D02*
X10274944Y-17400531D01*
X10274944Y-17400531D02*
X10284468Y-17419579D01*
X10284468Y-17419579D02*
X10293991Y-17457674D01*
X10293991Y-17457674D02*
X10293991Y-17505293D01*
X10293991Y-17505293D02*
X10284468Y-17543389D01*
X10284468Y-17543389D02*
X10274944Y-17562436D01*
X10274944Y-17562436D02*
X10265420Y-17571960D01*
X10265420Y-17571960D02*
X10246372Y-17581484D01*
X10246372Y-17581484D02*
X10227325Y-17581484D01*
X10227325Y-17581484D02*
X10208277Y-17571960D01*
X10208277Y-17571960D02*
X10198753Y-17562436D01*
X10198753Y-17562436D02*
X10189230Y-17543389D01*
X10189230Y-17543389D02*
X10179706Y-17505293D01*
X10179706Y-17505293D02*
X10179706Y-17457674D01*
X10179706Y-17457674D02*
X10189230Y-17419579D01*
X10189230Y-17419579D02*
X10198753Y-17400531D01*
X10198753Y-17400531D02*
X10208277Y-17391008D01*
X10208277Y-17391008D02*
X10227325Y-17381484D01*
X10532087Y-17581484D02*
X10532087Y-17381484D01*
X10617801Y-17581484D02*
X10617801Y-17476722D01*
X10617801Y-17476722D02*
X10608277Y-17457674D01*
X10608277Y-17457674D02*
X10589230Y-17448150D01*
X10589230Y-17448150D02*
X10560658Y-17448150D01*
X10560658Y-17448150D02*
X10541611Y-17457674D01*
X10541611Y-17457674D02*
X10532087Y-17467198D01*
X10741611Y-17581484D02*
X10722563Y-17571960D01*
X10722563Y-17571960D02*
X10713039Y-17562436D01*
X10713039Y-17562436D02*
X10703515Y-17543389D01*
X10703515Y-17543389D02*
X10703515Y-17486246D01*
X10703515Y-17486246D02*
X10713039Y-17467198D01*
X10713039Y-17467198D02*
X10722563Y-17457674D01*
X10722563Y-17457674D02*
X10741611Y-17448150D01*
X10741611Y-17448150D02*
X10770182Y-17448150D01*
X10770182Y-17448150D02*
X10789230Y-17457674D01*
X10789230Y-17457674D02*
X10798753Y-17467198D01*
X10798753Y-17467198D02*
X10808277Y-17486246D01*
X10808277Y-17486246D02*
X10808277Y-17543389D01*
X10808277Y-17543389D02*
X10798753Y-17562436D01*
X10798753Y-17562436D02*
X10789230Y-17571960D01*
X10789230Y-17571960D02*
X10770182Y-17581484D01*
X10770182Y-17581484D02*
X10741611Y-17581484D01*
X10922563Y-17581484D02*
X10903515Y-17571960D01*
X10903515Y-17571960D02*
X10893992Y-17552912D01*
X10893992Y-17552912D02*
X10893992Y-17381484D01*
X11074944Y-17571960D02*
X11055896Y-17581484D01*
X11055896Y-17581484D02*
X11017801Y-17581484D01*
X11017801Y-17581484D02*
X10998753Y-17571960D01*
X10998753Y-17571960D02*
X10989230Y-17552912D01*
X10989230Y-17552912D02*
X10989230Y-17476722D01*
X10989230Y-17476722D02*
X10998753Y-17457674D01*
X10998753Y-17457674D02*
X11017801Y-17448150D01*
X11017801Y-17448150D02*
X11055896Y-17448150D01*
X11055896Y-17448150D02*
X11074944Y-17457674D01*
X11074944Y-17457674D02*
X11084468Y-17476722D01*
X11084468Y-17476722D02*
X11084468Y-17495770D01*
X11084468Y-17495770D02*
X10989230Y-17514817D01*
X11160658Y-17571960D02*
X11179706Y-17581484D01*
X11179706Y-17581484D02*
X11217801Y-17581484D01*
X11217801Y-17581484D02*
X11236849Y-17571960D01*
X11236849Y-17571960D02*
X11246372Y-17552912D01*
X11246372Y-17552912D02*
X11246372Y-17543389D01*
X11246372Y-17543389D02*
X11236849Y-17524341D01*
X11236849Y-17524341D02*
X11217801Y-17514817D01*
X11217801Y-17514817D02*
X11189230Y-17514817D01*
X11189230Y-17514817D02*
X11170182Y-17505293D01*
X11170182Y-17505293D02*
X11160658Y-17486246D01*
X11160658Y-17486246D02*
X11160658Y-17476722D01*
X11160658Y-17476722D02*
X11170182Y-17457674D01*
X11170182Y-17457674D02*
X11189230Y-17448150D01*
X11189230Y-17448150D02*
X11217801Y-17448150D01*
X11217801Y-17448150D02*
X11236849Y-17457674D01*
X11313039Y-17657674D02*
X11322563Y-17648150D01*
X11322563Y-17648150D02*
X11341611Y-17619579D01*
X11341611Y-17619579D02*
X11351134Y-17600531D01*
X11351134Y-17600531D02*
X11360658Y-17571960D01*
X11360658Y-17571960D02*
X11370182Y-17524341D01*
X11370182Y-17524341D02*
X11370182Y-17486246D01*
X11370182Y-17486246D02*
X11360658Y-17438627D01*
X11360658Y-17438627D02*
X11351134Y-17410055D01*
X11351134Y-17410055D02*
X11341611Y-17391008D01*
X11341611Y-17391008D02*
X11322563Y-17362436D01*
X11322563Y-17362436D02*
X11313039Y-17352912D01*
D12*
X6335784Y-17782285D02*
X6335784Y-17725716D01*
X6279215Y-17725716D01*
X6279215Y-17782285D01*
X6335784Y-17782285D01*
D11*
X6646372Y-17645484D02*
X6665420Y-17645484D01*
X6665420Y-17645484D02*
X6684467Y-17655008D01*
X6684467Y-17655008D02*
X6693991Y-17664531D01*
X6693991Y-17664531D02*
X6703515Y-17683579D01*
X6703515Y-17683579D02*
X6713039Y-17721674D01*
X6713039Y-17721674D02*
X6713039Y-17769293D01*
X6713039Y-17769293D02*
X6703515Y-17807389D01*
X6703515Y-17807389D02*
X6693991Y-17826436D01*
X6693991Y-17826436D02*
X6684467Y-17835960D01*
X6684467Y-17835960D02*
X6665420Y-17845484D01*
X6665420Y-17845484D02*
X6646372Y-17845484D01*
X6646372Y-17845484D02*
X6627324Y-17835960D01*
X6627324Y-17835960D02*
X6617801Y-17826436D01*
X6617801Y-17826436D02*
X6608277Y-17807389D01*
X6608277Y-17807389D02*
X6598753Y-17769293D01*
X6598753Y-17769293D02*
X6598753Y-17721674D01*
X6598753Y-17721674D02*
X6608277Y-17683579D01*
X6608277Y-17683579D02*
X6617801Y-17664531D01*
X6617801Y-17664531D02*
X6627324Y-17655008D01*
X6627324Y-17655008D02*
X6646372Y-17645484D01*
X6798753Y-17826436D02*
X6808277Y-17835960D01*
X6808277Y-17835960D02*
X6798753Y-17845484D01*
X6798753Y-17845484D02*
X6789229Y-17835960D01*
X6789229Y-17835960D02*
X6798753Y-17826436D01*
X6798753Y-17826436D02*
X6798753Y-17845484D01*
X6922562Y-17731198D02*
X6903515Y-17721674D01*
X6903515Y-17721674D02*
X6893991Y-17712150D01*
X6893991Y-17712150D02*
X6884467Y-17693103D01*
X6884467Y-17693103D02*
X6884467Y-17683579D01*
X6884467Y-17683579D02*
X6893991Y-17664531D01*
X6893991Y-17664531D02*
X6903515Y-17655008D01*
X6903515Y-17655008D02*
X6922562Y-17645484D01*
X6922562Y-17645484D02*
X6960658Y-17645484D01*
X6960658Y-17645484D02*
X6979705Y-17655008D01*
X6979705Y-17655008D02*
X6989229Y-17664531D01*
X6989229Y-17664531D02*
X6998753Y-17683579D01*
X6998753Y-17683579D02*
X6998753Y-17693103D01*
X6998753Y-17693103D02*
X6989229Y-17712150D01*
X6989229Y-17712150D02*
X6979705Y-17721674D01*
X6979705Y-17721674D02*
X6960658Y-17731198D01*
X6960658Y-17731198D02*
X6922562Y-17731198D01*
X6922562Y-17731198D02*
X6903515Y-17740722D01*
X6903515Y-17740722D02*
X6893991Y-17750246D01*
X6893991Y-17750246D02*
X6884467Y-17769293D01*
X6884467Y-17769293D02*
X6884467Y-17807389D01*
X6884467Y-17807389D02*
X6893991Y-17826436D01*
X6893991Y-17826436D02*
X6903515Y-17835960D01*
X6903515Y-17835960D02*
X6922562Y-17845484D01*
X6922562Y-17845484D02*
X6960658Y-17845484D01*
X6960658Y-17845484D02*
X6979705Y-17835960D01*
X6979705Y-17835960D02*
X6989229Y-17826436D01*
X6989229Y-17826436D02*
X6998753Y-17807389D01*
X6998753Y-17807389D02*
X6998753Y-17769293D01*
X6998753Y-17769293D02*
X6989229Y-17750246D01*
X6989229Y-17750246D02*
X6979705Y-17740722D01*
X6979705Y-17740722D02*
X6960658Y-17731198D01*
X7122562Y-17645484D02*
X7141610Y-17645484D01*
X7141610Y-17645484D02*
X7160658Y-17655008D01*
X7160658Y-17655008D02*
X7170182Y-17664531D01*
X7170182Y-17664531D02*
X7179705Y-17683579D01*
X7179705Y-17683579D02*
X7189229Y-17721674D01*
X7189229Y-17721674D02*
X7189229Y-17769293D01*
X7189229Y-17769293D02*
X7179705Y-17807389D01*
X7179705Y-17807389D02*
X7170182Y-17826436D01*
X7170182Y-17826436D02*
X7160658Y-17835960D01*
X7160658Y-17835960D02*
X7141610Y-17845484D01*
X7141610Y-17845484D02*
X7122562Y-17845484D01*
X7122562Y-17845484D02*
X7103515Y-17835960D01*
X7103515Y-17835960D02*
X7093991Y-17826436D01*
X7093991Y-17826436D02*
X7084467Y-17807389D01*
X7084467Y-17807389D02*
X7074943Y-17769293D01*
X7074943Y-17769293D02*
X7074943Y-17721674D01*
X7074943Y-17721674D02*
X7084467Y-17683579D01*
X7084467Y-17683579D02*
X7093991Y-17664531D01*
X7093991Y-17664531D02*
X7103515Y-17655008D01*
X7103515Y-17655008D02*
X7122562Y-17645484D01*
X7313039Y-17645484D02*
X7332086Y-17645484D01*
X7332086Y-17645484D02*
X7351134Y-17655008D01*
X7351134Y-17655008D02*
X7360658Y-17664531D01*
X7360658Y-17664531D02*
X7370182Y-17683579D01*
X7370182Y-17683579D02*
X7379705Y-17721674D01*
X7379705Y-17721674D02*
X7379705Y-17769293D01*
X7379705Y-17769293D02*
X7370182Y-17807389D01*
X7370182Y-17807389D02*
X7360658Y-17826436D01*
X7360658Y-17826436D02*
X7351134Y-17835960D01*
X7351134Y-17835960D02*
X7332086Y-17845484D01*
X7332086Y-17845484D02*
X7313039Y-17845484D01*
X7313039Y-17845484D02*
X7293991Y-17835960D01*
X7293991Y-17835960D02*
X7284467Y-17826436D01*
X7284467Y-17826436D02*
X7274943Y-17807389D01*
X7274943Y-17807389D02*
X7265420Y-17769293D01*
X7265420Y-17769293D02*
X7265420Y-17721674D01*
X7265420Y-17721674D02*
X7274943Y-17683579D01*
X7274943Y-17683579D02*
X7284467Y-17664531D01*
X7284467Y-17664531D02*
X7293991Y-17655008D01*
X7293991Y-17655008D02*
X7313039Y-17645484D01*
X7465420Y-17845484D02*
X7465420Y-17712150D01*
X7465420Y-17731198D02*
X7474943Y-17721674D01*
X7474943Y-17721674D02*
X7493991Y-17712150D01*
X7493991Y-17712150D02*
X7522563Y-17712150D01*
X7522563Y-17712150D02*
X7541610Y-17721674D01*
X7541610Y-17721674D02*
X7551134Y-17740722D01*
X7551134Y-17740722D02*
X7551134Y-17845484D01*
X7551134Y-17740722D02*
X7560658Y-17721674D01*
X7560658Y-17721674D02*
X7579705Y-17712150D01*
X7579705Y-17712150D02*
X7608277Y-17712150D01*
X7608277Y-17712150D02*
X7627324Y-17721674D01*
X7627324Y-17721674D02*
X7636848Y-17740722D01*
X7636848Y-17740722D02*
X7636848Y-17845484D01*
X7732086Y-17845484D02*
X7732086Y-17712150D01*
X7732086Y-17731198D02*
X7741610Y-17721674D01*
X7741610Y-17721674D02*
X7760658Y-17712150D01*
X7760658Y-17712150D02*
X7789229Y-17712150D01*
X7789229Y-17712150D02*
X7808277Y-17721674D01*
X7808277Y-17721674D02*
X7817801Y-17740722D01*
X7817801Y-17740722D02*
X7817801Y-17845484D01*
X7817801Y-17740722D02*
X7827324Y-17721674D01*
X7827324Y-17721674D02*
X7846372Y-17712150D01*
X7846372Y-17712150D02*
X7874943Y-17712150D01*
X7874943Y-17712150D02*
X7893991Y-17721674D01*
X7893991Y-17721674D02*
X7903515Y-17740722D01*
X7903515Y-17740722D02*
X7903515Y-17845484D01*
X8293991Y-17635960D02*
X8122563Y-17893103D01*
X8551134Y-17645484D02*
X8570182Y-17645484D01*
X8570182Y-17645484D02*
X8589229Y-17655008D01*
X8589229Y-17655008D02*
X8598753Y-17664531D01*
X8598753Y-17664531D02*
X8608277Y-17683579D01*
X8608277Y-17683579D02*
X8617801Y-17721674D01*
X8617801Y-17721674D02*
X8617801Y-17769293D01*
X8617801Y-17769293D02*
X8608277Y-17807389D01*
X8608277Y-17807389D02*
X8598753Y-17826436D01*
X8598753Y-17826436D02*
X8589229Y-17835960D01*
X8589229Y-17835960D02*
X8570182Y-17845484D01*
X8570182Y-17845484D02*
X8551134Y-17845484D01*
X8551134Y-17845484D02*
X8532087Y-17835960D01*
X8532087Y-17835960D02*
X8522563Y-17826436D01*
X8522563Y-17826436D02*
X8513039Y-17807389D01*
X8513039Y-17807389D02*
X8503515Y-17769293D01*
X8503515Y-17769293D02*
X8503515Y-17721674D01*
X8503515Y-17721674D02*
X8513039Y-17683579D01*
X8513039Y-17683579D02*
X8522563Y-17664531D01*
X8522563Y-17664531D02*
X8532087Y-17655008D01*
X8532087Y-17655008D02*
X8551134Y-17645484D01*
X8703515Y-17826436D02*
X8713039Y-17835960D01*
X8713039Y-17835960D02*
X8703515Y-17845484D01*
X8703515Y-17845484D02*
X8693991Y-17835960D01*
X8693991Y-17835960D02*
X8703515Y-17826436D01*
X8703515Y-17826436D02*
X8703515Y-17845484D01*
X8836848Y-17645484D02*
X8855896Y-17645484D01*
X8855896Y-17645484D02*
X8874944Y-17655008D01*
X8874944Y-17655008D02*
X8884468Y-17664531D01*
X8884468Y-17664531D02*
X8893991Y-17683579D01*
X8893991Y-17683579D02*
X8903515Y-17721674D01*
X8903515Y-17721674D02*
X8903515Y-17769293D01*
X8903515Y-17769293D02*
X8893991Y-17807389D01*
X8893991Y-17807389D02*
X8884468Y-17826436D01*
X8884468Y-17826436D02*
X8874944Y-17835960D01*
X8874944Y-17835960D02*
X8855896Y-17845484D01*
X8855896Y-17845484D02*
X8836848Y-17845484D01*
X8836848Y-17845484D02*
X8817801Y-17835960D01*
X8817801Y-17835960D02*
X8808277Y-17826436D01*
X8808277Y-17826436D02*
X8798753Y-17807389D01*
X8798753Y-17807389D02*
X8789229Y-17769293D01*
X8789229Y-17769293D02*
X8789229Y-17721674D01*
X8789229Y-17721674D02*
X8798753Y-17683579D01*
X8798753Y-17683579D02*
X8808277Y-17664531D01*
X8808277Y-17664531D02*
X8817801Y-17655008D01*
X8817801Y-17655008D02*
X8836848Y-17645484D01*
X8970182Y-17645484D02*
X9093991Y-17645484D01*
X9093991Y-17645484D02*
X9027325Y-17721674D01*
X9027325Y-17721674D02*
X9055896Y-17721674D01*
X9055896Y-17721674D02*
X9074944Y-17731198D01*
X9074944Y-17731198D02*
X9084468Y-17740722D01*
X9084468Y-17740722D02*
X9093991Y-17759770D01*
X9093991Y-17759770D02*
X9093991Y-17807389D01*
X9093991Y-17807389D02*
X9084468Y-17826436D01*
X9084468Y-17826436D02*
X9074944Y-17835960D01*
X9074944Y-17835960D02*
X9055896Y-17845484D01*
X9055896Y-17845484D02*
X8998753Y-17845484D01*
X8998753Y-17845484D02*
X8979706Y-17835960D01*
X8979706Y-17835960D02*
X8970182Y-17826436D01*
X9284468Y-17845484D02*
X9170182Y-17845484D01*
X9227325Y-17845484D02*
X9227325Y-17645484D01*
X9227325Y-17645484D02*
X9208277Y-17674055D01*
X9208277Y-17674055D02*
X9189229Y-17693103D01*
X9189229Y-17693103D02*
X9170182Y-17702627D01*
X9465420Y-17645484D02*
X9370182Y-17645484D01*
X9370182Y-17645484D02*
X9360658Y-17740722D01*
X9360658Y-17740722D02*
X9370182Y-17731198D01*
X9370182Y-17731198D02*
X9389229Y-17721674D01*
X9389229Y-17721674D02*
X9436849Y-17721674D01*
X9436849Y-17721674D02*
X9455896Y-17731198D01*
X9455896Y-17731198D02*
X9465420Y-17740722D01*
X9465420Y-17740722D02*
X9474944Y-17759770D01*
X9474944Y-17759770D02*
X9474944Y-17807389D01*
X9474944Y-17807389D02*
X9465420Y-17826436D01*
X9465420Y-17826436D02*
X9455896Y-17835960D01*
X9455896Y-17835960D02*
X9436849Y-17845484D01*
X9436849Y-17845484D02*
X9389229Y-17845484D01*
X9389229Y-17845484D02*
X9370182Y-17835960D01*
X9370182Y-17835960D02*
X9360658Y-17826436D01*
X9551134Y-17645484D02*
X9551134Y-17683579D01*
X9627325Y-17645484D02*
X9627325Y-17683579D01*
X9922563Y-17921674D02*
X9913039Y-17912150D01*
X9913039Y-17912150D02*
X9893991Y-17883579D01*
X9893991Y-17883579D02*
X9884468Y-17864531D01*
X9884468Y-17864531D02*
X9874944Y-17835960D01*
X9874944Y-17835960D02*
X9865420Y-17788341D01*
X9865420Y-17788341D02*
X9865420Y-17750246D01*
X9865420Y-17750246D02*
X9874944Y-17702627D01*
X9874944Y-17702627D02*
X9884468Y-17674055D01*
X9884468Y-17674055D02*
X9893991Y-17655008D01*
X9893991Y-17655008D02*
X9913039Y-17626436D01*
X9913039Y-17626436D02*
X9922563Y-17616912D01*
X10084468Y-17645484D02*
X10046372Y-17645484D01*
X10046372Y-17645484D02*
X10027325Y-17655008D01*
X10027325Y-17655008D02*
X10017801Y-17664531D01*
X10017801Y-17664531D02*
X9998753Y-17693103D01*
X9998753Y-17693103D02*
X9989230Y-17731198D01*
X9989230Y-17731198D02*
X9989230Y-17807389D01*
X9989230Y-17807389D02*
X9998753Y-17826436D01*
X9998753Y-17826436D02*
X10008277Y-17835960D01*
X10008277Y-17835960D02*
X10027325Y-17845484D01*
X10027325Y-17845484D02*
X10065420Y-17845484D01*
X10065420Y-17845484D02*
X10084468Y-17835960D01*
X10084468Y-17835960D02*
X10093991Y-17826436D01*
X10093991Y-17826436D02*
X10103515Y-17807389D01*
X10103515Y-17807389D02*
X10103515Y-17759770D01*
X10103515Y-17759770D02*
X10093991Y-17740722D01*
X10093991Y-17740722D02*
X10084468Y-17731198D01*
X10084468Y-17731198D02*
X10065420Y-17721674D01*
X10065420Y-17721674D02*
X10027325Y-17721674D01*
X10027325Y-17721674D02*
X10008277Y-17731198D01*
X10008277Y-17731198D02*
X9998753Y-17740722D01*
X9998753Y-17740722D02*
X9989230Y-17759770D01*
X10179706Y-17664531D02*
X10189230Y-17655008D01*
X10189230Y-17655008D02*
X10208277Y-17645484D01*
X10208277Y-17645484D02*
X10255896Y-17645484D01*
X10255896Y-17645484D02*
X10274944Y-17655008D01*
X10274944Y-17655008D02*
X10284468Y-17664531D01*
X10284468Y-17664531D02*
X10293991Y-17683579D01*
X10293991Y-17683579D02*
X10293991Y-17702627D01*
X10293991Y-17702627D02*
X10284468Y-17731198D01*
X10284468Y-17731198D02*
X10170182Y-17845484D01*
X10170182Y-17845484D02*
X10293991Y-17845484D01*
X10532087Y-17845484D02*
X10532087Y-17645484D01*
X10617801Y-17845484D02*
X10617801Y-17740722D01*
X10617801Y-17740722D02*
X10608277Y-17721674D01*
X10608277Y-17721674D02*
X10589230Y-17712150D01*
X10589230Y-17712150D02*
X10560658Y-17712150D01*
X10560658Y-17712150D02*
X10541611Y-17721674D01*
X10541611Y-17721674D02*
X10532087Y-17731198D01*
X10741611Y-17845484D02*
X10722563Y-17835960D01*
X10722563Y-17835960D02*
X10713039Y-17826436D01*
X10713039Y-17826436D02*
X10703515Y-17807389D01*
X10703515Y-17807389D02*
X10703515Y-17750246D01*
X10703515Y-17750246D02*
X10713039Y-17731198D01*
X10713039Y-17731198D02*
X10722563Y-17721674D01*
X10722563Y-17721674D02*
X10741611Y-17712150D01*
X10741611Y-17712150D02*
X10770182Y-17712150D01*
X10770182Y-17712150D02*
X10789230Y-17721674D01*
X10789230Y-17721674D02*
X10798753Y-17731198D01*
X10798753Y-17731198D02*
X10808277Y-17750246D01*
X10808277Y-17750246D02*
X10808277Y-17807389D01*
X10808277Y-17807389D02*
X10798753Y-17826436D01*
X10798753Y-17826436D02*
X10789230Y-17835960D01*
X10789230Y-17835960D02*
X10770182Y-17845484D01*
X10770182Y-17845484D02*
X10741611Y-17845484D01*
X10922563Y-17845484D02*
X10903515Y-17835960D01*
X10903515Y-17835960D02*
X10893992Y-17816912D01*
X10893992Y-17816912D02*
X10893992Y-17645484D01*
X11074944Y-17835960D02*
X11055896Y-17845484D01*
X11055896Y-17845484D02*
X11017801Y-17845484D01*
X11017801Y-17845484D02*
X10998753Y-17835960D01*
X10998753Y-17835960D02*
X10989230Y-17816912D01*
X10989230Y-17816912D02*
X10989230Y-17740722D01*
X10989230Y-17740722D02*
X10998753Y-17721674D01*
X10998753Y-17721674D02*
X11017801Y-17712150D01*
X11017801Y-17712150D02*
X11055896Y-17712150D01*
X11055896Y-17712150D02*
X11074944Y-17721674D01*
X11074944Y-17721674D02*
X11084468Y-17740722D01*
X11084468Y-17740722D02*
X11084468Y-17759770D01*
X11084468Y-17759770D02*
X10989230Y-17778817D01*
X11160658Y-17835960D02*
X11179706Y-17845484D01*
X11179706Y-17845484D02*
X11217801Y-17845484D01*
X11217801Y-17845484D02*
X11236849Y-17835960D01*
X11236849Y-17835960D02*
X11246372Y-17816912D01*
X11246372Y-17816912D02*
X11246372Y-17807389D01*
X11246372Y-17807389D02*
X11236849Y-17788341D01*
X11236849Y-17788341D02*
X11217801Y-17778817D01*
X11217801Y-17778817D02*
X11189230Y-17778817D01*
X11189230Y-17778817D02*
X11170182Y-17769293D01*
X11170182Y-17769293D02*
X11160658Y-17750246D01*
X11160658Y-17750246D02*
X11160658Y-17740722D01*
X11160658Y-17740722D02*
X11170182Y-17721674D01*
X11170182Y-17721674D02*
X11189230Y-17712150D01*
X11189230Y-17712150D02*
X11217801Y-17712150D01*
X11217801Y-17712150D02*
X11236849Y-17721674D01*
X11313039Y-17921674D02*
X11322563Y-17912150D01*
X11322563Y-17912150D02*
X11341611Y-17883579D01*
X11341611Y-17883579D02*
X11351134Y-17864531D01*
X11351134Y-17864531D02*
X11360658Y-17835960D01*
X11360658Y-17835960D02*
X11370182Y-17788341D01*
X11370182Y-17788341D02*
X11370182Y-17750246D01*
X11370182Y-17750246D02*
X11360658Y-17702627D01*
X11360658Y-17702627D02*
X11351134Y-17674055D01*
X11351134Y-17674055D02*
X11341611Y-17655008D01*
X11341611Y-17655008D02*
X11322563Y-17626436D01*
X11322563Y-17626436D02*
X11313039Y-17616912D01*
D12*
X6302500Y-18063000D02*
X6347500Y-18018000D01*
X6302500Y-17973000D01*
X6257500Y-18018000D01*
X6302500Y-18063000D01*
D11*
X6646372Y-17909484D02*
X6665420Y-17909484D01*
X6665420Y-17909484D02*
X6684467Y-17919008D01*
X6684467Y-17919008D02*
X6693991Y-17928531D01*
X6693991Y-17928531D02*
X6703515Y-17947579D01*
X6703515Y-17947579D02*
X6713039Y-17985674D01*
X6713039Y-17985674D02*
X6713039Y-18033293D01*
X6713039Y-18033293D02*
X6703515Y-18071389D01*
X6703515Y-18071389D02*
X6693991Y-18090436D01*
X6693991Y-18090436D02*
X6684467Y-18099960D01*
X6684467Y-18099960D02*
X6665420Y-18109484D01*
X6665420Y-18109484D02*
X6646372Y-18109484D01*
X6646372Y-18109484D02*
X6627324Y-18099960D01*
X6627324Y-18099960D02*
X6617801Y-18090436D01*
X6617801Y-18090436D02*
X6608277Y-18071389D01*
X6608277Y-18071389D02*
X6598753Y-18033293D01*
X6598753Y-18033293D02*
X6598753Y-17985674D01*
X6598753Y-17985674D02*
X6608277Y-17947579D01*
X6608277Y-17947579D02*
X6617801Y-17928531D01*
X6617801Y-17928531D02*
X6627324Y-17919008D01*
X6627324Y-17919008D02*
X6646372Y-17909484D01*
X6798753Y-18090436D02*
X6808277Y-18099960D01*
X6808277Y-18099960D02*
X6798753Y-18109484D01*
X6798753Y-18109484D02*
X6789229Y-18099960D01*
X6789229Y-18099960D02*
X6798753Y-18090436D01*
X6798753Y-18090436D02*
X6798753Y-18109484D01*
X6903515Y-18109484D02*
X6941610Y-18109484D01*
X6941610Y-18109484D02*
X6960658Y-18099960D01*
X6960658Y-18099960D02*
X6970182Y-18090436D01*
X6970182Y-18090436D02*
X6989229Y-18061865D01*
X6989229Y-18061865D02*
X6998753Y-18023770D01*
X6998753Y-18023770D02*
X6998753Y-17947579D01*
X6998753Y-17947579D02*
X6989229Y-17928531D01*
X6989229Y-17928531D02*
X6979705Y-17919008D01*
X6979705Y-17919008D02*
X6960658Y-17909484D01*
X6960658Y-17909484D02*
X6922562Y-17909484D01*
X6922562Y-17909484D02*
X6903515Y-17919008D01*
X6903515Y-17919008D02*
X6893991Y-17928531D01*
X6893991Y-17928531D02*
X6884467Y-17947579D01*
X6884467Y-17947579D02*
X6884467Y-17995198D01*
X6884467Y-17995198D02*
X6893991Y-18014246D01*
X6893991Y-18014246D02*
X6903515Y-18023770D01*
X6903515Y-18023770D02*
X6922562Y-18033293D01*
X6922562Y-18033293D02*
X6960658Y-18033293D01*
X6960658Y-18033293D02*
X6979705Y-18023770D01*
X6979705Y-18023770D02*
X6989229Y-18014246D01*
X6989229Y-18014246D02*
X6998753Y-17995198D01*
X7122562Y-17909484D02*
X7141610Y-17909484D01*
X7141610Y-17909484D02*
X7160658Y-17919008D01*
X7160658Y-17919008D02*
X7170182Y-17928531D01*
X7170182Y-17928531D02*
X7179705Y-17947579D01*
X7179705Y-17947579D02*
X7189229Y-17985674D01*
X7189229Y-17985674D02*
X7189229Y-18033293D01*
X7189229Y-18033293D02*
X7179705Y-18071389D01*
X7179705Y-18071389D02*
X7170182Y-18090436D01*
X7170182Y-18090436D02*
X7160658Y-18099960D01*
X7160658Y-18099960D02*
X7141610Y-18109484D01*
X7141610Y-18109484D02*
X7122562Y-18109484D01*
X7122562Y-18109484D02*
X7103515Y-18099960D01*
X7103515Y-18099960D02*
X7093991Y-18090436D01*
X7093991Y-18090436D02*
X7084467Y-18071389D01*
X7084467Y-18071389D02*
X7074943Y-18033293D01*
X7074943Y-18033293D02*
X7074943Y-17985674D01*
X7074943Y-17985674D02*
X7084467Y-17947579D01*
X7084467Y-17947579D02*
X7093991Y-17928531D01*
X7093991Y-17928531D02*
X7103515Y-17919008D01*
X7103515Y-17919008D02*
X7122562Y-17909484D01*
X7313039Y-17909484D02*
X7332086Y-17909484D01*
X7332086Y-17909484D02*
X7351134Y-17919008D01*
X7351134Y-17919008D02*
X7360658Y-17928531D01*
X7360658Y-17928531D02*
X7370182Y-17947579D01*
X7370182Y-17947579D02*
X7379705Y-17985674D01*
X7379705Y-17985674D02*
X7379705Y-18033293D01*
X7379705Y-18033293D02*
X7370182Y-18071389D01*
X7370182Y-18071389D02*
X7360658Y-18090436D01*
X7360658Y-18090436D02*
X7351134Y-18099960D01*
X7351134Y-18099960D02*
X7332086Y-18109484D01*
X7332086Y-18109484D02*
X7313039Y-18109484D01*
X7313039Y-18109484D02*
X7293991Y-18099960D01*
X7293991Y-18099960D02*
X7284467Y-18090436D01*
X7284467Y-18090436D02*
X7274943Y-18071389D01*
X7274943Y-18071389D02*
X7265420Y-18033293D01*
X7265420Y-18033293D02*
X7265420Y-17985674D01*
X7265420Y-17985674D02*
X7274943Y-17947579D01*
X7274943Y-17947579D02*
X7284467Y-17928531D01*
X7284467Y-17928531D02*
X7293991Y-17919008D01*
X7293991Y-17919008D02*
X7313039Y-17909484D01*
X7465420Y-18109484D02*
X7465420Y-17976150D01*
X7465420Y-17995198D02*
X7474943Y-17985674D01*
X7474943Y-17985674D02*
X7493991Y-17976150D01*
X7493991Y-17976150D02*
X7522563Y-17976150D01*
X7522563Y-17976150D02*
X7541610Y-17985674D01*
X7541610Y-17985674D02*
X7551134Y-18004722D01*
X7551134Y-18004722D02*
X7551134Y-18109484D01*
X7551134Y-18004722D02*
X7560658Y-17985674D01*
X7560658Y-17985674D02*
X7579705Y-17976150D01*
X7579705Y-17976150D02*
X7608277Y-17976150D01*
X7608277Y-17976150D02*
X7627324Y-17985674D01*
X7627324Y-17985674D02*
X7636848Y-18004722D01*
X7636848Y-18004722D02*
X7636848Y-18109484D01*
X7732086Y-18109484D02*
X7732086Y-17976150D01*
X7732086Y-17995198D02*
X7741610Y-17985674D01*
X7741610Y-17985674D02*
X7760658Y-17976150D01*
X7760658Y-17976150D02*
X7789229Y-17976150D01*
X7789229Y-17976150D02*
X7808277Y-17985674D01*
X7808277Y-17985674D02*
X7817801Y-18004722D01*
X7817801Y-18004722D02*
X7817801Y-18109484D01*
X7817801Y-18004722D02*
X7827324Y-17985674D01*
X7827324Y-17985674D02*
X7846372Y-17976150D01*
X7846372Y-17976150D02*
X7874943Y-17976150D01*
X7874943Y-17976150D02*
X7893991Y-17985674D01*
X7893991Y-17985674D02*
X7903515Y-18004722D01*
X7903515Y-18004722D02*
X7903515Y-18109484D01*
X8293991Y-17899960D02*
X8122563Y-18157103D01*
X8551134Y-17909484D02*
X8570182Y-17909484D01*
X8570182Y-17909484D02*
X8589229Y-17919008D01*
X8589229Y-17919008D02*
X8598753Y-17928531D01*
X8598753Y-17928531D02*
X8608277Y-17947579D01*
X8608277Y-17947579D02*
X8617801Y-17985674D01*
X8617801Y-17985674D02*
X8617801Y-18033293D01*
X8617801Y-18033293D02*
X8608277Y-18071389D01*
X8608277Y-18071389D02*
X8598753Y-18090436D01*
X8598753Y-18090436D02*
X8589229Y-18099960D01*
X8589229Y-18099960D02*
X8570182Y-18109484D01*
X8570182Y-18109484D02*
X8551134Y-18109484D01*
X8551134Y-18109484D02*
X8532087Y-18099960D01*
X8532087Y-18099960D02*
X8522563Y-18090436D01*
X8522563Y-18090436D02*
X8513039Y-18071389D01*
X8513039Y-18071389D02*
X8503515Y-18033293D01*
X8503515Y-18033293D02*
X8503515Y-17985674D01*
X8503515Y-17985674D02*
X8513039Y-17947579D01*
X8513039Y-17947579D02*
X8522563Y-17928531D01*
X8522563Y-17928531D02*
X8532087Y-17919008D01*
X8532087Y-17919008D02*
X8551134Y-17909484D01*
X8703515Y-18090436D02*
X8713039Y-18099960D01*
X8713039Y-18099960D02*
X8703515Y-18109484D01*
X8703515Y-18109484D02*
X8693991Y-18099960D01*
X8693991Y-18099960D02*
X8703515Y-18090436D01*
X8703515Y-18090436D02*
X8703515Y-18109484D01*
X8836848Y-17909484D02*
X8855896Y-17909484D01*
X8855896Y-17909484D02*
X8874944Y-17919008D01*
X8874944Y-17919008D02*
X8884468Y-17928531D01*
X8884468Y-17928531D02*
X8893991Y-17947579D01*
X8893991Y-17947579D02*
X8903515Y-17985674D01*
X8903515Y-17985674D02*
X8903515Y-18033293D01*
X8903515Y-18033293D02*
X8893991Y-18071389D01*
X8893991Y-18071389D02*
X8884468Y-18090436D01*
X8884468Y-18090436D02*
X8874944Y-18099960D01*
X8874944Y-18099960D02*
X8855896Y-18109484D01*
X8855896Y-18109484D02*
X8836848Y-18109484D01*
X8836848Y-18109484D02*
X8817801Y-18099960D01*
X8817801Y-18099960D02*
X8808277Y-18090436D01*
X8808277Y-18090436D02*
X8798753Y-18071389D01*
X8798753Y-18071389D02*
X8789229Y-18033293D01*
X8789229Y-18033293D02*
X8789229Y-17985674D01*
X8789229Y-17985674D02*
X8798753Y-17947579D01*
X8798753Y-17947579D02*
X8808277Y-17928531D01*
X8808277Y-17928531D02*
X8817801Y-17919008D01*
X8817801Y-17919008D02*
X8836848Y-17909484D01*
X8970182Y-17909484D02*
X9093991Y-17909484D01*
X9093991Y-17909484D02*
X9027325Y-17985674D01*
X9027325Y-17985674D02*
X9055896Y-17985674D01*
X9055896Y-17985674D02*
X9074944Y-17995198D01*
X9074944Y-17995198D02*
X9084468Y-18004722D01*
X9084468Y-18004722D02*
X9093991Y-18023770D01*
X9093991Y-18023770D02*
X9093991Y-18071389D01*
X9093991Y-18071389D02*
X9084468Y-18090436D01*
X9084468Y-18090436D02*
X9074944Y-18099960D01*
X9074944Y-18099960D02*
X9055896Y-18109484D01*
X9055896Y-18109484D02*
X8998753Y-18109484D01*
X8998753Y-18109484D02*
X8979706Y-18099960D01*
X8979706Y-18099960D02*
X8970182Y-18090436D01*
X9274944Y-17909484D02*
X9179706Y-17909484D01*
X9179706Y-17909484D02*
X9170182Y-18004722D01*
X9170182Y-18004722D02*
X9179706Y-17995198D01*
X9179706Y-17995198D02*
X9198753Y-17985674D01*
X9198753Y-17985674D02*
X9246372Y-17985674D01*
X9246372Y-17985674D02*
X9265420Y-17995198D01*
X9265420Y-17995198D02*
X9274944Y-18004722D01*
X9274944Y-18004722D02*
X9284468Y-18023770D01*
X9284468Y-18023770D02*
X9284468Y-18071389D01*
X9284468Y-18071389D02*
X9274944Y-18090436D01*
X9274944Y-18090436D02*
X9265420Y-18099960D01*
X9265420Y-18099960D02*
X9246372Y-18109484D01*
X9246372Y-18109484D02*
X9198753Y-18109484D01*
X9198753Y-18109484D02*
X9179706Y-18099960D01*
X9179706Y-18099960D02*
X9170182Y-18090436D01*
X9455896Y-17976150D02*
X9455896Y-18109484D01*
X9408277Y-17899960D02*
X9360658Y-18042817D01*
X9360658Y-18042817D02*
X9484468Y-18042817D01*
X9551134Y-17909484D02*
X9551134Y-17947579D01*
X9627325Y-17909484D02*
X9627325Y-17947579D01*
X9922563Y-18185674D02*
X9913039Y-18176150D01*
X9913039Y-18176150D02*
X9893991Y-18147579D01*
X9893991Y-18147579D02*
X9884468Y-18128531D01*
X9884468Y-18128531D02*
X9874944Y-18099960D01*
X9874944Y-18099960D02*
X9865420Y-18052341D01*
X9865420Y-18052341D02*
X9865420Y-18014246D01*
X9865420Y-18014246D02*
X9874944Y-17966627D01*
X9874944Y-17966627D02*
X9884468Y-17938055D01*
X9884468Y-17938055D02*
X9893991Y-17919008D01*
X9893991Y-17919008D02*
X9913039Y-17890436D01*
X9913039Y-17890436D02*
X9922563Y-17880912D01*
X10084468Y-17976150D02*
X10084468Y-18109484D01*
X10036849Y-17899960D02*
X9989230Y-18042817D01*
X9989230Y-18042817D02*
X10113039Y-18042817D01*
X10341611Y-18109484D02*
X10341611Y-17909484D01*
X10427325Y-18109484D02*
X10427325Y-18004722D01*
X10427325Y-18004722D02*
X10417801Y-17985674D01*
X10417801Y-17985674D02*
X10398753Y-17976150D01*
X10398753Y-17976150D02*
X10370182Y-17976150D01*
X10370182Y-17976150D02*
X10351134Y-17985674D01*
X10351134Y-17985674D02*
X10341611Y-17995198D01*
X10551134Y-18109484D02*
X10532087Y-18099960D01*
X10532087Y-18099960D02*
X10522563Y-18090436D01*
X10522563Y-18090436D02*
X10513039Y-18071389D01*
X10513039Y-18071389D02*
X10513039Y-18014246D01*
X10513039Y-18014246D02*
X10522563Y-17995198D01*
X10522563Y-17995198D02*
X10532087Y-17985674D01*
X10532087Y-17985674D02*
X10551134Y-17976150D01*
X10551134Y-17976150D02*
X10579706Y-17976150D01*
X10579706Y-17976150D02*
X10598753Y-17985674D01*
X10598753Y-17985674D02*
X10608277Y-17995198D01*
X10608277Y-17995198D02*
X10617801Y-18014246D01*
X10617801Y-18014246D02*
X10617801Y-18071389D01*
X10617801Y-18071389D02*
X10608277Y-18090436D01*
X10608277Y-18090436D02*
X10598753Y-18099960D01*
X10598753Y-18099960D02*
X10579706Y-18109484D01*
X10579706Y-18109484D02*
X10551134Y-18109484D01*
X10732087Y-18109484D02*
X10713039Y-18099960D01*
X10713039Y-18099960D02*
X10703515Y-18080912D01*
X10703515Y-18080912D02*
X10703515Y-17909484D01*
X10884468Y-18099960D02*
X10865420Y-18109484D01*
X10865420Y-18109484D02*
X10827325Y-18109484D01*
X10827325Y-18109484D02*
X10808277Y-18099960D01*
X10808277Y-18099960D02*
X10798753Y-18080912D01*
X10798753Y-18080912D02*
X10798753Y-18004722D01*
X10798753Y-18004722D02*
X10808277Y-17985674D01*
X10808277Y-17985674D02*
X10827325Y-17976150D01*
X10827325Y-17976150D02*
X10865420Y-17976150D01*
X10865420Y-17976150D02*
X10884468Y-17985674D01*
X10884468Y-17985674D02*
X10893992Y-18004722D01*
X10893992Y-18004722D02*
X10893992Y-18023770D01*
X10893992Y-18023770D02*
X10798753Y-18042817D01*
X10970182Y-18099960D02*
X10989230Y-18109484D01*
X10989230Y-18109484D02*
X11027325Y-18109484D01*
X11027325Y-18109484D02*
X11046373Y-18099960D01*
X11046373Y-18099960D02*
X11055896Y-18080912D01*
X11055896Y-18080912D02*
X11055896Y-18071389D01*
X11055896Y-18071389D02*
X11046373Y-18052341D01*
X11046373Y-18052341D02*
X11027325Y-18042817D01*
X11027325Y-18042817D02*
X10998753Y-18042817D01*
X10998753Y-18042817D02*
X10979706Y-18033293D01*
X10979706Y-18033293D02*
X10970182Y-18014246D01*
X10970182Y-18014246D02*
X10970182Y-18004722D01*
X10970182Y-18004722D02*
X10979706Y-17985674D01*
X10979706Y-17985674D02*
X10998753Y-17976150D01*
X10998753Y-17976150D02*
X11027325Y-17976150D01*
X11027325Y-17976150D02*
X11046373Y-17985674D01*
X11122563Y-18185674D02*
X11132087Y-18176150D01*
X11132087Y-18176150D02*
X11151134Y-18147579D01*
X11151134Y-18147579D02*
X11160658Y-18128531D01*
X11160658Y-18128531D02*
X11170182Y-18099960D01*
X11170182Y-18099960D02*
X11179706Y-18052341D01*
X11179706Y-18052341D02*
X11179706Y-18014246D01*
X11179706Y-18014246D02*
X11170182Y-17966627D01*
X11170182Y-17966627D02*
X11160658Y-17938055D01*
X11160658Y-17938055D02*
X11151134Y-17919008D01*
X11151134Y-17919008D02*
X11132087Y-17890436D01*
X11132087Y-17890436D02*
X11122563Y-17880912D01*
D12*
X6247500Y-18232000D02*
X6347500Y-18332000D01*
X6347500Y-18232000D02*
X6247500Y-18332000D01*
X6347500Y-18282000D02*
G75*
G02*
X6247500Y-18282000I-50000J0D01*
G01*
X6247500Y-18282000D02*
G75*
G02*
X6347500Y-18282000I50000J0D01*
G01*
D11*
X6713039Y-18373484D02*
X6598753Y-18373484D01*
X6655896Y-18373484D02*
X6655896Y-18173484D01*
X6655896Y-18173484D02*
X6636848Y-18202055D01*
X6636848Y-18202055D02*
X6617801Y-18221103D01*
X6617801Y-18221103D02*
X6598753Y-18230627D01*
X6798753Y-18354436D02*
X6808277Y-18363960D01*
X6808277Y-18363960D02*
X6798753Y-18373484D01*
X6798753Y-18373484D02*
X6789229Y-18363960D01*
X6789229Y-18363960D02*
X6798753Y-18354436D01*
X6798753Y-18354436D02*
X6798753Y-18373484D01*
X6932086Y-18173484D02*
X6951134Y-18173484D01*
X6951134Y-18173484D02*
X6970182Y-18183008D01*
X6970182Y-18183008D02*
X6979705Y-18192531D01*
X6979705Y-18192531D02*
X6989229Y-18211579D01*
X6989229Y-18211579D02*
X6998753Y-18249674D01*
X6998753Y-18249674D02*
X6998753Y-18297293D01*
X6998753Y-18297293D02*
X6989229Y-18335389D01*
X6989229Y-18335389D02*
X6979705Y-18354436D01*
X6979705Y-18354436D02*
X6970182Y-18363960D01*
X6970182Y-18363960D02*
X6951134Y-18373484D01*
X6951134Y-18373484D02*
X6932086Y-18373484D01*
X6932086Y-18373484D02*
X6913039Y-18363960D01*
X6913039Y-18363960D02*
X6903515Y-18354436D01*
X6903515Y-18354436D02*
X6893991Y-18335389D01*
X6893991Y-18335389D02*
X6884467Y-18297293D01*
X6884467Y-18297293D02*
X6884467Y-18249674D01*
X6884467Y-18249674D02*
X6893991Y-18211579D01*
X6893991Y-18211579D02*
X6903515Y-18192531D01*
X6903515Y-18192531D02*
X6913039Y-18183008D01*
X6913039Y-18183008D02*
X6932086Y-18173484D01*
X7122562Y-18173484D02*
X7141610Y-18173484D01*
X7141610Y-18173484D02*
X7160658Y-18183008D01*
X7160658Y-18183008D02*
X7170182Y-18192531D01*
X7170182Y-18192531D02*
X7179705Y-18211579D01*
X7179705Y-18211579D02*
X7189229Y-18249674D01*
X7189229Y-18249674D02*
X7189229Y-18297293D01*
X7189229Y-18297293D02*
X7179705Y-18335389D01*
X7179705Y-18335389D02*
X7170182Y-18354436D01*
X7170182Y-18354436D02*
X7160658Y-18363960D01*
X7160658Y-18363960D02*
X7141610Y-18373484D01*
X7141610Y-18373484D02*
X7122562Y-18373484D01*
X7122562Y-18373484D02*
X7103515Y-18363960D01*
X7103515Y-18363960D02*
X7093991Y-18354436D01*
X7093991Y-18354436D02*
X7084467Y-18335389D01*
X7084467Y-18335389D02*
X7074943Y-18297293D01*
X7074943Y-18297293D02*
X7074943Y-18249674D01*
X7074943Y-18249674D02*
X7084467Y-18211579D01*
X7084467Y-18211579D02*
X7093991Y-18192531D01*
X7093991Y-18192531D02*
X7103515Y-18183008D01*
X7103515Y-18183008D02*
X7122562Y-18173484D01*
X7313039Y-18173484D02*
X7332086Y-18173484D01*
X7332086Y-18173484D02*
X7351134Y-18183008D01*
X7351134Y-18183008D02*
X7360658Y-18192531D01*
X7360658Y-18192531D02*
X7370182Y-18211579D01*
X7370182Y-18211579D02*
X7379705Y-18249674D01*
X7379705Y-18249674D02*
X7379705Y-18297293D01*
X7379705Y-18297293D02*
X7370182Y-18335389D01*
X7370182Y-18335389D02*
X7360658Y-18354436D01*
X7360658Y-18354436D02*
X7351134Y-18363960D01*
X7351134Y-18363960D02*
X7332086Y-18373484D01*
X7332086Y-18373484D02*
X7313039Y-18373484D01*
X7313039Y-18373484D02*
X7293991Y-18363960D01*
X7293991Y-18363960D02*
X7284467Y-18354436D01*
X7284467Y-18354436D02*
X7274943Y-18335389D01*
X7274943Y-18335389D02*
X7265420Y-18297293D01*
X7265420Y-18297293D02*
X7265420Y-18249674D01*
X7265420Y-18249674D02*
X7274943Y-18211579D01*
X7274943Y-18211579D02*
X7284467Y-18192531D01*
X7284467Y-18192531D02*
X7293991Y-18183008D01*
X7293991Y-18183008D02*
X7313039Y-18173484D01*
X7465420Y-18373484D02*
X7465420Y-18240150D01*
X7465420Y-18259198D02*
X7474943Y-18249674D01*
X7474943Y-18249674D02*
X7493991Y-18240150D01*
X7493991Y-18240150D02*
X7522563Y-18240150D01*
X7522563Y-18240150D02*
X7541610Y-18249674D01*
X7541610Y-18249674D02*
X7551134Y-18268722D01*
X7551134Y-18268722D02*
X7551134Y-18373484D01*
X7551134Y-18268722D02*
X7560658Y-18249674D01*
X7560658Y-18249674D02*
X7579705Y-18240150D01*
X7579705Y-18240150D02*
X7608277Y-18240150D01*
X7608277Y-18240150D02*
X7627324Y-18249674D01*
X7627324Y-18249674D02*
X7636848Y-18268722D01*
X7636848Y-18268722D02*
X7636848Y-18373484D01*
X7732086Y-18373484D02*
X7732086Y-18240150D01*
X7732086Y-18259198D02*
X7741610Y-18249674D01*
X7741610Y-18249674D02*
X7760658Y-18240150D01*
X7760658Y-18240150D02*
X7789229Y-18240150D01*
X7789229Y-18240150D02*
X7808277Y-18249674D01*
X7808277Y-18249674D02*
X7817801Y-18268722D01*
X7817801Y-18268722D02*
X7817801Y-18373484D01*
X7817801Y-18268722D02*
X7827324Y-18249674D01*
X7827324Y-18249674D02*
X7846372Y-18240150D01*
X7846372Y-18240150D02*
X7874943Y-18240150D01*
X7874943Y-18240150D02*
X7893991Y-18249674D01*
X7893991Y-18249674D02*
X7903515Y-18268722D01*
X7903515Y-18268722D02*
X7903515Y-18373484D01*
X8293991Y-18163960D02*
X8122563Y-18421103D01*
X8551134Y-18173484D02*
X8570182Y-18173484D01*
X8570182Y-18173484D02*
X8589229Y-18183008D01*
X8589229Y-18183008D02*
X8598753Y-18192531D01*
X8598753Y-18192531D02*
X8608277Y-18211579D01*
X8608277Y-18211579D02*
X8617801Y-18249674D01*
X8617801Y-18249674D02*
X8617801Y-18297293D01*
X8617801Y-18297293D02*
X8608277Y-18335389D01*
X8608277Y-18335389D02*
X8598753Y-18354436D01*
X8598753Y-18354436D02*
X8589229Y-18363960D01*
X8589229Y-18363960D02*
X8570182Y-18373484D01*
X8570182Y-18373484D02*
X8551134Y-18373484D01*
X8551134Y-18373484D02*
X8532087Y-18363960D01*
X8532087Y-18363960D02*
X8522563Y-18354436D01*
X8522563Y-18354436D02*
X8513039Y-18335389D01*
X8513039Y-18335389D02*
X8503515Y-18297293D01*
X8503515Y-18297293D02*
X8503515Y-18249674D01*
X8503515Y-18249674D02*
X8513039Y-18211579D01*
X8513039Y-18211579D02*
X8522563Y-18192531D01*
X8522563Y-18192531D02*
X8532087Y-18183008D01*
X8532087Y-18183008D02*
X8551134Y-18173484D01*
X8703515Y-18354436D02*
X8713039Y-18363960D01*
X8713039Y-18363960D02*
X8703515Y-18373484D01*
X8703515Y-18373484D02*
X8693991Y-18363960D01*
X8693991Y-18363960D02*
X8703515Y-18354436D01*
X8703515Y-18354436D02*
X8703515Y-18373484D01*
X8836848Y-18173484D02*
X8855896Y-18173484D01*
X8855896Y-18173484D02*
X8874944Y-18183008D01*
X8874944Y-18183008D02*
X8884468Y-18192531D01*
X8884468Y-18192531D02*
X8893991Y-18211579D01*
X8893991Y-18211579D02*
X8903515Y-18249674D01*
X8903515Y-18249674D02*
X8903515Y-18297293D01*
X8903515Y-18297293D02*
X8893991Y-18335389D01*
X8893991Y-18335389D02*
X8884468Y-18354436D01*
X8884468Y-18354436D02*
X8874944Y-18363960D01*
X8874944Y-18363960D02*
X8855896Y-18373484D01*
X8855896Y-18373484D02*
X8836848Y-18373484D01*
X8836848Y-18373484D02*
X8817801Y-18363960D01*
X8817801Y-18363960D02*
X8808277Y-18354436D01*
X8808277Y-18354436D02*
X8798753Y-18335389D01*
X8798753Y-18335389D02*
X8789229Y-18297293D01*
X8789229Y-18297293D02*
X8789229Y-18249674D01*
X8789229Y-18249674D02*
X8798753Y-18211579D01*
X8798753Y-18211579D02*
X8808277Y-18192531D01*
X8808277Y-18192531D02*
X8817801Y-18183008D01*
X8817801Y-18183008D02*
X8836848Y-18173484D01*
X8970182Y-18173484D02*
X9093991Y-18173484D01*
X9093991Y-18173484D02*
X9027325Y-18249674D01*
X9027325Y-18249674D02*
X9055896Y-18249674D01*
X9055896Y-18249674D02*
X9074944Y-18259198D01*
X9074944Y-18259198D02*
X9084468Y-18268722D01*
X9084468Y-18268722D02*
X9093991Y-18287770D01*
X9093991Y-18287770D02*
X9093991Y-18335389D01*
X9093991Y-18335389D02*
X9084468Y-18354436D01*
X9084468Y-18354436D02*
X9074944Y-18363960D01*
X9074944Y-18363960D02*
X9055896Y-18373484D01*
X9055896Y-18373484D02*
X8998753Y-18373484D01*
X8998753Y-18373484D02*
X8979706Y-18363960D01*
X8979706Y-18363960D02*
X8970182Y-18354436D01*
X9189229Y-18373484D02*
X9227325Y-18373484D01*
X9227325Y-18373484D02*
X9246372Y-18363960D01*
X9246372Y-18363960D02*
X9255896Y-18354436D01*
X9255896Y-18354436D02*
X9274944Y-18325865D01*
X9274944Y-18325865D02*
X9284468Y-18287770D01*
X9284468Y-18287770D02*
X9284468Y-18211579D01*
X9284468Y-18211579D02*
X9274944Y-18192531D01*
X9274944Y-18192531D02*
X9265420Y-18183008D01*
X9265420Y-18183008D02*
X9246372Y-18173484D01*
X9246372Y-18173484D02*
X9208277Y-18173484D01*
X9208277Y-18173484D02*
X9189229Y-18183008D01*
X9189229Y-18183008D02*
X9179706Y-18192531D01*
X9179706Y-18192531D02*
X9170182Y-18211579D01*
X9170182Y-18211579D02*
X9170182Y-18259198D01*
X9170182Y-18259198D02*
X9179706Y-18278246D01*
X9179706Y-18278246D02*
X9189229Y-18287770D01*
X9189229Y-18287770D02*
X9208277Y-18297293D01*
X9208277Y-18297293D02*
X9246372Y-18297293D01*
X9246372Y-18297293D02*
X9265420Y-18287770D01*
X9265420Y-18287770D02*
X9274944Y-18278246D01*
X9274944Y-18278246D02*
X9284468Y-18259198D01*
X9455896Y-18240150D02*
X9455896Y-18373484D01*
X9408277Y-18163960D02*
X9360658Y-18306817D01*
X9360658Y-18306817D02*
X9484468Y-18306817D01*
X9551134Y-18173484D02*
X9551134Y-18211579D01*
X9627325Y-18173484D02*
X9627325Y-18211579D01*
X9922563Y-18449674D02*
X9913039Y-18440150D01*
X9913039Y-18440150D02*
X9893991Y-18411579D01*
X9893991Y-18411579D02*
X9884468Y-18392531D01*
X9884468Y-18392531D02*
X9874944Y-18363960D01*
X9874944Y-18363960D02*
X9865420Y-18316341D01*
X9865420Y-18316341D02*
X9865420Y-18278246D01*
X9865420Y-18278246D02*
X9874944Y-18230627D01*
X9874944Y-18230627D02*
X9884468Y-18202055D01*
X9884468Y-18202055D02*
X9893991Y-18183008D01*
X9893991Y-18183008D02*
X9913039Y-18154436D01*
X9913039Y-18154436D02*
X9922563Y-18144912D01*
X10084468Y-18240150D02*
X10084468Y-18373484D01*
X10036849Y-18163960D02*
X9989230Y-18306817D01*
X9989230Y-18306817D02*
X10113039Y-18306817D01*
X10198753Y-18373484D02*
X10236849Y-18373484D01*
X10236849Y-18373484D02*
X10255896Y-18363960D01*
X10255896Y-18363960D02*
X10265420Y-18354436D01*
X10265420Y-18354436D02*
X10284468Y-18325865D01*
X10284468Y-18325865D02*
X10293991Y-18287770D01*
X10293991Y-18287770D02*
X10293991Y-18211579D01*
X10293991Y-18211579D02*
X10284468Y-18192531D01*
X10284468Y-18192531D02*
X10274944Y-18183008D01*
X10274944Y-18183008D02*
X10255896Y-18173484D01*
X10255896Y-18173484D02*
X10217801Y-18173484D01*
X10217801Y-18173484D02*
X10198753Y-18183008D01*
X10198753Y-18183008D02*
X10189230Y-18192531D01*
X10189230Y-18192531D02*
X10179706Y-18211579D01*
X10179706Y-18211579D02*
X10179706Y-18259198D01*
X10179706Y-18259198D02*
X10189230Y-18278246D01*
X10189230Y-18278246D02*
X10198753Y-18287770D01*
X10198753Y-18287770D02*
X10217801Y-18297293D01*
X10217801Y-18297293D02*
X10255896Y-18297293D01*
X10255896Y-18297293D02*
X10274944Y-18287770D01*
X10274944Y-18287770D02*
X10284468Y-18278246D01*
X10284468Y-18278246D02*
X10293991Y-18259198D01*
X10532087Y-18373484D02*
X10532087Y-18173484D01*
X10617801Y-18373484D02*
X10617801Y-18268722D01*
X10617801Y-18268722D02*
X10608277Y-18249674D01*
X10608277Y-18249674D02*
X10589230Y-18240150D01*
X10589230Y-18240150D02*
X10560658Y-18240150D01*
X10560658Y-18240150D02*
X10541611Y-18249674D01*
X10541611Y-18249674D02*
X10532087Y-18259198D01*
X10741611Y-18373484D02*
X10722563Y-18363960D01*
X10722563Y-18363960D02*
X10713039Y-18354436D01*
X10713039Y-18354436D02*
X10703515Y-18335389D01*
X10703515Y-18335389D02*
X10703515Y-18278246D01*
X10703515Y-18278246D02*
X10713039Y-18259198D01*
X10713039Y-18259198D02*
X10722563Y-18249674D01*
X10722563Y-18249674D02*
X10741611Y-18240150D01*
X10741611Y-18240150D02*
X10770182Y-18240150D01*
X10770182Y-18240150D02*
X10789230Y-18249674D01*
X10789230Y-18249674D02*
X10798753Y-18259198D01*
X10798753Y-18259198D02*
X10808277Y-18278246D01*
X10808277Y-18278246D02*
X10808277Y-18335389D01*
X10808277Y-18335389D02*
X10798753Y-18354436D01*
X10798753Y-18354436D02*
X10789230Y-18363960D01*
X10789230Y-18363960D02*
X10770182Y-18373484D01*
X10770182Y-18373484D02*
X10741611Y-18373484D01*
X10922563Y-18373484D02*
X10903515Y-18363960D01*
X10903515Y-18363960D02*
X10893992Y-18344912D01*
X10893992Y-18344912D02*
X10893992Y-18173484D01*
X11074944Y-18363960D02*
X11055896Y-18373484D01*
X11055896Y-18373484D02*
X11017801Y-18373484D01*
X11017801Y-18373484D02*
X10998753Y-18363960D01*
X10998753Y-18363960D02*
X10989230Y-18344912D01*
X10989230Y-18344912D02*
X10989230Y-18268722D01*
X10989230Y-18268722D02*
X10998753Y-18249674D01*
X10998753Y-18249674D02*
X11017801Y-18240150D01*
X11017801Y-18240150D02*
X11055896Y-18240150D01*
X11055896Y-18240150D02*
X11074944Y-18249674D01*
X11074944Y-18249674D02*
X11084468Y-18268722D01*
X11084468Y-18268722D02*
X11084468Y-18287770D01*
X11084468Y-18287770D02*
X10989230Y-18306817D01*
X11160658Y-18363960D02*
X11179706Y-18373484D01*
X11179706Y-18373484D02*
X11217801Y-18373484D01*
X11217801Y-18373484D02*
X11236849Y-18363960D01*
X11236849Y-18363960D02*
X11246372Y-18344912D01*
X11246372Y-18344912D02*
X11246372Y-18335389D01*
X11246372Y-18335389D02*
X11236849Y-18316341D01*
X11236849Y-18316341D02*
X11217801Y-18306817D01*
X11217801Y-18306817D02*
X11189230Y-18306817D01*
X11189230Y-18306817D02*
X11170182Y-18297293D01*
X11170182Y-18297293D02*
X11160658Y-18278246D01*
X11160658Y-18278246D02*
X11160658Y-18268722D01*
X11160658Y-18268722D02*
X11170182Y-18249674D01*
X11170182Y-18249674D02*
X11189230Y-18240150D01*
X11189230Y-18240150D02*
X11217801Y-18240150D01*
X11217801Y-18240150D02*
X11236849Y-18249674D01*
X11313039Y-18449674D02*
X11322563Y-18440150D01*
X11322563Y-18440150D02*
X11341611Y-18411579D01*
X11341611Y-18411579D02*
X11351134Y-18392531D01*
X11351134Y-18392531D02*
X11360658Y-18363960D01*
X11360658Y-18363960D02*
X11370182Y-18316341D01*
X11370182Y-18316341D02*
X11370182Y-18278246D01*
X11370182Y-18278246D02*
X11360658Y-18230627D01*
X11360658Y-18230627D02*
X11351134Y-18202055D01*
X11351134Y-18202055D02*
X11341611Y-18183008D01*
X11341611Y-18183008D02*
X11322563Y-18154436D01*
X11322563Y-18154436D02*
X11313039Y-18144912D01*
X6147500Y-18446000D02*
X6347500Y-18646000D01*
X6347500Y-18446000D02*
X6147500Y-18646000D01*
X6247500Y-18446000D02*
X6247500Y-18646000D01*
X6147500Y-18546000D02*
X6347500Y-18546000D01*
X6589229Y-18437484D02*
X6713039Y-18437484D01*
X6713039Y-18437484D02*
X6646372Y-18513674D01*
X6646372Y-18513674D02*
X6674943Y-18513674D01*
X6674943Y-18513674D02*
X6693991Y-18523198D01*
X6693991Y-18523198D02*
X6703515Y-18532722D01*
X6703515Y-18532722D02*
X6713039Y-18551770D01*
X6713039Y-18551770D02*
X6713039Y-18599389D01*
X6713039Y-18599389D02*
X6703515Y-18618436D01*
X6703515Y-18618436D02*
X6693991Y-18627960D01*
X6693991Y-18627960D02*
X6674943Y-18637484D01*
X6674943Y-18637484D02*
X6617801Y-18637484D01*
X6617801Y-18637484D02*
X6598753Y-18627960D01*
X6598753Y-18627960D02*
X6589229Y-18618436D01*
X6798753Y-18618436D02*
X6808277Y-18627960D01*
X6808277Y-18627960D02*
X6798753Y-18637484D01*
X6798753Y-18637484D02*
X6789229Y-18627960D01*
X6789229Y-18627960D02*
X6798753Y-18618436D01*
X6798753Y-18618436D02*
X6798753Y-18637484D01*
X6884467Y-18456531D02*
X6893991Y-18447008D01*
X6893991Y-18447008D02*
X6913039Y-18437484D01*
X6913039Y-18437484D02*
X6960658Y-18437484D01*
X6960658Y-18437484D02*
X6979705Y-18447008D01*
X6979705Y-18447008D02*
X6989229Y-18456531D01*
X6989229Y-18456531D02*
X6998753Y-18475579D01*
X6998753Y-18475579D02*
X6998753Y-18494627D01*
X6998753Y-18494627D02*
X6989229Y-18523198D01*
X6989229Y-18523198D02*
X6874943Y-18637484D01*
X6874943Y-18637484D02*
X6998753Y-18637484D01*
X7122562Y-18437484D02*
X7141610Y-18437484D01*
X7141610Y-18437484D02*
X7160658Y-18447008D01*
X7160658Y-18447008D02*
X7170182Y-18456531D01*
X7170182Y-18456531D02*
X7179705Y-18475579D01*
X7179705Y-18475579D02*
X7189229Y-18513674D01*
X7189229Y-18513674D02*
X7189229Y-18561293D01*
X7189229Y-18561293D02*
X7179705Y-18599389D01*
X7179705Y-18599389D02*
X7170182Y-18618436D01*
X7170182Y-18618436D02*
X7160658Y-18627960D01*
X7160658Y-18627960D02*
X7141610Y-18637484D01*
X7141610Y-18637484D02*
X7122562Y-18637484D01*
X7122562Y-18637484D02*
X7103515Y-18627960D01*
X7103515Y-18627960D02*
X7093991Y-18618436D01*
X7093991Y-18618436D02*
X7084467Y-18599389D01*
X7084467Y-18599389D02*
X7074943Y-18561293D01*
X7074943Y-18561293D02*
X7074943Y-18513674D01*
X7074943Y-18513674D02*
X7084467Y-18475579D01*
X7084467Y-18475579D02*
X7093991Y-18456531D01*
X7093991Y-18456531D02*
X7103515Y-18447008D01*
X7103515Y-18447008D02*
X7122562Y-18437484D01*
X7313039Y-18437484D02*
X7332086Y-18437484D01*
X7332086Y-18437484D02*
X7351134Y-18447008D01*
X7351134Y-18447008D02*
X7360658Y-18456531D01*
X7360658Y-18456531D02*
X7370182Y-18475579D01*
X7370182Y-18475579D02*
X7379705Y-18513674D01*
X7379705Y-18513674D02*
X7379705Y-18561293D01*
X7379705Y-18561293D02*
X7370182Y-18599389D01*
X7370182Y-18599389D02*
X7360658Y-18618436D01*
X7360658Y-18618436D02*
X7351134Y-18627960D01*
X7351134Y-18627960D02*
X7332086Y-18637484D01*
X7332086Y-18637484D02*
X7313039Y-18637484D01*
X7313039Y-18637484D02*
X7293991Y-18627960D01*
X7293991Y-18627960D02*
X7284467Y-18618436D01*
X7284467Y-18618436D02*
X7274943Y-18599389D01*
X7274943Y-18599389D02*
X7265420Y-18561293D01*
X7265420Y-18561293D02*
X7265420Y-18513674D01*
X7265420Y-18513674D02*
X7274943Y-18475579D01*
X7274943Y-18475579D02*
X7284467Y-18456531D01*
X7284467Y-18456531D02*
X7293991Y-18447008D01*
X7293991Y-18447008D02*
X7313039Y-18437484D01*
X7465420Y-18637484D02*
X7465420Y-18504150D01*
X7465420Y-18523198D02*
X7474943Y-18513674D01*
X7474943Y-18513674D02*
X7493991Y-18504150D01*
X7493991Y-18504150D02*
X7522563Y-18504150D01*
X7522563Y-18504150D02*
X7541610Y-18513674D01*
X7541610Y-18513674D02*
X7551134Y-18532722D01*
X7551134Y-18532722D02*
X7551134Y-18637484D01*
X7551134Y-18532722D02*
X7560658Y-18513674D01*
X7560658Y-18513674D02*
X7579705Y-18504150D01*
X7579705Y-18504150D02*
X7608277Y-18504150D01*
X7608277Y-18504150D02*
X7627324Y-18513674D01*
X7627324Y-18513674D02*
X7636848Y-18532722D01*
X7636848Y-18532722D02*
X7636848Y-18637484D01*
X7732086Y-18637484D02*
X7732086Y-18504150D01*
X7732086Y-18523198D02*
X7741610Y-18513674D01*
X7741610Y-18513674D02*
X7760658Y-18504150D01*
X7760658Y-18504150D02*
X7789229Y-18504150D01*
X7789229Y-18504150D02*
X7808277Y-18513674D01*
X7808277Y-18513674D02*
X7817801Y-18532722D01*
X7817801Y-18532722D02*
X7817801Y-18637484D01*
X7817801Y-18532722D02*
X7827324Y-18513674D01*
X7827324Y-18513674D02*
X7846372Y-18504150D01*
X7846372Y-18504150D02*
X7874943Y-18504150D01*
X7874943Y-18504150D02*
X7893991Y-18513674D01*
X7893991Y-18513674D02*
X7903515Y-18532722D01*
X7903515Y-18532722D02*
X7903515Y-18637484D01*
X8293991Y-18427960D02*
X8122563Y-18685103D01*
X8551134Y-18437484D02*
X8570182Y-18437484D01*
X8570182Y-18437484D02*
X8589229Y-18447008D01*
X8589229Y-18447008D02*
X8598753Y-18456531D01*
X8598753Y-18456531D02*
X8608277Y-18475579D01*
X8608277Y-18475579D02*
X8617801Y-18513674D01*
X8617801Y-18513674D02*
X8617801Y-18561293D01*
X8617801Y-18561293D02*
X8608277Y-18599389D01*
X8608277Y-18599389D02*
X8598753Y-18618436D01*
X8598753Y-18618436D02*
X8589229Y-18627960D01*
X8589229Y-18627960D02*
X8570182Y-18637484D01*
X8570182Y-18637484D02*
X8551134Y-18637484D01*
X8551134Y-18637484D02*
X8532087Y-18627960D01*
X8532087Y-18627960D02*
X8522563Y-18618436D01*
X8522563Y-18618436D02*
X8513039Y-18599389D01*
X8513039Y-18599389D02*
X8503515Y-18561293D01*
X8503515Y-18561293D02*
X8503515Y-18513674D01*
X8503515Y-18513674D02*
X8513039Y-18475579D01*
X8513039Y-18475579D02*
X8522563Y-18456531D01*
X8522563Y-18456531D02*
X8532087Y-18447008D01*
X8532087Y-18447008D02*
X8551134Y-18437484D01*
X8703515Y-18618436D02*
X8713039Y-18627960D01*
X8713039Y-18627960D02*
X8703515Y-18637484D01*
X8703515Y-18637484D02*
X8693991Y-18627960D01*
X8693991Y-18627960D02*
X8703515Y-18618436D01*
X8703515Y-18618436D02*
X8703515Y-18637484D01*
X8903515Y-18637484D02*
X8789229Y-18637484D01*
X8846372Y-18637484D02*
X8846372Y-18437484D01*
X8846372Y-18437484D02*
X8827325Y-18466055D01*
X8827325Y-18466055D02*
X8808277Y-18485103D01*
X8808277Y-18485103D02*
X8789229Y-18494627D01*
X8979706Y-18456531D02*
X8989229Y-18447008D01*
X8989229Y-18447008D02*
X9008277Y-18437484D01*
X9008277Y-18437484D02*
X9055896Y-18437484D01*
X9055896Y-18437484D02*
X9074944Y-18447008D01*
X9074944Y-18447008D02*
X9084468Y-18456531D01*
X9084468Y-18456531D02*
X9093991Y-18475579D01*
X9093991Y-18475579D02*
X9093991Y-18494627D01*
X9093991Y-18494627D02*
X9084468Y-18523198D01*
X9084468Y-18523198D02*
X8970182Y-18637484D01*
X8970182Y-18637484D02*
X9093991Y-18637484D01*
X9265420Y-18437484D02*
X9227325Y-18437484D01*
X9227325Y-18437484D02*
X9208277Y-18447008D01*
X9208277Y-18447008D02*
X9198753Y-18456531D01*
X9198753Y-18456531D02*
X9179706Y-18485103D01*
X9179706Y-18485103D02*
X9170182Y-18523198D01*
X9170182Y-18523198D02*
X9170182Y-18599389D01*
X9170182Y-18599389D02*
X9179706Y-18618436D01*
X9179706Y-18618436D02*
X9189229Y-18627960D01*
X9189229Y-18627960D02*
X9208277Y-18637484D01*
X9208277Y-18637484D02*
X9246372Y-18637484D01*
X9246372Y-18637484D02*
X9265420Y-18627960D01*
X9265420Y-18627960D02*
X9274944Y-18618436D01*
X9274944Y-18618436D02*
X9284468Y-18599389D01*
X9284468Y-18599389D02*
X9284468Y-18551770D01*
X9284468Y-18551770D02*
X9274944Y-18532722D01*
X9274944Y-18532722D02*
X9265420Y-18523198D01*
X9265420Y-18523198D02*
X9246372Y-18513674D01*
X9246372Y-18513674D02*
X9208277Y-18513674D01*
X9208277Y-18513674D02*
X9189229Y-18523198D01*
X9189229Y-18523198D02*
X9179706Y-18532722D01*
X9179706Y-18532722D02*
X9170182Y-18551770D01*
X9408277Y-18437484D02*
X9427325Y-18437484D01*
X9427325Y-18437484D02*
X9446372Y-18447008D01*
X9446372Y-18447008D02*
X9455896Y-18456531D01*
X9455896Y-18456531D02*
X9465420Y-18475579D01*
X9465420Y-18475579D02*
X9474944Y-18513674D01*
X9474944Y-18513674D02*
X9474944Y-18561293D01*
X9474944Y-18561293D02*
X9465420Y-18599389D01*
X9465420Y-18599389D02*
X9455896Y-18618436D01*
X9455896Y-18618436D02*
X9446372Y-18627960D01*
X9446372Y-18627960D02*
X9427325Y-18637484D01*
X9427325Y-18637484D02*
X9408277Y-18637484D01*
X9408277Y-18637484D02*
X9389229Y-18627960D01*
X9389229Y-18627960D02*
X9379706Y-18618436D01*
X9379706Y-18618436D02*
X9370182Y-18599389D01*
X9370182Y-18599389D02*
X9360658Y-18561293D01*
X9360658Y-18561293D02*
X9360658Y-18513674D01*
X9360658Y-18513674D02*
X9370182Y-18475579D01*
X9370182Y-18475579D02*
X9379706Y-18456531D01*
X9379706Y-18456531D02*
X9389229Y-18447008D01*
X9389229Y-18447008D02*
X9408277Y-18437484D01*
X9551134Y-18437484D02*
X9551134Y-18475579D01*
X9627325Y-18437484D02*
X9627325Y-18475579D01*
X9922563Y-18713674D02*
X9913039Y-18704150D01*
X9913039Y-18704150D02*
X9893991Y-18675579D01*
X9893991Y-18675579D02*
X9884468Y-18656531D01*
X9884468Y-18656531D02*
X9874944Y-18627960D01*
X9874944Y-18627960D02*
X9865420Y-18580341D01*
X9865420Y-18580341D02*
X9865420Y-18542246D01*
X9865420Y-18542246D02*
X9874944Y-18494627D01*
X9874944Y-18494627D02*
X9884468Y-18466055D01*
X9884468Y-18466055D02*
X9893991Y-18447008D01*
X9893991Y-18447008D02*
X9913039Y-18418436D01*
X9913039Y-18418436D02*
X9922563Y-18408912D01*
X9989230Y-18456531D02*
X9998753Y-18447008D01*
X9998753Y-18447008D02*
X10017801Y-18437484D01*
X10017801Y-18437484D02*
X10065420Y-18437484D01*
X10065420Y-18437484D02*
X10084468Y-18447008D01*
X10084468Y-18447008D02*
X10093991Y-18456531D01*
X10093991Y-18456531D02*
X10103515Y-18475579D01*
X10103515Y-18475579D02*
X10103515Y-18494627D01*
X10103515Y-18494627D02*
X10093991Y-18523198D01*
X10093991Y-18523198D02*
X9979706Y-18637484D01*
X9979706Y-18637484D02*
X10103515Y-18637484D01*
X10341611Y-18637484D02*
X10341611Y-18437484D01*
X10427325Y-18637484D02*
X10427325Y-18532722D01*
X10427325Y-18532722D02*
X10417801Y-18513674D01*
X10417801Y-18513674D02*
X10398753Y-18504150D01*
X10398753Y-18504150D02*
X10370182Y-18504150D01*
X10370182Y-18504150D02*
X10351134Y-18513674D01*
X10351134Y-18513674D02*
X10341611Y-18523198D01*
X10551134Y-18637484D02*
X10532087Y-18627960D01*
X10532087Y-18627960D02*
X10522563Y-18618436D01*
X10522563Y-18618436D02*
X10513039Y-18599389D01*
X10513039Y-18599389D02*
X10513039Y-18542246D01*
X10513039Y-18542246D02*
X10522563Y-18523198D01*
X10522563Y-18523198D02*
X10532087Y-18513674D01*
X10532087Y-18513674D02*
X10551134Y-18504150D01*
X10551134Y-18504150D02*
X10579706Y-18504150D01*
X10579706Y-18504150D02*
X10598753Y-18513674D01*
X10598753Y-18513674D02*
X10608277Y-18523198D01*
X10608277Y-18523198D02*
X10617801Y-18542246D01*
X10617801Y-18542246D02*
X10617801Y-18599389D01*
X10617801Y-18599389D02*
X10608277Y-18618436D01*
X10608277Y-18618436D02*
X10598753Y-18627960D01*
X10598753Y-18627960D02*
X10579706Y-18637484D01*
X10579706Y-18637484D02*
X10551134Y-18637484D01*
X10732087Y-18637484D02*
X10713039Y-18627960D01*
X10713039Y-18627960D02*
X10703515Y-18608912D01*
X10703515Y-18608912D02*
X10703515Y-18437484D01*
X10884468Y-18627960D02*
X10865420Y-18637484D01*
X10865420Y-18637484D02*
X10827325Y-18637484D01*
X10827325Y-18637484D02*
X10808277Y-18627960D01*
X10808277Y-18627960D02*
X10798753Y-18608912D01*
X10798753Y-18608912D02*
X10798753Y-18532722D01*
X10798753Y-18532722D02*
X10808277Y-18513674D01*
X10808277Y-18513674D02*
X10827325Y-18504150D01*
X10827325Y-18504150D02*
X10865420Y-18504150D01*
X10865420Y-18504150D02*
X10884468Y-18513674D01*
X10884468Y-18513674D02*
X10893992Y-18532722D01*
X10893992Y-18532722D02*
X10893992Y-18551770D01*
X10893992Y-18551770D02*
X10798753Y-18570817D01*
X10970182Y-18627960D02*
X10989230Y-18637484D01*
X10989230Y-18637484D02*
X11027325Y-18637484D01*
X11027325Y-18637484D02*
X11046373Y-18627960D01*
X11046373Y-18627960D02*
X11055896Y-18608912D01*
X11055896Y-18608912D02*
X11055896Y-18599389D01*
X11055896Y-18599389D02*
X11046373Y-18580341D01*
X11046373Y-18580341D02*
X11027325Y-18570817D01*
X11027325Y-18570817D02*
X10998753Y-18570817D01*
X10998753Y-18570817D02*
X10979706Y-18561293D01*
X10979706Y-18561293D02*
X10970182Y-18542246D01*
X10970182Y-18542246D02*
X10970182Y-18532722D01*
X10970182Y-18532722D02*
X10979706Y-18513674D01*
X10979706Y-18513674D02*
X10998753Y-18504150D01*
X10998753Y-18504150D02*
X11027325Y-18504150D01*
X11027325Y-18504150D02*
X11046373Y-18513674D01*
X11122563Y-18713674D02*
X11132087Y-18704150D01*
X11132087Y-18704150D02*
X11151134Y-18675579D01*
X11151134Y-18675579D02*
X11160658Y-18656531D01*
X11160658Y-18656531D02*
X11170182Y-18627960D01*
X11170182Y-18627960D02*
X11179706Y-18580341D01*
X11179706Y-18580341D02*
X11179706Y-18542246D01*
X11179706Y-18542246D02*
X11170182Y-18494627D01*
X11170182Y-18494627D02*
X11160658Y-18466055D01*
X11160658Y-18466055D02*
X11151134Y-18447008D01*
X11151134Y-18447008D02*
X11132087Y-18418436D01*
X11132087Y-18418436D02*
X11122563Y-18408912D01*
M02*
