M48
; DRILL file {KiCad 9.0.2+dfsg-1} date 2026-09-13T18:55:28+0200
; FORMAT={-:-/ absolute / metric / decimal}
; #@! TF.CreationDate,2026-09-13T18:55:28+02:00
; #@! TF.GenerationSoftware,Kicad,Pcbnew,9.0.2+dfsg-1
; #@! TF.FileFunction,Plated,1,2,PTH
FMAT,2
METRIC
; #@! TA.AperFunction,Plated,PTH,ViaDrill
T1C0.300
; #@! TA.AperFunction,Plated,PTH,ComponentDrill
T2C0.700
; #@! TA.AperFunction,Plated,PTH,ComponentDrill
T3C0.800
; #@! TA.AperFunction,Plated,PTH,ComponentDrill
T4C0.900
; #@! TA.AperFunction,Plated,PTH,ComponentDrill
T5C1.000
; #@! TA.AperFunction,Plated,PTH,ComponentDrill
T6C3.200
%
G90
G05
T1
X84.455Y-74.93
X84.455Y-110.49
X90.17Y-78.74
X93.345Y-77.47
X103.505Y-82.55
X103.505Y-85.09
X104.14Y-74.295
X104.14Y-76.835
X123.19Y-114.935
X124.46Y-64.77
X125.73Y-114.935
T2
X109.27Y-108.535
X111.81Y-108.535
X137.795Y-116.84
X139.065Y-123.825
X140.335Y-116.84
X141.605Y-123.825
X143.46Y-116.84
X144.78Y-123.825
X146.0Y-116.84
X147.32Y-123.825
T3
X93.98Y-86.995
X96.52Y-90.17
X96.52Y-105.41
X99.06Y-90.17
X99.06Y-105.41
X101.6Y-86.995
X101.6Y-90.17
X101.6Y-105.41
X104.14Y-90.17
X104.14Y-105.41
X104.14Y-137.939
X104.14Y-145.559
X106.68Y-90.17
X106.68Y-105.41
X106.68Y-137.939
X106.68Y-145.559
X106.76Y-118.11
X106.86Y-113.03
X109.22Y-90.17
X109.22Y-105.41
X109.22Y-137.939
X109.22Y-145.559
X109.26Y-130.319
X109.3Y-134.129
X111.76Y-90.17
X111.76Y-105.41
X111.76Y-113.03
X111.76Y-118.11
X111.76Y-137.939
X111.76Y-145.559
X114.26Y-130.319
X114.3Y-90.17
X114.3Y-105.41
X114.3Y-134.129
X114.3Y-137.939
X114.3Y-145.559
X116.84Y-90.17
X116.84Y-105.41
X116.84Y-137.939
X116.84Y-145.559
X116.92Y-134.129
X116.92Y-149.329
X119.38Y-90.17
X119.38Y-105.41
X119.38Y-130.319
X119.38Y-137.939
X119.38Y-145.559
X121.92Y-90.17
X121.92Y-105.41
X121.92Y-134.129
X121.92Y-137.939
X121.92Y-145.559
X121.92Y-149.329
X124.38Y-130.319
X124.46Y-90.17
X124.46Y-105.41
X127.0Y-90.17
X127.0Y-105.41
X129.54Y-90.17
X129.54Y-105.41
X133.35Y-90.17
X133.35Y-95.17
T4
X139.015Y-127.0
X141.555Y-127.0
X144.73Y-127.0
X147.27Y-127.0
T5
X88.9Y-67.855
X88.9Y-70.395
X91.44Y-67.855
X91.44Y-70.395
X93.98Y-67.855
X93.98Y-70.395
X96.52Y-67.855
X96.52Y-70.395
X99.06Y-67.855
X99.06Y-70.395
X101.6Y-67.855
X101.6Y-70.395
X104.14Y-67.855
X104.14Y-70.395
X106.68Y-67.855
X106.68Y-70.395
X107.69Y-154.149
X109.075Y-156.989
X109.22Y-67.855
X109.22Y-70.395
X110.46Y-154.149
X111.76Y-67.855
X111.76Y-70.395
X111.845Y-156.989
X113.23Y-154.149
X114.3Y-67.855
X114.3Y-70.395
X114.615Y-156.989
X116.0Y-154.149
X116.84Y-67.855
X116.84Y-70.395
X117.385Y-156.989
X118.77Y-154.149
X119.38Y-67.855
X119.38Y-70.395
X121.92Y-67.855
X121.92Y-70.395
X124.46Y-67.855
X124.46Y-70.395
X127.0Y-67.855
X127.0Y-70.395
X129.54Y-67.855
X129.54Y-70.395
X132.08Y-67.855
X132.08Y-70.395
X134.62Y-67.855
X134.62Y-70.395
X137.16Y-67.855
X137.16Y-70.395
T6
X100.73Y-156.989
X125.73Y-156.989
M30
