%TF.GenerationSoftware,KiCad,Pcbnew,9.0.2+dfsg-1*%
%TF.CreationDate,2026-09-02T22:03:40+02:00*%
%TF.ProjectId,acia-card,61636961-2d63-4617-9264-2e6b69636164,rev?*%
%TF.SameCoordinates,Original*%
%TF.FileFunction,Drillmap*%
%TF.FilePolarity,Positive*%
%FSLAX45Y45*%
G04 Gerber Fmt 4.5, Leading zero omitted, Abs format (unit mm)*
G04 Created by KiCad (PCBNEW 9.0.2+dfsg-1) date 2026-09-02 22:03:40*
%MOMM*%
%LPD*%
G01*
G04 APERTURE LIST*
%ADD10C,0.050000*%
%ADD11C,0.200000*%
%ADD12C,0.100000*%
G04 APERTURE END LIST*
D10*
X16319500Y-6350000D02*
X6350000Y-6350000D01*
X16319500Y-16319500D02*
X16319500Y-6350000D01*
X16319500Y-16319500D02*
X6350000Y-16319500D01*
X6350000Y-6350000D02*
X6350000Y-16319500D01*
D11*
D12*
X8840000Y-6735500D02*
X8940000Y-6835500D01*
X8940000Y-6735500D02*
X8840000Y-6835500D01*
X8840000Y-6989500D02*
X8940000Y-7089500D01*
X8940000Y-6989500D02*
X8840000Y-7089500D01*
X9094000Y-6735500D02*
X9194000Y-6835500D01*
X9194000Y-6735500D02*
X9094000Y-6835500D01*
X9094000Y-6989500D02*
X9194000Y-7089500D01*
X9194000Y-6989500D02*
X9094000Y-7089500D01*
X9348000Y-6735500D02*
X9448000Y-6835500D01*
X9448000Y-6735500D02*
X9348000Y-6835500D01*
X9348000Y-6989500D02*
X9448000Y-7089500D01*
X9448000Y-6989500D02*
X9348000Y-7089500D01*
X9602000Y-6735500D02*
X9702000Y-6835500D01*
X9702000Y-6735500D02*
X9602000Y-6835500D01*
X9602000Y-6989500D02*
X9702000Y-7089500D01*
X9702000Y-6989500D02*
X9602000Y-7089500D01*
X9856000Y-6735500D02*
X9956000Y-6835500D01*
X9956000Y-6735500D02*
X9856000Y-6835500D01*
X9856000Y-6989500D02*
X9956000Y-7089500D01*
X9956000Y-6989500D02*
X9856000Y-7089500D01*
X10110000Y-6735500D02*
X10210000Y-6835500D01*
X10210000Y-6735500D02*
X10110000Y-6835500D01*
X10110000Y-6989500D02*
X10210000Y-7089500D01*
X10210000Y-6989500D02*
X10110000Y-7089500D01*
X10364000Y-6735500D02*
X10464000Y-6835500D01*
X10464000Y-6735500D02*
X10364000Y-6835500D01*
X10364000Y-6989500D02*
X10464000Y-7089500D01*
X10464000Y-6989500D02*
X10364000Y-7089500D01*
X10618000Y-6735500D02*
X10718000Y-6835500D01*
X10718000Y-6735500D02*
X10618000Y-6835500D01*
X10618000Y-6989500D02*
X10718000Y-7089500D01*
X10718000Y-6989500D02*
X10618000Y-7089500D01*
X10872000Y-6735500D02*
X10972000Y-6835500D01*
X10972000Y-6735500D02*
X10872000Y-6835500D01*
X10872000Y-6989500D02*
X10972000Y-7089500D01*
X10972000Y-6989500D02*
X10872000Y-7089500D01*
X11126000Y-6735500D02*
X11226000Y-6835500D01*
X11226000Y-6735500D02*
X11126000Y-6835500D01*
X11126000Y-6989500D02*
X11226000Y-7089500D01*
X11226000Y-6989500D02*
X11126000Y-7089500D01*
X11380000Y-6735500D02*
X11480000Y-6835500D01*
X11480000Y-6735500D02*
X11380000Y-6835500D01*
X11380000Y-6989500D02*
X11480000Y-7089500D01*
X11480000Y-6989500D02*
X11380000Y-7089500D01*
X11634000Y-6735500D02*
X11734000Y-6835500D01*
X11734000Y-6735500D02*
X11634000Y-6835500D01*
X11634000Y-6989500D02*
X11734000Y-7089500D01*
X11734000Y-6989500D02*
X11634000Y-7089500D01*
X11888000Y-6735500D02*
X11988000Y-6835500D01*
X11988000Y-6735500D02*
X11888000Y-6835500D01*
X11888000Y-6989500D02*
X11988000Y-7089500D01*
X11988000Y-6989500D02*
X11888000Y-7089500D01*
X12142000Y-6735500D02*
X12242000Y-6835500D01*
X12242000Y-6735500D02*
X12142000Y-6835500D01*
X12142000Y-6989500D02*
X12242000Y-7089500D01*
X12242000Y-6989500D02*
X12142000Y-7089500D01*
X12396000Y-6735500D02*
X12496000Y-6835500D01*
X12496000Y-6735500D02*
X12396000Y-6835500D01*
X12396000Y-6989500D02*
X12496000Y-7089500D01*
X12496000Y-6989500D02*
X12396000Y-7089500D01*
X12650000Y-6735500D02*
X12750000Y-6835500D01*
X12750000Y-6735500D02*
X12650000Y-6835500D01*
X12650000Y-6989500D02*
X12750000Y-7089500D01*
X12750000Y-6989500D02*
X12650000Y-7089500D01*
X12904000Y-6735500D02*
X13004000Y-6835500D01*
X13004000Y-6735500D02*
X12904000Y-6835500D01*
X12904000Y-6989500D02*
X13004000Y-7089500D01*
X13004000Y-6989500D02*
X12904000Y-7089500D01*
X13158000Y-6735500D02*
X13258000Y-6835500D01*
X13258000Y-6735500D02*
X13158000Y-6835500D01*
X13158000Y-6989500D02*
X13258000Y-7089500D01*
X13258000Y-6989500D02*
X13158000Y-7089500D01*
X13412000Y-6735500D02*
X13512000Y-6835500D01*
X13512000Y-6735500D02*
X13412000Y-6835500D01*
X13412000Y-6989500D02*
X13512000Y-7089500D01*
X13512000Y-6989500D02*
X13412000Y-7089500D01*
X13666000Y-6735500D02*
X13766000Y-6835500D01*
X13766000Y-6735500D02*
X13666000Y-6835500D01*
X13666000Y-6989500D02*
X13766000Y-7089500D01*
X13766000Y-6989500D02*
X13666000Y-7089500D01*
D11*
X6608277Y-16633484D02*
X6608277Y-16433484D01*
X6608277Y-16433484D02*
X6655896Y-16433484D01*
X6655896Y-16433484D02*
X6684467Y-16443008D01*
X6684467Y-16443008D02*
X6703515Y-16462055D01*
X6703515Y-16462055D02*
X6713039Y-16481103D01*
X6713039Y-16481103D02*
X6722562Y-16519198D01*
X6722562Y-16519198D02*
X6722562Y-16547769D01*
X6722562Y-16547769D02*
X6713039Y-16585865D01*
X6713039Y-16585865D02*
X6703515Y-16604912D01*
X6703515Y-16604912D02*
X6684467Y-16623960D01*
X6684467Y-16623960D02*
X6655896Y-16633484D01*
X6655896Y-16633484D02*
X6608277Y-16633484D01*
X6808277Y-16633484D02*
X6808277Y-16500150D01*
X6808277Y-16538246D02*
X6817801Y-16519198D01*
X6817801Y-16519198D02*
X6827324Y-16509674D01*
X6827324Y-16509674D02*
X6846372Y-16500150D01*
X6846372Y-16500150D02*
X6865420Y-16500150D01*
X6932086Y-16633484D02*
X6932086Y-16500150D01*
X6932086Y-16433484D02*
X6922562Y-16443008D01*
X6922562Y-16443008D02*
X6932086Y-16452531D01*
X6932086Y-16452531D02*
X6941610Y-16443008D01*
X6941610Y-16443008D02*
X6932086Y-16433484D01*
X6932086Y-16433484D02*
X6932086Y-16452531D01*
X7055896Y-16633484D02*
X7036848Y-16623960D01*
X7036848Y-16623960D02*
X7027324Y-16604912D01*
X7027324Y-16604912D02*
X7027324Y-16433484D01*
X7160658Y-16633484D02*
X7141610Y-16623960D01*
X7141610Y-16623960D02*
X7132086Y-16604912D01*
X7132086Y-16604912D02*
X7132086Y-16433484D01*
X7389229Y-16633484D02*
X7389229Y-16433484D01*
X7389229Y-16433484D02*
X7455896Y-16576341D01*
X7455896Y-16576341D02*
X7522562Y-16433484D01*
X7522562Y-16433484D02*
X7522562Y-16633484D01*
X7703515Y-16633484D02*
X7703515Y-16528722D01*
X7703515Y-16528722D02*
X7693991Y-16509674D01*
X7693991Y-16509674D02*
X7674943Y-16500150D01*
X7674943Y-16500150D02*
X7636848Y-16500150D01*
X7636848Y-16500150D02*
X7617801Y-16509674D01*
X7703515Y-16623960D02*
X7684467Y-16633484D01*
X7684467Y-16633484D02*
X7636848Y-16633484D01*
X7636848Y-16633484D02*
X7617801Y-16623960D01*
X7617801Y-16623960D02*
X7608277Y-16604912D01*
X7608277Y-16604912D02*
X7608277Y-16585865D01*
X7608277Y-16585865D02*
X7617801Y-16566817D01*
X7617801Y-16566817D02*
X7636848Y-16557293D01*
X7636848Y-16557293D02*
X7684467Y-16557293D01*
X7684467Y-16557293D02*
X7703515Y-16547769D01*
X7798753Y-16500150D02*
X7798753Y-16700150D01*
X7798753Y-16509674D02*
X7817801Y-16500150D01*
X7817801Y-16500150D02*
X7855896Y-16500150D01*
X7855896Y-16500150D02*
X7874943Y-16509674D01*
X7874943Y-16509674D02*
X7884467Y-16519198D01*
X7884467Y-16519198D02*
X7893991Y-16538246D01*
X7893991Y-16538246D02*
X7893991Y-16595388D01*
X7893991Y-16595388D02*
X7884467Y-16614436D01*
X7884467Y-16614436D02*
X7874943Y-16623960D01*
X7874943Y-16623960D02*
X7855896Y-16633484D01*
X7855896Y-16633484D02*
X7817801Y-16633484D01*
X7817801Y-16633484D02*
X7798753Y-16623960D01*
X7979705Y-16614436D02*
X7989229Y-16623960D01*
X7989229Y-16623960D02*
X7979705Y-16633484D01*
X7979705Y-16633484D02*
X7970182Y-16623960D01*
X7970182Y-16623960D02*
X7979705Y-16614436D01*
X7979705Y-16614436D02*
X7979705Y-16633484D01*
X7979705Y-16509674D02*
X7989229Y-16519198D01*
X7989229Y-16519198D02*
X7979705Y-16528722D01*
X7979705Y-16528722D02*
X7970182Y-16519198D01*
X7970182Y-16519198D02*
X7979705Y-16509674D01*
X7979705Y-16509674D02*
X7979705Y-16528722D01*
D12*
X6247500Y-16912000D02*
X6347500Y-17012000D01*
X6347500Y-16912000D02*
X6247500Y-17012000D01*
D11*
X6713039Y-17053484D02*
X6598753Y-17053484D01*
X6655896Y-17053484D02*
X6655896Y-16853484D01*
X6655896Y-16853484D02*
X6636848Y-16882055D01*
X6636848Y-16882055D02*
X6617801Y-16901103D01*
X6617801Y-16901103D02*
X6598753Y-16910627D01*
X6798753Y-17034436D02*
X6808277Y-17043960D01*
X6808277Y-17043960D02*
X6798753Y-17053484D01*
X6798753Y-17053484D02*
X6789229Y-17043960D01*
X6789229Y-17043960D02*
X6798753Y-17034436D01*
X6798753Y-17034436D02*
X6798753Y-17053484D01*
X6932086Y-16853484D02*
X6951134Y-16853484D01*
X6951134Y-16853484D02*
X6970182Y-16863008D01*
X6970182Y-16863008D02*
X6979705Y-16872531D01*
X6979705Y-16872531D02*
X6989229Y-16891579D01*
X6989229Y-16891579D02*
X6998753Y-16929674D01*
X6998753Y-16929674D02*
X6998753Y-16977293D01*
X6998753Y-16977293D02*
X6989229Y-17015389D01*
X6989229Y-17015389D02*
X6979705Y-17034436D01*
X6979705Y-17034436D02*
X6970182Y-17043960D01*
X6970182Y-17043960D02*
X6951134Y-17053484D01*
X6951134Y-17053484D02*
X6932086Y-17053484D01*
X6932086Y-17053484D02*
X6913039Y-17043960D01*
X6913039Y-17043960D02*
X6903515Y-17034436D01*
X6903515Y-17034436D02*
X6893991Y-17015389D01*
X6893991Y-17015389D02*
X6884467Y-16977293D01*
X6884467Y-16977293D02*
X6884467Y-16929674D01*
X6884467Y-16929674D02*
X6893991Y-16891579D01*
X6893991Y-16891579D02*
X6903515Y-16872531D01*
X6903515Y-16872531D02*
X6913039Y-16863008D01*
X6913039Y-16863008D02*
X6932086Y-16853484D01*
X7122562Y-16853484D02*
X7141610Y-16853484D01*
X7141610Y-16853484D02*
X7160658Y-16863008D01*
X7160658Y-16863008D02*
X7170182Y-16872531D01*
X7170182Y-16872531D02*
X7179705Y-16891579D01*
X7179705Y-16891579D02*
X7189229Y-16929674D01*
X7189229Y-16929674D02*
X7189229Y-16977293D01*
X7189229Y-16977293D02*
X7179705Y-17015389D01*
X7179705Y-17015389D02*
X7170182Y-17034436D01*
X7170182Y-17034436D02*
X7160658Y-17043960D01*
X7160658Y-17043960D02*
X7141610Y-17053484D01*
X7141610Y-17053484D02*
X7122562Y-17053484D01*
X7122562Y-17053484D02*
X7103515Y-17043960D01*
X7103515Y-17043960D02*
X7093991Y-17034436D01*
X7093991Y-17034436D02*
X7084467Y-17015389D01*
X7084467Y-17015389D02*
X7074943Y-16977293D01*
X7074943Y-16977293D02*
X7074943Y-16929674D01*
X7074943Y-16929674D02*
X7084467Y-16891579D01*
X7084467Y-16891579D02*
X7093991Y-16872531D01*
X7093991Y-16872531D02*
X7103515Y-16863008D01*
X7103515Y-16863008D02*
X7122562Y-16853484D01*
X7313039Y-16853484D02*
X7332086Y-16853484D01*
X7332086Y-16853484D02*
X7351134Y-16863008D01*
X7351134Y-16863008D02*
X7360658Y-16872531D01*
X7360658Y-16872531D02*
X7370182Y-16891579D01*
X7370182Y-16891579D02*
X7379705Y-16929674D01*
X7379705Y-16929674D02*
X7379705Y-16977293D01*
X7379705Y-16977293D02*
X7370182Y-17015389D01*
X7370182Y-17015389D02*
X7360658Y-17034436D01*
X7360658Y-17034436D02*
X7351134Y-17043960D01*
X7351134Y-17043960D02*
X7332086Y-17053484D01*
X7332086Y-17053484D02*
X7313039Y-17053484D01*
X7313039Y-17053484D02*
X7293991Y-17043960D01*
X7293991Y-17043960D02*
X7284467Y-17034436D01*
X7284467Y-17034436D02*
X7274943Y-17015389D01*
X7274943Y-17015389D02*
X7265420Y-16977293D01*
X7265420Y-16977293D02*
X7265420Y-16929674D01*
X7265420Y-16929674D02*
X7274943Y-16891579D01*
X7274943Y-16891579D02*
X7284467Y-16872531D01*
X7284467Y-16872531D02*
X7293991Y-16863008D01*
X7293991Y-16863008D02*
X7313039Y-16853484D01*
X7465420Y-17053484D02*
X7465420Y-16920150D01*
X7465420Y-16939198D02*
X7474943Y-16929674D01*
X7474943Y-16929674D02*
X7493991Y-16920150D01*
X7493991Y-16920150D02*
X7522563Y-16920150D01*
X7522563Y-16920150D02*
X7541610Y-16929674D01*
X7541610Y-16929674D02*
X7551134Y-16948722D01*
X7551134Y-16948722D02*
X7551134Y-17053484D01*
X7551134Y-16948722D02*
X7560658Y-16929674D01*
X7560658Y-16929674D02*
X7579705Y-16920150D01*
X7579705Y-16920150D02*
X7608277Y-16920150D01*
X7608277Y-16920150D02*
X7627324Y-16929674D01*
X7627324Y-16929674D02*
X7636848Y-16948722D01*
X7636848Y-16948722D02*
X7636848Y-17053484D01*
X7732086Y-17053484D02*
X7732086Y-16920150D01*
X7732086Y-16939198D02*
X7741610Y-16929674D01*
X7741610Y-16929674D02*
X7760658Y-16920150D01*
X7760658Y-16920150D02*
X7789229Y-16920150D01*
X7789229Y-16920150D02*
X7808277Y-16929674D01*
X7808277Y-16929674D02*
X7817801Y-16948722D01*
X7817801Y-16948722D02*
X7817801Y-17053484D01*
X7817801Y-16948722D02*
X7827324Y-16929674D01*
X7827324Y-16929674D02*
X7846372Y-16920150D01*
X7846372Y-16920150D02*
X7874943Y-16920150D01*
X7874943Y-16920150D02*
X7893991Y-16929674D01*
X7893991Y-16929674D02*
X7903515Y-16948722D01*
X7903515Y-16948722D02*
X7903515Y-17053484D01*
X8293991Y-16843960D02*
X8122563Y-17101103D01*
X8551134Y-16853484D02*
X8570182Y-16853484D01*
X8570182Y-16853484D02*
X8589229Y-16863008D01*
X8589229Y-16863008D02*
X8598753Y-16872531D01*
X8598753Y-16872531D02*
X8608277Y-16891579D01*
X8608277Y-16891579D02*
X8617801Y-16929674D01*
X8617801Y-16929674D02*
X8617801Y-16977293D01*
X8617801Y-16977293D02*
X8608277Y-17015389D01*
X8608277Y-17015389D02*
X8598753Y-17034436D01*
X8598753Y-17034436D02*
X8589229Y-17043960D01*
X8589229Y-17043960D02*
X8570182Y-17053484D01*
X8570182Y-17053484D02*
X8551134Y-17053484D01*
X8551134Y-17053484D02*
X8532087Y-17043960D01*
X8532087Y-17043960D02*
X8522563Y-17034436D01*
X8522563Y-17034436D02*
X8513039Y-17015389D01*
X8513039Y-17015389D02*
X8503515Y-16977293D01*
X8503515Y-16977293D02*
X8503515Y-16929674D01*
X8503515Y-16929674D02*
X8513039Y-16891579D01*
X8513039Y-16891579D02*
X8522563Y-16872531D01*
X8522563Y-16872531D02*
X8532087Y-16863008D01*
X8532087Y-16863008D02*
X8551134Y-16853484D01*
X8703515Y-17034436D02*
X8713039Y-17043960D01*
X8713039Y-17043960D02*
X8703515Y-17053484D01*
X8703515Y-17053484D02*
X8693991Y-17043960D01*
X8693991Y-17043960D02*
X8703515Y-17034436D01*
X8703515Y-17034436D02*
X8703515Y-17053484D01*
X8836848Y-16853484D02*
X8855896Y-16853484D01*
X8855896Y-16853484D02*
X8874944Y-16863008D01*
X8874944Y-16863008D02*
X8884468Y-16872531D01*
X8884468Y-16872531D02*
X8893991Y-16891579D01*
X8893991Y-16891579D02*
X8903515Y-16929674D01*
X8903515Y-16929674D02*
X8903515Y-16977293D01*
X8903515Y-16977293D02*
X8893991Y-17015389D01*
X8893991Y-17015389D02*
X8884468Y-17034436D01*
X8884468Y-17034436D02*
X8874944Y-17043960D01*
X8874944Y-17043960D02*
X8855896Y-17053484D01*
X8855896Y-17053484D02*
X8836848Y-17053484D01*
X8836848Y-17053484D02*
X8817801Y-17043960D01*
X8817801Y-17043960D02*
X8808277Y-17034436D01*
X8808277Y-17034436D02*
X8798753Y-17015389D01*
X8798753Y-17015389D02*
X8789229Y-16977293D01*
X8789229Y-16977293D02*
X8789229Y-16929674D01*
X8789229Y-16929674D02*
X8798753Y-16891579D01*
X8798753Y-16891579D02*
X8808277Y-16872531D01*
X8808277Y-16872531D02*
X8817801Y-16863008D01*
X8817801Y-16863008D02*
X8836848Y-16853484D01*
X8970182Y-16853484D02*
X9093991Y-16853484D01*
X9093991Y-16853484D02*
X9027325Y-16929674D01*
X9027325Y-16929674D02*
X9055896Y-16929674D01*
X9055896Y-16929674D02*
X9074944Y-16939198D01*
X9074944Y-16939198D02*
X9084468Y-16948722D01*
X9084468Y-16948722D02*
X9093991Y-16967770D01*
X9093991Y-16967770D02*
X9093991Y-17015389D01*
X9093991Y-17015389D02*
X9084468Y-17034436D01*
X9084468Y-17034436D02*
X9074944Y-17043960D01*
X9074944Y-17043960D02*
X9055896Y-17053484D01*
X9055896Y-17053484D02*
X8998753Y-17053484D01*
X8998753Y-17053484D02*
X8979706Y-17043960D01*
X8979706Y-17043960D02*
X8970182Y-17034436D01*
X9189229Y-17053484D02*
X9227325Y-17053484D01*
X9227325Y-17053484D02*
X9246372Y-17043960D01*
X9246372Y-17043960D02*
X9255896Y-17034436D01*
X9255896Y-17034436D02*
X9274944Y-17005865D01*
X9274944Y-17005865D02*
X9284468Y-16967770D01*
X9284468Y-16967770D02*
X9284468Y-16891579D01*
X9284468Y-16891579D02*
X9274944Y-16872531D01*
X9274944Y-16872531D02*
X9265420Y-16863008D01*
X9265420Y-16863008D02*
X9246372Y-16853484D01*
X9246372Y-16853484D02*
X9208277Y-16853484D01*
X9208277Y-16853484D02*
X9189229Y-16863008D01*
X9189229Y-16863008D02*
X9179706Y-16872531D01*
X9179706Y-16872531D02*
X9170182Y-16891579D01*
X9170182Y-16891579D02*
X9170182Y-16939198D01*
X9170182Y-16939198D02*
X9179706Y-16958246D01*
X9179706Y-16958246D02*
X9189229Y-16967770D01*
X9189229Y-16967770D02*
X9208277Y-16977293D01*
X9208277Y-16977293D02*
X9246372Y-16977293D01*
X9246372Y-16977293D02*
X9265420Y-16967770D01*
X9265420Y-16967770D02*
X9274944Y-16958246D01*
X9274944Y-16958246D02*
X9284468Y-16939198D01*
X9455896Y-16920150D02*
X9455896Y-17053484D01*
X9408277Y-16843960D02*
X9360658Y-16986817D01*
X9360658Y-16986817D02*
X9484468Y-16986817D01*
X9551134Y-16853484D02*
X9551134Y-16891579D01*
X9627325Y-16853484D02*
X9627325Y-16891579D01*
X9922563Y-17129674D02*
X9913039Y-17120150D01*
X9913039Y-17120150D02*
X9893991Y-17091579D01*
X9893991Y-17091579D02*
X9884468Y-17072531D01*
X9884468Y-17072531D02*
X9874944Y-17043960D01*
X9874944Y-17043960D02*
X9865420Y-16996341D01*
X9865420Y-16996341D02*
X9865420Y-16958246D01*
X9865420Y-16958246D02*
X9874944Y-16910627D01*
X9874944Y-16910627D02*
X9884468Y-16882055D01*
X9884468Y-16882055D02*
X9893991Y-16863008D01*
X9893991Y-16863008D02*
X9913039Y-16834436D01*
X9913039Y-16834436D02*
X9922563Y-16824912D01*
X10084468Y-16920150D02*
X10084468Y-17053484D01*
X10036849Y-16843960D02*
X9989230Y-16986817D01*
X9989230Y-16986817D02*
X10113039Y-16986817D01*
X10227325Y-16853484D02*
X10246372Y-16853484D01*
X10246372Y-16853484D02*
X10265420Y-16863008D01*
X10265420Y-16863008D02*
X10274944Y-16872531D01*
X10274944Y-16872531D02*
X10284468Y-16891579D01*
X10284468Y-16891579D02*
X10293991Y-16929674D01*
X10293991Y-16929674D02*
X10293991Y-16977293D01*
X10293991Y-16977293D02*
X10284468Y-17015389D01*
X10284468Y-17015389D02*
X10274944Y-17034436D01*
X10274944Y-17034436D02*
X10265420Y-17043960D01*
X10265420Y-17043960D02*
X10246372Y-17053484D01*
X10246372Y-17053484D02*
X10227325Y-17053484D01*
X10227325Y-17053484D02*
X10208277Y-17043960D01*
X10208277Y-17043960D02*
X10198753Y-17034436D01*
X10198753Y-17034436D02*
X10189230Y-17015389D01*
X10189230Y-17015389D02*
X10179706Y-16977293D01*
X10179706Y-16977293D02*
X10179706Y-16929674D01*
X10179706Y-16929674D02*
X10189230Y-16891579D01*
X10189230Y-16891579D02*
X10198753Y-16872531D01*
X10198753Y-16872531D02*
X10208277Y-16863008D01*
X10208277Y-16863008D02*
X10227325Y-16853484D01*
X10532087Y-17053484D02*
X10532087Y-16853484D01*
X10617801Y-17053484D02*
X10617801Y-16948722D01*
X10617801Y-16948722D02*
X10608277Y-16929674D01*
X10608277Y-16929674D02*
X10589230Y-16920150D01*
X10589230Y-16920150D02*
X10560658Y-16920150D01*
X10560658Y-16920150D02*
X10541611Y-16929674D01*
X10541611Y-16929674D02*
X10532087Y-16939198D01*
X10741611Y-17053484D02*
X10722563Y-17043960D01*
X10722563Y-17043960D02*
X10713039Y-17034436D01*
X10713039Y-17034436D02*
X10703515Y-17015389D01*
X10703515Y-17015389D02*
X10703515Y-16958246D01*
X10703515Y-16958246D02*
X10713039Y-16939198D01*
X10713039Y-16939198D02*
X10722563Y-16929674D01*
X10722563Y-16929674D02*
X10741611Y-16920150D01*
X10741611Y-16920150D02*
X10770182Y-16920150D01*
X10770182Y-16920150D02*
X10789230Y-16929674D01*
X10789230Y-16929674D02*
X10798753Y-16939198D01*
X10798753Y-16939198D02*
X10808277Y-16958246D01*
X10808277Y-16958246D02*
X10808277Y-17015389D01*
X10808277Y-17015389D02*
X10798753Y-17034436D01*
X10798753Y-17034436D02*
X10789230Y-17043960D01*
X10789230Y-17043960D02*
X10770182Y-17053484D01*
X10770182Y-17053484D02*
X10741611Y-17053484D01*
X10922563Y-17053484D02*
X10903515Y-17043960D01*
X10903515Y-17043960D02*
X10893992Y-17024912D01*
X10893992Y-17024912D02*
X10893992Y-16853484D01*
X11074944Y-17043960D02*
X11055896Y-17053484D01*
X11055896Y-17053484D02*
X11017801Y-17053484D01*
X11017801Y-17053484D02*
X10998753Y-17043960D01*
X10998753Y-17043960D02*
X10989230Y-17024912D01*
X10989230Y-17024912D02*
X10989230Y-16948722D01*
X10989230Y-16948722D02*
X10998753Y-16929674D01*
X10998753Y-16929674D02*
X11017801Y-16920150D01*
X11017801Y-16920150D02*
X11055896Y-16920150D01*
X11055896Y-16920150D02*
X11074944Y-16929674D01*
X11074944Y-16929674D02*
X11084468Y-16948722D01*
X11084468Y-16948722D02*
X11084468Y-16967770D01*
X11084468Y-16967770D02*
X10989230Y-16986817D01*
X11160658Y-17043960D02*
X11179706Y-17053484D01*
X11179706Y-17053484D02*
X11217801Y-17053484D01*
X11217801Y-17053484D02*
X11236849Y-17043960D01*
X11236849Y-17043960D02*
X11246372Y-17024912D01*
X11246372Y-17024912D02*
X11246372Y-17015389D01*
X11246372Y-17015389D02*
X11236849Y-16996341D01*
X11236849Y-16996341D02*
X11217801Y-16986817D01*
X11217801Y-16986817D02*
X11189230Y-16986817D01*
X11189230Y-16986817D02*
X11170182Y-16977293D01*
X11170182Y-16977293D02*
X11160658Y-16958246D01*
X11160658Y-16958246D02*
X11160658Y-16948722D01*
X11160658Y-16948722D02*
X11170182Y-16929674D01*
X11170182Y-16929674D02*
X11189230Y-16920150D01*
X11189230Y-16920150D02*
X11217801Y-16920150D01*
X11217801Y-16920150D02*
X11236849Y-16929674D01*
X11313039Y-17129674D02*
X11322563Y-17120150D01*
X11322563Y-17120150D02*
X11341611Y-17091579D01*
X11341611Y-17091579D02*
X11351134Y-17072531D01*
X11351134Y-17072531D02*
X11360658Y-17043960D01*
X11360658Y-17043960D02*
X11370182Y-16996341D01*
X11370182Y-16996341D02*
X11370182Y-16958246D01*
X11370182Y-16958246D02*
X11360658Y-16910627D01*
X11360658Y-16910627D02*
X11351134Y-16882055D01*
X11351134Y-16882055D02*
X11341611Y-16863008D01*
X11341611Y-16863008D02*
X11322563Y-16834436D01*
X11322563Y-16834436D02*
X11313039Y-16824912D01*
M02*
