%TF.GenerationSoftware,KiCad,Pcbnew,9.0.2+dfsg-1*%
%TF.CreationDate,2026-09-05T20:41:30+02:00*%
%TF.ProjectId,bus-display-card,6275732d-6469-4737-906c-61792d636172,rev?*%
%TF.SameCoordinates,Original*%
%TF.FileFunction,Profile,NP*%
%FSLAX46Y46*%
G04 Gerber Fmt 4.6, Leading zero omitted, Abs format (unit mm)*
G04 Created by KiCad (PCBNEW 9.0.2+dfsg-1) date 2026-09-05 20:41:30*
%MOMM*%
%LPD*%
G01*
G04 APERTURE LIST*
%TA.AperFunction,Profile*%
%ADD10C,0.050000*%
%TD*%
%ADD11C,0.350000*%
%ADD12O,1.100000X1.800000*%
G04 APERTURE END LIST*
D10*
X163195000Y-63500000D02*
X63500000Y-63500000D01*
X163195000Y-163195000D02*
X163195000Y-63500000D01*
X163195000Y-163195000D02*
X63500000Y-163195000D01*
X63500000Y-63500000D02*
X63500000Y-163195000D01*
D11*
X146050000Y-140385000D03*
X146050000Y-142925000D03*
X159705000Y-107435000D03*
X159705000Y-102435000D03*
X68530000Y-80010000D03*
X65990000Y-80010000D03*
X73700000Y-73660000D03*
X78700000Y-73660000D03*
X150815000Y-97275000D03*
X150815000Y-94735000D03*
X85725000Y-140335000D03*
X85725000Y-142875000D03*
X98425000Y-157480000D03*
X98425000Y-154940000D03*
X98425000Y-152400000D03*
X98425000Y-149860000D03*
X98425000Y-147320000D03*
X90805000Y-147320000D03*
X90805000Y-149860000D03*
X90805000Y-152400000D03*
X90805000Y-154940000D03*
X90805000Y-157480000D03*
X96520000Y-92710000D03*
X91520000Y-92710000D03*
X154065000Y-113150000D03*
X154065000Y-120770000D03*
X88265000Y-140335000D03*
X88265000Y-142875000D03*
X83185000Y-140335000D03*
X83185000Y-142875000D03*
X102235000Y-96520000D03*
X102235000Y-99060000D03*
X102235000Y-101600000D03*
X102235000Y-104140000D03*
X102235000Y-106680000D03*
X102235000Y-109220000D03*
X102235000Y-111760000D03*
X102235000Y-114300000D03*
X102235000Y-116840000D03*
X102235000Y-119380000D03*
X102235000Y-121920000D03*
X102235000Y-124460000D03*
X102235000Y-127000000D03*
X102235000Y-129540000D03*
X102235000Y-132080000D03*
X102235000Y-134620000D03*
X117475000Y-134620000D03*
X117475000Y-132080000D03*
X117475000Y-129540000D03*
X117475000Y-127000000D03*
X117475000Y-124460000D03*
X117475000Y-121920000D03*
X117475000Y-119380000D03*
X117475000Y-116840000D03*
X117475000Y-114300000D03*
X117475000Y-111760000D03*
X117475000Y-109220000D03*
X117475000Y-106680000D03*
X117475000Y-104140000D03*
X117475000Y-101600000D03*
X117475000Y-99060000D03*
X117475000Y-96520000D03*
X128270000Y-140335000D03*
X128270000Y-142875000D03*
X135890000Y-140335000D03*
X135890000Y-142875000D03*
X152400000Y-140970000D03*
X152400000Y-143510000D03*
X88900000Y-67855000D03*
X91440000Y-67855000D03*
X93980000Y-67855000D03*
X96520000Y-67855000D03*
X99060000Y-67855000D03*
X101600000Y-67855000D03*
X104140000Y-67855000D03*
X106680000Y-67855000D03*
X109220000Y-67855000D03*
X111760000Y-67855000D03*
X114300000Y-67855000D03*
X116840000Y-67855000D03*
X119380000Y-67855000D03*
X121920000Y-67855000D03*
X124460000Y-67855000D03*
X127000000Y-67855000D03*
X129540000Y-67855000D03*
X132080000Y-67855000D03*
X134620000Y-67855000D03*
X137160000Y-67855000D03*
X137160000Y-70395000D03*
X134620000Y-70395000D03*
X132080000Y-70395000D03*
X129540000Y-70395000D03*
X127000000Y-70395000D03*
X124460000Y-70395000D03*
X121920000Y-70395000D03*
X119380000Y-70395000D03*
X116840000Y-70395000D03*
X114300000Y-70395000D03*
X111760000Y-70395000D03*
X109220000Y-70395000D03*
X106680000Y-70395000D03*
X104140000Y-70395000D03*
X101600000Y-70395000D03*
X99060000Y-70395000D03*
X96520000Y-70395000D03*
X93980000Y-70395000D03*
X91440000Y-70395000D03*
X88900000Y-70395000D03*
X70485000Y-95885000D03*
X70485000Y-98425000D03*
X104140000Y-140335000D03*
X104140000Y-142875000D03*
X130810000Y-140335000D03*
X130810000Y-142875000D03*
X93345000Y-140335000D03*
X93345000Y-142875000D03*
X80645000Y-140335000D03*
X80645000Y-142875000D03*
X117475000Y-92710000D03*
X112475000Y-92710000D03*
X158040000Y-154305000D03*
X158040000Y-151765000D03*
X152685000Y-154305000D03*
X152685000Y-151765000D03*
X98425000Y-140335000D03*
X98425000Y-142875000D03*
X116825000Y-140335000D03*
X116825000Y-142875000D03*
X67945000Y-121970000D03*
X67945000Y-124510000D03*
X152960000Y-156845000D03*
X152960000Y-159385000D03*
X157165000Y-120770000D03*
X157165000Y-113150000D03*
X147640000Y-115055000D03*
X147640000Y-110055000D03*
X143510000Y-140385000D03*
X143510000Y-142925000D03*
X109220000Y-157480000D03*
X109220000Y-154940000D03*
X109220000Y-152400000D03*
X109220000Y-149860000D03*
X109220000Y-147320000D03*
X101600000Y-147320000D03*
X101600000Y-149860000D03*
X101600000Y-152400000D03*
X101600000Y-154940000D03*
X101600000Y-157480000D03*
D12*
X159385000Y-130810000D03*
X149785000Y-130810000D03*
D11*
X157085000Y-123310000D03*
X154585000Y-123310000D03*
X152085000Y-123310000D03*
X71120000Y-149860000D03*
X71120000Y-152400000D03*
X71120000Y-154940000D03*
X81320000Y-85725000D03*
X86320000Y-85725000D03*
X71120000Y-137160000D03*
X71120000Y-139700000D03*
X71120000Y-142240000D03*
X67945000Y-134670000D03*
X67945000Y-137210000D03*
X123190000Y-96520000D03*
X123190000Y-99060000D03*
X123190000Y-101600000D03*
X123190000Y-104140000D03*
X123190000Y-106680000D03*
X123190000Y-109220000D03*
X123190000Y-111760000D03*
X123190000Y-114300000D03*
X123190000Y-116840000D03*
X123190000Y-119380000D03*
X123190000Y-121920000D03*
X123190000Y-124460000D03*
X123190000Y-127000000D03*
X123190000Y-129540000D03*
X123190000Y-132080000D03*
X123190000Y-134620000D03*
X138430000Y-134620000D03*
X138430000Y-132080000D03*
X138430000Y-129540000D03*
X138430000Y-127000000D03*
X138430000Y-124460000D03*
X138430000Y-121920000D03*
X138430000Y-119380000D03*
X138430000Y-116840000D03*
X138430000Y-114300000D03*
X138430000Y-111760000D03*
X138430000Y-109220000D03*
X138430000Y-106680000D03*
X138430000Y-104140000D03*
X138430000Y-101600000D03*
X138430000Y-99060000D03*
X138430000Y-96520000D03*
X133350000Y-140385000D03*
X133350000Y-142925000D03*
X158115000Y-148590000D03*
X158115000Y-147320000D03*
X158115000Y-146050000D03*
X135890000Y-157480000D03*
X135890000Y-154940000D03*
X135890000Y-152400000D03*
X135890000Y-149860000D03*
X135890000Y-147320000D03*
X128270000Y-147320000D03*
X128270000Y-149860000D03*
X128270000Y-152400000D03*
X128270000Y-154940000D03*
X128270000Y-157480000D03*
X152325000Y-146050000D03*
X152325000Y-147320000D03*
X152325000Y-148590000D03*
X155895000Y-99815000D03*
X153355000Y-99815000D03*
X150815000Y-99815000D03*
X148275000Y-99815000D03*
X148275000Y-107435000D03*
X150815000Y-107435000D03*
X153355000Y-107435000D03*
X155895000Y-107435000D03*
X158115000Y-140970000D03*
X158115000Y-143510000D03*
X140970000Y-140385000D03*
X140970000Y-142925000D03*
X109220000Y-140335000D03*
X109220000Y-142875000D03*
X155845000Y-109975000D03*
X153305000Y-109975000D03*
X119380000Y-157480000D03*
X119380000Y-154940000D03*
X119380000Y-152400000D03*
X119380000Y-149860000D03*
X119380000Y-147320000D03*
X111760000Y-147320000D03*
X111760000Y-149860000D03*
X111760000Y-152400000D03*
X111760000Y-154940000D03*
X111760000Y-157480000D03*
X81360000Y-82550000D03*
X86360000Y-82550000D03*
X67945000Y-149860000D03*
X67945000Y-147320000D03*
X81280000Y-96520000D03*
X81280000Y-99060000D03*
X81280000Y-101600000D03*
X81280000Y-104140000D03*
X81280000Y-106680000D03*
X81280000Y-109220000D03*
X81280000Y-111760000D03*
X81280000Y-114300000D03*
X81280000Y-116840000D03*
X81280000Y-119380000D03*
X81280000Y-121920000D03*
X81280000Y-124460000D03*
X81280000Y-127000000D03*
X81280000Y-129540000D03*
X81280000Y-132080000D03*
X81280000Y-134620000D03*
X96520000Y-134620000D03*
X96520000Y-132080000D03*
X96520000Y-129540000D03*
X96520000Y-127000000D03*
X96520000Y-124460000D03*
X96520000Y-121920000D03*
X96520000Y-119380000D03*
X96520000Y-116840000D03*
X96520000Y-114300000D03*
X96520000Y-111760000D03*
X96520000Y-109220000D03*
X96520000Y-106680000D03*
X96520000Y-104140000D03*
X96520000Y-101600000D03*
X96520000Y-99060000D03*
X96520000Y-96520000D03*
X88265000Y-157480000D03*
X88265000Y-154940000D03*
X88265000Y-152400000D03*
X88265000Y-149860000D03*
X88265000Y-147320000D03*
X80645000Y-147320000D03*
X80645000Y-149860000D03*
X80645000Y-152400000D03*
X80645000Y-154940000D03*
X80645000Y-157480000D03*
X73025000Y-98425000D03*
X73025000Y-95885000D03*
X95885000Y-140335000D03*
X95885000Y-142875000D03*
X71120000Y-124460000D03*
X71120000Y-127000000D03*
X71120000Y-129540000D03*
X138430000Y-92710000D03*
X133430000Y-92710000D03*
X138430000Y-140385000D03*
X138430000Y-142925000D03*
X106680000Y-140335000D03*
X106680000Y-142875000D03*
X101600000Y-140335000D03*
X101600000Y-142875000D03*
X114285000Y-140335000D03*
X114285000Y-142875000D03*
X68530000Y-85090000D03*
X65990000Y-85090000D03*
X111745000Y-140335000D03*
X111745000Y-142875000D03*
X90805000Y-140335000D03*
X90805000Y-142875000D03*
X158040000Y-156845000D03*
X158040000Y-159385000D03*
X119365000Y-140335000D03*
X119365000Y-142875000D03*
X150815000Y-110015000D03*
X150815000Y-115015000D03*
X71120000Y-77470000D03*
X71120000Y-80010000D03*
X71120000Y-82550000D03*
X71120000Y-85090000D03*
X78740000Y-85090000D03*
X78740000Y-82550000D03*
X78740000Y-80010000D03*
X78740000Y-77470000D03*
X73025000Y-101600000D03*
X71755000Y-101600000D03*
X70485000Y-101600000D03*
X148275000Y-94785000D03*
X148275000Y-97325000D03*
X146050000Y-157480000D03*
X146050000Y-154940000D03*
X146050000Y-152400000D03*
X146050000Y-149860000D03*
X146050000Y-147320000D03*
X138430000Y-147320000D03*
X138430000Y-149860000D03*
X138430000Y-152400000D03*
X138430000Y-154940000D03*
X138430000Y-157480000D03*
M02*
