%TF.GenerationSoftware,KiCad,Pcbnew,9.0.2+dfsg-1*%
%TF.CreationDate,2026-09-05T20:41:30+02:00*%
%TF.ProjectId,bus-display-card,6275732d-6469-4737-906c-61792d636172,rev?*%
%TF.SameCoordinates,Original*%
%TF.FileFunction,Copper,L1,Top*%
%TF.FilePolarity,Positive*%
%FSLAX46Y46*%
G04 Gerber Fmt 4.6, Leading zero omitted, Abs format (unit mm)*
G04 Created by KiCad (PCBNEW 9.0.2+dfsg-1) date 2026-09-05 20:41:30*
%MOMM*%
%LPD*%
G01*
G04 APERTURE LIST*
G04 Aperture macros list*
%AMRoundRect*
0 Rectangle with rounded corners*
0 $1 Rounding radius*
0 $2 $3 $4 $5 $6 $7 $8 $9 X,Y pos of 4 corners*
0 Add a 4 corners polygon primitive as box body*
4,1,4,$2,$3,$4,$5,$6,$7,$8,$9,$2,$3,0*
0 Add four circle primitives for the rounded corners*
1,1,$1+$1,$2,$3*
1,1,$1+$1,$4,$5*
1,1,$1+$1,$6,$7*
1,1,$1+$1,$8,$9*
0 Add four rect primitives between the rounded corners*
20,1,$1+$1,$2,$3,$4,$5,0*
20,1,$1+$1,$4,$5,$6,$7,0*
20,1,$1+$1,$6,$7,$8,$9,0*
20,1,$1+$1,$8,$9,$2,$3,0*%
G04 Aperture macros list end*
%TA.AperFunction,ComponentPad*%
%ADD10C,1.400000*%
%TD*%
%TA.AperFunction,ComponentPad*%
%ADD11C,1.600000*%
%TD*%
%TA.AperFunction,ComponentPad*%
%ADD12O,2.000000X1.200000*%
%TD*%
%TA.AperFunction,ComponentPad*%
%ADD13RoundRect,0.250000X-0.550000X0.550000X-0.550000X-0.550000X0.550000X-0.550000X0.550000X0.550000X0*%
%TD*%
%TA.AperFunction,ComponentPad*%
%ADD14RoundRect,0.250000X-0.550000X-0.550000X0.550000X-0.550000X0.550000X0.550000X-0.550000X0.550000X0*%
%TD*%
%TA.AperFunction,ComponentPad*%
%ADD15C,1.700000*%
%TD*%
%TA.AperFunction,ComponentPad*%
%ADD16R,1.700000X1.700000*%
%TD*%
%TA.AperFunction,ComponentPad*%
%ADD17R,1.800000X1.800000*%
%TD*%
%TA.AperFunction,ComponentPad*%
%ADD18C,1.800000*%
%TD*%
%TA.AperFunction,ComponentPad*%
%ADD19RoundRect,0.250000X0.550000X-0.550000X0.550000X0.550000X-0.550000X0.550000X-0.550000X-0.550000X0*%
%TD*%
%TA.AperFunction,ComponentPad*%
%ADD20O,2.720000X3.240000*%
%TD*%
%TA.AperFunction,ComponentPad*%
%ADD21R,2.000000X1.905000*%
%TD*%
%TA.AperFunction,ComponentPad*%
%ADD22O,2.000000X1.905000*%
%TD*%
%TA.AperFunction,ComponentPad*%
%ADD23R,1.500000X1.050000*%
%TD*%
%TA.AperFunction,ComponentPad*%
%ADD24O,1.500000X1.050000*%
%TD*%
%TA.AperFunction,ComponentPad*%
%ADD25R,1.050000X1.500000*%
%TD*%
%TA.AperFunction,ComponentPad*%
%ADD26O,1.050000X1.500000*%
%TD*%
%TA.AperFunction,ViaPad*%
%ADD27C,0.600000*%
%TD*%
%TA.AperFunction,Conductor*%
%ADD28C,0.250000*%
%TD*%
%TA.AperFunction,Conductor*%
%ADD29C,0.500000*%
%TD*%
%TA.AperFunction,Conductor*%
%ADD30C,1.000000*%
%TD*%
%TA.AperFunction,Conductor*%
%ADD31C,0.700000*%
%TD*%
%ADD32C,0.300000*%
%ADD33C,0.350000*%
%ADD34O,1.100000X1.800000*%
G04 APERTURE END LIST*
D10*
%TO.P,R37,1*%
%TO.N,Net-(U9-D6)*%
X146050000Y-140385000D03*
%TO.P,R37,2*%
%TO.N,Net-(U10-G)*%
X146050000Y-142925000D03*
%TD*%
D11*
%TO.P,C7,1*%
%TO.N,+5V*%
X159705000Y-107435000D03*
%TO.P,C7,2*%
%TO.N,GND*%
X159705000Y-102435000D03*
%TD*%
D10*
%TO.P,R10,1*%
%TO.N,Net-(U2-THR)*%
X68530000Y-80010000D03*
%TO.P,R10,2*%
%TO.N,Net-(U2-DIS)*%
X65990000Y-80010000D03*
%TD*%
D11*
%TO.P,C6,1*%
%TO.N,GND*%
X73700000Y-73660000D03*
%TO.P,C6,2*%
%TO.N,+5V*%
X78700000Y-73660000D03*
%TD*%
D10*
%TO.P,R13,1*%
%TO.N,Net-(U3-Q)*%
X150815000Y-97275000D03*
%TO.P,R13,2*%
%TO.N,SW_BUS_LED*%
X150815000Y-94735000D03*
%TD*%
%TO.P,R2,1*%
%TO.N,Net-(U1-D1)*%
X85725000Y-140335000D03*
%TO.P,R2,2*%
%TO.N,Net-(U4-B)*%
X85725000Y-142875000D03*
%TD*%
D12*
%TO.P,U5,1,E*%
%TO.N,Net-(U4-E)*%
X98425000Y-157480000D03*
%TO.P,U5,2,F*%
%TO.N,Net-(U4-F)*%
X98425000Y-154940000D03*
%TO.P,U5,3,G*%
%TO.N,Net-(U4-G)*%
X98425000Y-152400000D03*
%TO.P,U5,4,NC*%
%TO.N,unconnected-(U5-NC-Pad4)*%
X98425000Y-149860000D03*
%TO.P,U5,5,D*%
%TO.N,Net-(U4-D)*%
X98425000Y-147320000D03*
%TO.P,U5,6,CC*%
%TO.N,Net-(Q1-S)*%
X90805000Y-147320000D03*
%TO.P,U5,7,DP*%
%TO.N,Net-(U4-DP)*%
X90805000Y-149860000D03*
%TO.P,U5,8,C*%
%TO.N,Net-(U4-C)*%
X90805000Y-152400000D03*
%TO.P,U5,9,B*%
%TO.N,Net-(U4-B)*%
X90805000Y-154940000D03*
%TO.P,U5,10,A*%
%TO.N,Net-(U4-A)*%
X90805000Y-157480000D03*
%TD*%
D11*
%TO.P,C1,1*%
%TO.N,+5V*%
X96520000Y-92710000D03*
%TO.P,C1,2*%
%TO.N,GND*%
X91520000Y-92710000D03*
%TD*%
D13*
%TO.P,D1,1,K*%
%TO.N,Net-(D1-K)*%
X154065000Y-113150000D03*
D11*
%TO.P,D1,2,A*%
%TO.N,Net-(D1-A)*%
X154065000Y-120770000D03*
%TD*%
D10*
%TO.P,R1,1*%
%TO.N,Net-(U1-D0)*%
X88265000Y-140335000D03*
%TO.P,R1,2*%
%TO.N,Net-(U4-A)*%
X88265000Y-142875000D03*
%TD*%
%TO.P,R3,1*%
%TO.N,Net-(U1-D2)*%
X83185000Y-140335000D03*
%TO.P,R3,2*%
%TO.N,Net-(U4-C)*%
X83185000Y-142875000D03*
%TD*%
D14*
%TO.P,U6,1,NC*%
%TO.N,unconnected-(U6-NC-Pad1)*%
X102235000Y-96520000D03*
D11*
%TO.P,U6,2,A16*%
%TO.N,GND*%
X102235000Y-99060000D03*
%TO.P,U6,3,A15*%
X102235000Y-101600000D03*
%TO.P,U6,4,A12*%
X102235000Y-104140000D03*
%TO.P,U6,5,A7*%
%TO.N,/A15*%
X102235000Y-106680000D03*
%TO.P,U6,6,A6*%
%TO.N,/A14*%
X102235000Y-109220000D03*
%TO.P,U6,7,A5*%
%TO.N,/A13*%
X102235000Y-111760000D03*
%TO.P,U6,8,A4*%
%TO.N,/A12*%
X102235000Y-114300000D03*
%TO.P,U6,9,A3*%
%TO.N,/A11*%
X102235000Y-116840000D03*
%TO.P,U6,10,A2*%
%TO.N,/A10*%
X102235000Y-119380000D03*
%TO.P,U6,11,A1*%
%TO.N,/A9*%
X102235000Y-121920000D03*
%TO.P,U6,12,A0*%
%TO.N,/A8*%
X102235000Y-124460000D03*
%TO.P,U6,13,D0*%
%TO.N,Net-(U6-D0)*%
X102235000Y-127000000D03*
%TO.P,U6,14,D1*%
%TO.N,Net-(U6-D1)*%
X102235000Y-129540000D03*
%TO.P,U6,15,D2*%
%TO.N,Net-(U6-D2)*%
X102235000Y-132080000D03*
%TO.P,U6,16,GND*%
%TO.N,GND*%
X102235000Y-134620000D03*
%TO.P,U6,17,D3*%
%TO.N,Net-(U6-D3)*%
X117475000Y-134620000D03*
%TO.P,U6,18,D4*%
%TO.N,Net-(U6-D4)*%
X117475000Y-132080000D03*
%TO.P,U6,19,D5*%
%TO.N,Net-(U6-D5)*%
X117475000Y-129540000D03*
%TO.P,U6,20,D6*%
%TO.N,Net-(U6-D6)*%
X117475000Y-127000000D03*
%TO.P,U6,21,D7*%
%TO.N,Net-(U6-D7)*%
X117475000Y-124460000D03*
%TO.P,U6,22,CE*%
%TO.N,GND*%
X117475000Y-121920000D03*
%TO.P,U6,23,A10*%
X117475000Y-119380000D03*
%TO.P,U6,24,OE*%
X117475000Y-116840000D03*
%TO.P,U6,25,A11*%
X117475000Y-114300000D03*
%TO.P,U6,26,A9*%
X117475000Y-111760000D03*
%TO.P,U6,27,A8*%
%TO.N,Net-(Q3-S)*%
X117475000Y-109220000D03*
%TO.P,U6,28,A13*%
%TO.N,GND*%
X117475000Y-106680000D03*
%TO.P,U6,29,A14*%
X117475000Y-104140000D03*
%TO.P,U6,30,NC*%
%TO.N,unconnected-(U6-NC-Pad30)*%
X117475000Y-101600000D03*
%TO.P,U6,31,PGM*%
%TO.N,+5V*%
X117475000Y-99060000D03*
%TO.P,U6,32,VCC*%
X117475000Y-96520000D03*
%TD*%
D10*
%TO.P,R38,1*%
%TO.N,Net-(U9-D7)*%
X128270000Y-140335000D03*
%TO.P,R38,2*%
%TO.N,Net-(U10-DP)*%
X128270000Y-142875000D03*
%TD*%
%TO.P,R31,1*%
%TO.N,Net-(U9-D0)*%
X135890000Y-140335000D03*
%TO.P,R31,2*%
%TO.N,Net-(U10-A)*%
X135890000Y-142875000D03*
%TD*%
%TO.P,R28,1*%
%TO.N,RW{slash}*%
X152400000Y-140970000D03*
%TO.P,R28,2*%
%TO.N,Net-(Q5-B)*%
X152400000Y-143510000D03*
%TD*%
D15*
%TO.P,J1,1,Vss*%
%TO.N,GND*%
X88900000Y-67855000D03*
%TO.P,J1,2,SYNC*%
%TO.N,unconnected-(J1-SYNC-Pad2)*%
X91440000Y-67855000D03*
%TO.P,J1,3,VP/*%
%TO.N,unconnected-(J1-VP{slash}-Pad3)*%
X93980000Y-67855000D03*
%TO.P,J1,4,+5V*%
%TO.N,+5V*%
X96520000Y-67855000D03*
%TO.P,J1,5,A0*%
%TO.N,/A0*%
X99060000Y-67855000D03*
%TO.P,J1,6,A1*%
%TO.N,/A1*%
X101600000Y-67855000D03*
%TO.P,J1,7,A2*%
%TO.N,/A2*%
X104140000Y-67855000D03*
%TO.P,J1,8,A3*%
%TO.N,/A3*%
X106680000Y-67855000D03*
%TO.P,J1,9,A4*%
%TO.N,/A4*%
X109220000Y-67855000D03*
%TO.P,J1,10,A5*%
%TO.N,/A5*%
X111760000Y-67855000D03*
%TO.P,J1,11,A6*%
%TO.N,/A6*%
X114300000Y-67855000D03*
%TO.P,J1,12,A7*%
%TO.N,/A7*%
X116840000Y-67855000D03*
%TO.P,J1,13,A8*%
%TO.N,/A8*%
X119380000Y-67855000D03*
%TO.P,J1,14,A9*%
%TO.N,/A9*%
X121920000Y-67855000D03*
%TO.P,J1,15,A10*%
%TO.N,/A10*%
X124460000Y-67855000D03*
%TO.P,J1,16,A11*%
%TO.N,/A11*%
X127000000Y-67855000D03*
%TO.P,J1,17,A12*%
%TO.N,/A12*%
X129540000Y-67855000D03*
%TO.P,J1,18,A13*%
%TO.N,/A13*%
X132080000Y-67855000D03*
%TO.P,J1,19,A14*%
%TO.N,/A14*%
X134620000Y-67855000D03*
%TO.P,J1,20,A15*%
%TO.N,/A15*%
X137160000Y-67855000D03*
%TO.P,J1,21,D0*%
%TO.N,/D0*%
X137160000Y-70395000D03*
%TO.P,J1,22,D1*%
%TO.N,/D1*%
X134620000Y-70395000D03*
%TO.P,J1,23,D2*%
%TO.N,/D2*%
X132080000Y-70395000D03*
%TO.P,J1,24,D3*%
%TO.N,/D3*%
X129540000Y-70395000D03*
%TO.P,J1,25,D4*%
%TO.N,/D4*%
X127000000Y-70395000D03*
%TO.P,J1,26,D5*%
%TO.N,/D5*%
X124460000Y-70395000D03*
%TO.P,J1,27,D6*%
%TO.N,/D6*%
X121920000Y-70395000D03*
%TO.P,J1,28,D7*%
%TO.N,/D7*%
X119380000Y-70395000D03*
%TO.P,J1,29,RW/*%
%TO.N,RW{slash}*%
X116840000Y-70395000D03*
%TO.P,J1,30,NC*%
%TO.N,unconnected-(J1-NC-Pad30)*%
X114300000Y-70395000D03*
%TO.P,J1,31,BE*%
%TO.N,unconnected-(J1-BE-Pad31)*%
X111760000Y-70395000D03*
%TO.P,J1,32,IRQ/*%
%TO.N,unconnected-(J1-IRQ{slash}-Pad32)*%
X109220000Y-70395000D03*
%TO.P,J1,33,NMI/*%
%TO.N,unconnected-(J1-NMI{slash}-Pad33)*%
X106680000Y-70395000D03*
%TO.P,J1,34,RES/*%
%TO.N,unconnected-(J1-RES{slash}-Pad34)*%
X104140000Y-70395000D03*
%TO.P,J1,35,RAM/*%
%TO.N,unconnected-(J1-RAM{slash}-Pad35)*%
X101600000Y-70395000D03*
%TO.P,J1,36,ROM/*%
%TO.N,unconnected-(J1-ROM{slash}-Pad36)*%
X99060000Y-70395000D03*
%TO.P,J1,37,+5V*%
%TO.N,+5V*%
X96520000Y-70395000D03*
%TO.P,J1,38,ACC/*%
%TO.N,unconnected-(J1-ACC{slash}-Pad38)*%
X93980000Y-70395000D03*
%TO.P,J1,39,CLK*%
%TO.N,unconnected-(J1-CLK-Pad39)*%
X91440000Y-70395000D03*
D16*
%TO.P,J1,40,Vss*%
%TO.N,GND*%
X88900000Y-70395000D03*
%TD*%
D10*
%TO.P,R14,1*%
%TO.N,Net-(U2-Q)*%
X70485000Y-95885000D03*
%TO.P,R14,2*%
%TO.N,Net-(Q2-B)*%
X70485000Y-98425000D03*
%TD*%
%TO.P,R20,1*%
%TO.N,Net-(U6-D2)*%
X104140000Y-140335000D03*
%TO.P,R20,2*%
%TO.N,Net-(U7-C)*%
X104140000Y-142875000D03*
%TD*%
%TO.P,R33,1*%
%TO.N,Net-(U9-D2)*%
X130810000Y-140335000D03*
%TO.P,R33,2*%
%TO.N,Net-(U10-C)*%
X130810000Y-142875000D03*
%TD*%
%TO.P,R5,1*%
%TO.N,Net-(U1-D4)*%
X93345000Y-140335000D03*
%TO.P,R5,2*%
%TO.N,Net-(U4-E)*%
X93345000Y-142875000D03*
%TD*%
%TO.P,R8,1*%
%TO.N,Net-(U1-D7)*%
X80645000Y-140335000D03*
%TO.P,R8,2*%
%TO.N,Net-(U4-DP)*%
X80645000Y-142875000D03*
%TD*%
D11*
%TO.P,C8,1*%
%TO.N,+5V*%
X117475000Y-92710000D03*
%TO.P,C8,2*%
%TO.N,GND*%
X112475000Y-92710000D03*
%TD*%
D17*
%TO.P,D4,1,K*%
%TO.N,Net-(D4-K)*%
X158040000Y-154305000D03*
D18*
%TO.P,D4,2,A*%
%TO.N,Net-(D4-A)*%
X158040000Y-151765000D03*
%TD*%
D17*
%TO.P,D3,1,K*%
%TO.N,Net-(D3-K)*%
X152685000Y-154305000D03*
D18*
%TO.P,D3,2,A*%
%TO.N,Net-(D3-A)*%
X152685000Y-151765000D03*
%TD*%
D10*
%TO.P,R7,1*%
%TO.N,Net-(U1-D6)*%
X98425000Y-140335000D03*
%TO.P,R7,2*%
%TO.N,Net-(U4-G)*%
X98425000Y-142875000D03*
%TD*%
%TO.P,R23,1*%
%TO.N,Net-(U6-D5)*%
X116825000Y-140335000D03*
%TO.P,R23,2*%
%TO.N,Net-(U7-F)*%
X116825000Y-142875000D03*
%TD*%
%TO.P,R26,1*%
%TO.N,GND*%
X67945000Y-121970000D03*
%TO.P,R26,2*%
%TO.N,SW_BUS_LED*%
X67945000Y-124510000D03*
%TD*%
%TO.P,R27,1*%
%TO.N,Net-(D3-K)*%
X152960000Y-156845000D03*
%TO.P,R27,2*%
%TO.N,Net-(Q1-D)*%
X152960000Y-159385000D03*
%TD*%
D19*
%TO.P,D2,1,K*%
%TO.N,Net-(D2-K)*%
X157165000Y-120770000D03*
D11*
%TO.P,D2,2,A*%
%TO.N,Net-(D1-K)*%
X157165000Y-113150000D03*
%TD*%
%TO.P,C5,1*%
%TO.N,GND*%
X147640000Y-115055000D03*
%TO.P,C5,2*%
%TO.N,Net-(U3-CV)*%
X147640000Y-110055000D03*
%TD*%
D10*
%TO.P,R36,1*%
%TO.N,Net-(U9-D5)*%
X143510000Y-140385000D03*
%TO.P,R36,2*%
%TO.N,Net-(U10-F)*%
X143510000Y-142925000D03*
%TD*%
D12*
%TO.P,U7,1,E*%
%TO.N,Net-(U7-E)*%
X109220000Y-157480000D03*
%TO.P,U7,2,F*%
%TO.N,Net-(U7-F)*%
X109220000Y-154940000D03*
%TO.P,U7,3,G*%
%TO.N,Net-(U7-G)*%
X109220000Y-152400000D03*
%TO.P,U7,4,NC*%
%TO.N,unconnected-(U7-NC-Pad4)*%
X109220000Y-149860000D03*
%TO.P,U7,5,D*%
%TO.N,Net-(U7-D)*%
X109220000Y-147320000D03*
%TO.P,U7,6,CC*%
%TO.N,Net-(Q3-S)*%
X101600000Y-147320000D03*
%TO.P,U7,7,DP*%
%TO.N,Net-(U7-DP)*%
X101600000Y-149860000D03*
%TO.P,U7,8,C*%
%TO.N,Net-(U7-C)*%
X101600000Y-152400000D03*
%TO.P,U7,9,B*%
%TO.N,Net-(U7-B)*%
X101600000Y-154940000D03*
%TO.P,U7,10,A*%
%TO.N,Net-(U7-A)*%
X101600000Y-157480000D03*
%TD*%
D20*
%TO.P,RV1,*%
%TO.N,*%
X159385000Y-130810000D03*
X149785000Y-130810000D03*
D17*
%TO.P,RV1,1,1*%
%TO.N,Net-(D2-K)*%
X157085000Y-123310000D03*
D18*
%TO.P,RV1,2,2*%
%TO.N,Net-(U3-THR)*%
X154585000Y-123310000D03*
%TO.P,RV1,3,3*%
%TO.N,Net-(D1-A)*%
X152085000Y-123310000D03*
%TD*%
D21*
%TO.P,Q1,1,G*%
%TO.N,Net-(Q1-G)*%
X71120000Y-149860000D03*
D22*
%TO.P,Q1,2,D*%
%TO.N,Net-(Q1-D)*%
X71120000Y-152400000D03*
%TO.P,Q1,3,S*%
%TO.N,Net-(Q1-S)*%
X71120000Y-154940000D03*
%TD*%
D11*
%TO.P,C3,1*%
%TO.N,Net-(U2-CV)*%
X81320000Y-85725000D03*
%TO.P,C3,2*%
%TO.N,GND*%
X86320000Y-85725000D03*
%TD*%
D21*
%TO.P,Q3,1,G*%
%TO.N,Net-(Q3-G)*%
X71120000Y-137160000D03*
D22*
%TO.P,Q3,2,D*%
%TO.N,Net-(Q1-D)*%
X71120000Y-139700000D03*
%TO.P,Q3,3,S*%
%TO.N,Net-(Q3-S)*%
X71120000Y-142240000D03*
%TD*%
D10*
%TO.P,R17,1*%
%TO.N,Net-(Q2-C)*%
X67945000Y-134670000D03*
%TO.P,R17,2*%
%TO.N,Net-(Q3-G)*%
X67945000Y-137210000D03*
%TD*%
D14*
%TO.P,U9,1,NC*%
%TO.N,unconnected-(U9-NC-Pad1)*%
X123190000Y-96520000D03*
D11*
%TO.P,U9,2,A16*%
%TO.N,GND*%
X123190000Y-99060000D03*
%TO.P,U9,3,A15*%
X123190000Y-101600000D03*
%TO.P,U9,4,A12*%
X123190000Y-104140000D03*
%TO.P,U9,5,A7*%
%TO.N,/D7*%
X123190000Y-106680000D03*
%TO.P,U9,6,A6*%
%TO.N,/D6*%
X123190000Y-109220000D03*
%TO.P,U9,7,A5*%
%TO.N,/D5*%
X123190000Y-111760000D03*
%TO.P,U9,8,A4*%
%TO.N,/D4*%
X123190000Y-114300000D03*
%TO.P,U9,9,A3*%
%TO.N,/D3*%
X123190000Y-116840000D03*
%TO.P,U9,10,A2*%
%TO.N,/D2*%
X123190000Y-119380000D03*
%TO.P,U9,11,A1*%
%TO.N,/D1*%
X123190000Y-121920000D03*
%TO.P,U9,12,A0*%
%TO.N,/D0*%
X123190000Y-124460000D03*
%TO.P,U9,13,D0*%
%TO.N,Net-(U9-D0)*%
X123190000Y-127000000D03*
%TO.P,U9,14,D1*%
%TO.N,Net-(U9-D1)*%
X123190000Y-129540000D03*
%TO.P,U9,15,D2*%
%TO.N,Net-(U9-D2)*%
X123190000Y-132080000D03*
%TO.P,U9,16,GND*%
%TO.N,GND*%
X123190000Y-134620000D03*
%TO.P,U9,17,D3*%
%TO.N,Net-(U9-D3)*%
X138430000Y-134620000D03*
%TO.P,U9,18,D4*%
%TO.N,Net-(U9-D4)*%
X138430000Y-132080000D03*
%TO.P,U9,19,D5*%
%TO.N,Net-(U9-D5)*%
X138430000Y-129540000D03*
%TO.P,U9,20,D6*%
%TO.N,Net-(U9-D6)*%
X138430000Y-127000000D03*
%TO.P,U9,21,D7*%
%TO.N,Net-(U9-D7)*%
X138430000Y-124460000D03*
%TO.P,U9,22,CE*%
%TO.N,GND*%
X138430000Y-121920000D03*
%TO.P,U9,23,A10*%
X138430000Y-119380000D03*
%TO.P,U9,24,OE*%
X138430000Y-116840000D03*
%TO.P,U9,25,A11*%
X138430000Y-114300000D03*
%TO.P,U9,26,A9*%
X138430000Y-111760000D03*
%TO.P,U9,27,A8*%
%TO.N,Net-(Q3-S)*%
X138430000Y-109220000D03*
%TO.P,U9,28,A13*%
%TO.N,GND*%
X138430000Y-106680000D03*
%TO.P,U9,29,A14*%
X138430000Y-104140000D03*
%TO.P,U9,30,NC*%
%TO.N,unconnected-(U9-NC-Pad30)*%
X138430000Y-101600000D03*
%TO.P,U9,31,PGM*%
%TO.N,+5V*%
X138430000Y-99060000D03*
%TO.P,U9,32,VCC*%
X138430000Y-96520000D03*
%TD*%
D10*
%TO.P,R32,1*%
%TO.N,Net-(U9-D1)*%
X133350000Y-140385000D03*
%TO.P,R32,2*%
%TO.N,Net-(U10-B)*%
X133350000Y-142925000D03*
%TD*%
D23*
%TO.P,Q6,1,C*%
%TO.N,Net-(D4-A)*%
X158115000Y-148590000D03*
D24*
%TO.P,Q6,2,B*%
%TO.N,Net-(Q6-B)*%
X158115000Y-147320000D03*
%TO.P,Q6,3,E*%
%TO.N,+5V*%
X158115000Y-146050000D03*
%TD*%
D12*
%TO.P,U10,1,E*%
%TO.N,Net-(U10-E)*%
X135890000Y-157480000D03*
%TO.P,U10,2,F*%
%TO.N,Net-(U10-F)*%
X135890000Y-154940000D03*
%TO.P,U10,3,G*%
%TO.N,Net-(U10-G)*%
X135890000Y-152400000D03*
%TO.P,U10,4,NC*%
%TO.N,unconnected-(U10-NC-Pad4)*%
X135890000Y-149860000D03*
%TO.P,U10,5,D*%
%TO.N,Net-(U10-D)*%
X135890000Y-147320000D03*
%TO.P,U10,6,CC*%
%TO.N,Net-(Q3-S)*%
X128270000Y-147320000D03*
%TO.P,U10,7,DP*%
%TO.N,Net-(U10-DP)*%
X128270000Y-149860000D03*
%TO.P,U10,8,C*%
%TO.N,Net-(U10-C)*%
X128270000Y-152400000D03*
%TO.P,U10,9,B*%
%TO.N,Net-(U10-B)*%
X128270000Y-154940000D03*
%TO.P,U10,10,A*%
%TO.N,Net-(U10-A)*%
X128270000Y-157480000D03*
%TD*%
D23*
%TO.P,Q5,1,C*%
%TO.N,+5V*%
X152325000Y-146050000D03*
D24*
%TO.P,Q5,2,B*%
%TO.N,Net-(Q5-B)*%
X152325000Y-147320000D03*
%TO.P,Q5,3,E*%
%TO.N,Net-(D3-A)*%
X152325000Y-148590000D03*
%TD*%
D13*
%TO.P,U3,1,GND*%
%TO.N,GND*%
X155895000Y-99815000D03*
D11*
%TO.P,U3,2,TR*%
%TO.N,Net-(U3-THR)*%
X153355000Y-99815000D03*
%TO.P,U3,3,Q*%
%TO.N,Net-(U3-Q)*%
X150815000Y-99815000D03*
%TO.P,U3,4,R*%
%TO.N,+5V*%
X148275000Y-99815000D03*
%TO.P,U3,5,CV*%
%TO.N,Net-(U3-CV)*%
X148275000Y-107435000D03*
%TO.P,U3,6,THR*%
%TO.N,Net-(U3-THR)*%
X150815000Y-107435000D03*
%TO.P,U3,7,DIS*%
%TO.N,Net-(D1-K)*%
X153355000Y-107435000D03*
%TO.P,U3,8,VCC*%
%TO.N,+5V*%
X155895000Y-107435000D03*
%TD*%
D10*
%TO.P,R29,1*%
%TO.N,RW{slash}*%
X158115000Y-140970000D03*
%TO.P,R29,2*%
%TO.N,Net-(Q6-B)*%
X158115000Y-143510000D03*
%TD*%
%TO.P,R35,1*%
%TO.N,Net-(U9-D4)*%
X140970000Y-140385000D03*
%TO.P,R35,2*%
%TO.N,Net-(U10-E)*%
X140970000Y-142925000D03*
%TD*%
%TO.P,R18,1*%
%TO.N,Net-(U6-D0)*%
X109220000Y-140335000D03*
%TO.P,R18,2*%
%TO.N,Net-(U7-A)*%
X109220000Y-142875000D03*
%TD*%
%TO.P,R11,1*%
%TO.N,+5V*%
X155845000Y-109975000D03*
%TO.P,R11,2*%
%TO.N,Net-(D1-K)*%
X153305000Y-109975000D03*
%TD*%
D12*
%TO.P,U8,1,E*%
%TO.N,Net-(U7-E)*%
X119380000Y-157480000D03*
%TO.P,U8,2,F*%
%TO.N,Net-(U7-F)*%
X119380000Y-154940000D03*
%TO.P,U8,3,G*%
%TO.N,Net-(U7-G)*%
X119380000Y-152400000D03*
%TO.P,U8,4,NC*%
%TO.N,unconnected-(U8-NC-Pad4)*%
X119380000Y-149860000D03*
%TO.P,U8,5,D*%
%TO.N,Net-(U7-D)*%
X119380000Y-147320000D03*
%TO.P,U8,6,CC*%
%TO.N,Net-(Q1-S)*%
X111760000Y-147320000D03*
%TO.P,U8,7,DP*%
%TO.N,Net-(U7-DP)*%
X111760000Y-149860000D03*
%TO.P,U8,8,C*%
%TO.N,Net-(U7-C)*%
X111760000Y-152400000D03*
%TO.P,U8,9,B*%
%TO.N,Net-(U7-B)*%
X111760000Y-154940000D03*
%TO.P,U8,10,A*%
%TO.N,Net-(U7-A)*%
X111760000Y-157480000D03*
%TD*%
D11*
%TO.P,C2,1*%
%TO.N,Net-(U2-THR)*%
X81360000Y-82550000D03*
%TO.P,C2,2*%
%TO.N,GND*%
X86360000Y-82550000D03*
%TD*%
D10*
%TO.P,R12,1*%
%TO.N,Net-(Q1-G)*%
X67945000Y-149860000D03*
%TO.P,R12,2*%
%TO.N,Net-(U2-Q)*%
X67945000Y-147320000D03*
%TD*%
D14*
%TO.P,U1,1,NC*%
%TO.N,unconnected-(U1-NC-Pad1)*%
X81280000Y-96520000D03*
D11*
%TO.P,U1,2,A16*%
%TO.N,GND*%
X81280000Y-99060000D03*
%TO.P,U1,3,A15*%
X81280000Y-101600000D03*
%TO.P,U1,4,A12*%
X81280000Y-104140000D03*
%TO.P,U1,5,A7*%
%TO.N,/A7*%
X81280000Y-106680000D03*
%TO.P,U1,6,A6*%
%TO.N,/A6*%
X81280000Y-109220000D03*
%TO.P,U1,7,A5*%
%TO.N,/A5*%
X81280000Y-111760000D03*
%TO.P,U1,8,A4*%
%TO.N,/A4*%
X81280000Y-114300000D03*
%TO.P,U1,9,A3*%
%TO.N,/A3*%
X81280000Y-116840000D03*
%TO.P,U1,10,A2*%
%TO.N,/A2*%
X81280000Y-119380000D03*
%TO.P,U1,11,A1*%
%TO.N,/A1*%
X81280000Y-121920000D03*
%TO.P,U1,12,A0*%
%TO.N,/A0*%
X81280000Y-124460000D03*
%TO.P,U1,13,D0*%
%TO.N,Net-(U1-D0)*%
X81280000Y-127000000D03*
%TO.P,U1,14,D1*%
%TO.N,Net-(U1-D1)*%
X81280000Y-129540000D03*
%TO.P,U1,15,D2*%
%TO.N,Net-(U1-D2)*%
X81280000Y-132080000D03*
%TO.P,U1,16,GND*%
%TO.N,GND*%
X81280000Y-134620000D03*
%TO.P,U1,17,D3*%
%TO.N,Net-(U1-D3)*%
X96520000Y-134620000D03*
%TO.P,U1,18,D4*%
%TO.N,Net-(U1-D4)*%
X96520000Y-132080000D03*
%TO.P,U1,19,D5*%
%TO.N,Net-(U1-D5)*%
X96520000Y-129540000D03*
%TO.P,U1,20,D6*%
%TO.N,Net-(U1-D6)*%
X96520000Y-127000000D03*
%TO.P,U1,21,D7*%
%TO.N,Net-(U1-D7)*%
X96520000Y-124460000D03*
%TO.P,U1,22,CE*%
%TO.N,GND*%
X96520000Y-121920000D03*
%TO.P,U1,23,A10*%
X96520000Y-119380000D03*
%TO.P,U1,24,OE*%
X96520000Y-116840000D03*
%TO.P,U1,25,A11*%
X96520000Y-114300000D03*
%TO.P,U1,26,A9*%
X96520000Y-111760000D03*
%TO.P,U1,27,A8*%
%TO.N,Net-(Q3-S)*%
X96520000Y-109220000D03*
%TO.P,U1,28,A13*%
%TO.N,GND*%
X96520000Y-106680000D03*
%TO.P,U1,29,A14*%
X96520000Y-104140000D03*
%TO.P,U1,30,NC*%
%TO.N,unconnected-(U1-NC-Pad30)*%
X96520000Y-101600000D03*
%TO.P,U1,31,PGM*%
%TO.N,+5V*%
X96520000Y-99060000D03*
%TO.P,U1,32,VCC*%
X96520000Y-96520000D03*
%TD*%
D12*
%TO.P,U4,1,E*%
%TO.N,Net-(U4-E)*%
X88265000Y-157480000D03*
%TO.P,U4,2,F*%
%TO.N,Net-(U4-F)*%
X88265000Y-154940000D03*
%TO.P,U4,3,G*%
%TO.N,Net-(U4-G)*%
X88265000Y-152400000D03*
%TO.P,U4,4,NC*%
%TO.N,unconnected-(U4-NC-Pad4)*%
X88265000Y-149860000D03*
%TO.P,U4,5,D*%
%TO.N,Net-(U4-D)*%
X88265000Y-147320000D03*
%TO.P,U4,6,CC*%
%TO.N,Net-(Q3-S)*%
X80645000Y-147320000D03*
%TO.P,U4,7,DP*%
%TO.N,Net-(U4-DP)*%
X80645000Y-149860000D03*
%TO.P,U4,8,C*%
%TO.N,Net-(U4-C)*%
X80645000Y-152400000D03*
%TO.P,U4,9,B*%
%TO.N,Net-(U4-B)*%
X80645000Y-154940000D03*
%TO.P,U4,10,A*%
%TO.N,Net-(U4-A)*%
X80645000Y-157480000D03*
%TD*%
D10*
%TO.P,R16,1*%
%TO.N,Net-(Q2-C)*%
X73025000Y-98425000D03*
%TO.P,R16,2*%
%TO.N,+5V*%
X73025000Y-95885000D03*
%TD*%
%TO.P,R6,1*%
%TO.N,Net-(U1-D5)*%
X95885000Y-140335000D03*
%TO.P,R6,2*%
%TO.N,Net-(U4-F)*%
X95885000Y-142875000D03*
%TD*%
D21*
%TO.P,Q4,1,G*%
%TO.N,SW_BUS_LED*%
X71120000Y-124460000D03*
D22*
%TO.P,Q4,2,D*%
%TO.N,Net-(Q1-D)*%
X71120000Y-127000000D03*
%TO.P,Q4,3,S*%
%TO.N,GND*%
X71120000Y-129540000D03*
%TD*%
D11*
%TO.P,C9,1*%
%TO.N,+5V*%
X138430000Y-92710000D03*
%TO.P,C9,2*%
%TO.N,GND*%
X133430000Y-92710000D03*
%TD*%
D10*
%TO.P,R34,1*%
%TO.N,Net-(U9-D3)*%
X138430000Y-140385000D03*
%TO.P,R34,2*%
%TO.N,Net-(U10-D)*%
X138430000Y-142925000D03*
%TD*%
%TO.P,R19,1*%
%TO.N,Net-(U6-D1)*%
X106680000Y-140335000D03*
%TO.P,R19,2*%
%TO.N,Net-(U7-B)*%
X106680000Y-142875000D03*
%TD*%
%TO.P,R25,1*%
%TO.N,Net-(U6-D7)*%
X101600000Y-140335000D03*
%TO.P,R25,2*%
%TO.N,Net-(U7-DP)*%
X101600000Y-142875000D03*
%TD*%
%TO.P,R22,1*%
%TO.N,Net-(U6-D4)*%
X114285000Y-140335000D03*
%TO.P,R22,2*%
%TO.N,Net-(U7-E)*%
X114285000Y-142875000D03*
%TD*%
%TO.P,R9,1*%
%TO.N,+5V*%
X68530000Y-85090000D03*
%TO.P,R9,2*%
%TO.N,Net-(U2-DIS)*%
X65990000Y-85090000D03*
%TD*%
%TO.P,R21,1*%
%TO.N,Net-(U6-D3)*%
X111745000Y-140335000D03*
%TO.P,R21,2*%
%TO.N,Net-(U7-D)*%
X111745000Y-142875000D03*
%TD*%
%TO.P,R4,1*%
%TO.N,Net-(U1-D3)*%
X90805000Y-140335000D03*
%TO.P,R4,2*%
%TO.N,Net-(U4-D)*%
X90805000Y-142875000D03*
%TD*%
%TO.P,R30,1*%
%TO.N,Net-(D4-K)*%
X158040000Y-156845000D03*
%TO.P,R30,2*%
%TO.N,Net-(Q1-D)*%
X158040000Y-159385000D03*
%TD*%
%TO.P,R24,1*%
%TO.N,Net-(U6-D6)*%
X119365000Y-140335000D03*
%TO.P,R24,2*%
%TO.N,Net-(U7-G)*%
X119365000Y-142875000D03*
%TD*%
D11*
%TO.P,C4,1*%
%TO.N,Net-(U3-THR)*%
X150815000Y-110015000D03*
%TO.P,C4,2*%
%TO.N,GND*%
X150815000Y-115015000D03*
%TD*%
D14*
%TO.P,U2,1,GND*%
%TO.N,GND*%
X71120000Y-77470000D03*
D11*
%TO.P,U2,2,TR*%
%TO.N,Net-(U2-THR)*%
X71120000Y-80010000D03*
%TO.P,U2,3,Q*%
%TO.N,Net-(U2-Q)*%
X71120000Y-82550000D03*
%TO.P,U2,4,R*%
%TO.N,+5V*%
X71120000Y-85090000D03*
%TO.P,U2,5,CV*%
%TO.N,Net-(U2-CV)*%
X78740000Y-85090000D03*
%TO.P,U2,6,THR*%
%TO.N,Net-(U2-THR)*%
X78740000Y-82550000D03*
%TO.P,U2,7,DIS*%
%TO.N,Net-(U2-DIS)*%
X78740000Y-80010000D03*
%TO.P,U2,8,VCC*%
%TO.N,+5V*%
X78740000Y-77470000D03*
%TD*%
D25*
%TO.P,Q2,1,C*%
%TO.N,Net-(Q2-C)*%
X73025000Y-101600000D03*
D26*
%TO.P,Q2,2,B*%
%TO.N,Net-(Q2-B)*%
X71755000Y-101600000D03*
%TO.P,Q2,3,E*%
%TO.N,GND*%
X70485000Y-101600000D03*
%TD*%
D10*
%TO.P,R15,1*%
%TO.N,SW_BUS_LED*%
X148275000Y-94785000D03*
%TO.P,R15,2*%
%TO.N,+5V*%
X148275000Y-97325000D03*
%TD*%
D12*
%TO.P,U11,1,E*%
%TO.N,Net-(U10-E)*%
X146050000Y-157480000D03*
%TO.P,U11,2,F*%
%TO.N,Net-(U10-F)*%
X146050000Y-154940000D03*
%TO.P,U11,3,G*%
%TO.N,Net-(U10-G)*%
X146050000Y-152400000D03*
%TO.P,U11,4,NC*%
%TO.N,unconnected-(U11-NC-Pad4)*%
X146050000Y-149860000D03*
%TO.P,U11,5,D*%
%TO.N,Net-(U10-D)*%
X146050000Y-147320000D03*
%TO.P,U11,6,CC*%
%TO.N,Net-(Q1-S)*%
X138430000Y-147320000D03*
%TO.P,U11,7,DP*%
%TO.N,Net-(U10-DP)*%
X138430000Y-149860000D03*
%TO.P,U11,8,C*%
%TO.N,Net-(U10-C)*%
X138430000Y-152400000D03*
%TO.P,U11,9,B*%
%TO.N,Net-(U10-B)*%
X138430000Y-154940000D03*
%TO.P,U11,10,A*%
%TO.N,Net-(U10-A)*%
X138430000Y-157480000D03*
%TD*%
D27*
%TO.N,/A9*%
X118745000Y-85725000D03*
%TO.N,/A5*%
X100965000Y-78105000D03*
%TO.N,/A4*%
X100330000Y-80010000D03*
%TO.N,/A11*%
X120015000Y-81915000D03*
%TO.N,/A14*%
X122555000Y-76200000D03*
%TO.N,/A0*%
X97790000Y-87630000D03*
%TO.N,/A7*%
X104140000Y-76835000D03*
%TO.N,/A12*%
X120650000Y-80010000D03*
%TO.N,/A10*%
X119381405Y-83820000D03*
%TO.N,/A3*%
X99685000Y-81915000D03*
%TO.N,/A1*%
X98425000Y-85725000D03*
%TO.N,/A8*%
X118110000Y-87630000D03*
%TO.N,/A15*%
X124460000Y-76835000D03*
%TO.N,/A13*%
X121285000Y-78105000D03*
%TO.N,/A2*%
X99060000Y-83820000D03*
%TO.N,/A6*%
X102359442Y-76200000D03*
%TO.N,Net-(Q1-D)*%
X133350000Y-160020000D03*
X92710000Y-160020000D03*
X140970000Y-160020000D03*
X104775000Y-160020000D03*
%TO.N,SW_BUS_LED*%
X123825000Y-94615000D03*
X87630000Y-94615000D03*
X118745000Y-94615000D03*
X74295000Y-121285000D03*
X108585000Y-94615000D03*
X98425000Y-94615000D03*
%TD*%
D28*
%TO.N,Net-(U2-THR)*%
X71755000Y-80010000D02*
X74295000Y-82550000D01*
X78740000Y-82550000D02*
X81360000Y-82550000D01*
X71120000Y-80010000D02*
X68530000Y-80010000D01*
X74295000Y-82550000D02*
X78740000Y-82550000D01*
X71120000Y-80010000D02*
X71755000Y-80010000D01*
%TO.N,Net-(U2-CV)*%
X80685000Y-85090000D02*
X81320000Y-85725000D01*
X78740000Y-85090000D02*
X80685000Y-85090000D01*
%TO.N,Net-(U3-THR)*%
X149689000Y-123654000D02*
X149689000Y-111141000D01*
X149689000Y-111141000D02*
X150815000Y-110015000D01*
X150815000Y-107435000D02*
X150815000Y-110015000D01*
X150815000Y-106995000D02*
X153355000Y-104455000D01*
X154585000Y-123310000D02*
X153359000Y-124536000D01*
X153359000Y-124536000D02*
X150571000Y-124536000D01*
X150815000Y-107435000D02*
X150815000Y-106995000D01*
X150571000Y-124536000D02*
X149689000Y-123654000D01*
X153355000Y-104455000D02*
X153355000Y-99815000D01*
%TO.N,Net-(U3-CV)*%
X148275000Y-109420000D02*
X147640000Y-110055000D01*
X148275000Y-107435000D02*
X148275000Y-109420000D01*
%TO.N,Net-(D1-K)*%
X157165000Y-113150000D02*
X154065000Y-113150000D01*
X154065000Y-113150000D02*
X154065000Y-110735000D01*
X153355000Y-107435000D02*
X153355000Y-109925000D01*
X153355000Y-109925000D02*
X153305000Y-109975000D01*
X154065000Y-110735000D02*
X153305000Y-109975000D01*
%TO.N,Net-(D1-A)*%
X154065000Y-121330000D02*
X154065000Y-120770000D01*
X152085000Y-123310000D02*
X154065000Y-121330000D01*
%TO.N,Net-(D2-K)*%
X157165000Y-120770000D02*
X157165000Y-123230000D01*
X157165000Y-123230000D02*
X157085000Y-123310000D01*
D29*
%TO.N,Net-(D3-A)*%
X152325000Y-151405000D02*
X152685000Y-151765000D01*
X152325000Y-148590000D02*
X152325000Y-151405000D01*
%TO.N,Net-(D3-K)*%
X152960000Y-154580000D02*
X152685000Y-154305000D01*
X152960000Y-156845000D02*
X152960000Y-154580000D01*
%TO.N,Net-(D4-K)*%
X158040000Y-154305000D02*
X158040000Y-156845000D01*
%TO.N,Net-(D4-A)*%
X158040000Y-151765000D02*
X158040000Y-148665000D01*
D28*
X158040000Y-148665000D02*
X158115000Y-148590000D01*
%TO.N,/D7*%
X125095000Y-76110000D02*
X119380000Y-70395000D01*
X125095000Y-104775000D02*
X125095000Y-76110000D01*
X123190000Y-106680000D02*
X125095000Y-104775000D01*
%TO.N,/A9*%
X115570000Y-108585000D02*
X115570000Y-88900000D01*
X102235000Y-121920000D02*
X115570000Y-108585000D01*
X115570000Y-88900000D02*
X118745000Y-85725000D01*
%TO.N,/D5*%
X127635000Y-73570000D02*
X124460000Y-70395000D01*
X123190000Y-111760000D02*
X127635000Y-107315000D01*
X127635000Y-107315000D02*
X127635000Y-73570000D01*
%TO.N,/D4*%
X128905000Y-72300000D02*
X127000000Y-70395000D01*
X128905000Y-108585000D02*
X128905000Y-72300000D01*
X123190000Y-114300000D02*
X128905000Y-108585000D01*
%TO.N,/D2*%
X131445000Y-111125000D02*
X131445000Y-71030000D01*
X131445000Y-71030000D02*
X132080000Y-70395000D01*
X123190000Y-119380000D02*
X131445000Y-111125000D01*
%TO.N,/A5*%
X81280000Y-111760000D02*
X90170000Y-102870000D01*
X90170000Y-102870000D02*
X90170000Y-88900000D01*
X90170000Y-88900000D02*
X100965000Y-78105000D01*
%TO.N,/D0*%
X136525000Y-71030000D02*
X137160000Y-70395000D01*
X136525000Y-111125000D02*
X136525000Y-71030000D01*
X123190000Y-124460000D02*
X136525000Y-111125000D01*
%TO.N,/A4*%
X81280000Y-114300000D02*
X92710000Y-102870000D01*
X92710000Y-87630000D02*
X100330000Y-80010000D01*
X92710000Y-102870000D02*
X92710000Y-87630000D01*
%TO.N,RW{slash}*%
X152400000Y-140970000D02*
X158115000Y-140970000D01*
X143510000Y-119380000D02*
X143510000Y-67945000D01*
X152400000Y-128270000D02*
X143510000Y-119380000D01*
X118110000Y-69125000D02*
X116840000Y-70395000D01*
X152400000Y-140970000D02*
X152400000Y-128270000D01*
X141605000Y-66040000D02*
X119380000Y-66040000D01*
X118110000Y-67310000D02*
X118110000Y-69125000D01*
X119380000Y-66040000D02*
X118110000Y-67310000D01*
X143510000Y-67945000D02*
X141605000Y-66040000D01*
%TO.N,/A11*%
X114300000Y-87630000D02*
X120015000Y-81915000D01*
X102235000Y-116840000D02*
X114300000Y-104775000D01*
X114300000Y-104775000D02*
X114300000Y-87630000D01*
%TO.N,/A14*%
X121920000Y-76200000D02*
X122555000Y-76200000D01*
X102235000Y-109220000D02*
X110490000Y-100965000D01*
X110490000Y-100965000D02*
X110490000Y-87630000D01*
X110490000Y-87630000D02*
X121920000Y-76200000D01*
%TO.N,/A0*%
X95250000Y-110490000D02*
X95250000Y-90170000D01*
X81280000Y-124460000D02*
X95250000Y-110490000D01*
X95250000Y-90170000D02*
X97790000Y-87630000D01*
%TO.N,/D6*%
X126365000Y-106045000D02*
X126365000Y-74840000D01*
X126365000Y-74840000D02*
X121920000Y-70395000D01*
X123190000Y-109220000D02*
X126365000Y-106045000D01*
%TO.N,/A7*%
X101972892Y-75574000D02*
X102879000Y-75574000D01*
X81280000Y-106680000D02*
X88900000Y-99060000D01*
X102879000Y-75574000D02*
X104140000Y-76835000D01*
X88900000Y-99060000D02*
X88900000Y-88646892D01*
X88900000Y-88646892D02*
X101972892Y-75574000D01*
%TO.N,+5V*%
X68530000Y-85090000D02*
X71120000Y-85090000D01*
D29*
X155895000Y-109925000D02*
X155845000Y-109975000D01*
X96520000Y-96520000D02*
X96520000Y-99060000D01*
X78740000Y-77470000D02*
X78740000Y-73700000D01*
X155895000Y-107435000D02*
X159705000Y-107435000D01*
X117475000Y-96520000D02*
X117475000Y-99060000D01*
X78740000Y-73700000D02*
X78700000Y-73660000D01*
D28*
X148275000Y-99815000D02*
X148275000Y-97325000D01*
D30*
X138430000Y-92710000D02*
X138430000Y-96520000D01*
D29*
X152325000Y-146050000D02*
X158115000Y-146050000D01*
X96520000Y-92710000D02*
X96520000Y-96520000D01*
X117475000Y-92710000D02*
X117475000Y-96520000D01*
X155895000Y-107435000D02*
X155895000Y-109925000D01*
D28*
%TO.N,/A12*%
X113665000Y-102870000D02*
X113665000Y-86995000D01*
X113665000Y-86995000D02*
X120650000Y-80010000D01*
X102235000Y-114300000D02*
X113665000Y-102870000D01*
%TO.N,/A10*%
X114935000Y-88265000D02*
X119380000Y-83820000D01*
X114935000Y-106680000D02*
X114935000Y-88265000D01*
X119380000Y-83820000D02*
X119381405Y-83820000D01*
X102235000Y-119380000D02*
X114935000Y-106680000D01*
%TO.N,/A3*%
X93345000Y-104775000D02*
X81280000Y-116840000D01*
X93345000Y-88255000D02*
X93345000Y-104775000D01*
X99685000Y-81915000D02*
X93345000Y-88255000D01*
%TO.N,/D1*%
X135255000Y-71030000D02*
X134620000Y-70395000D01*
X123190000Y-121920000D02*
X135255000Y-109855000D01*
X135255000Y-109855000D02*
X135255000Y-71030000D01*
%TO.N,/A1*%
X98425000Y-85725000D02*
X94615000Y-89535000D01*
X94615000Y-108585000D02*
X81280000Y-121920000D01*
X94615000Y-89535000D02*
X94615000Y-108585000D01*
%TO.N,/D3*%
X123190000Y-116840000D02*
X130175000Y-109855000D01*
X130175000Y-71030000D02*
X129540000Y-70395000D01*
X130175000Y-109855000D02*
X130175000Y-71030000D01*
%TO.N,/A8*%
X116205000Y-89535000D02*
X118110000Y-87630000D01*
X116205000Y-110490000D02*
X116205000Y-89535000D01*
X102235000Y-124460000D02*
X116205000Y-110490000D01*
%TO.N,/A15*%
X109855000Y-86995000D02*
X121276000Y-75574000D01*
X123199000Y-75574000D02*
X124460000Y-76835000D01*
X102235000Y-106680000D02*
X109855000Y-99060000D01*
X121276000Y-75574000D02*
X123199000Y-75574000D01*
X109855000Y-99060000D02*
X109855000Y-86995000D01*
%TO.N,/A13*%
X102235000Y-111760000D02*
X111125000Y-102870000D01*
X111125000Y-102870000D02*
X111125000Y-88265000D01*
X111125000Y-88265000D02*
X121285000Y-78105000D01*
%TO.N,/A2*%
X81280000Y-119380000D02*
X93980000Y-106680000D01*
X93980000Y-88900000D02*
X99060000Y-83820000D01*
X93980000Y-106680000D02*
X93980000Y-88900000D01*
%TO.N,/A6*%
X89535000Y-88649702D02*
X101984702Y-76200000D01*
X101984702Y-76200000D02*
X102359442Y-76200000D01*
X81280000Y-109220000D02*
X89535000Y-100965000D01*
X89535000Y-100965000D02*
X89535000Y-88649702D01*
D31*
%TO.N,Net-(Q1-S)*%
X89535000Y-148590000D02*
X90805000Y-147320000D01*
X111760000Y-147320000D02*
X113030000Y-148590000D01*
X90805000Y-147320000D02*
X92075000Y-148590000D01*
X71120000Y-154940000D02*
X77470000Y-148590000D01*
X113030000Y-148590000D02*
X137160000Y-148590000D01*
X77470000Y-148590000D02*
X89535000Y-148590000D01*
X92075000Y-148590000D02*
X110490000Y-148590000D01*
X137160000Y-148590000D02*
X138430000Y-147320000D01*
X110490000Y-148590000D02*
X111760000Y-147320000D01*
D29*
%TO.N,Net-(Q1-D)*%
X71755000Y-160020000D02*
X68580000Y-156845000D01*
X104775000Y-160020000D02*
X133350000Y-160020000D01*
X92710000Y-160020000D02*
X71755000Y-160020000D01*
X140970000Y-160020000D02*
X152325000Y-160020000D01*
X68580000Y-156845000D02*
X68580000Y-154940000D01*
X68580000Y-154940000D02*
X71120000Y-152400000D01*
X158040000Y-159385000D02*
X152960000Y-159385000D01*
D28*
%TO.N,Net-(Q1-G)*%
X67945000Y-149860000D02*
X71120000Y-149860000D01*
%TO.N,Net-(Q2-C)*%
X73025000Y-130810000D02*
X73025000Y-101600000D01*
X69165000Y-134670000D02*
X73025000Y-130810000D01*
X73025000Y-101600000D02*
X73025000Y-98425000D01*
X67945000Y-134670000D02*
X69165000Y-134670000D01*
%TO.N,Net-(Q2-B)*%
X70485000Y-98425000D02*
X71755000Y-99695000D01*
X71755000Y-99695000D02*
X71755000Y-101600000D01*
D31*
%TO.N,Net-(Q3-S)*%
X99637854Y-145357854D02*
X101600000Y-147320000D01*
X101600000Y-147320000D02*
X103562146Y-145357854D01*
X71120000Y-142240000D02*
X75565000Y-142240000D01*
X82607146Y-145357854D02*
X99637854Y-145357854D01*
X75565000Y-142240000D02*
X80645000Y-147320000D01*
X103562146Y-145357854D02*
X126307854Y-145357854D01*
X126307854Y-145357854D02*
X128270000Y-147320000D01*
X80645000Y-147320000D02*
X82607146Y-145357854D01*
D28*
%TO.N,Net-(Q3-G)*%
X67945000Y-137160000D02*
X71120000Y-137160000D01*
%TO.N,SW_BUS_LED*%
X98425000Y-94615000D02*
X108585000Y-94615000D01*
X79375000Y-116205000D02*
X74295000Y-121285000D01*
X67945000Y-124510000D02*
X71070000Y-124510000D01*
X150815000Y-94735000D02*
X148325000Y-94735000D01*
X118745000Y-94615000D02*
X123825000Y-94615000D01*
X79375000Y-95885000D02*
X79375000Y-116205000D01*
X71070000Y-124510000D02*
X71120000Y-124460000D01*
X87630000Y-94615000D02*
X80645000Y-94615000D01*
X148325000Y-94735000D02*
X148275000Y-94785000D01*
X80645000Y-94615000D02*
X79375000Y-95885000D01*
%TO.N,Net-(Q5-B)*%
X151249000Y-146901000D02*
X151668000Y-147320000D01*
X151668000Y-147320000D02*
X152325000Y-147320000D01*
X152400000Y-143510000D02*
X151249000Y-144661000D01*
X151249000Y-144661000D02*
X151249000Y-146901000D01*
%TO.N,Net-(Q6-B)*%
X159191000Y-146469000D02*
X158340000Y-147320000D01*
X158115000Y-143510000D02*
X159191000Y-144586000D01*
X158340000Y-147320000D02*
X158115000Y-147320000D01*
X159191000Y-144586000D02*
X159191000Y-146469000D01*
%TO.N,Net-(U1-D0)*%
X88265000Y-140335000D02*
X88265000Y-133985000D01*
X88265000Y-133985000D02*
X81280000Y-127000000D01*
%TO.N,Net-(U4-A)*%
X89535000Y-158750000D02*
X90805000Y-157480000D01*
X81915000Y-158750000D02*
X89535000Y-158750000D01*
X80645000Y-157480000D02*
X81915000Y-158750000D01*
%TO.N,Net-(U1-D1)*%
X85725000Y-140335000D02*
X85725000Y-133985000D01*
X85725000Y-133985000D02*
X81280000Y-129540000D01*
%TO.N,Net-(U4-B)*%
X81915000Y-156210000D02*
X80645000Y-154940000D01*
X90805000Y-154940000D02*
X90170000Y-154940000D01*
X90170000Y-154940000D02*
X89351000Y-155759000D01*
X88897190Y-156210000D02*
X81915000Y-156210000D01*
X89351000Y-155759000D02*
X89348190Y-155759000D01*
X89348190Y-155759000D02*
X88897190Y-156210000D01*
%TO.N,Net-(U4-C)*%
X88704562Y-153670000D02*
X81915000Y-153670000D01*
X89974562Y-152400000D02*
X88704562Y-153670000D01*
X81915000Y-153670000D02*
X80645000Y-152400000D01*
X90805000Y-152400000D02*
X89974562Y-152400000D01*
%TO.N,Net-(U1-D2)*%
X83185000Y-140335000D02*
X83185000Y-133985000D01*
X83185000Y-133985000D02*
X81280000Y-132080000D01*
%TO.N,Net-(U4-D)*%
X97155000Y-146050000D02*
X98425000Y-147320000D01*
X88265000Y-147320000D02*
X89535000Y-146050000D01*
X89535000Y-146050000D02*
X97155000Y-146050000D01*
%TO.N,Net-(U1-D3)*%
X90805000Y-140335000D02*
X96520000Y-134620000D01*
%TO.N,Net-(U4-E)*%
X97155000Y-156210000D02*
X98425000Y-157480000D01*
X89535000Y-156210000D02*
X97155000Y-156210000D01*
X88265000Y-157480000D02*
X89535000Y-156210000D01*
%TO.N,Net-(U1-D4)*%
X93345000Y-140335000D02*
X98425000Y-135255000D01*
X98425000Y-135255000D02*
X98425000Y-133985000D01*
X98425000Y-133985000D02*
X96520000Y-132080000D01*
%TO.N,Net-(U1-D5)*%
X99060000Y-132080000D02*
X96520000Y-129540000D01*
X95885000Y-140335000D02*
X99060000Y-137160000D01*
X99060000Y-137160000D02*
X99060000Y-132080000D01*
%TO.N,Net-(U4-F)*%
X89535000Y-153670000D02*
X97155000Y-153670000D01*
X97155000Y-153670000D02*
X98425000Y-154940000D01*
X88265000Y-154940000D02*
X89535000Y-153670000D01*
%TO.N,Net-(U4-G)*%
X97155000Y-151130000D02*
X98425000Y-152400000D01*
X88265000Y-152400000D02*
X89535000Y-151130000D01*
X89535000Y-151130000D02*
X97155000Y-151130000D01*
%TO.N,Net-(U1-D6)*%
X99695000Y-130175000D02*
X96520000Y-127000000D01*
X98425000Y-140335000D02*
X99695000Y-139065000D01*
X99695000Y-139065000D02*
X99695000Y-130175000D01*
%TO.N,Net-(U4-DP)*%
X90805000Y-149860000D02*
X90167190Y-149860000D01*
X81915000Y-151130000D02*
X80645000Y-149860000D01*
X88897190Y-151130000D02*
X81915000Y-151130000D01*
X90167190Y-149860000D02*
X88897190Y-151130000D01*
%TO.N,Net-(U1-D7)*%
X79375000Y-139065000D02*
X79375000Y-126365000D01*
X79375000Y-126365000D02*
X80010000Y-125730000D01*
X80010000Y-125730000D02*
X95250000Y-125730000D01*
X80645000Y-140335000D02*
X79375000Y-139065000D01*
X95250000Y-125730000D02*
X96520000Y-124460000D01*
%TO.N,Net-(U2-DIS)*%
X77326000Y-78596000D02*
X67404000Y-78596000D01*
X67404000Y-78596000D02*
X65990000Y-80010000D01*
X78740000Y-80010000D02*
X77326000Y-78596000D01*
X65990000Y-80010000D02*
X65990000Y-85090000D01*
%TO.N,Net-(U2-Q)*%
X67945000Y-147320000D02*
X66675000Y-146050000D01*
X66675000Y-146050000D02*
X66675000Y-99695000D01*
X72246000Y-83676000D02*
X72246000Y-94124000D01*
X66675000Y-99695000D02*
X70485000Y-95885000D01*
X71120000Y-82550000D02*
X72246000Y-83676000D01*
X72246000Y-94124000D02*
X70485000Y-95885000D01*
%TO.N,Net-(U3-Q)*%
X150815000Y-97275000D02*
X150815000Y-99815000D01*
%TO.N,Net-(U7-A)*%
X102870000Y-158750000D02*
X110490000Y-158750000D01*
X110490000Y-158750000D02*
X111760000Y-157480000D01*
X101600000Y-157480000D02*
X102870000Y-158750000D01*
%TO.N,Net-(U6-D0)*%
X109220000Y-140335000D02*
X109220000Y-133985000D01*
X109220000Y-133985000D02*
X102235000Y-127000000D01*
%TO.N,Net-(U6-D1)*%
X106680000Y-133985000D02*
X102235000Y-129540000D01*
X106680000Y-140335000D02*
X106680000Y-133985000D01*
%TO.N,Net-(U7-B)*%
X111760000Y-154940000D02*
X111125000Y-154940000D01*
X111125000Y-154940000D02*
X110306000Y-155759000D01*
X102870000Y-156210000D02*
X101600000Y-154940000D01*
X110303190Y-155759000D02*
X109852190Y-156210000D01*
X110306000Y-155759000D02*
X110303190Y-155759000D01*
X109852190Y-156210000D02*
X102870000Y-156210000D01*
%TO.N,Net-(U6-D2)*%
X102235000Y-132080000D02*
X104140000Y-133985000D01*
X104140000Y-133985000D02*
X104140000Y-140335000D01*
%TO.N,Net-(U7-C)*%
X110929562Y-152400000D02*
X109659562Y-153670000D01*
X102870000Y-153670000D02*
X101600000Y-152400000D01*
X109659562Y-153670000D02*
X102870000Y-153670000D01*
X111760000Y-152400000D02*
X110929562Y-152400000D01*
%TO.N,Net-(U7-D)*%
X110490000Y-146050000D02*
X118110000Y-146050000D01*
X109220000Y-147320000D02*
X110490000Y-146050000D01*
X118110000Y-146050000D02*
X119380000Y-147320000D01*
%TO.N,Net-(U6-D3)*%
X117460000Y-134620000D02*
X117475000Y-134620000D01*
X111745000Y-140335000D02*
X117460000Y-134620000D01*
%TO.N,Net-(U6-D4)*%
X119380000Y-135240000D02*
X119380000Y-133985000D01*
X119380000Y-133985000D02*
X117475000Y-132080000D01*
X114285000Y-140335000D02*
X119380000Y-135240000D01*
%TO.N,Net-(U7-E)*%
X110490000Y-156210000D02*
X118110000Y-156210000D01*
X118110000Y-156210000D02*
X119380000Y-157480000D01*
X109220000Y-157480000D02*
X110490000Y-156210000D01*
%TO.N,Net-(U7-F)*%
X110490000Y-153670000D02*
X118110000Y-153670000D01*
X109220000Y-154940000D02*
X110490000Y-153670000D01*
X118110000Y-153670000D02*
X119380000Y-154940000D01*
%TO.N,Net-(U6-D5)*%
X116825000Y-140335000D02*
X120015000Y-137145000D01*
X120015000Y-137145000D02*
X120015000Y-132080000D01*
X120015000Y-132080000D02*
X117475000Y-129540000D01*
%TO.N,Net-(U6-D6)*%
X119365000Y-140335000D02*
X120650000Y-139050000D01*
X120650000Y-130175000D02*
X117475000Y-127000000D01*
X120650000Y-139050000D02*
X120650000Y-130175000D01*
%TO.N,Net-(U7-G)*%
X109220000Y-152400000D02*
X110490000Y-151130000D01*
X110490000Y-151130000D02*
X118110000Y-151130000D01*
X118110000Y-151130000D02*
X119380000Y-152400000D01*
%TO.N,Net-(U6-D7)*%
X100330000Y-126365000D02*
X100965000Y-125730000D01*
X116205000Y-125730000D02*
X117475000Y-124460000D01*
X101600000Y-140335000D02*
X100330000Y-139065000D01*
X100330000Y-139065000D02*
X100330000Y-126365000D01*
X100965000Y-125730000D02*
X116205000Y-125730000D01*
%TO.N,Net-(U7-DP)*%
X111122190Y-149860000D02*
X109852190Y-151130000D01*
X102870000Y-151130000D02*
X101600000Y-149860000D01*
X111760000Y-149860000D02*
X111122190Y-149860000D01*
X109852190Y-151130000D02*
X102870000Y-151130000D01*
%TO.N,Net-(U9-D0)*%
X123190000Y-127635000D02*
X123190000Y-127000000D01*
X135890000Y-140335000D02*
X123190000Y-127635000D01*
%TO.N,Net-(U10-A)*%
X128270000Y-157480000D02*
X129540000Y-158750000D01*
X137160000Y-158750000D02*
X138430000Y-157480000D01*
X129540000Y-158750000D02*
X137160000Y-158750000D01*
%TO.N,Net-(U9-D1)*%
X133350000Y-140385000D02*
X123190000Y-130225000D01*
X123190000Y-130225000D02*
X123190000Y-129540000D01*
%TO.N,Net-(U10-B)*%
X136973190Y-155759000D02*
X136522190Y-156210000D01*
X138430000Y-154940000D02*
X137795000Y-154940000D01*
X136976000Y-155759000D02*
X136973190Y-155759000D01*
X129540000Y-156210000D02*
X128270000Y-154940000D01*
X136522190Y-156210000D02*
X129540000Y-156210000D01*
X137795000Y-154940000D02*
X136976000Y-155759000D01*
%TO.N,Net-(U9-D2)*%
X123190000Y-132715000D02*
X123190000Y-132080000D01*
X130810000Y-140335000D02*
X123190000Y-132715000D01*
%TO.N,Net-(U10-C)*%
X138430000Y-152400000D02*
X137599562Y-152400000D01*
X129540000Y-153670000D02*
X128270000Y-152400000D01*
X136329562Y-153670000D02*
X129540000Y-153670000D01*
X137599562Y-152400000D02*
X136329562Y-153670000D01*
%TO.N,Net-(U9-D3)*%
X138430000Y-140385000D02*
X138430000Y-134620000D01*
%TO.N,Net-(U10-D)*%
X135890000Y-147320000D02*
X137160000Y-146050000D01*
X144780000Y-146050000D02*
X146050000Y-147320000D01*
X137160000Y-146050000D02*
X144780000Y-146050000D01*
%TO.N,Net-(U9-D4)*%
X140970000Y-134620000D02*
X138430000Y-132080000D01*
X140970000Y-140385000D02*
X140970000Y-134620000D01*
%TO.N,Net-(U10-E)*%
X135890000Y-157480000D02*
X137160000Y-156210000D01*
X137160000Y-156210000D02*
X144780000Y-156210000D01*
X144780000Y-156210000D02*
X146050000Y-157480000D01*
%TO.N,Net-(U10-F)*%
X144780000Y-153670000D02*
X146050000Y-154940000D01*
X135890000Y-154940000D02*
X137160000Y-153670000D01*
X137160000Y-153670000D02*
X144780000Y-153670000D01*
%TO.N,Net-(U9-D5)*%
X143510000Y-140385000D02*
X143510000Y-134620000D01*
X143510000Y-134620000D02*
X138430000Y-129540000D01*
%TO.N,Net-(U10-G)*%
X137160000Y-151130000D02*
X144780000Y-151130000D01*
X135890000Y-152400000D02*
X137160000Y-151130000D01*
X144780000Y-151130000D02*
X146050000Y-152400000D01*
%TO.N,Net-(U9-D6)*%
X146050000Y-134620000D02*
X138430000Y-127000000D01*
X146050000Y-140385000D02*
X146050000Y-134620000D01*
%TO.N,Net-(U9-D7)*%
X128270000Y-140335000D02*
X126365000Y-140335000D01*
X137160000Y-125730000D02*
X138430000Y-124460000D01*
X126365000Y-140335000D02*
X121285000Y-135255000D01*
X121285000Y-126365000D02*
X121920000Y-125730000D01*
X121920000Y-125730000D02*
X137160000Y-125730000D01*
X121285000Y-135255000D02*
X121285000Y-126365000D01*
%TO.N,Net-(U10-DP)*%
X138430000Y-149860000D02*
X137792190Y-149860000D01*
X137792190Y-149860000D02*
X136522190Y-151130000D01*
X136522190Y-151130000D02*
X129540000Y-151130000D01*
X129540000Y-151130000D02*
X128270000Y-149860000D01*
%TD*%
D32*
X118745000Y-85725000D03*
X100965000Y-78105000D03*
X100330000Y-80010000D03*
X120015000Y-81915000D03*
X122555000Y-76200000D03*
X97790000Y-87630000D03*
X104140000Y-76835000D03*
X120650000Y-80010000D03*
X119381405Y-83820000D03*
X99685000Y-81915000D03*
X98425000Y-85725000D03*
X118110000Y-87630000D03*
X124460000Y-76835000D03*
X121285000Y-78105000D03*
X99060000Y-83820000D03*
X102359442Y-76200000D03*
X133350000Y-160020000D03*
X92710000Y-160020000D03*
X140970000Y-160020000D03*
X104775000Y-160020000D03*
X123825000Y-94615000D03*
X87630000Y-94615000D03*
X118745000Y-94615000D03*
X74295000Y-121285000D03*
X108585000Y-94615000D03*
X98425000Y-94615000D03*
D33*
X146050000Y-140385000D03*
X146050000Y-142925000D03*
X159705000Y-107435000D03*
X159705000Y-102435000D03*
X68530000Y-80010000D03*
X65990000Y-80010000D03*
X73700000Y-73660000D03*
X78700000Y-73660000D03*
X150815000Y-97275000D03*
X150815000Y-94735000D03*
X85725000Y-140335000D03*
X85725000Y-142875000D03*
X98425000Y-157480000D03*
X98425000Y-154940000D03*
X98425000Y-152400000D03*
X98425000Y-149860000D03*
X98425000Y-147320000D03*
X90805000Y-147320000D03*
X90805000Y-149860000D03*
X90805000Y-152400000D03*
X90805000Y-154940000D03*
X90805000Y-157480000D03*
X96520000Y-92710000D03*
X91520000Y-92710000D03*
X154065000Y-113150000D03*
X154065000Y-120770000D03*
X88265000Y-140335000D03*
X88265000Y-142875000D03*
X83185000Y-140335000D03*
X83185000Y-142875000D03*
X102235000Y-96520000D03*
X102235000Y-99060000D03*
X102235000Y-101600000D03*
X102235000Y-104140000D03*
X102235000Y-106680000D03*
X102235000Y-109220000D03*
X102235000Y-111760000D03*
X102235000Y-114300000D03*
X102235000Y-116840000D03*
X102235000Y-119380000D03*
X102235000Y-121920000D03*
X102235000Y-124460000D03*
X102235000Y-127000000D03*
X102235000Y-129540000D03*
X102235000Y-132080000D03*
X102235000Y-134620000D03*
X117475000Y-134620000D03*
X117475000Y-132080000D03*
X117475000Y-129540000D03*
X117475000Y-127000000D03*
X117475000Y-124460000D03*
X117475000Y-121920000D03*
X117475000Y-119380000D03*
X117475000Y-116840000D03*
X117475000Y-114300000D03*
X117475000Y-111760000D03*
X117475000Y-109220000D03*
X117475000Y-106680000D03*
X117475000Y-104140000D03*
X117475000Y-101600000D03*
X117475000Y-99060000D03*
X117475000Y-96520000D03*
X128270000Y-140335000D03*
X128270000Y-142875000D03*
X135890000Y-140335000D03*
X135890000Y-142875000D03*
X152400000Y-140970000D03*
X152400000Y-143510000D03*
X88900000Y-67855000D03*
X91440000Y-67855000D03*
X93980000Y-67855000D03*
X96520000Y-67855000D03*
X99060000Y-67855000D03*
X101600000Y-67855000D03*
X104140000Y-67855000D03*
X106680000Y-67855000D03*
X109220000Y-67855000D03*
X111760000Y-67855000D03*
X114300000Y-67855000D03*
X116840000Y-67855000D03*
X119380000Y-67855000D03*
X121920000Y-67855000D03*
X124460000Y-67855000D03*
X127000000Y-67855000D03*
X129540000Y-67855000D03*
X132080000Y-67855000D03*
X134620000Y-67855000D03*
X137160000Y-67855000D03*
X137160000Y-70395000D03*
X134620000Y-70395000D03*
X132080000Y-70395000D03*
X129540000Y-70395000D03*
X127000000Y-70395000D03*
X124460000Y-70395000D03*
X121920000Y-70395000D03*
X119380000Y-70395000D03*
X116840000Y-70395000D03*
X114300000Y-70395000D03*
X111760000Y-70395000D03*
X109220000Y-70395000D03*
X106680000Y-70395000D03*
X104140000Y-70395000D03*
X101600000Y-70395000D03*
X99060000Y-70395000D03*
X96520000Y-70395000D03*
X93980000Y-70395000D03*
X91440000Y-70395000D03*
X88900000Y-70395000D03*
X70485000Y-95885000D03*
X70485000Y-98425000D03*
X104140000Y-140335000D03*
X104140000Y-142875000D03*
X130810000Y-140335000D03*
X130810000Y-142875000D03*
X93345000Y-140335000D03*
X93345000Y-142875000D03*
X80645000Y-140335000D03*
X80645000Y-142875000D03*
X117475000Y-92710000D03*
X112475000Y-92710000D03*
X158040000Y-154305000D03*
X158040000Y-151765000D03*
X152685000Y-154305000D03*
X152685000Y-151765000D03*
X98425000Y-140335000D03*
X98425000Y-142875000D03*
X116825000Y-140335000D03*
X116825000Y-142875000D03*
X67945000Y-121970000D03*
X67945000Y-124510000D03*
X152960000Y-156845000D03*
X152960000Y-159385000D03*
X157165000Y-120770000D03*
X157165000Y-113150000D03*
X147640000Y-115055000D03*
X147640000Y-110055000D03*
X143510000Y-140385000D03*
X143510000Y-142925000D03*
X109220000Y-157480000D03*
X109220000Y-154940000D03*
X109220000Y-152400000D03*
X109220000Y-149860000D03*
X109220000Y-147320000D03*
X101600000Y-147320000D03*
X101600000Y-149860000D03*
X101600000Y-152400000D03*
X101600000Y-154940000D03*
X101600000Y-157480000D03*
D34*
X159385000Y-130810000D03*
X149785000Y-130810000D03*
D33*
X157085000Y-123310000D03*
X154585000Y-123310000D03*
X152085000Y-123310000D03*
X71120000Y-149860000D03*
X71120000Y-152400000D03*
X71120000Y-154940000D03*
X81320000Y-85725000D03*
X86320000Y-85725000D03*
X71120000Y-137160000D03*
X71120000Y-139700000D03*
X71120000Y-142240000D03*
X67945000Y-134670000D03*
X67945000Y-137210000D03*
X123190000Y-96520000D03*
X123190000Y-99060000D03*
X123190000Y-101600000D03*
X123190000Y-104140000D03*
X123190000Y-106680000D03*
X123190000Y-109220000D03*
X123190000Y-111760000D03*
X123190000Y-114300000D03*
X123190000Y-116840000D03*
X123190000Y-119380000D03*
X123190000Y-121920000D03*
X123190000Y-124460000D03*
X123190000Y-127000000D03*
X123190000Y-129540000D03*
X123190000Y-132080000D03*
X123190000Y-134620000D03*
X138430000Y-134620000D03*
X138430000Y-132080000D03*
X138430000Y-129540000D03*
X138430000Y-127000000D03*
X138430000Y-124460000D03*
X138430000Y-121920000D03*
X138430000Y-119380000D03*
X138430000Y-116840000D03*
X138430000Y-114300000D03*
X138430000Y-111760000D03*
X138430000Y-109220000D03*
X138430000Y-106680000D03*
X138430000Y-104140000D03*
X138430000Y-101600000D03*
X138430000Y-99060000D03*
X138430000Y-96520000D03*
X133350000Y-140385000D03*
X133350000Y-142925000D03*
X158115000Y-148590000D03*
X158115000Y-147320000D03*
X158115000Y-146050000D03*
X135890000Y-157480000D03*
X135890000Y-154940000D03*
X135890000Y-152400000D03*
X135890000Y-149860000D03*
X135890000Y-147320000D03*
X128270000Y-147320000D03*
X128270000Y-149860000D03*
X128270000Y-152400000D03*
X128270000Y-154940000D03*
X128270000Y-157480000D03*
X152325000Y-146050000D03*
X152325000Y-147320000D03*
X152325000Y-148590000D03*
X155895000Y-99815000D03*
X153355000Y-99815000D03*
X150815000Y-99815000D03*
X148275000Y-99815000D03*
X148275000Y-107435000D03*
X150815000Y-107435000D03*
X153355000Y-107435000D03*
X155895000Y-107435000D03*
X158115000Y-140970000D03*
X158115000Y-143510000D03*
X140970000Y-140385000D03*
X140970000Y-142925000D03*
X109220000Y-140335000D03*
X109220000Y-142875000D03*
X155845000Y-109975000D03*
X153305000Y-109975000D03*
X119380000Y-157480000D03*
X119380000Y-154940000D03*
X119380000Y-152400000D03*
X119380000Y-149860000D03*
X119380000Y-147320000D03*
X111760000Y-147320000D03*
X111760000Y-149860000D03*
X111760000Y-152400000D03*
X111760000Y-154940000D03*
X111760000Y-157480000D03*
X81360000Y-82550000D03*
X86360000Y-82550000D03*
X67945000Y-149860000D03*
X67945000Y-147320000D03*
X81280000Y-96520000D03*
X81280000Y-99060000D03*
X81280000Y-101600000D03*
X81280000Y-104140000D03*
X81280000Y-106680000D03*
X81280000Y-109220000D03*
X81280000Y-111760000D03*
X81280000Y-114300000D03*
X81280000Y-116840000D03*
X81280000Y-119380000D03*
X81280000Y-121920000D03*
X81280000Y-124460000D03*
X81280000Y-127000000D03*
X81280000Y-129540000D03*
X81280000Y-132080000D03*
X81280000Y-134620000D03*
X96520000Y-134620000D03*
X96520000Y-132080000D03*
X96520000Y-129540000D03*
X96520000Y-127000000D03*
X96520000Y-124460000D03*
X96520000Y-121920000D03*
X96520000Y-119380000D03*
X96520000Y-116840000D03*
X96520000Y-114300000D03*
X96520000Y-111760000D03*
X96520000Y-109220000D03*
X96520000Y-106680000D03*
X96520000Y-104140000D03*
X96520000Y-101600000D03*
X96520000Y-99060000D03*
X96520000Y-96520000D03*
X88265000Y-157480000D03*
X88265000Y-154940000D03*
X88265000Y-152400000D03*
X88265000Y-149860000D03*
X88265000Y-147320000D03*
X80645000Y-147320000D03*
X80645000Y-149860000D03*
X80645000Y-152400000D03*
X80645000Y-154940000D03*
X80645000Y-157480000D03*
X73025000Y-98425000D03*
X73025000Y-95885000D03*
X95885000Y-140335000D03*
X95885000Y-142875000D03*
X71120000Y-124460000D03*
X71120000Y-127000000D03*
X71120000Y-129540000D03*
X138430000Y-92710000D03*
X133430000Y-92710000D03*
X138430000Y-140385000D03*
X138430000Y-142925000D03*
X106680000Y-140335000D03*
X106680000Y-142875000D03*
X101600000Y-140335000D03*
X101600000Y-142875000D03*
X114285000Y-140335000D03*
X114285000Y-142875000D03*
X68530000Y-85090000D03*
X65990000Y-85090000D03*
X111745000Y-140335000D03*
X111745000Y-142875000D03*
X90805000Y-140335000D03*
X90805000Y-142875000D03*
X158040000Y-156845000D03*
X158040000Y-159385000D03*
X119365000Y-140335000D03*
X119365000Y-142875000D03*
X150815000Y-110015000D03*
X150815000Y-115015000D03*
X71120000Y-77470000D03*
X71120000Y-80010000D03*
X71120000Y-82550000D03*
X71120000Y-85090000D03*
X78740000Y-85090000D03*
X78740000Y-82550000D03*
X78740000Y-80010000D03*
X78740000Y-77470000D03*
X73025000Y-101600000D03*
X71755000Y-101600000D03*
X70485000Y-101600000D03*
X148275000Y-94785000D03*
X148275000Y-97325000D03*
X146050000Y-157480000D03*
X146050000Y-154940000D03*
X146050000Y-152400000D03*
X146050000Y-149860000D03*
X146050000Y-147320000D03*
X138430000Y-147320000D03*
X138430000Y-149860000D03*
X138430000Y-152400000D03*
X138430000Y-154940000D03*
X138430000Y-157480000D03*
M02*
