M48
; DRILL file {KiCad 9.0.2+dfsg-1} date 2026-09-05T20:41:31+0200
; FORMAT={-:-/ absolute / metric / decimal}
; #@! TF.CreationDate,2026-09-05T20:41:31+02:00
; #@! TF.GenerationSoftware,Kicad,Pcbnew,9.0.2+dfsg-1
; #@! TF.FileFunction,Plated,1,2,PTH
FMAT,2
METRIC
; #@! TA.AperFunction,Plated,PTH,ViaDrill
T1C0.300
; #@! TA.AperFunction,Plated,PTH,ComponentDrill
T2C0.700
; #@! TA.AperFunction,Plated,PTH,ComponentDrill
T3C0.750
; #@! TA.AperFunction,Plated,PTH,ComponentDrill
T4C0.800
; #@! TA.AperFunction,Plated,PTH,ComponentDrill
T5C0.900
; #@! TA.AperFunction,Plated,PTH,ComponentDrill
T6C1.000
; #@! TA.AperFunction,Plated,PTH,ComponentDrill
T7C1.100
%
G90
G05
T1
X74.295Y-121.285
X87.63Y-94.615
X92.71Y-160.02
X97.79Y-87.63
X98.425Y-85.725
X98.425Y-94.615
X99.06Y-83.82
X99.685Y-81.915
X100.33Y-80.01
X100.965Y-78.105
X102.359Y-76.2
X104.14Y-76.835
X104.775Y-160.02
X108.585Y-94.615
X118.11Y-87.63
X118.745Y-85.725
X118.745Y-94.615
X119.381Y-83.82
X120.015Y-81.915
X120.65Y-80.01
X121.285Y-78.105
X122.555Y-76.2
X123.825Y-94.615
X124.46Y-76.835
X133.35Y-160.02
X140.97Y-160.02
T2
X65.99Y-80.01
X65.99Y-85.09
X67.945Y-121.97
X67.945Y-124.51
X67.945Y-134.67
X67.945Y-137.21
X67.945Y-147.32
X67.945Y-149.86
X68.53Y-80.01
X68.53Y-85.09
X70.485Y-95.885
X70.485Y-98.425
X73.025Y-95.885
X73.025Y-98.425
X80.645Y-140.335
X80.645Y-142.875
X83.185Y-140.335
X83.185Y-142.875
X85.725Y-140.335
X85.725Y-142.875
X88.265Y-140.335
X88.265Y-142.875
X90.805Y-140.335
X90.805Y-142.875
X93.345Y-140.335
X93.345Y-142.875
X95.885Y-140.335
X95.885Y-142.875
X98.425Y-140.335
X98.425Y-142.875
X101.6Y-140.335
X101.6Y-142.875
X104.14Y-140.335
X104.14Y-142.875
X106.68Y-140.335
X106.68Y-142.875
X109.22Y-140.335
X109.22Y-142.875
X111.745Y-140.335
X111.745Y-142.875
X114.285Y-140.335
X114.285Y-142.875
X116.825Y-140.335
X116.825Y-142.875
X119.365Y-140.335
X119.365Y-142.875
X128.27Y-140.335
X128.27Y-142.875
X130.81Y-140.335
X130.81Y-142.875
X133.35Y-140.385
X133.35Y-142.925
X135.89Y-140.335
X135.89Y-142.875
X138.43Y-140.385
X138.43Y-142.925
X140.97Y-140.385
X140.97Y-142.925
X143.51Y-140.385
X143.51Y-142.925
X146.05Y-140.385
X146.05Y-142.925
X148.275Y-94.785
X148.275Y-97.325
X150.815Y-94.735
X150.815Y-97.275
X152.4Y-140.97
X152.4Y-143.51
X152.96Y-156.845
X152.96Y-159.385
X153.305Y-109.975
X155.845Y-109.975
X158.04Y-156.845
X158.04Y-159.385
X158.115Y-140.97
X158.115Y-143.51
T3
X70.485Y-101.6
X71.755Y-101.6
X73.025Y-101.6
X152.325Y-146.05
X152.325Y-147.32
X152.325Y-148.59
X158.115Y-146.05
X158.115Y-147.32
X158.115Y-148.59
T4
X71.12Y-77.47
X71.12Y-80.01
X71.12Y-82.55
X71.12Y-85.09
X73.7Y-73.66
X78.7Y-73.66
X78.74Y-77.47
X78.74Y-80.01
X78.74Y-82.55
X78.74Y-85.09
X80.645Y-147.32
X80.645Y-149.86
X80.645Y-152.4
X80.645Y-154.94
X80.645Y-157.48
X81.28Y-96.52
X81.28Y-99.06
X81.28Y-101.6
X81.28Y-104.14
X81.28Y-106.68
X81.28Y-109.22
X81.28Y-111.76
X81.28Y-114.3
X81.28Y-116.84
X81.28Y-119.38
X81.28Y-121.92
X81.28Y-124.46
X81.28Y-127.0
X81.28Y-129.54
X81.28Y-132.08
X81.28Y-134.62
X81.32Y-85.725
X81.36Y-82.55
X86.32Y-85.725
X86.36Y-82.55
X88.265Y-147.32
X88.265Y-149.86
X88.265Y-152.4
X88.265Y-154.94
X88.265Y-157.48
X90.805Y-147.32
X90.805Y-149.86
X90.805Y-152.4
X90.805Y-154.94
X90.805Y-157.48
X91.52Y-92.71
X96.52Y-92.71
X96.52Y-96.52
X96.52Y-99.06
X96.52Y-101.6
X96.52Y-104.14
X96.52Y-106.68
X96.52Y-109.22
X96.52Y-111.76
X96.52Y-114.3
X96.52Y-116.84
X96.52Y-119.38
X96.52Y-121.92
X96.52Y-124.46
X96.52Y-127.0
X96.52Y-129.54
X96.52Y-132.08
X96.52Y-134.62
X98.425Y-147.32
X98.425Y-149.86
X98.425Y-152.4
X98.425Y-154.94
X98.425Y-157.48
X101.6Y-147.32
X101.6Y-149.86
X101.6Y-152.4
X101.6Y-154.94
X101.6Y-157.48
X102.235Y-96.52
X102.235Y-99.06
X102.235Y-101.6
X102.235Y-104.14
X102.235Y-106.68
X102.235Y-109.22
X102.235Y-111.76
X102.235Y-114.3
X102.235Y-116.84
X102.235Y-119.38
X102.235Y-121.92
X102.235Y-124.46
X102.235Y-127.0
X102.235Y-129.54
X102.235Y-132.08
X102.235Y-134.62
X109.22Y-147.32
X109.22Y-149.86
X109.22Y-152.4
X109.22Y-154.94
X109.22Y-157.48
X111.76Y-147.32
X111.76Y-149.86
X111.76Y-152.4
X111.76Y-154.94
X111.76Y-157.48
X112.475Y-92.71
X117.475Y-92.71
X117.475Y-96.52
X117.475Y-99.06
X117.475Y-101.6
X117.475Y-104.14
X117.475Y-106.68
X117.475Y-109.22
X117.475Y-111.76
X117.475Y-114.3
X117.475Y-116.84
X117.475Y-119.38
X117.475Y-121.92
X117.475Y-124.46
X117.475Y-127.0
X117.475Y-129.54
X117.475Y-132.08
X117.475Y-134.62
X119.38Y-147.32
X119.38Y-149.86
X119.38Y-152.4
X119.38Y-154.94
X119.38Y-157.48
X123.19Y-96.52
X123.19Y-99.06
X123.19Y-101.6
X123.19Y-104.14
X123.19Y-106.68
X123.19Y-109.22
X123.19Y-111.76
X123.19Y-114.3
X123.19Y-116.84
X123.19Y-119.38
X123.19Y-121.92
X123.19Y-124.46
X123.19Y-127.0
X123.19Y-129.54
X123.19Y-132.08
X123.19Y-134.62
X128.27Y-147.32
X128.27Y-149.86
X128.27Y-152.4
X128.27Y-154.94
X128.27Y-157.48
X133.43Y-92.71
X135.89Y-147.32
X135.89Y-149.86
X135.89Y-152.4
X135.89Y-154.94
X135.89Y-157.48
X138.43Y-92.71
X138.43Y-96.52
X138.43Y-99.06
X138.43Y-101.6
X138.43Y-104.14
X138.43Y-106.68
X138.43Y-109.22
X138.43Y-111.76
X138.43Y-114.3
X138.43Y-116.84
X138.43Y-119.38
X138.43Y-121.92
X138.43Y-124.46
X138.43Y-127.0
X138.43Y-129.54
X138.43Y-132.08
X138.43Y-134.62
X138.43Y-147.32
X138.43Y-149.86
X138.43Y-152.4
X138.43Y-154.94
X138.43Y-157.48
X146.05Y-147.32
X146.05Y-149.86
X146.05Y-152.4
X146.05Y-154.94
X146.05Y-157.48
X147.64Y-110.055
X147.64Y-115.055
X148.275Y-99.815
X148.275Y-107.435
X150.815Y-99.815
X150.815Y-107.435
X150.815Y-110.015
X150.815Y-115.015
X153.355Y-99.815
X153.355Y-107.435
X154.065Y-113.15
X154.065Y-120.77
X155.895Y-99.815
X155.895Y-107.435
X157.165Y-113.15
X157.165Y-120.77
X159.705Y-102.435
X159.705Y-107.435
T5
X152.685Y-151.765
X152.685Y-154.305
X158.04Y-151.765
X158.04Y-154.305
T6
X88.9Y-67.855
X88.9Y-70.395
X91.44Y-67.855
X91.44Y-70.395
X93.98Y-67.855
X93.98Y-70.395
X96.52Y-67.855
X96.52Y-70.395
X99.06Y-67.855
X99.06Y-70.395
X101.6Y-67.855
X101.6Y-70.395
X104.14Y-67.855
X104.14Y-70.395
X106.68Y-67.855
X106.68Y-70.395
X109.22Y-67.855
X109.22Y-70.395
X111.76Y-67.855
X111.76Y-70.395
X114.3Y-67.855
X114.3Y-70.395
X116.84Y-67.855
X116.84Y-70.395
X119.38Y-67.855
X119.38Y-70.395
X121.92Y-67.855
X121.92Y-70.395
X124.46Y-67.855
X124.46Y-70.395
X127.0Y-67.855
X127.0Y-70.395
X129.54Y-67.855
X129.54Y-70.395
X132.08Y-67.855
X132.08Y-70.395
X134.62Y-67.855
X134.62Y-70.395
X137.16Y-67.855
X137.16Y-70.395
X152.085Y-123.31
X154.585Y-123.31
X157.085Y-123.31
T7
X71.12Y-124.46
X71.12Y-127.0
X71.12Y-129.54
X71.12Y-137.16
X71.12Y-139.7
X71.12Y-142.24
X71.12Y-149.86
X71.12Y-152.4
X71.12Y-154.94
T7
X149.785Y-130.46G85X149.785Y-131.16
G05
X159.385Y-130.46G85X159.385Y-131.16
G05
M30
