%TF.GenerationSoftware,KiCad,Pcbnew,9.0.2+dfsg-1*%
%TF.CreationDate,2026-09-04T21:04:28+02:00*%
%TF.ProjectId,power-card,706f7765-722d-4636-9172-642e6b696361,rev?*%
%TF.SameCoordinates,Original*%
%TF.FileFunction,Drillmap*%
%TF.FilePolarity,Positive*%
%FSLAX45Y45*%
G04 Gerber Fmt 4.5, Leading zero omitted, Abs format (unit mm)*
G04 Created by KiCad (PCBNEW 9.0.2+dfsg-1) date 2026-09-04 21:04:28*
%MOMM*%
%LPD*%
G01*
G04 APERTURE LIST*
%ADD10C,0.050000*%
%ADD11C,0.200000*%
%ADD12C,0.100000*%
%ADD13C,0.110000*%
%ADD14C,0.120000*%
G04 APERTURE END LIST*
D10*
X16573500Y-16319500D02*
X16573500Y-6350000D01*
X6604000Y-6350000D02*
X6604000Y-16319500D01*
X6604000Y-16319500D02*
X16573500Y-16319500D01*
X16573500Y-6350000D02*
X6604000Y-6350000D01*
D11*
D12*
X8494000Y-6843000D02*
X8524000Y-6873000D01*
X8524000Y-6843000D02*
X8494000Y-6873000D01*
X8494000Y-7224000D02*
X8524000Y-7254000D01*
X8524000Y-7224000D02*
X8494000Y-7254000D01*
X8494000Y-7605000D02*
X8524000Y-7635000D01*
X8524000Y-7605000D02*
X8494000Y-7635000D01*
X8494000Y-7986000D02*
X8524000Y-8016000D01*
X8524000Y-7986000D02*
X8494000Y-8016000D01*
X8494000Y-8367000D02*
X8524000Y-8397000D01*
X8524000Y-8367000D02*
X8494000Y-8397000D01*
X8494000Y-8748000D02*
X8524000Y-8778000D01*
X8524000Y-8748000D02*
X8494000Y-8778000D01*
X8494000Y-9129000D02*
X8524000Y-9159000D01*
X8524000Y-9129000D02*
X8494000Y-9159000D01*
X8494000Y-9510000D02*
X8524000Y-9540000D01*
X8524000Y-9510000D02*
X8494000Y-9540000D01*
X8494000Y-9891000D02*
X8524000Y-9921000D01*
X8524000Y-9891000D02*
X8494000Y-9921000D01*
X8494000Y-10272000D02*
X8524000Y-10302000D01*
X8524000Y-10272000D02*
X8494000Y-10302000D01*
X8494000Y-10653000D02*
X8524000Y-10683000D01*
X8524000Y-10653000D02*
X8494000Y-10683000D01*
X8494000Y-11034000D02*
X8524000Y-11064000D01*
X8524000Y-11034000D02*
X8494000Y-11064000D01*
X8494000Y-11415000D02*
X8524000Y-11445000D01*
X8524000Y-11415000D02*
X8494000Y-11445000D01*
X8494000Y-11796000D02*
X8524000Y-11826000D01*
X8524000Y-11796000D02*
X8494000Y-11826000D01*
X8494000Y-12177000D02*
X8524000Y-12207000D01*
X8524000Y-12177000D02*
X8494000Y-12207000D01*
X8494000Y-12558000D02*
X8524000Y-12588000D01*
X8524000Y-12558000D02*
X8494000Y-12588000D01*
X8494000Y-12939000D02*
X8524000Y-12969000D01*
X8524000Y-12939000D02*
X8494000Y-12969000D01*
X8684500Y-13320000D02*
X8714500Y-13350000D01*
X8714500Y-13320000D02*
X8684500Y-13350000D01*
X9675000Y-6970000D02*
X9705000Y-7000000D01*
X9705000Y-6970000D02*
X9675000Y-7000000D01*
X9675000Y-7351000D02*
X9705000Y-7381000D01*
X9705000Y-7351000D02*
X9675000Y-7381000D01*
X9675000Y-7732000D02*
X9705000Y-7762000D01*
X9705000Y-7732000D02*
X9675000Y-7762000D01*
X9675000Y-8113000D02*
X9705000Y-8143000D01*
X9705000Y-8113000D02*
X9675000Y-8143000D01*
X9675000Y-8494000D02*
X9705000Y-8524000D01*
X9705000Y-8494000D02*
X9675000Y-8524000D01*
X9675000Y-8875000D02*
X9705000Y-8905000D01*
X9705000Y-8875000D02*
X9675000Y-8905000D01*
X9675000Y-9256000D02*
X9705000Y-9286000D01*
X9705000Y-9256000D02*
X9675000Y-9286000D01*
X9675000Y-9637000D02*
X9705000Y-9667000D01*
X9705000Y-9637000D02*
X9675000Y-9667000D01*
X9675000Y-10018000D02*
X9705000Y-10048000D01*
X9705000Y-10018000D02*
X9675000Y-10048000D01*
X9675000Y-10399000D02*
X9705000Y-10429000D01*
X9705000Y-10399000D02*
X9675000Y-10429000D01*
X9675000Y-10780000D02*
X9705000Y-10810000D01*
X9705000Y-10780000D02*
X9675000Y-10810000D01*
X9675000Y-13447000D02*
X9705000Y-13477000D01*
X9705000Y-13447000D02*
X9675000Y-13477000D01*
X11351500Y-13637500D02*
X11381500Y-13667500D01*
X11381500Y-13637500D02*
X11351500Y-13667500D01*
X11923000Y-6843000D02*
X11953000Y-6873000D01*
X11953000Y-6843000D02*
X11923000Y-6873000D01*
X11923000Y-7224000D02*
X11953000Y-7254000D01*
X11953000Y-7224000D02*
X11923000Y-7254000D01*
X11923000Y-7605000D02*
X11953000Y-7635000D01*
X11953000Y-7605000D02*
X11923000Y-7635000D01*
X11923000Y-7986000D02*
X11953000Y-8016000D01*
X11953000Y-7986000D02*
X11923000Y-8016000D01*
X11923000Y-8367000D02*
X11953000Y-8397000D01*
X11953000Y-8367000D02*
X11923000Y-8397000D01*
X11923000Y-8748000D02*
X11953000Y-8778000D01*
X11953000Y-8748000D02*
X11923000Y-8778000D01*
X11923000Y-9129000D02*
X11953000Y-9159000D01*
X11953000Y-9129000D02*
X11923000Y-9159000D01*
X11923000Y-9510000D02*
X11953000Y-9540000D01*
X11953000Y-9510000D02*
X11923000Y-9540000D01*
X11923000Y-9891000D02*
X11953000Y-9921000D01*
X11953000Y-9891000D02*
X11923000Y-9921000D01*
X11923000Y-10272000D02*
X11953000Y-10302000D01*
X11953000Y-10272000D02*
X11923000Y-10302000D01*
X11923000Y-10653000D02*
X11953000Y-10683000D01*
X11953000Y-10653000D02*
X11923000Y-10683000D01*
X11923000Y-11034000D02*
X11953000Y-11064000D01*
X11953000Y-11034000D02*
X11923000Y-11064000D01*
X11923000Y-11415000D02*
X11953000Y-11445000D01*
X11953000Y-11415000D02*
X11923000Y-11445000D01*
X11923000Y-11796000D02*
X11953000Y-11826000D01*
X11953000Y-11796000D02*
X11923000Y-11826000D01*
X11923000Y-12177000D02*
X11953000Y-12207000D01*
X11953000Y-12177000D02*
X11923000Y-12207000D01*
X11923000Y-12558000D02*
X11953000Y-12588000D01*
X11953000Y-12558000D02*
X11923000Y-12588000D01*
X11923000Y-12939000D02*
X11953000Y-12969000D01*
X11953000Y-12939000D02*
X11923000Y-12969000D01*
X11923000Y-13320000D02*
X11953000Y-13350000D01*
X11953000Y-13320000D02*
X11923000Y-13350000D01*
X11986500Y-13637500D02*
X12016500Y-13667500D01*
X12016500Y-13637500D02*
X11986500Y-13667500D01*
X13129500Y-6971000D02*
X13159500Y-7001000D01*
X13159500Y-6971000D02*
X13129500Y-7001000D01*
X13129500Y-7346100D02*
X13159500Y-7376100D01*
X13159500Y-7346100D02*
X13129500Y-7376100D01*
X13129500Y-7732000D02*
X13159500Y-7762000D01*
X13159500Y-7732000D02*
X13129500Y-7762000D01*
X13129500Y-8113000D02*
X13159500Y-8143000D01*
X13159500Y-8113000D02*
X13129500Y-8143000D01*
X13129500Y-8494000D02*
X13159500Y-8524000D01*
X13159500Y-8494000D02*
X13129500Y-8524000D01*
X13129500Y-8875000D02*
X13159500Y-8905000D01*
X13159500Y-8875000D02*
X13129500Y-8905000D01*
X13129500Y-9256000D02*
X13159500Y-9286000D01*
X13159500Y-9256000D02*
X13129500Y-9286000D01*
X13129500Y-9637000D02*
X13159500Y-9667000D01*
X13159500Y-9637000D02*
X13129500Y-9667000D01*
X13129500Y-10018000D02*
X13159500Y-10048000D01*
X13159500Y-10018000D02*
X13129500Y-10048000D01*
X13129500Y-10399000D02*
X13159500Y-10429000D01*
X13159500Y-10399000D02*
X13129500Y-10429000D01*
X13129500Y-10780000D02*
X13159500Y-10810000D01*
X13159500Y-10780000D02*
X13129500Y-10810000D01*
X13129500Y-11161000D02*
X13159500Y-11191000D01*
X13159500Y-11161000D02*
X13129500Y-11191000D01*
X13129500Y-11530366D02*
X13159500Y-11560366D01*
X13159500Y-11530366D02*
X13129500Y-11560366D01*
X13129500Y-11923000D02*
X13159500Y-11953000D01*
X13159500Y-11923000D02*
X13129500Y-11953000D01*
X13129500Y-12298500D02*
X13159500Y-12328500D01*
X13159500Y-12298500D02*
X13129500Y-12328500D01*
X13129500Y-12685000D02*
X13159500Y-12715000D01*
X13159500Y-12685000D02*
X13129500Y-12715000D01*
X13891500Y-13574000D02*
X13921500Y-13604000D01*
X13921500Y-13574000D02*
X13891500Y-13604000D01*
X14018500Y-13574000D02*
X14048500Y-13604000D01*
X14048500Y-13574000D02*
X14018500Y-13604000D01*
X14463000Y-14336000D02*
X14493000Y-14366000D01*
X14493000Y-14336000D02*
X14463000Y-14366000D01*
X14653500Y-12113500D02*
X14683500Y-12143500D01*
X14683500Y-12113500D02*
X14653500Y-12143500D01*
X14653500Y-12240500D02*
X14683500Y-12270500D01*
X14683500Y-12240500D02*
X14653500Y-12270500D01*
X15161500Y-6779500D02*
X15191500Y-6809500D01*
X15191500Y-6779500D02*
X15161500Y-6809500D01*
X15161500Y-8049500D02*
X15191500Y-8079500D01*
X15191500Y-8049500D02*
X15161500Y-8079500D01*
X15161500Y-9319500D02*
X15191500Y-9349500D01*
X15191500Y-9319500D02*
X15161500Y-9349500D01*
X15161500Y-10589500D02*
X15191500Y-10619500D01*
X15191500Y-10589500D02*
X15161500Y-10619500D01*
X15161500Y-11859500D02*
X15191500Y-11889500D01*
X15191500Y-11859500D02*
X15161500Y-11889500D01*
X15161500Y-13129500D02*
X15191500Y-13159500D01*
X15191500Y-13129500D02*
X15161500Y-13159500D01*
X6973500Y-15090500D02*
G75*
G02*
X6913500Y-15090500I-30000J0D01*
G01*
X6913500Y-15090500D02*
G75*
G02*
X6973500Y-15090500I30000J0D01*
G01*
X6973500Y-15060500D02*
X6913500Y-15060500D01*
X6913500Y-15120500D02*
G75*
G02*
X6913500Y-15060500I0J30000D01*
G01*
X6913500Y-15120500D02*
X6973500Y-15120500D01*
X6973500Y-15120500D02*
G75*
G03*
X6973500Y-15060500I0J30000D01*
G01*
X6973500Y-15954500D02*
G75*
G02*
X6913500Y-15954500I-30000J0D01*
G01*
X6913500Y-15954500D02*
G75*
G02*
X6973500Y-15954500I30000J0D01*
G01*
X6973500Y-15924500D02*
X6913500Y-15924500D01*
X6913500Y-15984500D02*
G75*
G02*
X6913500Y-15924500I0J30000D01*
G01*
X6913500Y-15984500D02*
X6973500Y-15984500D01*
X6973500Y-15984500D02*
G75*
G03*
X6973500Y-15924500I0J30000D01*
G01*
X7391500Y-15090500D02*
G75*
G02*
X7331500Y-15090500I-30000J0D01*
G01*
X7331500Y-15090500D02*
G75*
G02*
X7391500Y-15090500I30000J0D01*
G01*
X7416500Y-15060500D02*
X7306500Y-15060500D01*
X7306500Y-15120500D02*
G75*
G02*
X7306500Y-15060500I0J30000D01*
G01*
X7306500Y-15120500D02*
X7416500Y-15120500D01*
X7416500Y-15120500D02*
G75*
G03*
X7416500Y-15060500I0J30000D01*
G01*
X7391500Y-15954500D02*
G75*
G02*
X7331500Y-15954500I-30000J0D01*
G01*
X7331500Y-15954500D02*
G75*
G02*
X7391500Y-15954500I30000J0D01*
G01*
X7416500Y-15924500D02*
X7306500Y-15924500D01*
X7306500Y-15984500D02*
G75*
G02*
X7306500Y-15924500I0J30000D01*
G01*
X7306500Y-15984500D02*
X7416500Y-15984500D01*
X7416500Y-15984500D02*
G75*
G03*
X7416500Y-15924500I0J30000D01*
G01*
X7753000Y-15649500D02*
X7753000Y-15719500D01*
X7718000Y-15684500D02*
X7788000Y-15684500D01*
X7758000Y-15395500D02*
X7758000Y-15465500D01*
X7723000Y-15430500D02*
X7793000Y-15430500D01*
X8007000Y-15649500D02*
X8007000Y-15719500D01*
X7972000Y-15684500D02*
X8042000Y-15684500D01*
X8012000Y-15395500D02*
X8012000Y-15465500D01*
X7977000Y-15430500D02*
X8047000Y-15430500D01*
X10853500Y-14443000D02*
X10853500Y-14513000D01*
X10818500Y-14478000D02*
X10888500Y-14478000D01*
X10853500Y-14697000D02*
X10853500Y-14767000D01*
X10818500Y-14732000D02*
X10888500Y-14732000D01*
X11107500Y-14443000D02*
X11107500Y-14513000D01*
X11072500Y-14478000D02*
X11142500Y-14478000D01*
X11107500Y-14697000D02*
X11107500Y-14767000D01*
X11072500Y-14732000D02*
X11142500Y-14732000D01*
X12446000Y-14755500D02*
X12446000Y-14825500D01*
X12411000Y-14790500D02*
X12481000Y-14790500D01*
X12446000Y-15009500D02*
X12446000Y-15079500D01*
X12411000Y-15044500D02*
X12481000Y-15044500D01*
X12446000Y-15263500D02*
X12446000Y-15333500D01*
X12411000Y-15298500D02*
X12481000Y-15298500D01*
X12446000Y-15517500D02*
X12446000Y-15587500D01*
X12411000Y-15552500D02*
X12481000Y-15552500D01*
X13716000Y-15014500D02*
X13716000Y-15084500D01*
X13681000Y-15049500D02*
X13751000Y-15049500D01*
X13716000Y-15268500D02*
X13716000Y-15338500D01*
X13681000Y-15303500D02*
X13751000Y-15303500D01*
X7965784Y-11550784D02*
X7965784Y-11494215D01*
X7909215Y-11494215D01*
X7909215Y-11550784D01*
X7965784Y-11550784D01*
X7965784Y-12050784D02*
X7965784Y-11994215D01*
X7909215Y-11994215D01*
X7909215Y-12050784D01*
X7965784Y-12050784D01*
X12728284Y-15077784D02*
X12728284Y-15021215D01*
X12671715Y-15021215D01*
X12671715Y-15077784D01*
X12728284Y-15077784D01*
X12728284Y-15331784D02*
X12728284Y-15275215D01*
X12671715Y-15275215D01*
X12671715Y-15331784D01*
X12728284Y-15331784D01*
X12728284Y-15585784D02*
X12728284Y-15529215D01*
X12671715Y-15529215D01*
X12671715Y-15585784D01*
X12728284Y-15585784D01*
X12728284Y-15839784D02*
X12728284Y-15783215D01*
X12671715Y-15783215D01*
X12671715Y-15839784D01*
X12728284Y-15839784D01*
X12732284Y-14760284D02*
X12732284Y-14703715D01*
X12675715Y-14703715D01*
X12675715Y-14760284D01*
X12732284Y-14760284D01*
X12982284Y-16157284D02*
X12982284Y-16100715D01*
X12925715Y-16100715D01*
X12925715Y-16157284D01*
X12982284Y-16157284D01*
X13232284Y-14760284D02*
X13232284Y-14703715D01*
X13175715Y-14703715D01*
X13175715Y-14760284D01*
X13232284Y-14760284D01*
X13482284Y-16157284D02*
X13482284Y-16100715D01*
X13425715Y-16100715D01*
X13425715Y-16157284D01*
X13482284Y-16157284D01*
X13490284Y-15077784D02*
X13490284Y-15021215D01*
X13433715Y-15021215D01*
X13433715Y-15077784D01*
X13490284Y-15077784D01*
X13490284Y-15331784D02*
X13490284Y-15275215D01*
X13433715Y-15275215D01*
X13433715Y-15331784D01*
X13490284Y-15331784D01*
X13490284Y-15585784D02*
X13490284Y-15529215D01*
X13433715Y-15529215D01*
X13433715Y-15585784D01*
X13490284Y-15585784D01*
X13490284Y-15839784D02*
X13490284Y-15783215D01*
X13433715Y-15783215D01*
X13433715Y-15839784D01*
X13490284Y-15839784D01*
X13807784Y-15589784D02*
X13807784Y-15533215D01*
X13751215Y-15533215D01*
X13751215Y-15589784D01*
X13807784Y-15589784D01*
X13807784Y-16089784D02*
X13807784Y-16033215D01*
X13751215Y-16033215D01*
X13751215Y-16089784D01*
X13807784Y-16089784D01*
X14061784Y-15014284D02*
X14061784Y-14957715D01*
X14005215Y-14957715D01*
X14005215Y-15014284D01*
X14061784Y-15014284D01*
X14061784Y-15305784D02*
X14061784Y-15249215D01*
X14005215Y-15249215D01*
X14005215Y-15305784D01*
X14061784Y-15305784D01*
X14506284Y-7838784D02*
X14506284Y-7782215D01*
X14449715Y-7782215D01*
X14449715Y-7838784D01*
X14506284Y-7838784D01*
X14506284Y-9108785D02*
X14506284Y-9052216D01*
X14449715Y-9052216D01*
X14449715Y-9108785D01*
X14506284Y-9108785D01*
X14506284Y-10378785D02*
X14506284Y-10322216D01*
X14449715Y-10322216D01*
X14449715Y-10378785D01*
X14506284Y-10378785D01*
X14506284Y-11648784D02*
X14506284Y-11592215D01*
X14449715Y-11592215D01*
X14449715Y-11648784D01*
X14506284Y-11648784D01*
X14506284Y-12918784D02*
X14506284Y-12862215D01*
X14449715Y-12862215D01*
X14449715Y-12918784D01*
X14506284Y-12918784D01*
X14506284Y-14188784D02*
X14506284Y-14132215D01*
X14449715Y-14132215D01*
X14449715Y-14188784D01*
X14506284Y-14188784D01*
X14823784Y-15014284D02*
X14823784Y-14957715D01*
X14767215Y-14957715D01*
X14767215Y-15014284D01*
X14823784Y-15014284D01*
X14823784Y-15305784D02*
X14823784Y-15249215D01*
X14767215Y-15249215D01*
X14767215Y-15305784D01*
X14823784Y-15305784D01*
X15006284Y-7838784D02*
X15006284Y-7782215D01*
X14949715Y-7782215D01*
X14949715Y-7838784D01*
X15006284Y-7838784D01*
X15006284Y-9108785D02*
X15006284Y-9052216D01*
X14949715Y-9052216D01*
X14949715Y-9108785D01*
X15006284Y-9108785D01*
X15006284Y-10378785D02*
X15006284Y-10322216D01*
X14949715Y-10322216D01*
X14949715Y-10378785D01*
X15006284Y-10378785D01*
X15006284Y-11648784D02*
X15006284Y-11592215D01*
X14949715Y-11592215D01*
X14949715Y-11648784D01*
X15006284Y-11648784D01*
X15006284Y-12918784D02*
X15006284Y-12862215D01*
X14949715Y-12862215D01*
X14949715Y-12918784D01*
X15006284Y-12918784D01*
X15006284Y-14188784D02*
X15006284Y-14132215D01*
X14949715Y-14132215D01*
X14949715Y-14188784D01*
X15006284Y-14188784D01*
X15112000Y-15036000D02*
X15162000Y-14986000D01*
X15112000Y-14936000D01*
X15062000Y-14986000D01*
X15112000Y-15036000D01*
X15112000Y-15286000D02*
X15162000Y-15236000D01*
X15112000Y-15186000D01*
X15062000Y-15236000D01*
X15112000Y-15286000D01*
X15112000Y-15536000D02*
X15162000Y-15486000D01*
X15112000Y-15436000D01*
X15062000Y-15486000D01*
X15112000Y-15536000D01*
X16129000Y-9003500D02*
X16179000Y-8953500D01*
X16129000Y-8903500D01*
X16079000Y-8953500D01*
X16129000Y-9003500D01*
X16129000Y-9257500D02*
X16179000Y-9207500D01*
X16129000Y-9157500D01*
X16079000Y-9207500D01*
X16129000Y-9257500D01*
X16129000Y-9511500D02*
X16179000Y-9461500D01*
X16129000Y-9411500D01*
X16079000Y-9461500D01*
X16129000Y-9511500D01*
X16129000Y-9765500D02*
X16179000Y-9715500D01*
X16129000Y-9665500D01*
X16079000Y-9715500D01*
X16129000Y-9765500D01*
X16129000Y-10019500D02*
X16179000Y-9969500D01*
X16129000Y-9919500D01*
X16079000Y-9969500D01*
X16129000Y-10019500D01*
X16129000Y-10273500D02*
X16179000Y-10223500D01*
X16129000Y-10173500D01*
X16079000Y-10223500D01*
X16129000Y-10273500D01*
X16129000Y-10527500D02*
X16179000Y-10477500D01*
X16129000Y-10427500D01*
X16079000Y-10477500D01*
X16129000Y-10527500D01*
X16129000Y-10781500D02*
X16179000Y-10731500D01*
X16129000Y-10681500D01*
X16079000Y-10731500D01*
X16129000Y-10781500D01*
X16129000Y-11035500D02*
X16179000Y-10985500D01*
X16129000Y-10935500D01*
X16079000Y-10985500D01*
X16129000Y-11035500D01*
X16129000Y-11289500D02*
X16179000Y-11239500D01*
X16129000Y-11189500D01*
X16079000Y-11239500D01*
X16129000Y-11289500D01*
X16129000Y-11543500D02*
X16179000Y-11493500D01*
X16129000Y-11443500D01*
X16079000Y-11493500D01*
X16129000Y-11543500D01*
X16129000Y-11797500D02*
X16179000Y-11747500D01*
X16129000Y-11697500D01*
X16079000Y-11747500D01*
X16129000Y-11797500D01*
X16129000Y-12051500D02*
X16179000Y-12001500D01*
X16129000Y-11951500D01*
X16079000Y-12001500D01*
X16129000Y-12051500D01*
X16129000Y-12305500D02*
X16179000Y-12255500D01*
X16129000Y-12205500D01*
X16079000Y-12255500D01*
X16129000Y-12305500D01*
X16129000Y-12559500D02*
X16179000Y-12509500D01*
X16129000Y-12459500D01*
X16079000Y-12509500D01*
X16129000Y-12559500D01*
X16129000Y-12813500D02*
X16179000Y-12763500D01*
X16129000Y-12713500D01*
X16079000Y-12763500D01*
X16129000Y-12813500D01*
X16129000Y-13067500D02*
X16179000Y-13017500D01*
X16129000Y-12967500D01*
X16079000Y-13017500D01*
X16129000Y-13067500D01*
X16129000Y-13321500D02*
X16179000Y-13271500D01*
X16129000Y-13221500D01*
X16079000Y-13271500D01*
X16129000Y-13321500D01*
X16129000Y-13575500D02*
X16179000Y-13525500D01*
X16129000Y-13475500D01*
X16079000Y-13525500D01*
X16129000Y-13575500D01*
X16129000Y-13829500D02*
X16179000Y-13779500D01*
X16129000Y-13729500D01*
X16079000Y-13779500D01*
X16129000Y-13829500D01*
X16383000Y-9003500D02*
X16433000Y-8953500D01*
X16383000Y-8903500D01*
X16333000Y-8953500D01*
X16383000Y-9003500D01*
X16383000Y-9257500D02*
X16433000Y-9207500D01*
X16383000Y-9157500D01*
X16333000Y-9207500D01*
X16383000Y-9257500D01*
X16383000Y-9511500D02*
X16433000Y-9461500D01*
X16383000Y-9411500D01*
X16333000Y-9461500D01*
X16383000Y-9511500D01*
X16383000Y-9765500D02*
X16433000Y-9715500D01*
X16383000Y-9665500D01*
X16333000Y-9715500D01*
X16383000Y-9765500D01*
X16383000Y-10019500D02*
X16433000Y-9969500D01*
X16383000Y-9919500D01*
X16333000Y-9969500D01*
X16383000Y-10019500D01*
X16383000Y-10273500D02*
X16433000Y-10223500D01*
X16383000Y-10173500D01*
X16333000Y-10223500D01*
X16383000Y-10273500D01*
X16383000Y-10527500D02*
X16433000Y-10477500D01*
X16383000Y-10427500D01*
X16333000Y-10477500D01*
X16383000Y-10527500D01*
X16383000Y-10781500D02*
X16433000Y-10731500D01*
X16383000Y-10681500D01*
X16333000Y-10731500D01*
X16383000Y-10781500D01*
X16383000Y-11035500D02*
X16433000Y-10985500D01*
X16383000Y-10935500D01*
X16333000Y-10985500D01*
X16383000Y-11035500D01*
X16383000Y-11289500D02*
X16433000Y-11239500D01*
X16383000Y-11189500D01*
X16333000Y-11239500D01*
X16383000Y-11289500D01*
X16383000Y-11543500D02*
X16433000Y-11493500D01*
X16383000Y-11443500D01*
X16333000Y-11493500D01*
X16383000Y-11543500D01*
X16383000Y-11797500D02*
X16433000Y-11747500D01*
X16383000Y-11697500D01*
X16333000Y-11747500D01*
X16383000Y-11797500D01*
X16383000Y-12051500D02*
X16433000Y-12001500D01*
X16383000Y-11951500D01*
X16333000Y-12001500D01*
X16383000Y-12051500D01*
X16383000Y-12305500D02*
X16433000Y-12255500D01*
X16383000Y-12205500D01*
X16333000Y-12255500D01*
X16383000Y-12305500D01*
X16383000Y-12559500D02*
X16433000Y-12509500D01*
X16383000Y-12459500D01*
X16333000Y-12509500D01*
X16383000Y-12559500D01*
X16383000Y-12813500D02*
X16433000Y-12763500D01*
X16383000Y-12713500D01*
X16333000Y-12763500D01*
X16383000Y-12813500D01*
X16383000Y-13067500D02*
X16433000Y-13017500D01*
X16383000Y-12967500D01*
X16333000Y-13017500D01*
X16383000Y-13067500D01*
X16383000Y-13321500D02*
X16433000Y-13271500D01*
X16383000Y-13221500D01*
X16333000Y-13271500D01*
X16383000Y-13321500D01*
X16383000Y-13575500D02*
X16433000Y-13525500D01*
X16383000Y-13475500D01*
X16333000Y-13525500D01*
X16383000Y-13575500D01*
X16383000Y-13829500D02*
X16433000Y-13779500D01*
X16383000Y-13729500D01*
X16333000Y-13779500D01*
X16383000Y-13829500D01*
D13*
X6847500Y-11467500D02*
X6957500Y-11577500D01*
X6957500Y-11467500D02*
X6847500Y-11577500D01*
X6957500Y-11522500D02*
G75*
G02*
X6847500Y-11522500I-55000J0D01*
G01*
X6847500Y-11522500D02*
G75*
G02*
X6957500Y-11522500I55000J0D01*
G01*
X6847500Y-11917500D02*
X6957500Y-12027500D01*
X6957500Y-11917500D02*
X6847500Y-12027500D01*
X6957500Y-11972500D02*
G75*
G02*
X6847500Y-11972500I-55000J0D01*
G01*
X6847500Y-11972500D02*
G75*
G02*
X6957500Y-11972500I55000J0D01*
G01*
X7497500Y-11467500D02*
X7607500Y-11577500D01*
X7607500Y-11467500D02*
X7497500Y-11577500D01*
X7607500Y-11522500D02*
G75*
G02*
X7497500Y-11522500I-55000J0D01*
G01*
X7497500Y-11522500D02*
G75*
G02*
X7607500Y-11522500I55000J0D01*
G01*
X7497500Y-11917500D02*
X7607500Y-12027500D01*
X7607500Y-11917500D02*
X7497500Y-12027500D01*
X7607500Y-11972500D02*
G75*
G02*
X7497500Y-11972500I-55000J0D01*
G01*
X7497500Y-11972500D02*
G75*
G02*
X7607500Y-11972500I55000J0D01*
G01*
X10803500Y-14042000D02*
X10913500Y-14152000D01*
X10913500Y-14042000D02*
X10803500Y-14152000D01*
X10913500Y-14097000D02*
G75*
G02*
X10803500Y-14097000I-55000J0D01*
G01*
X10803500Y-14097000D02*
G75*
G02*
X10913500Y-14097000I55000J0D01*
G01*
X11057500Y-14042000D02*
X11167500Y-14152000D01*
X11167500Y-14042000D02*
X11057500Y-14152000D01*
X11167500Y-14097000D02*
G75*
G02*
X11057500Y-14097000I-55000J0D01*
G01*
X11057500Y-14097000D02*
G75*
G02*
X11167500Y-14097000I55000J0D01*
G01*
X11311500Y-14042000D02*
X11421500Y-14152000D01*
X11421500Y-14042000D02*
X11311500Y-14152000D01*
X11421500Y-14097000D02*
G75*
G02*
X11311500Y-14097000I-55000J0D01*
G01*
X11311500Y-14097000D02*
G75*
G02*
X11421500Y-14097000I55000J0D01*
G01*
X12073500Y-13883500D02*
X12183500Y-13993500D01*
X12183500Y-13883500D02*
X12073500Y-13993500D01*
X12183500Y-13938500D02*
G75*
G02*
X12073500Y-13938500I-55000J0D01*
G01*
X12073500Y-13938500D02*
G75*
G02*
X12183500Y-13938500I55000J0D01*
G01*
X12327500Y-13883500D02*
X12437500Y-13993500D01*
X12437500Y-13883500D02*
X12327500Y-13993500D01*
X12437500Y-13938500D02*
G75*
G02*
X12327500Y-13938500I-55000J0D01*
G01*
X12327500Y-13938500D02*
G75*
G02*
X12437500Y-13938500I55000J0D01*
G01*
X12581500Y-13883500D02*
X12691500Y-13993500D01*
X12691500Y-13883500D02*
X12581500Y-13993500D01*
X12691500Y-13938500D02*
G75*
G02*
X12581500Y-13938500I-55000J0D01*
G01*
X12581500Y-13938500D02*
G75*
G02*
X12691500Y-13938500I55000J0D01*
G01*
X15807000Y-14701000D02*
X15917000Y-14811000D01*
X15917000Y-14701000D02*
X15807000Y-14811000D01*
X15917000Y-14756000D02*
G75*
G02*
X15807000Y-14756000I-55000J0D01*
G01*
X15807000Y-14756000D02*
G75*
G02*
X15917000Y-14756000I55000J0D01*
G01*
D12*
X15827000Y-14811000D02*
X15897000Y-14811000D01*
X15897000Y-14701000D02*
G75*
G02*
X15897000Y-14811000I0J-55000D01*
G01*
X15897000Y-14701000D02*
X15827000Y-14701000D01*
X15827000Y-14701000D02*
G75*
G03*
X15827000Y-14811000I0J-55000D01*
G01*
D13*
X15807000Y-15661000D02*
X15917000Y-15771000D01*
X15917000Y-15661000D02*
X15807000Y-15771000D01*
X15917000Y-15716000D02*
G75*
G02*
X15807000Y-15716000I-55000J0D01*
G01*
X15807000Y-15716000D02*
G75*
G02*
X15917000Y-15716000I55000J0D01*
G01*
D12*
X15827000Y-15771000D02*
X15897000Y-15771000D01*
X15897000Y-15661000D02*
G75*
G02*
X15897000Y-15771000I0J-55000D01*
G01*
X15897000Y-15661000D02*
X15827000Y-15661000D01*
X15827000Y-15661000D02*
G75*
G03*
X15827000Y-15771000I0J-55000D01*
G01*
D14*
X9211000Y-14777778D02*
X9331000Y-14897778D01*
X9331000Y-14777778D02*
X9211000Y-14897778D01*
X9271000Y-14777778D02*
X9271000Y-14897778D01*
X9211000Y-14837778D02*
X9331000Y-14837778D01*
X9211000Y-15527778D02*
X9331000Y-15647778D01*
X9331000Y-15527778D02*
X9211000Y-15647778D01*
X9271000Y-15527778D02*
X9271000Y-15647778D01*
X9211000Y-15587778D02*
X9331000Y-15587778D01*
D11*
X6862277Y-16633484D02*
X6862277Y-16433484D01*
X6862277Y-16433484D02*
X6909896Y-16433484D01*
X6909896Y-16433484D02*
X6938467Y-16443008D01*
X6938467Y-16443008D02*
X6957515Y-16462055D01*
X6957515Y-16462055D02*
X6967039Y-16481103D01*
X6967039Y-16481103D02*
X6976562Y-16519198D01*
X6976562Y-16519198D02*
X6976562Y-16547769D01*
X6976562Y-16547769D02*
X6967039Y-16585865D01*
X6967039Y-16585865D02*
X6957515Y-16604912D01*
X6957515Y-16604912D02*
X6938467Y-16623960D01*
X6938467Y-16623960D02*
X6909896Y-16633484D01*
X6909896Y-16633484D02*
X6862277Y-16633484D01*
X7062277Y-16633484D02*
X7062277Y-16500150D01*
X7062277Y-16538246D02*
X7071801Y-16519198D01*
X7071801Y-16519198D02*
X7081324Y-16509674D01*
X7081324Y-16509674D02*
X7100372Y-16500150D01*
X7100372Y-16500150D02*
X7119420Y-16500150D01*
X7186086Y-16633484D02*
X7186086Y-16500150D01*
X7186086Y-16433484D02*
X7176562Y-16443008D01*
X7176562Y-16443008D02*
X7186086Y-16452531D01*
X7186086Y-16452531D02*
X7195610Y-16443008D01*
X7195610Y-16443008D02*
X7186086Y-16433484D01*
X7186086Y-16433484D02*
X7186086Y-16452531D01*
X7309896Y-16633484D02*
X7290848Y-16623960D01*
X7290848Y-16623960D02*
X7281324Y-16604912D01*
X7281324Y-16604912D02*
X7281324Y-16433484D01*
X7414658Y-16633484D02*
X7395610Y-16623960D01*
X7395610Y-16623960D02*
X7386086Y-16604912D01*
X7386086Y-16604912D02*
X7386086Y-16433484D01*
X7643229Y-16633484D02*
X7643229Y-16433484D01*
X7643229Y-16433484D02*
X7709896Y-16576341D01*
X7709896Y-16576341D02*
X7776562Y-16433484D01*
X7776562Y-16433484D02*
X7776562Y-16633484D01*
X7957515Y-16633484D02*
X7957515Y-16528722D01*
X7957515Y-16528722D02*
X7947991Y-16509674D01*
X7947991Y-16509674D02*
X7928943Y-16500150D01*
X7928943Y-16500150D02*
X7890848Y-16500150D01*
X7890848Y-16500150D02*
X7871801Y-16509674D01*
X7957515Y-16623960D02*
X7938467Y-16633484D01*
X7938467Y-16633484D02*
X7890848Y-16633484D01*
X7890848Y-16633484D02*
X7871801Y-16623960D01*
X7871801Y-16623960D02*
X7862277Y-16604912D01*
X7862277Y-16604912D02*
X7862277Y-16585865D01*
X7862277Y-16585865D02*
X7871801Y-16566817D01*
X7871801Y-16566817D02*
X7890848Y-16557293D01*
X7890848Y-16557293D02*
X7938467Y-16557293D01*
X7938467Y-16557293D02*
X7957515Y-16547769D01*
X8052753Y-16500150D02*
X8052753Y-16700150D01*
X8052753Y-16509674D02*
X8071801Y-16500150D01*
X8071801Y-16500150D02*
X8109896Y-16500150D01*
X8109896Y-16500150D02*
X8128943Y-16509674D01*
X8128943Y-16509674D02*
X8138467Y-16519198D01*
X8138467Y-16519198D02*
X8147991Y-16538246D01*
X8147991Y-16538246D02*
X8147991Y-16595388D01*
X8147991Y-16595388D02*
X8138467Y-16614436D01*
X8138467Y-16614436D02*
X8128943Y-16623960D01*
X8128943Y-16623960D02*
X8109896Y-16633484D01*
X8109896Y-16633484D02*
X8071801Y-16633484D01*
X8071801Y-16633484D02*
X8052753Y-16623960D01*
X8233705Y-16614436D02*
X8243229Y-16623960D01*
X8243229Y-16623960D02*
X8233705Y-16633484D01*
X8233705Y-16633484D02*
X8224182Y-16623960D01*
X8224182Y-16623960D02*
X8233705Y-16614436D01*
X8233705Y-16614436D02*
X8233705Y-16633484D01*
X8233705Y-16509674D02*
X8243229Y-16519198D01*
X8243229Y-16519198D02*
X8233705Y-16528722D01*
X8233705Y-16528722D02*
X8224182Y-16519198D01*
X8224182Y-16519198D02*
X8233705Y-16509674D01*
X8233705Y-16509674D02*
X8233705Y-16528722D01*
D12*
X6571500Y-16947000D02*
X6601500Y-16977000D01*
X6601500Y-16947000D02*
X6571500Y-16977000D01*
D11*
X6900372Y-16853484D02*
X6919420Y-16853484D01*
X6919420Y-16853484D02*
X6938467Y-16863008D01*
X6938467Y-16863008D02*
X6947991Y-16872531D01*
X6947991Y-16872531D02*
X6957515Y-16891579D01*
X6957515Y-16891579D02*
X6967039Y-16929674D01*
X6967039Y-16929674D02*
X6967039Y-16977293D01*
X6967039Y-16977293D02*
X6957515Y-17015389D01*
X6957515Y-17015389D02*
X6947991Y-17034436D01*
X6947991Y-17034436D02*
X6938467Y-17043960D01*
X6938467Y-17043960D02*
X6919420Y-17053484D01*
X6919420Y-17053484D02*
X6900372Y-17053484D01*
X6900372Y-17053484D02*
X6881324Y-17043960D01*
X6881324Y-17043960D02*
X6871801Y-17034436D01*
X6871801Y-17034436D02*
X6862277Y-17015389D01*
X6862277Y-17015389D02*
X6852753Y-16977293D01*
X6852753Y-16977293D02*
X6852753Y-16929674D01*
X6852753Y-16929674D02*
X6862277Y-16891579D01*
X6862277Y-16891579D02*
X6871801Y-16872531D01*
X6871801Y-16872531D02*
X6881324Y-16863008D01*
X6881324Y-16863008D02*
X6900372Y-16853484D01*
X7052753Y-17034436D02*
X7062277Y-17043960D01*
X7062277Y-17043960D02*
X7052753Y-17053484D01*
X7052753Y-17053484D02*
X7043229Y-17043960D01*
X7043229Y-17043960D02*
X7052753Y-17034436D01*
X7052753Y-17034436D02*
X7052753Y-17053484D01*
X7128943Y-16853484D02*
X7252753Y-16853484D01*
X7252753Y-16853484D02*
X7186086Y-16929674D01*
X7186086Y-16929674D02*
X7214658Y-16929674D01*
X7214658Y-16929674D02*
X7233705Y-16939198D01*
X7233705Y-16939198D02*
X7243229Y-16948722D01*
X7243229Y-16948722D02*
X7252753Y-16967770D01*
X7252753Y-16967770D02*
X7252753Y-17015389D01*
X7252753Y-17015389D02*
X7243229Y-17034436D01*
X7243229Y-17034436D02*
X7233705Y-17043960D01*
X7233705Y-17043960D02*
X7214658Y-17053484D01*
X7214658Y-17053484D02*
X7157515Y-17053484D01*
X7157515Y-17053484D02*
X7138467Y-17043960D01*
X7138467Y-17043960D02*
X7128943Y-17034436D01*
X7376562Y-16853484D02*
X7395610Y-16853484D01*
X7395610Y-16853484D02*
X7414658Y-16863008D01*
X7414658Y-16863008D02*
X7424182Y-16872531D01*
X7424182Y-16872531D02*
X7433705Y-16891579D01*
X7433705Y-16891579D02*
X7443229Y-16929674D01*
X7443229Y-16929674D02*
X7443229Y-16977293D01*
X7443229Y-16977293D02*
X7433705Y-17015389D01*
X7433705Y-17015389D02*
X7424182Y-17034436D01*
X7424182Y-17034436D02*
X7414658Y-17043960D01*
X7414658Y-17043960D02*
X7395610Y-17053484D01*
X7395610Y-17053484D02*
X7376562Y-17053484D01*
X7376562Y-17053484D02*
X7357515Y-17043960D01*
X7357515Y-17043960D02*
X7347991Y-17034436D01*
X7347991Y-17034436D02*
X7338467Y-17015389D01*
X7338467Y-17015389D02*
X7328943Y-16977293D01*
X7328943Y-16977293D02*
X7328943Y-16929674D01*
X7328943Y-16929674D02*
X7338467Y-16891579D01*
X7338467Y-16891579D02*
X7347991Y-16872531D01*
X7347991Y-16872531D02*
X7357515Y-16863008D01*
X7357515Y-16863008D02*
X7376562Y-16853484D01*
X7567039Y-16853484D02*
X7586086Y-16853484D01*
X7586086Y-16853484D02*
X7605134Y-16863008D01*
X7605134Y-16863008D02*
X7614658Y-16872531D01*
X7614658Y-16872531D02*
X7624182Y-16891579D01*
X7624182Y-16891579D02*
X7633705Y-16929674D01*
X7633705Y-16929674D02*
X7633705Y-16977293D01*
X7633705Y-16977293D02*
X7624182Y-17015389D01*
X7624182Y-17015389D02*
X7614658Y-17034436D01*
X7614658Y-17034436D02*
X7605134Y-17043960D01*
X7605134Y-17043960D02*
X7586086Y-17053484D01*
X7586086Y-17053484D02*
X7567039Y-17053484D01*
X7567039Y-17053484D02*
X7547991Y-17043960D01*
X7547991Y-17043960D02*
X7538467Y-17034436D01*
X7538467Y-17034436D02*
X7528943Y-17015389D01*
X7528943Y-17015389D02*
X7519420Y-16977293D01*
X7519420Y-16977293D02*
X7519420Y-16929674D01*
X7519420Y-16929674D02*
X7528943Y-16891579D01*
X7528943Y-16891579D02*
X7538467Y-16872531D01*
X7538467Y-16872531D02*
X7547991Y-16863008D01*
X7547991Y-16863008D02*
X7567039Y-16853484D01*
X7719420Y-17053484D02*
X7719420Y-16920150D01*
X7719420Y-16939198D02*
X7728943Y-16929674D01*
X7728943Y-16929674D02*
X7747991Y-16920150D01*
X7747991Y-16920150D02*
X7776563Y-16920150D01*
X7776563Y-16920150D02*
X7795610Y-16929674D01*
X7795610Y-16929674D02*
X7805134Y-16948722D01*
X7805134Y-16948722D02*
X7805134Y-17053484D01*
X7805134Y-16948722D02*
X7814658Y-16929674D01*
X7814658Y-16929674D02*
X7833705Y-16920150D01*
X7833705Y-16920150D02*
X7862277Y-16920150D01*
X7862277Y-16920150D02*
X7881324Y-16929674D01*
X7881324Y-16929674D02*
X7890848Y-16948722D01*
X7890848Y-16948722D02*
X7890848Y-17053484D01*
X7986086Y-17053484D02*
X7986086Y-16920150D01*
X7986086Y-16939198D02*
X7995610Y-16929674D01*
X7995610Y-16929674D02*
X8014658Y-16920150D01*
X8014658Y-16920150D02*
X8043229Y-16920150D01*
X8043229Y-16920150D02*
X8062277Y-16929674D01*
X8062277Y-16929674D02*
X8071801Y-16948722D01*
X8071801Y-16948722D02*
X8071801Y-17053484D01*
X8071801Y-16948722D02*
X8081324Y-16929674D01*
X8081324Y-16929674D02*
X8100372Y-16920150D01*
X8100372Y-16920150D02*
X8128943Y-16920150D01*
X8128943Y-16920150D02*
X8147991Y-16929674D01*
X8147991Y-16929674D02*
X8157515Y-16948722D01*
X8157515Y-16948722D02*
X8157515Y-17053484D01*
X8547991Y-16843960D02*
X8376563Y-17101103D01*
X8805134Y-16853484D02*
X8824182Y-16853484D01*
X8824182Y-16853484D02*
X8843229Y-16863008D01*
X8843229Y-16863008D02*
X8852753Y-16872531D01*
X8852753Y-16872531D02*
X8862277Y-16891579D01*
X8862277Y-16891579D02*
X8871801Y-16929674D01*
X8871801Y-16929674D02*
X8871801Y-16977293D01*
X8871801Y-16977293D02*
X8862277Y-17015389D01*
X8862277Y-17015389D02*
X8852753Y-17034436D01*
X8852753Y-17034436D02*
X8843229Y-17043960D01*
X8843229Y-17043960D02*
X8824182Y-17053484D01*
X8824182Y-17053484D02*
X8805134Y-17053484D01*
X8805134Y-17053484D02*
X8786087Y-17043960D01*
X8786087Y-17043960D02*
X8776563Y-17034436D01*
X8776563Y-17034436D02*
X8767039Y-17015389D01*
X8767039Y-17015389D02*
X8757515Y-16977293D01*
X8757515Y-16977293D02*
X8757515Y-16929674D01*
X8757515Y-16929674D02*
X8767039Y-16891579D01*
X8767039Y-16891579D02*
X8776563Y-16872531D01*
X8776563Y-16872531D02*
X8786087Y-16863008D01*
X8786087Y-16863008D02*
X8805134Y-16853484D01*
X8957515Y-17034436D02*
X8967039Y-17043960D01*
X8967039Y-17043960D02*
X8957515Y-17053484D01*
X8957515Y-17053484D02*
X8947991Y-17043960D01*
X8947991Y-17043960D02*
X8957515Y-17034436D01*
X8957515Y-17034436D02*
X8957515Y-17053484D01*
X9090848Y-16853484D02*
X9109896Y-16853484D01*
X9109896Y-16853484D02*
X9128944Y-16863008D01*
X9128944Y-16863008D02*
X9138468Y-16872531D01*
X9138468Y-16872531D02*
X9147991Y-16891579D01*
X9147991Y-16891579D02*
X9157515Y-16929674D01*
X9157515Y-16929674D02*
X9157515Y-16977293D01*
X9157515Y-16977293D02*
X9147991Y-17015389D01*
X9147991Y-17015389D02*
X9138468Y-17034436D01*
X9138468Y-17034436D02*
X9128944Y-17043960D01*
X9128944Y-17043960D02*
X9109896Y-17053484D01*
X9109896Y-17053484D02*
X9090848Y-17053484D01*
X9090848Y-17053484D02*
X9071801Y-17043960D01*
X9071801Y-17043960D02*
X9062277Y-17034436D01*
X9062277Y-17034436D02*
X9052753Y-17015389D01*
X9052753Y-17015389D02*
X9043229Y-16977293D01*
X9043229Y-16977293D02*
X9043229Y-16929674D01*
X9043229Y-16929674D02*
X9052753Y-16891579D01*
X9052753Y-16891579D02*
X9062277Y-16872531D01*
X9062277Y-16872531D02*
X9071801Y-16863008D01*
X9071801Y-16863008D02*
X9090848Y-16853484D01*
X9347991Y-17053484D02*
X9233706Y-17053484D01*
X9290848Y-17053484D02*
X9290848Y-16853484D01*
X9290848Y-16853484D02*
X9271801Y-16882055D01*
X9271801Y-16882055D02*
X9252753Y-16901103D01*
X9252753Y-16901103D02*
X9233706Y-16910627D01*
X9538468Y-17053484D02*
X9424182Y-17053484D01*
X9481325Y-17053484D02*
X9481325Y-16853484D01*
X9481325Y-16853484D02*
X9462277Y-16882055D01*
X9462277Y-16882055D02*
X9443229Y-16901103D01*
X9443229Y-16901103D02*
X9424182Y-16910627D01*
X9652753Y-16939198D02*
X9633706Y-16929674D01*
X9633706Y-16929674D02*
X9624182Y-16920150D01*
X9624182Y-16920150D02*
X9614658Y-16901103D01*
X9614658Y-16901103D02*
X9614658Y-16891579D01*
X9614658Y-16891579D02*
X9624182Y-16872531D01*
X9624182Y-16872531D02*
X9633706Y-16863008D01*
X9633706Y-16863008D02*
X9652753Y-16853484D01*
X9652753Y-16853484D02*
X9690849Y-16853484D01*
X9690849Y-16853484D02*
X9709896Y-16863008D01*
X9709896Y-16863008D02*
X9719420Y-16872531D01*
X9719420Y-16872531D02*
X9728944Y-16891579D01*
X9728944Y-16891579D02*
X9728944Y-16901103D01*
X9728944Y-16901103D02*
X9719420Y-16920150D01*
X9719420Y-16920150D02*
X9709896Y-16929674D01*
X9709896Y-16929674D02*
X9690849Y-16939198D01*
X9690849Y-16939198D02*
X9652753Y-16939198D01*
X9652753Y-16939198D02*
X9633706Y-16948722D01*
X9633706Y-16948722D02*
X9624182Y-16958246D01*
X9624182Y-16958246D02*
X9614658Y-16977293D01*
X9614658Y-16977293D02*
X9614658Y-17015389D01*
X9614658Y-17015389D02*
X9624182Y-17034436D01*
X9624182Y-17034436D02*
X9633706Y-17043960D01*
X9633706Y-17043960D02*
X9652753Y-17053484D01*
X9652753Y-17053484D02*
X9690849Y-17053484D01*
X9690849Y-17053484D02*
X9709896Y-17043960D01*
X9709896Y-17043960D02*
X9719420Y-17034436D01*
X9719420Y-17034436D02*
X9728944Y-17015389D01*
X9728944Y-17015389D02*
X9728944Y-16977293D01*
X9728944Y-16977293D02*
X9719420Y-16958246D01*
X9719420Y-16958246D02*
X9709896Y-16948722D01*
X9709896Y-16948722D02*
X9690849Y-16939198D01*
X9805134Y-16853484D02*
X9805134Y-16891579D01*
X9881325Y-16853484D02*
X9881325Y-16891579D01*
X10176563Y-17129674D02*
X10167039Y-17120150D01*
X10167039Y-17120150D02*
X10147991Y-17091579D01*
X10147991Y-17091579D02*
X10138468Y-17072531D01*
X10138468Y-17072531D02*
X10128944Y-17043960D01*
X10128944Y-17043960D02*
X10119420Y-16996341D01*
X10119420Y-16996341D02*
X10119420Y-16958246D01*
X10119420Y-16958246D02*
X10128944Y-16910627D01*
X10128944Y-16910627D02*
X10138468Y-16882055D01*
X10138468Y-16882055D02*
X10147991Y-16863008D01*
X10147991Y-16863008D02*
X10167039Y-16834436D01*
X10167039Y-16834436D02*
X10176563Y-16824912D01*
X10233706Y-16853484D02*
X10367039Y-16853484D01*
X10367039Y-16853484D02*
X10281325Y-17053484D01*
X10424182Y-16853484D02*
X10557515Y-16853484D01*
X10557515Y-16853484D02*
X10471801Y-17053484D01*
X10786087Y-17053484D02*
X10786087Y-16853484D01*
X10871801Y-17053484D02*
X10871801Y-16948722D01*
X10871801Y-16948722D02*
X10862277Y-16929674D01*
X10862277Y-16929674D02*
X10843230Y-16920150D01*
X10843230Y-16920150D02*
X10814658Y-16920150D01*
X10814658Y-16920150D02*
X10795611Y-16929674D01*
X10795611Y-16929674D02*
X10786087Y-16939198D01*
X10995611Y-17053484D02*
X10976563Y-17043960D01*
X10976563Y-17043960D02*
X10967039Y-17034436D01*
X10967039Y-17034436D02*
X10957515Y-17015389D01*
X10957515Y-17015389D02*
X10957515Y-16958246D01*
X10957515Y-16958246D02*
X10967039Y-16939198D01*
X10967039Y-16939198D02*
X10976563Y-16929674D01*
X10976563Y-16929674D02*
X10995611Y-16920150D01*
X10995611Y-16920150D02*
X11024182Y-16920150D01*
X11024182Y-16920150D02*
X11043230Y-16929674D01*
X11043230Y-16929674D02*
X11052753Y-16939198D01*
X11052753Y-16939198D02*
X11062277Y-16958246D01*
X11062277Y-16958246D02*
X11062277Y-17015389D01*
X11062277Y-17015389D02*
X11052753Y-17034436D01*
X11052753Y-17034436D02*
X11043230Y-17043960D01*
X11043230Y-17043960D02*
X11024182Y-17053484D01*
X11024182Y-17053484D02*
X10995611Y-17053484D01*
X11176563Y-17053484D02*
X11157515Y-17043960D01*
X11157515Y-17043960D02*
X11147992Y-17024912D01*
X11147992Y-17024912D02*
X11147992Y-16853484D01*
X11328944Y-17043960D02*
X11309896Y-17053484D01*
X11309896Y-17053484D02*
X11271801Y-17053484D01*
X11271801Y-17053484D02*
X11252753Y-17043960D01*
X11252753Y-17043960D02*
X11243230Y-17024912D01*
X11243230Y-17024912D02*
X11243230Y-16948722D01*
X11243230Y-16948722D02*
X11252753Y-16929674D01*
X11252753Y-16929674D02*
X11271801Y-16920150D01*
X11271801Y-16920150D02*
X11309896Y-16920150D01*
X11309896Y-16920150D02*
X11328944Y-16929674D01*
X11328944Y-16929674D02*
X11338468Y-16948722D01*
X11338468Y-16948722D02*
X11338468Y-16967770D01*
X11338468Y-16967770D02*
X11243230Y-16986817D01*
X11414658Y-17043960D02*
X11433706Y-17053484D01*
X11433706Y-17053484D02*
X11471801Y-17053484D01*
X11471801Y-17053484D02*
X11490849Y-17043960D01*
X11490849Y-17043960D02*
X11500372Y-17024912D01*
X11500372Y-17024912D02*
X11500372Y-17015389D01*
X11500372Y-17015389D02*
X11490849Y-16996341D01*
X11490849Y-16996341D02*
X11471801Y-16986817D01*
X11471801Y-16986817D02*
X11443230Y-16986817D01*
X11443230Y-16986817D02*
X11424182Y-16977293D01*
X11424182Y-16977293D02*
X11414658Y-16958246D01*
X11414658Y-16958246D02*
X11414658Y-16948722D01*
X11414658Y-16948722D02*
X11424182Y-16929674D01*
X11424182Y-16929674D02*
X11443230Y-16920150D01*
X11443230Y-16920150D02*
X11471801Y-16920150D01*
X11471801Y-16920150D02*
X11490849Y-16929674D01*
X11567039Y-17129674D02*
X11576563Y-17120150D01*
X11576563Y-17120150D02*
X11595611Y-17091579D01*
X11595611Y-17091579D02*
X11605134Y-17072531D01*
X11605134Y-17072531D02*
X11614658Y-17043960D01*
X11614658Y-17043960D02*
X11624182Y-16996341D01*
X11624182Y-16996341D02*
X11624182Y-16958246D01*
X11624182Y-16958246D02*
X11614658Y-16910627D01*
X11614658Y-16910627D02*
X11605134Y-16882055D01*
X11605134Y-16882055D02*
X11595611Y-16863008D01*
X11595611Y-16863008D02*
X11576563Y-16834436D01*
X11576563Y-16834436D02*
X11567039Y-16824912D01*
D12*
X6601500Y-17226000D02*
G75*
G02*
X6541500Y-17226000I-30000J0D01*
G01*
X6541500Y-17226000D02*
G75*
G02*
X6601500Y-17226000I30000J0D01*
G01*
D11*
X6900372Y-17117484D02*
X6919420Y-17117484D01*
X6919420Y-17117484D02*
X6938467Y-17127008D01*
X6938467Y-17127008D02*
X6947991Y-17136531D01*
X6947991Y-17136531D02*
X6957515Y-17155579D01*
X6957515Y-17155579D02*
X6967039Y-17193674D01*
X6967039Y-17193674D02*
X6967039Y-17241293D01*
X6967039Y-17241293D02*
X6957515Y-17279389D01*
X6957515Y-17279389D02*
X6947991Y-17298436D01*
X6947991Y-17298436D02*
X6938467Y-17307960D01*
X6938467Y-17307960D02*
X6919420Y-17317484D01*
X6919420Y-17317484D02*
X6900372Y-17317484D01*
X6900372Y-17317484D02*
X6881324Y-17307960D01*
X6881324Y-17307960D02*
X6871801Y-17298436D01*
X6871801Y-17298436D02*
X6862277Y-17279389D01*
X6862277Y-17279389D02*
X6852753Y-17241293D01*
X6852753Y-17241293D02*
X6852753Y-17193674D01*
X6852753Y-17193674D02*
X6862277Y-17155579D01*
X6862277Y-17155579D02*
X6871801Y-17136531D01*
X6871801Y-17136531D02*
X6881324Y-17127008D01*
X6881324Y-17127008D02*
X6900372Y-17117484D01*
X7052753Y-17298436D02*
X7062277Y-17307960D01*
X7062277Y-17307960D02*
X7052753Y-17317484D01*
X7052753Y-17317484D02*
X7043229Y-17307960D01*
X7043229Y-17307960D02*
X7052753Y-17298436D01*
X7052753Y-17298436D02*
X7052753Y-17317484D01*
X7233705Y-17117484D02*
X7195610Y-17117484D01*
X7195610Y-17117484D02*
X7176562Y-17127008D01*
X7176562Y-17127008D02*
X7167039Y-17136531D01*
X7167039Y-17136531D02*
X7147991Y-17165103D01*
X7147991Y-17165103D02*
X7138467Y-17203198D01*
X7138467Y-17203198D02*
X7138467Y-17279389D01*
X7138467Y-17279389D02*
X7147991Y-17298436D01*
X7147991Y-17298436D02*
X7157515Y-17307960D01*
X7157515Y-17307960D02*
X7176562Y-17317484D01*
X7176562Y-17317484D02*
X7214658Y-17317484D01*
X7214658Y-17317484D02*
X7233705Y-17307960D01*
X7233705Y-17307960D02*
X7243229Y-17298436D01*
X7243229Y-17298436D02*
X7252753Y-17279389D01*
X7252753Y-17279389D02*
X7252753Y-17231770D01*
X7252753Y-17231770D02*
X7243229Y-17212722D01*
X7243229Y-17212722D02*
X7233705Y-17203198D01*
X7233705Y-17203198D02*
X7214658Y-17193674D01*
X7214658Y-17193674D02*
X7176562Y-17193674D01*
X7176562Y-17193674D02*
X7157515Y-17203198D01*
X7157515Y-17203198D02*
X7147991Y-17212722D01*
X7147991Y-17212722D02*
X7138467Y-17231770D01*
X7376562Y-17117484D02*
X7395610Y-17117484D01*
X7395610Y-17117484D02*
X7414658Y-17127008D01*
X7414658Y-17127008D02*
X7424182Y-17136531D01*
X7424182Y-17136531D02*
X7433705Y-17155579D01*
X7433705Y-17155579D02*
X7443229Y-17193674D01*
X7443229Y-17193674D02*
X7443229Y-17241293D01*
X7443229Y-17241293D02*
X7433705Y-17279389D01*
X7433705Y-17279389D02*
X7424182Y-17298436D01*
X7424182Y-17298436D02*
X7414658Y-17307960D01*
X7414658Y-17307960D02*
X7395610Y-17317484D01*
X7395610Y-17317484D02*
X7376562Y-17317484D01*
X7376562Y-17317484D02*
X7357515Y-17307960D01*
X7357515Y-17307960D02*
X7347991Y-17298436D01*
X7347991Y-17298436D02*
X7338467Y-17279389D01*
X7338467Y-17279389D02*
X7328943Y-17241293D01*
X7328943Y-17241293D02*
X7328943Y-17193674D01*
X7328943Y-17193674D02*
X7338467Y-17155579D01*
X7338467Y-17155579D02*
X7347991Y-17136531D01*
X7347991Y-17136531D02*
X7357515Y-17127008D01*
X7357515Y-17127008D02*
X7376562Y-17117484D01*
X7567039Y-17117484D02*
X7586086Y-17117484D01*
X7586086Y-17117484D02*
X7605134Y-17127008D01*
X7605134Y-17127008D02*
X7614658Y-17136531D01*
X7614658Y-17136531D02*
X7624182Y-17155579D01*
X7624182Y-17155579D02*
X7633705Y-17193674D01*
X7633705Y-17193674D02*
X7633705Y-17241293D01*
X7633705Y-17241293D02*
X7624182Y-17279389D01*
X7624182Y-17279389D02*
X7614658Y-17298436D01*
X7614658Y-17298436D02*
X7605134Y-17307960D01*
X7605134Y-17307960D02*
X7586086Y-17317484D01*
X7586086Y-17317484D02*
X7567039Y-17317484D01*
X7567039Y-17317484D02*
X7547991Y-17307960D01*
X7547991Y-17307960D02*
X7538467Y-17298436D01*
X7538467Y-17298436D02*
X7528943Y-17279389D01*
X7528943Y-17279389D02*
X7519420Y-17241293D01*
X7519420Y-17241293D02*
X7519420Y-17193674D01*
X7519420Y-17193674D02*
X7528943Y-17155579D01*
X7528943Y-17155579D02*
X7538467Y-17136531D01*
X7538467Y-17136531D02*
X7547991Y-17127008D01*
X7547991Y-17127008D02*
X7567039Y-17117484D01*
X7719420Y-17317484D02*
X7719420Y-17184150D01*
X7719420Y-17203198D02*
X7728943Y-17193674D01*
X7728943Y-17193674D02*
X7747991Y-17184150D01*
X7747991Y-17184150D02*
X7776563Y-17184150D01*
X7776563Y-17184150D02*
X7795610Y-17193674D01*
X7795610Y-17193674D02*
X7805134Y-17212722D01*
X7805134Y-17212722D02*
X7805134Y-17317484D01*
X7805134Y-17212722D02*
X7814658Y-17193674D01*
X7814658Y-17193674D02*
X7833705Y-17184150D01*
X7833705Y-17184150D02*
X7862277Y-17184150D01*
X7862277Y-17184150D02*
X7881324Y-17193674D01*
X7881324Y-17193674D02*
X7890848Y-17212722D01*
X7890848Y-17212722D02*
X7890848Y-17317484D01*
X7986086Y-17317484D02*
X7986086Y-17184150D01*
X7986086Y-17203198D02*
X7995610Y-17193674D01*
X7995610Y-17193674D02*
X8014658Y-17184150D01*
X8014658Y-17184150D02*
X8043229Y-17184150D01*
X8043229Y-17184150D02*
X8062277Y-17193674D01*
X8062277Y-17193674D02*
X8071801Y-17212722D01*
X8071801Y-17212722D02*
X8071801Y-17317484D01*
X8071801Y-17212722D02*
X8081324Y-17193674D01*
X8081324Y-17193674D02*
X8100372Y-17184150D01*
X8100372Y-17184150D02*
X8128943Y-17184150D01*
X8128943Y-17184150D02*
X8147991Y-17193674D01*
X8147991Y-17193674D02*
X8157515Y-17212722D01*
X8157515Y-17212722D02*
X8157515Y-17317484D01*
X8547991Y-17107960D02*
X8376563Y-17365103D01*
X8805134Y-17117484D02*
X8824182Y-17117484D01*
X8824182Y-17117484D02*
X8843229Y-17127008D01*
X8843229Y-17127008D02*
X8852753Y-17136531D01*
X8852753Y-17136531D02*
X8862277Y-17155579D01*
X8862277Y-17155579D02*
X8871801Y-17193674D01*
X8871801Y-17193674D02*
X8871801Y-17241293D01*
X8871801Y-17241293D02*
X8862277Y-17279389D01*
X8862277Y-17279389D02*
X8852753Y-17298436D01*
X8852753Y-17298436D02*
X8843229Y-17307960D01*
X8843229Y-17307960D02*
X8824182Y-17317484D01*
X8824182Y-17317484D02*
X8805134Y-17317484D01*
X8805134Y-17317484D02*
X8786087Y-17307960D01*
X8786087Y-17307960D02*
X8776563Y-17298436D01*
X8776563Y-17298436D02*
X8767039Y-17279389D01*
X8767039Y-17279389D02*
X8757515Y-17241293D01*
X8757515Y-17241293D02*
X8757515Y-17193674D01*
X8757515Y-17193674D02*
X8767039Y-17155579D01*
X8767039Y-17155579D02*
X8776563Y-17136531D01*
X8776563Y-17136531D02*
X8786087Y-17127008D01*
X8786087Y-17127008D02*
X8805134Y-17117484D01*
X8957515Y-17298436D02*
X8967039Y-17307960D01*
X8967039Y-17307960D02*
X8957515Y-17317484D01*
X8957515Y-17317484D02*
X8947991Y-17307960D01*
X8947991Y-17307960D02*
X8957515Y-17298436D01*
X8957515Y-17298436D02*
X8957515Y-17317484D01*
X9090848Y-17117484D02*
X9109896Y-17117484D01*
X9109896Y-17117484D02*
X9128944Y-17127008D01*
X9128944Y-17127008D02*
X9138468Y-17136531D01*
X9138468Y-17136531D02*
X9147991Y-17155579D01*
X9147991Y-17155579D02*
X9157515Y-17193674D01*
X9157515Y-17193674D02*
X9157515Y-17241293D01*
X9157515Y-17241293D02*
X9147991Y-17279389D01*
X9147991Y-17279389D02*
X9138468Y-17298436D01*
X9138468Y-17298436D02*
X9128944Y-17307960D01*
X9128944Y-17307960D02*
X9109896Y-17317484D01*
X9109896Y-17317484D02*
X9090848Y-17317484D01*
X9090848Y-17317484D02*
X9071801Y-17307960D01*
X9071801Y-17307960D02*
X9062277Y-17298436D01*
X9062277Y-17298436D02*
X9052753Y-17279389D01*
X9052753Y-17279389D02*
X9043229Y-17241293D01*
X9043229Y-17241293D02*
X9043229Y-17193674D01*
X9043229Y-17193674D02*
X9052753Y-17155579D01*
X9052753Y-17155579D02*
X9062277Y-17136531D01*
X9062277Y-17136531D02*
X9071801Y-17127008D01*
X9071801Y-17127008D02*
X9090848Y-17117484D01*
X9233706Y-17136531D02*
X9243229Y-17127008D01*
X9243229Y-17127008D02*
X9262277Y-17117484D01*
X9262277Y-17117484D02*
X9309896Y-17117484D01*
X9309896Y-17117484D02*
X9328944Y-17127008D01*
X9328944Y-17127008D02*
X9338468Y-17136531D01*
X9338468Y-17136531D02*
X9347991Y-17155579D01*
X9347991Y-17155579D02*
X9347991Y-17174627D01*
X9347991Y-17174627D02*
X9338468Y-17203198D01*
X9338468Y-17203198D02*
X9224182Y-17317484D01*
X9224182Y-17317484D02*
X9347991Y-17317484D01*
X9414658Y-17117484D02*
X9538468Y-17117484D01*
X9538468Y-17117484D02*
X9471801Y-17193674D01*
X9471801Y-17193674D02*
X9500372Y-17193674D01*
X9500372Y-17193674D02*
X9519420Y-17203198D01*
X9519420Y-17203198D02*
X9528944Y-17212722D01*
X9528944Y-17212722D02*
X9538468Y-17231770D01*
X9538468Y-17231770D02*
X9538468Y-17279389D01*
X9538468Y-17279389D02*
X9528944Y-17298436D01*
X9528944Y-17298436D02*
X9519420Y-17307960D01*
X9519420Y-17307960D02*
X9500372Y-17317484D01*
X9500372Y-17317484D02*
X9443229Y-17317484D01*
X9443229Y-17317484D02*
X9424182Y-17307960D01*
X9424182Y-17307960D02*
X9414658Y-17298436D01*
X9709896Y-17117484D02*
X9671801Y-17117484D01*
X9671801Y-17117484D02*
X9652753Y-17127008D01*
X9652753Y-17127008D02*
X9643229Y-17136531D01*
X9643229Y-17136531D02*
X9624182Y-17165103D01*
X9624182Y-17165103D02*
X9614658Y-17203198D01*
X9614658Y-17203198D02*
X9614658Y-17279389D01*
X9614658Y-17279389D02*
X9624182Y-17298436D01*
X9624182Y-17298436D02*
X9633706Y-17307960D01*
X9633706Y-17307960D02*
X9652753Y-17317484D01*
X9652753Y-17317484D02*
X9690849Y-17317484D01*
X9690849Y-17317484D02*
X9709896Y-17307960D01*
X9709896Y-17307960D02*
X9719420Y-17298436D01*
X9719420Y-17298436D02*
X9728944Y-17279389D01*
X9728944Y-17279389D02*
X9728944Y-17231770D01*
X9728944Y-17231770D02*
X9719420Y-17212722D01*
X9719420Y-17212722D02*
X9709896Y-17203198D01*
X9709896Y-17203198D02*
X9690849Y-17193674D01*
X9690849Y-17193674D02*
X9652753Y-17193674D01*
X9652753Y-17193674D02*
X9633706Y-17203198D01*
X9633706Y-17203198D02*
X9624182Y-17212722D01*
X9624182Y-17212722D02*
X9614658Y-17231770D01*
X9805134Y-17117484D02*
X9805134Y-17155579D01*
X9881325Y-17117484D02*
X9881325Y-17155579D01*
X10176563Y-17393674D02*
X10167039Y-17384150D01*
X10167039Y-17384150D02*
X10147991Y-17355579D01*
X10147991Y-17355579D02*
X10138468Y-17336531D01*
X10138468Y-17336531D02*
X10128944Y-17307960D01*
X10128944Y-17307960D02*
X10119420Y-17260341D01*
X10119420Y-17260341D02*
X10119420Y-17222246D01*
X10119420Y-17222246D02*
X10128944Y-17174627D01*
X10128944Y-17174627D02*
X10138468Y-17146055D01*
X10138468Y-17146055D02*
X10147991Y-17127008D01*
X10147991Y-17127008D02*
X10167039Y-17098436D01*
X10167039Y-17098436D02*
X10176563Y-17088912D01*
X10290849Y-17117484D02*
X10309896Y-17117484D01*
X10309896Y-17117484D02*
X10328944Y-17127008D01*
X10328944Y-17127008D02*
X10338468Y-17136531D01*
X10338468Y-17136531D02*
X10347991Y-17155579D01*
X10347991Y-17155579D02*
X10357515Y-17193674D01*
X10357515Y-17193674D02*
X10357515Y-17241293D01*
X10357515Y-17241293D02*
X10347991Y-17279389D01*
X10347991Y-17279389D02*
X10338468Y-17298436D01*
X10338468Y-17298436D02*
X10328944Y-17307960D01*
X10328944Y-17307960D02*
X10309896Y-17317484D01*
X10309896Y-17317484D02*
X10290849Y-17317484D01*
X10290849Y-17317484D02*
X10271801Y-17307960D01*
X10271801Y-17307960D02*
X10262277Y-17298436D01*
X10262277Y-17298436D02*
X10252753Y-17279389D01*
X10252753Y-17279389D02*
X10243230Y-17241293D01*
X10243230Y-17241293D02*
X10243230Y-17193674D01*
X10243230Y-17193674D02*
X10252753Y-17155579D01*
X10252753Y-17155579D02*
X10262277Y-17136531D01*
X10262277Y-17136531D02*
X10271801Y-17127008D01*
X10271801Y-17127008D02*
X10290849Y-17117484D01*
X10595611Y-17317484D02*
X10595611Y-17117484D01*
X10681325Y-17317484D02*
X10681325Y-17212722D01*
X10681325Y-17212722D02*
X10671801Y-17193674D01*
X10671801Y-17193674D02*
X10652753Y-17184150D01*
X10652753Y-17184150D02*
X10624182Y-17184150D01*
X10624182Y-17184150D02*
X10605134Y-17193674D01*
X10605134Y-17193674D02*
X10595611Y-17203198D01*
X10805134Y-17317484D02*
X10786087Y-17307960D01*
X10786087Y-17307960D02*
X10776563Y-17298436D01*
X10776563Y-17298436D02*
X10767039Y-17279389D01*
X10767039Y-17279389D02*
X10767039Y-17222246D01*
X10767039Y-17222246D02*
X10776563Y-17203198D01*
X10776563Y-17203198D02*
X10786087Y-17193674D01*
X10786087Y-17193674D02*
X10805134Y-17184150D01*
X10805134Y-17184150D02*
X10833706Y-17184150D01*
X10833706Y-17184150D02*
X10852753Y-17193674D01*
X10852753Y-17193674D02*
X10862277Y-17203198D01*
X10862277Y-17203198D02*
X10871801Y-17222246D01*
X10871801Y-17222246D02*
X10871801Y-17279389D01*
X10871801Y-17279389D02*
X10862277Y-17298436D01*
X10862277Y-17298436D02*
X10852753Y-17307960D01*
X10852753Y-17307960D02*
X10833706Y-17317484D01*
X10833706Y-17317484D02*
X10805134Y-17317484D01*
X10986087Y-17317484D02*
X10967039Y-17307960D01*
X10967039Y-17307960D02*
X10957515Y-17288912D01*
X10957515Y-17288912D02*
X10957515Y-17117484D01*
X11138468Y-17307960D02*
X11119420Y-17317484D01*
X11119420Y-17317484D02*
X11081325Y-17317484D01*
X11081325Y-17317484D02*
X11062277Y-17307960D01*
X11062277Y-17307960D02*
X11052753Y-17288912D01*
X11052753Y-17288912D02*
X11052753Y-17212722D01*
X11052753Y-17212722D02*
X11062277Y-17193674D01*
X11062277Y-17193674D02*
X11081325Y-17184150D01*
X11081325Y-17184150D02*
X11119420Y-17184150D01*
X11119420Y-17184150D02*
X11138468Y-17193674D01*
X11138468Y-17193674D02*
X11147992Y-17212722D01*
X11147992Y-17212722D02*
X11147992Y-17231770D01*
X11147992Y-17231770D02*
X11052753Y-17250817D01*
X11224182Y-17307960D02*
X11243230Y-17317484D01*
X11243230Y-17317484D02*
X11281325Y-17317484D01*
X11281325Y-17317484D02*
X11300372Y-17307960D01*
X11300372Y-17307960D02*
X11309896Y-17288912D01*
X11309896Y-17288912D02*
X11309896Y-17279389D01*
X11309896Y-17279389D02*
X11300372Y-17260341D01*
X11300372Y-17260341D02*
X11281325Y-17250817D01*
X11281325Y-17250817D02*
X11252753Y-17250817D01*
X11252753Y-17250817D02*
X11233706Y-17241293D01*
X11233706Y-17241293D02*
X11224182Y-17222246D01*
X11224182Y-17222246D02*
X11224182Y-17212722D01*
X11224182Y-17212722D02*
X11233706Y-17193674D01*
X11233706Y-17193674D02*
X11252753Y-17184150D01*
X11252753Y-17184150D02*
X11281325Y-17184150D01*
X11281325Y-17184150D02*
X11300372Y-17193674D01*
X11547992Y-17241293D02*
X11700373Y-17241293D01*
X11624182Y-17317484D02*
X11624182Y-17165103D01*
X12033706Y-17184150D02*
X12033706Y-17317484D01*
X11986087Y-17107960D02*
X11938468Y-17250817D01*
X11938468Y-17250817D02*
X12062277Y-17250817D01*
X12281325Y-17307960D02*
X12300373Y-17317484D01*
X12300373Y-17317484D02*
X12338468Y-17317484D01*
X12338468Y-17317484D02*
X12357515Y-17307960D01*
X12357515Y-17307960D02*
X12367039Y-17288912D01*
X12367039Y-17288912D02*
X12367039Y-17279389D01*
X12367039Y-17279389D02*
X12357515Y-17260341D01*
X12357515Y-17260341D02*
X12338468Y-17250817D01*
X12338468Y-17250817D02*
X12309896Y-17250817D01*
X12309896Y-17250817D02*
X12290849Y-17241293D01*
X12290849Y-17241293D02*
X12281325Y-17222246D01*
X12281325Y-17222246D02*
X12281325Y-17212722D01*
X12281325Y-17212722D02*
X12290849Y-17193674D01*
X12290849Y-17193674D02*
X12309896Y-17184150D01*
X12309896Y-17184150D02*
X12338468Y-17184150D01*
X12338468Y-17184150D02*
X12357515Y-17193674D01*
X12481325Y-17317484D02*
X12462277Y-17307960D01*
X12462277Y-17307960D02*
X12452754Y-17288912D01*
X12452754Y-17288912D02*
X12452754Y-17117484D01*
X12586087Y-17317484D02*
X12567039Y-17307960D01*
X12567039Y-17307960D02*
X12557515Y-17298436D01*
X12557515Y-17298436D02*
X12547992Y-17279389D01*
X12547992Y-17279389D02*
X12547992Y-17222246D01*
X12547992Y-17222246D02*
X12557515Y-17203198D01*
X12557515Y-17203198D02*
X12567039Y-17193674D01*
X12567039Y-17193674D02*
X12586087Y-17184150D01*
X12586087Y-17184150D02*
X12614658Y-17184150D01*
X12614658Y-17184150D02*
X12633706Y-17193674D01*
X12633706Y-17193674D02*
X12643230Y-17203198D01*
X12643230Y-17203198D02*
X12652754Y-17222246D01*
X12652754Y-17222246D02*
X12652754Y-17279389D01*
X12652754Y-17279389D02*
X12643230Y-17298436D01*
X12643230Y-17298436D02*
X12633706Y-17307960D01*
X12633706Y-17307960D02*
X12614658Y-17317484D01*
X12614658Y-17317484D02*
X12586087Y-17317484D01*
X12709896Y-17184150D02*
X12786087Y-17184150D01*
X12738468Y-17117484D02*
X12738468Y-17288912D01*
X12738468Y-17288912D02*
X12747992Y-17307960D01*
X12747992Y-17307960D02*
X12767039Y-17317484D01*
X12767039Y-17317484D02*
X12786087Y-17317484D01*
X12843230Y-17307960D02*
X12862277Y-17317484D01*
X12862277Y-17317484D02*
X12900373Y-17317484D01*
X12900373Y-17317484D02*
X12919420Y-17307960D01*
X12919420Y-17307960D02*
X12928944Y-17288912D01*
X12928944Y-17288912D02*
X12928944Y-17279389D01*
X12928944Y-17279389D02*
X12919420Y-17260341D01*
X12919420Y-17260341D02*
X12900373Y-17250817D01*
X12900373Y-17250817D02*
X12871801Y-17250817D01*
X12871801Y-17250817D02*
X12852754Y-17241293D01*
X12852754Y-17241293D02*
X12843230Y-17222246D01*
X12843230Y-17222246D02*
X12843230Y-17212722D01*
X12843230Y-17212722D02*
X12852754Y-17193674D01*
X12852754Y-17193674D02*
X12871801Y-17184150D01*
X12871801Y-17184150D02*
X12900373Y-17184150D01*
X12900373Y-17184150D02*
X12919420Y-17193674D01*
X12995611Y-17393674D02*
X13005135Y-17384150D01*
X13005135Y-17384150D02*
X13024182Y-17355579D01*
X13024182Y-17355579D02*
X13033706Y-17336531D01*
X13033706Y-17336531D02*
X13043230Y-17307960D01*
X13043230Y-17307960D02*
X13052754Y-17260341D01*
X13052754Y-17260341D02*
X13052754Y-17222246D01*
X13052754Y-17222246D02*
X13043230Y-17174627D01*
X13043230Y-17174627D02*
X13033706Y-17146055D01*
X13033706Y-17146055D02*
X13024182Y-17127008D01*
X13024182Y-17127008D02*
X13005135Y-17098436D01*
X13005135Y-17098436D02*
X12995611Y-17088912D01*
D12*
X6566500Y-17455000D02*
X6566500Y-17525000D01*
X6531500Y-17490000D02*
X6601500Y-17490000D01*
D11*
X6900372Y-17381484D02*
X6919420Y-17381484D01*
X6919420Y-17381484D02*
X6938467Y-17391008D01*
X6938467Y-17391008D02*
X6947991Y-17400531D01*
X6947991Y-17400531D02*
X6957515Y-17419579D01*
X6957515Y-17419579D02*
X6967039Y-17457674D01*
X6967039Y-17457674D02*
X6967039Y-17505293D01*
X6967039Y-17505293D02*
X6957515Y-17543389D01*
X6957515Y-17543389D02*
X6947991Y-17562436D01*
X6947991Y-17562436D02*
X6938467Y-17571960D01*
X6938467Y-17571960D02*
X6919420Y-17581484D01*
X6919420Y-17581484D02*
X6900372Y-17581484D01*
X6900372Y-17581484D02*
X6881324Y-17571960D01*
X6881324Y-17571960D02*
X6871801Y-17562436D01*
X6871801Y-17562436D02*
X6862277Y-17543389D01*
X6862277Y-17543389D02*
X6852753Y-17505293D01*
X6852753Y-17505293D02*
X6852753Y-17457674D01*
X6852753Y-17457674D02*
X6862277Y-17419579D01*
X6862277Y-17419579D02*
X6871801Y-17400531D01*
X6871801Y-17400531D02*
X6881324Y-17391008D01*
X6881324Y-17391008D02*
X6900372Y-17381484D01*
X7052753Y-17562436D02*
X7062277Y-17571960D01*
X7062277Y-17571960D02*
X7052753Y-17581484D01*
X7052753Y-17581484D02*
X7043229Y-17571960D01*
X7043229Y-17571960D02*
X7052753Y-17562436D01*
X7052753Y-17562436D02*
X7052753Y-17581484D01*
X7128943Y-17381484D02*
X7262277Y-17381484D01*
X7262277Y-17381484D02*
X7176562Y-17581484D01*
X7376562Y-17381484D02*
X7395610Y-17381484D01*
X7395610Y-17381484D02*
X7414658Y-17391008D01*
X7414658Y-17391008D02*
X7424182Y-17400531D01*
X7424182Y-17400531D02*
X7433705Y-17419579D01*
X7433705Y-17419579D02*
X7443229Y-17457674D01*
X7443229Y-17457674D02*
X7443229Y-17505293D01*
X7443229Y-17505293D02*
X7433705Y-17543389D01*
X7433705Y-17543389D02*
X7424182Y-17562436D01*
X7424182Y-17562436D02*
X7414658Y-17571960D01*
X7414658Y-17571960D02*
X7395610Y-17581484D01*
X7395610Y-17581484D02*
X7376562Y-17581484D01*
X7376562Y-17581484D02*
X7357515Y-17571960D01*
X7357515Y-17571960D02*
X7347991Y-17562436D01*
X7347991Y-17562436D02*
X7338467Y-17543389D01*
X7338467Y-17543389D02*
X7328943Y-17505293D01*
X7328943Y-17505293D02*
X7328943Y-17457674D01*
X7328943Y-17457674D02*
X7338467Y-17419579D01*
X7338467Y-17419579D02*
X7347991Y-17400531D01*
X7347991Y-17400531D02*
X7357515Y-17391008D01*
X7357515Y-17391008D02*
X7376562Y-17381484D01*
X7567039Y-17381484D02*
X7586086Y-17381484D01*
X7586086Y-17381484D02*
X7605134Y-17391008D01*
X7605134Y-17391008D02*
X7614658Y-17400531D01*
X7614658Y-17400531D02*
X7624182Y-17419579D01*
X7624182Y-17419579D02*
X7633705Y-17457674D01*
X7633705Y-17457674D02*
X7633705Y-17505293D01*
X7633705Y-17505293D02*
X7624182Y-17543389D01*
X7624182Y-17543389D02*
X7614658Y-17562436D01*
X7614658Y-17562436D02*
X7605134Y-17571960D01*
X7605134Y-17571960D02*
X7586086Y-17581484D01*
X7586086Y-17581484D02*
X7567039Y-17581484D01*
X7567039Y-17581484D02*
X7547991Y-17571960D01*
X7547991Y-17571960D02*
X7538467Y-17562436D01*
X7538467Y-17562436D02*
X7528943Y-17543389D01*
X7528943Y-17543389D02*
X7519420Y-17505293D01*
X7519420Y-17505293D02*
X7519420Y-17457674D01*
X7519420Y-17457674D02*
X7528943Y-17419579D01*
X7528943Y-17419579D02*
X7538467Y-17400531D01*
X7538467Y-17400531D02*
X7547991Y-17391008D01*
X7547991Y-17391008D02*
X7567039Y-17381484D01*
X7719420Y-17581484D02*
X7719420Y-17448150D01*
X7719420Y-17467198D02*
X7728943Y-17457674D01*
X7728943Y-17457674D02*
X7747991Y-17448150D01*
X7747991Y-17448150D02*
X7776563Y-17448150D01*
X7776563Y-17448150D02*
X7795610Y-17457674D01*
X7795610Y-17457674D02*
X7805134Y-17476722D01*
X7805134Y-17476722D02*
X7805134Y-17581484D01*
X7805134Y-17476722D02*
X7814658Y-17457674D01*
X7814658Y-17457674D02*
X7833705Y-17448150D01*
X7833705Y-17448150D02*
X7862277Y-17448150D01*
X7862277Y-17448150D02*
X7881324Y-17457674D01*
X7881324Y-17457674D02*
X7890848Y-17476722D01*
X7890848Y-17476722D02*
X7890848Y-17581484D01*
X7986086Y-17581484D02*
X7986086Y-17448150D01*
X7986086Y-17467198D02*
X7995610Y-17457674D01*
X7995610Y-17457674D02*
X8014658Y-17448150D01*
X8014658Y-17448150D02*
X8043229Y-17448150D01*
X8043229Y-17448150D02*
X8062277Y-17457674D01*
X8062277Y-17457674D02*
X8071801Y-17476722D01*
X8071801Y-17476722D02*
X8071801Y-17581484D01*
X8071801Y-17476722D02*
X8081324Y-17457674D01*
X8081324Y-17457674D02*
X8100372Y-17448150D01*
X8100372Y-17448150D02*
X8128943Y-17448150D01*
X8128943Y-17448150D02*
X8147991Y-17457674D01*
X8147991Y-17457674D02*
X8157515Y-17476722D01*
X8157515Y-17476722D02*
X8157515Y-17581484D01*
X8547991Y-17371960D02*
X8376563Y-17629103D01*
X8805134Y-17381484D02*
X8824182Y-17381484D01*
X8824182Y-17381484D02*
X8843229Y-17391008D01*
X8843229Y-17391008D02*
X8852753Y-17400531D01*
X8852753Y-17400531D02*
X8862277Y-17419579D01*
X8862277Y-17419579D02*
X8871801Y-17457674D01*
X8871801Y-17457674D02*
X8871801Y-17505293D01*
X8871801Y-17505293D02*
X8862277Y-17543389D01*
X8862277Y-17543389D02*
X8852753Y-17562436D01*
X8852753Y-17562436D02*
X8843229Y-17571960D01*
X8843229Y-17571960D02*
X8824182Y-17581484D01*
X8824182Y-17581484D02*
X8805134Y-17581484D01*
X8805134Y-17581484D02*
X8786087Y-17571960D01*
X8786087Y-17571960D02*
X8776563Y-17562436D01*
X8776563Y-17562436D02*
X8767039Y-17543389D01*
X8767039Y-17543389D02*
X8757515Y-17505293D01*
X8757515Y-17505293D02*
X8757515Y-17457674D01*
X8757515Y-17457674D02*
X8767039Y-17419579D01*
X8767039Y-17419579D02*
X8776563Y-17400531D01*
X8776563Y-17400531D02*
X8786087Y-17391008D01*
X8786087Y-17391008D02*
X8805134Y-17381484D01*
X8957515Y-17562436D02*
X8967039Y-17571960D01*
X8967039Y-17571960D02*
X8957515Y-17581484D01*
X8957515Y-17581484D02*
X8947991Y-17571960D01*
X8947991Y-17571960D02*
X8957515Y-17562436D01*
X8957515Y-17562436D02*
X8957515Y-17581484D01*
X9090848Y-17381484D02*
X9109896Y-17381484D01*
X9109896Y-17381484D02*
X9128944Y-17391008D01*
X9128944Y-17391008D02*
X9138468Y-17400531D01*
X9138468Y-17400531D02*
X9147991Y-17419579D01*
X9147991Y-17419579D02*
X9157515Y-17457674D01*
X9157515Y-17457674D02*
X9157515Y-17505293D01*
X9157515Y-17505293D02*
X9147991Y-17543389D01*
X9147991Y-17543389D02*
X9138468Y-17562436D01*
X9138468Y-17562436D02*
X9128944Y-17571960D01*
X9128944Y-17571960D02*
X9109896Y-17581484D01*
X9109896Y-17581484D02*
X9090848Y-17581484D01*
X9090848Y-17581484D02*
X9071801Y-17571960D01*
X9071801Y-17571960D02*
X9062277Y-17562436D01*
X9062277Y-17562436D02*
X9052753Y-17543389D01*
X9052753Y-17543389D02*
X9043229Y-17505293D01*
X9043229Y-17505293D02*
X9043229Y-17457674D01*
X9043229Y-17457674D02*
X9052753Y-17419579D01*
X9052753Y-17419579D02*
X9062277Y-17400531D01*
X9062277Y-17400531D02*
X9071801Y-17391008D01*
X9071801Y-17391008D02*
X9090848Y-17381484D01*
X9233706Y-17400531D02*
X9243229Y-17391008D01*
X9243229Y-17391008D02*
X9262277Y-17381484D01*
X9262277Y-17381484D02*
X9309896Y-17381484D01*
X9309896Y-17381484D02*
X9328944Y-17391008D01*
X9328944Y-17391008D02*
X9338468Y-17400531D01*
X9338468Y-17400531D02*
X9347991Y-17419579D01*
X9347991Y-17419579D02*
X9347991Y-17438627D01*
X9347991Y-17438627D02*
X9338468Y-17467198D01*
X9338468Y-17467198D02*
X9224182Y-17581484D01*
X9224182Y-17581484D02*
X9347991Y-17581484D01*
X9414658Y-17381484D02*
X9547991Y-17381484D01*
X9547991Y-17381484D02*
X9462277Y-17581484D01*
X9709896Y-17381484D02*
X9671801Y-17381484D01*
X9671801Y-17381484D02*
X9652753Y-17391008D01*
X9652753Y-17391008D02*
X9643229Y-17400531D01*
X9643229Y-17400531D02*
X9624182Y-17429103D01*
X9624182Y-17429103D02*
X9614658Y-17467198D01*
X9614658Y-17467198D02*
X9614658Y-17543389D01*
X9614658Y-17543389D02*
X9624182Y-17562436D01*
X9624182Y-17562436D02*
X9633706Y-17571960D01*
X9633706Y-17571960D02*
X9652753Y-17581484D01*
X9652753Y-17581484D02*
X9690849Y-17581484D01*
X9690849Y-17581484D02*
X9709896Y-17571960D01*
X9709896Y-17571960D02*
X9719420Y-17562436D01*
X9719420Y-17562436D02*
X9728944Y-17543389D01*
X9728944Y-17543389D02*
X9728944Y-17495770D01*
X9728944Y-17495770D02*
X9719420Y-17476722D01*
X9719420Y-17476722D02*
X9709896Y-17467198D01*
X9709896Y-17467198D02*
X9690849Y-17457674D01*
X9690849Y-17457674D02*
X9652753Y-17457674D01*
X9652753Y-17457674D02*
X9633706Y-17467198D01*
X9633706Y-17467198D02*
X9624182Y-17476722D01*
X9624182Y-17476722D02*
X9614658Y-17495770D01*
X9805134Y-17381484D02*
X9805134Y-17419579D01*
X9881325Y-17381484D02*
X9881325Y-17419579D01*
X10176563Y-17657674D02*
X10167039Y-17648150D01*
X10167039Y-17648150D02*
X10147991Y-17619579D01*
X10147991Y-17619579D02*
X10138468Y-17600531D01*
X10138468Y-17600531D02*
X10128944Y-17571960D01*
X10128944Y-17571960D02*
X10119420Y-17524341D01*
X10119420Y-17524341D02*
X10119420Y-17486246D01*
X10119420Y-17486246D02*
X10128944Y-17438627D01*
X10128944Y-17438627D02*
X10138468Y-17410055D01*
X10138468Y-17410055D02*
X10147991Y-17391008D01*
X10147991Y-17391008D02*
X10167039Y-17362436D01*
X10167039Y-17362436D02*
X10176563Y-17352912D01*
X10357515Y-17581484D02*
X10243230Y-17581484D01*
X10300372Y-17581484D02*
X10300372Y-17381484D01*
X10300372Y-17381484D02*
X10281325Y-17410055D01*
X10281325Y-17410055D02*
X10262277Y-17429103D01*
X10262277Y-17429103D02*
X10243230Y-17438627D01*
X10528944Y-17448150D02*
X10528944Y-17581484D01*
X10481325Y-17371960D02*
X10433706Y-17514817D01*
X10433706Y-17514817D02*
X10557515Y-17514817D01*
X10786087Y-17581484D02*
X10786087Y-17381484D01*
X10871801Y-17581484D02*
X10871801Y-17476722D01*
X10871801Y-17476722D02*
X10862277Y-17457674D01*
X10862277Y-17457674D02*
X10843230Y-17448150D01*
X10843230Y-17448150D02*
X10814658Y-17448150D01*
X10814658Y-17448150D02*
X10795611Y-17457674D01*
X10795611Y-17457674D02*
X10786087Y-17467198D01*
X10995611Y-17581484D02*
X10976563Y-17571960D01*
X10976563Y-17571960D02*
X10967039Y-17562436D01*
X10967039Y-17562436D02*
X10957515Y-17543389D01*
X10957515Y-17543389D02*
X10957515Y-17486246D01*
X10957515Y-17486246D02*
X10967039Y-17467198D01*
X10967039Y-17467198D02*
X10976563Y-17457674D01*
X10976563Y-17457674D02*
X10995611Y-17448150D01*
X10995611Y-17448150D02*
X11024182Y-17448150D01*
X11024182Y-17448150D02*
X11043230Y-17457674D01*
X11043230Y-17457674D02*
X11052753Y-17467198D01*
X11052753Y-17467198D02*
X11062277Y-17486246D01*
X11062277Y-17486246D02*
X11062277Y-17543389D01*
X11062277Y-17543389D02*
X11052753Y-17562436D01*
X11052753Y-17562436D02*
X11043230Y-17571960D01*
X11043230Y-17571960D02*
X11024182Y-17581484D01*
X11024182Y-17581484D02*
X10995611Y-17581484D01*
X11176563Y-17581484D02*
X11157515Y-17571960D01*
X11157515Y-17571960D02*
X11147992Y-17552912D01*
X11147992Y-17552912D02*
X11147992Y-17381484D01*
X11328944Y-17571960D02*
X11309896Y-17581484D01*
X11309896Y-17581484D02*
X11271801Y-17581484D01*
X11271801Y-17581484D02*
X11252753Y-17571960D01*
X11252753Y-17571960D02*
X11243230Y-17552912D01*
X11243230Y-17552912D02*
X11243230Y-17476722D01*
X11243230Y-17476722D02*
X11252753Y-17457674D01*
X11252753Y-17457674D02*
X11271801Y-17448150D01*
X11271801Y-17448150D02*
X11309896Y-17448150D01*
X11309896Y-17448150D02*
X11328944Y-17457674D01*
X11328944Y-17457674D02*
X11338468Y-17476722D01*
X11338468Y-17476722D02*
X11338468Y-17495770D01*
X11338468Y-17495770D02*
X11243230Y-17514817D01*
X11414658Y-17571960D02*
X11433706Y-17581484D01*
X11433706Y-17581484D02*
X11471801Y-17581484D01*
X11471801Y-17581484D02*
X11490849Y-17571960D01*
X11490849Y-17571960D02*
X11500372Y-17552912D01*
X11500372Y-17552912D02*
X11500372Y-17543389D01*
X11500372Y-17543389D02*
X11490849Y-17524341D01*
X11490849Y-17524341D02*
X11471801Y-17514817D01*
X11471801Y-17514817D02*
X11443230Y-17514817D01*
X11443230Y-17514817D02*
X11424182Y-17505293D01*
X11424182Y-17505293D02*
X11414658Y-17486246D01*
X11414658Y-17486246D02*
X11414658Y-17476722D01*
X11414658Y-17476722D02*
X11424182Y-17457674D01*
X11424182Y-17457674D02*
X11443230Y-17448150D01*
X11443230Y-17448150D02*
X11471801Y-17448150D01*
X11471801Y-17448150D02*
X11490849Y-17457674D01*
X11567039Y-17657674D02*
X11576563Y-17648150D01*
X11576563Y-17648150D02*
X11595611Y-17619579D01*
X11595611Y-17619579D02*
X11605134Y-17600531D01*
X11605134Y-17600531D02*
X11614658Y-17571960D01*
X11614658Y-17571960D02*
X11624182Y-17524341D01*
X11624182Y-17524341D02*
X11624182Y-17486246D01*
X11624182Y-17486246D02*
X11614658Y-17438627D01*
X11614658Y-17438627D02*
X11605134Y-17410055D01*
X11605134Y-17410055D02*
X11595611Y-17391008D01*
X11595611Y-17391008D02*
X11576563Y-17362436D01*
X11576563Y-17362436D02*
X11567039Y-17352912D01*
D12*
X6589784Y-17782285D02*
X6589784Y-17725716D01*
X6533215Y-17725716D01*
X6533215Y-17782285D01*
X6589784Y-17782285D01*
D11*
X6900372Y-17645484D02*
X6919420Y-17645484D01*
X6919420Y-17645484D02*
X6938467Y-17655008D01*
X6938467Y-17655008D02*
X6947991Y-17664531D01*
X6947991Y-17664531D02*
X6957515Y-17683579D01*
X6957515Y-17683579D02*
X6967039Y-17721674D01*
X6967039Y-17721674D02*
X6967039Y-17769293D01*
X6967039Y-17769293D02*
X6957515Y-17807389D01*
X6957515Y-17807389D02*
X6947991Y-17826436D01*
X6947991Y-17826436D02*
X6938467Y-17835960D01*
X6938467Y-17835960D02*
X6919420Y-17845484D01*
X6919420Y-17845484D02*
X6900372Y-17845484D01*
X6900372Y-17845484D02*
X6881324Y-17835960D01*
X6881324Y-17835960D02*
X6871801Y-17826436D01*
X6871801Y-17826436D02*
X6862277Y-17807389D01*
X6862277Y-17807389D02*
X6852753Y-17769293D01*
X6852753Y-17769293D02*
X6852753Y-17721674D01*
X6852753Y-17721674D02*
X6862277Y-17683579D01*
X6862277Y-17683579D02*
X6871801Y-17664531D01*
X6871801Y-17664531D02*
X6881324Y-17655008D01*
X6881324Y-17655008D02*
X6900372Y-17645484D01*
X7052753Y-17826436D02*
X7062277Y-17835960D01*
X7062277Y-17835960D02*
X7052753Y-17845484D01*
X7052753Y-17845484D02*
X7043229Y-17835960D01*
X7043229Y-17835960D02*
X7052753Y-17826436D01*
X7052753Y-17826436D02*
X7052753Y-17845484D01*
X7176562Y-17731198D02*
X7157515Y-17721674D01*
X7157515Y-17721674D02*
X7147991Y-17712150D01*
X7147991Y-17712150D02*
X7138467Y-17693103D01*
X7138467Y-17693103D02*
X7138467Y-17683579D01*
X7138467Y-17683579D02*
X7147991Y-17664531D01*
X7147991Y-17664531D02*
X7157515Y-17655008D01*
X7157515Y-17655008D02*
X7176562Y-17645484D01*
X7176562Y-17645484D02*
X7214658Y-17645484D01*
X7214658Y-17645484D02*
X7233705Y-17655008D01*
X7233705Y-17655008D02*
X7243229Y-17664531D01*
X7243229Y-17664531D02*
X7252753Y-17683579D01*
X7252753Y-17683579D02*
X7252753Y-17693103D01*
X7252753Y-17693103D02*
X7243229Y-17712150D01*
X7243229Y-17712150D02*
X7233705Y-17721674D01*
X7233705Y-17721674D02*
X7214658Y-17731198D01*
X7214658Y-17731198D02*
X7176562Y-17731198D01*
X7176562Y-17731198D02*
X7157515Y-17740722D01*
X7157515Y-17740722D02*
X7147991Y-17750246D01*
X7147991Y-17750246D02*
X7138467Y-17769293D01*
X7138467Y-17769293D02*
X7138467Y-17807389D01*
X7138467Y-17807389D02*
X7147991Y-17826436D01*
X7147991Y-17826436D02*
X7157515Y-17835960D01*
X7157515Y-17835960D02*
X7176562Y-17845484D01*
X7176562Y-17845484D02*
X7214658Y-17845484D01*
X7214658Y-17845484D02*
X7233705Y-17835960D01*
X7233705Y-17835960D02*
X7243229Y-17826436D01*
X7243229Y-17826436D02*
X7252753Y-17807389D01*
X7252753Y-17807389D02*
X7252753Y-17769293D01*
X7252753Y-17769293D02*
X7243229Y-17750246D01*
X7243229Y-17750246D02*
X7233705Y-17740722D01*
X7233705Y-17740722D02*
X7214658Y-17731198D01*
X7376562Y-17645484D02*
X7395610Y-17645484D01*
X7395610Y-17645484D02*
X7414658Y-17655008D01*
X7414658Y-17655008D02*
X7424182Y-17664531D01*
X7424182Y-17664531D02*
X7433705Y-17683579D01*
X7433705Y-17683579D02*
X7443229Y-17721674D01*
X7443229Y-17721674D02*
X7443229Y-17769293D01*
X7443229Y-17769293D02*
X7433705Y-17807389D01*
X7433705Y-17807389D02*
X7424182Y-17826436D01*
X7424182Y-17826436D02*
X7414658Y-17835960D01*
X7414658Y-17835960D02*
X7395610Y-17845484D01*
X7395610Y-17845484D02*
X7376562Y-17845484D01*
X7376562Y-17845484D02*
X7357515Y-17835960D01*
X7357515Y-17835960D02*
X7347991Y-17826436D01*
X7347991Y-17826436D02*
X7338467Y-17807389D01*
X7338467Y-17807389D02*
X7328943Y-17769293D01*
X7328943Y-17769293D02*
X7328943Y-17721674D01*
X7328943Y-17721674D02*
X7338467Y-17683579D01*
X7338467Y-17683579D02*
X7347991Y-17664531D01*
X7347991Y-17664531D02*
X7357515Y-17655008D01*
X7357515Y-17655008D02*
X7376562Y-17645484D01*
X7567039Y-17645484D02*
X7586086Y-17645484D01*
X7586086Y-17645484D02*
X7605134Y-17655008D01*
X7605134Y-17655008D02*
X7614658Y-17664531D01*
X7614658Y-17664531D02*
X7624182Y-17683579D01*
X7624182Y-17683579D02*
X7633705Y-17721674D01*
X7633705Y-17721674D02*
X7633705Y-17769293D01*
X7633705Y-17769293D02*
X7624182Y-17807389D01*
X7624182Y-17807389D02*
X7614658Y-17826436D01*
X7614658Y-17826436D02*
X7605134Y-17835960D01*
X7605134Y-17835960D02*
X7586086Y-17845484D01*
X7586086Y-17845484D02*
X7567039Y-17845484D01*
X7567039Y-17845484D02*
X7547991Y-17835960D01*
X7547991Y-17835960D02*
X7538467Y-17826436D01*
X7538467Y-17826436D02*
X7528943Y-17807389D01*
X7528943Y-17807389D02*
X7519420Y-17769293D01*
X7519420Y-17769293D02*
X7519420Y-17721674D01*
X7519420Y-17721674D02*
X7528943Y-17683579D01*
X7528943Y-17683579D02*
X7538467Y-17664531D01*
X7538467Y-17664531D02*
X7547991Y-17655008D01*
X7547991Y-17655008D02*
X7567039Y-17645484D01*
X7719420Y-17845484D02*
X7719420Y-17712150D01*
X7719420Y-17731198D02*
X7728943Y-17721674D01*
X7728943Y-17721674D02*
X7747991Y-17712150D01*
X7747991Y-17712150D02*
X7776563Y-17712150D01*
X7776563Y-17712150D02*
X7795610Y-17721674D01*
X7795610Y-17721674D02*
X7805134Y-17740722D01*
X7805134Y-17740722D02*
X7805134Y-17845484D01*
X7805134Y-17740722D02*
X7814658Y-17721674D01*
X7814658Y-17721674D02*
X7833705Y-17712150D01*
X7833705Y-17712150D02*
X7862277Y-17712150D01*
X7862277Y-17712150D02*
X7881324Y-17721674D01*
X7881324Y-17721674D02*
X7890848Y-17740722D01*
X7890848Y-17740722D02*
X7890848Y-17845484D01*
X7986086Y-17845484D02*
X7986086Y-17712150D01*
X7986086Y-17731198D02*
X7995610Y-17721674D01*
X7995610Y-17721674D02*
X8014658Y-17712150D01*
X8014658Y-17712150D02*
X8043229Y-17712150D01*
X8043229Y-17712150D02*
X8062277Y-17721674D01*
X8062277Y-17721674D02*
X8071801Y-17740722D01*
X8071801Y-17740722D02*
X8071801Y-17845484D01*
X8071801Y-17740722D02*
X8081324Y-17721674D01*
X8081324Y-17721674D02*
X8100372Y-17712150D01*
X8100372Y-17712150D02*
X8128943Y-17712150D01*
X8128943Y-17712150D02*
X8147991Y-17721674D01*
X8147991Y-17721674D02*
X8157515Y-17740722D01*
X8157515Y-17740722D02*
X8157515Y-17845484D01*
X8547991Y-17635960D02*
X8376563Y-17893103D01*
X8805134Y-17645484D02*
X8824182Y-17645484D01*
X8824182Y-17645484D02*
X8843229Y-17655008D01*
X8843229Y-17655008D02*
X8852753Y-17664531D01*
X8852753Y-17664531D02*
X8862277Y-17683579D01*
X8862277Y-17683579D02*
X8871801Y-17721674D01*
X8871801Y-17721674D02*
X8871801Y-17769293D01*
X8871801Y-17769293D02*
X8862277Y-17807389D01*
X8862277Y-17807389D02*
X8852753Y-17826436D01*
X8852753Y-17826436D02*
X8843229Y-17835960D01*
X8843229Y-17835960D02*
X8824182Y-17845484D01*
X8824182Y-17845484D02*
X8805134Y-17845484D01*
X8805134Y-17845484D02*
X8786087Y-17835960D01*
X8786087Y-17835960D02*
X8776563Y-17826436D01*
X8776563Y-17826436D02*
X8767039Y-17807389D01*
X8767039Y-17807389D02*
X8757515Y-17769293D01*
X8757515Y-17769293D02*
X8757515Y-17721674D01*
X8757515Y-17721674D02*
X8767039Y-17683579D01*
X8767039Y-17683579D02*
X8776563Y-17664531D01*
X8776563Y-17664531D02*
X8786087Y-17655008D01*
X8786087Y-17655008D02*
X8805134Y-17645484D01*
X8957515Y-17826436D02*
X8967039Y-17835960D01*
X8967039Y-17835960D02*
X8957515Y-17845484D01*
X8957515Y-17845484D02*
X8947991Y-17835960D01*
X8947991Y-17835960D02*
X8957515Y-17826436D01*
X8957515Y-17826436D02*
X8957515Y-17845484D01*
X9090848Y-17645484D02*
X9109896Y-17645484D01*
X9109896Y-17645484D02*
X9128944Y-17655008D01*
X9128944Y-17655008D02*
X9138468Y-17664531D01*
X9138468Y-17664531D02*
X9147991Y-17683579D01*
X9147991Y-17683579D02*
X9157515Y-17721674D01*
X9157515Y-17721674D02*
X9157515Y-17769293D01*
X9157515Y-17769293D02*
X9147991Y-17807389D01*
X9147991Y-17807389D02*
X9138468Y-17826436D01*
X9138468Y-17826436D02*
X9128944Y-17835960D01*
X9128944Y-17835960D02*
X9109896Y-17845484D01*
X9109896Y-17845484D02*
X9090848Y-17845484D01*
X9090848Y-17845484D02*
X9071801Y-17835960D01*
X9071801Y-17835960D02*
X9062277Y-17826436D01*
X9062277Y-17826436D02*
X9052753Y-17807389D01*
X9052753Y-17807389D02*
X9043229Y-17769293D01*
X9043229Y-17769293D02*
X9043229Y-17721674D01*
X9043229Y-17721674D02*
X9052753Y-17683579D01*
X9052753Y-17683579D02*
X9062277Y-17664531D01*
X9062277Y-17664531D02*
X9071801Y-17655008D01*
X9071801Y-17655008D02*
X9090848Y-17645484D01*
X9224182Y-17645484D02*
X9347991Y-17645484D01*
X9347991Y-17645484D02*
X9281325Y-17721674D01*
X9281325Y-17721674D02*
X9309896Y-17721674D01*
X9309896Y-17721674D02*
X9328944Y-17731198D01*
X9328944Y-17731198D02*
X9338468Y-17740722D01*
X9338468Y-17740722D02*
X9347991Y-17759770D01*
X9347991Y-17759770D02*
X9347991Y-17807389D01*
X9347991Y-17807389D02*
X9338468Y-17826436D01*
X9338468Y-17826436D02*
X9328944Y-17835960D01*
X9328944Y-17835960D02*
X9309896Y-17845484D01*
X9309896Y-17845484D02*
X9252753Y-17845484D01*
X9252753Y-17845484D02*
X9233706Y-17835960D01*
X9233706Y-17835960D02*
X9224182Y-17826436D01*
X9538468Y-17845484D02*
X9424182Y-17845484D01*
X9481325Y-17845484D02*
X9481325Y-17645484D01*
X9481325Y-17645484D02*
X9462277Y-17674055D01*
X9462277Y-17674055D02*
X9443229Y-17693103D01*
X9443229Y-17693103D02*
X9424182Y-17702627D01*
X9719420Y-17645484D02*
X9624182Y-17645484D01*
X9624182Y-17645484D02*
X9614658Y-17740722D01*
X9614658Y-17740722D02*
X9624182Y-17731198D01*
X9624182Y-17731198D02*
X9643229Y-17721674D01*
X9643229Y-17721674D02*
X9690849Y-17721674D01*
X9690849Y-17721674D02*
X9709896Y-17731198D01*
X9709896Y-17731198D02*
X9719420Y-17740722D01*
X9719420Y-17740722D02*
X9728944Y-17759770D01*
X9728944Y-17759770D02*
X9728944Y-17807389D01*
X9728944Y-17807389D02*
X9719420Y-17826436D01*
X9719420Y-17826436D02*
X9709896Y-17835960D01*
X9709896Y-17835960D02*
X9690849Y-17845484D01*
X9690849Y-17845484D02*
X9643229Y-17845484D01*
X9643229Y-17845484D02*
X9624182Y-17835960D01*
X9624182Y-17835960D02*
X9614658Y-17826436D01*
X9805134Y-17645484D02*
X9805134Y-17683579D01*
X9881325Y-17645484D02*
X9881325Y-17683579D01*
X10176563Y-17921674D02*
X10167039Y-17912150D01*
X10167039Y-17912150D02*
X10147991Y-17883579D01*
X10147991Y-17883579D02*
X10138468Y-17864531D01*
X10138468Y-17864531D02*
X10128944Y-17835960D01*
X10128944Y-17835960D02*
X10119420Y-17788341D01*
X10119420Y-17788341D02*
X10119420Y-17750246D01*
X10119420Y-17750246D02*
X10128944Y-17702627D01*
X10128944Y-17702627D02*
X10138468Y-17674055D01*
X10138468Y-17674055D02*
X10147991Y-17655008D01*
X10147991Y-17655008D02*
X10167039Y-17626436D01*
X10167039Y-17626436D02*
X10176563Y-17616912D01*
X10233706Y-17645484D02*
X10357515Y-17645484D01*
X10357515Y-17645484D02*
X10290849Y-17721674D01*
X10290849Y-17721674D02*
X10319420Y-17721674D01*
X10319420Y-17721674D02*
X10338468Y-17731198D01*
X10338468Y-17731198D02*
X10347991Y-17740722D01*
X10347991Y-17740722D02*
X10357515Y-17759770D01*
X10357515Y-17759770D02*
X10357515Y-17807389D01*
X10357515Y-17807389D02*
X10347991Y-17826436D01*
X10347991Y-17826436D02*
X10338468Y-17835960D01*
X10338468Y-17835960D02*
X10319420Y-17845484D01*
X10319420Y-17845484D02*
X10262277Y-17845484D01*
X10262277Y-17845484D02*
X10243230Y-17835960D01*
X10243230Y-17835960D02*
X10233706Y-17826436D01*
X10433706Y-17664531D02*
X10443230Y-17655008D01*
X10443230Y-17655008D02*
X10462277Y-17645484D01*
X10462277Y-17645484D02*
X10509896Y-17645484D01*
X10509896Y-17645484D02*
X10528944Y-17655008D01*
X10528944Y-17655008D02*
X10538468Y-17664531D01*
X10538468Y-17664531D02*
X10547991Y-17683579D01*
X10547991Y-17683579D02*
X10547991Y-17702627D01*
X10547991Y-17702627D02*
X10538468Y-17731198D01*
X10538468Y-17731198D02*
X10424182Y-17845484D01*
X10424182Y-17845484D02*
X10547991Y-17845484D01*
X10786087Y-17845484D02*
X10786087Y-17645484D01*
X10871801Y-17845484D02*
X10871801Y-17740722D01*
X10871801Y-17740722D02*
X10862277Y-17721674D01*
X10862277Y-17721674D02*
X10843230Y-17712150D01*
X10843230Y-17712150D02*
X10814658Y-17712150D01*
X10814658Y-17712150D02*
X10795611Y-17721674D01*
X10795611Y-17721674D02*
X10786087Y-17731198D01*
X10995611Y-17845484D02*
X10976563Y-17835960D01*
X10976563Y-17835960D02*
X10967039Y-17826436D01*
X10967039Y-17826436D02*
X10957515Y-17807389D01*
X10957515Y-17807389D02*
X10957515Y-17750246D01*
X10957515Y-17750246D02*
X10967039Y-17731198D01*
X10967039Y-17731198D02*
X10976563Y-17721674D01*
X10976563Y-17721674D02*
X10995611Y-17712150D01*
X10995611Y-17712150D02*
X11024182Y-17712150D01*
X11024182Y-17712150D02*
X11043230Y-17721674D01*
X11043230Y-17721674D02*
X11052753Y-17731198D01*
X11052753Y-17731198D02*
X11062277Y-17750246D01*
X11062277Y-17750246D02*
X11062277Y-17807389D01*
X11062277Y-17807389D02*
X11052753Y-17826436D01*
X11052753Y-17826436D02*
X11043230Y-17835960D01*
X11043230Y-17835960D02*
X11024182Y-17845484D01*
X11024182Y-17845484D02*
X10995611Y-17845484D01*
X11176563Y-17845484D02*
X11157515Y-17835960D01*
X11157515Y-17835960D02*
X11147992Y-17816912D01*
X11147992Y-17816912D02*
X11147992Y-17645484D01*
X11328944Y-17835960D02*
X11309896Y-17845484D01*
X11309896Y-17845484D02*
X11271801Y-17845484D01*
X11271801Y-17845484D02*
X11252753Y-17835960D01*
X11252753Y-17835960D02*
X11243230Y-17816912D01*
X11243230Y-17816912D02*
X11243230Y-17740722D01*
X11243230Y-17740722D02*
X11252753Y-17721674D01*
X11252753Y-17721674D02*
X11271801Y-17712150D01*
X11271801Y-17712150D02*
X11309896Y-17712150D01*
X11309896Y-17712150D02*
X11328944Y-17721674D01*
X11328944Y-17721674D02*
X11338468Y-17740722D01*
X11338468Y-17740722D02*
X11338468Y-17759770D01*
X11338468Y-17759770D02*
X11243230Y-17778817D01*
X11414658Y-17835960D02*
X11433706Y-17845484D01*
X11433706Y-17845484D02*
X11471801Y-17845484D01*
X11471801Y-17845484D02*
X11490849Y-17835960D01*
X11490849Y-17835960D02*
X11500372Y-17816912D01*
X11500372Y-17816912D02*
X11500372Y-17807389D01*
X11500372Y-17807389D02*
X11490849Y-17788341D01*
X11490849Y-17788341D02*
X11471801Y-17778817D01*
X11471801Y-17778817D02*
X11443230Y-17778817D01*
X11443230Y-17778817D02*
X11424182Y-17769293D01*
X11424182Y-17769293D02*
X11414658Y-17750246D01*
X11414658Y-17750246D02*
X11414658Y-17740722D01*
X11414658Y-17740722D02*
X11424182Y-17721674D01*
X11424182Y-17721674D02*
X11443230Y-17712150D01*
X11443230Y-17712150D02*
X11471801Y-17712150D01*
X11471801Y-17712150D02*
X11490849Y-17721674D01*
X11567039Y-17921674D02*
X11576563Y-17912150D01*
X11576563Y-17912150D02*
X11595611Y-17883579D01*
X11595611Y-17883579D02*
X11605134Y-17864531D01*
X11605134Y-17864531D02*
X11614658Y-17835960D01*
X11614658Y-17835960D02*
X11624182Y-17788341D01*
X11624182Y-17788341D02*
X11624182Y-17750246D01*
X11624182Y-17750246D02*
X11614658Y-17702627D01*
X11614658Y-17702627D02*
X11605134Y-17674055D01*
X11605134Y-17674055D02*
X11595611Y-17655008D01*
X11595611Y-17655008D02*
X11576563Y-17626436D01*
X11576563Y-17626436D02*
X11567039Y-17616912D01*
D12*
X6551500Y-18068000D02*
X6601500Y-18018000D01*
X6551500Y-17968000D01*
X6501500Y-18018000D01*
X6551500Y-18068000D01*
D11*
X6967039Y-18109484D02*
X6852753Y-18109484D01*
X6909896Y-18109484D02*
X6909896Y-17909484D01*
X6909896Y-17909484D02*
X6890848Y-17938055D01*
X6890848Y-17938055D02*
X6871801Y-17957103D01*
X6871801Y-17957103D02*
X6852753Y-17966627D01*
X7052753Y-18090436D02*
X7062277Y-18099960D01*
X7062277Y-18099960D02*
X7052753Y-18109484D01*
X7052753Y-18109484D02*
X7043229Y-18099960D01*
X7043229Y-18099960D02*
X7052753Y-18090436D01*
X7052753Y-18090436D02*
X7052753Y-18109484D01*
X7186086Y-17909484D02*
X7205134Y-17909484D01*
X7205134Y-17909484D02*
X7224182Y-17919008D01*
X7224182Y-17919008D02*
X7233705Y-17928531D01*
X7233705Y-17928531D02*
X7243229Y-17947579D01*
X7243229Y-17947579D02*
X7252753Y-17985674D01*
X7252753Y-17985674D02*
X7252753Y-18033293D01*
X7252753Y-18033293D02*
X7243229Y-18071389D01*
X7243229Y-18071389D02*
X7233705Y-18090436D01*
X7233705Y-18090436D02*
X7224182Y-18099960D01*
X7224182Y-18099960D02*
X7205134Y-18109484D01*
X7205134Y-18109484D02*
X7186086Y-18109484D01*
X7186086Y-18109484D02*
X7167039Y-18099960D01*
X7167039Y-18099960D02*
X7157515Y-18090436D01*
X7157515Y-18090436D02*
X7147991Y-18071389D01*
X7147991Y-18071389D02*
X7138467Y-18033293D01*
X7138467Y-18033293D02*
X7138467Y-17985674D01*
X7138467Y-17985674D02*
X7147991Y-17947579D01*
X7147991Y-17947579D02*
X7157515Y-17928531D01*
X7157515Y-17928531D02*
X7167039Y-17919008D01*
X7167039Y-17919008D02*
X7186086Y-17909484D01*
X7376562Y-17909484D02*
X7395610Y-17909484D01*
X7395610Y-17909484D02*
X7414658Y-17919008D01*
X7414658Y-17919008D02*
X7424182Y-17928531D01*
X7424182Y-17928531D02*
X7433705Y-17947579D01*
X7433705Y-17947579D02*
X7443229Y-17985674D01*
X7443229Y-17985674D02*
X7443229Y-18033293D01*
X7443229Y-18033293D02*
X7433705Y-18071389D01*
X7433705Y-18071389D02*
X7424182Y-18090436D01*
X7424182Y-18090436D02*
X7414658Y-18099960D01*
X7414658Y-18099960D02*
X7395610Y-18109484D01*
X7395610Y-18109484D02*
X7376562Y-18109484D01*
X7376562Y-18109484D02*
X7357515Y-18099960D01*
X7357515Y-18099960D02*
X7347991Y-18090436D01*
X7347991Y-18090436D02*
X7338467Y-18071389D01*
X7338467Y-18071389D02*
X7328943Y-18033293D01*
X7328943Y-18033293D02*
X7328943Y-17985674D01*
X7328943Y-17985674D02*
X7338467Y-17947579D01*
X7338467Y-17947579D02*
X7347991Y-17928531D01*
X7347991Y-17928531D02*
X7357515Y-17919008D01*
X7357515Y-17919008D02*
X7376562Y-17909484D01*
X7567039Y-17909484D02*
X7586086Y-17909484D01*
X7586086Y-17909484D02*
X7605134Y-17919008D01*
X7605134Y-17919008D02*
X7614658Y-17928531D01*
X7614658Y-17928531D02*
X7624182Y-17947579D01*
X7624182Y-17947579D02*
X7633705Y-17985674D01*
X7633705Y-17985674D02*
X7633705Y-18033293D01*
X7633705Y-18033293D02*
X7624182Y-18071389D01*
X7624182Y-18071389D02*
X7614658Y-18090436D01*
X7614658Y-18090436D02*
X7605134Y-18099960D01*
X7605134Y-18099960D02*
X7586086Y-18109484D01*
X7586086Y-18109484D02*
X7567039Y-18109484D01*
X7567039Y-18109484D02*
X7547991Y-18099960D01*
X7547991Y-18099960D02*
X7538467Y-18090436D01*
X7538467Y-18090436D02*
X7528943Y-18071389D01*
X7528943Y-18071389D02*
X7519420Y-18033293D01*
X7519420Y-18033293D02*
X7519420Y-17985674D01*
X7519420Y-17985674D02*
X7528943Y-17947579D01*
X7528943Y-17947579D02*
X7538467Y-17928531D01*
X7538467Y-17928531D02*
X7547991Y-17919008D01*
X7547991Y-17919008D02*
X7567039Y-17909484D01*
X7719420Y-18109484D02*
X7719420Y-17976150D01*
X7719420Y-17995198D02*
X7728943Y-17985674D01*
X7728943Y-17985674D02*
X7747991Y-17976150D01*
X7747991Y-17976150D02*
X7776563Y-17976150D01*
X7776563Y-17976150D02*
X7795610Y-17985674D01*
X7795610Y-17985674D02*
X7805134Y-18004722D01*
X7805134Y-18004722D02*
X7805134Y-18109484D01*
X7805134Y-18004722D02*
X7814658Y-17985674D01*
X7814658Y-17985674D02*
X7833705Y-17976150D01*
X7833705Y-17976150D02*
X7862277Y-17976150D01*
X7862277Y-17976150D02*
X7881324Y-17985674D01*
X7881324Y-17985674D02*
X7890848Y-18004722D01*
X7890848Y-18004722D02*
X7890848Y-18109484D01*
X7986086Y-18109484D02*
X7986086Y-17976150D01*
X7986086Y-17995198D02*
X7995610Y-17985674D01*
X7995610Y-17985674D02*
X8014658Y-17976150D01*
X8014658Y-17976150D02*
X8043229Y-17976150D01*
X8043229Y-17976150D02*
X8062277Y-17985674D01*
X8062277Y-17985674D02*
X8071801Y-18004722D01*
X8071801Y-18004722D02*
X8071801Y-18109484D01*
X8071801Y-18004722D02*
X8081324Y-17985674D01*
X8081324Y-17985674D02*
X8100372Y-17976150D01*
X8100372Y-17976150D02*
X8128943Y-17976150D01*
X8128943Y-17976150D02*
X8147991Y-17985674D01*
X8147991Y-17985674D02*
X8157515Y-18004722D01*
X8157515Y-18004722D02*
X8157515Y-18109484D01*
X8547991Y-17899960D02*
X8376563Y-18157103D01*
X8805134Y-17909484D02*
X8824182Y-17909484D01*
X8824182Y-17909484D02*
X8843229Y-17919008D01*
X8843229Y-17919008D02*
X8852753Y-17928531D01*
X8852753Y-17928531D02*
X8862277Y-17947579D01*
X8862277Y-17947579D02*
X8871801Y-17985674D01*
X8871801Y-17985674D02*
X8871801Y-18033293D01*
X8871801Y-18033293D02*
X8862277Y-18071389D01*
X8862277Y-18071389D02*
X8852753Y-18090436D01*
X8852753Y-18090436D02*
X8843229Y-18099960D01*
X8843229Y-18099960D02*
X8824182Y-18109484D01*
X8824182Y-18109484D02*
X8805134Y-18109484D01*
X8805134Y-18109484D02*
X8786087Y-18099960D01*
X8786087Y-18099960D02*
X8776563Y-18090436D01*
X8776563Y-18090436D02*
X8767039Y-18071389D01*
X8767039Y-18071389D02*
X8757515Y-18033293D01*
X8757515Y-18033293D02*
X8757515Y-17985674D01*
X8757515Y-17985674D02*
X8767039Y-17947579D01*
X8767039Y-17947579D02*
X8776563Y-17928531D01*
X8776563Y-17928531D02*
X8786087Y-17919008D01*
X8786087Y-17919008D02*
X8805134Y-17909484D01*
X8957515Y-18090436D02*
X8967039Y-18099960D01*
X8967039Y-18099960D02*
X8957515Y-18109484D01*
X8957515Y-18109484D02*
X8947991Y-18099960D01*
X8947991Y-18099960D02*
X8957515Y-18090436D01*
X8957515Y-18090436D02*
X8957515Y-18109484D01*
X9090848Y-17909484D02*
X9109896Y-17909484D01*
X9109896Y-17909484D02*
X9128944Y-17919008D01*
X9128944Y-17919008D02*
X9138468Y-17928531D01*
X9138468Y-17928531D02*
X9147991Y-17947579D01*
X9147991Y-17947579D02*
X9157515Y-17985674D01*
X9157515Y-17985674D02*
X9157515Y-18033293D01*
X9157515Y-18033293D02*
X9147991Y-18071389D01*
X9147991Y-18071389D02*
X9138468Y-18090436D01*
X9138468Y-18090436D02*
X9128944Y-18099960D01*
X9128944Y-18099960D02*
X9109896Y-18109484D01*
X9109896Y-18109484D02*
X9090848Y-18109484D01*
X9090848Y-18109484D02*
X9071801Y-18099960D01*
X9071801Y-18099960D02*
X9062277Y-18090436D01*
X9062277Y-18090436D02*
X9052753Y-18071389D01*
X9052753Y-18071389D02*
X9043229Y-18033293D01*
X9043229Y-18033293D02*
X9043229Y-17985674D01*
X9043229Y-17985674D02*
X9052753Y-17947579D01*
X9052753Y-17947579D02*
X9062277Y-17928531D01*
X9062277Y-17928531D02*
X9071801Y-17919008D01*
X9071801Y-17919008D02*
X9090848Y-17909484D01*
X9224182Y-17909484D02*
X9347991Y-17909484D01*
X9347991Y-17909484D02*
X9281325Y-17985674D01*
X9281325Y-17985674D02*
X9309896Y-17985674D01*
X9309896Y-17985674D02*
X9328944Y-17995198D01*
X9328944Y-17995198D02*
X9338468Y-18004722D01*
X9338468Y-18004722D02*
X9347991Y-18023770D01*
X9347991Y-18023770D02*
X9347991Y-18071389D01*
X9347991Y-18071389D02*
X9338468Y-18090436D01*
X9338468Y-18090436D02*
X9328944Y-18099960D01*
X9328944Y-18099960D02*
X9309896Y-18109484D01*
X9309896Y-18109484D02*
X9252753Y-18109484D01*
X9252753Y-18109484D02*
X9233706Y-18099960D01*
X9233706Y-18099960D02*
X9224182Y-18090436D01*
X9443229Y-18109484D02*
X9481325Y-18109484D01*
X9481325Y-18109484D02*
X9500372Y-18099960D01*
X9500372Y-18099960D02*
X9509896Y-18090436D01*
X9509896Y-18090436D02*
X9528944Y-18061865D01*
X9528944Y-18061865D02*
X9538468Y-18023770D01*
X9538468Y-18023770D02*
X9538468Y-17947579D01*
X9538468Y-17947579D02*
X9528944Y-17928531D01*
X9528944Y-17928531D02*
X9519420Y-17919008D01*
X9519420Y-17919008D02*
X9500372Y-17909484D01*
X9500372Y-17909484D02*
X9462277Y-17909484D01*
X9462277Y-17909484D02*
X9443229Y-17919008D01*
X9443229Y-17919008D02*
X9433706Y-17928531D01*
X9433706Y-17928531D02*
X9424182Y-17947579D01*
X9424182Y-17947579D02*
X9424182Y-17995198D01*
X9424182Y-17995198D02*
X9433706Y-18014246D01*
X9433706Y-18014246D02*
X9443229Y-18023770D01*
X9443229Y-18023770D02*
X9462277Y-18033293D01*
X9462277Y-18033293D02*
X9500372Y-18033293D01*
X9500372Y-18033293D02*
X9519420Y-18023770D01*
X9519420Y-18023770D02*
X9528944Y-18014246D01*
X9528944Y-18014246D02*
X9538468Y-17995198D01*
X9709896Y-17976150D02*
X9709896Y-18109484D01*
X9662277Y-17899960D02*
X9614658Y-18042817D01*
X9614658Y-18042817D02*
X9738468Y-18042817D01*
X9805134Y-17909484D02*
X9805134Y-17947579D01*
X9881325Y-17909484D02*
X9881325Y-17947579D01*
X10176563Y-18185674D02*
X10167039Y-18176150D01*
X10167039Y-18176150D02*
X10147991Y-18147579D01*
X10147991Y-18147579D02*
X10138468Y-18128531D01*
X10138468Y-18128531D02*
X10128944Y-18099960D01*
X10128944Y-18099960D02*
X10119420Y-18052341D01*
X10119420Y-18052341D02*
X10119420Y-18014246D01*
X10119420Y-18014246D02*
X10128944Y-17966627D01*
X10128944Y-17966627D02*
X10138468Y-17938055D01*
X10138468Y-17938055D02*
X10147991Y-17919008D01*
X10147991Y-17919008D02*
X10167039Y-17890436D01*
X10167039Y-17890436D02*
X10176563Y-17880912D01*
X10338468Y-17976150D02*
X10338468Y-18109484D01*
X10290849Y-17899960D02*
X10243230Y-18042817D01*
X10243230Y-18042817D02*
X10367039Y-18042817D01*
X10424182Y-17909484D02*
X10547991Y-17909484D01*
X10547991Y-17909484D02*
X10481325Y-17985674D01*
X10481325Y-17985674D02*
X10509896Y-17985674D01*
X10509896Y-17985674D02*
X10528944Y-17995198D01*
X10528944Y-17995198D02*
X10538468Y-18004722D01*
X10538468Y-18004722D02*
X10547991Y-18023770D01*
X10547991Y-18023770D02*
X10547991Y-18071389D01*
X10547991Y-18071389D02*
X10538468Y-18090436D01*
X10538468Y-18090436D02*
X10528944Y-18099960D01*
X10528944Y-18099960D02*
X10509896Y-18109484D01*
X10509896Y-18109484D02*
X10452753Y-18109484D01*
X10452753Y-18109484D02*
X10433706Y-18099960D01*
X10433706Y-18099960D02*
X10424182Y-18090436D01*
X10786087Y-18109484D02*
X10786087Y-17909484D01*
X10871801Y-18109484D02*
X10871801Y-18004722D01*
X10871801Y-18004722D02*
X10862277Y-17985674D01*
X10862277Y-17985674D02*
X10843230Y-17976150D01*
X10843230Y-17976150D02*
X10814658Y-17976150D01*
X10814658Y-17976150D02*
X10795611Y-17985674D01*
X10795611Y-17985674D02*
X10786087Y-17995198D01*
X10995611Y-18109484D02*
X10976563Y-18099960D01*
X10976563Y-18099960D02*
X10967039Y-18090436D01*
X10967039Y-18090436D02*
X10957515Y-18071389D01*
X10957515Y-18071389D02*
X10957515Y-18014246D01*
X10957515Y-18014246D02*
X10967039Y-17995198D01*
X10967039Y-17995198D02*
X10976563Y-17985674D01*
X10976563Y-17985674D02*
X10995611Y-17976150D01*
X10995611Y-17976150D02*
X11024182Y-17976150D01*
X11024182Y-17976150D02*
X11043230Y-17985674D01*
X11043230Y-17985674D02*
X11052753Y-17995198D01*
X11052753Y-17995198D02*
X11062277Y-18014246D01*
X11062277Y-18014246D02*
X11062277Y-18071389D01*
X11062277Y-18071389D02*
X11052753Y-18090436D01*
X11052753Y-18090436D02*
X11043230Y-18099960D01*
X11043230Y-18099960D02*
X11024182Y-18109484D01*
X11024182Y-18109484D02*
X10995611Y-18109484D01*
X11176563Y-18109484D02*
X11157515Y-18099960D01*
X11157515Y-18099960D02*
X11147992Y-18080912D01*
X11147992Y-18080912D02*
X11147992Y-17909484D01*
X11328944Y-18099960D02*
X11309896Y-18109484D01*
X11309896Y-18109484D02*
X11271801Y-18109484D01*
X11271801Y-18109484D02*
X11252753Y-18099960D01*
X11252753Y-18099960D02*
X11243230Y-18080912D01*
X11243230Y-18080912D02*
X11243230Y-18004722D01*
X11243230Y-18004722D02*
X11252753Y-17985674D01*
X11252753Y-17985674D02*
X11271801Y-17976150D01*
X11271801Y-17976150D02*
X11309896Y-17976150D01*
X11309896Y-17976150D02*
X11328944Y-17985674D01*
X11328944Y-17985674D02*
X11338468Y-18004722D01*
X11338468Y-18004722D02*
X11338468Y-18023770D01*
X11338468Y-18023770D02*
X11243230Y-18042817D01*
X11414658Y-18099960D02*
X11433706Y-18109484D01*
X11433706Y-18109484D02*
X11471801Y-18109484D01*
X11471801Y-18109484D02*
X11490849Y-18099960D01*
X11490849Y-18099960D02*
X11500372Y-18080912D01*
X11500372Y-18080912D02*
X11500372Y-18071389D01*
X11500372Y-18071389D02*
X11490849Y-18052341D01*
X11490849Y-18052341D02*
X11471801Y-18042817D01*
X11471801Y-18042817D02*
X11443230Y-18042817D01*
X11443230Y-18042817D02*
X11424182Y-18033293D01*
X11424182Y-18033293D02*
X11414658Y-18014246D01*
X11414658Y-18014246D02*
X11414658Y-18004722D01*
X11414658Y-18004722D02*
X11424182Y-17985674D01*
X11424182Y-17985674D02*
X11443230Y-17976150D01*
X11443230Y-17976150D02*
X11471801Y-17976150D01*
X11471801Y-17976150D02*
X11490849Y-17985674D01*
X11567039Y-18185674D02*
X11576563Y-18176150D01*
X11576563Y-18176150D02*
X11595611Y-18147579D01*
X11595611Y-18147579D02*
X11605134Y-18128531D01*
X11605134Y-18128531D02*
X11614658Y-18099960D01*
X11614658Y-18099960D02*
X11624182Y-18052341D01*
X11624182Y-18052341D02*
X11624182Y-18014246D01*
X11624182Y-18014246D02*
X11614658Y-17966627D01*
X11614658Y-17966627D02*
X11605134Y-17938055D01*
X11605134Y-17938055D02*
X11595611Y-17919008D01*
X11595611Y-17919008D02*
X11576563Y-17890436D01*
X11576563Y-17890436D02*
X11567039Y-17880912D01*
D13*
X6491500Y-18227000D02*
X6601500Y-18337000D01*
X6601500Y-18227000D02*
X6491500Y-18337000D01*
X6601500Y-18282000D02*
G75*
G02*
X6491500Y-18282000I-55000J0D01*
G01*
X6491500Y-18282000D02*
G75*
G02*
X6601500Y-18282000I55000J0D01*
G01*
D11*
X6967039Y-18373484D02*
X6852753Y-18373484D01*
X6909896Y-18373484D02*
X6909896Y-18173484D01*
X6909896Y-18173484D02*
X6890848Y-18202055D01*
X6890848Y-18202055D02*
X6871801Y-18221103D01*
X6871801Y-18221103D02*
X6852753Y-18230627D01*
X7052753Y-18354436D02*
X7062277Y-18363960D01*
X7062277Y-18363960D02*
X7052753Y-18373484D01*
X7052753Y-18373484D02*
X7043229Y-18363960D01*
X7043229Y-18363960D02*
X7052753Y-18354436D01*
X7052753Y-18354436D02*
X7052753Y-18373484D01*
X7252753Y-18373484D02*
X7138467Y-18373484D01*
X7195610Y-18373484D02*
X7195610Y-18173484D01*
X7195610Y-18173484D02*
X7176562Y-18202055D01*
X7176562Y-18202055D02*
X7157515Y-18221103D01*
X7157515Y-18221103D02*
X7138467Y-18230627D01*
X7376562Y-18173484D02*
X7395610Y-18173484D01*
X7395610Y-18173484D02*
X7414658Y-18183008D01*
X7414658Y-18183008D02*
X7424182Y-18192531D01*
X7424182Y-18192531D02*
X7433705Y-18211579D01*
X7433705Y-18211579D02*
X7443229Y-18249674D01*
X7443229Y-18249674D02*
X7443229Y-18297293D01*
X7443229Y-18297293D02*
X7433705Y-18335389D01*
X7433705Y-18335389D02*
X7424182Y-18354436D01*
X7424182Y-18354436D02*
X7414658Y-18363960D01*
X7414658Y-18363960D02*
X7395610Y-18373484D01*
X7395610Y-18373484D02*
X7376562Y-18373484D01*
X7376562Y-18373484D02*
X7357515Y-18363960D01*
X7357515Y-18363960D02*
X7347991Y-18354436D01*
X7347991Y-18354436D02*
X7338467Y-18335389D01*
X7338467Y-18335389D02*
X7328943Y-18297293D01*
X7328943Y-18297293D02*
X7328943Y-18249674D01*
X7328943Y-18249674D02*
X7338467Y-18211579D01*
X7338467Y-18211579D02*
X7347991Y-18192531D01*
X7347991Y-18192531D02*
X7357515Y-18183008D01*
X7357515Y-18183008D02*
X7376562Y-18173484D01*
X7567039Y-18173484D02*
X7586086Y-18173484D01*
X7586086Y-18173484D02*
X7605134Y-18183008D01*
X7605134Y-18183008D02*
X7614658Y-18192531D01*
X7614658Y-18192531D02*
X7624182Y-18211579D01*
X7624182Y-18211579D02*
X7633705Y-18249674D01*
X7633705Y-18249674D02*
X7633705Y-18297293D01*
X7633705Y-18297293D02*
X7624182Y-18335389D01*
X7624182Y-18335389D02*
X7614658Y-18354436D01*
X7614658Y-18354436D02*
X7605134Y-18363960D01*
X7605134Y-18363960D02*
X7586086Y-18373484D01*
X7586086Y-18373484D02*
X7567039Y-18373484D01*
X7567039Y-18373484D02*
X7547991Y-18363960D01*
X7547991Y-18363960D02*
X7538467Y-18354436D01*
X7538467Y-18354436D02*
X7528943Y-18335389D01*
X7528943Y-18335389D02*
X7519420Y-18297293D01*
X7519420Y-18297293D02*
X7519420Y-18249674D01*
X7519420Y-18249674D02*
X7528943Y-18211579D01*
X7528943Y-18211579D02*
X7538467Y-18192531D01*
X7538467Y-18192531D02*
X7547991Y-18183008D01*
X7547991Y-18183008D02*
X7567039Y-18173484D01*
X7719420Y-18373484D02*
X7719420Y-18240150D01*
X7719420Y-18259198D02*
X7728943Y-18249674D01*
X7728943Y-18249674D02*
X7747991Y-18240150D01*
X7747991Y-18240150D02*
X7776563Y-18240150D01*
X7776563Y-18240150D02*
X7795610Y-18249674D01*
X7795610Y-18249674D02*
X7805134Y-18268722D01*
X7805134Y-18268722D02*
X7805134Y-18373484D01*
X7805134Y-18268722D02*
X7814658Y-18249674D01*
X7814658Y-18249674D02*
X7833705Y-18240150D01*
X7833705Y-18240150D02*
X7862277Y-18240150D01*
X7862277Y-18240150D02*
X7881324Y-18249674D01*
X7881324Y-18249674D02*
X7890848Y-18268722D01*
X7890848Y-18268722D02*
X7890848Y-18373484D01*
X7986086Y-18373484D02*
X7986086Y-18240150D01*
X7986086Y-18259198D02*
X7995610Y-18249674D01*
X7995610Y-18249674D02*
X8014658Y-18240150D01*
X8014658Y-18240150D02*
X8043229Y-18240150D01*
X8043229Y-18240150D02*
X8062277Y-18249674D01*
X8062277Y-18249674D02*
X8071801Y-18268722D01*
X8071801Y-18268722D02*
X8071801Y-18373484D01*
X8071801Y-18268722D02*
X8081324Y-18249674D01*
X8081324Y-18249674D02*
X8100372Y-18240150D01*
X8100372Y-18240150D02*
X8128943Y-18240150D01*
X8128943Y-18240150D02*
X8147991Y-18249674D01*
X8147991Y-18249674D02*
X8157515Y-18268722D01*
X8157515Y-18268722D02*
X8157515Y-18373484D01*
X8547991Y-18163960D02*
X8376563Y-18421103D01*
X8805134Y-18173484D02*
X8824182Y-18173484D01*
X8824182Y-18173484D02*
X8843229Y-18183008D01*
X8843229Y-18183008D02*
X8852753Y-18192531D01*
X8852753Y-18192531D02*
X8862277Y-18211579D01*
X8862277Y-18211579D02*
X8871801Y-18249674D01*
X8871801Y-18249674D02*
X8871801Y-18297293D01*
X8871801Y-18297293D02*
X8862277Y-18335389D01*
X8862277Y-18335389D02*
X8852753Y-18354436D01*
X8852753Y-18354436D02*
X8843229Y-18363960D01*
X8843229Y-18363960D02*
X8824182Y-18373484D01*
X8824182Y-18373484D02*
X8805134Y-18373484D01*
X8805134Y-18373484D02*
X8786087Y-18363960D01*
X8786087Y-18363960D02*
X8776563Y-18354436D01*
X8776563Y-18354436D02*
X8767039Y-18335389D01*
X8767039Y-18335389D02*
X8757515Y-18297293D01*
X8757515Y-18297293D02*
X8757515Y-18249674D01*
X8757515Y-18249674D02*
X8767039Y-18211579D01*
X8767039Y-18211579D02*
X8776563Y-18192531D01*
X8776563Y-18192531D02*
X8786087Y-18183008D01*
X8786087Y-18183008D02*
X8805134Y-18173484D01*
X8957515Y-18354436D02*
X8967039Y-18363960D01*
X8967039Y-18363960D02*
X8957515Y-18373484D01*
X8957515Y-18373484D02*
X8947991Y-18363960D01*
X8947991Y-18363960D02*
X8957515Y-18354436D01*
X8957515Y-18354436D02*
X8957515Y-18373484D01*
X9090848Y-18173484D02*
X9109896Y-18173484D01*
X9109896Y-18173484D02*
X9128944Y-18183008D01*
X9128944Y-18183008D02*
X9138468Y-18192531D01*
X9138468Y-18192531D02*
X9147991Y-18211579D01*
X9147991Y-18211579D02*
X9157515Y-18249674D01*
X9157515Y-18249674D02*
X9157515Y-18297293D01*
X9157515Y-18297293D02*
X9147991Y-18335389D01*
X9147991Y-18335389D02*
X9138468Y-18354436D01*
X9138468Y-18354436D02*
X9128944Y-18363960D01*
X9128944Y-18363960D02*
X9109896Y-18373484D01*
X9109896Y-18373484D02*
X9090848Y-18373484D01*
X9090848Y-18373484D02*
X9071801Y-18363960D01*
X9071801Y-18363960D02*
X9062277Y-18354436D01*
X9062277Y-18354436D02*
X9052753Y-18335389D01*
X9052753Y-18335389D02*
X9043229Y-18297293D01*
X9043229Y-18297293D02*
X9043229Y-18249674D01*
X9043229Y-18249674D02*
X9052753Y-18211579D01*
X9052753Y-18211579D02*
X9062277Y-18192531D01*
X9062277Y-18192531D02*
X9071801Y-18183008D01*
X9071801Y-18183008D02*
X9090848Y-18173484D01*
X9328944Y-18240150D02*
X9328944Y-18373484D01*
X9281325Y-18163960D02*
X9233706Y-18306817D01*
X9233706Y-18306817D02*
X9357515Y-18306817D01*
X9414658Y-18173484D02*
X9538468Y-18173484D01*
X9538468Y-18173484D02*
X9471801Y-18249674D01*
X9471801Y-18249674D02*
X9500372Y-18249674D01*
X9500372Y-18249674D02*
X9519420Y-18259198D01*
X9519420Y-18259198D02*
X9528944Y-18268722D01*
X9528944Y-18268722D02*
X9538468Y-18287770D01*
X9538468Y-18287770D02*
X9538468Y-18335389D01*
X9538468Y-18335389D02*
X9528944Y-18354436D01*
X9528944Y-18354436D02*
X9519420Y-18363960D01*
X9519420Y-18363960D02*
X9500372Y-18373484D01*
X9500372Y-18373484D02*
X9443229Y-18373484D01*
X9443229Y-18373484D02*
X9424182Y-18363960D01*
X9424182Y-18363960D02*
X9414658Y-18354436D01*
X9605134Y-18173484D02*
X9728944Y-18173484D01*
X9728944Y-18173484D02*
X9662277Y-18249674D01*
X9662277Y-18249674D02*
X9690849Y-18249674D01*
X9690849Y-18249674D02*
X9709896Y-18259198D01*
X9709896Y-18259198D02*
X9719420Y-18268722D01*
X9719420Y-18268722D02*
X9728944Y-18287770D01*
X9728944Y-18287770D02*
X9728944Y-18335389D01*
X9728944Y-18335389D02*
X9719420Y-18354436D01*
X9719420Y-18354436D02*
X9709896Y-18363960D01*
X9709896Y-18363960D02*
X9690849Y-18373484D01*
X9690849Y-18373484D02*
X9633706Y-18373484D01*
X9633706Y-18373484D02*
X9614658Y-18363960D01*
X9614658Y-18363960D02*
X9605134Y-18354436D01*
X9805134Y-18173484D02*
X9805134Y-18211579D01*
X9881325Y-18173484D02*
X9881325Y-18211579D01*
X10176563Y-18449674D02*
X10167039Y-18440150D01*
X10167039Y-18440150D02*
X10147991Y-18411579D01*
X10147991Y-18411579D02*
X10138468Y-18392531D01*
X10138468Y-18392531D02*
X10128944Y-18363960D01*
X10128944Y-18363960D02*
X10119420Y-18316341D01*
X10119420Y-18316341D02*
X10119420Y-18278246D01*
X10119420Y-18278246D02*
X10128944Y-18230627D01*
X10128944Y-18230627D02*
X10138468Y-18202055D01*
X10138468Y-18202055D02*
X10147991Y-18183008D01*
X10147991Y-18183008D02*
X10167039Y-18154436D01*
X10167039Y-18154436D02*
X10176563Y-18144912D01*
X10357515Y-18373484D02*
X10243230Y-18373484D01*
X10300372Y-18373484D02*
X10300372Y-18173484D01*
X10300372Y-18173484D02*
X10281325Y-18202055D01*
X10281325Y-18202055D02*
X10262277Y-18221103D01*
X10262277Y-18221103D02*
X10243230Y-18230627D01*
X10481325Y-18173484D02*
X10500372Y-18173484D01*
X10500372Y-18173484D02*
X10519420Y-18183008D01*
X10519420Y-18183008D02*
X10528944Y-18192531D01*
X10528944Y-18192531D02*
X10538468Y-18211579D01*
X10538468Y-18211579D02*
X10547991Y-18249674D01*
X10547991Y-18249674D02*
X10547991Y-18297293D01*
X10547991Y-18297293D02*
X10538468Y-18335389D01*
X10538468Y-18335389D02*
X10528944Y-18354436D01*
X10528944Y-18354436D02*
X10519420Y-18363960D01*
X10519420Y-18363960D02*
X10500372Y-18373484D01*
X10500372Y-18373484D02*
X10481325Y-18373484D01*
X10481325Y-18373484D02*
X10462277Y-18363960D01*
X10462277Y-18363960D02*
X10452753Y-18354436D01*
X10452753Y-18354436D02*
X10443230Y-18335389D01*
X10443230Y-18335389D02*
X10433706Y-18297293D01*
X10433706Y-18297293D02*
X10433706Y-18249674D01*
X10433706Y-18249674D02*
X10443230Y-18211579D01*
X10443230Y-18211579D02*
X10452753Y-18192531D01*
X10452753Y-18192531D02*
X10462277Y-18183008D01*
X10462277Y-18183008D02*
X10481325Y-18173484D01*
X10786087Y-18373484D02*
X10786087Y-18173484D01*
X10871801Y-18373484D02*
X10871801Y-18268722D01*
X10871801Y-18268722D02*
X10862277Y-18249674D01*
X10862277Y-18249674D02*
X10843230Y-18240150D01*
X10843230Y-18240150D02*
X10814658Y-18240150D01*
X10814658Y-18240150D02*
X10795611Y-18249674D01*
X10795611Y-18249674D02*
X10786087Y-18259198D01*
X10995611Y-18373484D02*
X10976563Y-18363960D01*
X10976563Y-18363960D02*
X10967039Y-18354436D01*
X10967039Y-18354436D02*
X10957515Y-18335389D01*
X10957515Y-18335389D02*
X10957515Y-18278246D01*
X10957515Y-18278246D02*
X10967039Y-18259198D01*
X10967039Y-18259198D02*
X10976563Y-18249674D01*
X10976563Y-18249674D02*
X10995611Y-18240150D01*
X10995611Y-18240150D02*
X11024182Y-18240150D01*
X11024182Y-18240150D02*
X11043230Y-18249674D01*
X11043230Y-18249674D02*
X11052753Y-18259198D01*
X11052753Y-18259198D02*
X11062277Y-18278246D01*
X11062277Y-18278246D02*
X11062277Y-18335389D01*
X11062277Y-18335389D02*
X11052753Y-18354436D01*
X11052753Y-18354436D02*
X11043230Y-18363960D01*
X11043230Y-18363960D02*
X11024182Y-18373484D01*
X11024182Y-18373484D02*
X10995611Y-18373484D01*
X11176563Y-18373484D02*
X11157515Y-18363960D01*
X11157515Y-18363960D02*
X11147992Y-18344912D01*
X11147992Y-18344912D02*
X11147992Y-18173484D01*
X11328944Y-18363960D02*
X11309896Y-18373484D01*
X11309896Y-18373484D02*
X11271801Y-18373484D01*
X11271801Y-18373484D02*
X11252753Y-18363960D01*
X11252753Y-18363960D02*
X11243230Y-18344912D01*
X11243230Y-18344912D02*
X11243230Y-18268722D01*
X11243230Y-18268722D02*
X11252753Y-18249674D01*
X11252753Y-18249674D02*
X11271801Y-18240150D01*
X11271801Y-18240150D02*
X11309896Y-18240150D01*
X11309896Y-18240150D02*
X11328944Y-18249674D01*
X11328944Y-18249674D02*
X11338468Y-18268722D01*
X11338468Y-18268722D02*
X11338468Y-18287770D01*
X11338468Y-18287770D02*
X11243230Y-18306817D01*
X11414658Y-18363960D02*
X11433706Y-18373484D01*
X11433706Y-18373484D02*
X11471801Y-18373484D01*
X11471801Y-18373484D02*
X11490849Y-18363960D01*
X11490849Y-18363960D02*
X11500372Y-18344912D01*
X11500372Y-18344912D02*
X11500372Y-18335389D01*
X11500372Y-18335389D02*
X11490849Y-18316341D01*
X11490849Y-18316341D02*
X11471801Y-18306817D01*
X11471801Y-18306817D02*
X11443230Y-18306817D01*
X11443230Y-18306817D02*
X11424182Y-18297293D01*
X11424182Y-18297293D02*
X11414658Y-18278246D01*
X11414658Y-18278246D02*
X11414658Y-18268722D01*
X11414658Y-18268722D02*
X11424182Y-18249674D01*
X11424182Y-18249674D02*
X11443230Y-18240150D01*
X11443230Y-18240150D02*
X11471801Y-18240150D01*
X11471801Y-18240150D02*
X11490849Y-18249674D01*
X11738468Y-18297293D02*
X11890849Y-18297293D01*
X11814658Y-18373484D02*
X11814658Y-18221103D01*
X12128944Y-18192531D02*
X12138468Y-18183008D01*
X12138468Y-18183008D02*
X12157515Y-18173484D01*
X12157515Y-18173484D02*
X12205134Y-18173484D01*
X12205134Y-18173484D02*
X12224182Y-18183008D01*
X12224182Y-18183008D02*
X12233706Y-18192531D01*
X12233706Y-18192531D02*
X12243230Y-18211579D01*
X12243230Y-18211579D02*
X12243230Y-18230627D01*
X12243230Y-18230627D02*
X12233706Y-18259198D01*
X12233706Y-18259198D02*
X12119420Y-18373484D01*
X12119420Y-18373484D02*
X12243230Y-18373484D01*
X12471801Y-18363960D02*
X12490849Y-18373484D01*
X12490849Y-18373484D02*
X12528944Y-18373484D01*
X12528944Y-18373484D02*
X12547992Y-18363960D01*
X12547992Y-18363960D02*
X12557515Y-18344912D01*
X12557515Y-18344912D02*
X12557515Y-18335389D01*
X12557515Y-18335389D02*
X12547992Y-18316341D01*
X12547992Y-18316341D02*
X12528944Y-18306817D01*
X12528944Y-18306817D02*
X12500373Y-18306817D01*
X12500373Y-18306817D02*
X12481325Y-18297293D01*
X12481325Y-18297293D02*
X12471801Y-18278246D01*
X12471801Y-18278246D02*
X12471801Y-18268722D01*
X12471801Y-18268722D02*
X12481325Y-18249674D01*
X12481325Y-18249674D02*
X12500373Y-18240150D01*
X12500373Y-18240150D02*
X12528944Y-18240150D01*
X12528944Y-18240150D02*
X12547992Y-18249674D01*
X12671801Y-18373484D02*
X12652754Y-18363960D01*
X12652754Y-18363960D02*
X12643230Y-18344912D01*
X12643230Y-18344912D02*
X12643230Y-18173484D01*
X12776563Y-18373484D02*
X12757515Y-18363960D01*
X12757515Y-18363960D02*
X12747992Y-18354436D01*
X12747992Y-18354436D02*
X12738468Y-18335389D01*
X12738468Y-18335389D02*
X12738468Y-18278246D01*
X12738468Y-18278246D02*
X12747992Y-18259198D01*
X12747992Y-18259198D02*
X12757515Y-18249674D01*
X12757515Y-18249674D02*
X12776563Y-18240150D01*
X12776563Y-18240150D02*
X12805135Y-18240150D01*
X12805135Y-18240150D02*
X12824182Y-18249674D01*
X12824182Y-18249674D02*
X12833706Y-18259198D01*
X12833706Y-18259198D02*
X12843230Y-18278246D01*
X12843230Y-18278246D02*
X12843230Y-18335389D01*
X12843230Y-18335389D02*
X12833706Y-18354436D01*
X12833706Y-18354436D02*
X12824182Y-18363960D01*
X12824182Y-18363960D02*
X12805135Y-18373484D01*
X12805135Y-18373484D02*
X12776563Y-18373484D01*
X12900373Y-18240150D02*
X12976563Y-18240150D01*
X12928944Y-18173484D02*
X12928944Y-18344912D01*
X12928944Y-18344912D02*
X12938468Y-18363960D01*
X12938468Y-18363960D02*
X12957515Y-18373484D01*
X12957515Y-18373484D02*
X12976563Y-18373484D01*
X13033706Y-18363960D02*
X13052754Y-18373484D01*
X13052754Y-18373484D02*
X13090849Y-18373484D01*
X13090849Y-18373484D02*
X13109896Y-18363960D01*
X13109896Y-18363960D02*
X13119420Y-18344912D01*
X13119420Y-18344912D02*
X13119420Y-18335389D01*
X13119420Y-18335389D02*
X13109896Y-18316341D01*
X13109896Y-18316341D02*
X13090849Y-18306817D01*
X13090849Y-18306817D02*
X13062277Y-18306817D01*
X13062277Y-18306817D02*
X13043230Y-18297293D01*
X13043230Y-18297293D02*
X13033706Y-18278246D01*
X13033706Y-18278246D02*
X13033706Y-18268722D01*
X13033706Y-18268722D02*
X13043230Y-18249674D01*
X13043230Y-18249674D02*
X13062277Y-18240150D01*
X13062277Y-18240150D02*
X13090849Y-18240150D01*
X13090849Y-18240150D02*
X13109896Y-18249674D01*
X13186087Y-18449674D02*
X13195611Y-18440150D01*
X13195611Y-18440150D02*
X13214658Y-18411579D01*
X13214658Y-18411579D02*
X13224182Y-18392531D01*
X13224182Y-18392531D02*
X13233706Y-18363960D01*
X13233706Y-18363960D02*
X13243230Y-18316341D01*
X13243230Y-18316341D02*
X13243230Y-18278246D01*
X13243230Y-18278246D02*
X13233706Y-18230627D01*
X13233706Y-18230627D02*
X13224182Y-18202055D01*
X13224182Y-18202055D02*
X13214658Y-18183008D01*
X13214658Y-18183008D02*
X13195611Y-18154436D01*
X13195611Y-18154436D02*
X13186087Y-18144912D01*
D14*
X6481500Y-18486000D02*
X6601500Y-18606000D01*
X6601500Y-18486000D02*
X6481500Y-18606000D01*
X6541500Y-18486000D02*
X6541500Y-18606000D01*
X6481500Y-18546000D02*
X6601500Y-18546000D01*
D11*
X6967039Y-18637484D02*
X6852753Y-18637484D01*
X6909896Y-18637484D02*
X6909896Y-18437484D01*
X6909896Y-18437484D02*
X6890848Y-18466055D01*
X6890848Y-18466055D02*
X6871801Y-18485103D01*
X6871801Y-18485103D02*
X6852753Y-18494627D01*
X7052753Y-18618436D02*
X7062277Y-18627960D01*
X7062277Y-18627960D02*
X7052753Y-18637484D01*
X7052753Y-18637484D02*
X7043229Y-18627960D01*
X7043229Y-18627960D02*
X7052753Y-18618436D01*
X7052753Y-18618436D02*
X7052753Y-18637484D01*
X7138467Y-18456531D02*
X7147991Y-18447008D01*
X7147991Y-18447008D02*
X7167039Y-18437484D01*
X7167039Y-18437484D02*
X7214658Y-18437484D01*
X7214658Y-18437484D02*
X7233705Y-18447008D01*
X7233705Y-18447008D02*
X7243229Y-18456531D01*
X7243229Y-18456531D02*
X7252753Y-18475579D01*
X7252753Y-18475579D02*
X7252753Y-18494627D01*
X7252753Y-18494627D02*
X7243229Y-18523198D01*
X7243229Y-18523198D02*
X7128943Y-18637484D01*
X7128943Y-18637484D02*
X7252753Y-18637484D01*
X7376562Y-18437484D02*
X7395610Y-18437484D01*
X7395610Y-18437484D02*
X7414658Y-18447008D01*
X7414658Y-18447008D02*
X7424182Y-18456531D01*
X7424182Y-18456531D02*
X7433705Y-18475579D01*
X7433705Y-18475579D02*
X7443229Y-18513674D01*
X7443229Y-18513674D02*
X7443229Y-18561293D01*
X7443229Y-18561293D02*
X7433705Y-18599389D01*
X7433705Y-18599389D02*
X7424182Y-18618436D01*
X7424182Y-18618436D02*
X7414658Y-18627960D01*
X7414658Y-18627960D02*
X7395610Y-18637484D01*
X7395610Y-18637484D02*
X7376562Y-18637484D01*
X7376562Y-18637484D02*
X7357515Y-18627960D01*
X7357515Y-18627960D02*
X7347991Y-18618436D01*
X7347991Y-18618436D02*
X7338467Y-18599389D01*
X7338467Y-18599389D02*
X7328943Y-18561293D01*
X7328943Y-18561293D02*
X7328943Y-18513674D01*
X7328943Y-18513674D02*
X7338467Y-18475579D01*
X7338467Y-18475579D02*
X7347991Y-18456531D01*
X7347991Y-18456531D02*
X7357515Y-18447008D01*
X7357515Y-18447008D02*
X7376562Y-18437484D01*
X7567039Y-18437484D02*
X7586086Y-18437484D01*
X7586086Y-18437484D02*
X7605134Y-18447008D01*
X7605134Y-18447008D02*
X7614658Y-18456531D01*
X7614658Y-18456531D02*
X7624182Y-18475579D01*
X7624182Y-18475579D02*
X7633705Y-18513674D01*
X7633705Y-18513674D02*
X7633705Y-18561293D01*
X7633705Y-18561293D02*
X7624182Y-18599389D01*
X7624182Y-18599389D02*
X7614658Y-18618436D01*
X7614658Y-18618436D02*
X7605134Y-18627960D01*
X7605134Y-18627960D02*
X7586086Y-18637484D01*
X7586086Y-18637484D02*
X7567039Y-18637484D01*
X7567039Y-18637484D02*
X7547991Y-18627960D01*
X7547991Y-18627960D02*
X7538467Y-18618436D01*
X7538467Y-18618436D02*
X7528943Y-18599389D01*
X7528943Y-18599389D02*
X7519420Y-18561293D01*
X7519420Y-18561293D02*
X7519420Y-18513674D01*
X7519420Y-18513674D02*
X7528943Y-18475579D01*
X7528943Y-18475579D02*
X7538467Y-18456531D01*
X7538467Y-18456531D02*
X7547991Y-18447008D01*
X7547991Y-18447008D02*
X7567039Y-18437484D01*
X7719420Y-18637484D02*
X7719420Y-18504150D01*
X7719420Y-18523198D02*
X7728943Y-18513674D01*
X7728943Y-18513674D02*
X7747991Y-18504150D01*
X7747991Y-18504150D02*
X7776563Y-18504150D01*
X7776563Y-18504150D02*
X7795610Y-18513674D01*
X7795610Y-18513674D02*
X7805134Y-18532722D01*
X7805134Y-18532722D02*
X7805134Y-18637484D01*
X7805134Y-18532722D02*
X7814658Y-18513674D01*
X7814658Y-18513674D02*
X7833705Y-18504150D01*
X7833705Y-18504150D02*
X7862277Y-18504150D01*
X7862277Y-18504150D02*
X7881324Y-18513674D01*
X7881324Y-18513674D02*
X7890848Y-18532722D01*
X7890848Y-18532722D02*
X7890848Y-18637484D01*
X7986086Y-18637484D02*
X7986086Y-18504150D01*
X7986086Y-18523198D02*
X7995610Y-18513674D01*
X7995610Y-18513674D02*
X8014658Y-18504150D01*
X8014658Y-18504150D02*
X8043229Y-18504150D01*
X8043229Y-18504150D02*
X8062277Y-18513674D01*
X8062277Y-18513674D02*
X8071801Y-18532722D01*
X8071801Y-18532722D02*
X8071801Y-18637484D01*
X8071801Y-18532722D02*
X8081324Y-18513674D01*
X8081324Y-18513674D02*
X8100372Y-18504150D01*
X8100372Y-18504150D02*
X8128943Y-18504150D01*
X8128943Y-18504150D02*
X8147991Y-18513674D01*
X8147991Y-18513674D02*
X8157515Y-18532722D01*
X8157515Y-18532722D02*
X8157515Y-18637484D01*
X8547991Y-18427960D02*
X8376563Y-18685103D01*
X8805134Y-18437484D02*
X8824182Y-18437484D01*
X8824182Y-18437484D02*
X8843229Y-18447008D01*
X8843229Y-18447008D02*
X8852753Y-18456531D01*
X8852753Y-18456531D02*
X8862277Y-18475579D01*
X8862277Y-18475579D02*
X8871801Y-18513674D01*
X8871801Y-18513674D02*
X8871801Y-18561293D01*
X8871801Y-18561293D02*
X8862277Y-18599389D01*
X8862277Y-18599389D02*
X8852753Y-18618436D01*
X8852753Y-18618436D02*
X8843229Y-18627960D01*
X8843229Y-18627960D02*
X8824182Y-18637484D01*
X8824182Y-18637484D02*
X8805134Y-18637484D01*
X8805134Y-18637484D02*
X8786087Y-18627960D01*
X8786087Y-18627960D02*
X8776563Y-18618436D01*
X8776563Y-18618436D02*
X8767039Y-18599389D01*
X8767039Y-18599389D02*
X8757515Y-18561293D01*
X8757515Y-18561293D02*
X8757515Y-18513674D01*
X8757515Y-18513674D02*
X8767039Y-18475579D01*
X8767039Y-18475579D02*
X8776563Y-18456531D01*
X8776563Y-18456531D02*
X8786087Y-18447008D01*
X8786087Y-18447008D02*
X8805134Y-18437484D01*
X8957515Y-18618436D02*
X8967039Y-18627960D01*
X8967039Y-18627960D02*
X8957515Y-18637484D01*
X8957515Y-18637484D02*
X8947991Y-18627960D01*
X8947991Y-18627960D02*
X8957515Y-18618436D01*
X8957515Y-18618436D02*
X8957515Y-18637484D01*
X9090848Y-18437484D02*
X9109896Y-18437484D01*
X9109896Y-18437484D02*
X9128944Y-18447008D01*
X9128944Y-18447008D02*
X9138468Y-18456531D01*
X9138468Y-18456531D02*
X9147991Y-18475579D01*
X9147991Y-18475579D02*
X9157515Y-18513674D01*
X9157515Y-18513674D02*
X9157515Y-18561293D01*
X9157515Y-18561293D02*
X9147991Y-18599389D01*
X9147991Y-18599389D02*
X9138468Y-18618436D01*
X9138468Y-18618436D02*
X9128944Y-18627960D01*
X9128944Y-18627960D02*
X9109896Y-18637484D01*
X9109896Y-18637484D02*
X9090848Y-18637484D01*
X9090848Y-18637484D02*
X9071801Y-18627960D01*
X9071801Y-18627960D02*
X9062277Y-18618436D01*
X9062277Y-18618436D02*
X9052753Y-18599389D01*
X9052753Y-18599389D02*
X9043229Y-18561293D01*
X9043229Y-18561293D02*
X9043229Y-18513674D01*
X9043229Y-18513674D02*
X9052753Y-18475579D01*
X9052753Y-18475579D02*
X9062277Y-18456531D01*
X9062277Y-18456531D02*
X9071801Y-18447008D01*
X9071801Y-18447008D02*
X9090848Y-18437484D01*
X9328944Y-18504150D02*
X9328944Y-18637484D01*
X9281325Y-18427960D02*
X9233706Y-18570817D01*
X9233706Y-18570817D02*
X9357515Y-18570817D01*
X9414658Y-18437484D02*
X9547991Y-18437484D01*
X9547991Y-18437484D02*
X9462277Y-18637484D01*
X9614658Y-18456531D02*
X9624182Y-18447008D01*
X9624182Y-18447008D02*
X9643229Y-18437484D01*
X9643229Y-18437484D02*
X9690849Y-18437484D01*
X9690849Y-18437484D02*
X9709896Y-18447008D01*
X9709896Y-18447008D02*
X9719420Y-18456531D01*
X9719420Y-18456531D02*
X9728944Y-18475579D01*
X9728944Y-18475579D02*
X9728944Y-18494627D01*
X9728944Y-18494627D02*
X9719420Y-18523198D01*
X9719420Y-18523198D02*
X9605134Y-18637484D01*
X9605134Y-18637484D02*
X9728944Y-18637484D01*
X9805134Y-18437484D02*
X9805134Y-18475579D01*
X9881325Y-18437484D02*
X9881325Y-18475579D01*
X10176563Y-18713674D02*
X10167039Y-18704150D01*
X10167039Y-18704150D02*
X10147991Y-18675579D01*
X10147991Y-18675579D02*
X10138468Y-18656531D01*
X10138468Y-18656531D02*
X10128944Y-18627960D01*
X10128944Y-18627960D02*
X10119420Y-18580341D01*
X10119420Y-18580341D02*
X10119420Y-18542246D01*
X10119420Y-18542246D02*
X10128944Y-18494627D01*
X10128944Y-18494627D02*
X10138468Y-18466055D01*
X10138468Y-18466055D02*
X10147991Y-18447008D01*
X10147991Y-18447008D02*
X10167039Y-18418436D01*
X10167039Y-18418436D02*
X10176563Y-18408912D01*
X10243230Y-18456531D02*
X10252753Y-18447008D01*
X10252753Y-18447008D02*
X10271801Y-18437484D01*
X10271801Y-18437484D02*
X10319420Y-18437484D01*
X10319420Y-18437484D02*
X10338468Y-18447008D01*
X10338468Y-18447008D02*
X10347991Y-18456531D01*
X10347991Y-18456531D02*
X10357515Y-18475579D01*
X10357515Y-18475579D02*
X10357515Y-18494627D01*
X10357515Y-18494627D02*
X10347991Y-18523198D01*
X10347991Y-18523198D02*
X10233706Y-18637484D01*
X10233706Y-18637484D02*
X10357515Y-18637484D01*
X10595611Y-18637484D02*
X10595611Y-18437484D01*
X10681325Y-18637484D02*
X10681325Y-18532722D01*
X10681325Y-18532722D02*
X10671801Y-18513674D01*
X10671801Y-18513674D02*
X10652753Y-18504150D01*
X10652753Y-18504150D02*
X10624182Y-18504150D01*
X10624182Y-18504150D02*
X10605134Y-18513674D01*
X10605134Y-18513674D02*
X10595611Y-18523198D01*
X10805134Y-18637484D02*
X10786087Y-18627960D01*
X10786087Y-18627960D02*
X10776563Y-18618436D01*
X10776563Y-18618436D02*
X10767039Y-18599389D01*
X10767039Y-18599389D02*
X10767039Y-18542246D01*
X10767039Y-18542246D02*
X10776563Y-18523198D01*
X10776563Y-18523198D02*
X10786087Y-18513674D01*
X10786087Y-18513674D02*
X10805134Y-18504150D01*
X10805134Y-18504150D02*
X10833706Y-18504150D01*
X10833706Y-18504150D02*
X10852753Y-18513674D01*
X10852753Y-18513674D02*
X10862277Y-18523198D01*
X10862277Y-18523198D02*
X10871801Y-18542246D01*
X10871801Y-18542246D02*
X10871801Y-18599389D01*
X10871801Y-18599389D02*
X10862277Y-18618436D01*
X10862277Y-18618436D02*
X10852753Y-18627960D01*
X10852753Y-18627960D02*
X10833706Y-18637484D01*
X10833706Y-18637484D02*
X10805134Y-18637484D01*
X10986087Y-18637484D02*
X10967039Y-18627960D01*
X10967039Y-18627960D02*
X10957515Y-18608912D01*
X10957515Y-18608912D02*
X10957515Y-18437484D01*
X11138468Y-18627960D02*
X11119420Y-18637484D01*
X11119420Y-18637484D02*
X11081325Y-18637484D01*
X11081325Y-18637484D02*
X11062277Y-18627960D01*
X11062277Y-18627960D02*
X11052753Y-18608912D01*
X11052753Y-18608912D02*
X11052753Y-18532722D01*
X11052753Y-18532722D02*
X11062277Y-18513674D01*
X11062277Y-18513674D02*
X11081325Y-18504150D01*
X11081325Y-18504150D02*
X11119420Y-18504150D01*
X11119420Y-18504150D02*
X11138468Y-18513674D01*
X11138468Y-18513674D02*
X11147992Y-18532722D01*
X11147992Y-18532722D02*
X11147992Y-18551770D01*
X11147992Y-18551770D02*
X11052753Y-18570817D01*
X11224182Y-18627960D02*
X11243230Y-18637484D01*
X11243230Y-18637484D02*
X11281325Y-18637484D01*
X11281325Y-18637484D02*
X11300372Y-18627960D01*
X11300372Y-18627960D02*
X11309896Y-18608912D01*
X11309896Y-18608912D02*
X11309896Y-18599389D01*
X11309896Y-18599389D02*
X11300372Y-18580341D01*
X11300372Y-18580341D02*
X11281325Y-18570817D01*
X11281325Y-18570817D02*
X11252753Y-18570817D01*
X11252753Y-18570817D02*
X11233706Y-18561293D01*
X11233706Y-18561293D02*
X11224182Y-18542246D01*
X11224182Y-18542246D02*
X11224182Y-18532722D01*
X11224182Y-18532722D02*
X11233706Y-18513674D01*
X11233706Y-18513674D02*
X11252753Y-18504150D01*
X11252753Y-18504150D02*
X11281325Y-18504150D01*
X11281325Y-18504150D02*
X11300372Y-18513674D01*
X11376563Y-18713674D02*
X11386087Y-18704150D01*
X11386087Y-18704150D02*
X11405134Y-18675579D01*
X11405134Y-18675579D02*
X11414658Y-18656531D01*
X11414658Y-18656531D02*
X11424182Y-18627960D01*
X11424182Y-18627960D02*
X11433706Y-18580341D01*
X11433706Y-18580341D02*
X11433706Y-18542246D01*
X11433706Y-18542246D02*
X11424182Y-18494627D01*
X11424182Y-18494627D02*
X11414658Y-18466055D01*
X11414658Y-18466055D02*
X11405134Y-18447008D01*
X11405134Y-18447008D02*
X11386087Y-18418436D01*
X11386087Y-18418436D02*
X11376563Y-18408912D01*
M02*
