%TF.GenerationSoftware,KiCad,Pcbnew,9.0.2+dfsg-1*%
%TF.CreationDate,2026-09-02T22:03:47+02:00*%
%TF.ProjectId,power-card,706f7765-722d-4636-9172-642e6b696361,rev?*%
%TF.SameCoordinates,Original*%
%TF.FileFunction,Drillmap*%
%TF.FilePolarity,Positive*%
%FSLAX45Y45*%
G04 Gerber Fmt 4.5, Leading zero omitted, Abs format (unit mm)*
G04 Created by KiCad (PCBNEW 9.0.2+dfsg-1) date 2026-09-02 22:03:47*
%MOMM*%
%LPD*%
G01*
G04 APERTURE LIST*
%ADD10C,0.050000*%
%ADD11C,0.200000*%
%ADD12C,0.100000*%
G04 APERTURE END LIST*
D10*
X16573500Y-16319500D02*
X16573500Y-6350000D01*
X6604000Y-6350000D02*
X6604000Y-16319500D01*
X6604000Y-16319500D02*
X16573500Y-16319500D01*
X16573500Y-6350000D02*
X6604000Y-6350000D01*
D11*
D12*
X7276000Y-15201000D02*
X7341000Y-15266000D01*
X7341000Y-15201000D02*
X7276000Y-15266000D01*
X7276000Y-15779000D02*
X7341000Y-15844000D01*
X7341000Y-15779000D02*
X7276000Y-15844000D01*
D11*
X6862277Y-16633484D02*
X6862277Y-16433484D01*
X6862277Y-16433484D02*
X6909896Y-16433484D01*
X6909896Y-16433484D02*
X6938467Y-16443008D01*
X6938467Y-16443008D02*
X6957515Y-16462055D01*
X6957515Y-16462055D02*
X6967039Y-16481103D01*
X6967039Y-16481103D02*
X6976562Y-16519198D01*
X6976562Y-16519198D02*
X6976562Y-16547769D01*
X6976562Y-16547769D02*
X6967039Y-16585865D01*
X6967039Y-16585865D02*
X6957515Y-16604912D01*
X6957515Y-16604912D02*
X6938467Y-16623960D01*
X6938467Y-16623960D02*
X6909896Y-16633484D01*
X6909896Y-16633484D02*
X6862277Y-16633484D01*
X7062277Y-16633484D02*
X7062277Y-16500150D01*
X7062277Y-16538246D02*
X7071801Y-16519198D01*
X7071801Y-16519198D02*
X7081324Y-16509674D01*
X7081324Y-16509674D02*
X7100372Y-16500150D01*
X7100372Y-16500150D02*
X7119420Y-16500150D01*
X7186086Y-16633484D02*
X7186086Y-16500150D01*
X7186086Y-16433484D02*
X7176562Y-16443008D01*
X7176562Y-16443008D02*
X7186086Y-16452531D01*
X7186086Y-16452531D02*
X7195610Y-16443008D01*
X7195610Y-16443008D02*
X7186086Y-16433484D01*
X7186086Y-16433484D02*
X7186086Y-16452531D01*
X7309896Y-16633484D02*
X7290848Y-16623960D01*
X7290848Y-16623960D02*
X7281324Y-16604912D01*
X7281324Y-16604912D02*
X7281324Y-16433484D01*
X7414658Y-16633484D02*
X7395610Y-16623960D01*
X7395610Y-16623960D02*
X7386086Y-16604912D01*
X7386086Y-16604912D02*
X7386086Y-16433484D01*
X7643229Y-16633484D02*
X7643229Y-16433484D01*
X7643229Y-16433484D02*
X7709896Y-16576341D01*
X7709896Y-16576341D02*
X7776562Y-16433484D01*
X7776562Y-16433484D02*
X7776562Y-16633484D01*
X7957515Y-16633484D02*
X7957515Y-16528722D01*
X7957515Y-16528722D02*
X7947991Y-16509674D01*
X7947991Y-16509674D02*
X7928943Y-16500150D01*
X7928943Y-16500150D02*
X7890848Y-16500150D01*
X7890848Y-16500150D02*
X7871801Y-16509674D01*
X7957515Y-16623960D02*
X7938467Y-16633484D01*
X7938467Y-16633484D02*
X7890848Y-16633484D01*
X7890848Y-16633484D02*
X7871801Y-16623960D01*
X7871801Y-16623960D02*
X7862277Y-16604912D01*
X7862277Y-16604912D02*
X7862277Y-16585865D01*
X7862277Y-16585865D02*
X7871801Y-16566817D01*
X7871801Y-16566817D02*
X7890848Y-16557293D01*
X7890848Y-16557293D02*
X7938467Y-16557293D01*
X7938467Y-16557293D02*
X7957515Y-16547769D01*
X8052753Y-16500150D02*
X8052753Y-16700150D01*
X8052753Y-16509674D02*
X8071801Y-16500150D01*
X8071801Y-16500150D02*
X8109896Y-16500150D01*
X8109896Y-16500150D02*
X8128943Y-16509674D01*
X8128943Y-16509674D02*
X8138467Y-16519198D01*
X8138467Y-16519198D02*
X8147991Y-16538246D01*
X8147991Y-16538246D02*
X8147991Y-16595388D01*
X8147991Y-16595388D02*
X8138467Y-16614436D01*
X8138467Y-16614436D02*
X8128943Y-16623960D01*
X8128943Y-16623960D02*
X8109896Y-16633484D01*
X8109896Y-16633484D02*
X8071801Y-16633484D01*
X8071801Y-16633484D02*
X8052753Y-16623960D01*
X8233705Y-16614436D02*
X8243229Y-16623960D01*
X8243229Y-16623960D02*
X8233705Y-16633484D01*
X8233705Y-16633484D02*
X8224182Y-16623960D01*
X8224182Y-16623960D02*
X8233705Y-16614436D01*
X8233705Y-16614436D02*
X8233705Y-16633484D01*
X8233705Y-16509674D02*
X8243229Y-16519198D01*
X8243229Y-16519198D02*
X8233705Y-16528722D01*
X8233705Y-16528722D02*
X8224182Y-16519198D01*
X8224182Y-16519198D02*
X8233705Y-16509674D01*
X8233705Y-16509674D02*
X8233705Y-16528722D01*
D12*
X6536500Y-16929500D02*
X6601500Y-16994500D01*
X6601500Y-16929500D02*
X6536500Y-16994500D01*
D11*
X6900372Y-16853484D02*
X6919420Y-16853484D01*
X6919420Y-16853484D02*
X6938467Y-16863008D01*
X6938467Y-16863008D02*
X6947991Y-16872531D01*
X6947991Y-16872531D02*
X6957515Y-16891579D01*
X6957515Y-16891579D02*
X6967039Y-16929674D01*
X6967039Y-16929674D02*
X6967039Y-16977293D01*
X6967039Y-16977293D02*
X6957515Y-17015389D01*
X6957515Y-17015389D02*
X6947991Y-17034436D01*
X6947991Y-17034436D02*
X6938467Y-17043960D01*
X6938467Y-17043960D02*
X6919420Y-17053484D01*
X6919420Y-17053484D02*
X6900372Y-17053484D01*
X6900372Y-17053484D02*
X6881324Y-17043960D01*
X6881324Y-17043960D02*
X6871801Y-17034436D01*
X6871801Y-17034436D02*
X6862277Y-17015389D01*
X6862277Y-17015389D02*
X6852753Y-16977293D01*
X6852753Y-16977293D02*
X6852753Y-16929674D01*
X6852753Y-16929674D02*
X6862277Y-16891579D01*
X6862277Y-16891579D02*
X6871801Y-16872531D01*
X6871801Y-16872531D02*
X6881324Y-16863008D01*
X6881324Y-16863008D02*
X6900372Y-16853484D01*
X7052753Y-17034436D02*
X7062277Y-17043960D01*
X7062277Y-17043960D02*
X7052753Y-17053484D01*
X7052753Y-17053484D02*
X7043229Y-17043960D01*
X7043229Y-17043960D02*
X7052753Y-17034436D01*
X7052753Y-17034436D02*
X7052753Y-17053484D01*
X7233705Y-16853484D02*
X7195610Y-16853484D01*
X7195610Y-16853484D02*
X7176562Y-16863008D01*
X7176562Y-16863008D02*
X7167039Y-16872531D01*
X7167039Y-16872531D02*
X7147991Y-16901103D01*
X7147991Y-16901103D02*
X7138467Y-16939198D01*
X7138467Y-16939198D02*
X7138467Y-17015389D01*
X7138467Y-17015389D02*
X7147991Y-17034436D01*
X7147991Y-17034436D02*
X7157515Y-17043960D01*
X7157515Y-17043960D02*
X7176562Y-17053484D01*
X7176562Y-17053484D02*
X7214658Y-17053484D01*
X7214658Y-17053484D02*
X7233705Y-17043960D01*
X7233705Y-17043960D02*
X7243229Y-17034436D01*
X7243229Y-17034436D02*
X7252753Y-17015389D01*
X7252753Y-17015389D02*
X7252753Y-16967770D01*
X7252753Y-16967770D02*
X7243229Y-16948722D01*
X7243229Y-16948722D02*
X7233705Y-16939198D01*
X7233705Y-16939198D02*
X7214658Y-16929674D01*
X7214658Y-16929674D02*
X7176562Y-16929674D01*
X7176562Y-16929674D02*
X7157515Y-16939198D01*
X7157515Y-16939198D02*
X7147991Y-16948722D01*
X7147991Y-16948722D02*
X7138467Y-16967770D01*
X7433705Y-16853484D02*
X7338467Y-16853484D01*
X7338467Y-16853484D02*
X7328943Y-16948722D01*
X7328943Y-16948722D02*
X7338467Y-16939198D01*
X7338467Y-16939198D02*
X7357515Y-16929674D01*
X7357515Y-16929674D02*
X7405134Y-16929674D01*
X7405134Y-16929674D02*
X7424182Y-16939198D01*
X7424182Y-16939198D02*
X7433705Y-16948722D01*
X7433705Y-16948722D02*
X7443229Y-16967770D01*
X7443229Y-16967770D02*
X7443229Y-17015389D01*
X7443229Y-17015389D02*
X7433705Y-17034436D01*
X7433705Y-17034436D02*
X7424182Y-17043960D01*
X7424182Y-17043960D02*
X7405134Y-17053484D01*
X7405134Y-17053484D02*
X7357515Y-17053484D01*
X7357515Y-17053484D02*
X7338467Y-17043960D01*
X7338467Y-17043960D02*
X7328943Y-17034436D01*
X7567039Y-16853484D02*
X7586086Y-16853484D01*
X7586086Y-16853484D02*
X7605134Y-16863008D01*
X7605134Y-16863008D02*
X7614658Y-16872531D01*
X7614658Y-16872531D02*
X7624182Y-16891579D01*
X7624182Y-16891579D02*
X7633705Y-16929674D01*
X7633705Y-16929674D02*
X7633705Y-16977293D01*
X7633705Y-16977293D02*
X7624182Y-17015389D01*
X7624182Y-17015389D02*
X7614658Y-17034436D01*
X7614658Y-17034436D02*
X7605134Y-17043960D01*
X7605134Y-17043960D02*
X7586086Y-17053484D01*
X7586086Y-17053484D02*
X7567039Y-17053484D01*
X7567039Y-17053484D02*
X7547991Y-17043960D01*
X7547991Y-17043960D02*
X7538467Y-17034436D01*
X7538467Y-17034436D02*
X7528943Y-17015389D01*
X7528943Y-17015389D02*
X7519420Y-16977293D01*
X7519420Y-16977293D02*
X7519420Y-16929674D01*
X7519420Y-16929674D02*
X7528943Y-16891579D01*
X7528943Y-16891579D02*
X7538467Y-16872531D01*
X7538467Y-16872531D02*
X7547991Y-16863008D01*
X7547991Y-16863008D02*
X7567039Y-16853484D01*
X7719420Y-17053484D02*
X7719420Y-16920150D01*
X7719420Y-16939198D02*
X7728943Y-16929674D01*
X7728943Y-16929674D02*
X7747991Y-16920150D01*
X7747991Y-16920150D02*
X7776563Y-16920150D01*
X7776563Y-16920150D02*
X7795610Y-16929674D01*
X7795610Y-16929674D02*
X7805134Y-16948722D01*
X7805134Y-16948722D02*
X7805134Y-17053484D01*
X7805134Y-16948722D02*
X7814658Y-16929674D01*
X7814658Y-16929674D02*
X7833705Y-16920150D01*
X7833705Y-16920150D02*
X7862277Y-16920150D01*
X7862277Y-16920150D02*
X7881324Y-16929674D01*
X7881324Y-16929674D02*
X7890848Y-16948722D01*
X7890848Y-16948722D02*
X7890848Y-17053484D01*
X7986086Y-17053484D02*
X7986086Y-16920150D01*
X7986086Y-16939198D02*
X7995610Y-16929674D01*
X7995610Y-16929674D02*
X8014658Y-16920150D01*
X8014658Y-16920150D02*
X8043229Y-16920150D01*
X8043229Y-16920150D02*
X8062277Y-16929674D01*
X8062277Y-16929674D02*
X8071801Y-16948722D01*
X8071801Y-16948722D02*
X8071801Y-17053484D01*
X8071801Y-16948722D02*
X8081324Y-16929674D01*
X8081324Y-16929674D02*
X8100372Y-16920150D01*
X8100372Y-16920150D02*
X8128943Y-16920150D01*
X8128943Y-16920150D02*
X8147991Y-16929674D01*
X8147991Y-16929674D02*
X8157515Y-16948722D01*
X8157515Y-16948722D02*
X8157515Y-17053484D01*
X8547991Y-16843960D02*
X8376563Y-17101103D01*
X8805134Y-16853484D02*
X8824182Y-16853484D01*
X8824182Y-16853484D02*
X8843229Y-16863008D01*
X8843229Y-16863008D02*
X8852753Y-16872531D01*
X8852753Y-16872531D02*
X8862277Y-16891579D01*
X8862277Y-16891579D02*
X8871801Y-16929674D01*
X8871801Y-16929674D02*
X8871801Y-16977293D01*
X8871801Y-16977293D02*
X8862277Y-17015389D01*
X8862277Y-17015389D02*
X8852753Y-17034436D01*
X8852753Y-17034436D02*
X8843229Y-17043960D01*
X8843229Y-17043960D02*
X8824182Y-17053484D01*
X8824182Y-17053484D02*
X8805134Y-17053484D01*
X8805134Y-17053484D02*
X8786087Y-17043960D01*
X8786087Y-17043960D02*
X8776563Y-17034436D01*
X8776563Y-17034436D02*
X8767039Y-17015389D01*
X8767039Y-17015389D02*
X8757515Y-16977293D01*
X8757515Y-16977293D02*
X8757515Y-16929674D01*
X8757515Y-16929674D02*
X8767039Y-16891579D01*
X8767039Y-16891579D02*
X8776563Y-16872531D01*
X8776563Y-16872531D02*
X8786087Y-16863008D01*
X8786087Y-16863008D02*
X8805134Y-16853484D01*
X8957515Y-17034436D02*
X8967039Y-17043960D01*
X8967039Y-17043960D02*
X8957515Y-17053484D01*
X8957515Y-17053484D02*
X8947991Y-17043960D01*
X8947991Y-17043960D02*
X8957515Y-17034436D01*
X8957515Y-17034436D02*
X8957515Y-17053484D01*
X9090848Y-16853484D02*
X9109896Y-16853484D01*
X9109896Y-16853484D02*
X9128944Y-16863008D01*
X9128944Y-16863008D02*
X9138468Y-16872531D01*
X9138468Y-16872531D02*
X9147991Y-16891579D01*
X9147991Y-16891579D02*
X9157515Y-16929674D01*
X9157515Y-16929674D02*
X9157515Y-16977293D01*
X9157515Y-16977293D02*
X9147991Y-17015389D01*
X9147991Y-17015389D02*
X9138468Y-17034436D01*
X9138468Y-17034436D02*
X9128944Y-17043960D01*
X9128944Y-17043960D02*
X9109896Y-17053484D01*
X9109896Y-17053484D02*
X9090848Y-17053484D01*
X9090848Y-17053484D02*
X9071801Y-17043960D01*
X9071801Y-17043960D02*
X9062277Y-17034436D01*
X9062277Y-17034436D02*
X9052753Y-17015389D01*
X9052753Y-17015389D02*
X9043229Y-16977293D01*
X9043229Y-16977293D02*
X9043229Y-16929674D01*
X9043229Y-16929674D02*
X9052753Y-16891579D01*
X9052753Y-16891579D02*
X9062277Y-16872531D01*
X9062277Y-16872531D02*
X9071801Y-16863008D01*
X9071801Y-16863008D02*
X9090848Y-16853484D01*
X9233706Y-16872531D02*
X9243229Y-16863008D01*
X9243229Y-16863008D02*
X9262277Y-16853484D01*
X9262277Y-16853484D02*
X9309896Y-16853484D01*
X9309896Y-16853484D02*
X9328944Y-16863008D01*
X9328944Y-16863008D02*
X9338468Y-16872531D01*
X9338468Y-16872531D02*
X9347991Y-16891579D01*
X9347991Y-16891579D02*
X9347991Y-16910627D01*
X9347991Y-16910627D02*
X9338468Y-16939198D01*
X9338468Y-16939198D02*
X9224182Y-17053484D01*
X9224182Y-17053484D02*
X9347991Y-17053484D01*
X9528944Y-16853484D02*
X9433706Y-16853484D01*
X9433706Y-16853484D02*
X9424182Y-16948722D01*
X9424182Y-16948722D02*
X9433706Y-16939198D01*
X9433706Y-16939198D02*
X9452753Y-16929674D01*
X9452753Y-16929674D02*
X9500372Y-16929674D01*
X9500372Y-16929674D02*
X9519420Y-16939198D01*
X9519420Y-16939198D02*
X9528944Y-16948722D01*
X9528944Y-16948722D02*
X9538468Y-16967770D01*
X9538468Y-16967770D02*
X9538468Y-17015389D01*
X9538468Y-17015389D02*
X9528944Y-17034436D01*
X9528944Y-17034436D02*
X9519420Y-17043960D01*
X9519420Y-17043960D02*
X9500372Y-17053484D01*
X9500372Y-17053484D02*
X9452753Y-17053484D01*
X9452753Y-17053484D02*
X9433706Y-17043960D01*
X9433706Y-17043960D02*
X9424182Y-17034436D01*
X9709896Y-16853484D02*
X9671801Y-16853484D01*
X9671801Y-16853484D02*
X9652753Y-16863008D01*
X9652753Y-16863008D02*
X9643229Y-16872531D01*
X9643229Y-16872531D02*
X9624182Y-16901103D01*
X9624182Y-16901103D02*
X9614658Y-16939198D01*
X9614658Y-16939198D02*
X9614658Y-17015389D01*
X9614658Y-17015389D02*
X9624182Y-17034436D01*
X9624182Y-17034436D02*
X9633706Y-17043960D01*
X9633706Y-17043960D02*
X9652753Y-17053484D01*
X9652753Y-17053484D02*
X9690849Y-17053484D01*
X9690849Y-17053484D02*
X9709896Y-17043960D01*
X9709896Y-17043960D02*
X9719420Y-17034436D01*
X9719420Y-17034436D02*
X9728944Y-17015389D01*
X9728944Y-17015389D02*
X9728944Y-16967770D01*
X9728944Y-16967770D02*
X9719420Y-16948722D01*
X9719420Y-16948722D02*
X9709896Y-16939198D01*
X9709896Y-16939198D02*
X9690849Y-16929674D01*
X9690849Y-16929674D02*
X9652753Y-16929674D01*
X9652753Y-16929674D02*
X9633706Y-16939198D01*
X9633706Y-16939198D02*
X9624182Y-16948722D01*
X9624182Y-16948722D02*
X9614658Y-16967770D01*
X9805134Y-16853484D02*
X9805134Y-16891579D01*
X9881325Y-16853484D02*
X9881325Y-16891579D01*
X10176563Y-17129674D02*
X10167039Y-17120150D01*
X10167039Y-17120150D02*
X10147991Y-17091579D01*
X10147991Y-17091579D02*
X10138468Y-17072531D01*
X10138468Y-17072531D02*
X10128944Y-17043960D01*
X10128944Y-17043960D02*
X10119420Y-16996341D01*
X10119420Y-16996341D02*
X10119420Y-16958246D01*
X10119420Y-16958246D02*
X10128944Y-16910627D01*
X10128944Y-16910627D02*
X10138468Y-16882055D01*
X10138468Y-16882055D02*
X10147991Y-16863008D01*
X10147991Y-16863008D02*
X10167039Y-16834436D01*
X10167039Y-16834436D02*
X10176563Y-16824912D01*
X10243230Y-16872531D02*
X10252753Y-16863008D01*
X10252753Y-16863008D02*
X10271801Y-16853484D01*
X10271801Y-16853484D02*
X10319420Y-16853484D01*
X10319420Y-16853484D02*
X10338468Y-16863008D01*
X10338468Y-16863008D02*
X10347991Y-16872531D01*
X10347991Y-16872531D02*
X10357515Y-16891579D01*
X10357515Y-16891579D02*
X10357515Y-16910627D01*
X10357515Y-16910627D02*
X10347991Y-16939198D01*
X10347991Y-16939198D02*
X10233706Y-17053484D01*
X10233706Y-17053484D02*
X10357515Y-17053484D01*
X10595611Y-17053484D02*
X10595611Y-16853484D01*
X10681325Y-17053484D02*
X10681325Y-16948722D01*
X10681325Y-16948722D02*
X10671801Y-16929674D01*
X10671801Y-16929674D02*
X10652753Y-16920150D01*
X10652753Y-16920150D02*
X10624182Y-16920150D01*
X10624182Y-16920150D02*
X10605134Y-16929674D01*
X10605134Y-16929674D02*
X10595611Y-16939198D01*
X10805134Y-17053484D02*
X10786087Y-17043960D01*
X10786087Y-17043960D02*
X10776563Y-17034436D01*
X10776563Y-17034436D02*
X10767039Y-17015389D01*
X10767039Y-17015389D02*
X10767039Y-16958246D01*
X10767039Y-16958246D02*
X10776563Y-16939198D01*
X10776563Y-16939198D02*
X10786087Y-16929674D01*
X10786087Y-16929674D02*
X10805134Y-16920150D01*
X10805134Y-16920150D02*
X10833706Y-16920150D01*
X10833706Y-16920150D02*
X10852753Y-16929674D01*
X10852753Y-16929674D02*
X10862277Y-16939198D01*
X10862277Y-16939198D02*
X10871801Y-16958246D01*
X10871801Y-16958246D02*
X10871801Y-17015389D01*
X10871801Y-17015389D02*
X10862277Y-17034436D01*
X10862277Y-17034436D02*
X10852753Y-17043960D01*
X10852753Y-17043960D02*
X10833706Y-17053484D01*
X10833706Y-17053484D02*
X10805134Y-17053484D01*
X10986087Y-17053484D02*
X10967039Y-17043960D01*
X10967039Y-17043960D02*
X10957515Y-17024912D01*
X10957515Y-17024912D02*
X10957515Y-16853484D01*
X11138468Y-17043960D02*
X11119420Y-17053484D01*
X11119420Y-17053484D02*
X11081325Y-17053484D01*
X11081325Y-17053484D02*
X11062277Y-17043960D01*
X11062277Y-17043960D02*
X11052753Y-17024912D01*
X11052753Y-17024912D02*
X11052753Y-16948722D01*
X11052753Y-16948722D02*
X11062277Y-16929674D01*
X11062277Y-16929674D02*
X11081325Y-16920150D01*
X11081325Y-16920150D02*
X11119420Y-16920150D01*
X11119420Y-16920150D02*
X11138468Y-16929674D01*
X11138468Y-16929674D02*
X11147992Y-16948722D01*
X11147992Y-16948722D02*
X11147992Y-16967770D01*
X11147992Y-16967770D02*
X11052753Y-16986817D01*
X11224182Y-17043960D02*
X11243230Y-17053484D01*
X11243230Y-17053484D02*
X11281325Y-17053484D01*
X11281325Y-17053484D02*
X11300372Y-17043960D01*
X11300372Y-17043960D02*
X11309896Y-17024912D01*
X11309896Y-17024912D02*
X11309896Y-17015389D01*
X11309896Y-17015389D02*
X11300372Y-16996341D01*
X11300372Y-16996341D02*
X11281325Y-16986817D01*
X11281325Y-16986817D02*
X11252753Y-16986817D01*
X11252753Y-16986817D02*
X11233706Y-16977293D01*
X11233706Y-16977293D02*
X11224182Y-16958246D01*
X11224182Y-16958246D02*
X11224182Y-16948722D01*
X11224182Y-16948722D02*
X11233706Y-16929674D01*
X11233706Y-16929674D02*
X11252753Y-16920150D01*
X11252753Y-16920150D02*
X11281325Y-16920150D01*
X11281325Y-16920150D02*
X11300372Y-16929674D01*
X11376563Y-17129674D02*
X11386087Y-17120150D01*
X11386087Y-17120150D02*
X11405134Y-17091579D01*
X11405134Y-17091579D02*
X11414658Y-17072531D01*
X11414658Y-17072531D02*
X11424182Y-17043960D01*
X11424182Y-17043960D02*
X11433706Y-16996341D01*
X11433706Y-16996341D02*
X11433706Y-16958246D01*
X11433706Y-16958246D02*
X11424182Y-16910627D01*
X11424182Y-16910627D02*
X11414658Y-16882055D01*
X11414658Y-16882055D02*
X11405134Y-16863008D01*
X11405134Y-16863008D02*
X11386087Y-16834436D01*
X11386087Y-16834436D02*
X11376563Y-16824912D01*
X11738468Y-17129674D02*
X11728944Y-17120150D01*
X11728944Y-17120150D02*
X11709896Y-17091579D01*
X11709896Y-17091579D02*
X11700372Y-17072531D01*
X11700372Y-17072531D02*
X11690849Y-17043960D01*
X11690849Y-17043960D02*
X11681325Y-16996341D01*
X11681325Y-16996341D02*
X11681325Y-16958246D01*
X11681325Y-16958246D02*
X11690849Y-16910627D01*
X11690849Y-16910627D02*
X11700372Y-16882055D01*
X11700372Y-16882055D02*
X11709896Y-16863008D01*
X11709896Y-16863008D02*
X11728944Y-16834436D01*
X11728944Y-16834436D02*
X11738468Y-16824912D01*
X11814658Y-16920150D02*
X11814658Y-17053484D01*
X11814658Y-16939198D02*
X11824182Y-16929674D01*
X11824182Y-16929674D02*
X11843230Y-16920150D01*
X11843230Y-16920150D02*
X11871801Y-16920150D01*
X11871801Y-16920150D02*
X11890849Y-16929674D01*
X11890849Y-16929674D02*
X11900372Y-16948722D01*
X11900372Y-16948722D02*
X11900372Y-17053484D01*
X12024182Y-17053484D02*
X12005134Y-17043960D01*
X12005134Y-17043960D02*
X11995611Y-17034436D01*
X11995611Y-17034436D02*
X11986087Y-17015389D01*
X11986087Y-17015389D02*
X11986087Y-16958246D01*
X11986087Y-16958246D02*
X11995611Y-16939198D01*
X11995611Y-16939198D02*
X12005134Y-16929674D01*
X12005134Y-16929674D02*
X12024182Y-16920150D01*
X12024182Y-16920150D02*
X12052753Y-16920150D01*
X12052753Y-16920150D02*
X12071801Y-16929674D01*
X12071801Y-16929674D02*
X12081325Y-16939198D01*
X12081325Y-16939198D02*
X12090849Y-16958246D01*
X12090849Y-16958246D02*
X12090849Y-17015389D01*
X12090849Y-17015389D02*
X12081325Y-17034436D01*
X12081325Y-17034436D02*
X12071801Y-17043960D01*
X12071801Y-17043960D02*
X12052753Y-17053484D01*
X12052753Y-17053484D02*
X12024182Y-17053484D01*
X12147992Y-16920150D02*
X12224182Y-16920150D01*
X12176563Y-16853484D02*
X12176563Y-17024912D01*
X12176563Y-17024912D02*
X12186087Y-17043960D01*
X12186087Y-17043960D02*
X12205134Y-17053484D01*
X12205134Y-17053484D02*
X12224182Y-17053484D01*
X12443230Y-16920150D02*
X12443230Y-17120150D01*
X12443230Y-16929674D02*
X12462277Y-16920150D01*
X12462277Y-16920150D02*
X12500373Y-16920150D01*
X12500373Y-16920150D02*
X12519420Y-16929674D01*
X12519420Y-16929674D02*
X12528944Y-16939198D01*
X12528944Y-16939198D02*
X12538468Y-16958246D01*
X12538468Y-16958246D02*
X12538468Y-17015389D01*
X12538468Y-17015389D02*
X12528944Y-17034436D01*
X12528944Y-17034436D02*
X12519420Y-17043960D01*
X12519420Y-17043960D02*
X12500373Y-17053484D01*
X12500373Y-17053484D02*
X12462277Y-17053484D01*
X12462277Y-17053484D02*
X12443230Y-17043960D01*
X12652753Y-17053484D02*
X12633706Y-17043960D01*
X12633706Y-17043960D02*
X12624182Y-17024912D01*
X12624182Y-17024912D02*
X12624182Y-16853484D01*
X12814658Y-17053484D02*
X12814658Y-16948722D01*
X12814658Y-16948722D02*
X12805134Y-16929674D01*
X12805134Y-16929674D02*
X12786087Y-16920150D01*
X12786087Y-16920150D02*
X12747992Y-16920150D01*
X12747992Y-16920150D02*
X12728944Y-16929674D01*
X12814658Y-17043960D02*
X12795611Y-17053484D01*
X12795611Y-17053484D02*
X12747992Y-17053484D01*
X12747992Y-17053484D02*
X12728944Y-17043960D01*
X12728944Y-17043960D02*
X12719420Y-17024912D01*
X12719420Y-17024912D02*
X12719420Y-17005865D01*
X12719420Y-17005865D02*
X12728944Y-16986817D01*
X12728944Y-16986817D02*
X12747992Y-16977293D01*
X12747992Y-16977293D02*
X12795611Y-16977293D01*
X12795611Y-16977293D02*
X12814658Y-16967770D01*
X12881325Y-16920150D02*
X12957515Y-16920150D01*
X12909896Y-16853484D02*
X12909896Y-17024912D01*
X12909896Y-17024912D02*
X12919420Y-17043960D01*
X12919420Y-17043960D02*
X12938468Y-17053484D01*
X12938468Y-17053484D02*
X12957515Y-17053484D01*
X13100373Y-17043960D02*
X13081325Y-17053484D01*
X13081325Y-17053484D02*
X13043230Y-17053484D01*
X13043230Y-17053484D02*
X13024182Y-17043960D01*
X13024182Y-17043960D02*
X13014658Y-17024912D01*
X13014658Y-17024912D02*
X13014658Y-16948722D01*
X13014658Y-16948722D02*
X13024182Y-16929674D01*
X13024182Y-16929674D02*
X13043230Y-16920150D01*
X13043230Y-16920150D02*
X13081325Y-16920150D01*
X13081325Y-16920150D02*
X13100373Y-16929674D01*
X13100373Y-16929674D02*
X13109896Y-16948722D01*
X13109896Y-16948722D02*
X13109896Y-16967770D01*
X13109896Y-16967770D02*
X13014658Y-16986817D01*
X13281325Y-17053484D02*
X13281325Y-16853484D01*
X13281325Y-17043960D02*
X13262277Y-17053484D01*
X13262277Y-17053484D02*
X13224182Y-17053484D01*
X13224182Y-17053484D02*
X13205134Y-17043960D01*
X13205134Y-17043960D02*
X13195611Y-17034436D01*
X13195611Y-17034436D02*
X13186087Y-17015389D01*
X13186087Y-17015389D02*
X13186087Y-16958246D01*
X13186087Y-16958246D02*
X13195611Y-16939198D01*
X13195611Y-16939198D02*
X13205134Y-16929674D01*
X13205134Y-16929674D02*
X13224182Y-16920150D01*
X13224182Y-16920150D02*
X13262277Y-16920150D01*
X13262277Y-16920150D02*
X13281325Y-16929674D01*
X13357515Y-17129674D02*
X13367039Y-17120150D01*
X13367039Y-17120150D02*
X13386087Y-17091579D01*
X13386087Y-17091579D02*
X13395611Y-17072531D01*
X13395611Y-17072531D02*
X13405134Y-17043960D01*
X13405134Y-17043960D02*
X13414658Y-16996341D01*
X13414658Y-16996341D02*
X13414658Y-16958246D01*
X13414658Y-16958246D02*
X13405134Y-16910627D01*
X13405134Y-16910627D02*
X13395611Y-16882055D01*
X13395611Y-16882055D02*
X13386087Y-16863008D01*
X13386087Y-16863008D02*
X13367039Y-16834436D01*
X13367039Y-16834436D02*
X13357515Y-16824912D01*
M02*
