M48
; DRILL file {KiCad 9.0.2+dfsg-1} date 2026-09-02T22:03:47+0200
; FORMAT={-:-/ absolute / metric / decimal}
; #@! TF.CreationDate,2026-09-02T22:03:47+02:00
; #@! TF.GenerationSoftware,Kicad,Pcbnew,9.0.2+dfsg-1
; #@! TF.FileFunction,Plated,1,2,PTH
FMAT,2
METRIC
; #@! TA.AperFunction,Plated,PTH,ViaDrill
T1C0.300
; #@! TA.AperFunction,Plated,PTH,ComponentDrill
T2C0.600
; #@! TA.AperFunction,Plated,PTH,ComponentDrill
T3C0.700
; #@! TA.AperFunction,Plated,PTH,ComponentDrill
T4C0.800
; #@! TA.AperFunction,Plated,PTH,ComponentDrill
T5C1.000
; #@! TA.AperFunction,Plated,PTH,ComponentDrill
T6C1.100
; #@! TA.AperFunction,Plated,PTH,ComponentDrill
T7C1.200
%
G90
G05
T1
X85.09Y-68.58
X85.09Y-72.39
X85.09Y-76.2
X85.09Y-80.01
X85.09Y-83.82
X85.09Y-87.63
X85.09Y-91.44
X85.09Y-95.25
X85.09Y-99.06
X85.09Y-102.87
X85.09Y-106.68
X85.09Y-110.49
X85.09Y-114.3
X85.09Y-118.11
X85.09Y-121.92
X85.09Y-125.73
X85.09Y-129.54
X86.995Y-133.35
X96.9Y-69.85
X96.9Y-73.66
X96.9Y-77.47
X96.9Y-81.28
X96.9Y-85.09
X96.9Y-88.9
X96.9Y-92.71
X96.9Y-96.52
X96.9Y-100.33
X96.9Y-104.14
X96.9Y-107.95
X96.9Y-134.62
X113.665Y-136.525
X119.38Y-68.58
X119.38Y-72.39
X119.38Y-76.2
X119.38Y-80.01
X119.38Y-83.82
X119.38Y-87.63
X119.38Y-91.44
X119.38Y-95.25
X119.38Y-99.06
X119.38Y-102.87
X119.38Y-106.68
X119.38Y-110.49
X119.38Y-114.3
X119.38Y-118.11
X119.38Y-121.92
X119.38Y-125.73
X119.38Y-129.54
X119.38Y-133.35
X120.015Y-136.525
X131.445Y-69.86
X131.445Y-73.611
X131.445Y-77.47
X131.445Y-81.28
X131.445Y-85.09
X131.445Y-88.9
X131.445Y-92.71
X131.445Y-96.52
X131.445Y-100.33
X131.445Y-104.14
X131.445Y-107.95
X131.445Y-111.76
X131.445Y-115.454
X131.445Y-119.38
X131.445Y-123.135
X131.445Y-127.0
X139.065Y-135.89
X140.335Y-135.89
X144.78Y-143.51
X146.685Y-121.285
X146.685Y-122.555
X151.765Y-67.945
X151.765Y-80.645
X151.765Y-93.345
X151.765Y-106.045
X151.765Y-118.745
X151.765Y-131.445
T3
X77.53Y-156.845
X77.58Y-154.305
X80.07Y-156.845
X80.12Y-154.305
X108.535Y-144.78
X108.535Y-147.32
X111.075Y-144.78
X111.075Y-147.32
X124.46Y-147.905
X124.46Y-150.445
X124.46Y-152.985
X124.46Y-155.525
X137.16Y-150.495
X137.16Y-153.035
T4
X79.375Y-115.225
X79.375Y-120.225
X127.0Y-150.495
X127.0Y-153.035
X127.0Y-155.575
X127.0Y-158.115
X127.04Y-147.32
X129.54Y-161.29
X132.04Y-147.32
X134.54Y-161.29
X134.62Y-150.495
X134.62Y-153.035
X134.62Y-155.575
X134.62Y-158.115
X137.795Y-155.615
X137.795Y-160.615
X140.335Y-149.86
X140.335Y-152.775
X144.78Y-78.105
X144.78Y-90.805
X144.78Y-103.505
X144.78Y-116.205
X144.78Y-128.905
X144.78Y-141.605
X147.955Y-149.86
X147.955Y-152.775
X149.78Y-78.105
X149.78Y-90.805
X149.78Y-103.505
X149.78Y-116.205
X149.78Y-128.905
X149.78Y-141.605
T5
X151.12Y-149.86
X151.12Y-152.36
X151.12Y-154.86
X161.29Y-89.535
X161.29Y-92.075
X161.29Y-94.615
X161.29Y-97.155
X161.29Y-99.695
X161.29Y-102.235
X161.29Y-104.775
X161.29Y-107.315
X161.29Y-109.855
X161.29Y-112.395
X161.29Y-114.935
X161.29Y-117.475
X161.29Y-120.015
X161.29Y-122.555
X161.29Y-125.095
X161.29Y-127.635
X161.29Y-130.175
X161.29Y-132.715
X161.29Y-135.255
X161.29Y-137.795
X163.83Y-89.535
X163.83Y-92.075
X163.83Y-94.615
X163.83Y-97.155
X163.83Y-99.695
X163.83Y-102.235
X163.83Y-104.775
X163.83Y-107.315
X163.83Y-109.855
X163.83Y-112.395
X163.83Y-114.935
X163.83Y-117.475
X163.83Y-120.015
X163.83Y-122.555
X163.83Y-125.095
X163.83Y-127.635
X163.83Y-130.175
X163.83Y-132.715
X163.83Y-135.255
X163.83Y-137.795
T6
X69.025Y-115.225
X69.025Y-119.725
X75.525Y-115.225
X75.525Y-119.725
X108.585Y-140.97
X111.125Y-140.97
X113.665Y-140.97
X121.285Y-139.385
X123.825Y-139.385
X126.365Y-139.385
T7
X92.71Y-148.378
X92.71Y-155.878
T2
X69.735Y-150.905G85X69.135Y-150.905
G05
X69.735Y-159.545G85X69.135Y-159.545
G05
X74.165Y-150.905G85X73.065Y-150.905
G05
X74.165Y-159.545G85X73.065Y-159.545
G05
T6
X158.27Y-147.56G85X158.97Y-147.56
G05
X158.27Y-157.16G85X158.97Y-157.16
G05
M30
