%TF.GenerationSoftware,KiCad,Pcbnew,9.0.2+dfsg-1*%
%TF.CreationDate,2026-09-04T21:04:28+02:00*%
%TF.ProjectId,power-card,706f7765-722d-4636-9172-642e6b696361,rev?*%
%TF.SameCoordinates,Original*%
%TF.FileFunction,Soldermask,Top*%
%TF.FilePolarity,Negative*%
%FSLAX46Y46*%
G04 Gerber Fmt 4.6, Leading zero omitted, Abs format (unit mm)*
G04 Created by KiCad (PCBNEW 9.0.2+dfsg-1) date 2026-09-04 21:04:28*
%MOMM*%
%LPD*%
G01*
G04 APERTURE LIST*
G04 Aperture macros list*
%AMRoundRect*
0 Rectangle with rounded corners*
0 $1 Rounding radius*
0 $2 $3 $4 $5 $6 $7 $8 $9 X,Y pos of 4 corners*
0 Add a 4 corners polygon primitive as box body*
4,1,4,$2,$3,$4,$5,$6,$7,$8,$9,$2,$3,0*
0 Add four circle primitives for the rounded corners*
1,1,$1+$1,$2,$3*
1,1,$1+$1,$4,$5*
1,1,$1+$1,$6,$7*
1,1,$1+$1,$8,$9*
0 Add four rect primitives between the rounded corners*
20,1,$1+$1,$2,$3,$4,$5,0*
20,1,$1+$1,$4,$5,$6,$7,0*
20,1,$1+$1,$6,$7,$8,$9,0*
20,1,$1+$1,$8,$9,$2,$3,0*%
G04 Aperture macros list end*
%ADD10RoundRect,0.150000X0.825000X0.150000X-0.825000X0.150000X-0.825000X-0.150000X0.825000X-0.150000X0*%
%ADD11RoundRect,0.250000X0.550000X0.550000X-0.550000X0.550000X-0.550000X-0.550000X0.550000X-0.550000X0*%
%ADD12C,1.600000*%
%ADD13C,1.400000*%
%ADD14RoundRect,0.200000X0.200000X0.275000X-0.200000X0.275000X-0.200000X-0.275000X0.200000X-0.275000X0*%
%ADD15RoundRect,0.250000X-0.550000X-0.550000X0.550000X-0.550000X0.550000X0.550000X-0.550000X0.550000X0*%
%ADD16RoundRect,0.250000X-0.375000X-0.625000X0.375000X-0.625000X0.375000X0.625000X-0.375000X0.625000X0*%
%ADD17R,1.500000X1.000000*%
%ADD18RoundRect,0.200000X-0.200000X-0.275000X0.200000X-0.275000X0.200000X0.275000X-0.200000X0.275000X0*%
%ADD19RoundRect,0.250001X0.949999X-0.949999X0.949999X0.949999X-0.949999X0.949999X-0.949999X-0.949999X0*%
%ADD20C,2.400000*%
%ADD21O,3.240000X2.720000*%
%ADD22R,1.800000X1.800000*%
%ADD23C,1.800000*%
%ADD24R,1.905000X2.000000*%
%ADD25O,1.905000X2.000000*%
%ADD26C,1.700000*%
%ADD27R,1.700000X1.700000*%
%ADD28C,0.650000*%
%ADD29R,1.450000X0.600000*%
%ADD30R,1.450000X0.300000*%
%ADD31O,2.100000X1.000000*%
%ADD32O,1.600000X1.000000*%
%ADD33C,2.000000*%
G04 APERTURE END LIST*
D10*
%TO.C,U18*%
X149730000Y-75565000D03*
X149730000Y-74295000D03*
X149730000Y-73025000D03*
X149730000Y-71755000D03*
X149730000Y-70485000D03*
X149730000Y-69215000D03*
X149730000Y-67945000D03*
X144780000Y-67945000D03*
X144780000Y-69215000D03*
X144780000Y-70485000D03*
X144780000Y-71755000D03*
X144780000Y-73025000D03*
X144780000Y-74295000D03*
X144780000Y-75565000D03*
%TD*%
D11*
%TO.C,D2*%
X147955000Y-149860000D03*
D12*
X140335000Y-149860000D03*
%TD*%
D13*
%TO.C,R34*%
X111075000Y-144780000D03*
X108535000Y-144780000D03*
%TD*%
%TO.C,R4*%
X124460000Y-155525000D03*
X124460000Y-152985000D03*
%TD*%
D14*
%TO.C,R35*%
X96900000Y-102805000D03*
X95250000Y-102805000D03*
%TD*%
D15*
%TO.C,D3*%
X140335000Y-152775000D03*
D12*
X147955000Y-152775000D03*
%TD*%
D14*
%TO.C,R19*%
X131000000Y-102805000D03*
X129350000Y-102805000D03*
%TD*%
D16*
%TO.C,D37*%
X89910000Y-116840000D03*
X92710000Y-116840000D03*
%TD*%
D14*
%TO.C,R59*%
X96900000Y-80010000D03*
X95250000Y-80010000D03*
%TD*%
D17*
%TO.C,D26*%
X123825000Y-91505000D03*
X123825000Y-90105000D03*
X127325000Y-90105000D03*
X127325000Y-91505000D03*
%TD*%
D14*
%TO.C,R41*%
X96900000Y-91440000D03*
X95250000Y-91440000D03*
%TD*%
D17*
%TO.C,D21*%
X123825000Y-114365000D03*
X123825000Y-112965000D03*
X127325000Y-112965000D03*
X127325000Y-114365000D03*
%TD*%
D16*
%TO.C,D6*%
X89910000Y-124460000D03*
X92710000Y-124460000D03*
%TD*%
D17*
%TO.C,D18*%
X89535000Y-91505000D03*
X89535000Y-90105000D03*
X93035000Y-90105000D03*
X93035000Y-91505000D03*
%TD*%
%TO.C,D31*%
X89535000Y-80140000D03*
X89535000Y-78740000D03*
X93035000Y-78740000D03*
X93035000Y-80140000D03*
%TD*%
D18*
%TO.C,R26*%
X119635000Y-124460000D03*
X121285000Y-124460000D03*
%TD*%
%TO.C,R40*%
X85345000Y-93980000D03*
X86995000Y-93980000D03*
%TD*%
D17*
%TO.C,D34*%
X123825000Y-68645000D03*
X123825000Y-67245000D03*
X127325000Y-67245000D03*
X127325000Y-68645000D03*
%TD*%
D19*
%TO.C,C7*%
X92710000Y-155877780D03*
D20*
X92710000Y-148377780D03*
%TD*%
D13*
%TO.C,R33*%
X124460000Y-150445000D03*
X124460000Y-147905000D03*
%TD*%
D18*
%TO.C,R5*%
X85345000Y-120650000D03*
X86995000Y-120650000D03*
%TD*%
D14*
%TO.C,R29*%
X131000000Y-110425000D03*
X129350000Y-110425000D03*
%TD*%
%TO.C,R39*%
X96900000Y-95315000D03*
X95250000Y-95315000D03*
%TD*%
%TO.C,R57*%
X131190000Y-95250000D03*
X129540000Y-95250000D03*
%TD*%
D17*
%TO.C,D16*%
X89535000Y-95315000D03*
X89535000Y-93915000D03*
X93035000Y-93915000D03*
X93035000Y-95315000D03*
%TD*%
D18*
%TO.C,R75*%
X85345000Y-105410000D03*
X86995000Y-105410000D03*
%TD*%
D14*
%TO.C,R25*%
X131000000Y-125730000D03*
X129350000Y-125730000D03*
%TD*%
%TO.C,R65*%
X131190000Y-68580000D03*
X129540000Y-68580000D03*
%TD*%
D13*
%TO.C,R1*%
X77530000Y-156845000D03*
X80070000Y-156845000D03*
%TD*%
D12*
%TO.C,C3*%
X137795000Y-155615000D03*
X137795000Y-160615000D03*
%TD*%
D18*
%TO.C,R58*%
X119635000Y-93980000D03*
X121285000Y-93980000D03*
%TD*%
D16*
%TO.C,D12*%
X124200000Y-128270000D03*
X127000000Y-128270000D03*
%TD*%
D10*
%TO.C,U17*%
X149730000Y-88265000D03*
X149730000Y-86995000D03*
X149730000Y-85725000D03*
X149730000Y-84455000D03*
X149730000Y-83185000D03*
X149730000Y-81915000D03*
X149730000Y-80645000D03*
X144780000Y-80645000D03*
X144780000Y-81915000D03*
X144780000Y-83185000D03*
X144780000Y-84455000D03*
X144780000Y-85725000D03*
X144780000Y-86995000D03*
X144780000Y-88265000D03*
%TD*%
D18*
%TO.C,R64*%
X119635000Y-74930000D03*
X121285000Y-74930000D03*
%TD*%
%TO.C,R28*%
X119635000Y-105410000D03*
X121285000Y-105410000D03*
%TD*%
D14*
%TO.C,R70*%
X131000000Y-121920000D03*
X129350000Y-121920000D03*
%TD*%
%TO.C,R55*%
X131190000Y-91440000D03*
X129540000Y-91440000D03*
%TD*%
D10*
%TO.C,U2*%
X149730000Y-113665000D03*
X149730000Y-112395000D03*
X149730000Y-111125000D03*
X149730000Y-109855000D03*
X149730000Y-108585000D03*
X149730000Y-107315000D03*
X149730000Y-106045000D03*
X144780000Y-106045000D03*
X144780000Y-107315000D03*
X144780000Y-108585000D03*
X144780000Y-109855000D03*
X144780000Y-111125000D03*
X144780000Y-112395000D03*
X144780000Y-113665000D03*
%TD*%
D17*
%TO.C,D10*%
X123825000Y-99125000D03*
X123825000Y-97725000D03*
X127325000Y-97725000D03*
X127325000Y-99125000D03*
%TD*%
D14*
%TO.C,R16*%
X96900000Y-76200000D03*
X95250000Y-76200000D03*
%TD*%
D17*
%TO.C,D29*%
X123825000Y-106745000D03*
X123825000Y-105345000D03*
X127325000Y-105345000D03*
X127325000Y-106745000D03*
%TD*%
%TO.C,D1*%
X123825000Y-122050000D03*
X123825000Y-120650000D03*
X127325000Y-120650000D03*
X127325000Y-122050000D03*
%TD*%
D14*
%TO.C,R37*%
X96900000Y-99125000D03*
X95250000Y-99125000D03*
%TD*%
D18*
%TO.C,R17*%
X85345000Y-74930000D03*
X86995000Y-74930000D03*
%TD*%
%TO.C,R56*%
X119635000Y-90170000D03*
X121285000Y-90170000D03*
%TD*%
%TO.C,R15*%
X119635000Y-120650000D03*
X121285000Y-120650000D03*
%TD*%
D12*
%TO.C,C20*%
X144780000Y-116205000D03*
X149780000Y-116205000D03*
%TD*%
D17*
%TO.C,D5*%
X89535000Y-102935000D03*
X89535000Y-101535000D03*
X93035000Y-101535000D03*
X93035000Y-102935000D03*
%TD*%
%TO.C,D33*%
X123825000Y-76265000D03*
X123825000Y-74865000D03*
X127325000Y-74865000D03*
X127325000Y-76265000D03*
%TD*%
D10*
%TO.C,U12*%
X149730000Y-126365000D03*
X149730000Y-125095000D03*
X149730000Y-123825000D03*
X149730000Y-122555000D03*
X149730000Y-121285000D03*
X149730000Y-120015000D03*
X149730000Y-118745000D03*
X144780000Y-118745000D03*
X144780000Y-120015000D03*
X144780000Y-121285000D03*
X144780000Y-122555000D03*
X144780000Y-123825000D03*
X144780000Y-125095000D03*
X144780000Y-126365000D03*
%TD*%
D17*
%TO.C,D23*%
X123825000Y-118175000D03*
X123825000Y-116775000D03*
X127325000Y-116775000D03*
X127325000Y-118175000D03*
%TD*%
D14*
%TO.C,R74*%
X96900000Y-106615000D03*
X95250000Y-106615000D03*
%TD*%
D17*
%TO.C,D11*%
X123825000Y-102935000D03*
X123825000Y-101535000D03*
X127325000Y-101535000D03*
X127325000Y-102935000D03*
%TD*%
%TO.C,D30*%
X123825000Y-110555000D03*
X123825000Y-109155000D03*
X127325000Y-109155000D03*
X127325000Y-110555000D03*
%TD*%
%TO.C,D17*%
X89535000Y-87695000D03*
X89535000Y-86295000D03*
X93035000Y-86295000D03*
X93035000Y-87695000D03*
%TD*%
D16*
%TO.C,D7*%
X89910000Y-128270000D03*
X92710000Y-128270000D03*
%TD*%
D17*
%TO.C,D22*%
X89535000Y-68710000D03*
X89535000Y-67310000D03*
X93035000Y-67310000D03*
X93035000Y-68710000D03*
%TD*%
D18*
%TO.C,R50*%
X119635000Y-116840000D03*
X121285000Y-116840000D03*
%TD*%
D14*
%TO.C,R51*%
X131190000Y-83820000D03*
X129540000Y-83820000D03*
%TD*%
D18*
%TO.C,R71*%
X85345000Y-86360000D03*
X86995000Y-86360000D03*
%TD*%
D16*
%TO.C,D4*%
X89910000Y-120650000D03*
X92710000Y-120650000D03*
%TD*%
D18*
%TO.C,R30*%
X119635000Y-109155000D03*
X121285000Y-109155000D03*
%TD*%
D14*
%TO.C,R18*%
X96900000Y-133350000D03*
X95250000Y-133350000D03*
%TD*%
D18*
%TO.C,R11*%
X119635000Y-128270000D03*
X121285000Y-128270000D03*
%TD*%
%TO.C,R54*%
X119635000Y-86425000D03*
X121285000Y-86425000D03*
%TD*%
D17*
%TO.C,D13*%
X89535000Y-83950000D03*
X89535000Y-82550000D03*
X93035000Y-82550000D03*
X93035000Y-83950000D03*
%TD*%
D12*
%TO.C,C6*%
X79375000Y-115225000D03*
X79375000Y-120225000D03*
%TD*%
D18*
%TO.C,R42*%
X85345000Y-90170000D03*
X86995000Y-90170000D03*
%TD*%
D14*
%TO.C,R47*%
X96900000Y-68580000D03*
X95250000Y-68580000D03*
%TD*%
D13*
%TO.C,R32*%
X111075000Y-147320000D03*
X108535000Y-147320000D03*
%TD*%
D14*
%TO.C,R53*%
X131190000Y-87760000D03*
X129540000Y-87760000D03*
%TD*%
D18*
%TO.C,R46*%
X119635000Y-113030000D03*
X121285000Y-113030000D03*
%TD*%
D21*
%TO.C,RV1*%
X158620000Y-147560000D03*
X158620000Y-157160000D03*
D22*
X151120000Y-149860000D03*
D23*
X151120000Y-152360000D03*
X151120000Y-154860000D03*
%TD*%
D17*
%TO.C,D9*%
X89535000Y-133480000D03*
X89535000Y-132080000D03*
X93035000Y-132080000D03*
X93035000Y-133480000D03*
%TD*%
D12*
%TO.C,C2*%
X129540000Y-161290000D03*
X134540000Y-161290000D03*
%TD*%
D24*
%TO.C,Q1*%
X126365000Y-139385000D03*
D25*
X123825000Y-139385000D03*
X121285000Y-139385000D03*
%TD*%
D16*
%TO.C,D19*%
X89910000Y-109220000D03*
X92710000Y-109220000D03*
%TD*%
%TO.C,D20*%
X89910000Y-113030000D03*
X92710000Y-113030000D03*
%TD*%
D17*
%TO.C,D35*%
X123825000Y-72455000D03*
X123825000Y-71055000D03*
X127325000Y-71055000D03*
X127325000Y-72455000D03*
%TD*%
D14*
%TO.C,R61*%
X96900000Y-72390000D03*
X95250000Y-72390000D03*
%TD*%
D18*
%TO.C,R8*%
X85345000Y-113030000D03*
X86995000Y-113030000D03*
%TD*%
D13*
%TO.C,R3*%
X137160000Y-150495000D03*
X137160000Y-153035000D03*
%TD*%
D12*
%TO.C,C19*%
X144780000Y-103505000D03*
X149780000Y-103505000D03*
%TD*%
D10*
%TO.C,U16*%
X149730000Y-100965000D03*
X149730000Y-99695000D03*
X149730000Y-98425000D03*
X149730000Y-97155000D03*
X149730000Y-95885000D03*
X149730000Y-94615000D03*
X149730000Y-93345000D03*
X144780000Y-93345000D03*
X144780000Y-94615000D03*
X144780000Y-95885000D03*
X144780000Y-97155000D03*
X144780000Y-98425000D03*
X144780000Y-99695000D03*
X144780000Y-100965000D03*
%TD*%
D17*
%TO.C,D14*%
X89535000Y-76330000D03*
X89535000Y-74930000D03*
X93035000Y-74930000D03*
X93035000Y-76330000D03*
%TD*%
D18*
%TO.C,R7*%
X85345000Y-124460000D03*
X86995000Y-124460000D03*
%TD*%
D14*
%TO.C,R69*%
X96900000Y-87630000D03*
X95250000Y-87630000D03*
%TD*%
D16*
%TO.C,D8*%
X124200000Y-132080000D03*
X127000000Y-132080000D03*
%TD*%
D17*
%TO.C,D36*%
X123825000Y-80010000D03*
X123825000Y-78610000D03*
X127325000Y-78610000D03*
X127325000Y-80010000D03*
%TD*%
%TO.C,D27*%
X123825000Y-125795000D03*
X123825000Y-124395000D03*
X127325000Y-124395000D03*
X127325000Y-125795000D03*
%TD*%
D12*
%TO.C,C4*%
X144780000Y-78105000D03*
X149780000Y-78105000D03*
%TD*%
D18*
%TO.C,R6*%
X85345000Y-109220000D03*
X86995000Y-109220000D03*
%TD*%
%TO.C,R68*%
X85345000Y-132080000D03*
X86995000Y-132080000D03*
%TD*%
D14*
%TO.C,R13*%
X131190000Y-99125000D03*
X129540000Y-99125000D03*
%TD*%
%TO.C,R77*%
X131190000Y-80010000D03*
X129540000Y-80010000D03*
%TD*%
D24*
%TO.C,Q2*%
X108585000Y-140970000D03*
D25*
X111125000Y-140970000D03*
X113665000Y-140970000D03*
%TD*%
D18*
%TO.C,R48*%
X85345000Y-67310000D03*
X86995000Y-67310000D03*
%TD*%
D26*
%TO.C,J1*%
X163830000Y-137795000D03*
X163830000Y-135255000D03*
X163830000Y-132715000D03*
X163830000Y-130175000D03*
X163830000Y-127635000D03*
X163830000Y-125095000D03*
X163830000Y-122555000D03*
X163830000Y-120015000D03*
X163830000Y-117475000D03*
X163830000Y-114935000D03*
X163830000Y-112395000D03*
X163830000Y-109855000D03*
X163830000Y-107315000D03*
X163830000Y-104775000D03*
X163830000Y-102235000D03*
X163830000Y-99695000D03*
X163830000Y-97155000D03*
X163830000Y-94615000D03*
X163830000Y-92075000D03*
X163830000Y-89535000D03*
X161290000Y-89535000D03*
X161290000Y-92075000D03*
X161290000Y-94615000D03*
X161290000Y-97155000D03*
X161290000Y-99695000D03*
X161290000Y-102235000D03*
X161290000Y-104775000D03*
X161290000Y-107315000D03*
X161290000Y-109855000D03*
X161290000Y-112395000D03*
X161290000Y-114935000D03*
X161290000Y-117475000D03*
X161290000Y-120015000D03*
X161290000Y-122555000D03*
X161290000Y-125095000D03*
X161290000Y-127635000D03*
X161290000Y-130175000D03*
X161290000Y-132715000D03*
X161290000Y-135255000D03*
D27*
X161290000Y-137795000D03*
%TD*%
D28*
%TO.C,J2*%
X73085000Y-152335000D03*
X73085000Y-158115000D03*
D29*
X74530000Y-151975000D03*
X74530000Y-152775000D03*
D30*
X74530000Y-153975000D03*
X74530000Y-154975000D03*
X74530000Y-155475000D03*
X74530000Y-156475000D03*
D29*
X74530000Y-157675000D03*
X74530000Y-158475000D03*
X74530000Y-158475000D03*
X74530000Y-157675000D03*
D30*
X74530000Y-156975000D03*
X74530000Y-155975000D03*
X74530000Y-154475000D03*
X74530000Y-153475000D03*
D29*
X74530000Y-152775000D03*
X74530000Y-151975000D03*
D31*
X73615000Y-150905000D03*
D32*
X69435000Y-150905000D03*
D31*
X73615000Y-159545000D03*
D32*
X69435000Y-159545000D03*
%TD*%
D18*
%TO.C,R9*%
X119635000Y-132080000D03*
X121285000Y-132080000D03*
%TD*%
D14*
%TO.C,R45*%
X131000000Y-114300000D03*
X129350000Y-114300000D03*
%TD*%
%TO.C,R76*%
X131190000Y-72390000D03*
X129540000Y-72390000D03*
%TD*%
D13*
%TO.C,R2*%
X77580000Y-154305000D03*
X80120000Y-154305000D03*
%TD*%
D12*
%TO.C,C22*%
X144780000Y-141605000D03*
X149780000Y-141605000D03*
%TD*%
D17*
%TO.C,D24*%
X89535000Y-99125000D03*
X89535000Y-97725000D03*
X93035000Y-97725000D03*
X93035000Y-99125000D03*
%TD*%
D18*
%TO.C,R14*%
X119635000Y-97855000D03*
X121285000Y-97855000D03*
%TD*%
D17*
%TO.C,D15*%
X123825000Y-83950000D03*
X123825000Y-82550000D03*
X127325000Y-82550000D03*
X127325000Y-83950000D03*
%TD*%
%TO.C,D73*%
X89535000Y-106745000D03*
X89535000Y-105345000D03*
X93035000Y-105345000D03*
X93035000Y-106745000D03*
%TD*%
D18*
%TO.C,R66*%
X119635000Y-67310000D03*
X121285000Y-67310000D03*
%TD*%
%TO.C,R52*%
X119635000Y-82550000D03*
X121285000Y-82550000D03*
%TD*%
D33*
%TO.C,SW1*%
X69025000Y-115225000D03*
X75525000Y-115225000D03*
X69025000Y-119725000D03*
X75525000Y-119725000D03*
%TD*%
D12*
%TO.C,C21*%
X144780000Y-128905000D03*
X149780000Y-128905000D03*
%TD*%
D18*
%TO.C,R67*%
X119635000Y-71120000D03*
X121285000Y-71120000D03*
%TD*%
D17*
%TO.C,D32*%
X89535000Y-72520000D03*
X89535000Y-71120000D03*
X93035000Y-71120000D03*
X93035000Y-72520000D03*
%TD*%
D18*
%TO.C,R36*%
X85345000Y-101600000D03*
X86995000Y-101600000D03*
%TD*%
D12*
%TO.C,C1*%
X127040000Y-147320000D03*
X132040000Y-147320000D03*
%TD*%
D18*
%TO.C,R62*%
X85345000Y-71120000D03*
X86995000Y-71120000D03*
%TD*%
D17*
%TO.C,D28*%
X123825000Y-95315000D03*
X123825000Y-93915000D03*
X127325000Y-93915000D03*
X127325000Y-95315000D03*
%TD*%
D15*
%TO.C,U1*%
X127000000Y-150495000D03*
D12*
X127000000Y-153035000D03*
X127000000Y-155575000D03*
X127000000Y-158115000D03*
X134620000Y-158115000D03*
X134620000Y-155575000D03*
X134620000Y-153035000D03*
X134620000Y-150495000D03*
%TD*%
D14*
%TO.C,R49*%
X131000000Y-118110000D03*
X129350000Y-118110000D03*
%TD*%
D10*
%TO.C,U3*%
X149860000Y-139065000D03*
X149860000Y-137795000D03*
X149860000Y-136525000D03*
X149860000Y-135255000D03*
X149860000Y-133985000D03*
X149860000Y-132715000D03*
X149860000Y-131445000D03*
X144910000Y-131445000D03*
X144910000Y-132715000D03*
X144910000Y-133985000D03*
X144910000Y-135255000D03*
X144910000Y-136525000D03*
X144910000Y-137795000D03*
X144910000Y-139065000D03*
%TD*%
D12*
%TO.C,C5*%
X144780000Y-90805000D03*
X149780000Y-90805000D03*
%TD*%
D18*
%TO.C,R20*%
X119635000Y-101600000D03*
X121285000Y-101600000D03*
%TD*%
%TO.C,R24*%
X85345000Y-82550000D03*
X86995000Y-82550000D03*
%TD*%
D14*
%TO.C,R63*%
X131190000Y-76200000D03*
X129540000Y-76200000D03*
%TD*%
D18*
%TO.C,R12*%
X85345000Y-116840000D03*
X86995000Y-116840000D03*
%TD*%
D14*
%TO.C,R27*%
X131000000Y-106615000D03*
X129350000Y-106615000D03*
%TD*%
D18*
%TO.C,R38*%
X85345000Y-97855000D03*
X86995000Y-97855000D03*
%TD*%
%TO.C,R10*%
X85345000Y-128270000D03*
X86995000Y-128270000D03*
%TD*%
D17*
%TO.C,D25*%
X123825000Y-87760000D03*
X123825000Y-86360000D03*
X127325000Y-86360000D03*
X127325000Y-87760000D03*
%TD*%
D18*
%TO.C,R78*%
X119635000Y-78740000D03*
X121285000Y-78740000D03*
%TD*%
%TO.C,R60*%
X85345000Y-78740000D03*
X86995000Y-78740000D03*
%TD*%
D14*
%TO.C,R81*%
X96900000Y-83820000D03*
X95250000Y-83820000D03*
%TD*%
M02*
