%TF.GenerationSoftware,KiCad,Pcbnew,9.0.2+dfsg-1*%
%TF.CreationDate,2026-09-02T22:03:47+02:00*%
%TF.ProjectId,power-card,706f7765-722d-4636-9172-642e6b696361,rev?*%
%TF.SameCoordinates,Original*%
%TF.FileFunction,Copper,L1,Top*%
%TF.FilePolarity,Positive*%
%FSLAX46Y46*%
G04 Gerber Fmt 4.6, Leading zero omitted, Abs format (unit mm)*
G04 Created by KiCad (PCBNEW 9.0.2+dfsg-1) date 2026-09-02 22:03:47*
%MOMM*%
%LPD*%
G01*
G04 APERTURE LIST*
G04 Aperture macros list*
%AMRoundRect*
0 Rectangle with rounded corners*
0 $1 Rounding radius*
0 $2 $3 $4 $5 $6 $7 $8 $9 X,Y pos of 4 corners*
0 Add a 4 corners polygon primitive as box body*
4,1,4,$2,$3,$4,$5,$6,$7,$8,$9,$2,$3,0*
0 Add four circle primitives for the rounded corners*
1,1,$1+$1,$2,$3*
1,1,$1+$1,$4,$5*
1,1,$1+$1,$6,$7*
1,1,$1+$1,$8,$9*
0 Add four rect primitives between the rounded corners*
20,1,$1+$1,$2,$3,$4,$5,0*
20,1,$1+$1,$4,$5,$6,$7,0*
20,1,$1+$1,$6,$7,$8,$9,0*
20,1,$1+$1,$8,$9,$2,$3,0*%
G04 Aperture macros list end*
%TA.AperFunction,SMDPad,CuDef*%
%ADD10RoundRect,0.150000X0.825000X0.150000X-0.825000X0.150000X-0.825000X-0.150000X0.825000X-0.150000X0*%
%TD*%
%TA.AperFunction,ComponentPad*%
%ADD11RoundRect,0.250000X0.550000X0.550000X-0.550000X0.550000X-0.550000X-0.550000X0.550000X-0.550000X0*%
%TD*%
%TA.AperFunction,ComponentPad*%
%ADD12C,1.600000*%
%TD*%
%TA.AperFunction,ComponentPad*%
%ADD13C,1.400000*%
%TD*%
%TA.AperFunction,SMDPad,CuDef*%
%ADD14RoundRect,0.200000X0.200000X0.275000X-0.200000X0.275000X-0.200000X-0.275000X0.200000X-0.275000X0*%
%TD*%
%TA.AperFunction,ComponentPad*%
%ADD15RoundRect,0.250000X-0.550000X-0.550000X0.550000X-0.550000X0.550000X0.550000X-0.550000X0.550000X0*%
%TD*%
%TA.AperFunction,SMDPad,CuDef*%
%ADD16RoundRect,0.250000X-0.375000X-0.625000X0.375000X-0.625000X0.375000X0.625000X-0.375000X0.625000X0*%
%TD*%
%TA.AperFunction,SMDPad,CuDef*%
%ADD17R,1.500000X1.000000*%
%TD*%
%TA.AperFunction,SMDPad,CuDef*%
%ADD18RoundRect,0.200000X-0.200000X-0.275000X0.200000X-0.275000X0.200000X0.275000X-0.200000X0.275000X0*%
%TD*%
%TA.AperFunction,ComponentPad*%
%ADD19RoundRect,0.250001X0.949999X-0.949999X0.949999X0.949999X-0.949999X0.949999X-0.949999X-0.949999X0*%
%TD*%
%TA.AperFunction,ComponentPad*%
%ADD20C,2.400000*%
%TD*%
%TA.AperFunction,ComponentPad*%
%ADD21O,3.240000X2.720000*%
%TD*%
%TA.AperFunction,ComponentPad*%
%ADD22R,1.800000X1.800000*%
%TD*%
%TA.AperFunction,ComponentPad*%
%ADD23C,1.800000*%
%TD*%
%TA.AperFunction,ComponentPad*%
%ADD24R,1.905000X2.000000*%
%TD*%
%TA.AperFunction,ComponentPad*%
%ADD25O,1.905000X2.000000*%
%TD*%
%TA.AperFunction,ComponentPad*%
%ADD26C,1.700000*%
%TD*%
%TA.AperFunction,ComponentPad*%
%ADD27R,1.700000X1.700000*%
%TD*%
%TA.AperFunction,SMDPad,CuDef*%
%ADD28R,1.450000X0.600000*%
%TD*%
%TA.AperFunction,SMDPad,CuDef*%
%ADD29R,1.450000X0.300000*%
%TD*%
%TA.AperFunction,HeatsinkPad*%
%ADD30O,2.100000X1.000000*%
%TD*%
%TA.AperFunction,HeatsinkPad*%
%ADD31O,1.600000X1.000000*%
%TD*%
%TA.AperFunction,ComponentPad*%
%ADD32C,2.000000*%
%TD*%
%TA.AperFunction,ViaPad*%
%ADD33C,0.600000*%
%TD*%
%TA.AperFunction,Conductor*%
%ADD34C,0.500000*%
%TD*%
%TA.AperFunction,Conductor*%
%ADD35C,1.000000*%
%TD*%
%TA.AperFunction,Conductor*%
%ADD36C,0.250000*%
%TD*%
G04 APERTURE END LIST*
D10*
%TO.P,U18,1*%
%TO.N,A13*%
X149730000Y-75565000D03*
%TO.P,U18,2*%
%TO.N,Net-(D33-Green_K)*%
X149730000Y-74295000D03*
%TO.P,U18,3*%
%TO.N,A14*%
X149730000Y-73025000D03*
%TO.P,U18,4*%
%TO.N,Net-(D35-Green_K)*%
X149730000Y-71755000D03*
%TO.P,U18,5*%
%TO.N,D0*%
X149730000Y-70485000D03*
%TO.P,U18,6*%
%TO.N,Net-(D22-Green_K)*%
X149730000Y-69215000D03*
%TO.P,U18,7,GND*%
%TO.N,GND*%
X149730000Y-67945000D03*
%TO.P,U18,8*%
%TO.N,Net-(D34-Green_K)*%
X144780000Y-67945000D03*
%TO.P,U18,9*%
%TO.N,A15*%
X144780000Y-69215000D03*
%TO.P,U18,10*%
%TO.N,Net-(D32-Green_K)*%
X144780000Y-70485000D03*
%TO.P,U18,11*%
%TO.N,D1*%
X144780000Y-71755000D03*
%TO.P,U18,12*%
%TO.N,Net-(D14-Green_K)*%
X144780000Y-73025000D03*
%TO.P,U18,13*%
%TO.N,D2*%
X144780000Y-74295000D03*
%TO.P,U18,14,VCC*%
%TO.N,+5V*%
X144780000Y-75565000D03*
%TD*%
D11*
%TO.P,D2,1,K*%
%TO.N,Net-(D2-K)*%
X147955000Y-149860000D03*
D12*
%TO.P,D2,2,A*%
%TO.N,Net-(D2-A)*%
X140335000Y-149860000D03*
%TD*%
D13*
%TO.P,R34,1*%
%TO.N,GND*%
X111075000Y-144780000D03*
%TO.P,R34,2*%
%TO.N,SW_BUS_LEDb*%
X108535000Y-144780000D03*
%TD*%
%TO.P,R4,1*%
%TO.N,Net-(U1-Q)*%
X124460000Y-155525000D03*
%TO.P,R4,2*%
%TO.N,SW_BUS_LED*%
X124460000Y-152985000D03*
%TD*%
D14*
%TO.P,R35,1*%
%TO.N,Net-(Q1-D)*%
X96900000Y-102805000D03*
%TO.P,R35,2*%
%TO.N,Net-(D5-Green_A)*%
X95250000Y-102805000D03*
%TD*%
D15*
%TO.P,D3,1,K*%
%TO.N,Net-(D2-A)*%
X140335000Y-152775000D03*
D12*
%TO.P,D3,2,A*%
%TO.N,Net-(D3-A)*%
X147955000Y-152775000D03*
%TD*%
D14*
%TO.P,R19,1*%
%TO.N,Net-(Q1-D)*%
X131000000Y-102805000D03*
%TO.P,R19,2*%
%TO.N,Net-(D11-Green_A)*%
X129350000Y-102805000D03*
%TD*%
D16*
%TO.P,D37,1,K*%
%TO.N,Net-(D37-K)*%
X89910000Y-116840000D03*
%TO.P,D37,2,A*%
%TO.N,RES{slash}*%
X92710000Y-116840000D03*
%TD*%
D14*
%TO.P,R59,1*%
%TO.N,Net-(Q1-D)*%
X96900000Y-80010000D03*
%TO.P,R59,2*%
%TO.N,Net-(D31-Green_A)*%
X95250000Y-80010000D03*
%TD*%
D17*
%TO.P,D26,1,Green_K*%
%TO.N,Net-(D26-Green_K)*%
X123825000Y-91505000D03*
%TO.P,D26,2,Red_K*%
%TO.N,Net-(D26-Red_K)*%
X123825000Y-90105000D03*
%TO.P,D26,3,Red_A*%
%TO.N,Net-(D26-Green_K)*%
X127325000Y-90105000D03*
%TO.P,D26,4,Green_A*%
%TO.N,Net-(D26-Green_A)*%
X127325000Y-91505000D03*
%TD*%
D14*
%TO.P,R41,1*%
%TO.N,Net-(Q1-D)*%
X96900000Y-91440000D03*
%TO.P,R41,2*%
%TO.N,Net-(D18-Green_A)*%
X95250000Y-91440000D03*
%TD*%
D17*
%TO.P,D21,1,Green_K*%
%TO.N,Net-(D21-Green_K)*%
X123825000Y-114365000D03*
%TO.P,D21,2,Red_K*%
%TO.N,Net-(D21-Red_K)*%
X123825000Y-112965000D03*
%TO.P,D21,3,Red_A*%
%TO.N,Net-(D21-Green_K)*%
X127325000Y-112965000D03*
%TO.P,D21,4,Green_A*%
%TO.N,Net-(D21-Green_A)*%
X127325000Y-114365000D03*
%TD*%
D16*
%TO.P,D6,1,K*%
%TO.N,Net-(D6-K)*%
X89910000Y-124460000D03*
%TO.P,D6,2,A*%
%TO.N,Net-(D6-A)*%
X92710000Y-124460000D03*
%TD*%
D17*
%TO.P,D18,1,Green_K*%
%TO.N,Net-(D18-Green_K)*%
X89535000Y-91505000D03*
%TO.P,D18,2,Red_K*%
%TO.N,Net-(D18-Red_K)*%
X89535000Y-90105000D03*
%TO.P,D18,3,Red_A*%
%TO.N,Net-(D18-Green_K)*%
X93035000Y-90105000D03*
%TO.P,D18,4,Green_A*%
%TO.N,Net-(D18-Green_A)*%
X93035000Y-91505000D03*
%TD*%
%TO.P,D31,1,Green_K*%
%TO.N,Net-(D31-Green_K)*%
X89535000Y-80140000D03*
%TO.P,D31,2,Red_K*%
%TO.N,Net-(D31-Red_K)*%
X89535000Y-78740000D03*
%TO.P,D31,3,Red_A*%
%TO.N,Net-(D31-Green_K)*%
X93035000Y-78740000D03*
%TO.P,D31,4,Green_A*%
%TO.N,Net-(D31-Green_A)*%
X93035000Y-80140000D03*
%TD*%
D18*
%TO.P,R26,1*%
%TO.N,Net-(Q2-D)*%
X119635000Y-124460000D03*
%TO.P,R26,2*%
%TO.N,Net-(D27-Red_K)*%
X121285000Y-124460000D03*
%TD*%
%TO.P,R40,1*%
%TO.N,Net-(Q2-D)*%
X85345000Y-93980000D03*
%TO.P,R40,2*%
%TO.N,Net-(D16-Red_K)*%
X86995000Y-93980000D03*
%TD*%
D17*
%TO.P,D34,1,Green_K*%
%TO.N,Net-(D34-Green_K)*%
X123825000Y-68645000D03*
%TO.P,D34,2,Red_K*%
%TO.N,Net-(D34-Red_K)*%
X123825000Y-67245000D03*
%TO.P,D34,3,Red_A*%
%TO.N,Net-(D34-Green_K)*%
X127325000Y-67245000D03*
%TO.P,D34,4,Green_A*%
%TO.N,Net-(D34-Green_A)*%
X127325000Y-68645000D03*
%TD*%
D19*
%TO.P,C7,1*%
%TO.N,+5V*%
X92710000Y-155877780D03*
D20*
%TO.P,C7,2*%
%TO.N,GND*%
X92710000Y-148377780D03*
%TD*%
D13*
%TO.P,R33,1*%
%TO.N,SW_BUS_LED*%
X124460000Y-150445000D03*
%TO.P,R33,2*%
%TO.N,+5V*%
X124460000Y-147905000D03*
%TD*%
D18*
%TO.P,R5,1*%
%TO.N,Net-(Q2-D)*%
X85345000Y-120650000D03*
%TO.P,R5,2*%
%TO.N,Net-(D4-K)*%
X86995000Y-120650000D03*
%TD*%
D14*
%TO.P,R29,1*%
%TO.N,Net-(Q1-D)*%
X131000000Y-110425000D03*
%TO.P,R29,2*%
%TO.N,Net-(D30-Green_A)*%
X129350000Y-110425000D03*
%TD*%
%TO.P,R39,1*%
%TO.N,Net-(Q1-D)*%
X96900000Y-95315000D03*
%TO.P,R39,2*%
%TO.N,Net-(D16-Green_A)*%
X95250000Y-95315000D03*
%TD*%
%TO.P,R57,1*%
%TO.N,Net-(Q1-D)*%
X131190000Y-95250000D03*
%TO.P,R57,2*%
%TO.N,Net-(D28-Green_A)*%
X129540000Y-95250000D03*
%TD*%
D17*
%TO.P,D16,1,Green_K*%
%TO.N,Net-(D16-Green_K)*%
X89535000Y-95315000D03*
%TO.P,D16,2,Red_K*%
%TO.N,Net-(D16-Red_K)*%
X89535000Y-93915000D03*
%TO.P,D16,3,Red_A*%
%TO.N,Net-(D16-Green_K)*%
X93035000Y-93915000D03*
%TO.P,D16,4,Green_A*%
%TO.N,Net-(D16-Green_A)*%
X93035000Y-95315000D03*
%TD*%
D18*
%TO.P,R75,1*%
%TO.N,Net-(Q2-D)*%
X85345000Y-105410000D03*
%TO.P,R75,2*%
%TO.N,Net-(D73-Red_K)*%
X86995000Y-105410000D03*
%TD*%
D14*
%TO.P,R25,1*%
%TO.N,Net-(Q1-D)*%
X131000000Y-125730000D03*
%TO.P,R25,2*%
%TO.N,Net-(D27-Green_A)*%
X129350000Y-125730000D03*
%TD*%
%TO.P,R65,1*%
%TO.N,Net-(Q1-D)*%
X131190000Y-68580000D03*
%TO.P,R65,2*%
%TO.N,Net-(D34-Green_A)*%
X129540000Y-68580000D03*
%TD*%
D13*
%TO.P,R1,1*%
%TO.N,Net-(J2-CC2)*%
X77530000Y-156845000D03*
%TO.P,R1,2*%
%TO.N,GND*%
X80070000Y-156845000D03*
%TD*%
D12*
%TO.P,C3,1*%
%TO.N,Net-(U1-THR)*%
X137795000Y-155615000D03*
%TO.P,C3,2*%
%TO.N,GND*%
X137795000Y-160615000D03*
%TD*%
D18*
%TO.P,R58,1*%
%TO.N,Net-(Q2-D)*%
X119635000Y-93980000D03*
%TO.P,R58,2*%
%TO.N,Net-(D28-Red_K)*%
X121285000Y-93980000D03*
%TD*%
D16*
%TO.P,D12,1,K*%
%TO.N,Net-(D12-K)*%
X124200000Y-128270000D03*
%TO.P,D12,2,A*%
%TO.N,Net-(D12-A)*%
X127000000Y-128270000D03*
%TD*%
D10*
%TO.P,U17,1*%
%TO.N,A10*%
X149730000Y-88265000D03*
%TO.P,U17,2*%
%TO.N,Net-(D25-Green_K)*%
X149730000Y-86995000D03*
%TO.P,U17,3*%
%TO.N,A11*%
X149730000Y-85725000D03*
%TO.P,U17,4*%
%TO.N,Net-(D15-Green_K)*%
X149730000Y-84455000D03*
%TO.P,U17,5*%
%TO.N,A12*%
X149730000Y-83185000D03*
%TO.P,U17,6*%
%TO.N,Net-(D36-Green_K)*%
X149730000Y-81915000D03*
%TO.P,U17,7,GND*%
%TO.N,GND*%
X149730000Y-80645000D03*
%TO.P,U17,8*%
%TO.N,Net-(D31-Green_K)*%
X144780000Y-80645000D03*
%TO.P,U17,9*%
%TO.N,D3*%
X144780000Y-81915000D03*
%TO.P,U17,10*%
%TO.N,Net-(D13-Green_K)*%
X144780000Y-83185000D03*
%TO.P,U17,11*%
%TO.N,D4*%
X144780000Y-84455000D03*
%TO.P,U17,12*%
%TO.N,Net-(D17-Green_K)*%
X144780000Y-85725000D03*
%TO.P,U17,13*%
%TO.N,D5*%
X144780000Y-86995000D03*
%TO.P,U17,14,VCC*%
%TO.N,+5V*%
X144780000Y-88265000D03*
%TD*%
D18*
%TO.P,R64,1*%
%TO.N,Net-(Q2-D)*%
X119635000Y-74930000D03*
%TO.P,R64,2*%
%TO.N,Net-(D33-Red_K)*%
X121285000Y-74930000D03*
%TD*%
%TO.P,R28,1*%
%TO.N,Net-(Q2-D)*%
X119635000Y-105410000D03*
%TO.P,R28,2*%
%TO.N,Net-(D29-Red_K)*%
X121285000Y-105410000D03*
%TD*%
D14*
%TO.P,R70,1*%
%TO.N,Net-(Q1-D)*%
X131000000Y-121920000D03*
%TO.P,R70,2*%
%TO.N,Net-(D1-Green_A)*%
X129350000Y-121920000D03*
%TD*%
%TO.P,R55,1*%
%TO.N,Net-(Q1-D)*%
X131190000Y-91440000D03*
%TO.P,R55,2*%
%TO.N,Net-(D26-Green_A)*%
X129540000Y-91440000D03*
%TD*%
D10*
%TO.P,U2,1*%
%TO.N,A4*%
X149730000Y-113665000D03*
%TO.P,U2,2*%
%TO.N,Net-(D30-Green_K)*%
X149730000Y-112395000D03*
%TO.P,U2,3*%
%TO.N,A5*%
X149730000Y-111125000D03*
%TO.P,U2,4*%
%TO.N,Net-(D29-Green_K)*%
X149730000Y-109855000D03*
%TO.P,U2,5*%
%TO.N,A6*%
X149730000Y-108585000D03*
%TO.P,U2,6*%
%TO.N,Net-(D11-Green_K)*%
X149730000Y-107315000D03*
%TO.P,U2,7,GND*%
%TO.N,GND*%
X149730000Y-106045000D03*
%TO.P,U2,8*%
%TO.N,Net-(D5-Green_K)*%
X144780000Y-106045000D03*
%TO.P,U2,9*%
%TO.N,ROM_PGM{slash}*%
X144780000Y-107315000D03*
%TO.P,U2,10*%
%TO.N,Net-(D73-Green_K)*%
X144780000Y-108585000D03*
%TO.P,U2,11*%
%TO.N,BE*%
X144780000Y-109855000D03*
%TO.P,U2,12*%
%TO.N,Net-(D19-A)*%
X144780000Y-111125000D03*
%TO.P,U2,13*%
%TO.N,IRQ{slash}*%
X144780000Y-112395000D03*
%TO.P,U2,14,VCC*%
%TO.N,+5V*%
X144780000Y-113665000D03*
%TD*%
D17*
%TO.P,D10,1,Green_K*%
%TO.N,Net-(D10-Green_K)*%
X123825000Y-99125000D03*
%TO.P,D10,2,Red_K*%
%TO.N,Net-(D10-Red_K)*%
X123825000Y-97725000D03*
%TO.P,D10,3,Red_A*%
%TO.N,Net-(D10-Green_K)*%
X127325000Y-97725000D03*
%TO.P,D10,4,Green_A*%
%TO.N,Net-(D10-Green_A)*%
X127325000Y-99125000D03*
%TD*%
D14*
%TO.P,R16,1*%
%TO.N,Net-(Q1-D)*%
X96900000Y-76200000D03*
%TO.P,R16,2*%
%TO.N,Net-(D14-Green_A)*%
X95250000Y-76200000D03*
%TD*%
D17*
%TO.P,D29,1,Green_K*%
%TO.N,Net-(D29-Green_K)*%
X123825000Y-106745000D03*
%TO.P,D29,2,Red_K*%
%TO.N,Net-(D29-Red_K)*%
X123825000Y-105345000D03*
%TO.P,D29,3,Red_A*%
%TO.N,Net-(D29-Green_K)*%
X127325000Y-105345000D03*
%TO.P,D29,4,Green_A*%
%TO.N,Net-(D29-Green_A)*%
X127325000Y-106745000D03*
%TD*%
%TO.P,D1,1,Green_K*%
%TO.N,Net-(D1-Green_K)*%
X123825000Y-122050000D03*
%TO.P,D1,2,Red_K*%
%TO.N,Net-(D1-Red_K)*%
X123825000Y-120650000D03*
%TO.P,D1,3,Red_A*%
%TO.N,Net-(D1-Green_K)*%
X127325000Y-120650000D03*
%TO.P,D1,4,Green_A*%
%TO.N,Net-(D1-Green_A)*%
X127325000Y-122050000D03*
%TD*%
D14*
%TO.P,R37,1*%
%TO.N,Net-(Q1-D)*%
X96900000Y-99125000D03*
%TO.P,R37,2*%
%TO.N,Net-(D24-Green_A)*%
X95250000Y-99125000D03*
%TD*%
D18*
%TO.P,R17,1*%
%TO.N,Net-(Q2-D)*%
X85345000Y-74930000D03*
%TO.P,R17,2*%
%TO.N,Net-(D14-Red_K)*%
X86995000Y-74930000D03*
%TD*%
%TO.P,R56,1*%
%TO.N,Net-(Q2-D)*%
X119635000Y-90170000D03*
%TO.P,R56,2*%
%TO.N,Net-(D26-Red_K)*%
X121285000Y-90170000D03*
%TD*%
%TO.P,R15,1*%
%TO.N,Net-(Q2-D)*%
X119635000Y-120650000D03*
%TO.P,R15,2*%
%TO.N,Net-(D1-Red_K)*%
X121285000Y-120650000D03*
%TD*%
D12*
%TO.P,C20,1*%
%TO.N,+5V*%
X144780000Y-116205000D03*
%TO.P,C20,2*%
%TO.N,GND*%
X149780000Y-116205000D03*
%TD*%
D17*
%TO.P,D5,1,Green_K*%
%TO.N,Net-(D5-Green_K)*%
X89535000Y-102935000D03*
%TO.P,D5,2,Red_K*%
%TO.N,Net-(D5-Red_K)*%
X89535000Y-101535000D03*
%TO.P,D5,3,Red_A*%
%TO.N,Net-(D5-Green_K)*%
X93035000Y-101535000D03*
%TO.P,D5,4,Green_A*%
%TO.N,Net-(D5-Green_A)*%
X93035000Y-102935000D03*
%TD*%
%TO.P,D33,1,Green_K*%
%TO.N,Net-(D33-Green_K)*%
X123825000Y-76265000D03*
%TO.P,D33,2,Red_K*%
%TO.N,Net-(D33-Red_K)*%
X123825000Y-74865000D03*
%TO.P,D33,3,Red_A*%
%TO.N,Net-(D33-Green_K)*%
X127325000Y-74865000D03*
%TO.P,D33,4,Green_A*%
%TO.N,Net-(D33-Green_A)*%
X127325000Y-76265000D03*
%TD*%
D10*
%TO.P,U12,1*%
%TO.N,A1*%
X149730000Y-126365000D03*
%TO.P,U12,2*%
%TO.N,Net-(D1-Green_K)*%
X149730000Y-125095000D03*
%TO.P,U12,3*%
%TO.N,A2*%
X149730000Y-123825000D03*
%TO.P,U12,4*%
%TO.N,Net-(D23-Green_K)*%
X149730000Y-122555000D03*
%TO.P,U12,5*%
%TO.N,A3*%
X149730000Y-121285000D03*
%TO.P,U12,6*%
%TO.N,Net-(D21-Green_K)*%
X149730000Y-120015000D03*
%TO.P,U12,7,GND*%
%TO.N,GND*%
X149730000Y-118745000D03*
%TO.P,U12,8*%
%TO.N,Net-(D20-A)*%
X144780000Y-118745000D03*
%TO.P,U12,9*%
%TO.N,NMI{slash}*%
X144780000Y-120015000D03*
%TO.P,U12,10*%
%TO.N,Net-(R32-Pad1)*%
X144780000Y-121285000D03*
%TO.P,U12,11*%
%TO.N,SW_BUS_LED*%
X144780000Y-122555000D03*
%TO.P,U12,12*%
%TO.N,Net-(D4-A)*%
X144780000Y-123825000D03*
%TO.P,U12,13*%
%TO.N,RAM{slash}*%
X144780000Y-125095000D03*
%TO.P,U12,14,VCC*%
%TO.N,+5V*%
X144780000Y-126365000D03*
%TD*%
D17*
%TO.P,D23,1,Green_K*%
%TO.N,Net-(D23-Green_K)*%
X123825000Y-118175000D03*
%TO.P,D23,2,Red_K*%
%TO.N,Net-(D23-Red_K)*%
X123825000Y-116775000D03*
%TO.P,D23,3,Red_A*%
%TO.N,Net-(D23-Green_K)*%
X127325000Y-116775000D03*
%TO.P,D23,4,Green_A*%
%TO.N,Net-(D23-Green_A)*%
X127325000Y-118175000D03*
%TD*%
D14*
%TO.P,R74,1*%
%TO.N,Net-(Q1-D)*%
X96900000Y-106615000D03*
%TO.P,R74,2*%
%TO.N,Net-(D73-Green_A)*%
X95250000Y-106615000D03*
%TD*%
D17*
%TO.P,D11,1,Green_K*%
%TO.N,Net-(D11-Green_K)*%
X123825000Y-102935000D03*
%TO.P,D11,2,Red_K*%
%TO.N,Net-(D11-Red_K)*%
X123825000Y-101535000D03*
%TO.P,D11,3,Red_A*%
%TO.N,Net-(D11-Green_K)*%
X127325000Y-101535000D03*
%TO.P,D11,4,Green_A*%
%TO.N,Net-(D11-Green_A)*%
X127325000Y-102935000D03*
%TD*%
%TO.P,D30,1,Green_K*%
%TO.N,Net-(D30-Green_K)*%
X123825000Y-110555000D03*
%TO.P,D30,2,Red_K*%
%TO.N,Net-(D30-Red_K)*%
X123825000Y-109155000D03*
%TO.P,D30,3,Red_A*%
%TO.N,Net-(D30-Green_K)*%
X127325000Y-109155000D03*
%TO.P,D30,4,Green_A*%
%TO.N,Net-(D30-Green_A)*%
X127325000Y-110555000D03*
%TD*%
%TO.P,D17,1,Green_K*%
%TO.N,Net-(D17-Green_K)*%
X89535000Y-87695000D03*
%TO.P,D17,2,Red_K*%
%TO.N,Net-(D17-Red_K)*%
X89535000Y-86295000D03*
%TO.P,D17,3,Red_A*%
%TO.N,Net-(D17-Green_K)*%
X93035000Y-86295000D03*
%TO.P,D17,4,Green_A*%
%TO.N,Net-(D17-Green_A)*%
X93035000Y-87695000D03*
%TD*%
D16*
%TO.P,D7,1,K*%
%TO.N,Net-(D7-K)*%
X89910000Y-128270000D03*
%TO.P,D7,2,A*%
%TO.N,Net-(D7-A)*%
X92710000Y-128270000D03*
%TD*%
D17*
%TO.P,D22,1,Green_K*%
%TO.N,Net-(D22-Green_K)*%
X89535000Y-68710000D03*
%TO.P,D22,2,Red_K*%
%TO.N,Net-(D22-Red_K)*%
X89535000Y-67310000D03*
%TO.P,D22,3,Red_A*%
%TO.N,Net-(D22-Green_K)*%
X93035000Y-67310000D03*
%TO.P,D22,4,Green_A*%
%TO.N,Net-(D22-Green_A)*%
X93035000Y-68710000D03*
%TD*%
D18*
%TO.P,R50,1*%
%TO.N,Net-(Q2-D)*%
X119635000Y-116840000D03*
%TO.P,R50,2*%
%TO.N,Net-(D23-Red_K)*%
X121285000Y-116840000D03*
%TD*%
D14*
%TO.P,R51,1*%
%TO.N,Net-(Q1-D)*%
X131190000Y-83820000D03*
%TO.P,R51,2*%
%TO.N,Net-(D15-Green_A)*%
X129540000Y-83820000D03*
%TD*%
D18*
%TO.P,R71,1*%
%TO.N,Net-(Q2-D)*%
X85345000Y-86360000D03*
%TO.P,R71,2*%
%TO.N,Net-(D17-Red_K)*%
X86995000Y-86360000D03*
%TD*%
D16*
%TO.P,D4,1,K*%
%TO.N,Net-(D4-K)*%
X89910000Y-120650000D03*
%TO.P,D4,2,A*%
%TO.N,Net-(D4-A)*%
X92710000Y-120650000D03*
%TD*%
D18*
%TO.P,R30,1*%
%TO.N,Net-(Q2-D)*%
X119635000Y-109155000D03*
%TO.P,R30,2*%
%TO.N,Net-(D30-Red_K)*%
X121285000Y-109155000D03*
%TD*%
D14*
%TO.P,R18,1*%
%TO.N,Net-(Q1-D)*%
X96900000Y-133350000D03*
%TO.P,R18,2*%
%TO.N,Net-(D9-Green_A)*%
X95250000Y-133350000D03*
%TD*%
D18*
%TO.P,R11,1*%
%TO.N,Net-(Q2-D)*%
X119635000Y-128270000D03*
%TO.P,R11,2*%
%TO.N,Net-(D12-K)*%
X121285000Y-128270000D03*
%TD*%
%TO.P,R54,1*%
%TO.N,Net-(Q2-D)*%
X119635000Y-86425000D03*
%TO.P,R54,2*%
%TO.N,Net-(D25-Red_K)*%
X121285000Y-86425000D03*
%TD*%
D17*
%TO.P,D13,1,Green_K*%
%TO.N,Net-(D13-Green_K)*%
X89535000Y-83950000D03*
%TO.P,D13,2,Red_K*%
%TO.N,Net-(D13-Red_K)*%
X89535000Y-82550000D03*
%TO.P,D13,3,Red_A*%
%TO.N,Net-(D13-Green_K)*%
X93035000Y-82550000D03*
%TO.P,D13,4,Green_A*%
%TO.N,Net-(D13-Green_A)*%
X93035000Y-83950000D03*
%TD*%
D12*
%TO.P,C6,1*%
%TO.N,RES{slash}*%
X79375000Y-115225000D03*
%TO.P,C6,2*%
%TO.N,GND*%
X79375000Y-120225000D03*
%TD*%
D18*
%TO.P,R42,1*%
%TO.N,Net-(Q2-D)*%
X85345000Y-90170000D03*
%TO.P,R42,2*%
%TO.N,Net-(D18-Red_K)*%
X86995000Y-90170000D03*
%TD*%
D14*
%TO.P,R47,1*%
%TO.N,Net-(Q1-D)*%
X96900000Y-68580000D03*
%TO.P,R47,2*%
%TO.N,Net-(D22-Green_A)*%
X95250000Y-68580000D03*
%TD*%
D13*
%TO.P,R32,1*%
%TO.N,Net-(R32-Pad1)*%
X111075000Y-147320000D03*
%TO.P,R32,2*%
%TO.N,SW_BUS_LEDb*%
X108535000Y-147320000D03*
%TD*%
D14*
%TO.P,R53,1*%
%TO.N,Net-(Q1-D)*%
X131190000Y-87760000D03*
%TO.P,R53,2*%
%TO.N,Net-(D25-Green_A)*%
X129540000Y-87760000D03*
%TD*%
D18*
%TO.P,R46,1*%
%TO.N,Net-(Q2-D)*%
X119635000Y-113030000D03*
%TO.P,R46,2*%
%TO.N,Net-(D21-Red_K)*%
X121285000Y-113030000D03*
%TD*%
D21*
%TO.P,RV1,*%
%TO.N,*%
X158620000Y-147560000D03*
X158620000Y-157160000D03*
D22*
%TO.P,RV1,1,1*%
%TO.N,Net-(D2-K)*%
X151120000Y-149860000D03*
D23*
%TO.P,RV1,2,2*%
%TO.N,Net-(U1-THR)*%
X151120000Y-152360000D03*
%TO.P,RV1,3,3*%
%TO.N,Net-(D3-A)*%
X151120000Y-154860000D03*
%TD*%
D17*
%TO.P,D9,1,Green_K*%
%TO.N,Net-(D9-Green_K)*%
X89535000Y-133480000D03*
%TO.P,D9,2,Red_K*%
%TO.N,Net-(D9-Red_K)*%
X89535000Y-132080000D03*
%TO.P,D9,3,Red_A*%
%TO.N,Net-(D9-Green_K)*%
X93035000Y-132080000D03*
%TO.P,D9,4,Green_A*%
%TO.N,Net-(D9-Green_A)*%
X93035000Y-133480000D03*
%TD*%
D12*
%TO.P,C2,1*%
%TO.N,GND*%
X129540000Y-161290000D03*
%TO.P,C2,2*%
%TO.N,Net-(U1-CV)*%
X134540000Y-161290000D03*
%TD*%
D24*
%TO.P,Q1,1,G*%
%TO.N,SW_BUS_LED*%
X126365000Y-139385000D03*
D25*
%TO.P,Q1,2,D*%
%TO.N,Net-(Q1-D)*%
X123825000Y-139385000D03*
%TO.P,Q1,3,S*%
%TO.N,+5V*%
X121285000Y-139385000D03*
%TD*%
D16*
%TO.P,D19,1,K*%
%TO.N,Net-(D19-K)*%
X89910000Y-109220000D03*
%TO.P,D19,2,A*%
%TO.N,Net-(D19-A)*%
X92710000Y-109220000D03*
%TD*%
%TO.P,D20,1,K*%
%TO.N,Net-(D20-K)*%
X89910000Y-113030000D03*
%TO.P,D20,2,A*%
%TO.N,Net-(D20-A)*%
X92710000Y-113030000D03*
%TD*%
D17*
%TO.P,D35,1,Green_K*%
%TO.N,Net-(D35-Green_K)*%
X123825000Y-72455000D03*
%TO.P,D35,2,Red_K*%
%TO.N,Net-(D35-Red_K)*%
X123825000Y-71055000D03*
%TO.P,D35,3,Red_A*%
%TO.N,Net-(D35-Green_K)*%
X127325000Y-71055000D03*
%TO.P,D35,4,Green_A*%
%TO.N,Net-(D35-Green_A)*%
X127325000Y-72455000D03*
%TD*%
D14*
%TO.P,R61,1*%
%TO.N,Net-(Q1-D)*%
X96900000Y-72390000D03*
%TO.P,R61,2*%
%TO.N,Net-(D32-Green_A)*%
X95250000Y-72390000D03*
%TD*%
D18*
%TO.P,R8,1*%
%TO.N,Net-(Q2-D)*%
X85345000Y-113030000D03*
%TO.P,R8,2*%
%TO.N,Net-(D20-K)*%
X86995000Y-113030000D03*
%TD*%
D13*
%TO.P,R3,1*%
%TO.N,+5V*%
X137160000Y-150495000D03*
%TO.P,R3,2*%
%TO.N,Net-(D2-A)*%
X137160000Y-153035000D03*
%TD*%
D12*
%TO.P,C19,1*%
%TO.N,+5V*%
X144780000Y-103505000D03*
%TO.P,C19,2*%
%TO.N,GND*%
X149780000Y-103505000D03*
%TD*%
D10*
%TO.P,U16,1*%
%TO.N,A7*%
X149730000Y-100965000D03*
%TO.P,U16,2*%
%TO.N,Net-(D10-Green_K)*%
X149730000Y-99695000D03*
%TO.P,U16,3*%
%TO.N,A8*%
X149730000Y-98425000D03*
%TO.P,U16,4*%
%TO.N,Net-(D28-Green_K)*%
X149730000Y-97155000D03*
%TO.P,U16,5*%
%TO.N,A9*%
X149730000Y-95885000D03*
%TO.P,U16,6*%
%TO.N,Net-(D26-Green_K)*%
X149730000Y-94615000D03*
%TO.P,U16,7,GND*%
%TO.N,GND*%
X149730000Y-93345000D03*
%TO.P,U16,8*%
%TO.N,Net-(D18-Green_K)*%
X144780000Y-93345000D03*
%TO.P,U16,9*%
%TO.N,D6*%
X144780000Y-94615000D03*
%TO.P,U16,10*%
%TO.N,Net-(D16-Green_K)*%
X144780000Y-95885000D03*
%TO.P,U16,11*%
%TO.N,D7*%
X144780000Y-97155000D03*
%TO.P,U16,12*%
%TO.N,Net-(D24-Green_K)*%
X144780000Y-98425000D03*
%TO.P,U16,13*%
%TO.N,RW{slash}*%
X144780000Y-99695000D03*
%TO.P,U16,14,VCC*%
%TO.N,+5V*%
X144780000Y-100965000D03*
%TD*%
D17*
%TO.P,D14,1,Green_K*%
%TO.N,Net-(D14-Green_K)*%
X89535000Y-76330000D03*
%TO.P,D14,2,Red_K*%
%TO.N,Net-(D14-Red_K)*%
X89535000Y-74930000D03*
%TO.P,D14,3,Red_A*%
%TO.N,Net-(D14-Green_K)*%
X93035000Y-74930000D03*
%TO.P,D14,4,Green_A*%
%TO.N,Net-(D14-Green_A)*%
X93035000Y-76330000D03*
%TD*%
D18*
%TO.P,R7,1*%
%TO.N,Net-(Q2-D)*%
X85345000Y-124460000D03*
%TO.P,R7,2*%
%TO.N,Net-(D6-K)*%
X86995000Y-124460000D03*
%TD*%
D14*
%TO.P,R69,1*%
%TO.N,Net-(Q1-D)*%
X96900000Y-87630000D03*
%TO.P,R69,2*%
%TO.N,Net-(D17-Green_A)*%
X95250000Y-87630000D03*
%TD*%
D16*
%TO.P,D8,1,K*%
%TO.N,Net-(D8-K)*%
X124200000Y-132080000D03*
%TO.P,D8,2,A*%
%TO.N,Net-(D8-A)*%
X127000000Y-132080000D03*
%TD*%
D17*
%TO.P,D36,1,Green_K*%
%TO.N,Net-(D36-Green_K)*%
X123825000Y-80010000D03*
%TO.P,D36,2,Red_K*%
%TO.N,Net-(D36-Red_K)*%
X123825000Y-78610000D03*
%TO.P,D36,3,Red_A*%
%TO.N,Net-(D36-Green_K)*%
X127325000Y-78610000D03*
%TO.P,D36,4,Green_A*%
%TO.N,Net-(D36-Green_A)*%
X127325000Y-80010000D03*
%TD*%
%TO.P,D27,1,Green_K*%
%TO.N,Net-(D27-Green_K)*%
X123825000Y-125795000D03*
%TO.P,D27,2,Red_K*%
%TO.N,Net-(D27-Red_K)*%
X123825000Y-124395000D03*
%TO.P,D27,3,Red_A*%
%TO.N,Net-(D27-Green_K)*%
X127325000Y-124395000D03*
%TO.P,D27,4,Green_A*%
%TO.N,Net-(D27-Green_A)*%
X127325000Y-125795000D03*
%TD*%
D12*
%TO.P,C4,1*%
%TO.N,+5V*%
X144780000Y-78105000D03*
%TO.P,C4,2*%
%TO.N,GND*%
X149780000Y-78105000D03*
%TD*%
D18*
%TO.P,R6,1*%
%TO.N,Net-(Q2-D)*%
X85345000Y-109220000D03*
%TO.P,R6,2*%
%TO.N,Net-(D19-K)*%
X86995000Y-109220000D03*
%TD*%
%TO.P,R68,1*%
%TO.N,Net-(Q2-D)*%
X85345000Y-132080000D03*
%TO.P,R68,2*%
%TO.N,Net-(D9-Red_K)*%
X86995000Y-132080000D03*
%TD*%
D14*
%TO.P,R13,1*%
%TO.N,Net-(Q1-D)*%
X131190000Y-99125000D03*
%TO.P,R13,2*%
%TO.N,Net-(D10-Green_A)*%
X129540000Y-99125000D03*
%TD*%
%TO.P,R77,1*%
%TO.N,Net-(Q1-D)*%
X131190000Y-80010000D03*
%TO.P,R77,2*%
%TO.N,Net-(D36-Green_A)*%
X129540000Y-80010000D03*
%TD*%
D24*
%TO.P,Q2,1,G*%
%TO.N,SW_BUS_LEDb*%
X108585000Y-140970000D03*
D25*
%TO.P,Q2,2,D*%
%TO.N,Net-(Q2-D)*%
X111125000Y-140970000D03*
%TO.P,Q2,3,S*%
%TO.N,GND*%
X113665000Y-140970000D03*
%TD*%
D18*
%TO.P,R48,1*%
%TO.N,Net-(Q2-D)*%
X85345000Y-67310000D03*
%TO.P,R48,2*%
%TO.N,Net-(D22-Red_K)*%
X86995000Y-67310000D03*
%TD*%
D26*
%TO.P,J1,1,Vss*%
%TO.N,GND*%
X163830000Y-137795000D03*
%TO.P,J1,2,SYNC*%
%TO.N,SYNC*%
X163830000Y-135255000D03*
%TO.P,J1,3,VP/*%
%TO.N,VP{slash}*%
X163830000Y-132715000D03*
%TO.P,J1,4,+5V*%
%TO.N,+5V*%
X163830000Y-130175000D03*
%TO.P,J1,5,A0*%
%TO.N,A0*%
X163830000Y-127635000D03*
%TO.P,J1,6,A1*%
%TO.N,A1*%
X163830000Y-125095000D03*
%TO.P,J1,7,A2*%
%TO.N,A2*%
X163830000Y-122555000D03*
%TO.P,J1,8,A3*%
%TO.N,A3*%
X163830000Y-120015000D03*
%TO.P,J1,9,A4*%
%TO.N,A4*%
X163830000Y-117475000D03*
%TO.P,J1,10,A5*%
%TO.N,A5*%
X163830000Y-114935000D03*
%TO.P,J1,11,A6*%
%TO.N,A6*%
X163830000Y-112395000D03*
%TO.P,J1,12,A7*%
%TO.N,A7*%
X163830000Y-109855000D03*
%TO.P,J1,13,A8*%
%TO.N,A8*%
X163830000Y-107315000D03*
%TO.P,J1,14,A9*%
%TO.N,A9*%
X163830000Y-104775000D03*
%TO.P,J1,15,A10*%
%TO.N,A10*%
X163830000Y-102235000D03*
%TO.P,J1,16,A11*%
%TO.N,A11*%
X163830000Y-99695000D03*
%TO.P,J1,17,A12*%
%TO.N,A12*%
X163830000Y-97155000D03*
%TO.P,J1,18,A13*%
%TO.N,A13*%
X163830000Y-94615000D03*
%TO.P,J1,19,A14*%
%TO.N,A14*%
X163830000Y-92075000D03*
%TO.P,J1,20,A15*%
%TO.N,A15*%
X163830000Y-89535000D03*
%TO.P,J1,21,D0*%
%TO.N,D0*%
X161290000Y-89535000D03*
%TO.P,J1,22,D1*%
%TO.N,D1*%
X161290000Y-92075000D03*
%TO.P,J1,23,D2*%
%TO.N,D2*%
X161290000Y-94615000D03*
%TO.P,J1,24,D3*%
%TO.N,D3*%
X161290000Y-97155000D03*
%TO.P,J1,25,D4*%
%TO.N,D4*%
X161290000Y-99695000D03*
%TO.P,J1,26,D5*%
%TO.N,D5*%
X161290000Y-102235000D03*
%TO.P,J1,27,D6*%
%TO.N,D6*%
X161290000Y-104775000D03*
%TO.P,J1,28,D7*%
%TO.N,D7*%
X161290000Y-107315000D03*
%TO.P,J1,29,RW/*%
%TO.N,RW{slash}*%
X161290000Y-109855000D03*
%TO.P,J1,30,ROM_PGM/*%
%TO.N,ROM_PGM{slash}*%
X161290000Y-112395000D03*
%TO.P,J1,31,BE*%
%TO.N,BE*%
X161290000Y-114935000D03*
%TO.P,J1,32,IRQ/*%
%TO.N,IRQ{slash}*%
X161290000Y-117475000D03*
%TO.P,J1,33,NMI/*%
%TO.N,NMI{slash}*%
X161290000Y-120015000D03*
%TO.P,J1,34,RES/*%
%TO.N,RES{slash}*%
X161290000Y-122555000D03*
%TO.P,J1,35,RAM/*%
%TO.N,RAM{slash}*%
X161290000Y-125095000D03*
%TO.P,J1,36,ROM/*%
%TO.N,ROM{slash}*%
X161290000Y-127635000D03*
%TO.P,J1,37,+5V*%
%TO.N,+5V*%
X161290000Y-130175000D03*
%TO.P,J1,38,ACC/*%
%TO.N,ACC{slash}*%
X161290000Y-132715000D03*
%TO.P,J1,39,CLK*%
%TO.N,CLK*%
X161290000Y-135255000D03*
D27*
%TO.P,J1,40,Vss*%
%TO.N,GND*%
X161290000Y-137795000D03*
%TD*%
D28*
%TO.P,J2,A1,GND*%
%TO.N,GND*%
X74530000Y-151975000D03*
%TO.P,J2,A4,VBUS*%
%TO.N,+5V*%
X74530000Y-152775000D03*
D29*
%TO.P,J2,A5,CC1*%
%TO.N,Net-(J2-CC1)*%
X74530000Y-153975000D03*
%TO.P,J2,A6,D+*%
%TO.N,unconnected-(J2-D+-PadA6)*%
X74530000Y-154975000D03*
%TO.P,J2,A7,D-*%
%TO.N,unconnected-(J2-D--PadA7)*%
X74530000Y-155475000D03*
%TO.P,J2,A8*%
%TO.N,N/C*%
X74530000Y-156475000D03*
D28*
%TO.P,J2,A9,VBUS*%
%TO.N,+5V*%
X74530000Y-157675000D03*
%TO.P,J2,A12,GND*%
%TO.N,GND*%
X74530000Y-158475000D03*
%TO.P,J2,B1,GND*%
X74530000Y-158475000D03*
%TO.P,J2,B4,VBUS*%
%TO.N,+5V*%
X74530000Y-157675000D03*
D29*
%TO.P,J2,B5,CC2*%
%TO.N,Net-(J2-CC2)*%
X74530000Y-156975000D03*
%TO.P,J2,B6,D+*%
%TO.N,unconnected-(J2-D+-PadB6)*%
X74530000Y-155975000D03*
%TO.P,J2,B7,D-*%
%TO.N,unconnected-(J2-D--PadB7)*%
X74530000Y-154475000D03*
%TO.P,J2,B8*%
%TO.N,N/C*%
X74530000Y-153475000D03*
D28*
%TO.P,J2,B9,VBUS*%
%TO.N,+5V*%
X74530000Y-152775000D03*
%TO.P,J2,B12,GND*%
%TO.N,GND*%
X74530000Y-151975000D03*
D30*
%TO.P,J2,S1,SHIELD*%
X73615000Y-150905000D03*
D31*
X69435000Y-150905000D03*
D30*
X73615000Y-159545000D03*
D31*
X69435000Y-159545000D03*
%TD*%
D18*
%TO.P,R9,1*%
%TO.N,Net-(Q2-D)*%
X119635000Y-132080000D03*
%TO.P,R9,2*%
%TO.N,Net-(D8-K)*%
X121285000Y-132080000D03*
%TD*%
D14*
%TO.P,R45,1*%
%TO.N,Net-(Q1-D)*%
X131000000Y-114300000D03*
%TO.P,R45,2*%
%TO.N,Net-(D21-Green_A)*%
X129350000Y-114300000D03*
%TD*%
%TO.P,R76,1*%
%TO.N,Net-(Q1-D)*%
X131190000Y-72390000D03*
%TO.P,R76,2*%
%TO.N,Net-(D35-Green_A)*%
X129540000Y-72390000D03*
%TD*%
D13*
%TO.P,R2,1*%
%TO.N,Net-(J2-CC1)*%
X77580000Y-154305000D03*
%TO.P,R2,2*%
%TO.N,GND*%
X80120000Y-154305000D03*
%TD*%
D12*
%TO.P,C22,1*%
%TO.N,+5V*%
X144780000Y-141605000D03*
%TO.P,C22,2*%
%TO.N,GND*%
X149780000Y-141605000D03*
%TD*%
D17*
%TO.P,D24,1,Green_K*%
%TO.N,Net-(D24-Green_K)*%
X89535000Y-99125000D03*
%TO.P,D24,2,Red_K*%
%TO.N,Net-(D24-Red_K)*%
X89535000Y-97725000D03*
%TO.P,D24,3,Red_A*%
%TO.N,Net-(D24-Green_K)*%
X93035000Y-97725000D03*
%TO.P,D24,4,Green_A*%
%TO.N,Net-(D24-Green_A)*%
X93035000Y-99125000D03*
%TD*%
D18*
%TO.P,R14,1*%
%TO.N,Net-(Q2-D)*%
X119635000Y-97855000D03*
%TO.P,R14,2*%
%TO.N,Net-(D10-Red_K)*%
X121285000Y-97855000D03*
%TD*%
D17*
%TO.P,D15,1,Green_K*%
%TO.N,Net-(D15-Green_K)*%
X123825000Y-83950000D03*
%TO.P,D15,2,Red_K*%
%TO.N,Net-(D15-Red_K)*%
X123825000Y-82550000D03*
%TO.P,D15,3,Red_A*%
%TO.N,Net-(D15-Green_K)*%
X127325000Y-82550000D03*
%TO.P,D15,4,Green_A*%
%TO.N,Net-(D15-Green_A)*%
X127325000Y-83950000D03*
%TD*%
%TO.P,D73,1,Green_K*%
%TO.N,Net-(D73-Green_K)*%
X89535000Y-106745000D03*
%TO.P,D73,2,Red_K*%
%TO.N,Net-(D73-Red_K)*%
X89535000Y-105345000D03*
%TO.P,D73,3,Red_A*%
%TO.N,Net-(D73-Green_K)*%
X93035000Y-105345000D03*
%TO.P,D73,4,Green_A*%
%TO.N,Net-(D73-Green_A)*%
X93035000Y-106745000D03*
%TD*%
D18*
%TO.P,R66,1*%
%TO.N,Net-(Q2-D)*%
X119635000Y-67310000D03*
%TO.P,R66,2*%
%TO.N,Net-(D34-Red_K)*%
X121285000Y-67310000D03*
%TD*%
%TO.P,R52,1*%
%TO.N,Net-(Q2-D)*%
X119635000Y-82550000D03*
%TO.P,R52,2*%
%TO.N,Net-(D15-Red_K)*%
X121285000Y-82550000D03*
%TD*%
D32*
%TO.P,SW1,1,1*%
%TO.N,RES{slash}*%
X69025000Y-115225000D03*
X75525000Y-115225000D03*
%TO.P,SW1,2,2*%
%TO.N,GND*%
X69025000Y-119725000D03*
X75525000Y-119725000D03*
%TD*%
D12*
%TO.P,C21,1*%
%TO.N,+5V*%
X144780000Y-128905000D03*
%TO.P,C21,2*%
%TO.N,GND*%
X149780000Y-128905000D03*
%TD*%
D18*
%TO.P,R67,1*%
%TO.N,Net-(Q2-D)*%
X119635000Y-71120000D03*
%TO.P,R67,2*%
%TO.N,Net-(D35-Red_K)*%
X121285000Y-71120000D03*
%TD*%
D17*
%TO.P,D32,1,Green_K*%
%TO.N,Net-(D32-Green_K)*%
X89535000Y-72520000D03*
%TO.P,D32,2,Red_K*%
%TO.N,Net-(D32-Red_K)*%
X89535000Y-71120000D03*
%TO.P,D32,3,Red_A*%
%TO.N,Net-(D32-Green_K)*%
X93035000Y-71120000D03*
%TO.P,D32,4,Green_A*%
%TO.N,Net-(D32-Green_A)*%
X93035000Y-72520000D03*
%TD*%
D18*
%TO.P,R36,1*%
%TO.N,Net-(Q2-D)*%
X85345000Y-101600000D03*
%TO.P,R36,2*%
%TO.N,Net-(D5-Red_K)*%
X86995000Y-101600000D03*
%TD*%
D12*
%TO.P,C1,1*%
%TO.N,+5V*%
X127040000Y-147320000D03*
%TO.P,C1,2*%
%TO.N,GND*%
X132040000Y-147320000D03*
%TD*%
D18*
%TO.P,R62,1*%
%TO.N,Net-(Q2-D)*%
X85345000Y-71120000D03*
%TO.P,R62,2*%
%TO.N,Net-(D32-Red_K)*%
X86995000Y-71120000D03*
%TD*%
D17*
%TO.P,D28,1,Green_K*%
%TO.N,Net-(D28-Green_K)*%
X123825000Y-95315000D03*
%TO.P,D28,2,Red_K*%
%TO.N,Net-(D28-Red_K)*%
X123825000Y-93915000D03*
%TO.P,D28,3,Red_A*%
%TO.N,Net-(D28-Green_K)*%
X127325000Y-93915000D03*
%TO.P,D28,4,Green_A*%
%TO.N,Net-(D28-Green_A)*%
X127325000Y-95315000D03*
%TD*%
D15*
%TO.P,U1,1,GND*%
%TO.N,GND*%
X127000000Y-150495000D03*
D12*
%TO.P,U1,2,TR*%
%TO.N,Net-(U1-THR)*%
X127000000Y-153035000D03*
%TO.P,U1,3,Q*%
%TO.N,Net-(U1-Q)*%
X127000000Y-155575000D03*
%TO.P,U1,4,R*%
%TO.N,+5V*%
X127000000Y-158115000D03*
%TO.P,U1,5,CV*%
%TO.N,Net-(U1-CV)*%
X134620000Y-158115000D03*
%TO.P,U1,6,THR*%
%TO.N,Net-(U1-THR)*%
X134620000Y-155575000D03*
%TO.P,U1,7,DIS*%
%TO.N,Net-(D2-A)*%
X134620000Y-153035000D03*
%TO.P,U1,8,VCC*%
%TO.N,+5V*%
X134620000Y-150495000D03*
%TD*%
D14*
%TO.P,R49,1*%
%TO.N,Net-(Q1-D)*%
X131000000Y-118110000D03*
%TO.P,R49,2*%
%TO.N,Net-(D23-Green_A)*%
X129350000Y-118110000D03*
%TD*%
D10*
%TO.P,U3,1*%
%TO.N,SYNC*%
X149860000Y-139065000D03*
%TO.P,U3,2*%
%TO.N,Net-(D8-A)*%
X149860000Y-137795000D03*
%TO.P,U3,3*%
%TO.N,VP{slash}*%
X149860000Y-136525000D03*
%TO.P,U3,4*%
%TO.N,Net-(D12-A)*%
X149860000Y-135255000D03*
%TO.P,U3,5*%
%TO.N,A0*%
X149860000Y-133985000D03*
%TO.P,U3,6*%
%TO.N,Net-(D27-Green_K)*%
X149860000Y-132715000D03*
%TO.P,U3,7,GND*%
%TO.N,GND*%
X149860000Y-131445000D03*
%TO.P,U3,8*%
%TO.N,Net-(D6-A)*%
X144910000Y-131445000D03*
%TO.P,U3,9*%
%TO.N,ROM{slash}*%
X144910000Y-132715000D03*
%TO.P,U3,10*%
%TO.N,Net-(D7-A)*%
X144910000Y-133985000D03*
%TO.P,U3,11*%
%TO.N,ACC{slash}*%
X144910000Y-135255000D03*
%TO.P,U3,12*%
%TO.N,Net-(D9-Green_K)*%
X144910000Y-136525000D03*
%TO.P,U3,13*%
%TO.N,CLK*%
X144910000Y-137795000D03*
%TO.P,U3,14,VCC*%
%TO.N,+5V*%
X144910000Y-139065000D03*
%TD*%
D12*
%TO.P,C5,1*%
%TO.N,+5V*%
X144780000Y-90805000D03*
%TO.P,C5,2*%
%TO.N,GND*%
X149780000Y-90805000D03*
%TD*%
D18*
%TO.P,R20,1*%
%TO.N,Net-(Q2-D)*%
X119635000Y-101600000D03*
%TO.P,R20,2*%
%TO.N,Net-(D11-Red_K)*%
X121285000Y-101600000D03*
%TD*%
%TO.P,R24,1*%
%TO.N,Net-(Q2-D)*%
X85345000Y-82550000D03*
%TO.P,R24,2*%
%TO.N,Net-(D13-Red_K)*%
X86995000Y-82550000D03*
%TD*%
D14*
%TO.P,R63,1*%
%TO.N,Net-(Q1-D)*%
X131190000Y-76200000D03*
%TO.P,R63,2*%
%TO.N,Net-(D33-Green_A)*%
X129540000Y-76200000D03*
%TD*%
D18*
%TO.P,R12,1*%
%TO.N,Net-(Q2-D)*%
X85345000Y-116840000D03*
%TO.P,R12,2*%
%TO.N,Net-(D37-K)*%
X86995000Y-116840000D03*
%TD*%
D14*
%TO.P,R27,1*%
%TO.N,Net-(Q1-D)*%
X131000000Y-106615000D03*
%TO.P,R27,2*%
%TO.N,Net-(D29-Green_A)*%
X129350000Y-106615000D03*
%TD*%
D18*
%TO.P,R38,1*%
%TO.N,Net-(Q2-D)*%
X85345000Y-97855000D03*
%TO.P,R38,2*%
%TO.N,Net-(D24-Red_K)*%
X86995000Y-97855000D03*
%TD*%
%TO.P,R10,1*%
%TO.N,Net-(Q2-D)*%
X85345000Y-128270000D03*
%TO.P,R10,2*%
%TO.N,Net-(D7-K)*%
X86995000Y-128270000D03*
%TD*%
D17*
%TO.P,D25,1,Green_K*%
%TO.N,Net-(D25-Green_K)*%
X123825000Y-87760000D03*
%TO.P,D25,2,Red_K*%
%TO.N,Net-(D25-Red_K)*%
X123825000Y-86360000D03*
%TO.P,D25,3,Red_A*%
%TO.N,Net-(D25-Green_K)*%
X127325000Y-86360000D03*
%TO.P,D25,4,Green_A*%
%TO.N,Net-(D25-Green_A)*%
X127325000Y-87760000D03*
%TD*%
D18*
%TO.P,R78,1*%
%TO.N,Net-(Q2-D)*%
X119635000Y-78740000D03*
%TO.P,R78,2*%
%TO.N,Net-(D36-Red_K)*%
X121285000Y-78740000D03*
%TD*%
%TO.P,R60,1*%
%TO.N,Net-(Q2-D)*%
X85345000Y-78740000D03*
%TO.P,R60,2*%
%TO.N,Net-(D31-Red_K)*%
X86995000Y-78740000D03*
%TD*%
D14*
%TO.P,R81,1*%
%TO.N,Net-(Q1-D)*%
X96900000Y-83820000D03*
%TO.P,R81,2*%
%TO.N,Net-(D13-Green_A)*%
X95250000Y-83820000D03*
%TD*%
D33*
%TO.N,GND*%
X151765000Y-131445000D03*
X151765000Y-67945000D03*
X151765000Y-106045000D03*
X151765000Y-80645000D03*
X151765000Y-118745000D03*
X151765000Y-93345000D03*
%TO.N,+5V*%
X144780000Y-143510000D03*
%TO.N,SW_BUS_LED*%
X140335000Y-135890000D03*
X146685000Y-122555000D03*
%TO.N,Net-(Q2-D)*%
X119380000Y-106680000D03*
X85090000Y-87630000D03*
X85090000Y-129540000D03*
X119380000Y-95250000D03*
X119380000Y-91440000D03*
X119380000Y-76200000D03*
X119380000Y-114300000D03*
X85090000Y-121920000D03*
X85090000Y-118110000D03*
X86995000Y-133350000D03*
X119380000Y-68580000D03*
X85090000Y-76200000D03*
X85090000Y-102870000D03*
X119380000Y-133350000D03*
X119380000Y-121920000D03*
X85090000Y-99060000D03*
X85090000Y-95250000D03*
X119380000Y-129540000D03*
X85090000Y-114300000D03*
X119380000Y-80010000D03*
X119380000Y-125730000D03*
X119380000Y-99060000D03*
X119380000Y-102870000D03*
X119380000Y-110490000D03*
X85090000Y-106680000D03*
X85090000Y-72390000D03*
X85090000Y-83820000D03*
X85090000Y-80010000D03*
X85090000Y-91440000D03*
X85090000Y-110490000D03*
X119380000Y-118110000D03*
X119380000Y-87630000D03*
X85090000Y-68580000D03*
X119380000Y-72390000D03*
X119380000Y-83820000D03*
X85090000Y-125730000D03*
%TO.N,Net-(R32-Pad1)*%
X146685000Y-121285000D03*
X139065000Y-135890000D03*
%TO.N,Net-(Q1-D)*%
X131445000Y-123135000D03*
X96900000Y-100330000D03*
X96900000Y-73660000D03*
X131445000Y-69860000D03*
X96900000Y-81280000D03*
X131445000Y-73611000D03*
X96900000Y-77470000D03*
X131445000Y-104140000D03*
X131445000Y-115453661D03*
X131445000Y-96520000D03*
X96900000Y-69850000D03*
X131445000Y-119380000D03*
X131445000Y-85090000D03*
X96900000Y-88900000D03*
X96900000Y-134620000D03*
X131445000Y-81280000D03*
X131445000Y-127000000D03*
X120015000Y-136525000D03*
X113665000Y-136525000D03*
X96900000Y-104140000D03*
X131445000Y-77470000D03*
X96900000Y-92710000D03*
X131445000Y-92710000D03*
X96900000Y-96520000D03*
X131445000Y-111760000D03*
X96900000Y-107950000D03*
X131445000Y-88900000D03*
X96900000Y-85090000D03*
X131445000Y-107950000D03*
X131445000Y-100330000D03*
%TD*%
D34*
%TO.N,GND*%
X111075000Y-144780000D02*
X111075000Y-143560000D01*
X74530000Y-158630000D02*
X73615000Y-159545000D01*
X80120000Y-156795000D02*
X80070000Y-156845000D01*
X149730000Y-67945000D02*
X151765000Y-67945000D01*
X74530000Y-158475000D02*
X74530000Y-158630000D01*
X111075000Y-143560000D02*
X113665000Y-140970000D01*
X149860000Y-118745000D02*
X151765000Y-118745000D01*
X149860000Y-131445000D02*
X151765000Y-131445000D01*
X149730000Y-93345000D02*
X151765000Y-93345000D01*
X149730000Y-106045000D02*
X151765000Y-106045000D01*
X74530000Y-151820000D02*
X73615000Y-150905000D01*
X74530000Y-151975000D02*
X74530000Y-151820000D01*
X80120000Y-154305000D02*
X80120000Y-156795000D01*
X73615000Y-150970000D02*
X73615000Y-151125000D01*
X149730000Y-80645000D02*
X151765000Y-80645000D01*
%TO.N,+5V*%
X89607220Y-152775000D02*
X90018610Y-153186390D01*
X144780000Y-78105000D02*
X144780000Y-75565000D01*
D35*
X116487220Y-155877780D02*
X92710000Y-155877780D01*
D34*
X127000000Y-158115000D02*
X134620000Y-150495000D01*
X144780000Y-90805000D02*
X144780000Y-88265000D01*
X90018610Y-153186390D02*
X92710000Y-155877780D01*
X144780000Y-116205000D02*
X144780000Y-113665000D01*
X144910000Y-141475000D02*
X144780000Y-141605000D01*
D35*
X144145000Y-143510000D02*
X144780000Y-143510000D01*
X121285000Y-151080000D02*
X120307500Y-152057500D01*
D34*
X144780000Y-103505000D02*
X144780000Y-100965000D01*
X144910000Y-126365000D02*
X144910000Y-128775000D01*
X144910000Y-139065000D02*
X144910000Y-141475000D01*
D35*
X130215000Y-150495000D02*
X134620000Y-150495000D01*
X134620000Y-150495000D02*
X137160000Y-150495000D01*
X121285000Y-139385000D02*
X121285000Y-151080000D01*
X127040000Y-147320000D02*
X125045000Y-147320000D01*
X124460000Y-147905000D02*
X120307500Y-152057500D01*
X127040000Y-147320000D02*
X130215000Y-150495000D01*
D34*
X90472780Y-158115000D02*
X92710000Y-155877780D01*
X76005000Y-158115000D02*
X77470000Y-158115000D01*
X80645000Y-152775000D02*
X89607220Y-152775000D01*
D35*
X120307500Y-152057500D02*
X116487220Y-155877780D01*
X125045000Y-147320000D02*
X124460000Y-147905000D01*
D34*
X144910000Y-143380000D02*
X144780000Y-143510000D01*
X74530000Y-157675000D02*
X75565000Y-157675000D01*
D35*
X137160000Y-150495000D02*
X144145000Y-143510000D01*
D34*
X144780000Y-141605000D02*
X144780000Y-143510000D01*
X74530000Y-152775000D02*
X81340000Y-152775000D01*
X75565000Y-157675000D02*
X76005000Y-158115000D01*
X89672220Y-152840000D02*
X90018610Y-153186390D01*
X77470000Y-158115000D02*
X90472780Y-158115000D01*
D36*
%TO.N,ACC{slash}*%
X146685000Y-135890000D02*
X154305000Y-135890000D01*
X144910000Y-135255000D02*
X146050000Y-135255000D01*
X154305000Y-135890000D02*
X157480000Y-132715000D01*
X157480000Y-132715000D02*
X161290000Y-132715000D01*
X146050000Y-135255000D02*
X146685000Y-135890000D01*
%TO.N,RW{slash}*%
X147955000Y-100330000D02*
X151130000Y-100330000D01*
X147320000Y-99695000D02*
X147955000Y-100330000D01*
X160655000Y-109855000D02*
X161290000Y-109855000D01*
X144780000Y-99695000D02*
X147320000Y-99695000D01*
X151130000Y-100330000D02*
X160655000Y-109855000D01*
%TO.N,D1*%
X144780000Y-71755000D02*
X146050000Y-71755000D01*
X146685000Y-72390000D02*
X159385000Y-72390000D01*
X146050000Y-71755000D02*
X146685000Y-72390000D01*
X160020000Y-73025000D02*
X160020000Y-91440000D01*
X160020000Y-91440000D02*
X161290000Y-92710000D01*
X159385000Y-72390000D02*
X160020000Y-73025000D01*
%TO.N,A1*%
X163195000Y-126365000D02*
X163830000Y-125730000D01*
X149730000Y-126365000D02*
X163195000Y-126365000D01*
%TO.N,VP{slash}*%
X149860000Y-136525000D02*
X154940000Y-136525000D01*
X157386000Y-134079000D02*
X162466000Y-134079000D01*
X162466000Y-134079000D02*
X163830000Y-132715000D01*
X154940000Y-136525000D02*
X157386000Y-134079000D01*
%TO.N,SYNC*%
X149860000Y-139065000D02*
X154846000Y-139065000D01*
X162654000Y-136431000D02*
X163830000Y-135255000D01*
X157480000Y-136431000D02*
X162654000Y-136431000D01*
X154846000Y-139065000D02*
X157480000Y-136431000D01*
%TO.N,ROM_PGM{slash}*%
X144780000Y-107315000D02*
X146041000Y-107315000D01*
X146685000Y-107959000D02*
X156219000Y-107959000D01*
X156219000Y-107959000D02*
X160655000Y-112395000D01*
X160655000Y-112395000D02*
X161290000Y-112395000D01*
X146041000Y-107315000D02*
X146685000Y-107959000D01*
%TO.N,D5*%
X144780000Y-86995000D02*
X145415000Y-87630000D01*
X154305000Y-87630000D02*
X154940000Y-88265000D01*
X160020000Y-102235000D02*
X161290000Y-102235000D01*
X145415000Y-87630000D02*
X154305000Y-87630000D01*
X154940000Y-97155000D02*
X160020000Y-102235000D01*
X154940000Y-88265000D02*
X154940000Y-97155000D01*
%TO.N,A11*%
X155575000Y-86360000D02*
X155575000Y-96522810D01*
X160017190Y-100965000D02*
X163195000Y-100965000D01*
X149730000Y-85725000D02*
X154940000Y-85725000D01*
X154940000Y-85725000D02*
X155575000Y-86360000D01*
X155575000Y-96522810D02*
X160017190Y-100965000D01*
X163195000Y-100965000D02*
X163830000Y-100330000D01*
%TO.N,A4*%
X163195000Y-118745000D02*
X163830000Y-118110000D01*
X149730000Y-113665000D02*
X155575000Y-113665000D01*
X155575000Y-113665000D02*
X160655000Y-118745000D01*
X160655000Y-118745000D02*
X163195000Y-118745000D01*
%TO.N,A13*%
X160017190Y-95885000D02*
X158115000Y-93982810D01*
X158115000Y-93982810D02*
X158115000Y-81915000D01*
X158115000Y-81915000D02*
X151765000Y-75565000D01*
X163830000Y-95250000D02*
X163195000Y-95885000D01*
X163195000Y-95885000D02*
X160017190Y-95885000D01*
X151765000Y-75565000D02*
X149730000Y-75565000D01*
%TO.N,A15*%
X163186000Y-69841000D02*
X163830000Y-70485000D01*
X146059000Y-69215000D02*
X146685000Y-69841000D01*
X144780000Y-69215000D02*
X146059000Y-69215000D01*
X146685000Y-69841000D02*
X163186000Y-69841000D01*
X163830000Y-70485000D02*
X163830000Y-90170000D01*
%TO.N,D7*%
X147320000Y-97155000D02*
X147955000Y-97790000D01*
X149869000Y-97799000D02*
X150756322Y-97799000D01*
X147955000Y-97790000D02*
X149860000Y-97790000D01*
X160232810Y-107315000D02*
X161290000Y-107315000D01*
X151031000Y-98073678D02*
X151031000Y-98113191D01*
X144780000Y-97155000D02*
X147320000Y-97155000D01*
X151031000Y-98113191D02*
X160232810Y-107315000D01*
X150756322Y-97799000D02*
X151031000Y-98073678D01*
X149860000Y-97790000D02*
X149869000Y-97799000D01*
%TO.N,A8*%
X150365000Y-99060000D02*
X151130000Y-99060000D01*
X160655000Y-108585000D02*
X163195000Y-108585000D01*
X163195000Y-108585000D02*
X163830000Y-107950000D01*
X149730000Y-98425000D02*
X150365000Y-99060000D01*
X151130000Y-99060000D02*
X160655000Y-108585000D01*
%TO.N,RES{slash}*%
X137996870Y-116205000D02*
X143720870Y-121929000D01*
X75525000Y-115225000D02*
X79375000Y-115225000D01*
X79375000Y-115225000D02*
X91095000Y-115225000D01*
X130300339Y-115570000D02*
X130935339Y-116205000D01*
X130935339Y-116205000D02*
X137996870Y-116205000D01*
X93035000Y-116840000D02*
X96520000Y-116840000D01*
X152400000Y-122555000D02*
X161290000Y-122555000D01*
X96520000Y-116840000D02*
X97790000Y-115570000D01*
X91095000Y-115225000D02*
X92710000Y-116840000D01*
X97790000Y-115570000D02*
X130300339Y-115570000D01*
X143720870Y-121929000D02*
X151774000Y-121929000D01*
X75525000Y-115225000D02*
X69025000Y-115225000D01*
X151774000Y-121929000D02*
X152400000Y-122555000D01*
X79425000Y-115175000D02*
X79375000Y-115225000D01*
%TO.N,IRQ{slash}*%
X156201000Y-113021000D02*
X160655000Y-117475000D01*
X146059000Y-112395000D02*
X146685000Y-113021000D01*
X144780000Y-112395000D02*
X146059000Y-112395000D01*
X160655000Y-117475000D02*
X161290000Y-117475000D01*
X146685000Y-113021000D02*
X156201000Y-113021000D01*
%TO.N,A10*%
X153670000Y-88265000D02*
X154305000Y-88900000D01*
X149730000Y-88265000D02*
X153670000Y-88265000D01*
X163195000Y-103505000D02*
X163830000Y-102870000D01*
X154305000Y-88900000D02*
X154305000Y-97792810D01*
X160017190Y-103505000D02*
X163195000Y-103505000D01*
X154305000Y-97792810D02*
X160017190Y-103505000D01*
%TO.N,ROM{slash}*%
X146685000Y-133350000D02*
X154305000Y-133350000D01*
X160020000Y-127635000D02*
X161290000Y-127635000D01*
X144910000Y-132715000D02*
X146050000Y-132715000D01*
X154305000Y-133350000D02*
X160020000Y-127635000D01*
X146050000Y-132715000D02*
X146685000Y-133350000D01*
%TO.N,D6*%
X153703960Y-98458960D02*
X153703960Y-97823960D01*
X161290000Y-104775000D02*
X160020000Y-104775000D01*
X153703960Y-97823960D02*
X151130000Y-95250000D01*
X151130000Y-95250000D02*
X147955000Y-95250000D01*
X160020000Y-104775000D02*
X153703960Y-98458960D01*
X147320000Y-94615000D02*
X144780000Y-94615000D01*
X147955000Y-95250000D02*
X147320000Y-94615000D01*
%TO.N,D3*%
X144780000Y-81915000D02*
X146050000Y-81915000D01*
X160020000Y-97155000D02*
X161290000Y-97155000D01*
X146685000Y-82550000D02*
X156210000Y-82550000D01*
X157480000Y-94615000D02*
X160020000Y-97155000D01*
X156210000Y-82550000D02*
X157480000Y-83820000D01*
X157480000Y-83820000D02*
X157480000Y-94615000D01*
X146050000Y-81915000D02*
X146685000Y-82550000D01*
%TO.N,BE*%
X156210000Y-110490000D02*
X160655000Y-114935000D01*
X146050000Y-109855000D02*
X146685000Y-110490000D01*
X160655000Y-114935000D02*
X161290000Y-114935000D01*
X144780000Y-109855000D02*
X146050000Y-109855000D01*
X146685000Y-110490000D02*
X156210000Y-110490000D01*
%TO.N,CLK*%
X146685000Y-138430000D02*
X154305000Y-138430000D01*
X146050000Y-137795000D02*
X146685000Y-138430000D01*
X157480000Y-135255000D02*
X161290000Y-135255000D01*
X144910000Y-137795000D02*
X146050000Y-137795000D01*
X154305000Y-138430000D02*
X157480000Y-135255000D01*
%TO.N,A0*%
X154940000Y-133985000D02*
X149860000Y-133985000D01*
X160020000Y-128905000D02*
X154940000Y-133985000D01*
X163195000Y-128905000D02*
X160020000Y-128905000D01*
X163830000Y-128270000D02*
X163195000Y-128905000D01*
%TO.N,A12*%
X158748595Y-97156405D02*
X160017190Y-98425000D01*
X155575000Y-83185000D02*
X156845000Y-84455000D01*
X156845000Y-95252810D02*
X158748595Y-97156405D01*
X149730000Y-83185000D02*
X155575000Y-83185000D01*
X163195000Y-98425000D02*
X163830000Y-97790000D01*
X160017190Y-98425000D02*
X163195000Y-98425000D01*
X156845000Y-84455000D02*
X156845000Y-95252810D01*
%TO.N,NMI{slash}*%
X146685000Y-120015000D02*
X147311000Y-120641000D01*
X151382322Y-120015000D02*
X161290000Y-120015000D01*
X147311000Y-120641000D02*
X150756322Y-120641000D01*
X144780000Y-120015000D02*
X146685000Y-120015000D01*
X150756322Y-120641000D02*
X151382322Y-120015000D01*
%TO.N,A14*%
X149730000Y-73025000D02*
X158748595Y-73025000D01*
X160655000Y-93345000D02*
X163195000Y-93345000D01*
X163195000Y-93345000D02*
X163830000Y-92710000D01*
X159385000Y-73661405D02*
X159385000Y-92075000D01*
X158748595Y-73025000D02*
X159385000Y-73661405D01*
X159385000Y-92075000D02*
X160655000Y-93345000D01*
%TO.N,A6*%
X155607554Y-108585000D02*
X160687554Y-113665000D01*
X160687554Y-113665000D02*
X163195000Y-113665000D01*
X149730000Y-108585000D02*
X155607554Y-108585000D01*
X163195000Y-113665000D02*
X163830000Y-113030000D01*
%TO.N,A5*%
X163195000Y-116205000D02*
X163830000Y-115570000D01*
X149730000Y-111125000D02*
X155575000Y-111125000D01*
X155575000Y-111125000D02*
X160655000Y-116205000D01*
X160655000Y-116205000D02*
X163195000Y-116205000D01*
%TO.N,D4*%
X160020000Y-99695000D02*
X161290000Y-99695000D01*
X146685000Y-85090000D02*
X155575000Y-85090000D01*
X155575000Y-85090000D02*
X156210000Y-85725000D01*
X144780000Y-84455000D02*
X146050000Y-84455000D01*
X156210000Y-85725000D02*
X156210000Y-95885000D01*
X146050000Y-84455000D02*
X146685000Y-85090000D01*
X156210000Y-95885000D02*
X160020000Y-99695000D01*
%TO.N,A7*%
X163195000Y-111125000D02*
X163830000Y-110490000D01*
X160655000Y-111125000D02*
X163195000Y-111125000D01*
X149730000Y-100965000D02*
X150495000Y-100965000D01*
X150495000Y-100965000D02*
X160655000Y-111125000D01*
%TO.N,A2*%
X163830000Y-123190000D02*
X163195000Y-123825000D01*
X163195000Y-123825000D02*
X149730000Y-123825000D01*
%TO.N,D2*%
X150756322Y-73669000D02*
X158750000Y-81662678D01*
X146685000Y-73669000D02*
X150756322Y-73669000D01*
X158750000Y-81662678D02*
X158750000Y-93345000D01*
X144780000Y-74295000D02*
X146059000Y-74295000D01*
X146059000Y-74295000D02*
X146685000Y-73669000D01*
X160020000Y-94615000D02*
X161290000Y-94615000D01*
X158750000Y-93345000D02*
X160020000Y-94615000D01*
%TO.N,RAM{slash}*%
X144780000Y-125095000D02*
X146685000Y-125095000D01*
X147311000Y-125721000D02*
X151139000Y-125721000D01*
X146685000Y-125095000D02*
X147311000Y-125721000D01*
X151139000Y-125721000D02*
X151765000Y-125095000D01*
X151765000Y-125095000D02*
X161290000Y-125095000D01*
%TO.N,A9*%
X150704999Y-95885000D02*
X149730000Y-95885000D01*
X152822500Y-98002501D02*
X150704999Y-95885000D01*
X163195000Y-106045000D02*
X160085109Y-106045000D01*
X152822500Y-98782391D02*
X152822500Y-98002501D01*
X160085109Y-106045000D02*
X152822500Y-98782391D01*
X163830000Y-105410000D02*
X163195000Y-106045000D01*
%TO.N,D0*%
X161290000Y-71120000D02*
X161290000Y-90170000D01*
X149730000Y-70485000D02*
X160655000Y-70485000D01*
X160655000Y-70485000D02*
X161290000Y-71120000D01*
%TO.N,SW_BUS_LED*%
X146685000Y-122555000D02*
X144780000Y-122555000D01*
X136840000Y-139385000D02*
X140335000Y-135890000D01*
X124460000Y-150445000D02*
X124460000Y-152985000D01*
X126365000Y-139385000D02*
X136840000Y-139385000D01*
D34*
%TO.N,SW_BUS_LEDb*%
X108535000Y-147320000D02*
X108535000Y-144780000D01*
X108535000Y-141020000D02*
X108585000Y-140970000D01*
X108535000Y-144780000D02*
X108535000Y-141020000D01*
%TO.N,Net-(Q2-D)*%
X85345000Y-120650000D02*
X85345000Y-121665000D01*
X85345000Y-124395000D02*
X85345000Y-125475000D01*
X119635000Y-74930000D02*
X119635000Y-75945000D01*
X85345000Y-71120000D02*
X85345000Y-72135000D01*
X119635000Y-106425000D02*
X119380000Y-106680000D01*
X119635000Y-120650000D02*
X119635000Y-121665000D01*
X85345000Y-68325000D02*
X85090000Y-68580000D01*
X85345000Y-128270000D02*
X85345000Y-129285000D01*
X119635000Y-114045000D02*
X119380000Y-114300000D01*
X119635000Y-75945000D02*
X119380000Y-76200000D01*
X85345000Y-78740000D02*
X85345000Y-79755000D01*
X119635000Y-128270000D02*
X119635000Y-129285000D01*
X119635000Y-116840000D02*
X119635000Y-117855000D01*
X85345000Y-83565000D02*
X85090000Y-83820000D01*
X85345000Y-98805000D02*
X85090000Y-99060000D01*
X85345000Y-82550000D02*
X85345000Y-83565000D01*
X119635000Y-71120000D02*
X119635000Y-72135000D01*
X85345000Y-79755000D02*
X85090000Y-80010000D01*
X119635000Y-121665000D02*
X119380000Y-121920000D01*
X85345000Y-94995000D02*
X85090000Y-95250000D01*
X85345000Y-121665000D02*
X85090000Y-121920000D01*
X119635000Y-90170000D02*
X119635000Y-91185000D01*
X85345000Y-113030000D02*
X85345000Y-114045000D01*
X119825000Y-101600000D02*
X119825000Y-102425000D01*
X85345000Y-109220000D02*
X85345000Y-110235000D01*
X119635000Y-78740000D02*
X119635000Y-79755000D01*
X85345000Y-74930000D02*
X85345000Y-75945000D01*
X119635000Y-133095000D02*
X119380000Y-133350000D01*
X119825000Y-102425000D02*
X119380000Y-102870000D01*
X119635000Y-87375000D02*
X119380000Y-87630000D01*
X85345000Y-105410000D02*
X85345000Y-106425000D01*
X119635000Y-93980000D02*
X119635000Y-94995000D01*
X85345000Y-129285000D02*
X85090000Y-129540000D01*
X85345000Y-125475000D02*
X85090000Y-125730000D01*
X119635000Y-129285000D02*
X119380000Y-129540000D01*
X119635000Y-97790000D02*
X119635000Y-98805000D01*
X119635000Y-83565000D02*
X119380000Y-83820000D01*
X119635000Y-86425000D02*
X119635000Y-87375000D01*
X119635000Y-79755000D02*
X119380000Y-80010000D01*
X119635000Y-113030000D02*
X119635000Y-114045000D01*
X119635000Y-117855000D02*
X119380000Y-118110000D01*
D35*
X111125000Y-139700000D02*
X111125000Y-140970000D01*
D34*
X119635000Y-94995000D02*
X119380000Y-95250000D01*
X85345000Y-114045000D02*
X85090000Y-114300000D01*
X119635000Y-132080000D02*
X119635000Y-133095000D01*
X119635000Y-68325000D02*
X119380000Y-68580000D01*
X85345000Y-97790000D02*
X85345000Y-98805000D01*
X119635000Y-105410000D02*
X119635000Y-106425000D01*
X119635000Y-91185000D02*
X119380000Y-91440000D01*
X86615000Y-133350000D02*
X86995000Y-133350000D01*
X85345000Y-110235000D02*
X85090000Y-110490000D01*
X85345000Y-72135000D02*
X85090000Y-72390000D01*
X119635000Y-82550000D02*
X119635000Y-83565000D01*
X119635000Y-98805000D02*
X119380000Y-99060000D01*
X85345000Y-117855000D02*
X85090000Y-118110000D01*
X119635000Y-67310000D02*
X119635000Y-68325000D01*
X85345000Y-93980000D02*
X85345000Y-94995000D01*
X85345000Y-90170000D02*
X85345000Y-91185000D01*
X119635000Y-124460000D02*
X119635000Y-125475000D01*
X85090000Y-102870000D02*
X85345000Y-102615000D01*
X119635000Y-109155000D02*
X119635000Y-110235000D01*
X85345000Y-87375000D02*
X85090000Y-87630000D01*
X119635000Y-125475000D02*
X119380000Y-125730000D01*
X85345000Y-91185000D02*
X85090000Y-91440000D01*
X85345000Y-67310000D02*
X85345000Y-68325000D01*
X85345000Y-86360000D02*
X85345000Y-87375000D01*
X119635000Y-72135000D02*
X119380000Y-72390000D01*
X85345000Y-132080000D02*
X86615000Y-133350000D01*
X119635000Y-110235000D02*
X119380000Y-110490000D01*
X85345000Y-102615000D02*
X85345000Y-101600000D01*
X85345000Y-75945000D02*
X85090000Y-76200000D01*
X85345000Y-116840000D02*
X85345000Y-117855000D01*
X85345000Y-106425000D02*
X85090000Y-106680000D01*
D36*
%TO.N,Net-(D2-A)*%
X134620000Y-153035000D02*
X137160000Y-153035000D01*
X140335000Y-149860000D02*
X140335000Y-152775000D01*
X137160000Y-153035000D02*
X140075000Y-153035000D01*
X140075000Y-153035000D02*
X140335000Y-152775000D01*
%TO.N,Net-(U1-Q)*%
X127000000Y-155575000D02*
X126365000Y-155575000D01*
X124460000Y-155525000D02*
X126950000Y-155525000D01*
X126950000Y-155525000D02*
X127000000Y-155575000D01*
X126365000Y-155575000D02*
X126315000Y-155525000D01*
%TO.N,Net-(U1-THR)*%
X151120000Y-152360000D02*
X147865000Y-155615000D01*
X134620000Y-155575000D02*
X137755000Y-155575000D01*
D34*
X137755000Y-155575000D02*
X137795000Y-155615000D01*
D36*
X147865000Y-155615000D02*
X137795000Y-155615000D01*
D34*
%TO.N,Net-(U1-CV)*%
X134620000Y-161210000D02*
X134540000Y-161290000D01*
D36*
X134620000Y-158115000D02*
X134620000Y-161210000D01*
%TO.N,Net-(R32-Pad1)*%
X111075000Y-147320000D02*
X120600000Y-137795000D01*
X137160000Y-137795000D02*
X139065000Y-135890000D01*
X120600000Y-137795000D02*
X121920000Y-137795000D01*
X146685000Y-121285000D02*
X144780000Y-121285000D01*
X121920000Y-137795000D02*
X137160000Y-137795000D01*
%TO.N,Net-(J2-CC2)*%
X77400000Y-156975000D02*
X77530000Y-156845000D01*
X74530000Y-156975000D02*
X77400000Y-156975000D01*
%TO.N,Net-(J2-CC1)*%
X75955000Y-153975000D02*
X76285000Y-154305000D01*
X76285000Y-154305000D02*
X77580000Y-154305000D01*
X74530000Y-153975000D02*
X75955000Y-153975000D01*
%TO.N,Net-(D2-K)*%
X151120000Y-149860000D02*
X147955000Y-149860000D01*
%TO.N,Net-(D1-Green_A)*%
X127325000Y-122050000D02*
X129220000Y-122050000D01*
X129220000Y-122050000D02*
X129350000Y-121920000D01*
%TO.N,Net-(D1-Green_K)*%
X143130190Y-124083000D02*
X143323190Y-124276000D01*
X143519000Y-124469000D02*
X147329000Y-124469000D01*
X143326000Y-124276000D02*
X143519000Y-124469000D01*
X127325000Y-120650000D02*
X139694380Y-120650000D01*
X143323190Y-124276000D02*
X143326000Y-124276000D01*
X147329000Y-124469000D02*
X147955000Y-125095000D01*
X147955000Y-125095000D02*
X149730000Y-125095000D01*
X139694380Y-120650000D02*
X143127380Y-124083000D01*
X126823000Y-120650000D02*
X127325000Y-120650000D01*
X143127380Y-124083000D02*
X143130190Y-124083000D01*
X123825000Y-122050000D02*
X125423000Y-122050000D01*
X125423000Y-122050000D02*
X126823000Y-120650000D01*
%TO.N,Net-(D1-Red_K)*%
X123825000Y-120650000D02*
X121285000Y-120650000D01*
%TO.N,Net-(D5-Green_A)*%
X95120000Y-103000000D02*
X95250000Y-102870000D01*
X93035000Y-103000000D02*
X95120000Y-103000000D01*
%TO.N,Net-(D5-Green_K)*%
X138430000Y-100965000D02*
X143510000Y-106045000D01*
X91133000Y-103000000D02*
X92533000Y-101600000D01*
X97790000Y-100330000D02*
X130175000Y-100330000D01*
X89535000Y-103000000D02*
X91133000Y-103000000D01*
X130810000Y-100965000D02*
X138430000Y-100965000D01*
X130175000Y-100330000D02*
X130810000Y-100965000D01*
X143510000Y-106045000D02*
X144780000Y-106045000D01*
X96520000Y-101600000D02*
X97790000Y-100330000D01*
X92533000Y-101600000D02*
X96520000Y-101600000D01*
%TO.N,Net-(D5-Red_K)*%
X89535000Y-101600000D02*
X86995000Y-101600000D01*
%TO.N,Net-(D9-Green_A)*%
X93035000Y-133480000D02*
X95120000Y-133480000D01*
X95120000Y-133480000D02*
X95250000Y-133350000D01*
%TO.N,Net-(D9-Red_K)*%
X89535000Y-132080000D02*
X86995000Y-132080000D01*
%TO.N,Net-(D9-Green_K)*%
X96520000Y-132080000D02*
X97790000Y-130810000D01*
X130810000Y-131445000D02*
X138325001Y-131445000D01*
X97790000Y-130810000D02*
X130175000Y-130810000D01*
X93035000Y-132080000D02*
X96520000Y-132080000D01*
X143405001Y-136525000D02*
X144910000Y-136525000D01*
X138325001Y-131445000D02*
X143405001Y-136525000D01*
X91133000Y-133480000D02*
X92533000Y-132080000D01*
X92533000Y-132080000D02*
X93035000Y-132080000D01*
X130175000Y-130810000D02*
X130810000Y-131445000D01*
X89535000Y-133480000D02*
X91133000Y-133480000D01*
%TO.N,Net-(D10-Green_A)*%
X127325000Y-99060000D02*
X129540000Y-99060000D01*
%TO.N,Net-(D10-Red_K)*%
X121415000Y-97660000D02*
X121285000Y-97790000D01*
X123825000Y-97660000D02*
X121415000Y-97660000D01*
%TO.N,Net-(D10-Green_K)*%
X126823000Y-97660000D02*
X127325000Y-97660000D01*
X149730000Y-99695000D02*
X148590000Y-99695000D01*
X148590000Y-99695000D02*
X147964000Y-99069000D01*
X147964000Y-99069000D02*
X143519000Y-99069000D01*
X142107190Y-97660000D02*
X127480000Y-97660000D01*
X123825000Y-99060000D02*
X125423000Y-99060000D01*
X125423000Y-99060000D02*
X126823000Y-97660000D01*
X143519000Y-99069000D02*
X143326000Y-98876000D01*
X143326000Y-98876000D02*
X143323190Y-98876000D01*
X143323190Y-98876000D02*
X142107190Y-97660000D01*
%TO.N,Net-(D11-Green_A)*%
X127325000Y-102870000D02*
X129350000Y-102870000D01*
%TO.N,Net-(D11-Red_K)*%
X121605000Y-101470000D02*
X121475000Y-101600000D01*
X123825000Y-101470000D02*
X121605000Y-101470000D01*
%TO.N,Net-(D11-Green_K)*%
X143326000Y-106496000D02*
X143323190Y-106496000D01*
X143323190Y-106496000D02*
X138297190Y-101470000D01*
X148429000Y-107315000D02*
X147803000Y-106689000D01*
X125423000Y-102870000D02*
X123825000Y-102870000D01*
X149730000Y-107315000D02*
X148429000Y-107315000D01*
X138297190Y-101470000D02*
X126823000Y-101470000D01*
X147803000Y-106689000D02*
X143519000Y-106689000D01*
X126823000Y-101470000D02*
X125423000Y-102870000D01*
X143519000Y-106689000D02*
X143326000Y-106496000D01*
%TO.N,Net-(D13-Green_K)*%
X131010412Y-81915000D02*
X142240000Y-81915000D01*
X89535000Y-83950000D02*
X91133000Y-83950000D01*
X96520000Y-82550000D02*
X97790000Y-81280000D01*
X97790000Y-81280000D02*
X130375412Y-81280000D01*
X142240000Y-81915000D02*
X143510000Y-83185000D01*
X93035000Y-82550000D02*
X96520000Y-82550000D01*
X91133000Y-83950000D02*
X92533000Y-82550000D01*
X130375412Y-81280000D02*
X131010412Y-81915000D01*
X92533000Y-82550000D02*
X93035000Y-82550000D01*
X143510000Y-83185000D02*
X144780000Y-83185000D01*
%TO.N,Net-(D13-Green_A)*%
X95120000Y-83950000D02*
X95250000Y-83820000D01*
X93035000Y-83950000D02*
X95120000Y-83950000D01*
%TO.N,Net-(D13-Red_K)*%
X89535000Y-82550000D02*
X86995000Y-82550000D01*
%TO.N,Net-(D14-Green_A)*%
X95250000Y-76200000D02*
X93165000Y-76200000D01*
X93165000Y-76200000D02*
X93035000Y-76330000D01*
%TO.N,Net-(D14-Green_K)*%
X96520000Y-74930000D02*
X97790000Y-73660000D01*
X130375412Y-73660000D02*
X130951413Y-74236000D01*
X91133000Y-76330000D02*
X92533000Y-74930000D01*
X92533000Y-74930000D02*
X93035000Y-74930000D01*
X142816000Y-73025000D02*
X144780000Y-73025000D01*
X89535000Y-76330000D02*
X91133000Y-76330000D01*
X93190000Y-74930000D02*
X96520000Y-74930000D01*
X90192000Y-76330000D02*
X89690000Y-76330000D01*
X97790000Y-73660000D02*
X130375412Y-73660000D01*
X130951413Y-74236000D02*
X141605000Y-74236000D01*
X141605000Y-74236000D02*
X142816000Y-73025000D01*
%TO.N,Net-(D14-Red_K)*%
X89535000Y-74930000D02*
X86995000Y-74930000D01*
%TO.N,Net-(D15-Red_K)*%
X121632000Y-82550000D02*
X121567000Y-82615000D01*
X123952000Y-82550000D02*
X121632000Y-82550000D01*
%TO.N,Net-(D15-Green_A)*%
X127452000Y-83950000D02*
X129537000Y-83950000D01*
X129537000Y-83950000D02*
X129667000Y-83820000D01*
%TO.N,Net-(D15-Green_K)*%
X123952000Y-83950000D02*
X125600000Y-83950000D01*
X127000000Y-82550000D02*
X127452000Y-82550000D01*
X149730000Y-84455000D02*
X147955000Y-84455000D01*
X147320000Y-83820000D02*
X143476190Y-83820000D01*
X142076190Y-82420000D02*
X127480000Y-82420000D01*
X143476190Y-83820000D02*
X142076190Y-82420000D01*
X125600000Y-83950000D02*
X127000000Y-82550000D01*
X147955000Y-84455000D02*
X147320000Y-83820000D01*
%TO.N,Net-(D16-Red_K)*%
X89535000Y-93980000D02*
X86995000Y-93980000D01*
%TO.N,Net-(D16-Green_K)*%
X130810000Y-93345000D02*
X140970000Y-93345000D01*
X92533000Y-93980000D02*
X96520000Y-93980000D01*
X97790000Y-92710000D02*
X130175000Y-92710000D01*
X130175000Y-92710000D02*
X130810000Y-93345000D01*
X96520000Y-93980000D02*
X97790000Y-92710000D01*
X89535000Y-95380000D02*
X91133000Y-95380000D01*
X140970000Y-93345000D02*
X143510000Y-95885000D01*
X143510000Y-95885000D02*
X144780000Y-95885000D01*
X91133000Y-95380000D02*
X92533000Y-93980000D01*
%TO.N,Net-(D16-Green_A)*%
X93035000Y-95380000D02*
X95120000Y-95380000D01*
X95120000Y-95380000D02*
X95250000Y-95250000D01*
%TO.N,Net-(D17-Green_K)*%
X89535000Y-87695000D02*
X91183000Y-87695000D01*
X92583000Y-86295000D02*
X93035000Y-86295000D01*
X93035000Y-86360000D02*
X96520000Y-86360000D01*
X96520000Y-86360000D02*
X97790000Y-85090000D01*
X97790000Y-85090000D02*
X130175000Y-85090000D01*
X130175000Y-85090000D02*
X130810000Y-85725000D01*
X130810000Y-85725000D02*
X144780000Y-85725000D01*
X91183000Y-87695000D02*
X92583000Y-86295000D01*
%TO.N,Net-(D17-Green_A)*%
X95185000Y-87695000D02*
X95250000Y-87630000D01*
X93035000Y-87695000D02*
X95185000Y-87695000D01*
%TO.N,Net-(D17-Red_K)*%
X87060000Y-86295000D02*
X86995000Y-86360000D01*
X89535000Y-86295000D02*
X87060000Y-86295000D01*
%TO.N,Net-(D18-Red_K)*%
X89535000Y-90170000D02*
X86995000Y-90170000D01*
%TO.N,Net-(D18-Green_K)*%
X97790000Y-88900000D02*
X130175000Y-88900000D01*
X130801000Y-89526000D02*
X139691000Y-89526000D01*
X89535000Y-91570000D02*
X91133000Y-91570000D01*
X143510000Y-93345000D02*
X144780000Y-93345000D01*
X130175000Y-88900000D02*
X130801000Y-89526000D01*
X139691000Y-89526000D02*
X143510000Y-93345000D01*
X91133000Y-91570000D02*
X92533000Y-90170000D01*
X96520000Y-90170000D02*
X97790000Y-88900000D01*
X92533000Y-90170000D02*
X96520000Y-90170000D01*
%TO.N,Net-(D18-Green_A)*%
X93035000Y-91570000D02*
X95120000Y-91570000D01*
X95120000Y-91570000D02*
X95250000Y-91440000D01*
%TO.N,Net-(D21-Green_K)*%
X126823000Y-112965000D02*
X127325000Y-112965000D01*
X143508595Y-119380000D02*
X147320000Y-119380000D01*
X125423000Y-114365000D02*
X126823000Y-112965000D01*
X147955000Y-120015000D02*
X149730000Y-120015000D01*
X123825000Y-114365000D02*
X125423000Y-114365000D01*
X147320000Y-119380000D02*
X147955000Y-120015000D01*
X137028595Y-112900000D02*
X143508595Y-119380000D01*
X127610000Y-112900000D02*
X137028595Y-112900000D01*
%TO.N,Net-(D21-Green_A)*%
X127325000Y-114365000D02*
X129285000Y-114365000D01*
X129285000Y-114365000D02*
X129350000Y-114300000D01*
%TO.N,Net-(D21-Red_K)*%
X123825000Y-112965000D02*
X121350000Y-112965000D01*
X121350000Y-112965000D02*
X121285000Y-113030000D01*
%TO.N,Net-(D22-Green_K)*%
X148590875Y-69215000D02*
X149730000Y-69215000D01*
X97790875Y-66039125D02*
X145415000Y-66039125D01*
X89535000Y-68645000D02*
X91133000Y-68645000D01*
X92533000Y-67245000D02*
X93035000Y-67245000D01*
X96585000Y-67245000D02*
X97790875Y-66039125D01*
X93190000Y-67245000D02*
X92775000Y-67245000D01*
X145415000Y-66039125D02*
X148590875Y-69215000D01*
X91133000Y-68645000D02*
X92533000Y-67245000D01*
X93190000Y-67245000D02*
X96585000Y-67245000D01*
%TO.N,Net-(D22-Red_K)*%
X87250000Y-67245000D02*
X87185000Y-67310000D01*
X89470000Y-67310000D02*
X89535000Y-67245000D01*
X89535000Y-67310000D02*
X86995000Y-67310000D01*
%TO.N,Net-(D22-Green_A)*%
X95250000Y-68580000D02*
X93165000Y-68580000D01*
X93165000Y-68580000D02*
X93035000Y-68710000D01*
%TO.N,Net-(D23-Green_A)*%
X129285000Y-118175000D02*
X129350000Y-118110000D01*
X127325000Y-118175000D02*
X129285000Y-118175000D01*
%TO.N,Net-(D23-Green_K)*%
X123825000Y-118175000D02*
X125423000Y-118175000D01*
X126823000Y-116775000D02*
X127325000Y-116775000D01*
X137095000Y-116775000D02*
X143501000Y-123181000D01*
X125423000Y-118175000D02*
X126823000Y-116775000D01*
X147955000Y-122555000D02*
X149730000Y-122555000D01*
X147329000Y-123181000D02*
X147955000Y-122555000D01*
X127325000Y-116775000D02*
X137095000Y-116775000D01*
X143501000Y-123181000D02*
X147329000Y-123181000D01*
%TO.N,Net-(D23-Red_K)*%
X121350000Y-116775000D02*
X121285000Y-116840000D01*
X123825000Y-116775000D02*
X121350000Y-116775000D01*
%TO.N,Net-(D24-Green_A)*%
X93035000Y-99190000D02*
X95120000Y-99190000D01*
X95120000Y-99190000D02*
X95250000Y-99060000D01*
%TO.N,Net-(D24-Green_K)*%
X130810000Y-97155000D02*
X142240000Y-97155000D01*
X130175000Y-96520000D02*
X130810000Y-97155000D01*
X143510000Y-98425000D02*
X144780000Y-98425000D01*
X91133000Y-99190000D02*
X92533000Y-97790000D01*
X96520000Y-97790000D02*
X97790000Y-96520000D01*
X97790000Y-96520000D02*
X130175000Y-96520000D01*
X142240000Y-97155000D02*
X143510000Y-98425000D01*
X89535000Y-99190000D02*
X91133000Y-99190000D01*
X92533000Y-97790000D02*
X96520000Y-97790000D01*
%TO.N,Net-(D24-Red_K)*%
X89535000Y-97790000D02*
X86995000Y-97790000D01*
%TO.N,Net-(D25-Green_K)*%
X147955000Y-86995000D02*
X147311000Y-86351000D01*
X147311000Y-86351000D02*
X127601000Y-86351000D01*
X149730000Y-86995000D02*
X147955000Y-86995000D01*
X126873000Y-86360000D02*
X127325000Y-86360000D01*
X123825000Y-87760000D02*
X125473000Y-87760000D01*
X125473000Y-87760000D02*
X126873000Y-86360000D01*
%TO.N,Net-(D25-Green_A)*%
X127325000Y-87760000D02*
X129540000Y-87760000D01*
%TO.N,Net-(D25-Red_K)*%
X121350000Y-86360000D02*
X121285000Y-86425000D01*
X123825000Y-86360000D02*
X121350000Y-86360000D01*
%TO.N,Net-(D26-Green_A)*%
X127325000Y-91440000D02*
X129540000Y-91440000D01*
%TO.N,Net-(D26-Green_K)*%
X125423000Y-91440000D02*
X123825000Y-91440000D01*
X147803000Y-93989000D02*
X143514500Y-93989000D01*
X126823000Y-90040000D02*
X125423000Y-91440000D01*
X143514500Y-93989000D02*
X139565500Y-90040000D01*
X149730000Y-94615000D02*
X148429000Y-94615000D01*
X148429000Y-94615000D02*
X147803000Y-93989000D01*
X139565500Y-90040000D02*
X126823000Y-90040000D01*
%TO.N,Net-(D26-Red_K)*%
X121415000Y-90040000D02*
X121285000Y-90170000D01*
X123825000Y-90040000D02*
X121415000Y-90040000D01*
%TO.N,Net-(D27-Green_A)*%
X127455000Y-125730000D02*
X129540000Y-125730000D01*
X129540000Y-125730000D02*
X129670000Y-125600000D01*
%TO.N,Net-(D27-Green_K)*%
X135816000Y-124395000D02*
X143510000Y-132089000D01*
X127325000Y-124395000D02*
X135816000Y-124395000D01*
X123955000Y-125730000D02*
X125553000Y-125730000D01*
X125553000Y-125730000D02*
X126953000Y-124330000D01*
X147955000Y-132715000D02*
X149860000Y-132715000D01*
X126953000Y-124330000D02*
X127455000Y-124330000D01*
X147329000Y-132089000D02*
X147955000Y-132715000D01*
X143510000Y-132089000D02*
X147329000Y-132089000D01*
%TO.N,Net-(D27-Red_K)*%
X123955000Y-124330000D02*
X121415000Y-124330000D01*
%TO.N,Net-(D28-Green_A)*%
X127325000Y-95250000D02*
X129540000Y-95250000D01*
%TO.N,Net-(D28-Red_K)*%
X121415000Y-93850000D02*
X121285000Y-93980000D01*
X123825000Y-93850000D02*
X121415000Y-93850000D01*
%TO.N,Net-(D28-Green_K)*%
X125095000Y-95250000D02*
X126495000Y-93850000D01*
X126495000Y-93850000D02*
X127325000Y-93850000D01*
X143383846Y-96336000D02*
X143323190Y-96336000D01*
X143576846Y-96529000D02*
X143383846Y-96336000D01*
X149730000Y-97155000D02*
X148590000Y-97155000D01*
X148590000Y-97155000D02*
X147964000Y-96529000D01*
X123825000Y-95250000D02*
X125095000Y-95250000D01*
X147964000Y-96529000D02*
X143576846Y-96529000D01*
X143323190Y-96336000D02*
X140837190Y-93850000D01*
X140837190Y-93850000D02*
X127480000Y-93850000D01*
%TO.N,Net-(D29-Green_K)*%
X143510000Y-109229000D02*
X147329000Y-109229000D01*
X123825000Y-106745000D02*
X125423000Y-106745000D01*
X147329000Y-109229000D02*
X147955000Y-109855000D01*
X126823000Y-105345000D02*
X127325000Y-105345000D01*
X139626000Y-105345000D02*
X143510000Y-109229000D01*
X147955000Y-109855000D02*
X149730000Y-109855000D01*
X127325000Y-105345000D02*
X139626000Y-105345000D01*
X125423000Y-106745000D02*
X126823000Y-105345000D01*
%TO.N,Net-(D29-Green_A)*%
X127325000Y-106745000D02*
X129220000Y-106745000D01*
X129220000Y-106745000D02*
X129350000Y-106615000D01*
%TO.N,Net-(D29-Red_K)*%
X123825000Y-105345000D02*
X121350000Y-105345000D01*
X121350000Y-105345000D02*
X121285000Y-105410000D01*
%TO.N,Net-(D30-Green_A)*%
X129220000Y-110555000D02*
X129350000Y-110425000D01*
X127325000Y-110555000D02*
X129220000Y-110555000D01*
%TO.N,Net-(D30-Green_K)*%
X143323190Y-111576000D02*
X143326000Y-111576000D01*
X143326000Y-111576000D02*
X143519000Y-111769000D01*
X127325000Y-109155000D02*
X140902190Y-109155000D01*
X143519000Y-111769000D02*
X147329000Y-111769000D01*
X140902190Y-109155000D02*
X143323190Y-111576000D01*
X126823000Y-109155000D02*
X127325000Y-109155000D01*
X147329000Y-111769000D02*
X147955000Y-112395000D01*
X147955000Y-112395000D02*
X149730000Y-112395000D01*
X123825000Y-110555000D02*
X125423000Y-110555000D01*
X125423000Y-110555000D02*
X126823000Y-109155000D01*
%TO.N,Net-(D30-Red_K)*%
X123825000Y-109155000D02*
X121285000Y-109155000D01*
%TO.N,Net-(D73-Green_A)*%
X95120000Y-106810000D02*
X95250000Y-106680000D01*
X93035000Y-106810000D02*
X95120000Y-106810000D01*
%TO.N,Net-(D73-Green_K)*%
X130810000Y-104775000D02*
X139700000Y-104775000D01*
X139700000Y-104775000D02*
X143510000Y-108585000D01*
X97790000Y-104140000D02*
X130175000Y-104140000D01*
X90883000Y-106810000D02*
X92283000Y-105410000D01*
X130175000Y-104140000D02*
X130810000Y-104775000D01*
X92283000Y-105410000D02*
X96520000Y-105410000D01*
X89535000Y-106810000D02*
X90883000Y-106810000D01*
X96520000Y-105410000D02*
X97790000Y-104140000D01*
X143510000Y-108585000D02*
X144780000Y-108585000D01*
%TO.N,Net-(D31-Red_K)*%
X89535000Y-78740000D02*
X86995000Y-78740000D01*
%TO.N,Net-(D31-Green_A)*%
X93165000Y-80010000D02*
X93035000Y-80140000D01*
X95250000Y-80010000D02*
X93165000Y-80010000D01*
%TO.N,Net-(D32-Red_K)*%
X86995000Y-71120000D02*
X89535000Y-71120000D01*
%TO.N,Net-(D31-Green_K)*%
X97790000Y-77470000D02*
X96650000Y-78610000D01*
X92583000Y-78740000D02*
X93035000Y-78740000D01*
X144780000Y-80645000D02*
X143512810Y-80645000D01*
X89535000Y-80140000D02*
X91183000Y-80140000D01*
X131010412Y-78105000D02*
X130375412Y-77470000D01*
X96650000Y-78610000D02*
X92930000Y-78610000D01*
X130375412Y-77470000D02*
X97790000Y-77470000D01*
X140972810Y-78105000D02*
X131010412Y-78105000D01*
X143512810Y-80645000D02*
X140972810Y-78105000D01*
X91183000Y-80140000D02*
X92583000Y-78740000D01*
%TO.N,Net-(D32-Green_A)*%
X95250000Y-72390000D02*
X93165000Y-72390000D01*
X93165000Y-72390000D02*
X93035000Y-72520000D01*
%TO.N,Net-(D32-Green_K)*%
X97790000Y-69850000D02*
X130375412Y-69850000D01*
X131010412Y-70485000D02*
X144780000Y-70485000D01*
X93190000Y-71055000D02*
X92775000Y-71055000D01*
X96585000Y-71055000D02*
X97790000Y-69850000D01*
X93190000Y-71055000D02*
X96585000Y-71055000D01*
X89535000Y-72455000D02*
X90883000Y-72455000D01*
X130375412Y-69850000D02*
X131010412Y-70485000D01*
X92283000Y-71055000D02*
X93035000Y-71055000D01*
X90883000Y-72455000D02*
X92283000Y-71055000D01*
%TO.N,Net-(D33-Red_K)*%
X121350000Y-74865000D02*
X121285000Y-74930000D01*
X123825000Y-74865000D02*
X121350000Y-74865000D01*
%TO.N,Net-(D33-Green_A)*%
X127325000Y-76265000D02*
X129475000Y-76265000D01*
X129475000Y-76265000D02*
X129540000Y-76200000D01*
%TO.N,Net-(D33-Green_K)*%
X147946000Y-74295000D02*
X147320000Y-74921000D01*
X125423000Y-76265000D02*
X126823000Y-74865000D01*
X147320000Y-74921000D02*
X127601000Y-74921000D01*
X149730000Y-74295000D02*
X147946000Y-74295000D01*
X126823000Y-74865000D02*
X127325000Y-74865000D01*
X123825000Y-76265000D02*
X125423000Y-76265000D01*
%TO.N,Net-(D34-Red_K)*%
X123760000Y-67310000D02*
X123825000Y-67245000D01*
X121285000Y-67310000D02*
X123760000Y-67310000D01*
%TO.N,Net-(D34-Green_A)*%
X127325000Y-68645000D02*
X129475000Y-68645000D01*
X129475000Y-68645000D02*
X129540000Y-68580000D01*
%TO.N,Net-(D35-Red_K)*%
X123825000Y-71055000D02*
X121350000Y-71055000D01*
X121350000Y-71055000D02*
X121285000Y-71120000D01*
%TO.N,Net-(D34-Green_K)*%
X127480000Y-67245000D02*
X142810000Y-67245000D01*
X125423000Y-68645000D02*
X126823000Y-67245000D01*
X126823000Y-67245000D02*
X127325000Y-67245000D01*
X124482000Y-68645000D02*
X123980000Y-68645000D01*
X123825000Y-68645000D02*
X125423000Y-68645000D01*
X142810000Y-67245000D02*
X143510000Y-67945000D01*
X143510000Y-67945000D02*
X144780000Y-67945000D01*
%TO.N,Net-(D35-Green_K)*%
X123825000Y-72455000D02*
X125423000Y-72455000D01*
X127480000Y-71055000D02*
X127545000Y-71120000D01*
X147955000Y-71755000D02*
X149730000Y-71755000D01*
X127545000Y-71120000D02*
X147320000Y-71120000D01*
X147320000Y-71120000D02*
X147955000Y-71755000D01*
X126823000Y-71055000D02*
X127325000Y-71055000D01*
X124482000Y-72455000D02*
X123980000Y-72455000D01*
X125423000Y-72455000D02*
X126823000Y-71055000D01*
%TO.N,Net-(D35-Green_A)*%
X127325000Y-72455000D02*
X129475000Y-72455000D01*
X129475000Y-72455000D02*
X129540000Y-72390000D01*
%TO.N,Net-(D36-Red_K)*%
X121415000Y-78610000D02*
X121285000Y-78740000D01*
X123825000Y-78610000D02*
X121415000Y-78610000D01*
%TO.N,Net-(D36-Green_A)*%
X127325000Y-80010000D02*
X129540000Y-80010000D01*
%TO.N,Net-(D36-Green_K)*%
X126823000Y-78610000D02*
X127325000Y-78610000D01*
X140840000Y-78610000D02*
X143501000Y-81271000D01*
X147785000Y-81271000D02*
X148429000Y-81915000D01*
X124482000Y-80010000D02*
X123980000Y-80010000D01*
X127480000Y-78610000D02*
X140840000Y-78610000D01*
X143501000Y-81271000D02*
X147785000Y-81271000D01*
X125423000Y-80010000D02*
X126823000Y-78610000D01*
X123825000Y-80010000D02*
X125423000Y-80010000D01*
X149730000Y-81915000D02*
X148429000Y-81915000D01*
%TO.N,Net-(D73-Red_K)*%
X87060000Y-105345000D02*
X86995000Y-105410000D01*
X89535000Y-105345000D02*
X87060000Y-105345000D01*
D34*
%TO.N,Net-(Q1-D)*%
X131000000Y-107505000D02*
X131445000Y-107950000D01*
X131000000Y-121920000D02*
X131000000Y-122690000D01*
X131190000Y-83820000D02*
X131190000Y-84835000D01*
X96900000Y-91440000D02*
X96900000Y-92710000D01*
X131190000Y-88645000D02*
X131445000Y-88900000D01*
X131190000Y-100075000D02*
X131445000Y-100330000D01*
X131000000Y-126555000D02*
X131445000Y-127000000D01*
X131190000Y-73356000D02*
X131445000Y-73611000D01*
X96900000Y-72390000D02*
X96900000Y-73660000D01*
X131190000Y-72390000D02*
X131190000Y-73356000D01*
X131190000Y-68580000D02*
X131190000Y-69605000D01*
X131190000Y-81025000D02*
X131445000Y-81280000D01*
X131190000Y-99060000D02*
X131190000Y-100075000D01*
X131000000Y-102870000D02*
X131000000Y-103695000D01*
X131000000Y-114300000D02*
X131000000Y-115008661D01*
X131190000Y-76200000D02*
X131190000Y-77215000D01*
X131190000Y-95250000D02*
X131190000Y-96265000D01*
X96900000Y-99060000D02*
X96900000Y-100330000D01*
X96900000Y-76200000D02*
X96900000Y-77470000D01*
X96900000Y-80010000D02*
X96900000Y-81280000D01*
X131190000Y-84835000D02*
X131445000Y-85090000D01*
X131190000Y-92455000D02*
X131445000Y-92710000D01*
X96900000Y-68580000D02*
X96900000Y-69850000D01*
X131000000Y-118110000D02*
X131000000Y-118935000D01*
X96900000Y-102870000D02*
X96900000Y-104140000D01*
X131000000Y-125730000D02*
X131000000Y-126555000D01*
X131000000Y-110425000D02*
X131000000Y-111315000D01*
X96900000Y-87630000D02*
X96900000Y-88900000D01*
X131000000Y-122690000D02*
X131445000Y-123135000D01*
X131190000Y-69605000D02*
X131445000Y-69860000D01*
X96900000Y-83820000D02*
X96900000Y-85090000D01*
X131000000Y-103695000D02*
X131445000Y-104140000D01*
X96900000Y-133350000D02*
X96900000Y-134620000D01*
X96900000Y-95250000D02*
X96900000Y-96520000D01*
X131190000Y-87760000D02*
X131190000Y-88645000D01*
X131190000Y-91440000D02*
X131190000Y-92455000D01*
X131190000Y-80010000D02*
X131190000Y-81025000D01*
X131000000Y-115008661D02*
X131445000Y-115453661D01*
D35*
X113665000Y-136525000D02*
X120015000Y-136525000D01*
D34*
X96900000Y-106680000D02*
X96900000Y-107950000D01*
X131000000Y-118935000D02*
X131445000Y-119380000D01*
X131190000Y-96265000D02*
X131445000Y-96520000D01*
X131190000Y-77215000D02*
X131445000Y-77470000D01*
X131000000Y-111315000D02*
X131445000Y-111760000D01*
X131000000Y-106615000D02*
X131000000Y-107505000D01*
D36*
%TO.N,A3*%
X149730000Y-121285000D02*
X163195000Y-121285000D01*
X163195000Y-121285000D02*
X163830000Y-120650000D01*
%TO.N,Net-(D4-A)*%
X130810000Y-120015000D02*
X139697190Y-120015000D01*
X139697190Y-120015000D02*
X143314190Y-123632000D01*
X143510000Y-123825000D02*
X144780000Y-123825000D01*
X143314190Y-123632000D02*
X143317000Y-123632000D01*
X96520000Y-120650000D02*
X97790000Y-119380000D01*
X97790000Y-119380000D02*
X130175000Y-119380000D01*
X130175000Y-119380000D02*
X130810000Y-120015000D01*
X92533000Y-120650000D02*
X93035000Y-120650000D01*
X93035000Y-120650000D02*
X96520000Y-120650000D01*
X143317000Y-123632000D02*
X143510000Y-123825000D01*
%TO.N,Net-(D4-K)*%
X89910000Y-120650000D02*
X86995000Y-120650000D01*
%TO.N,Net-(D6-A)*%
X135825000Y-123760000D02*
X143510000Y-131445000D01*
X97790000Y-123190000D02*
X130305000Y-123190000D01*
X130305000Y-123190000D02*
X130875000Y-123760000D01*
X143510000Y-131445000D02*
X144910000Y-131445000D01*
X93035000Y-124395000D02*
X96585000Y-124395000D01*
X96585000Y-124395000D02*
X97790000Y-123190000D01*
X130875000Y-123760000D02*
X135825000Y-123760000D01*
%TO.N,Net-(D6-K)*%
X89910000Y-124460000D02*
X86995000Y-124460000D01*
%TO.N,Net-(D7-K)*%
X89910000Y-128270000D02*
X86995000Y-128270000D01*
%TO.N,Net-(D7-A)*%
X93035000Y-128205000D02*
X96585000Y-128205000D01*
X143510000Y-133985000D02*
X144910000Y-133985000D01*
X130175000Y-127000000D02*
X130810000Y-127635000D01*
X137160000Y-127635000D02*
X143510000Y-133985000D01*
X130810000Y-127635000D02*
X137160000Y-127635000D01*
X96585000Y-128205000D02*
X97790000Y-127000000D01*
X97790000Y-127000000D02*
X130175000Y-127000000D01*
%TO.N,Net-(D8-A)*%
X138322190Y-132080000D02*
X127325000Y-132080000D01*
X147329000Y-137169000D02*
X143411190Y-137169000D01*
X147955000Y-137795000D02*
X147329000Y-137169000D01*
X149860000Y-137795000D02*
X147955000Y-137795000D01*
X126823000Y-132080000D02*
X127325000Y-132080000D01*
X143411190Y-137169000D02*
X138322190Y-132080000D01*
%TO.N,Net-(D8-K)*%
X124200000Y-132080000D02*
X121285000Y-132080000D01*
%TO.N,Net-(D12-K)*%
X124200000Y-128270000D02*
X121285000Y-128270000D01*
%TO.N,Net-(D12-A)*%
X126823000Y-128205000D02*
X127325000Y-128205000D01*
X127325000Y-128205000D02*
X137093595Y-128205000D01*
X147329000Y-134629000D02*
X147955000Y-135255000D01*
X137093595Y-128205000D02*
X143517595Y-134629000D01*
X147955000Y-135255000D02*
X149860000Y-135255000D01*
X143517595Y-134629000D02*
X147329000Y-134629000D01*
%TO.N,Net-(D19-K)*%
X89910000Y-109220000D02*
X86995000Y-109220000D01*
%TO.N,Net-(D19-A)*%
X97790000Y-107950000D02*
X130175000Y-107950000D01*
X143510000Y-111125000D02*
X144780000Y-111125000D01*
X140970000Y-108585000D02*
X143510000Y-111125000D01*
X130810000Y-108585000D02*
X140970000Y-108585000D01*
X93035000Y-109155000D02*
X96585000Y-109155000D01*
X130175000Y-107950000D02*
X130810000Y-108585000D01*
X96585000Y-109155000D02*
X97790000Y-107950000D01*
%TO.N,Net-(D20-A)*%
X137214000Y-112449000D02*
X143510000Y-118745000D01*
X97790000Y-111760000D02*
X130175000Y-111760000D01*
X93035000Y-112965000D02*
X96455000Y-112965000D01*
X130810000Y-112395000D02*
X133985000Y-112395000D01*
X143510000Y-118745000D02*
X144780000Y-118745000D01*
X96520000Y-113030000D02*
X97790000Y-111760000D01*
X133985000Y-112395000D02*
X134039000Y-112449000D01*
X96455000Y-112965000D02*
X96520000Y-113030000D01*
X134039000Y-112449000D02*
X137214000Y-112449000D01*
X130175000Y-111760000D02*
X130810000Y-112395000D01*
%TO.N,Net-(D20-K)*%
X89910000Y-113030000D02*
X86995000Y-113030000D01*
%TO.N,Net-(D37-K)*%
X89910000Y-116840000D02*
X86995000Y-116840000D01*
%TD*%
%TA.AperFunction,Conductor*%
%TO.N,GND*%
G36*
X76203039Y-149244685D02*
G01*
X76248794Y-149297489D01*
X76260000Y-149349000D01*
X76260000Y-152200500D01*
X76240315Y-152267539D01*
X76187511Y-152313294D01*
X76136000Y-152324500D01*
X75879000Y-152324500D01*
X75811961Y-152304815D01*
X75766206Y-152252011D01*
X75761811Y-152231811D01*
X75755000Y-152225000D01*
X74780000Y-152225000D01*
X74766819Y-152238181D01*
X74705496Y-152271666D01*
X74679138Y-152274500D01*
X74380862Y-152274500D01*
X74313823Y-152254815D01*
X74293181Y-152238181D01*
X74280000Y-152225000D01*
X73746476Y-152225000D01*
X73679437Y-152205315D01*
X73633682Y-152152511D01*
X73626703Y-152133100D01*
X73621281Y-152112865D01*
X73545515Y-151981635D01*
X73500561Y-151936681D01*
X73467076Y-151875358D01*
X73472060Y-151805666D01*
X73513932Y-151749733D01*
X73579396Y-151725316D01*
X73588242Y-151725000D01*
X75755000Y-151725000D01*
X75755000Y-151627172D01*
X75754999Y-151627155D01*
X75748598Y-151567627D01*
X75748596Y-151567620D01*
X75698354Y-151432913D01*
X75698350Y-151432906D01*
X75612190Y-151317812D01*
X75612187Y-151317809D01*
X75497093Y-151231649D01*
X75497086Y-151231645D01*
X75362379Y-151181403D01*
X75362372Y-151181401D01*
X75302844Y-151175000D01*
X75209924Y-151175000D01*
X75142885Y-151155315D01*
X75142531Y-151155000D01*
X74331988Y-151155000D01*
X74349205Y-151145060D01*
X74405060Y-151089205D01*
X74444556Y-151020796D01*
X74465000Y-150944496D01*
X74465000Y-150865504D01*
X74444556Y-150789204D01*
X74405060Y-150720795D01*
X74349205Y-150664940D01*
X74331988Y-150655000D01*
X75134862Y-150655000D01*
X75126569Y-150613309D01*
X75126569Y-150613307D01*
X75051192Y-150431328D01*
X75051185Y-150431315D01*
X74941751Y-150267537D01*
X74941748Y-150267533D01*
X74802466Y-150128251D01*
X74802462Y-150128248D01*
X74638684Y-150018814D01*
X74638671Y-150018807D01*
X74456693Y-149943430D01*
X74456681Y-149943427D01*
X74263495Y-149905000D01*
X73865000Y-149905000D01*
X73865000Y-150605000D01*
X73365000Y-150605000D01*
X73365000Y-149905000D01*
X72966504Y-149905000D01*
X72773318Y-149943427D01*
X72773306Y-149943430D01*
X72591328Y-150018807D01*
X72591315Y-150018814D01*
X72427537Y-150128248D01*
X72427533Y-150128251D01*
X72288251Y-150267533D01*
X72288248Y-150267537D01*
X72178814Y-150431315D01*
X72178807Y-150431328D01*
X72103430Y-150613307D01*
X72103430Y-150613309D01*
X72095138Y-150655000D01*
X72898012Y-150655000D01*
X72880795Y-150664940D01*
X72824940Y-150720795D01*
X72785444Y-150789204D01*
X72765000Y-150865504D01*
X72765000Y-150944496D01*
X72785444Y-151020796D01*
X72824940Y-151089205D01*
X72880795Y-151145060D01*
X72898012Y-151155000D01*
X72095138Y-151155000D01*
X72103430Y-151196690D01*
X72103430Y-151196692D01*
X72178807Y-151378671D01*
X72178814Y-151378684D01*
X72288248Y-151542462D01*
X72288251Y-151542466D01*
X72427533Y-151681748D01*
X72427537Y-151681751D01*
X72596387Y-151794574D01*
X72595430Y-151796005D01*
X72639425Y-151839211D01*
X72654895Y-151907346D01*
X72631072Y-151973029D01*
X72629309Y-151975094D01*
X72629432Y-151975189D01*
X72624485Y-151981635D01*
X72548719Y-152112863D01*
X72523947Y-152205315D01*
X72509500Y-152259234D01*
X72509500Y-152410766D01*
X72529109Y-152483950D01*
X72548719Y-152557136D01*
X72574110Y-152601114D01*
X72624485Y-152688365D01*
X72731635Y-152795515D01*
X72862865Y-152871281D01*
X73009234Y-152910500D01*
X73009236Y-152910500D01*
X73160764Y-152910500D01*
X73160766Y-152910500D01*
X73307135Y-152871281D01*
X73418501Y-152806983D01*
X73486399Y-152790511D01*
X73552426Y-152813363D01*
X73595617Y-152868284D01*
X73604500Y-152914371D01*
X73604500Y-153094752D01*
X73618515Y-153165209D01*
X73617239Y-153165462D01*
X73623317Y-153222023D01*
X73616303Y-153245910D01*
X73604500Y-153305247D01*
X73604500Y-153644747D01*
X73615651Y-153700810D01*
X73615651Y-153749190D01*
X73604500Y-153805252D01*
X73604500Y-154144747D01*
X73615651Y-154200810D01*
X73615651Y-154249190D01*
X73604500Y-154305252D01*
X73604500Y-154644748D01*
X73604952Y-154647021D01*
X73615651Y-154700810D01*
X73615651Y-154749190D01*
X73604500Y-154805252D01*
X73604500Y-155144748D01*
X73608011Y-155162399D01*
X73615651Y-155200810D01*
X73615651Y-155249190D01*
X73604500Y-155305252D01*
X73604500Y-155644748D01*
X73608011Y-155662399D01*
X73615651Y-155700810D01*
X73615651Y-155749190D01*
X73604500Y-155805252D01*
X73604500Y-156144748D01*
X73608011Y-156162399D01*
X73615651Y-156200810D01*
X73615651Y-156249190D01*
X73604500Y-156305252D01*
X73604500Y-156644747D01*
X73615651Y-156700810D01*
X73615651Y-156749190D01*
X73604500Y-156805252D01*
X73604500Y-157144752D01*
X73618515Y-157215209D01*
X73617239Y-157215462D01*
X73623317Y-157272023D01*
X73616303Y-157295910D01*
X73604500Y-157355247D01*
X73604500Y-157535628D01*
X73584815Y-157602667D01*
X73532011Y-157648422D01*
X73462853Y-157658366D01*
X73418500Y-157643015D01*
X73307138Y-157578720D01*
X73307135Y-157578719D01*
X73160766Y-157539500D01*
X73009234Y-157539500D01*
X72862863Y-157578719D01*
X72731635Y-157654485D01*
X72731632Y-157654487D01*
X72624487Y-157761632D01*
X72624485Y-157761635D01*
X72548719Y-157892863D01*
X72509500Y-158039234D01*
X72509500Y-158190765D01*
X72548719Y-158337136D01*
X72548720Y-158337137D01*
X72624485Y-158468365D01*
X72624487Y-158468367D01*
X72629432Y-158474811D01*
X72626612Y-158476974D01*
X72652302Y-158524020D01*
X72647318Y-158593712D01*
X72605446Y-158649645D01*
X72596379Y-158655416D01*
X72596387Y-158655427D01*
X72427536Y-158768248D01*
X72288251Y-158907533D01*
X72288248Y-158907537D01*
X72178814Y-159071315D01*
X72178807Y-159071328D01*
X72103430Y-159253307D01*
X72103430Y-159253309D01*
X72095138Y-159295000D01*
X72898012Y-159295000D01*
X72880795Y-159304940D01*
X72824940Y-159360795D01*
X72785444Y-159429204D01*
X72765000Y-159505504D01*
X72765000Y-159584496D01*
X72785444Y-159660796D01*
X72824940Y-159729205D01*
X72880795Y-159785060D01*
X72898012Y-159795000D01*
X72095138Y-159795000D01*
X72103430Y-159836690D01*
X72103430Y-159836692D01*
X72178807Y-160018671D01*
X72178814Y-160018684D01*
X72288248Y-160182462D01*
X72288251Y-160182466D01*
X72427533Y-160321748D01*
X72427537Y-160321751D01*
X72591315Y-160431185D01*
X72591328Y-160431192D01*
X72773306Y-160506569D01*
X72773318Y-160506572D01*
X72966504Y-160544999D01*
X72966508Y-160545000D01*
X73365000Y-160545000D01*
X73365000Y-159845000D01*
X73865000Y-159845000D01*
X73865000Y-160545000D01*
X74263492Y-160545000D01*
X74263495Y-160544999D01*
X74456681Y-160506572D01*
X74456693Y-160506569D01*
X74638671Y-160431192D01*
X74638684Y-160431185D01*
X74802462Y-160321751D01*
X74802466Y-160321748D01*
X74941748Y-160182466D01*
X74941751Y-160182462D01*
X75051185Y-160018684D01*
X75051192Y-160018671D01*
X75126569Y-159836692D01*
X75126569Y-159836690D01*
X75134862Y-159795000D01*
X74331988Y-159795000D01*
X74349205Y-159785060D01*
X74405060Y-159729205D01*
X74444556Y-159660796D01*
X74465000Y-159584496D01*
X74465000Y-159505504D01*
X74444556Y-159429204D01*
X74405060Y-159360795D01*
X74349205Y-159304940D01*
X74280796Y-159265444D01*
X74280000Y-159265230D01*
X74280000Y-158725000D01*
X73588242Y-158725000D01*
X73521203Y-158705315D01*
X73475448Y-158652511D01*
X73465504Y-158583353D01*
X73494529Y-158519797D01*
X73500561Y-158513319D01*
X73519195Y-158494685D01*
X73545515Y-158468365D01*
X73621281Y-158337135D01*
X73626701Y-158316903D01*
X73663067Y-158257245D01*
X73725914Y-158226717D01*
X73746476Y-158225000D01*
X74406000Y-158225000D01*
X74473039Y-158244685D01*
X74518794Y-158297489D01*
X74530000Y-158349000D01*
X74530000Y-158475000D01*
X74656000Y-158475000D01*
X74723039Y-158494685D01*
X74768794Y-158547489D01*
X74780000Y-158599000D01*
X74780000Y-159295000D01*
X75151265Y-159295000D01*
X75171818Y-159281000D01*
X75209924Y-159275000D01*
X75302828Y-159275000D01*
X75302844Y-159274999D01*
X75362372Y-159268598D01*
X75362379Y-159268596D01*
X75497086Y-159218354D01*
X75497093Y-159218350D01*
X75612187Y-159132190D01*
X75612190Y-159132187D01*
X75698350Y-159017093D01*
X75698354Y-159017086D01*
X75748596Y-158882379D01*
X75748598Y-158882372D01*
X75754999Y-158822844D01*
X75755000Y-158822827D01*
X75755000Y-158676004D01*
X75774685Y-158608965D01*
X75827489Y-158563210D01*
X75896647Y-158553266D01*
X75911083Y-158556226D01*
X75945691Y-158565500D01*
X75945694Y-158565500D01*
X76136000Y-158565500D01*
X76203039Y-158585185D01*
X76248794Y-158637989D01*
X76260000Y-158689500D01*
X76260000Y-161166000D01*
X76240315Y-161233039D01*
X76187511Y-161278794D01*
X76136000Y-161290000D01*
X66859000Y-161290000D01*
X66791961Y-161270315D01*
X66746206Y-161217511D01*
X66735000Y-161166000D01*
X66735000Y-159295000D01*
X68165138Y-159295000D01*
X68968012Y-159295000D01*
X68950795Y-159304940D01*
X68894940Y-159360795D01*
X68855444Y-159429204D01*
X68835000Y-159505504D01*
X68835000Y-159584496D01*
X68855444Y-159660796D01*
X68894940Y-159729205D01*
X68950795Y-159785060D01*
X68968012Y-159795000D01*
X68165138Y-159795000D01*
X68173430Y-159836690D01*
X68173430Y-159836692D01*
X68248807Y-160018671D01*
X68248814Y-160018684D01*
X68358248Y-160182462D01*
X68358251Y-160182466D01*
X68497533Y-160321748D01*
X68497537Y-160321751D01*
X68661315Y-160431185D01*
X68661328Y-160431192D01*
X68843306Y-160506569D01*
X68843318Y-160506572D01*
X69036504Y-160544999D01*
X69036508Y-160545000D01*
X69185000Y-160545000D01*
X69185000Y-159845000D01*
X69685000Y-159845000D01*
X69685000Y-160545000D01*
X69833492Y-160545000D01*
X69833495Y-160544999D01*
X70026681Y-160506572D01*
X70026693Y-160506569D01*
X70208671Y-160431192D01*
X70208684Y-160431185D01*
X70372462Y-160321751D01*
X70372466Y-160321748D01*
X70511748Y-160182466D01*
X70511751Y-160182462D01*
X70621185Y-160018684D01*
X70621192Y-160018671D01*
X70696569Y-159836692D01*
X70696569Y-159836690D01*
X70704862Y-159795000D01*
X69901988Y-159795000D01*
X69919205Y-159785060D01*
X69975060Y-159729205D01*
X70014556Y-159660796D01*
X70035000Y-159584496D01*
X70035000Y-159505504D01*
X70014556Y-159429204D01*
X69975060Y-159360795D01*
X69919205Y-159304940D01*
X69901988Y-159295000D01*
X70704862Y-159295000D01*
X70696569Y-159253309D01*
X70696569Y-159253307D01*
X70621192Y-159071328D01*
X70621185Y-159071315D01*
X70511751Y-158907537D01*
X70511748Y-158907533D01*
X70372466Y-158768251D01*
X70372462Y-158768248D01*
X70208684Y-158658814D01*
X70208671Y-158658807D01*
X70026693Y-158583430D01*
X70026681Y-158583427D01*
X69833495Y-158545000D01*
X69685000Y-158545000D01*
X69685000Y-159245000D01*
X69185000Y-159245000D01*
X69185000Y-158545000D01*
X69036504Y-158545000D01*
X68843318Y-158583427D01*
X68843306Y-158583430D01*
X68661328Y-158658807D01*
X68661315Y-158658814D01*
X68497537Y-158768248D01*
X68497533Y-158768251D01*
X68358251Y-158907533D01*
X68358248Y-158907537D01*
X68248814Y-159071315D01*
X68248807Y-159071328D01*
X68173430Y-159253307D01*
X68173430Y-159253309D01*
X68165138Y-159295000D01*
X66735000Y-159295000D01*
X66735000Y-150655000D01*
X68165138Y-150655000D01*
X68968012Y-150655000D01*
X68950795Y-150664940D01*
X68894940Y-150720795D01*
X68855444Y-150789204D01*
X68835000Y-150865504D01*
X68835000Y-150944496D01*
X68855444Y-151020796D01*
X68894940Y-151089205D01*
X68950795Y-151145060D01*
X68968012Y-151155000D01*
X68165138Y-151155000D01*
X68173430Y-151196690D01*
X68173430Y-151196692D01*
X68248807Y-151378671D01*
X68248814Y-151378684D01*
X68358248Y-151542462D01*
X68358251Y-151542466D01*
X68497533Y-151681748D01*
X68497537Y-151681751D01*
X68661315Y-151791185D01*
X68661328Y-151791192D01*
X68843306Y-151866569D01*
X68843318Y-151866572D01*
X69036504Y-151904999D01*
X69036508Y-151905000D01*
X69185000Y-151905000D01*
X69185000Y-151205000D01*
X69685000Y-151205000D01*
X69685000Y-151905000D01*
X69833492Y-151905000D01*
X69833495Y-151904999D01*
X70026681Y-151866572D01*
X70026693Y-151866569D01*
X70208671Y-151791192D01*
X70208684Y-151791185D01*
X70372462Y-151681751D01*
X70372466Y-151681748D01*
X70511748Y-151542466D01*
X70511751Y-151542462D01*
X70621185Y-151378684D01*
X70621192Y-151378671D01*
X70696569Y-151196692D01*
X70696569Y-151196690D01*
X70704862Y-151155000D01*
X69901988Y-151155000D01*
X69919205Y-151145060D01*
X69975060Y-151089205D01*
X70014556Y-151020796D01*
X70035000Y-150944496D01*
X70035000Y-150865504D01*
X70014556Y-150789204D01*
X69975060Y-150720795D01*
X69919205Y-150664940D01*
X69901988Y-150655000D01*
X70704862Y-150655000D01*
X70696569Y-150613309D01*
X70696569Y-150613307D01*
X70621192Y-150431328D01*
X70621185Y-150431315D01*
X70511751Y-150267537D01*
X70511748Y-150267533D01*
X70372466Y-150128251D01*
X70372462Y-150128248D01*
X70208684Y-150018814D01*
X70208671Y-150018807D01*
X70026693Y-149943430D01*
X70026681Y-149943427D01*
X69833495Y-149905000D01*
X69685000Y-149905000D01*
X69685000Y-150605000D01*
X69185000Y-150605000D01*
X69185000Y-149905000D01*
X69036504Y-149905000D01*
X68843318Y-149943427D01*
X68843306Y-149943430D01*
X68661328Y-150018807D01*
X68661315Y-150018814D01*
X68497537Y-150128248D01*
X68497533Y-150128251D01*
X68358251Y-150267533D01*
X68358248Y-150267537D01*
X68248814Y-150431315D01*
X68248807Y-150431328D01*
X68173430Y-150613307D01*
X68173430Y-150613309D01*
X68165138Y-150655000D01*
X66735000Y-150655000D01*
X66735000Y-149349000D01*
X66754685Y-149281961D01*
X66807489Y-149236206D01*
X66859000Y-149225000D01*
X76136000Y-149225000D01*
X76203039Y-149244685D01*
G37*
%TD.AperFunction*%
%TD*%
M02*
