M48
; DRILL file {KiCad 9.0.2+dfsg-1} date 2026-09-05T20:41:32+0200
; FORMAT={-:-/ absolute / metric / decimal}
; #@! TF.CreationDate,2026-09-05T20:41:32+02:00
; #@! TF.GenerationSoftware,Kicad,Pcbnew,9.0.2+dfsg-1
; #@! TF.FileFunction,Plated,1,2,PTH
FMAT,2
METRIC
; #@! TA.AperFunction,Plated,PTH,ViaDrill
T1C0.300
; #@! TA.AperFunction,Plated,PTH,ComponentDrill
T2C0.700
; #@! TA.AperFunction,Plated,PTH,ComponentDrill
T3C0.800
; #@! TA.AperFunction,Plated,PTH,ComponentDrill
T4C0.900
; #@! TA.AperFunction,Plated,PTH,ComponentDrill
T5C1.000
; #@! TA.AperFunction,Plated,PTH,ComponentDrill
T6C1.100
%
G90
G05
T1
X83.185Y-85.09
X98.425Y-79.375
X101.6Y-78.105
X109.22Y-79.375
X110.49Y-78.105
X111.125Y-68.58
X117.475Y-71.12
X120.015Y-79.375
X122.555Y-66.04
X133.35Y-88.265
X133.35Y-92.075
X133.35Y-95.885
X145.415Y-88.265
X145.415Y-92.075
X145.415Y-95.885
T2
X68.58Y-125.095
X71.12Y-125.095
X83.26Y-114.005
X83.26Y-116.545
X92.67Y-126.995
X92.67Y-129.535
X95.21Y-126.995
X95.21Y-129.535
X122.555Y-111.47
X125.095Y-111.47
T3
X66.04Y-121.92
X67.31Y-73.66
X67.31Y-81.28
X69.215Y-128.81
X69.215Y-130.81
X69.85Y-73.66
X69.85Y-81.28
X69.85Y-111.205
X69.85Y-116.205
X71.04Y-121.92
X72.39Y-73.66
X72.39Y-81.28
X73.66Y-122.555
X73.66Y-125.095
X73.66Y-127.635
X73.66Y-130.175
X73.66Y-133.35
X74.93Y-73.66
X74.93Y-81.28
X77.47Y-73.66
X77.47Y-81.28
X78.66Y-133.35
X80.01Y-73.66
X80.01Y-81.28
X81.28Y-122.555
X81.28Y-125.095
X81.28Y-127.635
X81.28Y-130.175
X82.55Y-73.66
X82.55Y-81.28
X86.365Y-76.24
X86.365Y-81.24
X89.255Y-132.195
X89.255Y-137.195
X92.67Y-132.075
X92.67Y-139.695
X93.21Y-144.775
X95.21Y-132.075
X95.21Y-139.695
X95.21Y-144.775
X95.25Y-86.995
X95.25Y-89.535
X95.25Y-92.075
X95.25Y-94.615
X95.25Y-97.155
X97.75Y-132.075
X97.75Y-139.695
X100.29Y-124.535
X100.29Y-129.535
X100.29Y-132.075
X100.29Y-139.695
X102.87Y-86.995
X102.87Y-89.535
X102.87Y-92.075
X102.87Y-94.615
X102.87Y-97.155
X105.41Y-141.645
X105.41Y-146.645
X106.045Y-86.995
X106.045Y-89.535
X106.045Y-92.075
X106.045Y-94.615
X106.045Y-97.155
X109.22Y-131.45
X109.22Y-133.99
X109.22Y-136.53
X109.22Y-139.07
X109.22Y-141.61
X109.22Y-144.15
X109.22Y-146.69
X109.855Y-110.49
X109.855Y-125.73
X113.665Y-86.995
X113.665Y-89.535
X113.665Y-92.075
X113.665Y-94.615
X113.665Y-97.155
X116.84Y-86.995
X116.84Y-89.535
X116.84Y-92.075
X116.84Y-94.615
X116.84Y-97.155
X116.84Y-131.45
X116.84Y-133.99
X116.84Y-136.53
X116.84Y-139.07
X116.84Y-141.61
X116.84Y-144.15
X116.84Y-146.69
X117.475Y-110.49
X117.475Y-125.73
X118.745Y-61.635
X118.745Y-66.635
X123.19Y-133.985
X123.19Y-138.985
X124.46Y-86.995
X124.46Y-89.535
X124.46Y-92.075
X124.46Y-94.615
X124.46Y-97.155
X126.365Y-133.985
X126.365Y-141.605
X128.905Y-133.985
X128.905Y-141.605
X131.445Y-133.985
X131.445Y-141.605
X133.985Y-133.985
X133.985Y-141.605
X136.525Y-133.985
X136.525Y-141.605
X138.43Y-111.47
X138.43Y-116.47
X139.065Y-133.985
X139.065Y-141.605
X141.605Y-133.985
X141.605Y-141.605
X144.145Y-133.985
X144.145Y-141.605
T4
X128.905Y-88.265
X128.905Y-92.075
X128.905Y-95.885
X131.445Y-88.265
X131.445Y-92.075
X131.445Y-95.885
T5
X89.535Y-151.22
X89.535Y-153.76
X92.075Y-151.22
X92.075Y-153.76
X92.75Y-121.28
X94.615Y-151.22
X94.615Y-153.76
X95.25Y-121.28
X97.155Y-151.22
X97.155Y-153.76
X97.75Y-121.28
X99.695Y-151.22
X99.695Y-153.76
X102.235Y-151.22
X102.235Y-153.76
X104.775Y-151.22
X104.775Y-153.76
X107.315Y-151.22
X107.315Y-153.76
X109.855Y-151.22
X109.855Y-153.76
X112.395Y-151.22
X112.395Y-153.76
X114.935Y-151.22
X114.935Y-153.76
X117.475Y-151.22
X117.475Y-153.76
X120.015Y-151.22
X120.015Y-153.76
X122.555Y-151.22
X122.555Y-153.76
X125.095Y-67.945
X125.095Y-70.485
X125.095Y-73.025
X125.095Y-75.565
X125.095Y-151.22
X125.095Y-153.76
X127.635Y-151.22
X127.635Y-153.76
X130.175Y-151.22
X130.175Y-153.76
X132.715Y-151.22
X132.715Y-153.76
X135.255Y-151.22
X135.255Y-153.76
X137.795Y-151.22
X137.795Y-153.76
T6
X73.66Y-111.705
X73.66Y-116.205
X80.16Y-111.705
X80.16Y-116.205
X128.12Y-111.415
X128.12Y-115.915
X134.62Y-111.415
X134.62Y-115.915
T6
X90.45Y-114.13G85X90.45Y-113.43
G05
X100.05Y-114.13G85X100.05Y-113.43
G05
M30
