%TF.GenerationSoftware,KiCad,Pcbnew,9.0.2+dfsg-1*%
%TF.CreationDate,2026-09-02T22:03:44+02:00*%
%TF.ProjectId,clock-card,636c6f63-6b2d-4636-9172-642e6b696361,rev?*%
%TF.SameCoordinates,Original*%
%TF.FileFunction,Drillmap*%
%TF.FilePolarity,Positive*%
%FSLAX45Y45*%
G04 Gerber Fmt 4.5, Leading zero omitted, Abs format (unit mm)*
G04 Created by KiCad (PCBNEW 9.0.2+dfsg-1) date 2026-09-02 22:03:44*
%MOMM*%
%LPD*%
G01*
G04 APERTURE LIST*
%ADD10C,0.050000*%
%ADD11C,0.200000*%
G04 APERTURE END LIST*
D10*
X6350000Y-15811500D02*
X16319500Y-15811500D01*
X6350000Y-5842000D02*
X6350000Y-15811500D01*
X6350000Y-5842000D02*
X16319500Y-5842000D01*
X16319500Y-15811500D02*
X16319500Y-5842000D01*
D11*
X6608277Y-16125484D02*
X6608277Y-15925484D01*
X6608277Y-15925484D02*
X6655896Y-15925484D01*
X6655896Y-15925484D02*
X6684467Y-15935008D01*
X6684467Y-15935008D02*
X6703515Y-15954055D01*
X6703515Y-15954055D02*
X6713039Y-15973103D01*
X6713039Y-15973103D02*
X6722562Y-16011198D01*
X6722562Y-16011198D02*
X6722562Y-16039769D01*
X6722562Y-16039769D02*
X6713039Y-16077865D01*
X6713039Y-16077865D02*
X6703515Y-16096912D01*
X6703515Y-16096912D02*
X6684467Y-16115960D01*
X6684467Y-16115960D02*
X6655896Y-16125484D01*
X6655896Y-16125484D02*
X6608277Y-16125484D01*
X6808277Y-16125484D02*
X6808277Y-15992150D01*
X6808277Y-16030246D02*
X6817801Y-16011198D01*
X6817801Y-16011198D02*
X6827324Y-16001674D01*
X6827324Y-16001674D02*
X6846372Y-15992150D01*
X6846372Y-15992150D02*
X6865420Y-15992150D01*
X6932086Y-16125484D02*
X6932086Y-15992150D01*
X6932086Y-15925484D02*
X6922562Y-15935008D01*
X6922562Y-15935008D02*
X6932086Y-15944531D01*
X6932086Y-15944531D02*
X6941610Y-15935008D01*
X6941610Y-15935008D02*
X6932086Y-15925484D01*
X6932086Y-15925484D02*
X6932086Y-15944531D01*
X7055896Y-16125484D02*
X7036848Y-16115960D01*
X7036848Y-16115960D02*
X7027324Y-16096912D01*
X7027324Y-16096912D02*
X7027324Y-15925484D01*
X7160658Y-16125484D02*
X7141610Y-16115960D01*
X7141610Y-16115960D02*
X7132086Y-16096912D01*
X7132086Y-16096912D02*
X7132086Y-15925484D01*
X7389229Y-16125484D02*
X7389229Y-15925484D01*
X7389229Y-15925484D02*
X7455896Y-16068341D01*
X7455896Y-16068341D02*
X7522562Y-15925484D01*
X7522562Y-15925484D02*
X7522562Y-16125484D01*
X7703515Y-16125484D02*
X7703515Y-16020722D01*
X7703515Y-16020722D02*
X7693991Y-16001674D01*
X7693991Y-16001674D02*
X7674943Y-15992150D01*
X7674943Y-15992150D02*
X7636848Y-15992150D01*
X7636848Y-15992150D02*
X7617801Y-16001674D01*
X7703515Y-16115960D02*
X7684467Y-16125484D01*
X7684467Y-16125484D02*
X7636848Y-16125484D01*
X7636848Y-16125484D02*
X7617801Y-16115960D01*
X7617801Y-16115960D02*
X7608277Y-16096912D01*
X7608277Y-16096912D02*
X7608277Y-16077865D01*
X7608277Y-16077865D02*
X7617801Y-16058817D01*
X7617801Y-16058817D02*
X7636848Y-16049293D01*
X7636848Y-16049293D02*
X7684467Y-16049293D01*
X7684467Y-16049293D02*
X7703515Y-16039769D01*
X7798753Y-15992150D02*
X7798753Y-16192150D01*
X7798753Y-16001674D02*
X7817801Y-15992150D01*
X7817801Y-15992150D02*
X7855896Y-15992150D01*
X7855896Y-15992150D02*
X7874943Y-16001674D01*
X7874943Y-16001674D02*
X7884467Y-16011198D01*
X7884467Y-16011198D02*
X7893991Y-16030246D01*
X7893991Y-16030246D02*
X7893991Y-16087388D01*
X7893991Y-16087388D02*
X7884467Y-16106436D01*
X7884467Y-16106436D02*
X7874943Y-16115960D01*
X7874943Y-16115960D02*
X7855896Y-16125484D01*
X7855896Y-16125484D02*
X7817801Y-16125484D01*
X7817801Y-16125484D02*
X7798753Y-16115960D01*
X7979705Y-16106436D02*
X7989229Y-16115960D01*
X7989229Y-16115960D02*
X7979705Y-16125484D01*
X7979705Y-16125484D02*
X7970182Y-16115960D01*
X7970182Y-16115960D02*
X7979705Y-16106436D01*
X7979705Y-16106436D02*
X7979705Y-16125484D01*
X7979705Y-16001674D02*
X7989229Y-16011198D01*
X7989229Y-16011198D02*
X7979705Y-16020722D01*
X7979705Y-16020722D02*
X7970182Y-16011198D01*
X7970182Y-16011198D02*
X7979705Y-16001674D01*
X7979705Y-16001674D02*
X7979705Y-16020722D01*
M02*
