%TF.GenerationSoftware,KiCad,Pcbnew,9.0.2+dfsg-1*%
%TF.CreationDate,2026-09-04T21:04:25+02:00*%
%TF.ProjectId,clock-card,636c6f63-6b2d-4636-9172-642e6b696361,rev?*%
%TF.SameCoordinates,Original*%
%TF.FileFunction,Drillmap*%
%TF.FilePolarity,Positive*%
%FSLAX45Y45*%
G04 Gerber Fmt 4.5, Leading zero omitted, Abs format (unit mm)*
G04 Created by KiCad (PCBNEW 9.0.2+dfsg-1) date 2026-09-04 21:04:25*
%MOMM*%
%LPD*%
G01*
G04 APERTURE LIST*
%ADD10C,0.050000*%
%ADD11C,0.200000*%
%ADD12C,0.100000*%
%ADD13C,0.110000*%
G04 APERTURE END LIST*
D10*
X6350000Y-15811500D02*
X16319500Y-15811500D01*
X6350000Y-5842000D02*
X6350000Y-15811500D01*
X6350000Y-5842000D02*
X16319500Y-5842000D01*
X16319500Y-15811500D02*
X16319500Y-5842000D01*
D11*
D12*
X8303500Y-8494000D02*
X8333500Y-8524000D01*
X8333500Y-8494000D02*
X8303500Y-8524000D01*
X9827500Y-7922500D02*
X9857500Y-7952500D01*
X9857500Y-7922500D02*
X9827500Y-7952500D01*
X10145000Y-7795500D02*
X10175000Y-7825500D01*
X10175000Y-7795500D02*
X10145000Y-7825500D01*
X10907000Y-7922500D02*
X10937000Y-7952500D01*
X10937000Y-7922500D02*
X10907000Y-7952500D01*
X11034000Y-7795500D02*
X11064000Y-7825500D01*
X11064000Y-7795500D02*
X11034000Y-7825500D01*
X11097500Y-6843000D02*
X11127500Y-6873000D01*
X11127500Y-6843000D02*
X11097500Y-6873000D01*
X11732500Y-7097000D02*
X11762500Y-7127000D01*
X11762500Y-7097000D02*
X11732500Y-7127000D01*
X11986500Y-7922500D02*
X12016500Y-7952500D01*
X12016500Y-7922500D02*
X11986500Y-7952500D01*
X12240500Y-6589000D02*
X12270500Y-6619000D01*
X12270500Y-6589000D02*
X12240500Y-6619000D01*
X13320000Y-8811500D02*
X13350000Y-8841500D01*
X13350000Y-8811500D02*
X13320000Y-8841500D01*
X13320000Y-9192500D02*
X13350000Y-9222500D01*
X13350000Y-9192500D02*
X13320000Y-9222500D01*
X13320000Y-9573500D02*
X13350000Y-9603500D01*
X13350000Y-9573500D02*
X13320000Y-9603500D01*
X14526500Y-8811500D02*
X14556500Y-8841500D01*
X14556500Y-8811500D02*
X14526500Y-8841500D01*
X14526500Y-9192500D02*
X14556500Y-9222500D01*
X14556500Y-9192500D02*
X14526500Y-9222500D01*
X14526500Y-9573500D02*
X14556500Y-9603500D01*
X14556500Y-9573500D02*
X14526500Y-9603500D01*
X6893000Y-12509500D02*
G75*
G02*
X6823000Y-12509500I-35000J0D01*
G01*
X6823000Y-12509500D02*
G75*
G02*
X6893000Y-12509500I35000J0D01*
G01*
X7147000Y-12509500D02*
G75*
G02*
X7077000Y-12509500I-35000J0D01*
G01*
X7077000Y-12509500D02*
G75*
G02*
X7147000Y-12509500I35000J0D01*
G01*
X8361000Y-11400500D02*
G75*
G02*
X8291000Y-11400500I-35000J0D01*
G01*
X8291000Y-11400500D02*
G75*
G02*
X8361000Y-11400500I35000J0D01*
G01*
X8361000Y-11654500D02*
G75*
G02*
X8291000Y-11654500I-35000J0D01*
G01*
X8291000Y-11654500D02*
G75*
G02*
X8361000Y-11654500I35000J0D01*
G01*
X9302000Y-12699500D02*
G75*
G02*
X9232000Y-12699500I-35000J0D01*
G01*
X9232000Y-12699500D02*
G75*
G02*
X9302000Y-12699500I35000J0D01*
G01*
X9302000Y-12953500D02*
G75*
G02*
X9232000Y-12953500I-35000J0D01*
G01*
X9232000Y-12953500D02*
G75*
G02*
X9302000Y-12953500I35000J0D01*
G01*
X9556000Y-12699500D02*
G75*
G02*
X9486000Y-12699500I-35000J0D01*
G01*
X9486000Y-12699500D02*
G75*
G02*
X9556000Y-12699500I35000J0D01*
G01*
X9556000Y-12953500D02*
G75*
G02*
X9486000Y-12953500I-35000J0D01*
G01*
X9486000Y-12953500D02*
G75*
G02*
X9556000Y-12953500I35000J0D01*
G01*
X12290500Y-11147000D02*
G75*
G02*
X12220500Y-11147000I-35000J0D01*
G01*
X12220500Y-11147000D02*
G75*
G02*
X12290500Y-11147000I35000J0D01*
G01*
X12544500Y-11147000D02*
G75*
G02*
X12474500Y-11147000I-35000J0D01*
G01*
X12474500Y-11147000D02*
G75*
G02*
X12544500Y-11147000I35000J0D01*
G01*
X6604000Y-12152000D02*
X6604000Y-12232000D01*
X6564000Y-12192000D02*
X6644000Y-12192000D01*
X6731000Y-7326000D02*
X6731000Y-7406000D01*
X6691000Y-7366000D02*
X6771000Y-7366000D01*
X6731000Y-8088000D02*
X6731000Y-8168000D01*
X6691000Y-8128000D02*
X6771000Y-8128000D01*
X6921500Y-12841000D02*
X6921500Y-12921000D01*
X6881500Y-12881000D02*
X6961500Y-12881000D01*
X6921500Y-13041000D02*
X6921500Y-13121000D01*
X6881500Y-13081000D02*
X6961500Y-13081000D01*
X6985000Y-7326000D02*
X6985000Y-7406000D01*
X6945000Y-7366000D02*
X7025000Y-7366000D01*
X6985000Y-8088000D02*
X6985000Y-8168000D01*
X6945000Y-8128000D02*
X7025000Y-8128000D01*
X6985000Y-11080500D02*
X6985000Y-11160500D01*
X6945000Y-11120500D02*
X7025000Y-11120500D01*
X6985000Y-11580500D02*
X6985000Y-11660500D01*
X6945000Y-11620500D02*
X7025000Y-11620500D01*
X7104000Y-12152000D02*
X7104000Y-12232000D01*
X7064000Y-12192000D02*
X7144000Y-12192000D01*
X7239000Y-7326000D02*
X7239000Y-7406000D01*
X7199000Y-7366000D02*
X7279000Y-7366000D01*
X7239000Y-8088000D02*
X7239000Y-8168000D01*
X7199000Y-8128000D02*
X7279000Y-8128000D01*
X7366000Y-12215500D02*
X7366000Y-12295500D01*
X7326000Y-12255500D02*
X7406000Y-12255500D01*
X7366000Y-12469500D02*
X7366000Y-12549500D01*
X7326000Y-12509500D02*
X7406000Y-12509500D01*
X7366000Y-12723500D02*
X7366000Y-12803500D01*
X7326000Y-12763500D02*
X7406000Y-12763500D01*
X7366000Y-12977500D02*
X7366000Y-13057500D01*
X7326000Y-13017500D02*
X7406000Y-13017500D01*
X7366000Y-13295000D02*
X7366000Y-13375000D01*
X7326000Y-13335000D02*
X7406000Y-13335000D01*
X7493000Y-7326000D02*
X7493000Y-7406000D01*
X7453000Y-7366000D02*
X7533000Y-7366000D01*
X7493000Y-8088000D02*
X7493000Y-8168000D01*
X7453000Y-8128000D02*
X7533000Y-8128000D01*
X7747000Y-7326000D02*
X7747000Y-7406000D01*
X7707000Y-7366000D02*
X7787000Y-7366000D01*
X7747000Y-8088000D02*
X7747000Y-8168000D01*
X7707000Y-8128000D02*
X7787000Y-8128000D01*
X7866000Y-13295000D02*
X7866000Y-13375000D01*
X7826000Y-13335000D02*
X7906000Y-13335000D01*
X8001000Y-7326000D02*
X8001000Y-7406000D01*
X7961000Y-7366000D02*
X8041000Y-7366000D01*
X8001000Y-8088000D02*
X8001000Y-8168000D01*
X7961000Y-8128000D02*
X8041000Y-8128000D01*
X8128000Y-12215500D02*
X8128000Y-12295500D01*
X8088000Y-12255500D02*
X8168000Y-12255500D01*
X8128000Y-12469500D02*
X8128000Y-12549500D01*
X8088000Y-12509500D02*
X8168000Y-12509500D01*
X8128000Y-12723500D02*
X8128000Y-12803500D01*
X8088000Y-12763500D02*
X8168000Y-12763500D01*
X8128000Y-12977500D02*
X8128000Y-13057500D01*
X8088000Y-13017500D02*
X8168000Y-13017500D01*
X8255000Y-7326000D02*
X8255000Y-7406000D01*
X8215000Y-7366000D02*
X8295000Y-7366000D01*
X8255000Y-8088000D02*
X8255000Y-8168000D01*
X8215000Y-8128000D02*
X8295000Y-8128000D01*
X8636500Y-7584000D02*
X8636500Y-7664000D01*
X8596500Y-7624000D02*
X8676500Y-7624000D01*
X8636500Y-8084000D02*
X8636500Y-8164000D01*
X8596500Y-8124000D02*
X8676500Y-8124000D01*
X8925500Y-13179500D02*
X8925500Y-13259500D01*
X8885500Y-13219500D02*
X8965500Y-13219500D01*
X8925500Y-13679500D02*
X8925500Y-13759500D01*
X8885500Y-13719500D02*
X8965500Y-13719500D01*
X9267000Y-13167500D02*
X9267000Y-13247500D01*
X9227000Y-13207500D02*
X9307000Y-13207500D01*
X9267000Y-13929500D02*
X9267000Y-14009500D01*
X9227000Y-13969500D02*
X9307000Y-13969500D01*
X9321000Y-14437500D02*
X9321000Y-14517500D01*
X9281000Y-14477500D02*
X9361000Y-14477500D01*
X9521000Y-13167500D02*
X9521000Y-13247500D01*
X9481000Y-13207500D02*
X9561000Y-13207500D01*
X9521000Y-13929500D02*
X9521000Y-14009500D01*
X9481000Y-13969500D02*
X9561000Y-13969500D01*
X9521000Y-14437500D02*
X9521000Y-14517500D01*
X9481000Y-14477500D02*
X9561000Y-14477500D01*
X9525000Y-8659500D02*
X9525000Y-8739500D01*
X9485000Y-8699500D02*
X9565000Y-8699500D01*
X9525000Y-8913500D02*
X9525000Y-8993500D01*
X9485000Y-8953500D02*
X9565000Y-8953500D01*
X9525000Y-9167500D02*
X9525000Y-9247500D01*
X9485000Y-9207500D02*
X9565000Y-9207500D01*
X9525000Y-9421500D02*
X9525000Y-9501500D01*
X9485000Y-9461500D02*
X9565000Y-9461500D01*
X9525000Y-9675500D02*
X9525000Y-9755500D01*
X9485000Y-9715500D02*
X9565000Y-9715500D01*
X9775000Y-13167500D02*
X9775000Y-13247500D01*
X9735000Y-13207500D02*
X9815000Y-13207500D01*
X9775000Y-13929500D02*
X9775000Y-14009500D01*
X9735000Y-13969500D02*
X9815000Y-13969500D01*
X10029000Y-12413500D02*
X10029000Y-12493500D01*
X9989000Y-12453500D02*
X10069000Y-12453500D01*
X10029000Y-12913500D02*
X10029000Y-12993500D01*
X9989000Y-12953500D02*
X10069000Y-12953500D01*
X10029000Y-13167500D02*
X10029000Y-13247500D01*
X9989000Y-13207500D02*
X10069000Y-13207500D01*
X10029000Y-13929500D02*
X10029000Y-14009500D01*
X9989000Y-13969500D02*
X10069000Y-13969500D01*
X10287000Y-8659500D02*
X10287000Y-8739500D01*
X10247000Y-8699500D02*
X10327000Y-8699500D01*
X10287000Y-8913500D02*
X10287000Y-8993500D01*
X10247000Y-8953500D02*
X10327000Y-8953500D01*
X10287000Y-9167500D02*
X10287000Y-9247500D01*
X10247000Y-9207500D02*
X10327000Y-9207500D01*
X10287000Y-9421500D02*
X10287000Y-9501500D01*
X10247000Y-9461500D02*
X10327000Y-9461500D01*
X10287000Y-9675500D02*
X10287000Y-9755500D01*
X10247000Y-9715500D02*
X10327000Y-9715500D01*
X10541000Y-14124500D02*
X10541000Y-14204500D01*
X10501000Y-14164500D02*
X10581000Y-14164500D01*
X10541000Y-14624500D02*
X10541000Y-14704500D01*
X10501000Y-14664500D02*
X10581000Y-14664500D01*
X10604500Y-8659500D02*
X10604500Y-8739500D01*
X10564500Y-8699500D02*
X10644500Y-8699500D01*
X10604500Y-8913500D02*
X10604500Y-8993500D01*
X10564500Y-8953500D02*
X10644500Y-8953500D01*
X10604500Y-9167500D02*
X10604500Y-9247500D01*
X10564500Y-9207500D02*
X10644500Y-9207500D01*
X10604500Y-9421500D02*
X10604500Y-9501500D01*
X10564500Y-9461500D02*
X10644500Y-9461500D01*
X10604500Y-9675500D02*
X10604500Y-9755500D01*
X10564500Y-9715500D02*
X10644500Y-9715500D01*
X10922000Y-13105000D02*
X10922000Y-13185000D01*
X10882000Y-13145000D02*
X10962000Y-13145000D01*
X10922000Y-13359000D02*
X10922000Y-13439000D01*
X10882000Y-13399000D02*
X10962000Y-13399000D01*
X10922000Y-13613000D02*
X10922000Y-13693000D01*
X10882000Y-13653000D02*
X10962000Y-13653000D01*
X10922000Y-13867000D02*
X10922000Y-13947000D01*
X10882000Y-13907000D02*
X10962000Y-13907000D01*
X10922000Y-14121000D02*
X10922000Y-14201000D01*
X10882000Y-14161000D02*
X10962000Y-14161000D01*
X10922000Y-14375000D02*
X10922000Y-14455000D01*
X10882000Y-14415000D02*
X10962000Y-14415000D01*
X10922000Y-14629000D02*
X10922000Y-14709000D01*
X10882000Y-14669000D02*
X10962000Y-14669000D01*
X10985500Y-11009000D02*
X10985500Y-11089000D01*
X10945500Y-11049000D02*
X11025500Y-11049000D01*
X10985500Y-12533000D02*
X10985500Y-12613000D01*
X10945500Y-12573000D02*
X11025500Y-12573000D01*
X11366500Y-8659500D02*
X11366500Y-8739500D01*
X11326500Y-8699500D02*
X11406500Y-8699500D01*
X11366500Y-8913500D02*
X11366500Y-8993500D01*
X11326500Y-8953500D02*
X11406500Y-8953500D01*
X11366500Y-9167500D02*
X11366500Y-9247500D01*
X11326500Y-9207500D02*
X11406500Y-9207500D01*
X11366500Y-9421500D02*
X11366500Y-9501500D01*
X11326500Y-9461500D02*
X11406500Y-9461500D01*
X11366500Y-9675500D02*
X11366500Y-9755500D01*
X11326500Y-9715500D02*
X11406500Y-9715500D01*
X11684000Y-8659500D02*
X11684000Y-8739500D01*
X11644000Y-8699500D02*
X11724000Y-8699500D01*
X11684000Y-8913500D02*
X11684000Y-8993500D01*
X11644000Y-8953500D02*
X11724000Y-8953500D01*
X11684000Y-9167500D02*
X11684000Y-9247500D01*
X11644000Y-9207500D02*
X11724000Y-9207500D01*
X11684000Y-9421500D02*
X11684000Y-9501500D01*
X11644000Y-9461500D02*
X11724000Y-9461500D01*
X11684000Y-9675500D02*
X11684000Y-9755500D01*
X11644000Y-9715500D02*
X11724000Y-9715500D01*
X11684000Y-13105000D02*
X11684000Y-13185000D01*
X11644000Y-13145000D02*
X11724000Y-13145000D01*
X11684000Y-13359000D02*
X11684000Y-13439000D01*
X11644000Y-13399000D02*
X11724000Y-13399000D01*
X11684000Y-13613000D02*
X11684000Y-13693000D01*
X11644000Y-13653000D02*
X11724000Y-13653000D01*
X11684000Y-13867000D02*
X11684000Y-13947000D01*
X11644000Y-13907000D02*
X11724000Y-13907000D01*
X11684000Y-14121000D02*
X11684000Y-14201000D01*
X11644000Y-14161000D02*
X11724000Y-14161000D01*
X11684000Y-14375000D02*
X11684000Y-14455000D01*
X11644000Y-14415000D02*
X11724000Y-14415000D01*
X11684000Y-14629000D02*
X11684000Y-14709000D01*
X11644000Y-14669000D02*
X11724000Y-14669000D01*
X11747500Y-11009000D02*
X11747500Y-11089000D01*
X11707500Y-11049000D02*
X11787500Y-11049000D01*
X11747500Y-12533000D02*
X11747500Y-12613000D01*
X11707500Y-12573000D02*
X11787500Y-12573000D01*
X11874500Y-6123500D02*
X11874500Y-6203500D01*
X11834500Y-6163500D02*
X11914500Y-6163500D01*
X11874500Y-6623500D02*
X11874500Y-6703500D01*
X11834500Y-6663500D02*
X11914500Y-6663500D01*
X12319000Y-13358500D02*
X12319000Y-13438500D01*
X12279000Y-13398500D02*
X12359000Y-13398500D01*
X12319000Y-13858500D02*
X12319000Y-13938500D01*
X12279000Y-13898500D02*
X12359000Y-13898500D01*
X12446000Y-8659500D02*
X12446000Y-8739500D01*
X12406000Y-8699500D02*
X12486000Y-8699500D01*
X12446000Y-8913500D02*
X12446000Y-8993500D01*
X12406000Y-8953500D02*
X12486000Y-8953500D01*
X12446000Y-9167500D02*
X12446000Y-9247500D01*
X12406000Y-9207500D02*
X12486000Y-9207500D01*
X12446000Y-9421500D02*
X12446000Y-9501500D01*
X12406000Y-9461500D02*
X12486000Y-9461500D01*
X12446000Y-9675500D02*
X12446000Y-9755500D01*
X12406000Y-9715500D02*
X12486000Y-9715500D01*
X12636500Y-13358500D02*
X12636500Y-13438500D01*
X12596500Y-13398500D02*
X12676500Y-13398500D01*
X12636500Y-14120500D02*
X12636500Y-14200500D01*
X12596500Y-14160500D02*
X12676500Y-14160500D01*
X12890500Y-13358500D02*
X12890500Y-13438500D01*
X12850500Y-13398500D02*
X12930500Y-13398500D01*
X12890500Y-14120500D02*
X12890500Y-14200500D01*
X12850500Y-14160500D02*
X12930500Y-14160500D01*
X13144500Y-13358500D02*
X13144500Y-13438500D01*
X13104500Y-13398500D02*
X13184500Y-13398500D01*
X13144500Y-14120500D02*
X13144500Y-14200500D01*
X13104500Y-14160500D02*
X13184500Y-14160500D01*
X13398500Y-13358500D02*
X13398500Y-13438500D01*
X13358500Y-13398500D02*
X13438500Y-13398500D01*
X13398500Y-14120500D02*
X13398500Y-14200500D01*
X13358500Y-14160500D02*
X13438500Y-14160500D01*
X13652500Y-13358500D02*
X13652500Y-13438500D01*
X13612500Y-13398500D02*
X13692500Y-13398500D01*
X13652500Y-14120500D02*
X13652500Y-14200500D01*
X13612500Y-14160500D02*
X13692500Y-14160500D01*
X13843000Y-11107000D02*
X13843000Y-11187000D01*
X13803000Y-11147000D02*
X13883000Y-11147000D01*
X13843000Y-11607000D02*
X13843000Y-11687000D01*
X13803000Y-11647000D02*
X13883000Y-11647000D01*
X13906500Y-13358500D02*
X13906500Y-13438500D01*
X13866500Y-13398500D02*
X13946500Y-13398500D01*
X13906500Y-14120500D02*
X13906500Y-14200500D01*
X13866500Y-14160500D02*
X13946500Y-14160500D01*
X14160500Y-13358500D02*
X14160500Y-13438500D01*
X14120500Y-13398500D02*
X14200500Y-13398500D01*
X14160500Y-14120500D02*
X14160500Y-14200500D01*
X14120500Y-14160500D02*
X14200500Y-14160500D01*
X14414500Y-13358500D02*
X14414500Y-13438500D01*
X14374500Y-13398500D02*
X14454500Y-13398500D01*
X14414500Y-14120500D02*
X14414500Y-14200500D01*
X14374500Y-14160500D02*
X14454500Y-14160500D01*
X12922320Y-8858320D02*
X12922320Y-8794680D01*
X12858680Y-8794680D01*
X12858680Y-8858320D01*
X12922320Y-8858320D01*
X12922320Y-9239320D02*
X12922320Y-9175680D01*
X12858680Y-9175680D01*
X12858680Y-9239320D01*
X12922320Y-9239320D01*
X12922320Y-9620320D02*
X12922320Y-9556680D01*
X12858680Y-9556680D01*
X12858680Y-9620320D01*
X12922320Y-9620320D01*
X13176320Y-8858320D02*
X13176320Y-8794680D01*
X13112680Y-8794680D01*
X13112680Y-8858320D01*
X13176320Y-8858320D01*
X13176320Y-9239320D02*
X13176320Y-9175680D01*
X13112680Y-9175680D01*
X13112680Y-9239320D01*
X13176320Y-9239320D01*
X13176320Y-9620320D02*
X13176320Y-9556680D01*
X13112680Y-9556680D01*
X13112680Y-9620320D01*
X13176320Y-9620320D01*
X8953500Y-15172000D02*
X9003500Y-15122000D01*
X8953500Y-15072000D01*
X8903500Y-15122000D01*
X8953500Y-15172000D01*
X8953500Y-15426000D02*
X9003500Y-15376000D01*
X8953500Y-15326000D01*
X8903500Y-15376000D01*
X8953500Y-15426000D01*
X9207500Y-15172000D02*
X9257500Y-15122000D01*
X9207500Y-15072000D01*
X9157500Y-15122000D01*
X9207500Y-15172000D01*
X9207500Y-15426000D02*
X9257500Y-15376000D01*
X9207500Y-15326000D01*
X9157500Y-15376000D01*
X9207500Y-15426000D01*
X9275000Y-12178000D02*
X9325000Y-12128000D01*
X9275000Y-12078000D01*
X9225000Y-12128000D01*
X9275000Y-12178000D01*
X9461500Y-15172000D02*
X9511500Y-15122000D01*
X9461500Y-15072000D01*
X9411500Y-15122000D01*
X9461500Y-15172000D01*
X9461500Y-15426000D02*
X9511500Y-15376000D01*
X9461500Y-15326000D01*
X9411500Y-15376000D01*
X9461500Y-15426000D01*
X9525000Y-12178000D02*
X9575000Y-12128000D01*
X9525000Y-12078000D01*
X9475000Y-12128000D01*
X9525000Y-12178000D01*
X9715500Y-15172000D02*
X9765500Y-15122000D01*
X9715500Y-15072000D01*
X9665500Y-15122000D01*
X9715500Y-15172000D01*
X9715500Y-15426000D02*
X9765500Y-15376000D01*
X9715500Y-15326000D01*
X9665500Y-15376000D01*
X9715500Y-15426000D01*
X9775000Y-12178000D02*
X9825000Y-12128000D01*
X9775000Y-12078000D01*
X9725000Y-12128000D01*
X9775000Y-12178000D01*
X9969500Y-15172000D02*
X10019500Y-15122000D01*
X9969500Y-15072000D01*
X9919500Y-15122000D01*
X9969500Y-15172000D01*
X9969500Y-15426000D02*
X10019500Y-15376000D01*
X9969500Y-15326000D01*
X9919500Y-15376000D01*
X9969500Y-15426000D01*
X10223500Y-15172000D02*
X10273500Y-15122000D01*
X10223500Y-15072000D01*
X10173500Y-15122000D01*
X10223500Y-15172000D01*
X10223500Y-15426000D02*
X10273500Y-15376000D01*
X10223500Y-15326000D01*
X10173500Y-15376000D01*
X10223500Y-15426000D01*
X10477500Y-15172000D02*
X10527500Y-15122000D01*
X10477500Y-15072000D01*
X10427500Y-15122000D01*
X10477500Y-15172000D01*
X10477500Y-15426000D02*
X10527500Y-15376000D01*
X10477500Y-15326000D01*
X10427500Y-15376000D01*
X10477500Y-15426000D01*
X10731500Y-15172000D02*
X10781500Y-15122000D01*
X10731500Y-15072000D01*
X10681500Y-15122000D01*
X10731500Y-15172000D01*
X10731500Y-15426000D02*
X10781500Y-15376000D01*
X10731500Y-15326000D01*
X10681500Y-15376000D01*
X10731500Y-15426000D01*
X10985500Y-15172000D02*
X11035500Y-15122000D01*
X10985500Y-15072000D01*
X10935500Y-15122000D01*
X10985500Y-15172000D01*
X10985500Y-15426000D02*
X11035500Y-15376000D01*
X10985500Y-15326000D01*
X10935500Y-15376000D01*
X10985500Y-15426000D01*
X11239500Y-15172000D02*
X11289500Y-15122000D01*
X11239500Y-15072000D01*
X11189500Y-15122000D01*
X11239500Y-15172000D01*
X11239500Y-15426000D02*
X11289500Y-15376000D01*
X11239500Y-15326000D01*
X11189500Y-15376000D01*
X11239500Y-15426000D01*
X11493500Y-15172000D02*
X11543500Y-15122000D01*
X11493500Y-15072000D01*
X11443500Y-15122000D01*
X11493500Y-15172000D01*
X11493500Y-15426000D02*
X11543500Y-15376000D01*
X11493500Y-15326000D01*
X11443500Y-15376000D01*
X11493500Y-15426000D01*
X11747500Y-15172000D02*
X11797500Y-15122000D01*
X11747500Y-15072000D01*
X11697500Y-15122000D01*
X11747500Y-15172000D01*
X11747500Y-15426000D02*
X11797500Y-15376000D01*
X11747500Y-15326000D01*
X11697500Y-15376000D01*
X11747500Y-15426000D01*
X12001500Y-15172000D02*
X12051500Y-15122000D01*
X12001500Y-15072000D01*
X11951500Y-15122000D01*
X12001500Y-15172000D01*
X12001500Y-15426000D02*
X12051500Y-15376000D01*
X12001500Y-15326000D01*
X11951500Y-15376000D01*
X12001500Y-15426000D01*
X12255500Y-15172000D02*
X12305500Y-15122000D01*
X12255500Y-15072000D01*
X12205500Y-15122000D01*
X12255500Y-15172000D01*
X12255500Y-15426000D02*
X12305500Y-15376000D01*
X12255500Y-15326000D01*
X12205500Y-15376000D01*
X12255500Y-15426000D01*
X12509500Y-6844500D02*
X12559500Y-6794500D01*
X12509500Y-6744500D01*
X12459500Y-6794500D01*
X12509500Y-6844500D01*
X12509500Y-7098500D02*
X12559500Y-7048500D01*
X12509500Y-6998500D01*
X12459500Y-7048500D01*
X12509500Y-7098500D01*
X12509500Y-7352500D02*
X12559500Y-7302500D01*
X12509500Y-7252500D01*
X12459500Y-7302500D01*
X12509500Y-7352500D01*
X12509500Y-7606500D02*
X12559500Y-7556500D01*
X12509500Y-7506500D01*
X12459500Y-7556500D01*
X12509500Y-7606500D01*
X12509500Y-15172000D02*
X12559500Y-15122000D01*
X12509500Y-15072000D01*
X12459500Y-15122000D01*
X12509500Y-15172000D01*
X12509500Y-15426000D02*
X12559500Y-15376000D01*
X12509500Y-15326000D01*
X12459500Y-15376000D01*
X12509500Y-15426000D01*
X12763500Y-15172000D02*
X12813500Y-15122000D01*
X12763500Y-15072000D01*
X12713500Y-15122000D01*
X12763500Y-15172000D01*
X12763500Y-15426000D02*
X12813500Y-15376000D01*
X12763500Y-15326000D01*
X12713500Y-15376000D01*
X12763500Y-15426000D01*
X13017500Y-15172000D02*
X13067500Y-15122000D01*
X13017500Y-15072000D01*
X12967500Y-15122000D01*
X13017500Y-15172000D01*
X13017500Y-15426000D02*
X13067500Y-15376000D01*
X13017500Y-15326000D01*
X12967500Y-15376000D01*
X13017500Y-15426000D01*
X13271500Y-15172000D02*
X13321500Y-15122000D01*
X13271500Y-15072000D01*
X13221500Y-15122000D01*
X13271500Y-15172000D01*
X13271500Y-15426000D02*
X13321500Y-15376000D01*
X13271500Y-15326000D01*
X13221500Y-15376000D01*
X13271500Y-15426000D01*
X13525500Y-15172000D02*
X13575500Y-15122000D01*
X13525500Y-15072000D01*
X13475500Y-15122000D01*
X13525500Y-15172000D01*
X13525500Y-15426000D02*
X13575500Y-15376000D01*
X13525500Y-15326000D01*
X13475500Y-15376000D01*
X13525500Y-15426000D01*
X13779500Y-15172000D02*
X13829500Y-15122000D01*
X13779500Y-15072000D01*
X13729500Y-15122000D01*
X13779500Y-15172000D01*
X13779500Y-15426000D02*
X13829500Y-15376000D01*
X13779500Y-15326000D01*
X13729500Y-15376000D01*
X13779500Y-15426000D01*
D13*
X7311000Y-11115500D02*
X7421000Y-11225500D01*
X7421000Y-11115500D02*
X7311000Y-11225500D01*
X7421000Y-11170500D02*
G75*
G02*
X7311000Y-11170500I-55000J0D01*
G01*
X7311000Y-11170500D02*
G75*
G02*
X7421000Y-11170500I55000J0D01*
G01*
X7311000Y-11565500D02*
X7421000Y-11675500D01*
X7421000Y-11565500D02*
X7311000Y-11675500D01*
X7421000Y-11620500D02*
G75*
G02*
X7311000Y-11620500I-55000J0D01*
G01*
X7311000Y-11620500D02*
G75*
G02*
X7421000Y-11620500I55000J0D01*
G01*
X7961000Y-11115500D02*
X8071000Y-11225500D01*
X8071000Y-11115500D02*
X7961000Y-11225500D01*
X8071000Y-11170500D02*
G75*
G02*
X7961000Y-11170500I-55000J0D01*
G01*
X7961000Y-11170500D02*
G75*
G02*
X8071000Y-11170500I55000J0D01*
G01*
X7961000Y-11565500D02*
X8071000Y-11675500D01*
X8071000Y-11565500D02*
X7961000Y-11675500D01*
X8071000Y-11620500D02*
G75*
G02*
X7961000Y-11620500I-55000J0D01*
G01*
X7961000Y-11620500D02*
G75*
G02*
X8071000Y-11620500I55000J0D01*
G01*
X8990000Y-11323000D02*
X9100000Y-11433000D01*
X9100000Y-11323000D02*
X8990000Y-11433000D01*
X9100000Y-11378000D02*
G75*
G02*
X8990000Y-11378000I-55000J0D01*
G01*
X8990000Y-11378000D02*
G75*
G02*
X9100000Y-11378000I55000J0D01*
G01*
D12*
X9100000Y-11413000D02*
X9100000Y-11343000D01*
X8990000Y-11343000D02*
G75*
G02*
X9100000Y-11343000I55000J0D01*
G01*
X8990000Y-11343000D02*
X8990000Y-11413000D01*
X8990000Y-11413000D02*
G75*
G03*
X9100000Y-11413000I55000J0D01*
G01*
D13*
X9950000Y-11323000D02*
X10060000Y-11433000D01*
X10060000Y-11323000D02*
X9950000Y-11433000D01*
X10060000Y-11378000D02*
G75*
G02*
X9950000Y-11378000I-55000J0D01*
G01*
X9950000Y-11378000D02*
G75*
G02*
X10060000Y-11378000I55000J0D01*
G01*
D12*
X10060000Y-11413000D02*
X10060000Y-11343000D01*
X9950000Y-11343000D02*
G75*
G02*
X10060000Y-11343000I55000J0D01*
G01*
X9950000Y-11343000D02*
X9950000Y-11413000D01*
X9950000Y-11413000D02*
G75*
G03*
X10060000Y-11413000I55000J0D01*
G01*
D13*
X12757000Y-11086500D02*
X12867000Y-11196500D01*
X12867000Y-11086500D02*
X12757000Y-11196500D01*
X12867000Y-11141500D02*
G75*
G02*
X12757000Y-11141500I-55000J0D01*
G01*
X12757000Y-11141500D02*
G75*
G02*
X12867000Y-11141500I55000J0D01*
G01*
X12757000Y-11536500D02*
X12867000Y-11646500D01*
X12867000Y-11536500D02*
X12757000Y-11646500D01*
X12867000Y-11591500D02*
G75*
G02*
X12757000Y-11591500I-55000J0D01*
G01*
X12757000Y-11591500D02*
G75*
G02*
X12867000Y-11591500I55000J0D01*
G01*
X13407000Y-11086500D02*
X13517000Y-11196500D01*
X13517000Y-11086500D02*
X13407000Y-11196500D01*
X13517000Y-11141500D02*
G75*
G02*
X13407000Y-11141500I-55000J0D01*
G01*
X13407000Y-11141500D02*
G75*
G02*
X13517000Y-11141500I55000J0D01*
G01*
X13407000Y-11536500D02*
X13517000Y-11646500D01*
X13517000Y-11536500D02*
X13407000Y-11646500D01*
X13517000Y-11591500D02*
G75*
G02*
X13407000Y-11591500I-55000J0D01*
G01*
X13407000Y-11591500D02*
G75*
G02*
X13517000Y-11591500I55000J0D01*
G01*
D11*
X6608277Y-16125484D02*
X6608277Y-15925484D01*
X6608277Y-15925484D02*
X6655896Y-15925484D01*
X6655896Y-15925484D02*
X6684467Y-15935008D01*
X6684467Y-15935008D02*
X6703515Y-15954055D01*
X6703515Y-15954055D02*
X6713039Y-15973103D01*
X6713039Y-15973103D02*
X6722562Y-16011198D01*
X6722562Y-16011198D02*
X6722562Y-16039769D01*
X6722562Y-16039769D02*
X6713039Y-16077865D01*
X6713039Y-16077865D02*
X6703515Y-16096912D01*
X6703515Y-16096912D02*
X6684467Y-16115960D01*
X6684467Y-16115960D02*
X6655896Y-16125484D01*
X6655896Y-16125484D02*
X6608277Y-16125484D01*
X6808277Y-16125484D02*
X6808277Y-15992150D01*
X6808277Y-16030246D02*
X6817801Y-16011198D01*
X6817801Y-16011198D02*
X6827324Y-16001674D01*
X6827324Y-16001674D02*
X6846372Y-15992150D01*
X6846372Y-15992150D02*
X6865420Y-15992150D01*
X6932086Y-16125484D02*
X6932086Y-15992150D01*
X6932086Y-15925484D02*
X6922562Y-15935008D01*
X6922562Y-15935008D02*
X6932086Y-15944531D01*
X6932086Y-15944531D02*
X6941610Y-15935008D01*
X6941610Y-15935008D02*
X6932086Y-15925484D01*
X6932086Y-15925484D02*
X6932086Y-15944531D01*
X7055896Y-16125484D02*
X7036848Y-16115960D01*
X7036848Y-16115960D02*
X7027324Y-16096912D01*
X7027324Y-16096912D02*
X7027324Y-15925484D01*
X7160658Y-16125484D02*
X7141610Y-16115960D01*
X7141610Y-16115960D02*
X7132086Y-16096912D01*
X7132086Y-16096912D02*
X7132086Y-15925484D01*
X7389229Y-16125484D02*
X7389229Y-15925484D01*
X7389229Y-15925484D02*
X7455896Y-16068341D01*
X7455896Y-16068341D02*
X7522562Y-15925484D01*
X7522562Y-15925484D02*
X7522562Y-16125484D01*
X7703515Y-16125484D02*
X7703515Y-16020722D01*
X7703515Y-16020722D02*
X7693991Y-16001674D01*
X7693991Y-16001674D02*
X7674943Y-15992150D01*
X7674943Y-15992150D02*
X7636848Y-15992150D01*
X7636848Y-15992150D02*
X7617801Y-16001674D01*
X7703515Y-16115960D02*
X7684467Y-16125484D01*
X7684467Y-16125484D02*
X7636848Y-16125484D01*
X7636848Y-16125484D02*
X7617801Y-16115960D01*
X7617801Y-16115960D02*
X7608277Y-16096912D01*
X7608277Y-16096912D02*
X7608277Y-16077865D01*
X7608277Y-16077865D02*
X7617801Y-16058817D01*
X7617801Y-16058817D02*
X7636848Y-16049293D01*
X7636848Y-16049293D02*
X7684467Y-16049293D01*
X7684467Y-16049293D02*
X7703515Y-16039769D01*
X7798753Y-15992150D02*
X7798753Y-16192150D01*
X7798753Y-16001674D02*
X7817801Y-15992150D01*
X7817801Y-15992150D02*
X7855896Y-15992150D01*
X7855896Y-15992150D02*
X7874943Y-16001674D01*
X7874943Y-16001674D02*
X7884467Y-16011198D01*
X7884467Y-16011198D02*
X7893991Y-16030246D01*
X7893991Y-16030246D02*
X7893991Y-16087388D01*
X7893991Y-16087388D02*
X7884467Y-16106436D01*
X7884467Y-16106436D02*
X7874943Y-16115960D01*
X7874943Y-16115960D02*
X7855896Y-16125484D01*
X7855896Y-16125484D02*
X7817801Y-16125484D01*
X7817801Y-16125484D02*
X7798753Y-16115960D01*
X7979705Y-16106436D02*
X7989229Y-16115960D01*
X7989229Y-16115960D02*
X7979705Y-16125484D01*
X7979705Y-16125484D02*
X7970182Y-16115960D01*
X7970182Y-16115960D02*
X7979705Y-16106436D01*
X7979705Y-16106436D02*
X7979705Y-16125484D01*
X7979705Y-16001674D02*
X7989229Y-16011198D01*
X7989229Y-16011198D02*
X7979705Y-16020722D01*
X7979705Y-16020722D02*
X7970182Y-16011198D01*
X7970182Y-16011198D02*
X7979705Y-16001674D01*
X7979705Y-16001674D02*
X7979705Y-16020722D01*
D12*
X6317500Y-16439000D02*
X6347500Y-16469000D01*
X6347500Y-16439000D02*
X6317500Y-16469000D01*
D11*
X6646372Y-16345484D02*
X6665420Y-16345484D01*
X6665420Y-16345484D02*
X6684467Y-16355008D01*
X6684467Y-16355008D02*
X6693991Y-16364531D01*
X6693991Y-16364531D02*
X6703515Y-16383579D01*
X6703515Y-16383579D02*
X6713039Y-16421674D01*
X6713039Y-16421674D02*
X6713039Y-16469293D01*
X6713039Y-16469293D02*
X6703515Y-16507388D01*
X6703515Y-16507388D02*
X6693991Y-16526436D01*
X6693991Y-16526436D02*
X6684467Y-16535960D01*
X6684467Y-16535960D02*
X6665420Y-16545484D01*
X6665420Y-16545484D02*
X6646372Y-16545484D01*
X6646372Y-16545484D02*
X6627324Y-16535960D01*
X6627324Y-16535960D02*
X6617801Y-16526436D01*
X6617801Y-16526436D02*
X6608277Y-16507388D01*
X6608277Y-16507388D02*
X6598753Y-16469293D01*
X6598753Y-16469293D02*
X6598753Y-16421674D01*
X6598753Y-16421674D02*
X6608277Y-16383579D01*
X6608277Y-16383579D02*
X6617801Y-16364531D01*
X6617801Y-16364531D02*
X6627324Y-16355008D01*
X6627324Y-16355008D02*
X6646372Y-16345484D01*
X6798753Y-16526436D02*
X6808277Y-16535960D01*
X6808277Y-16535960D02*
X6798753Y-16545484D01*
X6798753Y-16545484D02*
X6789229Y-16535960D01*
X6789229Y-16535960D02*
X6798753Y-16526436D01*
X6798753Y-16526436D02*
X6798753Y-16545484D01*
X6874943Y-16345484D02*
X6998753Y-16345484D01*
X6998753Y-16345484D02*
X6932086Y-16421674D01*
X6932086Y-16421674D02*
X6960658Y-16421674D01*
X6960658Y-16421674D02*
X6979705Y-16431198D01*
X6979705Y-16431198D02*
X6989229Y-16440722D01*
X6989229Y-16440722D02*
X6998753Y-16459769D01*
X6998753Y-16459769D02*
X6998753Y-16507388D01*
X6998753Y-16507388D02*
X6989229Y-16526436D01*
X6989229Y-16526436D02*
X6979705Y-16535960D01*
X6979705Y-16535960D02*
X6960658Y-16545484D01*
X6960658Y-16545484D02*
X6903515Y-16545484D01*
X6903515Y-16545484D02*
X6884467Y-16535960D01*
X6884467Y-16535960D02*
X6874943Y-16526436D01*
X7122562Y-16345484D02*
X7141610Y-16345484D01*
X7141610Y-16345484D02*
X7160658Y-16355008D01*
X7160658Y-16355008D02*
X7170182Y-16364531D01*
X7170182Y-16364531D02*
X7179705Y-16383579D01*
X7179705Y-16383579D02*
X7189229Y-16421674D01*
X7189229Y-16421674D02*
X7189229Y-16469293D01*
X7189229Y-16469293D02*
X7179705Y-16507388D01*
X7179705Y-16507388D02*
X7170182Y-16526436D01*
X7170182Y-16526436D02*
X7160658Y-16535960D01*
X7160658Y-16535960D02*
X7141610Y-16545484D01*
X7141610Y-16545484D02*
X7122562Y-16545484D01*
X7122562Y-16545484D02*
X7103515Y-16535960D01*
X7103515Y-16535960D02*
X7093991Y-16526436D01*
X7093991Y-16526436D02*
X7084467Y-16507388D01*
X7084467Y-16507388D02*
X7074943Y-16469293D01*
X7074943Y-16469293D02*
X7074943Y-16421674D01*
X7074943Y-16421674D02*
X7084467Y-16383579D01*
X7084467Y-16383579D02*
X7093991Y-16364531D01*
X7093991Y-16364531D02*
X7103515Y-16355008D01*
X7103515Y-16355008D02*
X7122562Y-16345484D01*
X7313039Y-16345484D02*
X7332086Y-16345484D01*
X7332086Y-16345484D02*
X7351134Y-16355008D01*
X7351134Y-16355008D02*
X7360658Y-16364531D01*
X7360658Y-16364531D02*
X7370182Y-16383579D01*
X7370182Y-16383579D02*
X7379705Y-16421674D01*
X7379705Y-16421674D02*
X7379705Y-16469293D01*
X7379705Y-16469293D02*
X7370182Y-16507388D01*
X7370182Y-16507388D02*
X7360658Y-16526436D01*
X7360658Y-16526436D02*
X7351134Y-16535960D01*
X7351134Y-16535960D02*
X7332086Y-16545484D01*
X7332086Y-16545484D02*
X7313039Y-16545484D01*
X7313039Y-16545484D02*
X7293991Y-16535960D01*
X7293991Y-16535960D02*
X7284467Y-16526436D01*
X7284467Y-16526436D02*
X7274943Y-16507388D01*
X7274943Y-16507388D02*
X7265420Y-16469293D01*
X7265420Y-16469293D02*
X7265420Y-16421674D01*
X7265420Y-16421674D02*
X7274943Y-16383579D01*
X7274943Y-16383579D02*
X7284467Y-16364531D01*
X7284467Y-16364531D02*
X7293991Y-16355008D01*
X7293991Y-16355008D02*
X7313039Y-16345484D01*
X7465420Y-16545484D02*
X7465420Y-16412150D01*
X7465420Y-16431198D02*
X7474943Y-16421674D01*
X7474943Y-16421674D02*
X7493991Y-16412150D01*
X7493991Y-16412150D02*
X7522563Y-16412150D01*
X7522563Y-16412150D02*
X7541610Y-16421674D01*
X7541610Y-16421674D02*
X7551134Y-16440722D01*
X7551134Y-16440722D02*
X7551134Y-16545484D01*
X7551134Y-16440722D02*
X7560658Y-16421674D01*
X7560658Y-16421674D02*
X7579705Y-16412150D01*
X7579705Y-16412150D02*
X7608277Y-16412150D01*
X7608277Y-16412150D02*
X7627324Y-16421674D01*
X7627324Y-16421674D02*
X7636848Y-16440722D01*
X7636848Y-16440722D02*
X7636848Y-16545484D01*
X7732086Y-16545484D02*
X7732086Y-16412150D01*
X7732086Y-16431198D02*
X7741610Y-16421674D01*
X7741610Y-16421674D02*
X7760658Y-16412150D01*
X7760658Y-16412150D02*
X7789229Y-16412150D01*
X7789229Y-16412150D02*
X7808277Y-16421674D01*
X7808277Y-16421674D02*
X7817801Y-16440722D01*
X7817801Y-16440722D02*
X7817801Y-16545484D01*
X7817801Y-16440722D02*
X7827324Y-16421674D01*
X7827324Y-16421674D02*
X7846372Y-16412150D01*
X7846372Y-16412150D02*
X7874943Y-16412150D01*
X7874943Y-16412150D02*
X7893991Y-16421674D01*
X7893991Y-16421674D02*
X7903515Y-16440722D01*
X7903515Y-16440722D02*
X7903515Y-16545484D01*
X8293991Y-16335960D02*
X8122563Y-16593103D01*
X8551134Y-16345484D02*
X8570182Y-16345484D01*
X8570182Y-16345484D02*
X8589229Y-16355008D01*
X8589229Y-16355008D02*
X8598753Y-16364531D01*
X8598753Y-16364531D02*
X8608277Y-16383579D01*
X8608277Y-16383579D02*
X8617801Y-16421674D01*
X8617801Y-16421674D02*
X8617801Y-16469293D01*
X8617801Y-16469293D02*
X8608277Y-16507388D01*
X8608277Y-16507388D02*
X8598753Y-16526436D01*
X8598753Y-16526436D02*
X8589229Y-16535960D01*
X8589229Y-16535960D02*
X8570182Y-16545484D01*
X8570182Y-16545484D02*
X8551134Y-16545484D01*
X8551134Y-16545484D02*
X8532087Y-16535960D01*
X8532087Y-16535960D02*
X8522563Y-16526436D01*
X8522563Y-16526436D02*
X8513039Y-16507388D01*
X8513039Y-16507388D02*
X8503515Y-16469293D01*
X8503515Y-16469293D02*
X8503515Y-16421674D01*
X8503515Y-16421674D02*
X8513039Y-16383579D01*
X8513039Y-16383579D02*
X8522563Y-16364531D01*
X8522563Y-16364531D02*
X8532087Y-16355008D01*
X8532087Y-16355008D02*
X8551134Y-16345484D01*
X8703515Y-16526436D02*
X8713039Y-16535960D01*
X8713039Y-16535960D02*
X8703515Y-16545484D01*
X8703515Y-16545484D02*
X8693991Y-16535960D01*
X8693991Y-16535960D02*
X8703515Y-16526436D01*
X8703515Y-16526436D02*
X8703515Y-16545484D01*
X8836848Y-16345484D02*
X8855896Y-16345484D01*
X8855896Y-16345484D02*
X8874944Y-16355008D01*
X8874944Y-16355008D02*
X8884468Y-16364531D01*
X8884468Y-16364531D02*
X8893991Y-16383579D01*
X8893991Y-16383579D02*
X8903515Y-16421674D01*
X8903515Y-16421674D02*
X8903515Y-16469293D01*
X8903515Y-16469293D02*
X8893991Y-16507388D01*
X8893991Y-16507388D02*
X8884468Y-16526436D01*
X8884468Y-16526436D02*
X8874944Y-16535960D01*
X8874944Y-16535960D02*
X8855896Y-16545484D01*
X8855896Y-16545484D02*
X8836848Y-16545484D01*
X8836848Y-16545484D02*
X8817801Y-16535960D01*
X8817801Y-16535960D02*
X8808277Y-16526436D01*
X8808277Y-16526436D02*
X8798753Y-16507388D01*
X8798753Y-16507388D02*
X8789229Y-16469293D01*
X8789229Y-16469293D02*
X8789229Y-16421674D01*
X8789229Y-16421674D02*
X8798753Y-16383579D01*
X8798753Y-16383579D02*
X8808277Y-16364531D01*
X8808277Y-16364531D02*
X8817801Y-16355008D01*
X8817801Y-16355008D02*
X8836848Y-16345484D01*
X9093991Y-16545484D02*
X8979706Y-16545484D01*
X9036848Y-16545484D02*
X9036848Y-16345484D01*
X9036848Y-16345484D02*
X9017801Y-16374055D01*
X9017801Y-16374055D02*
X8998753Y-16393103D01*
X8998753Y-16393103D02*
X8979706Y-16402627D01*
X9284468Y-16545484D02*
X9170182Y-16545484D01*
X9227325Y-16545484D02*
X9227325Y-16345484D01*
X9227325Y-16345484D02*
X9208277Y-16374055D01*
X9208277Y-16374055D02*
X9189229Y-16393103D01*
X9189229Y-16393103D02*
X9170182Y-16402627D01*
X9398753Y-16431198D02*
X9379706Y-16421674D01*
X9379706Y-16421674D02*
X9370182Y-16412150D01*
X9370182Y-16412150D02*
X9360658Y-16393103D01*
X9360658Y-16393103D02*
X9360658Y-16383579D01*
X9360658Y-16383579D02*
X9370182Y-16364531D01*
X9370182Y-16364531D02*
X9379706Y-16355008D01*
X9379706Y-16355008D02*
X9398753Y-16345484D01*
X9398753Y-16345484D02*
X9436849Y-16345484D01*
X9436849Y-16345484D02*
X9455896Y-16355008D01*
X9455896Y-16355008D02*
X9465420Y-16364531D01*
X9465420Y-16364531D02*
X9474944Y-16383579D01*
X9474944Y-16383579D02*
X9474944Y-16393103D01*
X9474944Y-16393103D02*
X9465420Y-16412150D01*
X9465420Y-16412150D02*
X9455896Y-16421674D01*
X9455896Y-16421674D02*
X9436849Y-16431198D01*
X9436849Y-16431198D02*
X9398753Y-16431198D01*
X9398753Y-16431198D02*
X9379706Y-16440722D01*
X9379706Y-16440722D02*
X9370182Y-16450246D01*
X9370182Y-16450246D02*
X9360658Y-16469293D01*
X9360658Y-16469293D02*
X9360658Y-16507388D01*
X9360658Y-16507388D02*
X9370182Y-16526436D01*
X9370182Y-16526436D02*
X9379706Y-16535960D01*
X9379706Y-16535960D02*
X9398753Y-16545484D01*
X9398753Y-16545484D02*
X9436849Y-16545484D01*
X9436849Y-16545484D02*
X9455896Y-16535960D01*
X9455896Y-16535960D02*
X9465420Y-16526436D01*
X9465420Y-16526436D02*
X9474944Y-16507388D01*
X9474944Y-16507388D02*
X9474944Y-16469293D01*
X9474944Y-16469293D02*
X9465420Y-16450246D01*
X9465420Y-16450246D02*
X9455896Y-16440722D01*
X9455896Y-16440722D02*
X9436849Y-16431198D01*
X9551134Y-16345484D02*
X9551134Y-16383579D01*
X9627325Y-16345484D02*
X9627325Y-16383579D01*
X9922563Y-16621674D02*
X9913039Y-16612150D01*
X9913039Y-16612150D02*
X9893991Y-16583579D01*
X9893991Y-16583579D02*
X9884468Y-16564531D01*
X9884468Y-16564531D02*
X9874944Y-16535960D01*
X9874944Y-16535960D02*
X9865420Y-16488341D01*
X9865420Y-16488341D02*
X9865420Y-16450246D01*
X9865420Y-16450246D02*
X9874944Y-16402627D01*
X9874944Y-16402627D02*
X9884468Y-16374055D01*
X9884468Y-16374055D02*
X9893991Y-16355008D01*
X9893991Y-16355008D02*
X9913039Y-16326436D01*
X9913039Y-16326436D02*
X9922563Y-16316912D01*
X10103515Y-16545484D02*
X9989230Y-16545484D01*
X10046372Y-16545484D02*
X10046372Y-16345484D01*
X10046372Y-16345484D02*
X10027325Y-16374055D01*
X10027325Y-16374055D02*
X10008277Y-16393103D01*
X10008277Y-16393103D02*
X9989230Y-16402627D01*
X10284468Y-16345484D02*
X10189230Y-16345484D01*
X10189230Y-16345484D02*
X10179706Y-16440722D01*
X10179706Y-16440722D02*
X10189230Y-16431198D01*
X10189230Y-16431198D02*
X10208277Y-16421674D01*
X10208277Y-16421674D02*
X10255896Y-16421674D01*
X10255896Y-16421674D02*
X10274944Y-16431198D01*
X10274944Y-16431198D02*
X10284468Y-16440722D01*
X10284468Y-16440722D02*
X10293991Y-16459769D01*
X10293991Y-16459769D02*
X10293991Y-16507388D01*
X10293991Y-16507388D02*
X10284468Y-16526436D01*
X10284468Y-16526436D02*
X10274944Y-16535960D01*
X10274944Y-16535960D02*
X10255896Y-16545484D01*
X10255896Y-16545484D02*
X10208277Y-16545484D01*
X10208277Y-16545484D02*
X10189230Y-16535960D01*
X10189230Y-16535960D02*
X10179706Y-16526436D01*
X10532087Y-16545484D02*
X10532087Y-16345484D01*
X10617801Y-16545484D02*
X10617801Y-16440722D01*
X10617801Y-16440722D02*
X10608277Y-16421674D01*
X10608277Y-16421674D02*
X10589230Y-16412150D01*
X10589230Y-16412150D02*
X10560658Y-16412150D01*
X10560658Y-16412150D02*
X10541611Y-16421674D01*
X10541611Y-16421674D02*
X10532087Y-16431198D01*
X10741611Y-16545484D02*
X10722563Y-16535960D01*
X10722563Y-16535960D02*
X10713039Y-16526436D01*
X10713039Y-16526436D02*
X10703515Y-16507388D01*
X10703515Y-16507388D02*
X10703515Y-16450246D01*
X10703515Y-16450246D02*
X10713039Y-16431198D01*
X10713039Y-16431198D02*
X10722563Y-16421674D01*
X10722563Y-16421674D02*
X10741611Y-16412150D01*
X10741611Y-16412150D02*
X10770182Y-16412150D01*
X10770182Y-16412150D02*
X10789230Y-16421674D01*
X10789230Y-16421674D02*
X10798753Y-16431198D01*
X10798753Y-16431198D02*
X10808277Y-16450246D01*
X10808277Y-16450246D02*
X10808277Y-16507388D01*
X10808277Y-16507388D02*
X10798753Y-16526436D01*
X10798753Y-16526436D02*
X10789230Y-16535960D01*
X10789230Y-16535960D02*
X10770182Y-16545484D01*
X10770182Y-16545484D02*
X10741611Y-16545484D01*
X10922563Y-16545484D02*
X10903515Y-16535960D01*
X10903515Y-16535960D02*
X10893992Y-16516912D01*
X10893992Y-16516912D02*
X10893992Y-16345484D01*
X11074944Y-16535960D02*
X11055896Y-16545484D01*
X11055896Y-16545484D02*
X11017801Y-16545484D01*
X11017801Y-16545484D02*
X10998753Y-16535960D01*
X10998753Y-16535960D02*
X10989230Y-16516912D01*
X10989230Y-16516912D02*
X10989230Y-16440722D01*
X10989230Y-16440722D02*
X10998753Y-16421674D01*
X10998753Y-16421674D02*
X11017801Y-16412150D01*
X11017801Y-16412150D02*
X11055896Y-16412150D01*
X11055896Y-16412150D02*
X11074944Y-16421674D01*
X11074944Y-16421674D02*
X11084468Y-16440722D01*
X11084468Y-16440722D02*
X11084468Y-16459769D01*
X11084468Y-16459769D02*
X10989230Y-16478817D01*
X11160658Y-16535960D02*
X11179706Y-16545484D01*
X11179706Y-16545484D02*
X11217801Y-16545484D01*
X11217801Y-16545484D02*
X11236849Y-16535960D01*
X11236849Y-16535960D02*
X11246372Y-16516912D01*
X11246372Y-16516912D02*
X11246372Y-16507388D01*
X11246372Y-16507388D02*
X11236849Y-16488341D01*
X11236849Y-16488341D02*
X11217801Y-16478817D01*
X11217801Y-16478817D02*
X11189230Y-16478817D01*
X11189230Y-16478817D02*
X11170182Y-16469293D01*
X11170182Y-16469293D02*
X11160658Y-16450246D01*
X11160658Y-16450246D02*
X11160658Y-16440722D01*
X11160658Y-16440722D02*
X11170182Y-16421674D01*
X11170182Y-16421674D02*
X11189230Y-16412150D01*
X11189230Y-16412150D02*
X11217801Y-16412150D01*
X11217801Y-16412150D02*
X11236849Y-16421674D01*
X11313039Y-16621674D02*
X11322563Y-16612150D01*
X11322563Y-16612150D02*
X11341611Y-16583579D01*
X11341611Y-16583579D02*
X11351134Y-16564531D01*
X11351134Y-16564531D02*
X11360658Y-16535960D01*
X11360658Y-16535960D02*
X11370182Y-16488341D01*
X11370182Y-16488341D02*
X11370182Y-16450246D01*
X11370182Y-16450246D02*
X11360658Y-16402627D01*
X11360658Y-16402627D02*
X11351134Y-16374055D01*
X11351134Y-16374055D02*
X11341611Y-16355008D01*
X11341611Y-16355008D02*
X11322563Y-16326436D01*
X11322563Y-16326436D02*
X11313039Y-16316912D01*
D12*
X6347500Y-16718000D02*
G75*
G02*
X6277500Y-16718000I-35000J0D01*
G01*
X6277500Y-16718000D02*
G75*
G02*
X6347500Y-16718000I35000J0D01*
G01*
D11*
X6646372Y-16609484D02*
X6665420Y-16609484D01*
X6665420Y-16609484D02*
X6684467Y-16619008D01*
X6684467Y-16619008D02*
X6693991Y-16628531D01*
X6693991Y-16628531D02*
X6703515Y-16647579D01*
X6703515Y-16647579D02*
X6713039Y-16685674D01*
X6713039Y-16685674D02*
X6713039Y-16733293D01*
X6713039Y-16733293D02*
X6703515Y-16771388D01*
X6703515Y-16771388D02*
X6693991Y-16790436D01*
X6693991Y-16790436D02*
X6684467Y-16799960D01*
X6684467Y-16799960D02*
X6665420Y-16809484D01*
X6665420Y-16809484D02*
X6646372Y-16809484D01*
X6646372Y-16809484D02*
X6627324Y-16799960D01*
X6627324Y-16799960D02*
X6617801Y-16790436D01*
X6617801Y-16790436D02*
X6608277Y-16771388D01*
X6608277Y-16771388D02*
X6598753Y-16733293D01*
X6598753Y-16733293D02*
X6598753Y-16685674D01*
X6598753Y-16685674D02*
X6608277Y-16647579D01*
X6608277Y-16647579D02*
X6617801Y-16628531D01*
X6617801Y-16628531D02*
X6627324Y-16619008D01*
X6627324Y-16619008D02*
X6646372Y-16609484D01*
X6798753Y-16790436D02*
X6808277Y-16799960D01*
X6808277Y-16799960D02*
X6798753Y-16809484D01*
X6798753Y-16809484D02*
X6789229Y-16799960D01*
X6789229Y-16799960D02*
X6798753Y-16790436D01*
X6798753Y-16790436D02*
X6798753Y-16809484D01*
X6874943Y-16609484D02*
X7008277Y-16609484D01*
X7008277Y-16609484D02*
X6922562Y-16809484D01*
X7122562Y-16609484D02*
X7141610Y-16609484D01*
X7141610Y-16609484D02*
X7160658Y-16619008D01*
X7160658Y-16619008D02*
X7170182Y-16628531D01*
X7170182Y-16628531D02*
X7179705Y-16647579D01*
X7179705Y-16647579D02*
X7189229Y-16685674D01*
X7189229Y-16685674D02*
X7189229Y-16733293D01*
X7189229Y-16733293D02*
X7179705Y-16771388D01*
X7179705Y-16771388D02*
X7170182Y-16790436D01*
X7170182Y-16790436D02*
X7160658Y-16799960D01*
X7160658Y-16799960D02*
X7141610Y-16809484D01*
X7141610Y-16809484D02*
X7122562Y-16809484D01*
X7122562Y-16809484D02*
X7103515Y-16799960D01*
X7103515Y-16799960D02*
X7093991Y-16790436D01*
X7093991Y-16790436D02*
X7084467Y-16771388D01*
X7084467Y-16771388D02*
X7074943Y-16733293D01*
X7074943Y-16733293D02*
X7074943Y-16685674D01*
X7074943Y-16685674D02*
X7084467Y-16647579D01*
X7084467Y-16647579D02*
X7093991Y-16628531D01*
X7093991Y-16628531D02*
X7103515Y-16619008D01*
X7103515Y-16619008D02*
X7122562Y-16609484D01*
X7313039Y-16609484D02*
X7332086Y-16609484D01*
X7332086Y-16609484D02*
X7351134Y-16619008D01*
X7351134Y-16619008D02*
X7360658Y-16628531D01*
X7360658Y-16628531D02*
X7370182Y-16647579D01*
X7370182Y-16647579D02*
X7379705Y-16685674D01*
X7379705Y-16685674D02*
X7379705Y-16733293D01*
X7379705Y-16733293D02*
X7370182Y-16771388D01*
X7370182Y-16771388D02*
X7360658Y-16790436D01*
X7360658Y-16790436D02*
X7351134Y-16799960D01*
X7351134Y-16799960D02*
X7332086Y-16809484D01*
X7332086Y-16809484D02*
X7313039Y-16809484D01*
X7313039Y-16809484D02*
X7293991Y-16799960D01*
X7293991Y-16799960D02*
X7284467Y-16790436D01*
X7284467Y-16790436D02*
X7274943Y-16771388D01*
X7274943Y-16771388D02*
X7265420Y-16733293D01*
X7265420Y-16733293D02*
X7265420Y-16685674D01*
X7265420Y-16685674D02*
X7274943Y-16647579D01*
X7274943Y-16647579D02*
X7284467Y-16628531D01*
X7284467Y-16628531D02*
X7293991Y-16619008D01*
X7293991Y-16619008D02*
X7313039Y-16609484D01*
X7465420Y-16809484D02*
X7465420Y-16676150D01*
X7465420Y-16695198D02*
X7474943Y-16685674D01*
X7474943Y-16685674D02*
X7493991Y-16676150D01*
X7493991Y-16676150D02*
X7522563Y-16676150D01*
X7522563Y-16676150D02*
X7541610Y-16685674D01*
X7541610Y-16685674D02*
X7551134Y-16704722D01*
X7551134Y-16704722D02*
X7551134Y-16809484D01*
X7551134Y-16704722D02*
X7560658Y-16685674D01*
X7560658Y-16685674D02*
X7579705Y-16676150D01*
X7579705Y-16676150D02*
X7608277Y-16676150D01*
X7608277Y-16676150D02*
X7627324Y-16685674D01*
X7627324Y-16685674D02*
X7636848Y-16704722D01*
X7636848Y-16704722D02*
X7636848Y-16809484D01*
X7732086Y-16809484D02*
X7732086Y-16676150D01*
X7732086Y-16695198D02*
X7741610Y-16685674D01*
X7741610Y-16685674D02*
X7760658Y-16676150D01*
X7760658Y-16676150D02*
X7789229Y-16676150D01*
X7789229Y-16676150D02*
X7808277Y-16685674D01*
X7808277Y-16685674D02*
X7817801Y-16704722D01*
X7817801Y-16704722D02*
X7817801Y-16809484D01*
X7817801Y-16704722D02*
X7827324Y-16685674D01*
X7827324Y-16685674D02*
X7846372Y-16676150D01*
X7846372Y-16676150D02*
X7874943Y-16676150D01*
X7874943Y-16676150D02*
X7893991Y-16685674D01*
X7893991Y-16685674D02*
X7903515Y-16704722D01*
X7903515Y-16704722D02*
X7903515Y-16809484D01*
X8293991Y-16599960D02*
X8122563Y-16857103D01*
X8551134Y-16609484D02*
X8570182Y-16609484D01*
X8570182Y-16609484D02*
X8589229Y-16619008D01*
X8589229Y-16619008D02*
X8598753Y-16628531D01*
X8598753Y-16628531D02*
X8608277Y-16647579D01*
X8608277Y-16647579D02*
X8617801Y-16685674D01*
X8617801Y-16685674D02*
X8617801Y-16733293D01*
X8617801Y-16733293D02*
X8608277Y-16771388D01*
X8608277Y-16771388D02*
X8598753Y-16790436D01*
X8598753Y-16790436D02*
X8589229Y-16799960D01*
X8589229Y-16799960D02*
X8570182Y-16809484D01*
X8570182Y-16809484D02*
X8551134Y-16809484D01*
X8551134Y-16809484D02*
X8532087Y-16799960D01*
X8532087Y-16799960D02*
X8522563Y-16790436D01*
X8522563Y-16790436D02*
X8513039Y-16771388D01*
X8513039Y-16771388D02*
X8503515Y-16733293D01*
X8503515Y-16733293D02*
X8503515Y-16685674D01*
X8503515Y-16685674D02*
X8513039Y-16647579D01*
X8513039Y-16647579D02*
X8522563Y-16628531D01*
X8522563Y-16628531D02*
X8532087Y-16619008D01*
X8532087Y-16619008D02*
X8551134Y-16609484D01*
X8703515Y-16790436D02*
X8713039Y-16799960D01*
X8713039Y-16799960D02*
X8703515Y-16809484D01*
X8703515Y-16809484D02*
X8693991Y-16799960D01*
X8693991Y-16799960D02*
X8703515Y-16790436D01*
X8703515Y-16790436D02*
X8703515Y-16809484D01*
X8836848Y-16609484D02*
X8855896Y-16609484D01*
X8855896Y-16609484D02*
X8874944Y-16619008D01*
X8874944Y-16619008D02*
X8884468Y-16628531D01*
X8884468Y-16628531D02*
X8893991Y-16647579D01*
X8893991Y-16647579D02*
X8903515Y-16685674D01*
X8903515Y-16685674D02*
X8903515Y-16733293D01*
X8903515Y-16733293D02*
X8893991Y-16771388D01*
X8893991Y-16771388D02*
X8884468Y-16790436D01*
X8884468Y-16790436D02*
X8874944Y-16799960D01*
X8874944Y-16799960D02*
X8855896Y-16809484D01*
X8855896Y-16809484D02*
X8836848Y-16809484D01*
X8836848Y-16809484D02*
X8817801Y-16799960D01*
X8817801Y-16799960D02*
X8808277Y-16790436D01*
X8808277Y-16790436D02*
X8798753Y-16771388D01*
X8798753Y-16771388D02*
X8789229Y-16733293D01*
X8789229Y-16733293D02*
X8789229Y-16685674D01*
X8789229Y-16685674D02*
X8798753Y-16647579D01*
X8798753Y-16647579D02*
X8808277Y-16628531D01*
X8808277Y-16628531D02*
X8817801Y-16619008D01*
X8817801Y-16619008D02*
X8836848Y-16609484D01*
X8979706Y-16628531D02*
X8989229Y-16619008D01*
X8989229Y-16619008D02*
X9008277Y-16609484D01*
X9008277Y-16609484D02*
X9055896Y-16609484D01*
X9055896Y-16609484D02*
X9074944Y-16619008D01*
X9074944Y-16619008D02*
X9084468Y-16628531D01*
X9084468Y-16628531D02*
X9093991Y-16647579D01*
X9093991Y-16647579D02*
X9093991Y-16666627D01*
X9093991Y-16666627D02*
X9084468Y-16695198D01*
X9084468Y-16695198D02*
X8970182Y-16809484D01*
X8970182Y-16809484D02*
X9093991Y-16809484D01*
X9160658Y-16609484D02*
X9293991Y-16609484D01*
X9293991Y-16609484D02*
X9208277Y-16809484D01*
X9455896Y-16609484D02*
X9417801Y-16609484D01*
X9417801Y-16609484D02*
X9398753Y-16619008D01*
X9398753Y-16619008D02*
X9389229Y-16628531D01*
X9389229Y-16628531D02*
X9370182Y-16657103D01*
X9370182Y-16657103D02*
X9360658Y-16695198D01*
X9360658Y-16695198D02*
X9360658Y-16771388D01*
X9360658Y-16771388D02*
X9370182Y-16790436D01*
X9370182Y-16790436D02*
X9379706Y-16799960D01*
X9379706Y-16799960D02*
X9398753Y-16809484D01*
X9398753Y-16809484D02*
X9436849Y-16809484D01*
X9436849Y-16809484D02*
X9455896Y-16799960D01*
X9455896Y-16799960D02*
X9465420Y-16790436D01*
X9465420Y-16790436D02*
X9474944Y-16771388D01*
X9474944Y-16771388D02*
X9474944Y-16723769D01*
X9474944Y-16723769D02*
X9465420Y-16704722D01*
X9465420Y-16704722D02*
X9455896Y-16695198D01*
X9455896Y-16695198D02*
X9436849Y-16685674D01*
X9436849Y-16685674D02*
X9398753Y-16685674D01*
X9398753Y-16685674D02*
X9379706Y-16695198D01*
X9379706Y-16695198D02*
X9370182Y-16704722D01*
X9370182Y-16704722D02*
X9360658Y-16723769D01*
X9551134Y-16609484D02*
X9551134Y-16647579D01*
X9627325Y-16609484D02*
X9627325Y-16647579D01*
X9922563Y-16885674D02*
X9913039Y-16876150D01*
X9913039Y-16876150D02*
X9893991Y-16847579D01*
X9893991Y-16847579D02*
X9884468Y-16828531D01*
X9884468Y-16828531D02*
X9874944Y-16799960D01*
X9874944Y-16799960D02*
X9865420Y-16752341D01*
X9865420Y-16752341D02*
X9865420Y-16714246D01*
X9865420Y-16714246D02*
X9874944Y-16666627D01*
X9874944Y-16666627D02*
X9884468Y-16638055D01*
X9884468Y-16638055D02*
X9893991Y-16619008D01*
X9893991Y-16619008D02*
X9913039Y-16590436D01*
X9913039Y-16590436D02*
X9922563Y-16580912D01*
X10103515Y-16809484D02*
X9989230Y-16809484D01*
X10046372Y-16809484D02*
X10046372Y-16609484D01*
X10046372Y-16609484D02*
X10027325Y-16638055D01*
X10027325Y-16638055D02*
X10008277Y-16657103D01*
X10008277Y-16657103D02*
X9989230Y-16666627D01*
X10227325Y-16609484D02*
X10246372Y-16609484D01*
X10246372Y-16609484D02*
X10265420Y-16619008D01*
X10265420Y-16619008D02*
X10274944Y-16628531D01*
X10274944Y-16628531D02*
X10284468Y-16647579D01*
X10284468Y-16647579D02*
X10293991Y-16685674D01*
X10293991Y-16685674D02*
X10293991Y-16733293D01*
X10293991Y-16733293D02*
X10284468Y-16771388D01*
X10284468Y-16771388D02*
X10274944Y-16790436D01*
X10274944Y-16790436D02*
X10265420Y-16799960D01*
X10265420Y-16799960D02*
X10246372Y-16809484D01*
X10246372Y-16809484D02*
X10227325Y-16809484D01*
X10227325Y-16809484D02*
X10208277Y-16799960D01*
X10208277Y-16799960D02*
X10198753Y-16790436D01*
X10198753Y-16790436D02*
X10189230Y-16771388D01*
X10189230Y-16771388D02*
X10179706Y-16733293D01*
X10179706Y-16733293D02*
X10179706Y-16685674D01*
X10179706Y-16685674D02*
X10189230Y-16647579D01*
X10189230Y-16647579D02*
X10198753Y-16628531D01*
X10198753Y-16628531D02*
X10208277Y-16619008D01*
X10208277Y-16619008D02*
X10227325Y-16609484D01*
X10532087Y-16809484D02*
X10532087Y-16609484D01*
X10617801Y-16809484D02*
X10617801Y-16704722D01*
X10617801Y-16704722D02*
X10608277Y-16685674D01*
X10608277Y-16685674D02*
X10589230Y-16676150D01*
X10589230Y-16676150D02*
X10560658Y-16676150D01*
X10560658Y-16676150D02*
X10541611Y-16685674D01*
X10541611Y-16685674D02*
X10532087Y-16695198D01*
X10741611Y-16809484D02*
X10722563Y-16799960D01*
X10722563Y-16799960D02*
X10713039Y-16790436D01*
X10713039Y-16790436D02*
X10703515Y-16771388D01*
X10703515Y-16771388D02*
X10703515Y-16714246D01*
X10703515Y-16714246D02*
X10713039Y-16695198D01*
X10713039Y-16695198D02*
X10722563Y-16685674D01*
X10722563Y-16685674D02*
X10741611Y-16676150D01*
X10741611Y-16676150D02*
X10770182Y-16676150D01*
X10770182Y-16676150D02*
X10789230Y-16685674D01*
X10789230Y-16685674D02*
X10798753Y-16695198D01*
X10798753Y-16695198D02*
X10808277Y-16714246D01*
X10808277Y-16714246D02*
X10808277Y-16771388D01*
X10808277Y-16771388D02*
X10798753Y-16790436D01*
X10798753Y-16790436D02*
X10789230Y-16799960D01*
X10789230Y-16799960D02*
X10770182Y-16809484D01*
X10770182Y-16809484D02*
X10741611Y-16809484D01*
X10922563Y-16809484D02*
X10903515Y-16799960D01*
X10903515Y-16799960D02*
X10893992Y-16780912D01*
X10893992Y-16780912D02*
X10893992Y-16609484D01*
X11074944Y-16799960D02*
X11055896Y-16809484D01*
X11055896Y-16809484D02*
X11017801Y-16809484D01*
X11017801Y-16809484D02*
X10998753Y-16799960D01*
X10998753Y-16799960D02*
X10989230Y-16780912D01*
X10989230Y-16780912D02*
X10989230Y-16704722D01*
X10989230Y-16704722D02*
X10998753Y-16685674D01*
X10998753Y-16685674D02*
X11017801Y-16676150D01*
X11017801Y-16676150D02*
X11055896Y-16676150D01*
X11055896Y-16676150D02*
X11074944Y-16685674D01*
X11074944Y-16685674D02*
X11084468Y-16704722D01*
X11084468Y-16704722D02*
X11084468Y-16723769D01*
X11084468Y-16723769D02*
X10989230Y-16742817D01*
X11160658Y-16799960D02*
X11179706Y-16809484D01*
X11179706Y-16809484D02*
X11217801Y-16809484D01*
X11217801Y-16809484D02*
X11236849Y-16799960D01*
X11236849Y-16799960D02*
X11246372Y-16780912D01*
X11246372Y-16780912D02*
X11246372Y-16771388D01*
X11246372Y-16771388D02*
X11236849Y-16752341D01*
X11236849Y-16752341D02*
X11217801Y-16742817D01*
X11217801Y-16742817D02*
X11189230Y-16742817D01*
X11189230Y-16742817D02*
X11170182Y-16733293D01*
X11170182Y-16733293D02*
X11160658Y-16714246D01*
X11160658Y-16714246D02*
X11160658Y-16704722D01*
X11160658Y-16704722D02*
X11170182Y-16685674D01*
X11170182Y-16685674D02*
X11189230Y-16676150D01*
X11189230Y-16676150D02*
X11217801Y-16676150D01*
X11217801Y-16676150D02*
X11236849Y-16685674D01*
X11313039Y-16885674D02*
X11322563Y-16876150D01*
X11322563Y-16876150D02*
X11341611Y-16847579D01*
X11341611Y-16847579D02*
X11351134Y-16828531D01*
X11351134Y-16828531D02*
X11360658Y-16799960D01*
X11360658Y-16799960D02*
X11370182Y-16752341D01*
X11370182Y-16752341D02*
X11370182Y-16714246D01*
X11370182Y-16714246D02*
X11360658Y-16666627D01*
X11360658Y-16666627D02*
X11351134Y-16638055D01*
X11351134Y-16638055D02*
X11341611Y-16619008D01*
X11341611Y-16619008D02*
X11322563Y-16590436D01*
X11322563Y-16590436D02*
X11313039Y-16580912D01*
D12*
X6307500Y-16942000D02*
X6307500Y-17022000D01*
X6267500Y-16982000D02*
X6347500Y-16982000D01*
D11*
X6646372Y-16873484D02*
X6665420Y-16873484D01*
X6665420Y-16873484D02*
X6684467Y-16883008D01*
X6684467Y-16883008D02*
X6693991Y-16892531D01*
X6693991Y-16892531D02*
X6703515Y-16911579D01*
X6703515Y-16911579D02*
X6713039Y-16949674D01*
X6713039Y-16949674D02*
X6713039Y-16997293D01*
X6713039Y-16997293D02*
X6703515Y-17035389D01*
X6703515Y-17035389D02*
X6693991Y-17054436D01*
X6693991Y-17054436D02*
X6684467Y-17063960D01*
X6684467Y-17063960D02*
X6665420Y-17073484D01*
X6665420Y-17073484D02*
X6646372Y-17073484D01*
X6646372Y-17073484D02*
X6627324Y-17063960D01*
X6627324Y-17063960D02*
X6617801Y-17054436D01*
X6617801Y-17054436D02*
X6608277Y-17035389D01*
X6608277Y-17035389D02*
X6598753Y-16997293D01*
X6598753Y-16997293D02*
X6598753Y-16949674D01*
X6598753Y-16949674D02*
X6608277Y-16911579D01*
X6608277Y-16911579D02*
X6617801Y-16892531D01*
X6617801Y-16892531D02*
X6627324Y-16883008D01*
X6627324Y-16883008D02*
X6646372Y-16873484D01*
X6798753Y-17054436D02*
X6808277Y-17063960D01*
X6808277Y-17063960D02*
X6798753Y-17073484D01*
X6798753Y-17073484D02*
X6789229Y-17063960D01*
X6789229Y-17063960D02*
X6798753Y-17054436D01*
X6798753Y-17054436D02*
X6798753Y-17073484D01*
X6922562Y-16959198D02*
X6903515Y-16949674D01*
X6903515Y-16949674D02*
X6893991Y-16940150D01*
X6893991Y-16940150D02*
X6884467Y-16921103D01*
X6884467Y-16921103D02*
X6884467Y-16911579D01*
X6884467Y-16911579D02*
X6893991Y-16892531D01*
X6893991Y-16892531D02*
X6903515Y-16883008D01*
X6903515Y-16883008D02*
X6922562Y-16873484D01*
X6922562Y-16873484D02*
X6960658Y-16873484D01*
X6960658Y-16873484D02*
X6979705Y-16883008D01*
X6979705Y-16883008D02*
X6989229Y-16892531D01*
X6989229Y-16892531D02*
X6998753Y-16911579D01*
X6998753Y-16911579D02*
X6998753Y-16921103D01*
X6998753Y-16921103D02*
X6989229Y-16940150D01*
X6989229Y-16940150D02*
X6979705Y-16949674D01*
X6979705Y-16949674D02*
X6960658Y-16959198D01*
X6960658Y-16959198D02*
X6922562Y-16959198D01*
X6922562Y-16959198D02*
X6903515Y-16968722D01*
X6903515Y-16968722D02*
X6893991Y-16978246D01*
X6893991Y-16978246D02*
X6884467Y-16997293D01*
X6884467Y-16997293D02*
X6884467Y-17035389D01*
X6884467Y-17035389D02*
X6893991Y-17054436D01*
X6893991Y-17054436D02*
X6903515Y-17063960D01*
X6903515Y-17063960D02*
X6922562Y-17073484D01*
X6922562Y-17073484D02*
X6960658Y-17073484D01*
X6960658Y-17073484D02*
X6979705Y-17063960D01*
X6979705Y-17063960D02*
X6989229Y-17054436D01*
X6989229Y-17054436D02*
X6998753Y-17035389D01*
X6998753Y-17035389D02*
X6998753Y-16997293D01*
X6998753Y-16997293D02*
X6989229Y-16978246D01*
X6989229Y-16978246D02*
X6979705Y-16968722D01*
X6979705Y-16968722D02*
X6960658Y-16959198D01*
X7122562Y-16873484D02*
X7141610Y-16873484D01*
X7141610Y-16873484D02*
X7160658Y-16883008D01*
X7160658Y-16883008D02*
X7170182Y-16892531D01*
X7170182Y-16892531D02*
X7179705Y-16911579D01*
X7179705Y-16911579D02*
X7189229Y-16949674D01*
X7189229Y-16949674D02*
X7189229Y-16997293D01*
X7189229Y-16997293D02*
X7179705Y-17035389D01*
X7179705Y-17035389D02*
X7170182Y-17054436D01*
X7170182Y-17054436D02*
X7160658Y-17063960D01*
X7160658Y-17063960D02*
X7141610Y-17073484D01*
X7141610Y-17073484D02*
X7122562Y-17073484D01*
X7122562Y-17073484D02*
X7103515Y-17063960D01*
X7103515Y-17063960D02*
X7093991Y-17054436D01*
X7093991Y-17054436D02*
X7084467Y-17035389D01*
X7084467Y-17035389D02*
X7074943Y-16997293D01*
X7074943Y-16997293D02*
X7074943Y-16949674D01*
X7074943Y-16949674D02*
X7084467Y-16911579D01*
X7084467Y-16911579D02*
X7093991Y-16892531D01*
X7093991Y-16892531D02*
X7103515Y-16883008D01*
X7103515Y-16883008D02*
X7122562Y-16873484D01*
X7313039Y-16873484D02*
X7332086Y-16873484D01*
X7332086Y-16873484D02*
X7351134Y-16883008D01*
X7351134Y-16883008D02*
X7360658Y-16892531D01*
X7360658Y-16892531D02*
X7370182Y-16911579D01*
X7370182Y-16911579D02*
X7379705Y-16949674D01*
X7379705Y-16949674D02*
X7379705Y-16997293D01*
X7379705Y-16997293D02*
X7370182Y-17035389D01*
X7370182Y-17035389D02*
X7360658Y-17054436D01*
X7360658Y-17054436D02*
X7351134Y-17063960D01*
X7351134Y-17063960D02*
X7332086Y-17073484D01*
X7332086Y-17073484D02*
X7313039Y-17073484D01*
X7313039Y-17073484D02*
X7293991Y-17063960D01*
X7293991Y-17063960D02*
X7284467Y-17054436D01*
X7284467Y-17054436D02*
X7274943Y-17035389D01*
X7274943Y-17035389D02*
X7265420Y-16997293D01*
X7265420Y-16997293D02*
X7265420Y-16949674D01*
X7265420Y-16949674D02*
X7274943Y-16911579D01*
X7274943Y-16911579D02*
X7284467Y-16892531D01*
X7284467Y-16892531D02*
X7293991Y-16883008D01*
X7293991Y-16883008D02*
X7313039Y-16873484D01*
X7465420Y-17073484D02*
X7465420Y-16940150D01*
X7465420Y-16959198D02*
X7474943Y-16949674D01*
X7474943Y-16949674D02*
X7493991Y-16940150D01*
X7493991Y-16940150D02*
X7522563Y-16940150D01*
X7522563Y-16940150D02*
X7541610Y-16949674D01*
X7541610Y-16949674D02*
X7551134Y-16968722D01*
X7551134Y-16968722D02*
X7551134Y-17073484D01*
X7551134Y-16968722D02*
X7560658Y-16949674D01*
X7560658Y-16949674D02*
X7579705Y-16940150D01*
X7579705Y-16940150D02*
X7608277Y-16940150D01*
X7608277Y-16940150D02*
X7627324Y-16949674D01*
X7627324Y-16949674D02*
X7636848Y-16968722D01*
X7636848Y-16968722D02*
X7636848Y-17073484D01*
X7732086Y-17073484D02*
X7732086Y-16940150D01*
X7732086Y-16959198D02*
X7741610Y-16949674D01*
X7741610Y-16949674D02*
X7760658Y-16940150D01*
X7760658Y-16940150D02*
X7789229Y-16940150D01*
X7789229Y-16940150D02*
X7808277Y-16949674D01*
X7808277Y-16949674D02*
X7817801Y-16968722D01*
X7817801Y-16968722D02*
X7817801Y-17073484D01*
X7817801Y-16968722D02*
X7827324Y-16949674D01*
X7827324Y-16949674D02*
X7846372Y-16940150D01*
X7846372Y-16940150D02*
X7874943Y-16940150D01*
X7874943Y-16940150D02*
X7893991Y-16949674D01*
X7893991Y-16949674D02*
X7903515Y-16968722D01*
X7903515Y-16968722D02*
X7903515Y-17073484D01*
X8293991Y-16863960D02*
X8122563Y-17121103D01*
X8551134Y-16873484D02*
X8570182Y-16873484D01*
X8570182Y-16873484D02*
X8589229Y-16883008D01*
X8589229Y-16883008D02*
X8598753Y-16892531D01*
X8598753Y-16892531D02*
X8608277Y-16911579D01*
X8608277Y-16911579D02*
X8617801Y-16949674D01*
X8617801Y-16949674D02*
X8617801Y-16997293D01*
X8617801Y-16997293D02*
X8608277Y-17035389D01*
X8608277Y-17035389D02*
X8598753Y-17054436D01*
X8598753Y-17054436D02*
X8589229Y-17063960D01*
X8589229Y-17063960D02*
X8570182Y-17073484D01*
X8570182Y-17073484D02*
X8551134Y-17073484D01*
X8551134Y-17073484D02*
X8532087Y-17063960D01*
X8532087Y-17063960D02*
X8522563Y-17054436D01*
X8522563Y-17054436D02*
X8513039Y-17035389D01*
X8513039Y-17035389D02*
X8503515Y-16997293D01*
X8503515Y-16997293D02*
X8503515Y-16949674D01*
X8503515Y-16949674D02*
X8513039Y-16911579D01*
X8513039Y-16911579D02*
X8522563Y-16892531D01*
X8522563Y-16892531D02*
X8532087Y-16883008D01*
X8532087Y-16883008D02*
X8551134Y-16873484D01*
X8703515Y-17054436D02*
X8713039Y-17063960D01*
X8713039Y-17063960D02*
X8703515Y-17073484D01*
X8703515Y-17073484D02*
X8693991Y-17063960D01*
X8693991Y-17063960D02*
X8703515Y-17054436D01*
X8703515Y-17054436D02*
X8703515Y-17073484D01*
X8836848Y-16873484D02*
X8855896Y-16873484D01*
X8855896Y-16873484D02*
X8874944Y-16883008D01*
X8874944Y-16883008D02*
X8884468Y-16892531D01*
X8884468Y-16892531D02*
X8893991Y-16911579D01*
X8893991Y-16911579D02*
X8903515Y-16949674D01*
X8903515Y-16949674D02*
X8903515Y-16997293D01*
X8903515Y-16997293D02*
X8893991Y-17035389D01*
X8893991Y-17035389D02*
X8884468Y-17054436D01*
X8884468Y-17054436D02*
X8874944Y-17063960D01*
X8874944Y-17063960D02*
X8855896Y-17073484D01*
X8855896Y-17073484D02*
X8836848Y-17073484D01*
X8836848Y-17073484D02*
X8817801Y-17063960D01*
X8817801Y-17063960D02*
X8808277Y-17054436D01*
X8808277Y-17054436D02*
X8798753Y-17035389D01*
X8798753Y-17035389D02*
X8789229Y-16997293D01*
X8789229Y-16997293D02*
X8789229Y-16949674D01*
X8789229Y-16949674D02*
X8798753Y-16911579D01*
X8798753Y-16911579D02*
X8808277Y-16892531D01*
X8808277Y-16892531D02*
X8817801Y-16883008D01*
X8817801Y-16883008D02*
X8836848Y-16873484D01*
X8970182Y-16873484D02*
X9093991Y-16873484D01*
X9093991Y-16873484D02*
X9027325Y-16949674D01*
X9027325Y-16949674D02*
X9055896Y-16949674D01*
X9055896Y-16949674D02*
X9074944Y-16959198D01*
X9074944Y-16959198D02*
X9084468Y-16968722D01*
X9084468Y-16968722D02*
X9093991Y-16987770D01*
X9093991Y-16987770D02*
X9093991Y-17035389D01*
X9093991Y-17035389D02*
X9084468Y-17054436D01*
X9084468Y-17054436D02*
X9074944Y-17063960D01*
X9074944Y-17063960D02*
X9055896Y-17073484D01*
X9055896Y-17073484D02*
X8998753Y-17073484D01*
X8998753Y-17073484D02*
X8979706Y-17063960D01*
X8979706Y-17063960D02*
X8970182Y-17054436D01*
X9284468Y-17073484D02*
X9170182Y-17073484D01*
X9227325Y-17073484D02*
X9227325Y-16873484D01*
X9227325Y-16873484D02*
X9208277Y-16902055D01*
X9208277Y-16902055D02*
X9189229Y-16921103D01*
X9189229Y-16921103D02*
X9170182Y-16930627D01*
X9465420Y-16873484D02*
X9370182Y-16873484D01*
X9370182Y-16873484D02*
X9360658Y-16968722D01*
X9360658Y-16968722D02*
X9370182Y-16959198D01*
X9370182Y-16959198D02*
X9389229Y-16949674D01*
X9389229Y-16949674D02*
X9436849Y-16949674D01*
X9436849Y-16949674D02*
X9455896Y-16959198D01*
X9455896Y-16959198D02*
X9465420Y-16968722D01*
X9465420Y-16968722D02*
X9474944Y-16987770D01*
X9474944Y-16987770D02*
X9474944Y-17035389D01*
X9474944Y-17035389D02*
X9465420Y-17054436D01*
X9465420Y-17054436D02*
X9455896Y-17063960D01*
X9455896Y-17063960D02*
X9436849Y-17073484D01*
X9436849Y-17073484D02*
X9389229Y-17073484D01*
X9389229Y-17073484D02*
X9370182Y-17063960D01*
X9370182Y-17063960D02*
X9360658Y-17054436D01*
X9551134Y-16873484D02*
X9551134Y-16911579D01*
X9627325Y-16873484D02*
X9627325Y-16911579D01*
X9922563Y-17149674D02*
X9913039Y-17140150D01*
X9913039Y-17140150D02*
X9893991Y-17111579D01*
X9893991Y-17111579D02*
X9884468Y-17092531D01*
X9884468Y-17092531D02*
X9874944Y-17063960D01*
X9874944Y-17063960D02*
X9865420Y-17016341D01*
X9865420Y-17016341D02*
X9865420Y-16978246D01*
X9865420Y-16978246D02*
X9874944Y-16930627D01*
X9874944Y-16930627D02*
X9884468Y-16902055D01*
X9884468Y-16902055D02*
X9893991Y-16883008D01*
X9893991Y-16883008D02*
X9913039Y-16854436D01*
X9913039Y-16854436D02*
X9922563Y-16844912D01*
X10103515Y-17073484D02*
X9989230Y-17073484D01*
X10046372Y-17073484D02*
X10046372Y-16873484D01*
X10046372Y-16873484D02*
X10027325Y-16902055D01*
X10027325Y-16902055D02*
X10008277Y-16921103D01*
X10008277Y-16921103D02*
X9989230Y-16930627D01*
X10293991Y-17073484D02*
X10179706Y-17073484D01*
X10236849Y-17073484D02*
X10236849Y-16873484D01*
X10236849Y-16873484D02*
X10217801Y-16902055D01*
X10217801Y-16902055D02*
X10198753Y-16921103D01*
X10198753Y-16921103D02*
X10179706Y-16930627D01*
X10408277Y-16959198D02*
X10389230Y-16949674D01*
X10389230Y-16949674D02*
X10379706Y-16940150D01*
X10379706Y-16940150D02*
X10370182Y-16921103D01*
X10370182Y-16921103D02*
X10370182Y-16911579D01*
X10370182Y-16911579D02*
X10379706Y-16892531D01*
X10379706Y-16892531D02*
X10389230Y-16883008D01*
X10389230Y-16883008D02*
X10408277Y-16873484D01*
X10408277Y-16873484D02*
X10446372Y-16873484D01*
X10446372Y-16873484D02*
X10465420Y-16883008D01*
X10465420Y-16883008D02*
X10474944Y-16892531D01*
X10474944Y-16892531D02*
X10484468Y-16911579D01*
X10484468Y-16911579D02*
X10484468Y-16921103D01*
X10484468Y-16921103D02*
X10474944Y-16940150D01*
X10474944Y-16940150D02*
X10465420Y-16949674D01*
X10465420Y-16949674D02*
X10446372Y-16959198D01*
X10446372Y-16959198D02*
X10408277Y-16959198D01*
X10408277Y-16959198D02*
X10389230Y-16968722D01*
X10389230Y-16968722D02*
X10379706Y-16978246D01*
X10379706Y-16978246D02*
X10370182Y-16997293D01*
X10370182Y-16997293D02*
X10370182Y-17035389D01*
X10370182Y-17035389D02*
X10379706Y-17054436D01*
X10379706Y-17054436D02*
X10389230Y-17063960D01*
X10389230Y-17063960D02*
X10408277Y-17073484D01*
X10408277Y-17073484D02*
X10446372Y-17073484D01*
X10446372Y-17073484D02*
X10465420Y-17063960D01*
X10465420Y-17063960D02*
X10474944Y-17054436D01*
X10474944Y-17054436D02*
X10484468Y-17035389D01*
X10484468Y-17035389D02*
X10484468Y-16997293D01*
X10484468Y-16997293D02*
X10474944Y-16978246D01*
X10474944Y-16978246D02*
X10465420Y-16968722D01*
X10465420Y-16968722D02*
X10446372Y-16959198D01*
X10722563Y-17073484D02*
X10722563Y-16873484D01*
X10808277Y-17073484D02*
X10808277Y-16968722D01*
X10808277Y-16968722D02*
X10798753Y-16949674D01*
X10798753Y-16949674D02*
X10779706Y-16940150D01*
X10779706Y-16940150D02*
X10751134Y-16940150D01*
X10751134Y-16940150D02*
X10732087Y-16949674D01*
X10732087Y-16949674D02*
X10722563Y-16959198D01*
X10932087Y-17073484D02*
X10913039Y-17063960D01*
X10913039Y-17063960D02*
X10903515Y-17054436D01*
X10903515Y-17054436D02*
X10893992Y-17035389D01*
X10893992Y-17035389D02*
X10893992Y-16978246D01*
X10893992Y-16978246D02*
X10903515Y-16959198D01*
X10903515Y-16959198D02*
X10913039Y-16949674D01*
X10913039Y-16949674D02*
X10932087Y-16940150D01*
X10932087Y-16940150D02*
X10960658Y-16940150D01*
X10960658Y-16940150D02*
X10979706Y-16949674D01*
X10979706Y-16949674D02*
X10989230Y-16959198D01*
X10989230Y-16959198D02*
X10998753Y-16978246D01*
X10998753Y-16978246D02*
X10998753Y-17035389D01*
X10998753Y-17035389D02*
X10989230Y-17054436D01*
X10989230Y-17054436D02*
X10979706Y-17063960D01*
X10979706Y-17063960D02*
X10960658Y-17073484D01*
X10960658Y-17073484D02*
X10932087Y-17073484D01*
X11113039Y-17073484D02*
X11093992Y-17063960D01*
X11093992Y-17063960D02*
X11084468Y-17044912D01*
X11084468Y-17044912D02*
X11084468Y-16873484D01*
X11265420Y-17063960D02*
X11246372Y-17073484D01*
X11246372Y-17073484D02*
X11208277Y-17073484D01*
X11208277Y-17073484D02*
X11189230Y-17063960D01*
X11189230Y-17063960D02*
X11179706Y-17044912D01*
X11179706Y-17044912D02*
X11179706Y-16968722D01*
X11179706Y-16968722D02*
X11189230Y-16949674D01*
X11189230Y-16949674D02*
X11208277Y-16940150D01*
X11208277Y-16940150D02*
X11246372Y-16940150D01*
X11246372Y-16940150D02*
X11265420Y-16949674D01*
X11265420Y-16949674D02*
X11274944Y-16968722D01*
X11274944Y-16968722D02*
X11274944Y-16987770D01*
X11274944Y-16987770D02*
X11179706Y-17006817D01*
X11351134Y-17063960D02*
X11370182Y-17073484D01*
X11370182Y-17073484D02*
X11408277Y-17073484D01*
X11408277Y-17073484D02*
X11427325Y-17063960D01*
X11427325Y-17063960D02*
X11436849Y-17044912D01*
X11436849Y-17044912D02*
X11436849Y-17035389D01*
X11436849Y-17035389D02*
X11427325Y-17016341D01*
X11427325Y-17016341D02*
X11408277Y-17006817D01*
X11408277Y-17006817D02*
X11379706Y-17006817D01*
X11379706Y-17006817D02*
X11360658Y-16997293D01*
X11360658Y-16997293D02*
X11351134Y-16978246D01*
X11351134Y-16978246D02*
X11351134Y-16968722D01*
X11351134Y-16968722D02*
X11360658Y-16949674D01*
X11360658Y-16949674D02*
X11379706Y-16940150D01*
X11379706Y-16940150D02*
X11408277Y-16940150D01*
X11408277Y-16940150D02*
X11427325Y-16949674D01*
X11503515Y-17149674D02*
X11513039Y-17140150D01*
X11513039Y-17140150D02*
X11532087Y-17111579D01*
X11532087Y-17111579D02*
X11541611Y-17092531D01*
X11541611Y-17092531D02*
X11551134Y-17063960D01*
X11551134Y-17063960D02*
X11560658Y-17016341D01*
X11560658Y-17016341D02*
X11560658Y-16978246D01*
X11560658Y-16978246D02*
X11551134Y-16930627D01*
X11551134Y-16930627D02*
X11541611Y-16902055D01*
X11541611Y-16902055D02*
X11532087Y-16883008D01*
X11532087Y-16883008D02*
X11513039Y-16854436D01*
X11513039Y-16854436D02*
X11503515Y-16844912D01*
D12*
X6334320Y-17277820D02*
X6334320Y-17214180D01*
X6270680Y-17214180D01*
X6270680Y-17277820D01*
X6334320Y-17277820D01*
D11*
X6646372Y-17137484D02*
X6665420Y-17137484D01*
X6665420Y-17137484D02*
X6684467Y-17147008D01*
X6684467Y-17147008D02*
X6693991Y-17156531D01*
X6693991Y-17156531D02*
X6703515Y-17175579D01*
X6703515Y-17175579D02*
X6713039Y-17213674D01*
X6713039Y-17213674D02*
X6713039Y-17261293D01*
X6713039Y-17261293D02*
X6703515Y-17299389D01*
X6703515Y-17299389D02*
X6693991Y-17318436D01*
X6693991Y-17318436D02*
X6684467Y-17327960D01*
X6684467Y-17327960D02*
X6665420Y-17337484D01*
X6665420Y-17337484D02*
X6646372Y-17337484D01*
X6646372Y-17337484D02*
X6627324Y-17327960D01*
X6627324Y-17327960D02*
X6617801Y-17318436D01*
X6617801Y-17318436D02*
X6608277Y-17299389D01*
X6608277Y-17299389D02*
X6598753Y-17261293D01*
X6598753Y-17261293D02*
X6598753Y-17213674D01*
X6598753Y-17213674D02*
X6608277Y-17175579D01*
X6608277Y-17175579D02*
X6617801Y-17156531D01*
X6617801Y-17156531D02*
X6627324Y-17147008D01*
X6627324Y-17147008D02*
X6646372Y-17137484D01*
X6798753Y-17318436D02*
X6808277Y-17327960D01*
X6808277Y-17327960D02*
X6798753Y-17337484D01*
X6798753Y-17337484D02*
X6789229Y-17327960D01*
X6789229Y-17327960D02*
X6798753Y-17318436D01*
X6798753Y-17318436D02*
X6798753Y-17337484D01*
X6903515Y-17337484D02*
X6941610Y-17337484D01*
X6941610Y-17337484D02*
X6960658Y-17327960D01*
X6960658Y-17327960D02*
X6970182Y-17318436D01*
X6970182Y-17318436D02*
X6989229Y-17289865D01*
X6989229Y-17289865D02*
X6998753Y-17251770D01*
X6998753Y-17251770D02*
X6998753Y-17175579D01*
X6998753Y-17175579D02*
X6989229Y-17156531D01*
X6989229Y-17156531D02*
X6979705Y-17147008D01*
X6979705Y-17147008D02*
X6960658Y-17137484D01*
X6960658Y-17137484D02*
X6922562Y-17137484D01*
X6922562Y-17137484D02*
X6903515Y-17147008D01*
X6903515Y-17147008D02*
X6893991Y-17156531D01*
X6893991Y-17156531D02*
X6884467Y-17175579D01*
X6884467Y-17175579D02*
X6884467Y-17223198D01*
X6884467Y-17223198D02*
X6893991Y-17242246D01*
X6893991Y-17242246D02*
X6903515Y-17251770D01*
X6903515Y-17251770D02*
X6922562Y-17261293D01*
X6922562Y-17261293D02*
X6960658Y-17261293D01*
X6960658Y-17261293D02*
X6979705Y-17251770D01*
X6979705Y-17251770D02*
X6989229Y-17242246D01*
X6989229Y-17242246D02*
X6998753Y-17223198D01*
X7122562Y-17137484D02*
X7141610Y-17137484D01*
X7141610Y-17137484D02*
X7160658Y-17147008D01*
X7160658Y-17147008D02*
X7170182Y-17156531D01*
X7170182Y-17156531D02*
X7179705Y-17175579D01*
X7179705Y-17175579D02*
X7189229Y-17213674D01*
X7189229Y-17213674D02*
X7189229Y-17261293D01*
X7189229Y-17261293D02*
X7179705Y-17299389D01*
X7179705Y-17299389D02*
X7170182Y-17318436D01*
X7170182Y-17318436D02*
X7160658Y-17327960D01*
X7160658Y-17327960D02*
X7141610Y-17337484D01*
X7141610Y-17337484D02*
X7122562Y-17337484D01*
X7122562Y-17337484D02*
X7103515Y-17327960D01*
X7103515Y-17327960D02*
X7093991Y-17318436D01*
X7093991Y-17318436D02*
X7084467Y-17299389D01*
X7084467Y-17299389D02*
X7074943Y-17261293D01*
X7074943Y-17261293D02*
X7074943Y-17213674D01*
X7074943Y-17213674D02*
X7084467Y-17175579D01*
X7084467Y-17175579D02*
X7093991Y-17156531D01*
X7093991Y-17156531D02*
X7103515Y-17147008D01*
X7103515Y-17147008D02*
X7122562Y-17137484D01*
X7313039Y-17137484D02*
X7332086Y-17137484D01*
X7332086Y-17137484D02*
X7351134Y-17147008D01*
X7351134Y-17147008D02*
X7360658Y-17156531D01*
X7360658Y-17156531D02*
X7370182Y-17175579D01*
X7370182Y-17175579D02*
X7379705Y-17213674D01*
X7379705Y-17213674D02*
X7379705Y-17261293D01*
X7379705Y-17261293D02*
X7370182Y-17299389D01*
X7370182Y-17299389D02*
X7360658Y-17318436D01*
X7360658Y-17318436D02*
X7351134Y-17327960D01*
X7351134Y-17327960D02*
X7332086Y-17337484D01*
X7332086Y-17337484D02*
X7313039Y-17337484D01*
X7313039Y-17337484D02*
X7293991Y-17327960D01*
X7293991Y-17327960D02*
X7284467Y-17318436D01*
X7284467Y-17318436D02*
X7274943Y-17299389D01*
X7274943Y-17299389D02*
X7265420Y-17261293D01*
X7265420Y-17261293D02*
X7265420Y-17213674D01*
X7265420Y-17213674D02*
X7274943Y-17175579D01*
X7274943Y-17175579D02*
X7284467Y-17156531D01*
X7284467Y-17156531D02*
X7293991Y-17147008D01*
X7293991Y-17147008D02*
X7313039Y-17137484D01*
X7465420Y-17337484D02*
X7465420Y-17204150D01*
X7465420Y-17223198D02*
X7474943Y-17213674D01*
X7474943Y-17213674D02*
X7493991Y-17204150D01*
X7493991Y-17204150D02*
X7522563Y-17204150D01*
X7522563Y-17204150D02*
X7541610Y-17213674D01*
X7541610Y-17213674D02*
X7551134Y-17232722D01*
X7551134Y-17232722D02*
X7551134Y-17337484D01*
X7551134Y-17232722D02*
X7560658Y-17213674D01*
X7560658Y-17213674D02*
X7579705Y-17204150D01*
X7579705Y-17204150D02*
X7608277Y-17204150D01*
X7608277Y-17204150D02*
X7627324Y-17213674D01*
X7627324Y-17213674D02*
X7636848Y-17232722D01*
X7636848Y-17232722D02*
X7636848Y-17337484D01*
X7732086Y-17337484D02*
X7732086Y-17204150D01*
X7732086Y-17223198D02*
X7741610Y-17213674D01*
X7741610Y-17213674D02*
X7760658Y-17204150D01*
X7760658Y-17204150D02*
X7789229Y-17204150D01*
X7789229Y-17204150D02*
X7808277Y-17213674D01*
X7808277Y-17213674D02*
X7817801Y-17232722D01*
X7817801Y-17232722D02*
X7817801Y-17337484D01*
X7817801Y-17232722D02*
X7827324Y-17213674D01*
X7827324Y-17213674D02*
X7846372Y-17204150D01*
X7846372Y-17204150D02*
X7874943Y-17204150D01*
X7874943Y-17204150D02*
X7893991Y-17213674D01*
X7893991Y-17213674D02*
X7903515Y-17232722D01*
X7903515Y-17232722D02*
X7903515Y-17337484D01*
X8293991Y-17127960D02*
X8122563Y-17385103D01*
X8551134Y-17137484D02*
X8570182Y-17137484D01*
X8570182Y-17137484D02*
X8589229Y-17147008D01*
X8589229Y-17147008D02*
X8598753Y-17156531D01*
X8598753Y-17156531D02*
X8608277Y-17175579D01*
X8608277Y-17175579D02*
X8617801Y-17213674D01*
X8617801Y-17213674D02*
X8617801Y-17261293D01*
X8617801Y-17261293D02*
X8608277Y-17299389D01*
X8608277Y-17299389D02*
X8598753Y-17318436D01*
X8598753Y-17318436D02*
X8589229Y-17327960D01*
X8589229Y-17327960D02*
X8570182Y-17337484D01*
X8570182Y-17337484D02*
X8551134Y-17337484D01*
X8551134Y-17337484D02*
X8532087Y-17327960D01*
X8532087Y-17327960D02*
X8522563Y-17318436D01*
X8522563Y-17318436D02*
X8513039Y-17299389D01*
X8513039Y-17299389D02*
X8503515Y-17261293D01*
X8503515Y-17261293D02*
X8503515Y-17213674D01*
X8503515Y-17213674D02*
X8513039Y-17175579D01*
X8513039Y-17175579D02*
X8522563Y-17156531D01*
X8522563Y-17156531D02*
X8532087Y-17147008D01*
X8532087Y-17147008D02*
X8551134Y-17137484D01*
X8703515Y-17318436D02*
X8713039Y-17327960D01*
X8713039Y-17327960D02*
X8703515Y-17337484D01*
X8703515Y-17337484D02*
X8693991Y-17327960D01*
X8693991Y-17327960D02*
X8703515Y-17318436D01*
X8703515Y-17318436D02*
X8703515Y-17337484D01*
X8836848Y-17137484D02*
X8855896Y-17137484D01*
X8855896Y-17137484D02*
X8874944Y-17147008D01*
X8874944Y-17147008D02*
X8884468Y-17156531D01*
X8884468Y-17156531D02*
X8893991Y-17175579D01*
X8893991Y-17175579D02*
X8903515Y-17213674D01*
X8903515Y-17213674D02*
X8903515Y-17261293D01*
X8903515Y-17261293D02*
X8893991Y-17299389D01*
X8893991Y-17299389D02*
X8884468Y-17318436D01*
X8884468Y-17318436D02*
X8874944Y-17327960D01*
X8874944Y-17327960D02*
X8855896Y-17337484D01*
X8855896Y-17337484D02*
X8836848Y-17337484D01*
X8836848Y-17337484D02*
X8817801Y-17327960D01*
X8817801Y-17327960D02*
X8808277Y-17318436D01*
X8808277Y-17318436D02*
X8798753Y-17299389D01*
X8798753Y-17299389D02*
X8789229Y-17261293D01*
X8789229Y-17261293D02*
X8789229Y-17213674D01*
X8789229Y-17213674D02*
X8798753Y-17175579D01*
X8798753Y-17175579D02*
X8808277Y-17156531D01*
X8808277Y-17156531D02*
X8817801Y-17147008D01*
X8817801Y-17147008D02*
X8836848Y-17137484D01*
X8970182Y-17137484D02*
X9093991Y-17137484D01*
X9093991Y-17137484D02*
X9027325Y-17213674D01*
X9027325Y-17213674D02*
X9055896Y-17213674D01*
X9055896Y-17213674D02*
X9074944Y-17223198D01*
X9074944Y-17223198D02*
X9084468Y-17232722D01*
X9084468Y-17232722D02*
X9093991Y-17251770D01*
X9093991Y-17251770D02*
X9093991Y-17299389D01*
X9093991Y-17299389D02*
X9084468Y-17318436D01*
X9084468Y-17318436D02*
X9074944Y-17327960D01*
X9074944Y-17327960D02*
X9055896Y-17337484D01*
X9055896Y-17337484D02*
X8998753Y-17337484D01*
X8998753Y-17337484D02*
X8979706Y-17327960D01*
X8979706Y-17327960D02*
X8970182Y-17318436D01*
X9274944Y-17137484D02*
X9179706Y-17137484D01*
X9179706Y-17137484D02*
X9170182Y-17232722D01*
X9170182Y-17232722D02*
X9179706Y-17223198D01*
X9179706Y-17223198D02*
X9198753Y-17213674D01*
X9198753Y-17213674D02*
X9246372Y-17213674D01*
X9246372Y-17213674D02*
X9265420Y-17223198D01*
X9265420Y-17223198D02*
X9274944Y-17232722D01*
X9274944Y-17232722D02*
X9284468Y-17251770D01*
X9284468Y-17251770D02*
X9284468Y-17299389D01*
X9284468Y-17299389D02*
X9274944Y-17318436D01*
X9274944Y-17318436D02*
X9265420Y-17327960D01*
X9265420Y-17327960D02*
X9246372Y-17337484D01*
X9246372Y-17337484D02*
X9198753Y-17337484D01*
X9198753Y-17337484D02*
X9179706Y-17327960D01*
X9179706Y-17327960D02*
X9170182Y-17318436D01*
X9455896Y-17204150D02*
X9455896Y-17337484D01*
X9408277Y-17127960D02*
X9360658Y-17270817D01*
X9360658Y-17270817D02*
X9484468Y-17270817D01*
X9551134Y-17137484D02*
X9551134Y-17175579D01*
X9627325Y-17137484D02*
X9627325Y-17175579D01*
X9922563Y-17413674D02*
X9913039Y-17404150D01*
X9913039Y-17404150D02*
X9893991Y-17375579D01*
X9893991Y-17375579D02*
X9884468Y-17356531D01*
X9884468Y-17356531D02*
X9874944Y-17327960D01*
X9874944Y-17327960D02*
X9865420Y-17280341D01*
X9865420Y-17280341D02*
X9865420Y-17242246D01*
X9865420Y-17242246D02*
X9874944Y-17194627D01*
X9874944Y-17194627D02*
X9884468Y-17166055D01*
X9884468Y-17166055D02*
X9893991Y-17147008D01*
X9893991Y-17147008D02*
X9913039Y-17118436D01*
X9913039Y-17118436D02*
X9922563Y-17108912D01*
X10084468Y-17137484D02*
X10046372Y-17137484D01*
X10046372Y-17137484D02*
X10027325Y-17147008D01*
X10027325Y-17147008D02*
X10017801Y-17156531D01*
X10017801Y-17156531D02*
X9998753Y-17185103D01*
X9998753Y-17185103D02*
X9989230Y-17223198D01*
X9989230Y-17223198D02*
X9989230Y-17299389D01*
X9989230Y-17299389D02*
X9998753Y-17318436D01*
X9998753Y-17318436D02*
X10008277Y-17327960D01*
X10008277Y-17327960D02*
X10027325Y-17337484D01*
X10027325Y-17337484D02*
X10065420Y-17337484D01*
X10065420Y-17337484D02*
X10084468Y-17327960D01*
X10084468Y-17327960D02*
X10093991Y-17318436D01*
X10093991Y-17318436D02*
X10103515Y-17299389D01*
X10103515Y-17299389D02*
X10103515Y-17251770D01*
X10103515Y-17251770D02*
X10093991Y-17232722D01*
X10093991Y-17232722D02*
X10084468Y-17223198D01*
X10084468Y-17223198D02*
X10065420Y-17213674D01*
X10065420Y-17213674D02*
X10027325Y-17213674D01*
X10027325Y-17213674D02*
X10008277Y-17223198D01*
X10008277Y-17223198D02*
X9998753Y-17232722D01*
X9998753Y-17232722D02*
X9989230Y-17251770D01*
X10341611Y-17337484D02*
X10341611Y-17137484D01*
X10427325Y-17337484D02*
X10427325Y-17232722D01*
X10427325Y-17232722D02*
X10417801Y-17213674D01*
X10417801Y-17213674D02*
X10398753Y-17204150D01*
X10398753Y-17204150D02*
X10370182Y-17204150D01*
X10370182Y-17204150D02*
X10351134Y-17213674D01*
X10351134Y-17213674D02*
X10341611Y-17223198D01*
X10551134Y-17337484D02*
X10532087Y-17327960D01*
X10532087Y-17327960D02*
X10522563Y-17318436D01*
X10522563Y-17318436D02*
X10513039Y-17299389D01*
X10513039Y-17299389D02*
X10513039Y-17242246D01*
X10513039Y-17242246D02*
X10522563Y-17223198D01*
X10522563Y-17223198D02*
X10532087Y-17213674D01*
X10532087Y-17213674D02*
X10551134Y-17204150D01*
X10551134Y-17204150D02*
X10579706Y-17204150D01*
X10579706Y-17204150D02*
X10598753Y-17213674D01*
X10598753Y-17213674D02*
X10608277Y-17223198D01*
X10608277Y-17223198D02*
X10617801Y-17242246D01*
X10617801Y-17242246D02*
X10617801Y-17299389D01*
X10617801Y-17299389D02*
X10608277Y-17318436D01*
X10608277Y-17318436D02*
X10598753Y-17327960D01*
X10598753Y-17327960D02*
X10579706Y-17337484D01*
X10579706Y-17337484D02*
X10551134Y-17337484D01*
X10732087Y-17337484D02*
X10713039Y-17327960D01*
X10713039Y-17327960D02*
X10703515Y-17308912D01*
X10703515Y-17308912D02*
X10703515Y-17137484D01*
X10884468Y-17327960D02*
X10865420Y-17337484D01*
X10865420Y-17337484D02*
X10827325Y-17337484D01*
X10827325Y-17337484D02*
X10808277Y-17327960D01*
X10808277Y-17327960D02*
X10798753Y-17308912D01*
X10798753Y-17308912D02*
X10798753Y-17232722D01*
X10798753Y-17232722D02*
X10808277Y-17213674D01*
X10808277Y-17213674D02*
X10827325Y-17204150D01*
X10827325Y-17204150D02*
X10865420Y-17204150D01*
X10865420Y-17204150D02*
X10884468Y-17213674D01*
X10884468Y-17213674D02*
X10893992Y-17232722D01*
X10893992Y-17232722D02*
X10893992Y-17251770D01*
X10893992Y-17251770D02*
X10798753Y-17270817D01*
X10970182Y-17327960D02*
X10989230Y-17337484D01*
X10989230Y-17337484D02*
X11027325Y-17337484D01*
X11027325Y-17337484D02*
X11046373Y-17327960D01*
X11046373Y-17327960D02*
X11055896Y-17308912D01*
X11055896Y-17308912D02*
X11055896Y-17299389D01*
X11055896Y-17299389D02*
X11046373Y-17280341D01*
X11046373Y-17280341D02*
X11027325Y-17270817D01*
X11027325Y-17270817D02*
X10998753Y-17270817D01*
X10998753Y-17270817D02*
X10979706Y-17261293D01*
X10979706Y-17261293D02*
X10970182Y-17242246D01*
X10970182Y-17242246D02*
X10970182Y-17232722D01*
X10970182Y-17232722D02*
X10979706Y-17213674D01*
X10979706Y-17213674D02*
X10998753Y-17204150D01*
X10998753Y-17204150D02*
X11027325Y-17204150D01*
X11027325Y-17204150D02*
X11046373Y-17213674D01*
X11122563Y-17413674D02*
X11132087Y-17404150D01*
X11132087Y-17404150D02*
X11151134Y-17375579D01*
X11151134Y-17375579D02*
X11160658Y-17356531D01*
X11160658Y-17356531D02*
X11170182Y-17327960D01*
X11170182Y-17327960D02*
X11179706Y-17280341D01*
X11179706Y-17280341D02*
X11179706Y-17242246D01*
X11179706Y-17242246D02*
X11170182Y-17194627D01*
X11170182Y-17194627D02*
X11160658Y-17166055D01*
X11160658Y-17166055D02*
X11151134Y-17147008D01*
X11151134Y-17147008D02*
X11132087Y-17118436D01*
X11132087Y-17118436D02*
X11122563Y-17108912D01*
D12*
X6297500Y-17560000D02*
X6347500Y-17510000D01*
X6297500Y-17460000D01*
X6247500Y-17510000D01*
X6297500Y-17560000D01*
D11*
X6713039Y-17601484D02*
X6598753Y-17601484D01*
X6655896Y-17601484D02*
X6655896Y-17401484D01*
X6655896Y-17401484D02*
X6636848Y-17430055D01*
X6636848Y-17430055D02*
X6617801Y-17449103D01*
X6617801Y-17449103D02*
X6598753Y-17458627D01*
X6798753Y-17582436D02*
X6808277Y-17591960D01*
X6808277Y-17591960D02*
X6798753Y-17601484D01*
X6798753Y-17601484D02*
X6789229Y-17591960D01*
X6789229Y-17591960D02*
X6798753Y-17582436D01*
X6798753Y-17582436D02*
X6798753Y-17601484D01*
X6932086Y-17401484D02*
X6951134Y-17401484D01*
X6951134Y-17401484D02*
X6970182Y-17411008D01*
X6970182Y-17411008D02*
X6979705Y-17420531D01*
X6979705Y-17420531D02*
X6989229Y-17439579D01*
X6989229Y-17439579D02*
X6998753Y-17477674D01*
X6998753Y-17477674D02*
X6998753Y-17525293D01*
X6998753Y-17525293D02*
X6989229Y-17563389D01*
X6989229Y-17563389D02*
X6979705Y-17582436D01*
X6979705Y-17582436D02*
X6970182Y-17591960D01*
X6970182Y-17591960D02*
X6951134Y-17601484D01*
X6951134Y-17601484D02*
X6932086Y-17601484D01*
X6932086Y-17601484D02*
X6913039Y-17591960D01*
X6913039Y-17591960D02*
X6903515Y-17582436D01*
X6903515Y-17582436D02*
X6893991Y-17563389D01*
X6893991Y-17563389D02*
X6884467Y-17525293D01*
X6884467Y-17525293D02*
X6884467Y-17477674D01*
X6884467Y-17477674D02*
X6893991Y-17439579D01*
X6893991Y-17439579D02*
X6903515Y-17420531D01*
X6903515Y-17420531D02*
X6913039Y-17411008D01*
X6913039Y-17411008D02*
X6932086Y-17401484D01*
X7122562Y-17401484D02*
X7141610Y-17401484D01*
X7141610Y-17401484D02*
X7160658Y-17411008D01*
X7160658Y-17411008D02*
X7170182Y-17420531D01*
X7170182Y-17420531D02*
X7179705Y-17439579D01*
X7179705Y-17439579D02*
X7189229Y-17477674D01*
X7189229Y-17477674D02*
X7189229Y-17525293D01*
X7189229Y-17525293D02*
X7179705Y-17563389D01*
X7179705Y-17563389D02*
X7170182Y-17582436D01*
X7170182Y-17582436D02*
X7160658Y-17591960D01*
X7160658Y-17591960D02*
X7141610Y-17601484D01*
X7141610Y-17601484D02*
X7122562Y-17601484D01*
X7122562Y-17601484D02*
X7103515Y-17591960D01*
X7103515Y-17591960D02*
X7093991Y-17582436D01*
X7093991Y-17582436D02*
X7084467Y-17563389D01*
X7084467Y-17563389D02*
X7074943Y-17525293D01*
X7074943Y-17525293D02*
X7074943Y-17477674D01*
X7074943Y-17477674D02*
X7084467Y-17439579D01*
X7084467Y-17439579D02*
X7093991Y-17420531D01*
X7093991Y-17420531D02*
X7103515Y-17411008D01*
X7103515Y-17411008D02*
X7122562Y-17401484D01*
X7313039Y-17401484D02*
X7332086Y-17401484D01*
X7332086Y-17401484D02*
X7351134Y-17411008D01*
X7351134Y-17411008D02*
X7360658Y-17420531D01*
X7360658Y-17420531D02*
X7370182Y-17439579D01*
X7370182Y-17439579D02*
X7379705Y-17477674D01*
X7379705Y-17477674D02*
X7379705Y-17525293D01*
X7379705Y-17525293D02*
X7370182Y-17563389D01*
X7370182Y-17563389D02*
X7360658Y-17582436D01*
X7360658Y-17582436D02*
X7351134Y-17591960D01*
X7351134Y-17591960D02*
X7332086Y-17601484D01*
X7332086Y-17601484D02*
X7313039Y-17601484D01*
X7313039Y-17601484D02*
X7293991Y-17591960D01*
X7293991Y-17591960D02*
X7284467Y-17582436D01*
X7284467Y-17582436D02*
X7274943Y-17563389D01*
X7274943Y-17563389D02*
X7265420Y-17525293D01*
X7265420Y-17525293D02*
X7265420Y-17477674D01*
X7265420Y-17477674D02*
X7274943Y-17439579D01*
X7274943Y-17439579D02*
X7284467Y-17420531D01*
X7284467Y-17420531D02*
X7293991Y-17411008D01*
X7293991Y-17411008D02*
X7313039Y-17401484D01*
X7465420Y-17601484D02*
X7465420Y-17468150D01*
X7465420Y-17487198D02*
X7474943Y-17477674D01*
X7474943Y-17477674D02*
X7493991Y-17468150D01*
X7493991Y-17468150D02*
X7522563Y-17468150D01*
X7522563Y-17468150D02*
X7541610Y-17477674D01*
X7541610Y-17477674D02*
X7551134Y-17496722D01*
X7551134Y-17496722D02*
X7551134Y-17601484D01*
X7551134Y-17496722D02*
X7560658Y-17477674D01*
X7560658Y-17477674D02*
X7579705Y-17468150D01*
X7579705Y-17468150D02*
X7608277Y-17468150D01*
X7608277Y-17468150D02*
X7627324Y-17477674D01*
X7627324Y-17477674D02*
X7636848Y-17496722D01*
X7636848Y-17496722D02*
X7636848Y-17601484D01*
X7732086Y-17601484D02*
X7732086Y-17468150D01*
X7732086Y-17487198D02*
X7741610Y-17477674D01*
X7741610Y-17477674D02*
X7760658Y-17468150D01*
X7760658Y-17468150D02*
X7789229Y-17468150D01*
X7789229Y-17468150D02*
X7808277Y-17477674D01*
X7808277Y-17477674D02*
X7817801Y-17496722D01*
X7817801Y-17496722D02*
X7817801Y-17601484D01*
X7817801Y-17496722D02*
X7827324Y-17477674D01*
X7827324Y-17477674D02*
X7846372Y-17468150D01*
X7846372Y-17468150D02*
X7874943Y-17468150D01*
X7874943Y-17468150D02*
X7893991Y-17477674D01*
X7893991Y-17477674D02*
X7903515Y-17496722D01*
X7903515Y-17496722D02*
X7903515Y-17601484D01*
X8293991Y-17391960D02*
X8122563Y-17649103D01*
X8551134Y-17401484D02*
X8570182Y-17401484D01*
X8570182Y-17401484D02*
X8589229Y-17411008D01*
X8589229Y-17411008D02*
X8598753Y-17420531D01*
X8598753Y-17420531D02*
X8608277Y-17439579D01*
X8608277Y-17439579D02*
X8617801Y-17477674D01*
X8617801Y-17477674D02*
X8617801Y-17525293D01*
X8617801Y-17525293D02*
X8608277Y-17563389D01*
X8608277Y-17563389D02*
X8598753Y-17582436D01*
X8598753Y-17582436D02*
X8589229Y-17591960D01*
X8589229Y-17591960D02*
X8570182Y-17601484D01*
X8570182Y-17601484D02*
X8551134Y-17601484D01*
X8551134Y-17601484D02*
X8532087Y-17591960D01*
X8532087Y-17591960D02*
X8522563Y-17582436D01*
X8522563Y-17582436D02*
X8513039Y-17563389D01*
X8513039Y-17563389D02*
X8503515Y-17525293D01*
X8503515Y-17525293D02*
X8503515Y-17477674D01*
X8503515Y-17477674D02*
X8513039Y-17439579D01*
X8513039Y-17439579D02*
X8522563Y-17420531D01*
X8522563Y-17420531D02*
X8532087Y-17411008D01*
X8532087Y-17411008D02*
X8551134Y-17401484D01*
X8703515Y-17582436D02*
X8713039Y-17591960D01*
X8713039Y-17591960D02*
X8703515Y-17601484D01*
X8703515Y-17601484D02*
X8693991Y-17591960D01*
X8693991Y-17591960D02*
X8703515Y-17582436D01*
X8703515Y-17582436D02*
X8703515Y-17601484D01*
X8836848Y-17401484D02*
X8855896Y-17401484D01*
X8855896Y-17401484D02*
X8874944Y-17411008D01*
X8874944Y-17411008D02*
X8884468Y-17420531D01*
X8884468Y-17420531D02*
X8893991Y-17439579D01*
X8893991Y-17439579D02*
X8903515Y-17477674D01*
X8903515Y-17477674D02*
X8903515Y-17525293D01*
X8903515Y-17525293D02*
X8893991Y-17563389D01*
X8893991Y-17563389D02*
X8884468Y-17582436D01*
X8884468Y-17582436D02*
X8874944Y-17591960D01*
X8874944Y-17591960D02*
X8855896Y-17601484D01*
X8855896Y-17601484D02*
X8836848Y-17601484D01*
X8836848Y-17601484D02*
X8817801Y-17591960D01*
X8817801Y-17591960D02*
X8808277Y-17582436D01*
X8808277Y-17582436D02*
X8798753Y-17563389D01*
X8798753Y-17563389D02*
X8789229Y-17525293D01*
X8789229Y-17525293D02*
X8789229Y-17477674D01*
X8789229Y-17477674D02*
X8798753Y-17439579D01*
X8798753Y-17439579D02*
X8808277Y-17420531D01*
X8808277Y-17420531D02*
X8817801Y-17411008D01*
X8817801Y-17411008D02*
X8836848Y-17401484D01*
X8970182Y-17401484D02*
X9093991Y-17401484D01*
X9093991Y-17401484D02*
X9027325Y-17477674D01*
X9027325Y-17477674D02*
X9055896Y-17477674D01*
X9055896Y-17477674D02*
X9074944Y-17487198D01*
X9074944Y-17487198D02*
X9084468Y-17496722D01*
X9084468Y-17496722D02*
X9093991Y-17515770D01*
X9093991Y-17515770D02*
X9093991Y-17563389D01*
X9093991Y-17563389D02*
X9084468Y-17582436D01*
X9084468Y-17582436D02*
X9074944Y-17591960D01*
X9074944Y-17591960D02*
X9055896Y-17601484D01*
X9055896Y-17601484D02*
X8998753Y-17601484D01*
X8998753Y-17601484D02*
X8979706Y-17591960D01*
X8979706Y-17591960D02*
X8970182Y-17582436D01*
X9189229Y-17601484D02*
X9227325Y-17601484D01*
X9227325Y-17601484D02*
X9246372Y-17591960D01*
X9246372Y-17591960D02*
X9255896Y-17582436D01*
X9255896Y-17582436D02*
X9274944Y-17553865D01*
X9274944Y-17553865D02*
X9284468Y-17515770D01*
X9284468Y-17515770D02*
X9284468Y-17439579D01*
X9284468Y-17439579D02*
X9274944Y-17420531D01*
X9274944Y-17420531D02*
X9265420Y-17411008D01*
X9265420Y-17411008D02*
X9246372Y-17401484D01*
X9246372Y-17401484D02*
X9208277Y-17401484D01*
X9208277Y-17401484D02*
X9189229Y-17411008D01*
X9189229Y-17411008D02*
X9179706Y-17420531D01*
X9179706Y-17420531D02*
X9170182Y-17439579D01*
X9170182Y-17439579D02*
X9170182Y-17487198D01*
X9170182Y-17487198D02*
X9179706Y-17506246D01*
X9179706Y-17506246D02*
X9189229Y-17515770D01*
X9189229Y-17515770D02*
X9208277Y-17525293D01*
X9208277Y-17525293D02*
X9246372Y-17525293D01*
X9246372Y-17525293D02*
X9265420Y-17515770D01*
X9265420Y-17515770D02*
X9274944Y-17506246D01*
X9274944Y-17506246D02*
X9284468Y-17487198D01*
X9455896Y-17468150D02*
X9455896Y-17601484D01*
X9408277Y-17391960D02*
X9360658Y-17534817D01*
X9360658Y-17534817D02*
X9484468Y-17534817D01*
X9551134Y-17401484D02*
X9551134Y-17439579D01*
X9627325Y-17401484D02*
X9627325Y-17439579D01*
X9922563Y-17677674D02*
X9913039Y-17668150D01*
X9913039Y-17668150D02*
X9893991Y-17639579D01*
X9893991Y-17639579D02*
X9884468Y-17620531D01*
X9884468Y-17620531D02*
X9874944Y-17591960D01*
X9874944Y-17591960D02*
X9865420Y-17544341D01*
X9865420Y-17544341D02*
X9865420Y-17506246D01*
X9865420Y-17506246D02*
X9874944Y-17458627D01*
X9874944Y-17458627D02*
X9884468Y-17430055D01*
X9884468Y-17430055D02*
X9893991Y-17411008D01*
X9893991Y-17411008D02*
X9913039Y-17382436D01*
X9913039Y-17382436D02*
X9922563Y-17372912D01*
X10084468Y-17468150D02*
X10084468Y-17601484D01*
X10036849Y-17391960D02*
X9989230Y-17534817D01*
X9989230Y-17534817D02*
X10113039Y-17534817D01*
X10170182Y-17401484D02*
X10303515Y-17401484D01*
X10303515Y-17401484D02*
X10217801Y-17601484D01*
X10532087Y-17601484D02*
X10532087Y-17401484D01*
X10617801Y-17601484D02*
X10617801Y-17496722D01*
X10617801Y-17496722D02*
X10608277Y-17477674D01*
X10608277Y-17477674D02*
X10589230Y-17468150D01*
X10589230Y-17468150D02*
X10560658Y-17468150D01*
X10560658Y-17468150D02*
X10541611Y-17477674D01*
X10541611Y-17477674D02*
X10532087Y-17487198D01*
X10741611Y-17601484D02*
X10722563Y-17591960D01*
X10722563Y-17591960D02*
X10713039Y-17582436D01*
X10713039Y-17582436D02*
X10703515Y-17563389D01*
X10703515Y-17563389D02*
X10703515Y-17506246D01*
X10703515Y-17506246D02*
X10713039Y-17487198D01*
X10713039Y-17487198D02*
X10722563Y-17477674D01*
X10722563Y-17477674D02*
X10741611Y-17468150D01*
X10741611Y-17468150D02*
X10770182Y-17468150D01*
X10770182Y-17468150D02*
X10789230Y-17477674D01*
X10789230Y-17477674D02*
X10798753Y-17487198D01*
X10798753Y-17487198D02*
X10808277Y-17506246D01*
X10808277Y-17506246D02*
X10808277Y-17563389D01*
X10808277Y-17563389D02*
X10798753Y-17582436D01*
X10798753Y-17582436D02*
X10789230Y-17591960D01*
X10789230Y-17591960D02*
X10770182Y-17601484D01*
X10770182Y-17601484D02*
X10741611Y-17601484D01*
X10922563Y-17601484D02*
X10903515Y-17591960D01*
X10903515Y-17591960D02*
X10893992Y-17572912D01*
X10893992Y-17572912D02*
X10893992Y-17401484D01*
X11074944Y-17591960D02*
X11055896Y-17601484D01*
X11055896Y-17601484D02*
X11017801Y-17601484D01*
X11017801Y-17601484D02*
X10998753Y-17591960D01*
X10998753Y-17591960D02*
X10989230Y-17572912D01*
X10989230Y-17572912D02*
X10989230Y-17496722D01*
X10989230Y-17496722D02*
X10998753Y-17477674D01*
X10998753Y-17477674D02*
X11017801Y-17468150D01*
X11017801Y-17468150D02*
X11055896Y-17468150D01*
X11055896Y-17468150D02*
X11074944Y-17477674D01*
X11074944Y-17477674D02*
X11084468Y-17496722D01*
X11084468Y-17496722D02*
X11084468Y-17515770D01*
X11084468Y-17515770D02*
X10989230Y-17534817D01*
X11160658Y-17591960D02*
X11179706Y-17601484D01*
X11179706Y-17601484D02*
X11217801Y-17601484D01*
X11217801Y-17601484D02*
X11236849Y-17591960D01*
X11236849Y-17591960D02*
X11246372Y-17572912D01*
X11246372Y-17572912D02*
X11246372Y-17563389D01*
X11246372Y-17563389D02*
X11236849Y-17544341D01*
X11236849Y-17544341D02*
X11217801Y-17534817D01*
X11217801Y-17534817D02*
X11189230Y-17534817D01*
X11189230Y-17534817D02*
X11170182Y-17525293D01*
X11170182Y-17525293D02*
X11160658Y-17506246D01*
X11160658Y-17506246D02*
X11160658Y-17496722D01*
X11160658Y-17496722D02*
X11170182Y-17477674D01*
X11170182Y-17477674D02*
X11189230Y-17468150D01*
X11189230Y-17468150D02*
X11217801Y-17468150D01*
X11217801Y-17468150D02*
X11236849Y-17477674D01*
X11313039Y-17677674D02*
X11322563Y-17668150D01*
X11322563Y-17668150D02*
X11341611Y-17639579D01*
X11341611Y-17639579D02*
X11351134Y-17620531D01*
X11351134Y-17620531D02*
X11360658Y-17591960D01*
X11360658Y-17591960D02*
X11370182Y-17544341D01*
X11370182Y-17544341D02*
X11370182Y-17506246D01*
X11370182Y-17506246D02*
X11360658Y-17458627D01*
X11360658Y-17458627D02*
X11351134Y-17430055D01*
X11351134Y-17430055D02*
X11341611Y-17411008D01*
X11341611Y-17411008D02*
X11322563Y-17382436D01*
X11322563Y-17382436D02*
X11313039Y-17372912D01*
D13*
X6237500Y-17719000D02*
X6347500Y-17829000D01*
X6347500Y-17719000D02*
X6237500Y-17829000D01*
X6347500Y-17774000D02*
G75*
G02*
X6237500Y-17774000I-55000J0D01*
G01*
X6237500Y-17774000D02*
G75*
G02*
X6347500Y-17774000I55000J0D01*
G01*
D11*
X6713039Y-17865484D02*
X6598753Y-17865484D01*
X6655896Y-17865484D02*
X6655896Y-17665484D01*
X6655896Y-17665484D02*
X6636848Y-17694055D01*
X6636848Y-17694055D02*
X6617801Y-17713103D01*
X6617801Y-17713103D02*
X6598753Y-17722627D01*
X6798753Y-17846436D02*
X6808277Y-17855960D01*
X6808277Y-17855960D02*
X6798753Y-17865484D01*
X6798753Y-17865484D02*
X6789229Y-17855960D01*
X6789229Y-17855960D02*
X6798753Y-17846436D01*
X6798753Y-17846436D02*
X6798753Y-17865484D01*
X6998753Y-17865484D02*
X6884467Y-17865484D01*
X6941610Y-17865484D02*
X6941610Y-17665484D01*
X6941610Y-17665484D02*
X6922562Y-17694055D01*
X6922562Y-17694055D02*
X6903515Y-17713103D01*
X6903515Y-17713103D02*
X6884467Y-17722627D01*
X7122562Y-17665484D02*
X7141610Y-17665484D01*
X7141610Y-17665484D02*
X7160658Y-17675008D01*
X7160658Y-17675008D02*
X7170182Y-17684531D01*
X7170182Y-17684531D02*
X7179705Y-17703579D01*
X7179705Y-17703579D02*
X7189229Y-17741674D01*
X7189229Y-17741674D02*
X7189229Y-17789293D01*
X7189229Y-17789293D02*
X7179705Y-17827389D01*
X7179705Y-17827389D02*
X7170182Y-17846436D01*
X7170182Y-17846436D02*
X7160658Y-17855960D01*
X7160658Y-17855960D02*
X7141610Y-17865484D01*
X7141610Y-17865484D02*
X7122562Y-17865484D01*
X7122562Y-17865484D02*
X7103515Y-17855960D01*
X7103515Y-17855960D02*
X7093991Y-17846436D01*
X7093991Y-17846436D02*
X7084467Y-17827389D01*
X7084467Y-17827389D02*
X7074943Y-17789293D01*
X7074943Y-17789293D02*
X7074943Y-17741674D01*
X7074943Y-17741674D02*
X7084467Y-17703579D01*
X7084467Y-17703579D02*
X7093991Y-17684531D01*
X7093991Y-17684531D02*
X7103515Y-17675008D01*
X7103515Y-17675008D02*
X7122562Y-17665484D01*
X7313039Y-17665484D02*
X7332086Y-17665484D01*
X7332086Y-17665484D02*
X7351134Y-17675008D01*
X7351134Y-17675008D02*
X7360658Y-17684531D01*
X7360658Y-17684531D02*
X7370182Y-17703579D01*
X7370182Y-17703579D02*
X7379705Y-17741674D01*
X7379705Y-17741674D02*
X7379705Y-17789293D01*
X7379705Y-17789293D02*
X7370182Y-17827389D01*
X7370182Y-17827389D02*
X7360658Y-17846436D01*
X7360658Y-17846436D02*
X7351134Y-17855960D01*
X7351134Y-17855960D02*
X7332086Y-17865484D01*
X7332086Y-17865484D02*
X7313039Y-17865484D01*
X7313039Y-17865484D02*
X7293991Y-17855960D01*
X7293991Y-17855960D02*
X7284467Y-17846436D01*
X7284467Y-17846436D02*
X7274943Y-17827389D01*
X7274943Y-17827389D02*
X7265420Y-17789293D01*
X7265420Y-17789293D02*
X7265420Y-17741674D01*
X7265420Y-17741674D02*
X7274943Y-17703579D01*
X7274943Y-17703579D02*
X7284467Y-17684531D01*
X7284467Y-17684531D02*
X7293991Y-17675008D01*
X7293991Y-17675008D02*
X7313039Y-17665484D01*
X7465420Y-17865484D02*
X7465420Y-17732150D01*
X7465420Y-17751198D02*
X7474943Y-17741674D01*
X7474943Y-17741674D02*
X7493991Y-17732150D01*
X7493991Y-17732150D02*
X7522563Y-17732150D01*
X7522563Y-17732150D02*
X7541610Y-17741674D01*
X7541610Y-17741674D02*
X7551134Y-17760722D01*
X7551134Y-17760722D02*
X7551134Y-17865484D01*
X7551134Y-17760722D02*
X7560658Y-17741674D01*
X7560658Y-17741674D02*
X7579705Y-17732150D01*
X7579705Y-17732150D02*
X7608277Y-17732150D01*
X7608277Y-17732150D02*
X7627324Y-17741674D01*
X7627324Y-17741674D02*
X7636848Y-17760722D01*
X7636848Y-17760722D02*
X7636848Y-17865484D01*
X7732086Y-17865484D02*
X7732086Y-17732150D01*
X7732086Y-17751198D02*
X7741610Y-17741674D01*
X7741610Y-17741674D02*
X7760658Y-17732150D01*
X7760658Y-17732150D02*
X7789229Y-17732150D01*
X7789229Y-17732150D02*
X7808277Y-17741674D01*
X7808277Y-17741674D02*
X7817801Y-17760722D01*
X7817801Y-17760722D02*
X7817801Y-17865484D01*
X7817801Y-17760722D02*
X7827324Y-17741674D01*
X7827324Y-17741674D02*
X7846372Y-17732150D01*
X7846372Y-17732150D02*
X7874943Y-17732150D01*
X7874943Y-17732150D02*
X7893991Y-17741674D01*
X7893991Y-17741674D02*
X7903515Y-17760722D01*
X7903515Y-17760722D02*
X7903515Y-17865484D01*
X8293991Y-17655960D02*
X8122563Y-17913103D01*
X8551134Y-17665484D02*
X8570182Y-17665484D01*
X8570182Y-17665484D02*
X8589229Y-17675008D01*
X8589229Y-17675008D02*
X8598753Y-17684531D01*
X8598753Y-17684531D02*
X8608277Y-17703579D01*
X8608277Y-17703579D02*
X8617801Y-17741674D01*
X8617801Y-17741674D02*
X8617801Y-17789293D01*
X8617801Y-17789293D02*
X8608277Y-17827389D01*
X8608277Y-17827389D02*
X8598753Y-17846436D01*
X8598753Y-17846436D02*
X8589229Y-17855960D01*
X8589229Y-17855960D02*
X8570182Y-17865484D01*
X8570182Y-17865484D02*
X8551134Y-17865484D01*
X8551134Y-17865484D02*
X8532087Y-17855960D01*
X8532087Y-17855960D02*
X8522563Y-17846436D01*
X8522563Y-17846436D02*
X8513039Y-17827389D01*
X8513039Y-17827389D02*
X8503515Y-17789293D01*
X8503515Y-17789293D02*
X8503515Y-17741674D01*
X8503515Y-17741674D02*
X8513039Y-17703579D01*
X8513039Y-17703579D02*
X8522563Y-17684531D01*
X8522563Y-17684531D02*
X8532087Y-17675008D01*
X8532087Y-17675008D02*
X8551134Y-17665484D01*
X8703515Y-17846436D02*
X8713039Y-17855960D01*
X8713039Y-17855960D02*
X8703515Y-17865484D01*
X8703515Y-17865484D02*
X8693991Y-17855960D01*
X8693991Y-17855960D02*
X8703515Y-17846436D01*
X8703515Y-17846436D02*
X8703515Y-17865484D01*
X8836848Y-17665484D02*
X8855896Y-17665484D01*
X8855896Y-17665484D02*
X8874944Y-17675008D01*
X8874944Y-17675008D02*
X8884468Y-17684531D01*
X8884468Y-17684531D02*
X8893991Y-17703579D01*
X8893991Y-17703579D02*
X8903515Y-17741674D01*
X8903515Y-17741674D02*
X8903515Y-17789293D01*
X8903515Y-17789293D02*
X8893991Y-17827389D01*
X8893991Y-17827389D02*
X8884468Y-17846436D01*
X8884468Y-17846436D02*
X8874944Y-17855960D01*
X8874944Y-17855960D02*
X8855896Y-17865484D01*
X8855896Y-17865484D02*
X8836848Y-17865484D01*
X8836848Y-17865484D02*
X8817801Y-17855960D01*
X8817801Y-17855960D02*
X8808277Y-17846436D01*
X8808277Y-17846436D02*
X8798753Y-17827389D01*
X8798753Y-17827389D02*
X8789229Y-17789293D01*
X8789229Y-17789293D02*
X8789229Y-17741674D01*
X8789229Y-17741674D02*
X8798753Y-17703579D01*
X8798753Y-17703579D02*
X8808277Y-17684531D01*
X8808277Y-17684531D02*
X8817801Y-17675008D01*
X8817801Y-17675008D02*
X8836848Y-17665484D01*
X9074944Y-17732150D02*
X9074944Y-17865484D01*
X9027325Y-17655960D02*
X8979706Y-17798817D01*
X8979706Y-17798817D02*
X9103515Y-17798817D01*
X9160658Y-17665484D02*
X9284468Y-17665484D01*
X9284468Y-17665484D02*
X9217801Y-17741674D01*
X9217801Y-17741674D02*
X9246372Y-17741674D01*
X9246372Y-17741674D02*
X9265420Y-17751198D01*
X9265420Y-17751198D02*
X9274944Y-17760722D01*
X9274944Y-17760722D02*
X9284468Y-17779770D01*
X9284468Y-17779770D02*
X9284468Y-17827389D01*
X9284468Y-17827389D02*
X9274944Y-17846436D01*
X9274944Y-17846436D02*
X9265420Y-17855960D01*
X9265420Y-17855960D02*
X9246372Y-17865484D01*
X9246372Y-17865484D02*
X9189229Y-17865484D01*
X9189229Y-17865484D02*
X9170182Y-17855960D01*
X9170182Y-17855960D02*
X9160658Y-17846436D01*
X9351134Y-17665484D02*
X9474944Y-17665484D01*
X9474944Y-17665484D02*
X9408277Y-17741674D01*
X9408277Y-17741674D02*
X9436849Y-17741674D01*
X9436849Y-17741674D02*
X9455896Y-17751198D01*
X9455896Y-17751198D02*
X9465420Y-17760722D01*
X9465420Y-17760722D02*
X9474944Y-17779770D01*
X9474944Y-17779770D02*
X9474944Y-17827389D01*
X9474944Y-17827389D02*
X9465420Y-17846436D01*
X9465420Y-17846436D02*
X9455896Y-17855960D01*
X9455896Y-17855960D02*
X9436849Y-17865484D01*
X9436849Y-17865484D02*
X9379706Y-17865484D01*
X9379706Y-17865484D02*
X9360658Y-17855960D01*
X9360658Y-17855960D02*
X9351134Y-17846436D01*
X9551134Y-17665484D02*
X9551134Y-17703579D01*
X9627325Y-17665484D02*
X9627325Y-17703579D01*
X9922563Y-17941674D02*
X9913039Y-17932150D01*
X9913039Y-17932150D02*
X9893991Y-17903579D01*
X9893991Y-17903579D02*
X9884468Y-17884531D01*
X9884468Y-17884531D02*
X9874944Y-17855960D01*
X9874944Y-17855960D02*
X9865420Y-17808341D01*
X9865420Y-17808341D02*
X9865420Y-17770246D01*
X9865420Y-17770246D02*
X9874944Y-17722627D01*
X9874944Y-17722627D02*
X9884468Y-17694055D01*
X9884468Y-17694055D02*
X9893991Y-17675008D01*
X9893991Y-17675008D02*
X9913039Y-17646436D01*
X9913039Y-17646436D02*
X9922563Y-17636912D01*
X10027325Y-17751198D02*
X10008277Y-17741674D01*
X10008277Y-17741674D02*
X9998753Y-17732150D01*
X9998753Y-17732150D02*
X9989230Y-17713103D01*
X9989230Y-17713103D02*
X9989230Y-17703579D01*
X9989230Y-17703579D02*
X9998753Y-17684531D01*
X9998753Y-17684531D02*
X10008277Y-17675008D01*
X10008277Y-17675008D02*
X10027325Y-17665484D01*
X10027325Y-17665484D02*
X10065420Y-17665484D01*
X10065420Y-17665484D02*
X10084468Y-17675008D01*
X10084468Y-17675008D02*
X10093991Y-17684531D01*
X10093991Y-17684531D02*
X10103515Y-17703579D01*
X10103515Y-17703579D02*
X10103515Y-17713103D01*
X10103515Y-17713103D02*
X10093991Y-17732150D01*
X10093991Y-17732150D02*
X10084468Y-17741674D01*
X10084468Y-17741674D02*
X10065420Y-17751198D01*
X10065420Y-17751198D02*
X10027325Y-17751198D01*
X10027325Y-17751198D02*
X10008277Y-17760722D01*
X10008277Y-17760722D02*
X9998753Y-17770246D01*
X9998753Y-17770246D02*
X9989230Y-17789293D01*
X9989230Y-17789293D02*
X9989230Y-17827389D01*
X9989230Y-17827389D02*
X9998753Y-17846436D01*
X9998753Y-17846436D02*
X10008277Y-17855960D01*
X10008277Y-17855960D02*
X10027325Y-17865484D01*
X10027325Y-17865484D02*
X10065420Y-17865484D01*
X10065420Y-17865484D02*
X10084468Y-17855960D01*
X10084468Y-17855960D02*
X10093991Y-17846436D01*
X10093991Y-17846436D02*
X10103515Y-17827389D01*
X10103515Y-17827389D02*
X10103515Y-17789293D01*
X10103515Y-17789293D02*
X10093991Y-17770246D01*
X10093991Y-17770246D02*
X10084468Y-17760722D01*
X10084468Y-17760722D02*
X10065420Y-17751198D01*
X10341611Y-17865484D02*
X10341611Y-17665484D01*
X10427325Y-17865484D02*
X10427325Y-17760722D01*
X10427325Y-17760722D02*
X10417801Y-17741674D01*
X10417801Y-17741674D02*
X10398753Y-17732150D01*
X10398753Y-17732150D02*
X10370182Y-17732150D01*
X10370182Y-17732150D02*
X10351134Y-17741674D01*
X10351134Y-17741674D02*
X10341611Y-17751198D01*
X10551134Y-17865484D02*
X10532087Y-17855960D01*
X10532087Y-17855960D02*
X10522563Y-17846436D01*
X10522563Y-17846436D02*
X10513039Y-17827389D01*
X10513039Y-17827389D02*
X10513039Y-17770246D01*
X10513039Y-17770246D02*
X10522563Y-17751198D01*
X10522563Y-17751198D02*
X10532087Y-17741674D01*
X10532087Y-17741674D02*
X10551134Y-17732150D01*
X10551134Y-17732150D02*
X10579706Y-17732150D01*
X10579706Y-17732150D02*
X10598753Y-17741674D01*
X10598753Y-17741674D02*
X10608277Y-17751198D01*
X10608277Y-17751198D02*
X10617801Y-17770246D01*
X10617801Y-17770246D02*
X10617801Y-17827389D01*
X10617801Y-17827389D02*
X10608277Y-17846436D01*
X10608277Y-17846436D02*
X10598753Y-17855960D01*
X10598753Y-17855960D02*
X10579706Y-17865484D01*
X10579706Y-17865484D02*
X10551134Y-17865484D01*
X10732087Y-17865484D02*
X10713039Y-17855960D01*
X10713039Y-17855960D02*
X10703515Y-17836912D01*
X10703515Y-17836912D02*
X10703515Y-17665484D01*
X10884468Y-17855960D02*
X10865420Y-17865484D01*
X10865420Y-17865484D02*
X10827325Y-17865484D01*
X10827325Y-17865484D02*
X10808277Y-17855960D01*
X10808277Y-17855960D02*
X10798753Y-17836912D01*
X10798753Y-17836912D02*
X10798753Y-17760722D01*
X10798753Y-17760722D02*
X10808277Y-17741674D01*
X10808277Y-17741674D02*
X10827325Y-17732150D01*
X10827325Y-17732150D02*
X10865420Y-17732150D01*
X10865420Y-17732150D02*
X10884468Y-17741674D01*
X10884468Y-17741674D02*
X10893992Y-17760722D01*
X10893992Y-17760722D02*
X10893992Y-17779770D01*
X10893992Y-17779770D02*
X10798753Y-17798817D01*
X10970182Y-17855960D02*
X10989230Y-17865484D01*
X10989230Y-17865484D02*
X11027325Y-17865484D01*
X11027325Y-17865484D02*
X11046373Y-17855960D01*
X11046373Y-17855960D02*
X11055896Y-17836912D01*
X11055896Y-17836912D02*
X11055896Y-17827389D01*
X11055896Y-17827389D02*
X11046373Y-17808341D01*
X11046373Y-17808341D02*
X11027325Y-17798817D01*
X11027325Y-17798817D02*
X10998753Y-17798817D01*
X10998753Y-17798817D02*
X10979706Y-17789293D01*
X10979706Y-17789293D02*
X10970182Y-17770246D01*
X10970182Y-17770246D02*
X10970182Y-17760722D01*
X10970182Y-17760722D02*
X10979706Y-17741674D01*
X10979706Y-17741674D02*
X10998753Y-17732150D01*
X10998753Y-17732150D02*
X11027325Y-17732150D01*
X11027325Y-17732150D02*
X11046373Y-17741674D01*
X11293992Y-17789293D02*
X11446373Y-17789293D01*
X11370182Y-17865484D02*
X11370182Y-17713103D01*
X11684468Y-17684531D02*
X11693992Y-17675008D01*
X11693992Y-17675008D02*
X11713039Y-17665484D01*
X11713039Y-17665484D02*
X11760658Y-17665484D01*
X11760658Y-17665484D02*
X11779706Y-17675008D01*
X11779706Y-17675008D02*
X11789230Y-17684531D01*
X11789230Y-17684531D02*
X11798753Y-17703579D01*
X11798753Y-17703579D02*
X11798753Y-17722627D01*
X11798753Y-17722627D02*
X11789230Y-17751198D01*
X11789230Y-17751198D02*
X11674944Y-17865484D01*
X11674944Y-17865484D02*
X11798753Y-17865484D01*
X12027325Y-17855960D02*
X12046373Y-17865484D01*
X12046373Y-17865484D02*
X12084468Y-17865484D01*
X12084468Y-17865484D02*
X12103515Y-17855960D01*
X12103515Y-17855960D02*
X12113039Y-17836912D01*
X12113039Y-17836912D02*
X12113039Y-17827389D01*
X12113039Y-17827389D02*
X12103515Y-17808341D01*
X12103515Y-17808341D02*
X12084468Y-17798817D01*
X12084468Y-17798817D02*
X12055896Y-17798817D01*
X12055896Y-17798817D02*
X12036849Y-17789293D01*
X12036849Y-17789293D02*
X12027325Y-17770246D01*
X12027325Y-17770246D02*
X12027325Y-17760722D01*
X12027325Y-17760722D02*
X12036849Y-17741674D01*
X12036849Y-17741674D02*
X12055896Y-17732150D01*
X12055896Y-17732150D02*
X12084468Y-17732150D01*
X12084468Y-17732150D02*
X12103515Y-17741674D01*
X12227325Y-17865484D02*
X12208277Y-17855960D01*
X12208277Y-17855960D02*
X12198754Y-17836912D01*
X12198754Y-17836912D02*
X12198754Y-17665484D01*
X12332087Y-17865484D02*
X12313039Y-17855960D01*
X12313039Y-17855960D02*
X12303515Y-17846436D01*
X12303515Y-17846436D02*
X12293992Y-17827389D01*
X12293992Y-17827389D02*
X12293992Y-17770246D01*
X12293992Y-17770246D02*
X12303515Y-17751198D01*
X12303515Y-17751198D02*
X12313039Y-17741674D01*
X12313039Y-17741674D02*
X12332087Y-17732150D01*
X12332087Y-17732150D02*
X12360658Y-17732150D01*
X12360658Y-17732150D02*
X12379706Y-17741674D01*
X12379706Y-17741674D02*
X12389230Y-17751198D01*
X12389230Y-17751198D02*
X12398754Y-17770246D01*
X12398754Y-17770246D02*
X12398754Y-17827389D01*
X12398754Y-17827389D02*
X12389230Y-17846436D01*
X12389230Y-17846436D02*
X12379706Y-17855960D01*
X12379706Y-17855960D02*
X12360658Y-17865484D01*
X12360658Y-17865484D02*
X12332087Y-17865484D01*
X12455896Y-17732150D02*
X12532087Y-17732150D01*
X12484468Y-17665484D02*
X12484468Y-17836912D01*
X12484468Y-17836912D02*
X12493992Y-17855960D01*
X12493992Y-17855960D02*
X12513039Y-17865484D01*
X12513039Y-17865484D02*
X12532087Y-17865484D01*
X12589230Y-17855960D02*
X12608277Y-17865484D01*
X12608277Y-17865484D02*
X12646373Y-17865484D01*
X12646373Y-17865484D02*
X12665420Y-17855960D01*
X12665420Y-17855960D02*
X12674944Y-17836912D01*
X12674944Y-17836912D02*
X12674944Y-17827389D01*
X12674944Y-17827389D02*
X12665420Y-17808341D01*
X12665420Y-17808341D02*
X12646373Y-17798817D01*
X12646373Y-17798817D02*
X12617801Y-17798817D01*
X12617801Y-17798817D02*
X12598754Y-17789293D01*
X12598754Y-17789293D02*
X12589230Y-17770246D01*
X12589230Y-17770246D02*
X12589230Y-17760722D01*
X12589230Y-17760722D02*
X12598754Y-17741674D01*
X12598754Y-17741674D02*
X12617801Y-17732150D01*
X12617801Y-17732150D02*
X12646373Y-17732150D01*
X12646373Y-17732150D02*
X12665420Y-17741674D01*
X12741611Y-17941674D02*
X12751135Y-17932150D01*
X12751135Y-17932150D02*
X12770182Y-17903579D01*
X12770182Y-17903579D02*
X12779706Y-17884531D01*
X12779706Y-17884531D02*
X12789230Y-17855960D01*
X12789230Y-17855960D02*
X12798754Y-17808341D01*
X12798754Y-17808341D02*
X12798754Y-17770246D01*
X12798754Y-17770246D02*
X12789230Y-17722627D01*
X12789230Y-17722627D02*
X12779706Y-17694055D01*
X12779706Y-17694055D02*
X12770182Y-17675008D01*
X12770182Y-17675008D02*
X12751135Y-17646436D01*
X12751135Y-17646436D02*
X12741611Y-17636912D01*
M02*
