%TF.GenerationSoftware,KiCad,Pcbnew,9.0.2+dfsg-1*%
%TF.CreationDate,2026-09-04T20:34:36+02:00*%
%TF.ProjectId,clock-card,636c6f63-6b2d-4636-9172-642e6b696361,rev?*%
%TF.SameCoordinates,Original*%
%TF.FileFunction,Paste,Top*%
%TF.FilePolarity,Positive*%
%FSLAX46Y46*%
G04 Gerber Fmt 4.6, Leading zero omitted, Abs format (unit mm)*
G04 Created by KiCad (PCBNEW 9.0.2+dfsg-1) date 2026-09-04 20:34:36*
%MOMM*%
%LPD*%
G01*
G04 APERTURE LIST*
G04 Aperture macros list*
%AMRoundRect*
0 Rectangle with rounded corners*
0 $1 Rounding radius*
0 $2 $3 $4 $5 $6 $7 $8 $9 X,Y pos of 4 corners*
0 Add a 4 corners polygon primitive as box body*
4,1,4,$2,$3,$4,$5,$6,$7,$8,$9,$2,$3,0*
0 Add four circle primitives for the rounded corners*
1,1,$1+$1,$2,$3*
1,1,$1+$1,$4,$5*
1,1,$1+$1,$6,$7*
1,1,$1+$1,$8,$9*
0 Add four rect primitives between the rounded corners*
20,1,$1+$1,$2,$3,$4,$5,0*
20,1,$1+$1,$4,$5,$6,$7,0*
20,1,$1+$1,$6,$7,$8,$9,0*
20,1,$1+$1,$8,$9,$2,$3,0*%
G04 Aperture macros list end*
%ADD10RoundRect,0.200000X-0.275000X0.200000X-0.275000X-0.200000X0.275000X-0.200000X0.275000X0.200000X0*%
%ADD11RoundRect,0.200000X-0.200000X-0.275000X0.200000X-0.275000X0.200000X0.275000X-0.200000X0.275000X0*%
%ADD12RoundRect,0.150000X-0.150000X0.875000X-0.150000X-0.875000X0.150000X-0.875000X0.150000X0.875000X0*%
%ADD13RoundRect,0.150000X-0.150000X0.587500X-0.150000X-0.587500X0.150000X-0.587500X0.150000X0.587500X0*%
%ADD14RoundRect,0.200000X0.275000X-0.200000X0.275000X0.200000X-0.275000X0.200000X-0.275000X-0.200000X0*%
G04 APERTURE END LIST*
D10*
%TO.C,R20*%
X109855000Y-74295000D03*
X109855000Y-75945000D03*
%TD*%
%TO.C,R17*%
X117475000Y-74295000D03*
X117475000Y-75945000D03*
%TD*%
D11*
%TO.C,R8*%
X119950000Y-80675000D03*
X121600000Y-80675000D03*
%TD*%
%TO.C,R9*%
X146940000Y-88265000D03*
X148590000Y-88265000D03*
%TD*%
D10*
%TO.C,R22*%
X104140000Y-74295000D03*
X104140000Y-75945000D03*
%TD*%
D12*
%TO.C,U6*%
X116205000Y-61820000D03*
X114935000Y-61820000D03*
X113665000Y-61820000D03*
X112395000Y-61820000D03*
X111125000Y-61820000D03*
X109855000Y-61820000D03*
X108585000Y-61820000D03*
X107315000Y-61820000D03*
X106045000Y-61820000D03*
X104775000Y-61820000D03*
X104775000Y-71120000D03*
X106045000Y-71120000D03*
X107315000Y-71120000D03*
X108585000Y-71120000D03*
X109855000Y-71120000D03*
X111125000Y-71120000D03*
X112395000Y-71120000D03*
X113665000Y-71120000D03*
X114935000Y-71120000D03*
X116205000Y-71120000D03*
%TD*%
D10*
%TO.C,R16*%
X115570000Y-74295000D03*
X115570000Y-75945000D03*
%TD*%
%TO.C,R18*%
X106045000Y-74295000D03*
X106045000Y-75945000D03*
%TD*%
D11*
%TO.C,R11*%
X109155000Y-80675000D03*
X110805000Y-80675000D03*
%TD*%
D13*
%TO.C,Q4*%
X110805000Y-82580000D03*
X108905000Y-82580000D03*
X109855000Y-84455000D03*
%TD*%
D14*
%TO.C,R10*%
X146685000Y-140080000D03*
X146685000Y-138430000D03*
%TD*%
D10*
%TO.C,R19*%
X107950000Y-74295000D03*
X107950000Y-75945000D03*
%TD*%
D13*
%TO.C,Q2*%
X121600000Y-82580000D03*
X119700000Y-82580000D03*
X120650000Y-84455000D03*
%TD*%
%TO.C,Q6*%
X99690000Y-82550000D03*
X97790000Y-82550000D03*
X98740000Y-84425000D03*
%TD*%
D11*
%TO.C,R6*%
X146940000Y-95885000D03*
X148590000Y-95885000D03*
%TD*%
%TO.C,R14*%
X98120000Y-80637275D03*
X99770000Y-80637275D03*
%TD*%
D10*
%TO.C,R15*%
X113665000Y-74295000D03*
X113665000Y-75945000D03*
%TD*%
%TO.C,R21*%
X111760000Y-74295000D03*
X111760000Y-75945000D03*
%TD*%
D11*
%TO.C,R7*%
X146940000Y-92075000D03*
X148590000Y-92075000D03*
%TD*%
M02*
