<?xml version="1.0" standalone="no"?>
 <!DOCTYPE svg PUBLIC "-//W3C//DTD SVG 1.1//EN" 
 "http://www.w3.org/Graphics/SVG/1.1/DTD/svg11.dtd"> 
<svg
  xmlns:svg="http://www.w3.org/2000/svg"
  xmlns="http://www.w3.org/2000/svg"
  xmlns:xlink="http://www.w3.org/1999/xlink"
  version="1.1"
  width="99.7204mm" height="105.9180mm" viewBox="0.0000 0.0000 99.7204 105.9180">
<title>SVG Image created as via-card-pcb.svg date 2026/09/02 21:44:53 </title>
  <desc>Image generated by PCBNEW </desc>
<g style="fill:#000000; fill-opacity:1.0000;stroke:#000000; stroke-opacity:1.0000;
stroke-linecap:round; stroke-linejoin:round;"
 transform="translate(0 0) scale(1 1)">
</g>
<g style="fill:#C83434; fill-opacity:1.0000; stroke:none;">
<circle cx="25.4250" cy="10.5750" r="0.8500" /> 
</g>
<g style="fill:#C83434; fill-opacity:1.0000; stroke:none;">
<circle cx="27.9650" cy="10.5750" r="0.8500" /> 
</g>
<g style="fill:#C83434; fill-opacity:1.0000; stroke:none;">
<circle cx="30.5050" cy="10.5750" r="0.8500" /> 
</g>
<g style="fill:#C83434; fill-opacity:1.0000; stroke:none;">
<circle cx="33.0450" cy="10.5750" r="0.8500" /> 
</g>
<g style="fill:#C83434; fill-opacity:1.0000; stroke:none;">
<circle cx="35.5850" cy="10.5750" r="0.8500" /> 
</g>
<g style="fill:#C83434; fill-opacity:1.0000; stroke:none;">
<circle cx="38.1250" cy="10.5750" r="0.8500" /> 
</g>
<g style="fill:#C83434; fill-opacity:1.0000; stroke:none;">
<circle cx="40.6650" cy="10.5750" r="0.8500" /> 
</g>
<g style="fill:#C83434; fill-opacity:1.0000; stroke:none;">
<circle cx="43.2050" cy="10.5750" r="0.8500" /> 
</g>
<g style="fill:#C83434; fill-opacity:1.0000; stroke:none;">
<circle cx="45.7450" cy="10.5750" r="0.8500" /> 
</g>
<g style="fill:#C83434; fill-opacity:1.0000; stroke:none;">
<circle cx="48.2850" cy="10.5750" r="0.8500" /> 
</g>
<g style="fill:#C83434; fill-opacity:1.0000; stroke:none;">
<circle cx="50.8250" cy="10.5750" r="0.8500" /> 
</g>
<g style="fill:#C83434; fill-opacity:1.0000; stroke:none;">
<circle cx="53.3650" cy="10.5750" r="0.8500" /> 
</g>
<g style="fill:#C83434; fill-opacity:1.0000; stroke:none;">
<circle cx="55.9050" cy="10.5750" r="0.8500" /> 
</g>
<g style="fill:#C83434; fill-opacity:1.0000; stroke:none;">
<circle cx="58.4450" cy="10.5750" r="0.8500" /> 
</g>
<g style="fill:#C83434; fill-opacity:1.0000; stroke:none;">
<circle cx="60.9850" cy="10.5750" r="0.8500" /> 
</g>
<g style="fill:#C83434; fill-opacity:1.0000; stroke:none;">
<circle cx="63.5250" cy="10.5750" r="0.8500" /> 
</g>
<g style="fill:#C83434; fill-opacity:1.0000; stroke:none;">
<circle cx="66.0650" cy="10.5750" r="0.8500" /> 
</g>
<g style="fill:#C83434; fill-opacity:1.0000; stroke:none;">
<circle cx="68.6050" cy="10.5750" r="0.8500" /> 
</g>
<g style="fill:#C83434; fill-opacity:1.0000; stroke:none;">
<circle cx="71.1450" cy="10.5750" r="0.8500" /> 
</g>
<g style="fill:#C83434; fill-opacity:1.0000; stroke:none;">
<circle cx="73.6850" cy="10.5750" r="0.8500" /> 
</g>
<g style="fill:#C83434; fill-opacity:1.0000; stroke:none;">
<circle cx="73.6850" cy="13.1150" r="0.8500" /> 
</g>
<g style="fill:#C83434; fill-opacity:1.0000; stroke:none;">
<circle cx="71.1450" cy="13.1150" r="0.8500" /> 
</g>
<g style="fill:#C83434; fill-opacity:1.0000; stroke:none;">
<circle cx="68.6050" cy="13.1150" r="0.8500" /> 
</g>
<g style="fill:#C83434; fill-opacity:1.0000; stroke:none;">
<circle cx="66.0650" cy="13.1150" r="0.8500" /> 
</g>
<g style="fill:#C83434; fill-opacity:1.0000; stroke:none;">
<circle cx="63.5250" cy="13.1150" r="0.8500" /> 
</g>
<g style="fill:#C83434; fill-opacity:1.0000; stroke:none;">
<circle cx="60.9850" cy="13.1150" r="0.8500" /> 
</g>
<g style="fill:#C83434; fill-opacity:1.0000; stroke:none;">
<circle cx="58.4450" cy="13.1150" r="0.8500" /> 
</g>
<g style="fill:#C83434; fill-opacity:1.0000; stroke:none;">
<circle cx="55.9050" cy="13.1150" r="0.8500" /> 
</g>
<g style="fill:#C83434; fill-opacity:1.0000; stroke:none;">
<circle cx="53.3650" cy="13.1150" r="0.8500" /> 
</g>
<g style="fill:#C83434; fill-opacity:1.0000; stroke:none;">
<circle cx="50.8250" cy="13.1150" r="0.8500" /> 
</g>
<g style="fill:#C83434; fill-opacity:1.0000; stroke:none;">
<circle cx="48.2850" cy="13.1150" r="0.8500" /> 
</g>
<g style="fill:#C83434; fill-opacity:1.0000; stroke:none;">
<circle cx="45.7450" cy="13.1150" r="0.8500" /> 
</g>
<g style="fill:#C83434; fill-opacity:1.0000; stroke:none;">
<circle cx="43.2050" cy="13.1150" r="0.8500" /> 
</g>
<g style="fill:#C83434; fill-opacity:1.0000; stroke:none;">
<circle cx="40.6650" cy="13.1150" r="0.8500" /> 
</g>
<g style="fill:#C83434; fill-opacity:1.0000; stroke:none;">
<circle cx="38.1250" cy="13.1150" r="0.8500" /> 
</g>
<g style="fill:#C83434; fill-opacity:1.0000; stroke:none;">
<circle cx="35.5850" cy="13.1150" r="0.8500" /> 
</g>
<g style="fill:#C83434; fill-opacity:1.0000; stroke:none;">
<circle cx="33.0450" cy="13.1150" r="0.8500" /> 
</g>
<g style="fill:#C83434; fill-opacity:1.0000; stroke:none;">
<circle cx="30.5050" cy="13.1150" r="0.8500" /> 
</g>
<g style="fill:#C83434; fill-opacity:1.0000; stroke:none;">
<circle cx="27.9650" cy="13.1150" r="0.8500" /> 
<path style="fill:#C83434; fill-opacity:1.0000; stroke:none;fill-rule:evenodd;"
d="M 26.2750,13.9650
24.5750,13.9650
24.5750,12.2650
26.2750,12.2650
Z" /> 
</g>
<g style="fill:#FFFFFF; fill-opacity:1.0000; stroke:none;">
<circle cx="25.4250" cy="10.5750" r="0.5000" /> 
</g>
<g style="fill:#FFFFFF; fill-opacity:1.0000; stroke:none;">
<circle cx="27.9650" cy="10.5750" r="0.5000" /> 
</g>
<g style="fill:#FFFFFF; fill-opacity:1.0000; stroke:none;">
<circle cx="30.5050" cy="10.5750" r="0.5000" /> 
</g>
<g style="fill:#FFFFFF; fill-opacity:1.0000; stroke:none;">
<circle cx="33.0450" cy="10.5750" r="0.5000" /> 
</g>
<g style="fill:#FFFFFF; fill-opacity:1.0000; stroke:none;">
<circle cx="35.5850" cy="10.5750" r="0.5000" /> 
</g>
<g style="fill:#FFFFFF; fill-opacity:1.0000; stroke:none;">
<circle cx="38.1250" cy="10.5750" r="0.5000" /> 
</g>
<g style="fill:#FFFFFF; fill-opacity:1.0000; stroke:none;">
<circle cx="40.6650" cy="10.5750" r="0.5000" /> 
</g>
<g style="fill:#FFFFFF; fill-opacity:1.0000; stroke:none;">
<circle cx="43.2050" cy="10.5750" r="0.5000" /> 
</g>
<g style="fill:#FFFFFF; fill-opacity:1.0000; stroke:none;">
<circle cx="45.7450" cy="10.5750" r="0.5000" /> 
</g>
<g style="fill:#FFFFFF; fill-opacity:1.0000; stroke:none;">
<circle cx="48.2850" cy="10.5750" r="0.5000" /> 
</g>
<g style="fill:#FFFFFF; fill-opacity:1.0000; stroke:none;">
<circle cx="50.8250" cy="10.5750" r="0.5000" /> 
</g>
<g style="fill:#FFFFFF; fill-opacity:1.0000; stroke:none;">
<circle cx="53.3650" cy="10.5750" r="0.5000" /> 
</g>
<g style="fill:#FFFFFF; fill-opacity:1.0000; stroke:none;">
<circle cx="55.9050" cy="10.5750" r="0.5000" /> 
</g>
<g style="fill:#FFFFFF; fill-opacity:1.0000; stroke:none;">
<circle cx="58.4450" cy="10.5750" r="0.5000" /> 
</g>
<g style="fill:#FFFFFF; fill-opacity:1.0000; stroke:none;">
<circle cx="60.9850" cy="10.5750" r="0.5000" /> 
</g>
<g style="fill:#FFFFFF; fill-opacity:1.0000; stroke:none;">
<circle cx="63.5250" cy="10.5750" r="0.5000" /> 
</g>
<g style="fill:#FFFFFF; fill-opacity:1.0000; stroke:none;">
<circle cx="66.0650" cy="10.5750" r="0.5000" /> 
</g>
<g style="fill:#FFFFFF; fill-opacity:1.0000; stroke:none;">
<circle cx="68.6050" cy="10.5750" r="0.5000" /> 
</g>
<g style="fill:#FFFFFF; fill-opacity:1.0000; stroke:none;">
<circle cx="71.1450" cy="10.5750" r="0.5000" /> 
</g>
<g style="fill:#FFFFFF; fill-opacity:1.0000; stroke:none;">
<circle cx="73.6850" cy="10.5750" r="0.5000" /> 
</g>
<g style="fill:#FFFFFF; fill-opacity:1.0000; stroke:none;">
<circle cx="73.6850" cy="13.1150" r="0.5000" /> 
</g>
<g style="fill:#FFFFFF; fill-opacity:1.0000; stroke:none;">
<circle cx="71.1450" cy="13.1150" r="0.5000" /> 
</g>
<g style="fill:#FFFFFF; fill-opacity:1.0000; stroke:none;">
<circle cx="68.6050" cy="13.1150" r="0.5000" /> 
</g>
<g style="fill:#FFFFFF; fill-opacity:1.0000; stroke:none;">
<circle cx="66.0650" cy="13.1150" r="0.5000" /> 
</g>
<g style="fill:#FFFFFF; fill-opacity:1.0000; stroke:none;">
<circle cx="63.5250" cy="13.1150" r="0.5000" /> 
</g>
<g style="fill:#FFFFFF; fill-opacity:1.0000; stroke:none;">
<circle cx="60.9850" cy="13.1150" r="0.5000" /> 
</g>
<g style="fill:#FFFFFF; fill-opacity:1.0000; stroke:none;">
<circle cx="58.4450" cy="13.1150" r="0.5000" /> 
</g>
<g style="fill:#FFFFFF; fill-opacity:1.0000; stroke:none;">
<circle cx="55.9050" cy="13.1150" r="0.5000" /> 
</g>
<g style="fill:#FFFFFF; fill-opacity:1.0000; stroke:none;">
<circle cx="53.3650" cy="13.1150" r="0.5000" /> 
</g>
<g style="fill:#FFFFFF; fill-opacity:1.0000; stroke:none;">
<circle cx="50.8250" cy="13.1150" r="0.5000" /> 
</g>
<g style="fill:#FFFFFF; fill-opacity:1.0000; stroke:none;">
<circle cx="48.2850" cy="13.1150" r="0.5000" /> 
</g>
<g style="fill:#FFFFFF; fill-opacity:1.0000; stroke:none;">
<circle cx="45.7450" cy="13.1150" r="0.5000" /> 
</g>
<g style="fill:#FFFFFF; fill-opacity:1.0000; stroke:none;">
<circle cx="43.2050" cy="13.1150" r="0.5000" /> 
</g>
<g style="fill:#FFFFFF; fill-opacity:1.0000; stroke:none;">
<circle cx="40.6650" cy="13.1150" r="0.5000" /> 
</g>
<g style="fill:#FFFFFF; fill-opacity:1.0000; stroke:none;">
<circle cx="38.1250" cy="13.1150" r="0.5000" /> 
</g>
<g style="fill:#FFFFFF; fill-opacity:1.0000; stroke:none;">
<circle cx="35.5850" cy="13.1150" r="0.5000" /> 
</g>
<g style="fill:#FFFFFF; fill-opacity:1.0000; stroke:none;">
<circle cx="33.0450" cy="13.1150" r="0.5000" /> 
</g>
<g style="fill:#FFFFFF; fill-opacity:1.0000; stroke:none;">
<circle cx="30.5050" cy="13.1150" r="0.5000" /> 
</g>
<g style="fill:#FFFFFF; fill-opacity:1.0000; stroke:none;">
<circle cx="27.9650" cy="13.1150" r="0.5000" /> 
</g>
<g style="fill:#FFFFFF; fill-opacity:1.0000; stroke:none;">
<circle cx="25.4250" cy="13.1150" r="0.5000" /> 
</g>
<g style="fill:#D864FF; fill-opacity:0.4000; stroke:none;">
<circle cx="25.4250" cy="10.5750" r="0.8500" /> 
</g>
<g style="fill:#D864FF; fill-opacity:0.4000; stroke:none;">
<circle cx="27.9650" cy="10.5750" r="0.8500" /> 
</g>
<g style="fill:#D864FF; fill-opacity:0.4000; stroke:none;">
<circle cx="30.5050" cy="10.5750" r="0.8500" /> 
</g>
<g style="fill:#D864FF; fill-opacity:0.4000; stroke:none;">
<circle cx="33.0450" cy="10.5750" r="0.8500" /> 
</g>
<g style="fill:#D864FF; fill-opacity:0.4000; stroke:none;">
<circle cx="35.5850" cy="10.5750" r="0.8500" /> 
</g>
<g style="fill:#D864FF; fill-opacity:0.4000; stroke:none;">
<circle cx="38.1250" cy="10.5750" r="0.8500" /> 
</g>
<g style="fill:#D864FF; fill-opacity:0.4000; stroke:none;">
<circle cx="40.6650" cy="10.5750" r="0.8500" /> 
</g>
<g style="fill:#D864FF; fill-opacity:0.4000; stroke:none;">
<circle cx="43.2050" cy="10.5750" r="0.8500" /> 
</g>
<g style="fill:#D864FF; fill-opacity:0.4000; stroke:none;">
<circle cx="45.7450" cy="10.5750" r="0.8500" /> 
</g>
<g style="fill:#D864FF; fill-opacity:0.4000; stroke:none;">
<circle cx="48.2850" cy="10.5750" r="0.8500" /> 
</g>
<g style="fill:#D864FF; fill-opacity:0.4000; stroke:none;">
<circle cx="50.8250" cy="10.5750" r="0.8500" /> 
</g>
<g style="fill:#D864FF; fill-opacity:0.4000; stroke:none;">
<circle cx="53.3650" cy="10.5750" r="0.8500" /> 
</g>
<g style="fill:#D864FF; fill-opacity:0.4000; stroke:none;">
<circle cx="55.9050" cy="10.5750" r="0.8500" /> 
</g>
<g style="fill:#D864FF; fill-opacity:0.4000; stroke:none;">
<circle cx="58.4450" cy="10.5750" r="0.8500" /> 
</g>
<g style="fill:#D864FF; fill-opacity:0.4000; stroke:none;">
<circle cx="60.9850" cy="10.5750" r="0.8500" /> 
</g>
<g style="fill:#D864FF; fill-opacity:0.4000; stroke:none;">
<circle cx="63.5250" cy="10.5750" r="0.8500" /> 
</g>
<g style="fill:#D864FF; fill-opacity:0.4000; stroke:none;">
<circle cx="66.0650" cy="10.5750" r="0.8500" /> 
</g>
<g style="fill:#D864FF; fill-opacity:0.4000; stroke:none;">
<circle cx="68.6050" cy="10.5750" r="0.8500" /> 
</g>
<g style="fill:#D864FF; fill-opacity:0.4000; stroke:none;">
<circle cx="71.1450" cy="10.5750" r="0.8500" /> 
</g>
<g style="fill:#D864FF; fill-opacity:0.4000; stroke:none;">
<circle cx="73.6850" cy="10.5750" r="0.8500" /> 
</g>
<g style="fill:#D864FF; fill-opacity:0.4000; stroke:none;">
<circle cx="73.6850" cy="13.1150" r="0.8500" /> 
</g>
<g style="fill:#D864FF; fill-opacity:0.4000; stroke:none;">
<circle cx="71.1450" cy="13.1150" r="0.8500" /> 
</g>
<g style="fill:#D864FF; fill-opacity:0.4000; stroke:none;">
<circle cx="68.6050" cy="13.1150" r="0.8500" /> 
</g>
<g style="fill:#D864FF; fill-opacity:0.4000; stroke:none;">
<circle cx="66.0650" cy="13.1150" r="0.8500" /> 
</g>
<g style="fill:#D864FF; fill-opacity:0.4000; stroke:none;">
<circle cx="63.5250" cy="13.1150" r="0.8500" /> 
</g>
<g style="fill:#D864FF; fill-opacity:0.4000; stroke:none;">
<circle cx="60.9850" cy="13.1150" r="0.8500" /> 
</g>
<g style="fill:#D864FF; fill-opacity:0.4000; stroke:none;">
<circle cx="58.4450" cy="13.1150" r="0.8500" /> 
</g>
<g style="fill:#D864FF; fill-opacity:0.4000; stroke:none;">
<circle cx="55.9050" cy="13.1150" r="0.8500" /> 
</g>
<g style="fill:#D864FF; fill-opacity:0.4000; stroke:none;">
<circle cx="53.3650" cy="13.1150" r="0.8500" /> 
</g>
<g style="fill:#D864FF; fill-opacity:0.4000; stroke:none;">
<circle cx="50.8250" cy="13.1150" r="0.8500" /> 
</g>
<g style="fill:#D864FF; fill-opacity:0.4000; stroke:none;">
<circle cx="48.2850" cy="13.1150" r="0.8500" /> 
</g>
<g style="fill:#D864FF; fill-opacity:0.4000; stroke:none;">
<circle cx="45.7450" cy="13.1150" r="0.8500" /> 
</g>
<g style="fill:#D864FF; fill-opacity:0.4000; stroke:none;">
<circle cx="43.2050" cy="13.1150" r="0.8500" /> 
</g>
<g style="fill:#D864FF; fill-opacity:0.4000; stroke:none;">
<circle cx="40.6650" cy="13.1150" r="0.8500" /> 
</g>
<g style="fill:#D864FF; fill-opacity:0.4000; stroke:none;">
<circle cx="38.1250" cy="13.1150" r="0.8500" /> 
</g>
<g style="fill:#D864FF; fill-opacity:0.4000; stroke:none;">
<circle cx="35.5850" cy="13.1150" r="0.8500" /> 
</g>
<g style="fill:#D864FF; fill-opacity:0.4000; stroke:none;">
<circle cx="33.0450" cy="13.1150" r="0.8500" /> 
</g>
<g style="fill:#D864FF; fill-opacity:0.4000; stroke:none;">
<circle cx="30.5050" cy="13.1150" r="0.8500" /> 
</g>
<g style="fill:#D864FF; fill-opacity:0.4000; stroke:none;">
<circle cx="27.9650" cy="13.1150" r="0.8500" /> 
<path style="fill:#D864FF; fill-opacity:0.4000; stroke:none;fill-rule:evenodd;"
d="M 26.2750,13.9650
24.5750,13.9650
24.5750,12.2650
26.2750,12.2650
Z" /> 
</g>
<g style="fill:none; 
stroke:#F2EDA1; stroke-width:0.5000; stroke-opacity:1; 
stroke-linecap:round; stroke-linejoin:round;">
<g transform="rotate(-180.000000 87.6550 10.0300)">
<text x="87.6550" y="11.5300"
textLength="12.0429" font-size="4.0000" lengthAdjust="spacingAndGlyphs"
text-anchor="middle" opacity="0" stroke-opacity="0">BASE</text>
</g>
<g class="stroked-text"><desc>BASE</desc>
<path d="M91.5121 10.2396
L91.0836 10.0967
" />
<path d="M91.0836 10.0967
L90.9407 9.9539
" />
<path d="M90.9407 9.9539
L90.7979 9.6681
" />
<path d="M90.7979 9.6681
L90.7979 9.2396
" />
<path d="M90.7979 9.2396
L90.9407 8.9539
" />
<path d="M90.9407 8.9539
L91.0836 8.8110
" />
<path d="M91.0836 8.8110
L91.3693 8.6681
" />
<path d="M91.3693 8.6681
L92.5121 8.6681
" />
<path d="M92.5121 8.6681
L92.5121 11.6681
" />
<path d="M92.5121 11.6681
L91.5121 11.6681
" />
<path d="M91.5121 11.6681
L91.2264 11.5253
" />
<path d="M91.2264 11.5253
L91.0836 11.3824
" />
<path d="M91.0836 11.3824
L90.9407 11.0967
" />
<path d="M90.9407 11.0967
L90.9407 10.8110
" />
<path d="M90.9407 10.8110
L91.0836 10.5253
" />
<path d="M91.0836 10.5253
L91.2264 10.3824
" />
<path d="M91.2264 10.3824
L91.5121 10.2396
" />
<path d="M91.5121 10.2396
L92.5121 10.2396
" />
<path d="M89.6550 9.5253
L88.2264 9.5253
" />
<path d="M89.9407 8.6681
L88.9407 11.6681
" />
<path d="M88.9407 11.6681
L87.9407 8.6681
" />
<path d="M87.0836 8.8110
L86.6550 8.6681
" />
<path d="M86.6550 8.6681
L85.9407 8.6681
" />
<path d="M85.9407 8.6681
L85.6550 8.8110
" />
<path d="M85.6550 8.8110
L85.5121 8.9539
" />
<path d="M85.5121 8.9539
L85.3693 9.2396
" />
<path d="M85.3693 9.2396
L85.3693 9.5253
" />
<path d="M85.3693 9.5253
L85.5121 9.8110
" />
<path d="M85.5121 9.8110
L85.6550 9.9539
" />
<path d="M85.6550 9.9539
L85.9407 10.0967
" />
<path d="M85.9407 10.0967
L86.5121 10.2396
" />
<path d="M86.5121 10.2396
L86.7979 10.3824
" />
<path d="M86.7979 10.3824
L86.9407 10.5253
" />
<path d="M86.9407 10.5253
L87.0836 10.8110
" />
<path d="M87.0836 10.8110
L87.0836 11.0967
" />
<path d="M87.0836 11.0967
L86.9407 11.3824
" />
<path d="M86.9407 11.3824
L86.7979 11.5253
" />
<path d="M86.7979 11.5253
L86.5121 11.6681
" />
<path d="M86.5121 11.6681
L85.7979 11.6681
" />
<path d="M85.7979 11.6681
L85.3693 11.5253
" />
<path d="M84.0836 10.2396
L83.0836 10.2396
" />
<path d="M82.6550 8.6681
L84.0836 8.6681
" />
<path d="M84.0836 8.6681
L84.0836 11.6681
" />
<path d="M84.0836 11.6681
L82.6550 11.6681
" />
</g><g transform="rotate(-180.000000 12.0900 10.0300)">
<text x="12.0900" y="11.5300"
textLength="12.4714" font-size="4.0000" lengthAdjust="spacingAndGlyphs"
text-anchor="middle" opacity="0" stroke-opacity="0">CARD</text>
</g>
<g class="stroked-text"><desc>CARD</desc>
<path d="M15.4471 8.9539
L15.5900 8.8110
" />
<path d="M15.5900 8.8110
L16.0186 8.6681
" />
<path d="M16.0186 8.6681
L16.3043 8.6681
" />
<path d="M16.3043 8.6681
L16.7329 8.8110
" />
<path d="M16.7329 8.8110
L17.0186 9.0967
" />
<path d="M17.0186 9.0967
L17.1614 9.3824
" />
<path d="M17.1614 9.3824
L17.3043 9.9539
" />
<path d="M17.3043 9.9539
L17.3043 10.3824
" />
<path d="M17.3043 10.3824
L17.1614 10.9539
" />
<path d="M17.1614 10.9539
L17.0186 11.2396
" />
<path d="M17.0186 11.2396
L16.7329 11.5253
" />
<path d="M16.7329 11.5253
L16.3043 11.6681
" />
<path d="M16.3043 11.6681
L16.0186 11.6681
" />
<path d="M16.0186 11.6681
L15.5900 11.5253
" />
<path d="M15.5900 11.5253
L15.4471 11.3824
" />
<path d="M14.3043 9.5253
L12.8757 9.5253
" />
<path d="M14.5900 8.6681
L13.5900 11.6681
" />
<path d="M13.5900 11.6681
L12.5900 8.6681
" />
<path d="M9.8757 8.6681
L10.8757 10.0967
" />
<path d="M11.5900 8.6681
L11.5900 11.6681
" />
<path d="M11.5900 11.6681
L10.4471 11.6681
" />
<path d="M10.4471 11.6681
L10.1614 11.5253
" />
<path d="M10.1614 11.5253
L10.0186 11.3824
" />
<path d="M10.0186 11.3824
L9.8757 11.0967
" />
<path d="M9.8757 11.0967
L9.8757 10.6681
" />
<path d="M9.8757 10.6681
L10.0186 10.3824
" />
<path d="M10.0186 10.3824
L10.1614 10.2396
" />
<path d="M10.1614 10.2396
L10.4471 10.0967
" />
<path d="M10.4471 10.0967
L11.5900 10.0967
" />
<path d="M8.5900 8.6681
L8.5900 11.6681
" />
<path d="M8.5900 11.6681
L7.8757 11.6681
" />
<path d="M7.8757 11.6681
L7.4471 11.5253
" />
<path d="M7.4471 11.5253
L7.1614 11.2396
" />
<path d="M7.1614 11.2396
L7.0186 10.9539
" />
<path d="M7.0186 10.9539
L6.8757 10.3824
" />
<path d="M6.8757 10.3824
L6.8757 9.9539
" />
<path d="M6.8757 9.9539
L7.0186 9.3824
" />
<path d="M7.0186 9.3824
L7.1614 9.0967
" />
<path d="M7.1614 9.0967
L7.4471 8.8110
" />
<path d="M7.4471 8.8110
L7.8757 8.6681
" />
<path d="M7.8757 8.6681
L8.5900 8.6681
" />
</g></g>
<g style="fill:none; 
stroke:#F2EDA1; stroke-width:0.1500; stroke-opacity:1; 
stroke-linecap:round; stroke-linejoin:round;">
<g transform="rotate(-90.000000 23.1550 7.4600)">
<text x="23.1550" y="7.9600"
textLength="1.9643" font-size="1.3333" lengthAdjust="spacingAndGlyphs"
text-anchor="middle" opacity="0" stroke-opacity="0">J1</text>
</g>
<g class="stroked-text"><desc>J1</desc>
<path d="M22.6098 7.7933
L23.3241 7.7933
" />
<path d="M23.3241 7.7933
L23.4670 7.8410
" />
<path d="M23.4670 7.8410
L23.5622 7.9362
" />
<path d="M23.5622 7.9362
L23.6098 8.0790
" />
<path d="M23.6098 8.0790
L23.6098 8.1743
" />
<path d="M23.6098 6.7933
L23.6098 7.3648
" />
<path d="M23.6098 7.0790
L22.6098 7.0790
" />
<path d="M22.6098 7.0790
L22.7527 7.1743
" />
<path d="M22.7527 7.1743
L22.8479 7.2695
" />
<path d="M22.8479 7.2695
L22.8955 7.3648
" />
</g></g>
<g style="fill:#F2EDA1; fill-opacity:1.0000; stroke:none;">
<circle cx="25.4250" cy="10.5750" r="0.5000" /> 
</g>
<g style="fill:#F2EDA1; fill-opacity:1.0000; stroke:none;">
<circle cx="27.9650" cy="10.5750" r="0.5000" /> 
</g>
<g style="fill:#F2EDA1; fill-opacity:1.0000; stroke:none;">
<circle cx="30.5050" cy="10.5750" r="0.5000" /> 
</g>
<g style="fill:#F2EDA1; fill-opacity:1.0000; stroke:none;">
<circle cx="33.0450" cy="10.5750" r="0.5000" /> 
</g>
<g style="fill:#F2EDA1; fill-opacity:1.0000; stroke:none;">
<circle cx="35.5850" cy="10.5750" r="0.5000" /> 
</g>
<g style="fill:#F2EDA1; fill-opacity:1.0000; stroke:none;">
<circle cx="38.1250" cy="10.5750" r="0.5000" /> 
</g>
<g style="fill:#F2EDA1; fill-opacity:1.0000; stroke:none;">
<circle cx="40.6650" cy="10.5750" r="0.5000" /> 
</g>
<g style="fill:#F2EDA1; fill-opacity:1.0000; stroke:none;">
<circle cx="43.2050" cy="10.5750" r="0.5000" /> 
</g>
<g style="fill:#F2EDA1; fill-opacity:1.0000; stroke:none;">
<circle cx="45.7450" cy="10.5750" r="0.5000" /> 
</g>
<g style="fill:#F2EDA1; fill-opacity:1.0000; stroke:none;">
<circle cx="48.2850" cy="10.5750" r="0.5000" /> 
</g>
<g style="fill:#F2EDA1; fill-opacity:1.0000; stroke:none;">
<circle cx="50.8250" cy="10.5750" r="0.5000" /> 
</g>
<g style="fill:#F2EDA1; fill-opacity:1.0000; stroke:none;">
<circle cx="53.3650" cy="10.5750" r="0.5000" /> 
</g>
<g style="fill:#F2EDA1; fill-opacity:1.0000; stroke:none;">
<circle cx="55.9050" cy="10.5750" r="0.5000" /> 
</g>
<g style="fill:#F2EDA1; fill-opacity:1.0000; stroke:none;">
<circle cx="58.4450" cy="10.5750" r="0.5000" /> 
</g>
<g style="fill:#F2EDA1; fill-opacity:1.0000; stroke:none;">
<circle cx="60.9850" cy="10.5750" r="0.5000" /> 
</g>
<g style="fill:#F2EDA1; fill-opacity:1.0000; stroke:none;">
<circle cx="63.5250" cy="10.5750" r="0.5000" /> 
</g>
<g style="fill:#F2EDA1; fill-opacity:1.0000; stroke:none;">
<circle cx="66.0650" cy="10.5750" r="0.5000" /> 
</g>
<g style="fill:#F2EDA1; fill-opacity:1.0000; stroke:none;">
<circle cx="68.6050" cy="10.5750" r="0.5000" /> 
</g>
<g style="fill:#F2EDA1; fill-opacity:1.0000; stroke:none;">
<circle cx="71.1450" cy="10.5750" r="0.5000" /> 
</g>
<g style="fill:#F2EDA1; fill-opacity:1.0000; stroke:none;">
<circle cx="73.6850" cy="10.5750" r="0.5000" /> 
</g>
<g style="fill:#F2EDA1; fill-opacity:1.0000; stroke:none;">
<circle cx="73.6850" cy="13.1150" r="0.5000" /> 
</g>
<g style="fill:#F2EDA1; fill-opacity:1.0000; stroke:none;">
<circle cx="71.1450" cy="13.1150" r="0.5000" /> 
</g>
<g style="fill:#F2EDA1; fill-opacity:1.0000; stroke:none;">
<circle cx="68.6050" cy="13.1150" r="0.5000" /> 
</g>
<g style="fill:#F2EDA1; fill-opacity:1.0000; stroke:none;">
<circle cx="66.0650" cy="13.1150" r="0.5000" /> 
</g>
<g style="fill:#F2EDA1; fill-opacity:1.0000; stroke:none;">
<circle cx="63.5250" cy="13.1150" r="0.5000" /> 
</g>
<g style="fill:#F2EDA1; fill-opacity:1.0000; stroke:none;">
<circle cx="60.9850" cy="13.1150" r="0.5000" /> 
</g>
<g style="fill:#F2EDA1; fill-opacity:1.0000; stroke:none;">
<circle cx="58.4450" cy="13.1150" r="0.5000" /> 
</g>
<g style="fill:#F2EDA1; fill-opacity:1.0000; stroke:none;">
<circle cx="55.9050" cy="13.1150" r="0.5000" /> 
</g>
<g style="fill:#F2EDA1; fill-opacity:1.0000; stroke:none;">
<circle cx="53.3650" cy="13.1150" r="0.5000" /> 
</g>
<g style="fill:#F2EDA1; fill-opacity:1.0000; stroke:none;">
<circle cx="50.8250" cy="13.1150" r="0.5000" /> 
</g>
<g style="fill:#F2EDA1; fill-opacity:1.0000; stroke:none;">
<circle cx="48.2850" cy="13.1150" r="0.5000" /> 
</g>
<g style="fill:#F2EDA1; fill-opacity:1.0000; stroke:none;">
<circle cx="45.7450" cy="13.1150" r="0.5000" /> 
</g>
<g style="fill:#F2EDA1; fill-opacity:1.0000; stroke:none;">
<circle cx="43.2050" cy="13.1150" r="0.5000" /> 
</g>
<g style="fill:#F2EDA1; fill-opacity:1.0000; stroke:none;">
<circle cx="40.6650" cy="13.1150" r="0.5000" /> 
</g>
<g style="fill:#F2EDA1; fill-opacity:1.0000; stroke:none;">
<circle cx="38.1250" cy="13.1150" r="0.5000" /> 
</g>
<g style="fill:#F2EDA1; fill-opacity:1.0000; stroke:none;">
<circle cx="35.5850" cy="13.1150" r="0.5000" /> 
</g>
<g style="fill:#F2EDA1; fill-opacity:1.0000; stroke:none;">
<circle cx="33.0450" cy="13.1150" r="0.5000" /> 
</g>
<g style="fill:#F2EDA1; fill-opacity:1.0000; stroke:none;">
<circle cx="30.5050" cy="13.1150" r="0.5000" /> 
</g>
<g style="fill:#F2EDA1; fill-opacity:1.0000; stroke:none;">
<circle cx="27.9650" cy="13.1150" r="0.5000" /> 
</g>
<g style="fill:#F2EDA1; fill-opacity:1.0000; stroke:none;">
<circle cx="25.4250" cy="13.1150" r="0.5000" /> 
</g>
<g style="fill:none; 
stroke:#D0D2CD; stroke-width:0.0500; stroke-opacity:1; 
stroke-linecap:round; stroke-linejoin:round;">
<path d="M99.7200 6.2200
L0.0250 6.2200
" />
<path d="M99.7200 105.9150
L99.7200 6.2200
" />
<path d="M99.7200 105.9150
L0.0250 105.9150
" />
<path d="M0.0250 6.2200
L0.0250 105.9150
" />
</g>
<g style="fill:#D0D2CD; fill-opacity:1.0000; stroke:none;">
<circle cx="25.4250" cy="10.5750" r="0.5000" /> 
</g>
<g style="fill:#D0D2CD; fill-opacity:1.0000; stroke:none;">
<circle cx="27.9650" cy="10.5750" r="0.5000" /> 
</g>
<g style="fill:#D0D2CD; fill-opacity:1.0000; stroke:none;">
<circle cx="30.5050" cy="10.5750" r="0.5000" /> 
</g>
<g style="fill:#D0D2CD; fill-opacity:1.0000; stroke:none;">
<circle cx="33.0450" cy="10.5750" r="0.5000" /> 
</g>
<g style="fill:#D0D2CD; fill-opacity:1.0000; stroke:none;">
<circle cx="35.5850" cy="10.5750" r="0.5000" /> 
</g>
<g style="fill:#D0D2CD; fill-opacity:1.0000; stroke:none;">
<circle cx="38.1250" cy="10.5750" r="0.5000" /> 
</g>
<g style="fill:#D0D2CD; fill-opacity:1.0000; stroke:none;">
<circle cx="40.6650" cy="10.5750" r="0.5000" /> 
</g>
<g style="fill:#D0D2CD; fill-opacity:1.0000; stroke:none;">
<circle cx="43.2050" cy="10.5750" r="0.5000" /> 
</g>
<g style="fill:#D0D2CD; fill-opacity:1.0000; stroke:none;">
<circle cx="45.7450" cy="10.5750" r="0.5000" /> 
</g>
<g style="fill:#D0D2CD; fill-opacity:1.0000; stroke:none;">
<circle cx="48.2850" cy="10.5750" r="0.5000" /> 
</g>
<g style="fill:#D0D2CD; fill-opacity:1.0000; stroke:none;">
<circle cx="50.8250" cy="10.5750" r="0.5000" /> 
</g>
<g style="fill:#D0D2CD; fill-opacity:1.0000; stroke:none;">
<circle cx="53.3650" cy="10.5750" r="0.5000" /> 
</g>
<g style="fill:#D0D2CD; fill-opacity:1.0000; stroke:none;">
<circle cx="55.9050" cy="10.5750" r="0.5000" /> 
</g>
<g style="fill:#D0D2CD; fill-opacity:1.0000; stroke:none;">
<circle cx="58.4450" cy="10.5750" r="0.5000" /> 
</g>
<g style="fill:#D0D2CD; fill-opacity:1.0000; stroke:none;">
<circle cx="60.9850" cy="10.5750" r="0.5000" /> 
</g>
<g style="fill:#D0D2CD; fill-opacity:1.0000; stroke:none;">
<circle cx="63.5250" cy="10.5750" r="0.5000" /> 
</g>
<g style="fill:#D0D2CD; fill-opacity:1.0000; stroke:none;">
<circle cx="66.0650" cy="10.5750" r="0.5000" /> 
</g>
<g style="fill:#D0D2CD; fill-opacity:1.0000; stroke:none;">
<circle cx="68.6050" cy="10.5750" r="0.5000" /> 
</g>
<g style="fill:#D0D2CD; fill-opacity:1.0000; stroke:none;">
<circle cx="71.1450" cy="10.5750" r="0.5000" /> 
</g>
<g style="fill:#D0D2CD; fill-opacity:1.0000; stroke:none;">
<circle cx="73.6850" cy="10.5750" r="0.5000" /> 
</g>
<g style="fill:#D0D2CD; fill-opacity:1.0000; stroke:none;">
<circle cx="73.6850" cy="13.1150" r="0.5000" /> 
</g>
<g style="fill:#D0D2CD; fill-opacity:1.0000; stroke:none;">
<circle cx="71.1450" cy="13.1150" r="0.5000" /> 
</g>
<g style="fill:#D0D2CD; fill-opacity:1.0000; stroke:none;">
<circle cx="68.6050" cy="13.1150" r="0.5000" /> 
</g>
<g style="fill:#D0D2CD; fill-opacity:1.0000; stroke:none;">
<circle cx="66.0650" cy="13.1150" r="0.5000" /> 
</g>
<g style="fill:#D0D2CD; fill-opacity:1.0000; stroke:none;">
<circle cx="63.5250" cy="13.1150" r="0.5000" /> 
</g>
<g style="fill:#D0D2CD; fill-opacity:1.0000; stroke:none;">
<circle cx="60.9850" cy="13.1150" r="0.5000" /> 
</g>
<g style="fill:#D0D2CD; fill-opacity:1.0000; stroke:none;">
<circle cx="58.4450" cy="13.1150" r="0.5000" /> 
</g>
<g style="fill:#D0D2CD; fill-opacity:1.0000; stroke:none;">
<circle cx="55.9050" cy="13.1150" r="0.5000" /> 
</g>
<g style="fill:#D0D2CD; fill-opacity:1.0000; stroke:none;">
<circle cx="53.3650" cy="13.1150" r="0.5000" /> 
</g>
<g style="fill:#D0D2CD; fill-opacity:1.0000; stroke:none;">
<circle cx="50.8250" cy="13.1150" r="0.5000" /> 
</g>
<g style="fill:#D0D2CD; fill-opacity:1.0000; stroke:none;">
<circle cx="48.2850" cy="13.1150" r="0.5000" /> 
</g>
<g style="fill:#D0D2CD; fill-opacity:1.0000; stroke:none;">
<circle cx="45.7450" cy="13.1150" r="0.5000" /> 
</g>
<g style="fill:#D0D2CD; fill-opacity:1.0000; stroke:none;">
<circle cx="43.2050" cy="13.1150" r="0.5000" /> 
</g>
<g style="fill:#D0D2CD; fill-opacity:1.0000; stroke:none;">
<circle cx="40.6650" cy="13.1150" r="0.5000" /> 
</g>
<g style="fill:#D0D2CD; fill-opacity:1.0000; stroke:none;">
<circle cx="38.1250" cy="13.1150" r="0.5000" /> 
</g>
<g style="fill:#D0D2CD; fill-opacity:1.0000; stroke:none;">
<circle cx="35.5850" cy="13.1150" r="0.5000" /> 
</g>
<g style="fill:#D0D2CD; fill-opacity:1.0000; stroke:none;">
<circle cx="33.0450" cy="13.1150" r="0.5000" /> 
</g>
<g style="fill:#D0D2CD; fill-opacity:1.0000; stroke:none;">
<circle cx="30.5050" cy="13.1150" r="0.5000" /> 
</g>
<g style="fill:#D0D2CD; fill-opacity:1.0000; stroke:none;">
<circle cx="27.9650" cy="13.1150" r="0.5000" /> 
</g>
<g style="fill:#D0D2CD; fill-opacity:1.0000; stroke:none;">
<circle cx="25.4250" cy="13.1150" r="0.5000" /> 
</g>
<g style="fill:#FFFFFF; fill-opacity:1.0000; stroke:none;">
<circle cx="25.4250" cy="10.5750" r="0.5000" /> 
</g>
<g style="fill:#FFFFFF; fill-opacity:1.0000; stroke:none;">
<circle cx="27.9650" cy="10.5750" r="0.5000" /> 
</g>
<g style="fill:#FFFFFF; fill-opacity:1.0000; stroke:none;">
<circle cx="30.5050" cy="10.5750" r="0.5000" /> 
</g>
<g style="fill:#FFFFFF; fill-opacity:1.0000; stroke:none;">
<circle cx="33.0450" cy="10.5750" r="0.5000" /> 
</g>
<g style="fill:#FFFFFF; fill-opacity:1.0000; stroke:none;">
<circle cx="35.5850" cy="10.5750" r="0.5000" /> 
</g>
<g style="fill:#FFFFFF; fill-opacity:1.0000; stroke:none;">
<circle cx="38.1250" cy="10.5750" r="0.5000" /> 
</g>
<g style="fill:#FFFFFF; fill-opacity:1.0000; stroke:none;">
<circle cx="40.6650" cy="10.5750" r="0.5000" /> 
</g>
<g style="fill:#FFFFFF; fill-opacity:1.0000; stroke:none;">
<circle cx="43.2050" cy="10.5750" r="0.5000" /> 
</g>
<g style="fill:#FFFFFF; fill-opacity:1.0000; stroke:none;">
<circle cx="45.7450" cy="10.5750" r="0.5000" /> 
</g>
<g style="fill:#FFFFFF; fill-opacity:1.0000; stroke:none;">
<circle cx="48.2850" cy="10.5750" r="0.5000" /> 
</g>
<g style="fill:#FFFFFF; fill-opacity:1.0000; stroke:none;">
<circle cx="50.8250" cy="10.5750" r="0.5000" /> 
</g>
<g style="fill:#FFFFFF; fill-opacity:1.0000; stroke:none;">
<circle cx="53.3650" cy="10.5750" r="0.5000" /> 
</g>
<g style="fill:#FFFFFF; fill-opacity:1.0000; stroke:none;">
<circle cx="55.9050" cy="10.5750" r="0.5000" /> 
</g>
<g style="fill:#FFFFFF; fill-opacity:1.0000; stroke:none;">
<circle cx="58.4450" cy="10.5750" r="0.5000" /> 
</g>
<g style="fill:#FFFFFF; fill-opacity:1.0000; stroke:none;">
<circle cx="60.9850" cy="10.5750" r="0.5000" /> 
</g>
<g style="fill:#FFFFFF; fill-opacity:1.0000; stroke:none;">
<circle cx="63.5250" cy="10.5750" r="0.5000" /> 
</g>
<g style="fill:#FFFFFF; fill-opacity:1.0000; stroke:none;">
<circle cx="66.0650" cy="10.5750" r="0.5000" /> 
</g>
<g style="fill:#FFFFFF; fill-opacity:1.0000; stroke:none;">
<circle cx="68.6050" cy="10.5750" r="0.5000" /> 
</g>
<g style="fill:#FFFFFF; fill-opacity:1.0000; stroke:none;">
<circle cx="71.1450" cy="10.5750" r="0.5000" /> 
</g>
<g style="fill:#FFFFFF; fill-opacity:1.0000; stroke:none;">
<circle cx="73.6850" cy="10.5750" r="0.5000" /> 
</g>
<g style="fill:#FFFFFF; fill-opacity:1.0000; stroke:none;">
<circle cx="73.6850" cy="13.1150" r="0.5000" /> 
</g>
<g style="fill:#FFFFFF; fill-opacity:1.0000; stroke:none;">
<circle cx="71.1450" cy="13.1150" r="0.5000" /> 
</g>
<g style="fill:#FFFFFF; fill-opacity:1.0000; stroke:none;">
<circle cx="68.6050" cy="13.1150" r="0.5000" /> 
</g>
<g style="fill:#FFFFFF; fill-opacity:1.0000; stroke:none;">
<circle cx="66.0650" cy="13.1150" r="0.5000" /> 
</g>
<g style="fill:#FFFFFF; fill-opacity:1.0000; stroke:none;">
<circle cx="63.5250" cy="13.1150" r="0.5000" /> 
</g>
<g style="fill:#FFFFFF; fill-opacity:1.0000; stroke:none;">
<circle cx="60.9850" cy="13.1150" r="0.5000" /> 
</g>
<g style="fill:#FFFFFF; fill-opacity:1.0000; stroke:none;">
<circle cx="58.4450" cy="13.1150" r="0.5000" /> 
</g>
<g style="fill:#FFFFFF; fill-opacity:1.0000; stroke:none;">
<circle cx="55.9050" cy="13.1150" r="0.5000" /> 
</g>
<g style="fill:#FFFFFF; fill-opacity:1.0000; stroke:none;">
<circle cx="53.3650" cy="13.1150" r="0.5000" /> 
</g>
<g style="fill:#FFFFFF; fill-opacity:1.0000; stroke:none;">
<circle cx="50.8250" cy="13.1150" r="0.5000" /> 
</g>
<g style="fill:#FFFFFF; fill-opacity:1.0000; stroke:none;">
<circle cx="48.2850" cy="13.1150" r="0.5000" /> 
</g>
<g style="fill:#FFFFFF; fill-opacity:1.0000; stroke:none;">
<circle cx="45.7450" cy="13.1150" r="0.5000" /> 
</g>
<g style="fill:#FFFFFF; fill-opacity:1.0000; stroke:none;">
<circle cx="43.2050" cy="13.1150" r="0.5000" /> 
</g>
<g style="fill:#FFFFFF; fill-opacity:1.0000; stroke:none;">
<circle cx="40.6650" cy="13.1150" r="0.5000" /> 
</g>
<g style="fill:#FFFFFF; fill-opacity:1.0000; stroke:none;">
<circle cx="38.1250" cy="13.1150" r="0.5000" /> 
</g>
<g style="fill:#FFFFFF; fill-opacity:1.0000; stroke:none;">
<circle cx="35.5850" cy="13.1150" r="0.5000" /> 
</g>
<g style="fill:#FFFFFF; fill-opacity:1.0000; stroke:none;">
<circle cx="33.0450" cy="13.1150" r="0.5000" /> 
</g>
<g style="fill:#FFFFFF; fill-opacity:1.0000; stroke:none;">
<circle cx="30.5050" cy="13.1150" r="0.5000" /> 
</g>
<g style="fill:#FFFFFF; fill-opacity:1.0000; stroke:none;">
<circle cx="27.9650" cy="13.1150" r="0.5000" /> 
</g>
<g style="fill:#FFFFFF; fill-opacity:1.0000; stroke:none;">
<circle cx="25.4250" cy="13.1150" r="0.5000" /> 
</g> 
</svg>
