M48
; DRILL file {KiCad 9.0.2+dfsg-1} date 2026-09-13T22:14:26+0200
; FORMAT={-:-/ absolute / metric / decimal}
; #@! TF.CreationDate,2026-09-13T22:14:26+02:00
; #@! TF.GenerationSoftware,Kicad,Pcbnew,9.0.2+dfsg-1
; #@! TF.FileFunction,Plated,1,2,PTH
FMAT,2
METRIC
; #@! TA.AperFunction,Plated,PTH,ViaDrill
T1C0.300
; #@! TA.AperFunction,Plated,PTH,ViaDrill
T2C0.600
; #@! TA.AperFunction,Plated,PTH,ComponentDrill
T3C0.700
; #@! TA.AperFunction,Plated,PTH,ComponentDrill
T4C0.800
; #@! TA.AperFunction,Plated,PTH,ComponentDrill
T5C0.914
; #@! TA.AperFunction,Plated,PTH,ComponentDrill
T6C1.000
%
G90
G05
T1
X112.395Y-74.295
X113.03Y-79.375
X113.665Y-73.025
X114.3Y-79.375
X114.935Y-75.565
X115.57Y-79.375
X116.205Y-76.835
X116.84Y-79.375
X125.095Y-122.555
X125.73Y-120.015
X126.365Y-117.475
X127.0Y-114.935
X127.0Y-132.08
X127.635Y-112.395
X128.27Y-109.855
X128.905Y-107.315
X137.16Y-130.81
X140.97Y-130.175
T2
X85.09Y-74.295
T3
X88.9Y-86.36
X88.9Y-88.9
X88.9Y-91.44
X88.9Y-93.98
X88.9Y-96.52
X88.9Y-99.06
X88.9Y-101.6
X88.9Y-104.14
X88.9Y-106.68
X88.9Y-109.22
X88.9Y-113.045
X88.9Y-115.585
X88.9Y-118.125
X88.9Y-120.665
X88.9Y-123.205
X88.9Y-125.745
X88.9Y-128.285
X88.9Y-130.825
X88.9Y-133.365
X88.9Y-135.89
X91.44Y-86.36
X91.44Y-88.9
X91.44Y-91.44
X91.44Y-93.98
X91.44Y-96.52
X91.44Y-99.06
X91.44Y-101.6
X91.44Y-104.14
X91.44Y-106.68
X91.44Y-109.22
X91.44Y-113.045
X91.44Y-115.585
X91.44Y-118.125
X91.44Y-120.665
X91.44Y-123.205
X91.44Y-125.745
X91.44Y-128.285
X91.44Y-130.825
X91.44Y-133.365
X91.44Y-135.89
T4
X101.045Y-141.685
X106.045Y-90.17
X106.045Y-92.71
X106.045Y-95.25
X106.045Y-97.79
X106.045Y-100.33
X106.045Y-102.87
X106.045Y-105.41
X106.045Y-107.95
X106.045Y-110.49
X106.045Y-113.03
X106.045Y-115.57
X106.045Y-118.11
X106.045Y-120.65
X106.045Y-123.19
X106.045Y-125.73
X106.045Y-128.27
X106.045Y-130.81
X106.045Y-133.35
X106.045Y-135.89
X106.045Y-138.43
X106.045Y-141.685
X121.285Y-90.17
X121.285Y-92.71
X121.285Y-95.25
X121.285Y-97.79
X121.285Y-100.33
X121.285Y-102.87
X121.285Y-105.41
X121.285Y-107.95
X121.285Y-110.49
X121.285Y-113.03
X121.285Y-115.57
X121.285Y-118.11
X121.285Y-120.65
X121.285Y-123.19
X121.285Y-125.73
X121.285Y-128.27
X121.285Y-130.81
X121.285Y-133.35
X121.285Y-135.89
X121.285Y-138.43
X124.46Y-130.81
X124.46Y-138.43
T5
X78.105Y-86.36
X78.105Y-88.9
X78.105Y-91.44
X78.105Y-93.98
X78.105Y-96.52
X78.105Y-99.06
X78.105Y-101.6
X78.105Y-104.14
X78.105Y-106.68
X78.105Y-109.22
X78.105Y-113.03
X78.105Y-115.57
X78.105Y-118.11
X78.105Y-120.65
X78.105Y-123.19
X78.105Y-125.73
X78.105Y-128.27
X78.105Y-130.81
X78.105Y-133.35
X78.105Y-135.89
X85.725Y-86.36
X85.725Y-88.9
X85.725Y-91.44
X85.725Y-93.98
X85.725Y-96.52
X85.725Y-99.06
X85.725Y-101.6
X85.725Y-104.14
X85.725Y-106.68
X85.725Y-109.22
X85.725Y-113.03
X85.725Y-115.57
X85.725Y-118.11
X85.725Y-120.65
X85.725Y-123.19
X85.725Y-125.73
X85.725Y-128.27
X85.725Y-130.81
X85.725Y-133.35
X85.725Y-135.89
T6
X88.9Y-67.855
X88.9Y-70.395
X91.44Y-67.855
X91.44Y-70.395
X93.98Y-67.855
X93.98Y-70.395
X93.98Y-159.385
X96.52Y-67.855
X96.52Y-70.395
X96.52Y-159.385
X97.155Y-86.36
X97.155Y-88.9
X97.155Y-91.44
X97.155Y-93.98
X97.155Y-96.52
X97.155Y-99.06
X97.155Y-101.6
X97.155Y-104.14
X97.155Y-106.68
X97.155Y-109.22
X97.155Y-113.03
X97.155Y-115.57
X97.155Y-118.11
X97.155Y-120.65
X97.155Y-123.19
X97.155Y-125.73
X97.155Y-128.27
X97.155Y-130.81
X97.155Y-133.35
X97.155Y-135.89
X99.06Y-67.855
X99.06Y-70.395
X99.06Y-159.385
X101.6Y-67.855
X101.6Y-70.395
X101.6Y-159.385
X104.14Y-67.855
X104.14Y-70.395
X104.14Y-159.385
X106.68Y-67.855
X106.68Y-70.395
X106.68Y-159.385
X109.22Y-67.855
X109.22Y-70.395
X109.22Y-159.385
X111.76Y-67.855
X111.76Y-70.395
X111.76Y-159.385
X114.3Y-67.855
X114.3Y-70.395
X114.3Y-159.385
X116.84Y-67.855
X116.84Y-70.395
X116.84Y-159.385
X119.38Y-67.855
X119.38Y-70.395
X119.38Y-159.385
X121.92Y-67.855
X121.92Y-70.395
X121.92Y-159.385
X124.46Y-67.855
X124.46Y-70.395
X124.46Y-159.385
X127.0Y-67.855
X127.0Y-70.395
X127.0Y-159.385
X129.54Y-67.855
X129.54Y-70.395
X129.54Y-159.385
X132.08Y-67.855
X132.08Y-70.395
X132.08Y-159.385
X134.62Y-67.855
X134.62Y-70.395
X137.16Y-67.855
X137.16Y-70.395
M30
