%TF.GenerationSoftware,KiCad,Pcbnew,9.0.2+dfsg-1*%
%TF.CreationDate,2026-09-13T22:14:26+02:00*%
%TF.ProjectId,via-card,7669612d-6361-4726-942e-6b696361645f,rev?*%
%TF.SameCoordinates,Original*%
%TF.FileFunction,Legend,Bot*%
%TF.FilePolarity,Positive*%
%FSLAX46Y46*%
G04 Gerber Fmt 4.6, Leading zero omitted, Abs format (unit mm)*
G04 Created by KiCad (PCBNEW 9.0.2+dfsg-1) date 2026-09-13 22:14:26*
%MOMM*%
%LPD*%
G01*
G04 APERTURE LIST*
%ADD10C,0.350000*%
G04 APERTURE END LIST*
D10*
X91440000Y-133365000D03*
X88900000Y-133365000D03*
X91440000Y-88900000D03*
X88900000Y-88900000D03*
X91440000Y-123205000D03*
X88900000Y-123205000D03*
X91440000Y-118125000D03*
X88900000Y-118125000D03*
X91440000Y-86360000D03*
X88900000Y-86360000D03*
X91440000Y-135890000D03*
X88900000Y-135890000D03*
X91440000Y-104140000D03*
X88900000Y-104140000D03*
X91440000Y-120665000D03*
X88900000Y-120665000D03*
X106045000Y-141685000D03*
X101045000Y-141685000D03*
X91440000Y-125745000D03*
X88900000Y-125745000D03*
X88900000Y-67855000D03*
X91440000Y-67855000D03*
X93980000Y-67855000D03*
X96520000Y-67855000D03*
X99060000Y-67855000D03*
X101600000Y-67855000D03*
X104140000Y-67855000D03*
X106680000Y-67855000D03*
X109220000Y-67855000D03*
X111760000Y-67855000D03*
X114300000Y-67855000D03*
X116840000Y-67855000D03*
X119380000Y-67855000D03*
X121920000Y-67855000D03*
X124460000Y-67855000D03*
X127000000Y-67855000D03*
X129540000Y-67855000D03*
X132080000Y-67855000D03*
X134620000Y-67855000D03*
X137160000Y-67855000D03*
X137160000Y-70395000D03*
X134620000Y-70395000D03*
X132080000Y-70395000D03*
X129540000Y-70395000D03*
X127000000Y-70395000D03*
X124460000Y-70395000D03*
X121920000Y-70395000D03*
X119380000Y-70395000D03*
X116840000Y-70395000D03*
X114300000Y-70395000D03*
X111760000Y-70395000D03*
X109220000Y-70395000D03*
X106680000Y-70395000D03*
X104140000Y-70395000D03*
X101600000Y-70395000D03*
X99060000Y-70395000D03*
X96520000Y-70395000D03*
X93980000Y-70395000D03*
X91440000Y-70395000D03*
X88900000Y-70395000D03*
X97155000Y-113030000D03*
X97155000Y-115570000D03*
X97155000Y-118110000D03*
X97155000Y-120650000D03*
X97155000Y-123190000D03*
X97155000Y-125730000D03*
X97155000Y-128270000D03*
X97155000Y-130810000D03*
X97155000Y-133350000D03*
X97155000Y-135890000D03*
X91440000Y-128285000D03*
X88900000Y-128285000D03*
X91440000Y-115585000D03*
X88900000Y-115585000D03*
X91440000Y-99060000D03*
X88900000Y-99060000D03*
X91440000Y-106680000D03*
X88900000Y-106680000D03*
X93980000Y-159385000D03*
X96520000Y-159385000D03*
X99060000Y-159385000D03*
X101600000Y-159385000D03*
X104140000Y-159385000D03*
X106680000Y-159385000D03*
X109220000Y-159385000D03*
X111760000Y-159385000D03*
X114300000Y-159385000D03*
X116840000Y-159385000D03*
X119380000Y-159385000D03*
X121920000Y-159385000D03*
X124460000Y-159385000D03*
X127000000Y-159385000D03*
X129540000Y-159385000D03*
X132080000Y-159385000D03*
X85725000Y-135890000D03*
X85725000Y-133350000D03*
X85725000Y-130810000D03*
X85725000Y-128270000D03*
X85725000Y-125730000D03*
X85725000Y-123190000D03*
X85725000Y-120650000D03*
X85725000Y-118110000D03*
X85725000Y-115570000D03*
X85725000Y-113030000D03*
X78105000Y-113030000D03*
X78105000Y-115570000D03*
X78105000Y-118110000D03*
X78105000Y-120650000D03*
X78105000Y-123190000D03*
X78105000Y-125730000D03*
X78105000Y-128270000D03*
X78105000Y-130810000D03*
X78105000Y-133350000D03*
X78105000Y-135890000D03*
X91440000Y-91440000D03*
X88900000Y-91440000D03*
X97155000Y-86360000D03*
X97155000Y-88900000D03*
X97155000Y-91440000D03*
X97155000Y-93980000D03*
X97155000Y-96520000D03*
X97155000Y-99060000D03*
X97155000Y-101600000D03*
X97155000Y-104140000D03*
X97155000Y-106680000D03*
X97155000Y-109220000D03*
X91440000Y-96520000D03*
X88900000Y-96520000D03*
X85725000Y-109220000D03*
X85725000Y-106680000D03*
X85725000Y-104140000D03*
X85725000Y-101600000D03*
X85725000Y-99060000D03*
X85725000Y-96520000D03*
X85725000Y-93980000D03*
X85725000Y-91440000D03*
X85725000Y-88900000D03*
X85725000Y-86360000D03*
X78105000Y-86360000D03*
X78105000Y-88900000D03*
X78105000Y-91440000D03*
X78105000Y-93980000D03*
X78105000Y-96520000D03*
X78105000Y-99060000D03*
X78105000Y-101600000D03*
X78105000Y-104140000D03*
X78105000Y-106680000D03*
X78105000Y-109220000D03*
X91440000Y-101600000D03*
X88900000Y-101600000D03*
X91440000Y-109220000D03*
X88900000Y-109220000D03*
X91440000Y-113045000D03*
X88900000Y-113045000D03*
X124460000Y-138430000D03*
X124460000Y-130810000D03*
X91440000Y-93980000D03*
X88900000Y-93980000D03*
X106045000Y-90170000D03*
X106045000Y-92710000D03*
X106045000Y-95250000D03*
X106045000Y-97790000D03*
X106045000Y-100330000D03*
X106045000Y-102870000D03*
X106045000Y-105410000D03*
X106045000Y-107950000D03*
X106045000Y-110490000D03*
X106045000Y-113030000D03*
X106045000Y-115570000D03*
X106045000Y-118110000D03*
X106045000Y-120650000D03*
X106045000Y-123190000D03*
X106045000Y-125730000D03*
X106045000Y-128270000D03*
X106045000Y-130810000D03*
X106045000Y-133350000D03*
X106045000Y-135890000D03*
X106045000Y-138430000D03*
X121285000Y-138430000D03*
X121285000Y-135890000D03*
X121285000Y-133350000D03*
X121285000Y-130810000D03*
X121285000Y-128270000D03*
X121285000Y-125730000D03*
X121285000Y-123190000D03*
X121285000Y-120650000D03*
X121285000Y-118110000D03*
X121285000Y-115570000D03*
X121285000Y-113030000D03*
X121285000Y-110490000D03*
X121285000Y-107950000D03*
X121285000Y-105410000D03*
X121285000Y-102870000D03*
X121285000Y-100330000D03*
X121285000Y-97790000D03*
X121285000Y-95250000D03*
X121285000Y-92710000D03*
X121285000Y-90170000D03*
X91440000Y-130825000D03*
X88900000Y-130825000D03*
M02*
