M48
; DRILL file {KiCad 9.0.2+dfsg-1} date 2026-09-02T22:03:48+0200
; FORMAT={-:-/ absolute / metric / decimal}
; #@! TF.CreationDate,2026-09-02T22:03:48+02:00
; #@! TF.GenerationSoftware,Kicad,Pcbnew,9.0.2+dfsg-1
; #@! TF.FileFunction,Plated,1,2,PTH
FMAT,2
METRIC
; #@! TA.AperFunction,Plated,PTH,ComponentDrill
T1C1.000
%
G90
G05
T1
X88.9Y-67.855
X88.9Y-70.395
X91.44Y-67.855
X91.44Y-70.395
X93.98Y-67.855
X93.98Y-70.395
X96.52Y-67.855
X96.52Y-70.395
X99.06Y-67.855
X99.06Y-70.395
X101.6Y-67.855
X101.6Y-70.395
X104.14Y-67.855
X104.14Y-70.395
X106.68Y-67.855
X106.68Y-70.395
X109.22Y-67.855
X109.22Y-70.395
X111.76Y-67.855
X111.76Y-70.395
X114.3Y-67.855
X114.3Y-70.395
X116.84Y-67.855
X116.84Y-70.395
X119.38Y-67.855
X119.38Y-70.395
X121.92Y-67.855
X121.92Y-70.395
X124.46Y-67.855
X124.46Y-70.395
X127.0Y-67.855
X127.0Y-70.395
X129.54Y-67.855
X129.54Y-70.395
X132.08Y-67.855
X132.08Y-70.395
X134.62Y-67.855
X134.62Y-70.395
X137.16Y-67.855
X137.16Y-70.395
M30
