%TF.GenerationSoftware,KiCad,Pcbnew,9.0.2+dfsg-1*%
%TF.CreationDate,2026-09-13T22:14:26+02:00*%
%TF.ProjectId,via-card,7669612d-6361-4726-942e-6b696361645f,rev?*%
%TF.SameCoordinates,Original*%
%TF.FileFunction,Drillmap*%
%TF.FilePolarity,Positive*%
%FSLAX45Y45*%
G04 Gerber Fmt 4.5, Leading zero omitted, Abs format (unit mm)*
G04 Created by KiCad (PCBNEW 9.0.2+dfsg-1) date 2026-09-13 22:14:26*
%MOMM*%
%LPD*%
G01*
G04 APERTURE LIST*
%ADD10C,0.050000*%
%ADD11C,0.200000*%
%ADD12C,0.100000*%
G04 APERTURE END LIST*
D10*
X16319500Y-6350000D02*
X6350000Y-6350000D01*
X16319500Y-16319500D02*
X16319500Y-6350000D01*
X16319500Y-16319500D02*
X6350000Y-16319500D01*
X6350000Y-6350000D02*
X6350000Y-16319500D01*
D11*
D12*
X11224500Y-7414500D02*
X11254500Y-7444500D01*
X11254500Y-7414500D02*
X11224500Y-7444500D01*
X11288000Y-7922500D02*
X11318000Y-7952500D01*
X11318000Y-7922500D02*
X11288000Y-7952500D01*
X11351500Y-7287500D02*
X11381500Y-7317500D01*
X11381500Y-7287500D02*
X11351500Y-7317500D01*
X11415000Y-7922500D02*
X11445000Y-7952500D01*
X11445000Y-7922500D02*
X11415000Y-7952500D01*
X11478500Y-7541500D02*
X11508500Y-7571500D01*
X11508500Y-7541500D02*
X11478500Y-7571500D01*
X11542000Y-7922500D02*
X11572000Y-7952500D01*
X11572000Y-7922500D02*
X11542000Y-7952500D01*
X11605500Y-7668500D02*
X11635500Y-7698500D01*
X11635500Y-7668500D02*
X11605500Y-7698500D01*
X11669000Y-7922500D02*
X11699000Y-7952500D01*
X11699000Y-7922500D02*
X11669000Y-7952500D01*
X12494500Y-12240500D02*
X12524500Y-12270500D01*
X12524500Y-12240500D02*
X12494500Y-12270500D01*
X12558000Y-11986500D02*
X12588000Y-12016500D01*
X12588000Y-11986500D02*
X12558000Y-12016500D01*
X12621500Y-11732500D02*
X12651500Y-11762500D01*
X12651500Y-11732500D02*
X12621500Y-11762500D01*
X12685000Y-11478500D02*
X12715000Y-11508500D01*
X12715000Y-11478500D02*
X12685000Y-11508500D01*
X12685000Y-13193000D02*
X12715000Y-13223000D01*
X12715000Y-13193000D02*
X12685000Y-13223000D01*
X12748500Y-11224500D02*
X12778500Y-11254500D01*
X12778500Y-11224500D02*
X12748500Y-11254500D01*
X12812000Y-10970500D02*
X12842000Y-11000500D01*
X12842000Y-10970500D02*
X12812000Y-11000500D01*
X12875500Y-10716500D02*
X12905500Y-10746500D01*
X12905500Y-10716500D02*
X12875500Y-10746500D01*
X13701000Y-13066000D02*
X13731000Y-13096000D01*
X13731000Y-13066000D02*
X13701000Y-13096000D01*
X14082000Y-13002500D02*
X14112000Y-13032500D01*
X14112000Y-13002500D02*
X14082000Y-13032500D01*
X8539000Y-7429500D02*
G75*
G02*
X8479000Y-7429500I-30000J0D01*
G01*
X8479000Y-7429500D02*
G75*
G02*
X8539000Y-7429500I30000J0D01*
G01*
X8890000Y-8601000D02*
X8890000Y-8671000D01*
X8855000Y-8636000D02*
X8925000Y-8636000D01*
X8890000Y-8855000D02*
X8890000Y-8925000D01*
X8855000Y-8890000D02*
X8925000Y-8890000D01*
X8890000Y-9109000D02*
X8890000Y-9179000D01*
X8855000Y-9144000D02*
X8925000Y-9144000D01*
X8890000Y-9363000D02*
X8890000Y-9433000D01*
X8855000Y-9398000D02*
X8925000Y-9398000D01*
X8890000Y-9617000D02*
X8890000Y-9687000D01*
X8855000Y-9652000D02*
X8925000Y-9652000D01*
X8890000Y-9871000D02*
X8890000Y-9941000D01*
X8855000Y-9906000D02*
X8925000Y-9906000D01*
X8890000Y-10125000D02*
X8890000Y-10195000D01*
X8855000Y-10160000D02*
X8925000Y-10160000D01*
X8890000Y-10379000D02*
X8890000Y-10449000D01*
X8855000Y-10414000D02*
X8925000Y-10414000D01*
X8890000Y-10633000D02*
X8890000Y-10703000D01*
X8855000Y-10668000D02*
X8925000Y-10668000D01*
X8890000Y-10887000D02*
X8890000Y-10957000D01*
X8855000Y-10922000D02*
X8925000Y-10922000D01*
X8890000Y-11269500D02*
X8890000Y-11339500D01*
X8855000Y-11304500D02*
X8925000Y-11304500D01*
X8890000Y-11523500D02*
X8890000Y-11593500D01*
X8855000Y-11558500D02*
X8925000Y-11558500D01*
X8890000Y-11777500D02*
X8890000Y-11847500D01*
X8855000Y-11812500D02*
X8925000Y-11812500D01*
X8890000Y-12031500D02*
X8890000Y-12101500D01*
X8855000Y-12066500D02*
X8925000Y-12066500D01*
X8890000Y-12285500D02*
X8890000Y-12355500D01*
X8855000Y-12320500D02*
X8925000Y-12320500D01*
X8890000Y-12539500D02*
X8890000Y-12609500D01*
X8855000Y-12574500D02*
X8925000Y-12574500D01*
X8890000Y-12793500D02*
X8890000Y-12863500D01*
X8855000Y-12828500D02*
X8925000Y-12828500D01*
X8890000Y-13047500D02*
X8890000Y-13117500D01*
X8855000Y-13082500D02*
X8925000Y-13082500D01*
X8890000Y-13301500D02*
X8890000Y-13371500D01*
X8855000Y-13336500D02*
X8925000Y-13336500D01*
X8890000Y-13554000D02*
X8890000Y-13624000D01*
X8855000Y-13589000D02*
X8925000Y-13589000D01*
X9144000Y-8601000D02*
X9144000Y-8671000D01*
X9109000Y-8636000D02*
X9179000Y-8636000D01*
X9144000Y-8855000D02*
X9144000Y-8925000D01*
X9109000Y-8890000D02*
X9179000Y-8890000D01*
X9144000Y-9109000D02*
X9144000Y-9179000D01*
X9109000Y-9144000D02*
X9179000Y-9144000D01*
X9144000Y-9363000D02*
X9144000Y-9433000D01*
X9109000Y-9398000D02*
X9179000Y-9398000D01*
X9144000Y-9617000D02*
X9144000Y-9687000D01*
X9109000Y-9652000D02*
X9179000Y-9652000D01*
X9144000Y-9871000D02*
X9144000Y-9941000D01*
X9109000Y-9906000D02*
X9179000Y-9906000D01*
X9144000Y-10125000D02*
X9144000Y-10195000D01*
X9109000Y-10160000D02*
X9179000Y-10160000D01*
X9144000Y-10379000D02*
X9144000Y-10449000D01*
X9109000Y-10414000D02*
X9179000Y-10414000D01*
X9144000Y-10633000D02*
X9144000Y-10703000D01*
X9109000Y-10668000D02*
X9179000Y-10668000D01*
X9144000Y-10887000D02*
X9144000Y-10957000D01*
X9109000Y-10922000D02*
X9179000Y-10922000D01*
X9144000Y-11269500D02*
X9144000Y-11339500D01*
X9109000Y-11304500D02*
X9179000Y-11304500D01*
X9144000Y-11523500D02*
X9144000Y-11593500D01*
X9109000Y-11558500D02*
X9179000Y-11558500D01*
X9144000Y-11777500D02*
X9144000Y-11847500D01*
X9109000Y-11812500D02*
X9179000Y-11812500D01*
X9144000Y-12031500D02*
X9144000Y-12101500D01*
X9109000Y-12066500D02*
X9179000Y-12066500D01*
X9144000Y-12285500D02*
X9144000Y-12355500D01*
X9109000Y-12320500D02*
X9179000Y-12320500D01*
X9144000Y-12539500D02*
X9144000Y-12609500D01*
X9109000Y-12574500D02*
X9179000Y-12574500D01*
X9144000Y-12793500D02*
X9144000Y-12863500D01*
X9109000Y-12828500D02*
X9179000Y-12828500D01*
X9144000Y-13047500D02*
X9144000Y-13117500D01*
X9109000Y-13082500D02*
X9179000Y-13082500D01*
X9144000Y-13301500D02*
X9144000Y-13371500D01*
X9109000Y-13336500D02*
X9179000Y-13336500D01*
X9144000Y-13554000D02*
X9144000Y-13624000D01*
X9109000Y-13589000D02*
X9179000Y-13589000D01*
X10132785Y-14196784D02*
X10132785Y-14140215D01*
X10076216Y-14140215D01*
X10076216Y-14196784D01*
X10132785Y-14196784D01*
X10632785Y-9045285D02*
X10632785Y-8988716D01*
X10576216Y-8988716D01*
X10576216Y-9045285D01*
X10632785Y-9045285D01*
X10632785Y-9299285D02*
X10632785Y-9242716D01*
X10576216Y-9242716D01*
X10576216Y-9299285D01*
X10632785Y-9299285D01*
X10632785Y-9553285D02*
X10632785Y-9496716D01*
X10576216Y-9496716D01*
X10576216Y-9553285D01*
X10632785Y-9553285D01*
X10632785Y-9807285D02*
X10632785Y-9750716D01*
X10576216Y-9750716D01*
X10576216Y-9807285D01*
X10632785Y-9807285D01*
X10632785Y-10061285D02*
X10632785Y-10004716D01*
X10576216Y-10004716D01*
X10576216Y-10061285D01*
X10632785Y-10061285D01*
X10632785Y-10315285D02*
X10632785Y-10258716D01*
X10576216Y-10258716D01*
X10576216Y-10315285D01*
X10632785Y-10315285D01*
X10632785Y-10569285D02*
X10632785Y-10512716D01*
X10576216Y-10512716D01*
X10576216Y-10569285D01*
X10632785Y-10569285D01*
X10632785Y-10823285D02*
X10632785Y-10766716D01*
X10576216Y-10766716D01*
X10576216Y-10823285D01*
X10632785Y-10823285D01*
X10632785Y-11077285D02*
X10632785Y-11020716D01*
X10576216Y-11020716D01*
X10576216Y-11077285D01*
X10632785Y-11077285D01*
X10632785Y-11331284D02*
X10632785Y-11274715D01*
X10576216Y-11274715D01*
X10576216Y-11331284D01*
X10632785Y-11331284D01*
X10632785Y-11585284D02*
X10632785Y-11528715D01*
X10576216Y-11528715D01*
X10576216Y-11585284D01*
X10632785Y-11585284D01*
X10632785Y-11839284D02*
X10632785Y-11782715D01*
X10576216Y-11782715D01*
X10576216Y-11839284D01*
X10632785Y-11839284D01*
X10632785Y-12093284D02*
X10632785Y-12036715D01*
X10576216Y-12036715D01*
X10576216Y-12093284D01*
X10632785Y-12093284D01*
X10632785Y-12347284D02*
X10632785Y-12290715D01*
X10576216Y-12290715D01*
X10576216Y-12347284D01*
X10632785Y-12347284D01*
X10632785Y-12601284D02*
X10632785Y-12544715D01*
X10576216Y-12544715D01*
X10576216Y-12601284D01*
X10632785Y-12601284D01*
X10632785Y-12855284D02*
X10632785Y-12798715D01*
X10576216Y-12798715D01*
X10576216Y-12855284D01*
X10632785Y-12855284D01*
X10632785Y-13109284D02*
X10632785Y-13052715D01*
X10576216Y-13052715D01*
X10576216Y-13109284D01*
X10632785Y-13109284D01*
X10632785Y-13363284D02*
X10632785Y-13306715D01*
X10576216Y-13306715D01*
X10576216Y-13363284D01*
X10632785Y-13363284D01*
X10632785Y-13617284D02*
X10632785Y-13560715D01*
X10576216Y-13560715D01*
X10576216Y-13617284D01*
X10632785Y-13617284D01*
X10632785Y-13871284D02*
X10632785Y-13814715D01*
X10576216Y-13814715D01*
X10576216Y-13871284D01*
X10632785Y-13871284D01*
X10632785Y-14196784D02*
X10632785Y-14140215D01*
X10576216Y-14140215D01*
X10576216Y-14196784D01*
X10632785Y-14196784D01*
X12156784Y-9045285D02*
X12156784Y-8988716D01*
X12100215Y-8988716D01*
X12100215Y-9045285D01*
X12156784Y-9045285D01*
X12156784Y-9299285D02*
X12156784Y-9242716D01*
X12100215Y-9242716D01*
X12100215Y-9299285D01*
X12156784Y-9299285D01*
X12156784Y-9553285D02*
X12156784Y-9496716D01*
X12100215Y-9496716D01*
X12100215Y-9553285D01*
X12156784Y-9553285D01*
X12156784Y-9807285D02*
X12156784Y-9750716D01*
X12100215Y-9750716D01*
X12100215Y-9807285D01*
X12156784Y-9807285D01*
X12156784Y-10061285D02*
X12156784Y-10004716D01*
X12100215Y-10004716D01*
X12100215Y-10061285D01*
X12156784Y-10061285D01*
X12156784Y-10315285D02*
X12156784Y-10258716D01*
X12100215Y-10258716D01*
X12100215Y-10315285D01*
X12156784Y-10315285D01*
X12156784Y-10569285D02*
X12156784Y-10512716D01*
X12100215Y-10512716D01*
X12100215Y-10569285D01*
X12156784Y-10569285D01*
X12156784Y-10823285D02*
X12156784Y-10766716D01*
X12100215Y-10766716D01*
X12100215Y-10823285D01*
X12156784Y-10823285D01*
X12156784Y-11077285D02*
X12156784Y-11020716D01*
X12100215Y-11020716D01*
X12100215Y-11077285D01*
X12156784Y-11077285D01*
X12156784Y-11331284D02*
X12156784Y-11274715D01*
X12100215Y-11274715D01*
X12100215Y-11331284D01*
X12156784Y-11331284D01*
X12156784Y-11585284D02*
X12156784Y-11528715D01*
X12100215Y-11528715D01*
X12100215Y-11585284D01*
X12156784Y-11585284D01*
X12156784Y-11839284D02*
X12156784Y-11782715D01*
X12100215Y-11782715D01*
X12100215Y-11839284D01*
X12156784Y-11839284D01*
X12156784Y-12093284D02*
X12156784Y-12036715D01*
X12100215Y-12036715D01*
X12100215Y-12093284D01*
X12156784Y-12093284D01*
X12156784Y-12347284D02*
X12156784Y-12290715D01*
X12100215Y-12290715D01*
X12100215Y-12347284D01*
X12156784Y-12347284D01*
X12156784Y-12601284D02*
X12156784Y-12544715D01*
X12100215Y-12544715D01*
X12100215Y-12601284D01*
X12156784Y-12601284D01*
X12156784Y-12855284D02*
X12156784Y-12798715D01*
X12100215Y-12798715D01*
X12100215Y-12855284D01*
X12156784Y-12855284D01*
X12156784Y-13109284D02*
X12156784Y-13052715D01*
X12100215Y-13052715D01*
X12100215Y-13109284D01*
X12156784Y-13109284D01*
X12156784Y-13363284D02*
X12156784Y-13306715D01*
X12100215Y-13306715D01*
X12100215Y-13363284D01*
X12156784Y-13363284D01*
X12156784Y-13617284D02*
X12156784Y-13560715D01*
X12100215Y-13560715D01*
X12100215Y-13617284D01*
X12156784Y-13617284D01*
X12156784Y-13871284D02*
X12156784Y-13814715D01*
X12100215Y-13814715D01*
X12100215Y-13871284D01*
X12156784Y-13871284D01*
X12474284Y-13109284D02*
X12474284Y-13052715D01*
X12417715Y-13052715D01*
X12417715Y-13109284D01*
X12474284Y-13109284D01*
X12474284Y-13871284D02*
X12474284Y-13814715D01*
X12417715Y-13814715D01*
X12417715Y-13871284D01*
X12474284Y-13871284D01*
X7810500Y-8681720D02*
X7856220Y-8636000D01*
X7810500Y-8590280D01*
X7764780Y-8636000D01*
X7810500Y-8681720D01*
X7810500Y-8935720D02*
X7856220Y-8890000D01*
X7810500Y-8844280D01*
X7764780Y-8890000D01*
X7810500Y-8935720D01*
X7810500Y-9189720D02*
X7856220Y-9144000D01*
X7810500Y-9098280D01*
X7764780Y-9144000D01*
X7810500Y-9189720D01*
X7810500Y-9443720D02*
X7856220Y-9398000D01*
X7810500Y-9352280D01*
X7764780Y-9398000D01*
X7810500Y-9443720D01*
X7810500Y-9697720D02*
X7856220Y-9652000D01*
X7810500Y-9606280D01*
X7764780Y-9652000D01*
X7810500Y-9697720D01*
X7810500Y-9951720D02*
X7856220Y-9906000D01*
X7810500Y-9860280D01*
X7764780Y-9906000D01*
X7810500Y-9951720D01*
X7810500Y-10205720D02*
X7856220Y-10160000D01*
X7810500Y-10114280D01*
X7764780Y-10160000D01*
X7810500Y-10205720D01*
X7810500Y-10459720D02*
X7856220Y-10414000D01*
X7810500Y-10368280D01*
X7764780Y-10414000D01*
X7810500Y-10459720D01*
X7810500Y-10713720D02*
X7856220Y-10668000D01*
X7810500Y-10622280D01*
X7764780Y-10668000D01*
X7810500Y-10713720D01*
X7810500Y-10967720D02*
X7856220Y-10922000D01*
X7810500Y-10876280D01*
X7764780Y-10922000D01*
X7810500Y-10967720D01*
X7810500Y-11348720D02*
X7856220Y-11303000D01*
X7810500Y-11257280D01*
X7764780Y-11303000D01*
X7810500Y-11348720D01*
X7810500Y-11602720D02*
X7856220Y-11557000D01*
X7810500Y-11511280D01*
X7764780Y-11557000D01*
X7810500Y-11602720D01*
X7810500Y-11856720D02*
X7856220Y-11811000D01*
X7810500Y-11765280D01*
X7764780Y-11811000D01*
X7810500Y-11856720D01*
X7810500Y-12110720D02*
X7856220Y-12065000D01*
X7810500Y-12019280D01*
X7764780Y-12065000D01*
X7810500Y-12110720D01*
X7810500Y-12364720D02*
X7856220Y-12319000D01*
X7810500Y-12273280D01*
X7764780Y-12319000D01*
X7810500Y-12364720D01*
X7810500Y-12618720D02*
X7856220Y-12573000D01*
X7810500Y-12527280D01*
X7764780Y-12573000D01*
X7810500Y-12618720D01*
X7810500Y-12872720D02*
X7856220Y-12827000D01*
X7810500Y-12781280D01*
X7764780Y-12827000D01*
X7810500Y-12872720D01*
X7810500Y-13126720D02*
X7856220Y-13081000D01*
X7810500Y-13035280D01*
X7764780Y-13081000D01*
X7810500Y-13126720D01*
X7810500Y-13380720D02*
X7856220Y-13335000D01*
X7810500Y-13289280D01*
X7764780Y-13335000D01*
X7810500Y-13380720D01*
X7810500Y-13634720D02*
X7856220Y-13589000D01*
X7810500Y-13543280D01*
X7764780Y-13589000D01*
X7810500Y-13634720D01*
X8572500Y-8681720D02*
X8618220Y-8636000D01*
X8572500Y-8590280D01*
X8526780Y-8636000D01*
X8572500Y-8681720D01*
X8572500Y-8935720D02*
X8618220Y-8890000D01*
X8572500Y-8844280D01*
X8526780Y-8890000D01*
X8572500Y-8935720D01*
X8572500Y-9189720D02*
X8618220Y-9144000D01*
X8572500Y-9098280D01*
X8526780Y-9144000D01*
X8572500Y-9189720D01*
X8572500Y-9443720D02*
X8618220Y-9398000D01*
X8572500Y-9352280D01*
X8526780Y-9398000D01*
X8572500Y-9443720D01*
X8572500Y-9697720D02*
X8618220Y-9652000D01*
X8572500Y-9606280D01*
X8526780Y-9652000D01*
X8572500Y-9697720D01*
X8572500Y-9951720D02*
X8618220Y-9906000D01*
X8572500Y-9860280D01*
X8526780Y-9906000D01*
X8572500Y-9951720D01*
X8572500Y-10205720D02*
X8618220Y-10160000D01*
X8572500Y-10114280D01*
X8526780Y-10160000D01*
X8572500Y-10205720D01*
X8572500Y-10459720D02*
X8618220Y-10414000D01*
X8572500Y-10368280D01*
X8526780Y-10414000D01*
X8572500Y-10459720D01*
X8572500Y-10713720D02*
X8618220Y-10668000D01*
X8572500Y-10622280D01*
X8526780Y-10668000D01*
X8572500Y-10713720D01*
X8572500Y-10967720D02*
X8618220Y-10922000D01*
X8572500Y-10876280D01*
X8526780Y-10922000D01*
X8572500Y-10967720D01*
X8572500Y-11348720D02*
X8618220Y-11303000D01*
X8572500Y-11257280D01*
X8526780Y-11303000D01*
X8572500Y-11348720D01*
X8572500Y-11602720D02*
X8618220Y-11557000D01*
X8572500Y-11511280D01*
X8526780Y-11557000D01*
X8572500Y-11602720D01*
X8572500Y-11856720D02*
X8618220Y-11811000D01*
X8572500Y-11765280D01*
X8526780Y-11811000D01*
X8572500Y-11856720D01*
X8572500Y-12110720D02*
X8618220Y-12065000D01*
X8572500Y-12019280D01*
X8526780Y-12065000D01*
X8572500Y-12110720D01*
X8572500Y-12364720D02*
X8618220Y-12319000D01*
X8572500Y-12273280D01*
X8526780Y-12319000D01*
X8572500Y-12364720D01*
X8572500Y-12618720D02*
X8618220Y-12573000D01*
X8572500Y-12527280D01*
X8526780Y-12573000D01*
X8572500Y-12618720D01*
X8572500Y-12872720D02*
X8618220Y-12827000D01*
X8572500Y-12781280D01*
X8526780Y-12827000D01*
X8572500Y-12872720D01*
X8572500Y-13126720D02*
X8618220Y-13081000D01*
X8572500Y-13035280D01*
X8526780Y-13081000D01*
X8572500Y-13126720D01*
X8572500Y-13380720D02*
X8618220Y-13335000D01*
X8572500Y-13289280D01*
X8526780Y-13335000D01*
X8572500Y-13380720D01*
X8572500Y-13634720D02*
X8618220Y-13589000D01*
X8572500Y-13543280D01*
X8526780Y-13589000D01*
X8572500Y-13634720D01*
X8840000Y-6735500D02*
X8940000Y-6835500D01*
X8940000Y-6735500D02*
X8840000Y-6835500D01*
X8940000Y-6785500D02*
G75*
G02*
X8840000Y-6785500I-50000J0D01*
G01*
X8840000Y-6785500D02*
G75*
G02*
X8940000Y-6785500I50000J0D01*
G01*
X8840000Y-6989500D02*
X8940000Y-7089500D01*
X8940000Y-6989500D02*
X8840000Y-7089500D01*
X8940000Y-7039500D02*
G75*
G02*
X8840000Y-7039500I-50000J0D01*
G01*
X8840000Y-7039500D02*
G75*
G02*
X8940000Y-7039500I50000J0D01*
G01*
X9094000Y-6735500D02*
X9194000Y-6835500D01*
X9194000Y-6735500D02*
X9094000Y-6835500D01*
X9194000Y-6785500D02*
G75*
G02*
X9094000Y-6785500I-50000J0D01*
G01*
X9094000Y-6785500D02*
G75*
G02*
X9194000Y-6785500I50000J0D01*
G01*
X9094000Y-6989500D02*
X9194000Y-7089500D01*
X9194000Y-6989500D02*
X9094000Y-7089500D01*
X9194000Y-7039500D02*
G75*
G02*
X9094000Y-7039500I-50000J0D01*
G01*
X9094000Y-7039500D02*
G75*
G02*
X9194000Y-7039500I50000J0D01*
G01*
X9348000Y-6735500D02*
X9448000Y-6835500D01*
X9448000Y-6735500D02*
X9348000Y-6835500D01*
X9448000Y-6785500D02*
G75*
G02*
X9348000Y-6785500I-50000J0D01*
G01*
X9348000Y-6785500D02*
G75*
G02*
X9448000Y-6785500I50000J0D01*
G01*
X9348000Y-6989500D02*
X9448000Y-7089500D01*
X9448000Y-6989500D02*
X9348000Y-7089500D01*
X9448000Y-7039500D02*
G75*
G02*
X9348000Y-7039500I-50000J0D01*
G01*
X9348000Y-7039500D02*
G75*
G02*
X9448000Y-7039500I50000J0D01*
G01*
X9348000Y-15888500D02*
X9448000Y-15988500D01*
X9448000Y-15888500D02*
X9348000Y-15988500D01*
X9448000Y-15938500D02*
G75*
G02*
X9348000Y-15938500I-50000J0D01*
G01*
X9348000Y-15938500D02*
G75*
G02*
X9448000Y-15938500I50000J0D01*
G01*
X9602000Y-6735500D02*
X9702000Y-6835500D01*
X9702000Y-6735500D02*
X9602000Y-6835500D01*
X9702000Y-6785500D02*
G75*
G02*
X9602000Y-6785500I-50000J0D01*
G01*
X9602000Y-6785500D02*
G75*
G02*
X9702000Y-6785500I50000J0D01*
G01*
X9602000Y-6989500D02*
X9702000Y-7089500D01*
X9702000Y-6989500D02*
X9602000Y-7089500D01*
X9702000Y-7039500D02*
G75*
G02*
X9602000Y-7039500I-50000J0D01*
G01*
X9602000Y-7039500D02*
G75*
G02*
X9702000Y-7039500I50000J0D01*
G01*
X9602000Y-15888500D02*
X9702000Y-15988500D01*
X9702000Y-15888500D02*
X9602000Y-15988500D01*
X9702000Y-15938500D02*
G75*
G02*
X9602000Y-15938500I-50000J0D01*
G01*
X9602000Y-15938500D02*
G75*
G02*
X9702000Y-15938500I50000J0D01*
G01*
X9665500Y-8586000D02*
X9765500Y-8686000D01*
X9765500Y-8586000D02*
X9665500Y-8686000D01*
X9765500Y-8636000D02*
G75*
G02*
X9665500Y-8636000I-50000J0D01*
G01*
X9665500Y-8636000D02*
G75*
G02*
X9765500Y-8636000I50000J0D01*
G01*
X9665500Y-8840000D02*
X9765500Y-8940000D01*
X9765500Y-8840000D02*
X9665500Y-8940000D01*
X9765500Y-8890000D02*
G75*
G02*
X9665500Y-8890000I-50000J0D01*
G01*
X9665500Y-8890000D02*
G75*
G02*
X9765500Y-8890000I50000J0D01*
G01*
X9665500Y-9094000D02*
X9765500Y-9194000D01*
X9765500Y-9094000D02*
X9665500Y-9194000D01*
X9765500Y-9144000D02*
G75*
G02*
X9665500Y-9144000I-50000J0D01*
G01*
X9665500Y-9144000D02*
G75*
G02*
X9765500Y-9144000I50000J0D01*
G01*
X9665500Y-9348000D02*
X9765500Y-9448000D01*
X9765500Y-9348000D02*
X9665500Y-9448000D01*
X9765500Y-9398000D02*
G75*
G02*
X9665500Y-9398000I-50000J0D01*
G01*
X9665500Y-9398000D02*
G75*
G02*
X9765500Y-9398000I50000J0D01*
G01*
X9665500Y-9602000D02*
X9765500Y-9702000D01*
X9765500Y-9602000D02*
X9665500Y-9702000D01*
X9765500Y-9652000D02*
G75*
G02*
X9665500Y-9652000I-50000J0D01*
G01*
X9665500Y-9652000D02*
G75*
G02*
X9765500Y-9652000I50000J0D01*
G01*
X9665500Y-9856000D02*
X9765500Y-9956000D01*
X9765500Y-9856000D02*
X9665500Y-9956000D01*
X9765500Y-9906000D02*
G75*
G02*
X9665500Y-9906000I-50000J0D01*
G01*
X9665500Y-9906000D02*
G75*
G02*
X9765500Y-9906000I50000J0D01*
G01*
X9665500Y-10110000D02*
X9765500Y-10210000D01*
X9765500Y-10110000D02*
X9665500Y-10210000D01*
X9765500Y-10160000D02*
G75*
G02*
X9665500Y-10160000I-50000J0D01*
G01*
X9665500Y-10160000D02*
G75*
G02*
X9765500Y-10160000I50000J0D01*
G01*
X9665500Y-10364000D02*
X9765500Y-10464000D01*
X9765500Y-10364000D02*
X9665500Y-10464000D01*
X9765500Y-10414000D02*
G75*
G02*
X9665500Y-10414000I-50000J0D01*
G01*
X9665500Y-10414000D02*
G75*
G02*
X9765500Y-10414000I50000J0D01*
G01*
X9665500Y-10618000D02*
X9765500Y-10718000D01*
X9765500Y-10618000D02*
X9665500Y-10718000D01*
X9765500Y-10668000D02*
G75*
G02*
X9665500Y-10668000I-50000J0D01*
G01*
X9665500Y-10668000D02*
G75*
G02*
X9765500Y-10668000I50000J0D01*
G01*
X9665500Y-10872000D02*
X9765500Y-10972000D01*
X9765500Y-10872000D02*
X9665500Y-10972000D01*
X9765500Y-10922000D02*
G75*
G02*
X9665500Y-10922000I-50000J0D01*
G01*
X9665500Y-10922000D02*
G75*
G02*
X9765500Y-10922000I50000J0D01*
G01*
X9665500Y-11253000D02*
X9765500Y-11353000D01*
X9765500Y-11253000D02*
X9665500Y-11353000D01*
X9765500Y-11303000D02*
G75*
G02*
X9665500Y-11303000I-50000J0D01*
G01*
X9665500Y-11303000D02*
G75*
G02*
X9765500Y-11303000I50000J0D01*
G01*
X9665500Y-11507000D02*
X9765500Y-11607000D01*
X9765500Y-11507000D02*
X9665500Y-11607000D01*
X9765500Y-11557000D02*
G75*
G02*
X9665500Y-11557000I-50000J0D01*
G01*
X9665500Y-11557000D02*
G75*
G02*
X9765500Y-11557000I50000J0D01*
G01*
X9665500Y-11761000D02*
X9765500Y-11861000D01*
X9765500Y-11761000D02*
X9665500Y-11861000D01*
X9765500Y-11811000D02*
G75*
G02*
X9665500Y-11811000I-50000J0D01*
G01*
X9665500Y-11811000D02*
G75*
G02*
X9765500Y-11811000I50000J0D01*
G01*
X9665500Y-12015000D02*
X9765500Y-12115000D01*
X9765500Y-12015000D02*
X9665500Y-12115000D01*
X9765500Y-12065000D02*
G75*
G02*
X9665500Y-12065000I-50000J0D01*
G01*
X9665500Y-12065000D02*
G75*
G02*
X9765500Y-12065000I50000J0D01*
G01*
X9665500Y-12269000D02*
X9765500Y-12369000D01*
X9765500Y-12269000D02*
X9665500Y-12369000D01*
X9765500Y-12319000D02*
G75*
G02*
X9665500Y-12319000I-50000J0D01*
G01*
X9665500Y-12319000D02*
G75*
G02*
X9765500Y-12319000I50000J0D01*
G01*
X9665500Y-12523000D02*
X9765500Y-12623000D01*
X9765500Y-12523000D02*
X9665500Y-12623000D01*
X9765500Y-12573000D02*
G75*
G02*
X9665500Y-12573000I-50000J0D01*
G01*
X9665500Y-12573000D02*
G75*
G02*
X9765500Y-12573000I50000J0D01*
G01*
X9665500Y-12777000D02*
X9765500Y-12877000D01*
X9765500Y-12777000D02*
X9665500Y-12877000D01*
X9765500Y-12827000D02*
G75*
G02*
X9665500Y-12827000I-50000J0D01*
G01*
X9665500Y-12827000D02*
G75*
G02*
X9765500Y-12827000I50000J0D01*
G01*
X9665500Y-13031000D02*
X9765500Y-13131000D01*
X9765500Y-13031000D02*
X9665500Y-13131000D01*
X9765500Y-13081000D02*
G75*
G02*
X9665500Y-13081000I-50000J0D01*
G01*
X9665500Y-13081000D02*
G75*
G02*
X9765500Y-13081000I50000J0D01*
G01*
X9665500Y-13285000D02*
X9765500Y-13385000D01*
X9765500Y-13285000D02*
X9665500Y-13385000D01*
X9765500Y-13335000D02*
G75*
G02*
X9665500Y-13335000I-50000J0D01*
G01*
X9665500Y-13335000D02*
G75*
G02*
X9765500Y-13335000I50000J0D01*
G01*
X9665500Y-13539000D02*
X9765500Y-13639000D01*
X9765500Y-13539000D02*
X9665500Y-13639000D01*
X9765500Y-13589000D02*
G75*
G02*
X9665500Y-13589000I-50000J0D01*
G01*
X9665500Y-13589000D02*
G75*
G02*
X9765500Y-13589000I50000J0D01*
G01*
X9856000Y-6735500D02*
X9956000Y-6835500D01*
X9956000Y-6735500D02*
X9856000Y-6835500D01*
X9956000Y-6785500D02*
G75*
G02*
X9856000Y-6785500I-50000J0D01*
G01*
X9856000Y-6785500D02*
G75*
G02*
X9956000Y-6785500I50000J0D01*
G01*
X9856000Y-6989500D02*
X9956000Y-7089500D01*
X9956000Y-6989500D02*
X9856000Y-7089500D01*
X9956000Y-7039500D02*
G75*
G02*
X9856000Y-7039500I-50000J0D01*
G01*
X9856000Y-7039500D02*
G75*
G02*
X9956000Y-7039500I50000J0D01*
G01*
X9856000Y-15888500D02*
X9956000Y-15988500D01*
X9956000Y-15888500D02*
X9856000Y-15988500D01*
X9956000Y-15938500D02*
G75*
G02*
X9856000Y-15938500I-50000J0D01*
G01*
X9856000Y-15938500D02*
G75*
G02*
X9956000Y-15938500I50000J0D01*
G01*
X10110000Y-6735500D02*
X10210000Y-6835500D01*
X10210000Y-6735500D02*
X10110000Y-6835500D01*
X10210000Y-6785500D02*
G75*
G02*
X10110000Y-6785500I-50000J0D01*
G01*
X10110000Y-6785500D02*
G75*
G02*
X10210000Y-6785500I50000J0D01*
G01*
X10110000Y-6989500D02*
X10210000Y-7089500D01*
X10210000Y-6989500D02*
X10110000Y-7089500D01*
X10210000Y-7039500D02*
G75*
G02*
X10110000Y-7039500I-50000J0D01*
G01*
X10110000Y-7039500D02*
G75*
G02*
X10210000Y-7039500I50000J0D01*
G01*
X10110000Y-15888500D02*
X10210000Y-15988500D01*
X10210000Y-15888500D02*
X10110000Y-15988500D01*
X10210000Y-15938500D02*
G75*
G02*
X10110000Y-15938500I-50000J0D01*
G01*
X10110000Y-15938500D02*
G75*
G02*
X10210000Y-15938500I50000J0D01*
G01*
X10364000Y-6735500D02*
X10464000Y-6835500D01*
X10464000Y-6735500D02*
X10364000Y-6835500D01*
X10464000Y-6785500D02*
G75*
G02*
X10364000Y-6785500I-50000J0D01*
G01*
X10364000Y-6785500D02*
G75*
G02*
X10464000Y-6785500I50000J0D01*
G01*
X10364000Y-6989500D02*
X10464000Y-7089500D01*
X10464000Y-6989500D02*
X10364000Y-7089500D01*
X10464000Y-7039500D02*
G75*
G02*
X10364000Y-7039500I-50000J0D01*
G01*
X10364000Y-7039500D02*
G75*
G02*
X10464000Y-7039500I50000J0D01*
G01*
X10364000Y-15888500D02*
X10464000Y-15988500D01*
X10464000Y-15888500D02*
X10364000Y-15988500D01*
X10464000Y-15938500D02*
G75*
G02*
X10364000Y-15938500I-50000J0D01*
G01*
X10364000Y-15938500D02*
G75*
G02*
X10464000Y-15938500I50000J0D01*
G01*
X10618000Y-6735500D02*
X10718000Y-6835500D01*
X10718000Y-6735500D02*
X10618000Y-6835500D01*
X10718000Y-6785500D02*
G75*
G02*
X10618000Y-6785500I-50000J0D01*
G01*
X10618000Y-6785500D02*
G75*
G02*
X10718000Y-6785500I50000J0D01*
G01*
X10618000Y-6989500D02*
X10718000Y-7089500D01*
X10718000Y-6989500D02*
X10618000Y-7089500D01*
X10718000Y-7039500D02*
G75*
G02*
X10618000Y-7039500I-50000J0D01*
G01*
X10618000Y-7039500D02*
G75*
G02*
X10718000Y-7039500I50000J0D01*
G01*
X10618000Y-15888500D02*
X10718000Y-15988500D01*
X10718000Y-15888500D02*
X10618000Y-15988500D01*
X10718000Y-15938500D02*
G75*
G02*
X10618000Y-15938500I-50000J0D01*
G01*
X10618000Y-15938500D02*
G75*
G02*
X10718000Y-15938500I50000J0D01*
G01*
X10872000Y-6735500D02*
X10972000Y-6835500D01*
X10972000Y-6735500D02*
X10872000Y-6835500D01*
X10972000Y-6785500D02*
G75*
G02*
X10872000Y-6785500I-50000J0D01*
G01*
X10872000Y-6785500D02*
G75*
G02*
X10972000Y-6785500I50000J0D01*
G01*
X10872000Y-6989500D02*
X10972000Y-7089500D01*
X10972000Y-6989500D02*
X10872000Y-7089500D01*
X10972000Y-7039500D02*
G75*
G02*
X10872000Y-7039500I-50000J0D01*
G01*
X10872000Y-7039500D02*
G75*
G02*
X10972000Y-7039500I50000J0D01*
G01*
X10872000Y-15888500D02*
X10972000Y-15988500D01*
X10972000Y-15888500D02*
X10872000Y-15988500D01*
X10972000Y-15938500D02*
G75*
G02*
X10872000Y-15938500I-50000J0D01*
G01*
X10872000Y-15938500D02*
G75*
G02*
X10972000Y-15938500I50000J0D01*
G01*
X11126000Y-6735500D02*
X11226000Y-6835500D01*
X11226000Y-6735500D02*
X11126000Y-6835500D01*
X11226000Y-6785500D02*
G75*
G02*
X11126000Y-6785500I-50000J0D01*
G01*
X11126000Y-6785500D02*
G75*
G02*
X11226000Y-6785500I50000J0D01*
G01*
X11126000Y-6989500D02*
X11226000Y-7089500D01*
X11226000Y-6989500D02*
X11126000Y-7089500D01*
X11226000Y-7039500D02*
G75*
G02*
X11126000Y-7039500I-50000J0D01*
G01*
X11126000Y-7039500D02*
G75*
G02*
X11226000Y-7039500I50000J0D01*
G01*
X11126000Y-15888500D02*
X11226000Y-15988500D01*
X11226000Y-15888500D02*
X11126000Y-15988500D01*
X11226000Y-15938500D02*
G75*
G02*
X11126000Y-15938500I-50000J0D01*
G01*
X11126000Y-15938500D02*
G75*
G02*
X11226000Y-15938500I50000J0D01*
G01*
X11380000Y-6735500D02*
X11480000Y-6835500D01*
X11480000Y-6735500D02*
X11380000Y-6835500D01*
X11480000Y-6785500D02*
G75*
G02*
X11380000Y-6785500I-50000J0D01*
G01*
X11380000Y-6785500D02*
G75*
G02*
X11480000Y-6785500I50000J0D01*
G01*
X11380000Y-6989500D02*
X11480000Y-7089500D01*
X11480000Y-6989500D02*
X11380000Y-7089500D01*
X11480000Y-7039500D02*
G75*
G02*
X11380000Y-7039500I-50000J0D01*
G01*
X11380000Y-7039500D02*
G75*
G02*
X11480000Y-7039500I50000J0D01*
G01*
X11380000Y-15888500D02*
X11480000Y-15988500D01*
X11480000Y-15888500D02*
X11380000Y-15988500D01*
X11480000Y-15938500D02*
G75*
G02*
X11380000Y-15938500I-50000J0D01*
G01*
X11380000Y-15938500D02*
G75*
G02*
X11480000Y-15938500I50000J0D01*
G01*
X11634000Y-6735500D02*
X11734000Y-6835500D01*
X11734000Y-6735500D02*
X11634000Y-6835500D01*
X11734000Y-6785500D02*
G75*
G02*
X11634000Y-6785500I-50000J0D01*
G01*
X11634000Y-6785500D02*
G75*
G02*
X11734000Y-6785500I50000J0D01*
G01*
X11634000Y-6989500D02*
X11734000Y-7089500D01*
X11734000Y-6989500D02*
X11634000Y-7089500D01*
X11734000Y-7039500D02*
G75*
G02*
X11634000Y-7039500I-50000J0D01*
G01*
X11634000Y-7039500D02*
G75*
G02*
X11734000Y-7039500I50000J0D01*
G01*
X11634000Y-15888500D02*
X11734000Y-15988500D01*
X11734000Y-15888500D02*
X11634000Y-15988500D01*
X11734000Y-15938500D02*
G75*
G02*
X11634000Y-15938500I-50000J0D01*
G01*
X11634000Y-15938500D02*
G75*
G02*
X11734000Y-15938500I50000J0D01*
G01*
X11888000Y-6735500D02*
X11988000Y-6835500D01*
X11988000Y-6735500D02*
X11888000Y-6835500D01*
X11988000Y-6785500D02*
G75*
G02*
X11888000Y-6785500I-50000J0D01*
G01*
X11888000Y-6785500D02*
G75*
G02*
X11988000Y-6785500I50000J0D01*
G01*
X11888000Y-6989500D02*
X11988000Y-7089500D01*
X11988000Y-6989500D02*
X11888000Y-7089500D01*
X11988000Y-7039500D02*
G75*
G02*
X11888000Y-7039500I-50000J0D01*
G01*
X11888000Y-7039500D02*
G75*
G02*
X11988000Y-7039500I50000J0D01*
G01*
X11888000Y-15888500D02*
X11988000Y-15988500D01*
X11988000Y-15888500D02*
X11888000Y-15988500D01*
X11988000Y-15938500D02*
G75*
G02*
X11888000Y-15938500I-50000J0D01*
G01*
X11888000Y-15938500D02*
G75*
G02*
X11988000Y-15938500I50000J0D01*
G01*
X12142000Y-6735500D02*
X12242000Y-6835500D01*
X12242000Y-6735500D02*
X12142000Y-6835500D01*
X12242000Y-6785500D02*
G75*
G02*
X12142000Y-6785500I-50000J0D01*
G01*
X12142000Y-6785500D02*
G75*
G02*
X12242000Y-6785500I50000J0D01*
G01*
X12142000Y-6989500D02*
X12242000Y-7089500D01*
X12242000Y-6989500D02*
X12142000Y-7089500D01*
X12242000Y-7039500D02*
G75*
G02*
X12142000Y-7039500I-50000J0D01*
G01*
X12142000Y-7039500D02*
G75*
G02*
X12242000Y-7039500I50000J0D01*
G01*
X12142000Y-15888500D02*
X12242000Y-15988500D01*
X12242000Y-15888500D02*
X12142000Y-15988500D01*
X12242000Y-15938500D02*
G75*
G02*
X12142000Y-15938500I-50000J0D01*
G01*
X12142000Y-15938500D02*
G75*
G02*
X12242000Y-15938500I50000J0D01*
G01*
X12396000Y-6735500D02*
X12496000Y-6835500D01*
X12496000Y-6735500D02*
X12396000Y-6835500D01*
X12496000Y-6785500D02*
G75*
G02*
X12396000Y-6785500I-50000J0D01*
G01*
X12396000Y-6785500D02*
G75*
G02*
X12496000Y-6785500I50000J0D01*
G01*
X12396000Y-6989500D02*
X12496000Y-7089500D01*
X12496000Y-6989500D02*
X12396000Y-7089500D01*
X12496000Y-7039500D02*
G75*
G02*
X12396000Y-7039500I-50000J0D01*
G01*
X12396000Y-7039500D02*
G75*
G02*
X12496000Y-7039500I50000J0D01*
G01*
X12396000Y-15888500D02*
X12496000Y-15988500D01*
X12496000Y-15888500D02*
X12396000Y-15988500D01*
X12496000Y-15938500D02*
G75*
G02*
X12396000Y-15938500I-50000J0D01*
G01*
X12396000Y-15938500D02*
G75*
G02*
X12496000Y-15938500I50000J0D01*
G01*
X12650000Y-6735500D02*
X12750000Y-6835500D01*
X12750000Y-6735500D02*
X12650000Y-6835500D01*
X12750000Y-6785500D02*
G75*
G02*
X12650000Y-6785500I-50000J0D01*
G01*
X12650000Y-6785500D02*
G75*
G02*
X12750000Y-6785500I50000J0D01*
G01*
X12650000Y-6989500D02*
X12750000Y-7089500D01*
X12750000Y-6989500D02*
X12650000Y-7089500D01*
X12750000Y-7039500D02*
G75*
G02*
X12650000Y-7039500I-50000J0D01*
G01*
X12650000Y-7039500D02*
G75*
G02*
X12750000Y-7039500I50000J0D01*
G01*
X12650000Y-15888500D02*
X12750000Y-15988500D01*
X12750000Y-15888500D02*
X12650000Y-15988500D01*
X12750000Y-15938500D02*
G75*
G02*
X12650000Y-15938500I-50000J0D01*
G01*
X12650000Y-15938500D02*
G75*
G02*
X12750000Y-15938500I50000J0D01*
G01*
X12904000Y-6735500D02*
X13004000Y-6835500D01*
X13004000Y-6735500D02*
X12904000Y-6835500D01*
X13004000Y-6785500D02*
G75*
G02*
X12904000Y-6785500I-50000J0D01*
G01*
X12904000Y-6785500D02*
G75*
G02*
X13004000Y-6785500I50000J0D01*
G01*
X12904000Y-6989500D02*
X13004000Y-7089500D01*
X13004000Y-6989500D02*
X12904000Y-7089500D01*
X13004000Y-7039500D02*
G75*
G02*
X12904000Y-7039500I-50000J0D01*
G01*
X12904000Y-7039500D02*
G75*
G02*
X13004000Y-7039500I50000J0D01*
G01*
X12904000Y-15888500D02*
X13004000Y-15988500D01*
X13004000Y-15888500D02*
X12904000Y-15988500D01*
X13004000Y-15938500D02*
G75*
G02*
X12904000Y-15938500I-50000J0D01*
G01*
X12904000Y-15938500D02*
G75*
G02*
X13004000Y-15938500I50000J0D01*
G01*
X13158000Y-6735500D02*
X13258000Y-6835500D01*
X13258000Y-6735500D02*
X13158000Y-6835500D01*
X13258000Y-6785500D02*
G75*
G02*
X13158000Y-6785500I-50000J0D01*
G01*
X13158000Y-6785500D02*
G75*
G02*
X13258000Y-6785500I50000J0D01*
G01*
X13158000Y-6989500D02*
X13258000Y-7089500D01*
X13258000Y-6989500D02*
X13158000Y-7089500D01*
X13258000Y-7039500D02*
G75*
G02*
X13158000Y-7039500I-50000J0D01*
G01*
X13158000Y-7039500D02*
G75*
G02*
X13258000Y-7039500I50000J0D01*
G01*
X13158000Y-15888500D02*
X13258000Y-15988500D01*
X13258000Y-15888500D02*
X13158000Y-15988500D01*
X13258000Y-15938500D02*
G75*
G02*
X13158000Y-15938500I-50000J0D01*
G01*
X13158000Y-15938500D02*
G75*
G02*
X13258000Y-15938500I50000J0D01*
G01*
X13412000Y-6735500D02*
X13512000Y-6835500D01*
X13512000Y-6735500D02*
X13412000Y-6835500D01*
X13512000Y-6785500D02*
G75*
G02*
X13412000Y-6785500I-50000J0D01*
G01*
X13412000Y-6785500D02*
G75*
G02*
X13512000Y-6785500I50000J0D01*
G01*
X13412000Y-6989500D02*
X13512000Y-7089500D01*
X13512000Y-6989500D02*
X13412000Y-7089500D01*
X13512000Y-7039500D02*
G75*
G02*
X13412000Y-7039500I-50000J0D01*
G01*
X13412000Y-7039500D02*
G75*
G02*
X13512000Y-7039500I50000J0D01*
G01*
X13666000Y-6735500D02*
X13766000Y-6835500D01*
X13766000Y-6735500D02*
X13666000Y-6835500D01*
X13766000Y-6785500D02*
G75*
G02*
X13666000Y-6785500I-50000J0D01*
G01*
X13666000Y-6785500D02*
G75*
G02*
X13766000Y-6785500I50000J0D01*
G01*
X13666000Y-6989500D02*
X13766000Y-7089500D01*
X13766000Y-6989500D02*
X13666000Y-7089500D01*
X13766000Y-7039500D02*
G75*
G02*
X13666000Y-7039500I-50000J0D01*
G01*
X13666000Y-7039500D02*
G75*
G02*
X13766000Y-7039500I50000J0D01*
G01*
D11*
X6608277Y-16633484D02*
X6608277Y-16433484D01*
X6608277Y-16433484D02*
X6655896Y-16433484D01*
X6655896Y-16433484D02*
X6684467Y-16443008D01*
X6684467Y-16443008D02*
X6703515Y-16462055D01*
X6703515Y-16462055D02*
X6713039Y-16481103D01*
X6713039Y-16481103D02*
X6722562Y-16519198D01*
X6722562Y-16519198D02*
X6722562Y-16547769D01*
X6722562Y-16547769D02*
X6713039Y-16585865D01*
X6713039Y-16585865D02*
X6703515Y-16604912D01*
X6703515Y-16604912D02*
X6684467Y-16623960D01*
X6684467Y-16623960D02*
X6655896Y-16633484D01*
X6655896Y-16633484D02*
X6608277Y-16633484D01*
X6808277Y-16633484D02*
X6808277Y-16500150D01*
X6808277Y-16538246D02*
X6817801Y-16519198D01*
X6817801Y-16519198D02*
X6827324Y-16509674D01*
X6827324Y-16509674D02*
X6846372Y-16500150D01*
X6846372Y-16500150D02*
X6865420Y-16500150D01*
X6932086Y-16633484D02*
X6932086Y-16500150D01*
X6932086Y-16433484D02*
X6922562Y-16443008D01*
X6922562Y-16443008D02*
X6932086Y-16452531D01*
X6932086Y-16452531D02*
X6941610Y-16443008D01*
X6941610Y-16443008D02*
X6932086Y-16433484D01*
X6932086Y-16433484D02*
X6932086Y-16452531D01*
X7055896Y-16633484D02*
X7036848Y-16623960D01*
X7036848Y-16623960D02*
X7027324Y-16604912D01*
X7027324Y-16604912D02*
X7027324Y-16433484D01*
X7160658Y-16633484D02*
X7141610Y-16623960D01*
X7141610Y-16623960D02*
X7132086Y-16604912D01*
X7132086Y-16604912D02*
X7132086Y-16433484D01*
X7389229Y-16633484D02*
X7389229Y-16433484D01*
X7389229Y-16433484D02*
X7455896Y-16576341D01*
X7455896Y-16576341D02*
X7522562Y-16433484D01*
X7522562Y-16433484D02*
X7522562Y-16633484D01*
X7703515Y-16633484D02*
X7703515Y-16528722D01*
X7703515Y-16528722D02*
X7693991Y-16509674D01*
X7693991Y-16509674D02*
X7674943Y-16500150D01*
X7674943Y-16500150D02*
X7636848Y-16500150D01*
X7636848Y-16500150D02*
X7617801Y-16509674D01*
X7703515Y-16623960D02*
X7684467Y-16633484D01*
X7684467Y-16633484D02*
X7636848Y-16633484D01*
X7636848Y-16633484D02*
X7617801Y-16623960D01*
X7617801Y-16623960D02*
X7608277Y-16604912D01*
X7608277Y-16604912D02*
X7608277Y-16585865D01*
X7608277Y-16585865D02*
X7617801Y-16566817D01*
X7617801Y-16566817D02*
X7636848Y-16557293D01*
X7636848Y-16557293D02*
X7684467Y-16557293D01*
X7684467Y-16557293D02*
X7703515Y-16547769D01*
X7798753Y-16500150D02*
X7798753Y-16700150D01*
X7798753Y-16509674D02*
X7817801Y-16500150D01*
X7817801Y-16500150D02*
X7855896Y-16500150D01*
X7855896Y-16500150D02*
X7874943Y-16509674D01*
X7874943Y-16509674D02*
X7884467Y-16519198D01*
X7884467Y-16519198D02*
X7893991Y-16538246D01*
X7893991Y-16538246D02*
X7893991Y-16595388D01*
X7893991Y-16595388D02*
X7884467Y-16614436D01*
X7884467Y-16614436D02*
X7874943Y-16623960D01*
X7874943Y-16623960D02*
X7855896Y-16633484D01*
X7855896Y-16633484D02*
X7817801Y-16633484D01*
X7817801Y-16633484D02*
X7798753Y-16623960D01*
X7979705Y-16614436D02*
X7989229Y-16623960D01*
X7989229Y-16623960D02*
X7979705Y-16633484D01*
X7979705Y-16633484D02*
X7970182Y-16623960D01*
X7970182Y-16623960D02*
X7979705Y-16614436D01*
X7979705Y-16614436D02*
X7979705Y-16633484D01*
X7979705Y-16509674D02*
X7989229Y-16519198D01*
X7989229Y-16519198D02*
X7979705Y-16528722D01*
X7979705Y-16528722D02*
X7970182Y-16519198D01*
X7970182Y-16519198D02*
X7979705Y-16509674D01*
X7979705Y-16509674D02*
X7979705Y-16528722D01*
D12*
X6317500Y-16947000D02*
X6347500Y-16977000D01*
X6347500Y-16947000D02*
X6317500Y-16977000D01*
D11*
X6646372Y-16853484D02*
X6665420Y-16853484D01*
X6665420Y-16853484D02*
X6684467Y-16863008D01*
X6684467Y-16863008D02*
X6693991Y-16872531D01*
X6693991Y-16872531D02*
X6703515Y-16891579D01*
X6703515Y-16891579D02*
X6713039Y-16929674D01*
X6713039Y-16929674D02*
X6713039Y-16977293D01*
X6713039Y-16977293D02*
X6703515Y-17015389D01*
X6703515Y-17015389D02*
X6693991Y-17034436D01*
X6693991Y-17034436D02*
X6684467Y-17043960D01*
X6684467Y-17043960D02*
X6665420Y-17053484D01*
X6665420Y-17053484D02*
X6646372Y-17053484D01*
X6646372Y-17053484D02*
X6627324Y-17043960D01*
X6627324Y-17043960D02*
X6617801Y-17034436D01*
X6617801Y-17034436D02*
X6608277Y-17015389D01*
X6608277Y-17015389D02*
X6598753Y-16977293D01*
X6598753Y-16977293D02*
X6598753Y-16929674D01*
X6598753Y-16929674D02*
X6608277Y-16891579D01*
X6608277Y-16891579D02*
X6617801Y-16872531D01*
X6617801Y-16872531D02*
X6627324Y-16863008D01*
X6627324Y-16863008D02*
X6646372Y-16853484D01*
X6798753Y-17034436D02*
X6808277Y-17043960D01*
X6808277Y-17043960D02*
X6798753Y-17053484D01*
X6798753Y-17053484D02*
X6789229Y-17043960D01*
X6789229Y-17043960D02*
X6798753Y-17034436D01*
X6798753Y-17034436D02*
X6798753Y-17053484D01*
X6874943Y-16853484D02*
X6998753Y-16853484D01*
X6998753Y-16853484D02*
X6932086Y-16929674D01*
X6932086Y-16929674D02*
X6960658Y-16929674D01*
X6960658Y-16929674D02*
X6979705Y-16939198D01*
X6979705Y-16939198D02*
X6989229Y-16948722D01*
X6989229Y-16948722D02*
X6998753Y-16967770D01*
X6998753Y-16967770D02*
X6998753Y-17015389D01*
X6998753Y-17015389D02*
X6989229Y-17034436D01*
X6989229Y-17034436D02*
X6979705Y-17043960D01*
X6979705Y-17043960D02*
X6960658Y-17053484D01*
X6960658Y-17053484D02*
X6903515Y-17053484D01*
X6903515Y-17053484D02*
X6884467Y-17043960D01*
X6884467Y-17043960D02*
X6874943Y-17034436D01*
X7122562Y-16853484D02*
X7141610Y-16853484D01*
X7141610Y-16853484D02*
X7160658Y-16863008D01*
X7160658Y-16863008D02*
X7170182Y-16872531D01*
X7170182Y-16872531D02*
X7179705Y-16891579D01*
X7179705Y-16891579D02*
X7189229Y-16929674D01*
X7189229Y-16929674D02*
X7189229Y-16977293D01*
X7189229Y-16977293D02*
X7179705Y-17015389D01*
X7179705Y-17015389D02*
X7170182Y-17034436D01*
X7170182Y-17034436D02*
X7160658Y-17043960D01*
X7160658Y-17043960D02*
X7141610Y-17053484D01*
X7141610Y-17053484D02*
X7122562Y-17053484D01*
X7122562Y-17053484D02*
X7103515Y-17043960D01*
X7103515Y-17043960D02*
X7093991Y-17034436D01*
X7093991Y-17034436D02*
X7084467Y-17015389D01*
X7084467Y-17015389D02*
X7074943Y-16977293D01*
X7074943Y-16977293D02*
X7074943Y-16929674D01*
X7074943Y-16929674D02*
X7084467Y-16891579D01*
X7084467Y-16891579D02*
X7093991Y-16872531D01*
X7093991Y-16872531D02*
X7103515Y-16863008D01*
X7103515Y-16863008D02*
X7122562Y-16853484D01*
X7313039Y-16853484D02*
X7332086Y-16853484D01*
X7332086Y-16853484D02*
X7351134Y-16863008D01*
X7351134Y-16863008D02*
X7360658Y-16872531D01*
X7360658Y-16872531D02*
X7370182Y-16891579D01*
X7370182Y-16891579D02*
X7379705Y-16929674D01*
X7379705Y-16929674D02*
X7379705Y-16977293D01*
X7379705Y-16977293D02*
X7370182Y-17015389D01*
X7370182Y-17015389D02*
X7360658Y-17034436D01*
X7360658Y-17034436D02*
X7351134Y-17043960D01*
X7351134Y-17043960D02*
X7332086Y-17053484D01*
X7332086Y-17053484D02*
X7313039Y-17053484D01*
X7313039Y-17053484D02*
X7293991Y-17043960D01*
X7293991Y-17043960D02*
X7284467Y-17034436D01*
X7284467Y-17034436D02*
X7274943Y-17015389D01*
X7274943Y-17015389D02*
X7265420Y-16977293D01*
X7265420Y-16977293D02*
X7265420Y-16929674D01*
X7265420Y-16929674D02*
X7274943Y-16891579D01*
X7274943Y-16891579D02*
X7284467Y-16872531D01*
X7284467Y-16872531D02*
X7293991Y-16863008D01*
X7293991Y-16863008D02*
X7313039Y-16853484D01*
X7465420Y-17053484D02*
X7465420Y-16920150D01*
X7465420Y-16939198D02*
X7474943Y-16929674D01*
X7474943Y-16929674D02*
X7493991Y-16920150D01*
X7493991Y-16920150D02*
X7522563Y-16920150D01*
X7522563Y-16920150D02*
X7541610Y-16929674D01*
X7541610Y-16929674D02*
X7551134Y-16948722D01*
X7551134Y-16948722D02*
X7551134Y-17053484D01*
X7551134Y-16948722D02*
X7560658Y-16929674D01*
X7560658Y-16929674D02*
X7579705Y-16920150D01*
X7579705Y-16920150D02*
X7608277Y-16920150D01*
X7608277Y-16920150D02*
X7627324Y-16929674D01*
X7627324Y-16929674D02*
X7636848Y-16948722D01*
X7636848Y-16948722D02*
X7636848Y-17053484D01*
X7732086Y-17053484D02*
X7732086Y-16920150D01*
X7732086Y-16939198D02*
X7741610Y-16929674D01*
X7741610Y-16929674D02*
X7760658Y-16920150D01*
X7760658Y-16920150D02*
X7789229Y-16920150D01*
X7789229Y-16920150D02*
X7808277Y-16929674D01*
X7808277Y-16929674D02*
X7817801Y-16948722D01*
X7817801Y-16948722D02*
X7817801Y-17053484D01*
X7817801Y-16948722D02*
X7827324Y-16929674D01*
X7827324Y-16929674D02*
X7846372Y-16920150D01*
X7846372Y-16920150D02*
X7874943Y-16920150D01*
X7874943Y-16920150D02*
X7893991Y-16929674D01*
X7893991Y-16929674D02*
X7903515Y-16948722D01*
X7903515Y-16948722D02*
X7903515Y-17053484D01*
X8293991Y-16843960D02*
X8122563Y-17101103D01*
X8551134Y-16853484D02*
X8570182Y-16853484D01*
X8570182Y-16853484D02*
X8589229Y-16863008D01*
X8589229Y-16863008D02*
X8598753Y-16872531D01*
X8598753Y-16872531D02*
X8608277Y-16891579D01*
X8608277Y-16891579D02*
X8617801Y-16929674D01*
X8617801Y-16929674D02*
X8617801Y-16977293D01*
X8617801Y-16977293D02*
X8608277Y-17015389D01*
X8608277Y-17015389D02*
X8598753Y-17034436D01*
X8598753Y-17034436D02*
X8589229Y-17043960D01*
X8589229Y-17043960D02*
X8570182Y-17053484D01*
X8570182Y-17053484D02*
X8551134Y-17053484D01*
X8551134Y-17053484D02*
X8532087Y-17043960D01*
X8532087Y-17043960D02*
X8522563Y-17034436D01*
X8522563Y-17034436D02*
X8513039Y-17015389D01*
X8513039Y-17015389D02*
X8503515Y-16977293D01*
X8503515Y-16977293D02*
X8503515Y-16929674D01*
X8503515Y-16929674D02*
X8513039Y-16891579D01*
X8513039Y-16891579D02*
X8522563Y-16872531D01*
X8522563Y-16872531D02*
X8532087Y-16863008D01*
X8532087Y-16863008D02*
X8551134Y-16853484D01*
X8703515Y-17034436D02*
X8713039Y-17043960D01*
X8713039Y-17043960D02*
X8703515Y-17053484D01*
X8703515Y-17053484D02*
X8693991Y-17043960D01*
X8693991Y-17043960D02*
X8703515Y-17034436D01*
X8703515Y-17034436D02*
X8703515Y-17053484D01*
X8836848Y-16853484D02*
X8855896Y-16853484D01*
X8855896Y-16853484D02*
X8874944Y-16863008D01*
X8874944Y-16863008D02*
X8884468Y-16872531D01*
X8884468Y-16872531D02*
X8893991Y-16891579D01*
X8893991Y-16891579D02*
X8903515Y-16929674D01*
X8903515Y-16929674D02*
X8903515Y-16977293D01*
X8903515Y-16977293D02*
X8893991Y-17015389D01*
X8893991Y-17015389D02*
X8884468Y-17034436D01*
X8884468Y-17034436D02*
X8874944Y-17043960D01*
X8874944Y-17043960D02*
X8855896Y-17053484D01*
X8855896Y-17053484D02*
X8836848Y-17053484D01*
X8836848Y-17053484D02*
X8817801Y-17043960D01*
X8817801Y-17043960D02*
X8808277Y-17034436D01*
X8808277Y-17034436D02*
X8798753Y-17015389D01*
X8798753Y-17015389D02*
X8789229Y-16977293D01*
X8789229Y-16977293D02*
X8789229Y-16929674D01*
X8789229Y-16929674D02*
X8798753Y-16891579D01*
X8798753Y-16891579D02*
X8808277Y-16872531D01*
X8808277Y-16872531D02*
X8817801Y-16863008D01*
X8817801Y-16863008D02*
X8836848Y-16853484D01*
X9093991Y-17053484D02*
X8979706Y-17053484D01*
X9036848Y-17053484D02*
X9036848Y-16853484D01*
X9036848Y-16853484D02*
X9017801Y-16882055D01*
X9017801Y-16882055D02*
X8998753Y-16901103D01*
X8998753Y-16901103D02*
X8979706Y-16910627D01*
X9284468Y-17053484D02*
X9170182Y-17053484D01*
X9227325Y-17053484D02*
X9227325Y-16853484D01*
X9227325Y-16853484D02*
X9208277Y-16882055D01*
X9208277Y-16882055D02*
X9189229Y-16901103D01*
X9189229Y-16901103D02*
X9170182Y-16910627D01*
X9398753Y-16939198D02*
X9379706Y-16929674D01*
X9379706Y-16929674D02*
X9370182Y-16920150D01*
X9370182Y-16920150D02*
X9360658Y-16901103D01*
X9360658Y-16901103D02*
X9360658Y-16891579D01*
X9360658Y-16891579D02*
X9370182Y-16872531D01*
X9370182Y-16872531D02*
X9379706Y-16863008D01*
X9379706Y-16863008D02*
X9398753Y-16853484D01*
X9398753Y-16853484D02*
X9436849Y-16853484D01*
X9436849Y-16853484D02*
X9455896Y-16863008D01*
X9455896Y-16863008D02*
X9465420Y-16872531D01*
X9465420Y-16872531D02*
X9474944Y-16891579D01*
X9474944Y-16891579D02*
X9474944Y-16901103D01*
X9474944Y-16901103D02*
X9465420Y-16920150D01*
X9465420Y-16920150D02*
X9455896Y-16929674D01*
X9455896Y-16929674D02*
X9436849Y-16939198D01*
X9436849Y-16939198D02*
X9398753Y-16939198D01*
X9398753Y-16939198D02*
X9379706Y-16948722D01*
X9379706Y-16948722D02*
X9370182Y-16958246D01*
X9370182Y-16958246D02*
X9360658Y-16977293D01*
X9360658Y-16977293D02*
X9360658Y-17015389D01*
X9360658Y-17015389D02*
X9370182Y-17034436D01*
X9370182Y-17034436D02*
X9379706Y-17043960D01*
X9379706Y-17043960D02*
X9398753Y-17053484D01*
X9398753Y-17053484D02*
X9436849Y-17053484D01*
X9436849Y-17053484D02*
X9455896Y-17043960D01*
X9455896Y-17043960D02*
X9465420Y-17034436D01*
X9465420Y-17034436D02*
X9474944Y-17015389D01*
X9474944Y-17015389D02*
X9474944Y-16977293D01*
X9474944Y-16977293D02*
X9465420Y-16958246D01*
X9465420Y-16958246D02*
X9455896Y-16948722D01*
X9455896Y-16948722D02*
X9436849Y-16939198D01*
X9551134Y-16853484D02*
X9551134Y-16891579D01*
X9627325Y-16853484D02*
X9627325Y-16891579D01*
X9922563Y-17129674D02*
X9913039Y-17120150D01*
X9913039Y-17120150D02*
X9893991Y-17091579D01*
X9893991Y-17091579D02*
X9884468Y-17072531D01*
X9884468Y-17072531D02*
X9874944Y-17043960D01*
X9874944Y-17043960D02*
X9865420Y-16996341D01*
X9865420Y-16996341D02*
X9865420Y-16958246D01*
X9865420Y-16958246D02*
X9874944Y-16910627D01*
X9874944Y-16910627D02*
X9884468Y-16882055D01*
X9884468Y-16882055D02*
X9893991Y-16863008D01*
X9893991Y-16863008D02*
X9913039Y-16834436D01*
X9913039Y-16834436D02*
X9922563Y-16824912D01*
X10103515Y-17053484D02*
X9989230Y-17053484D01*
X10046372Y-17053484D02*
X10046372Y-16853484D01*
X10046372Y-16853484D02*
X10027325Y-16882055D01*
X10027325Y-16882055D02*
X10008277Y-16901103D01*
X10008277Y-16901103D02*
X9989230Y-16910627D01*
X10217801Y-16939198D02*
X10198753Y-16929674D01*
X10198753Y-16929674D02*
X10189230Y-16920150D01*
X10189230Y-16920150D02*
X10179706Y-16901103D01*
X10179706Y-16901103D02*
X10179706Y-16891579D01*
X10179706Y-16891579D02*
X10189230Y-16872531D01*
X10189230Y-16872531D02*
X10198753Y-16863008D01*
X10198753Y-16863008D02*
X10217801Y-16853484D01*
X10217801Y-16853484D02*
X10255896Y-16853484D01*
X10255896Y-16853484D02*
X10274944Y-16863008D01*
X10274944Y-16863008D02*
X10284468Y-16872531D01*
X10284468Y-16872531D02*
X10293991Y-16891579D01*
X10293991Y-16891579D02*
X10293991Y-16901103D01*
X10293991Y-16901103D02*
X10284468Y-16920150D01*
X10284468Y-16920150D02*
X10274944Y-16929674D01*
X10274944Y-16929674D02*
X10255896Y-16939198D01*
X10255896Y-16939198D02*
X10217801Y-16939198D01*
X10217801Y-16939198D02*
X10198753Y-16948722D01*
X10198753Y-16948722D02*
X10189230Y-16958246D01*
X10189230Y-16958246D02*
X10179706Y-16977293D01*
X10179706Y-16977293D02*
X10179706Y-17015389D01*
X10179706Y-17015389D02*
X10189230Y-17034436D01*
X10189230Y-17034436D02*
X10198753Y-17043960D01*
X10198753Y-17043960D02*
X10217801Y-17053484D01*
X10217801Y-17053484D02*
X10255896Y-17053484D01*
X10255896Y-17053484D02*
X10274944Y-17043960D01*
X10274944Y-17043960D02*
X10284468Y-17034436D01*
X10284468Y-17034436D02*
X10293991Y-17015389D01*
X10293991Y-17015389D02*
X10293991Y-16977293D01*
X10293991Y-16977293D02*
X10284468Y-16958246D01*
X10284468Y-16958246D02*
X10274944Y-16948722D01*
X10274944Y-16948722D02*
X10255896Y-16939198D01*
X10532087Y-17053484D02*
X10532087Y-16853484D01*
X10617801Y-17053484D02*
X10617801Y-16948722D01*
X10617801Y-16948722D02*
X10608277Y-16929674D01*
X10608277Y-16929674D02*
X10589230Y-16920150D01*
X10589230Y-16920150D02*
X10560658Y-16920150D01*
X10560658Y-16920150D02*
X10541611Y-16929674D01*
X10541611Y-16929674D02*
X10532087Y-16939198D01*
X10741611Y-17053484D02*
X10722563Y-17043960D01*
X10722563Y-17043960D02*
X10713039Y-17034436D01*
X10713039Y-17034436D02*
X10703515Y-17015389D01*
X10703515Y-17015389D02*
X10703515Y-16958246D01*
X10703515Y-16958246D02*
X10713039Y-16939198D01*
X10713039Y-16939198D02*
X10722563Y-16929674D01*
X10722563Y-16929674D02*
X10741611Y-16920150D01*
X10741611Y-16920150D02*
X10770182Y-16920150D01*
X10770182Y-16920150D02*
X10789230Y-16929674D01*
X10789230Y-16929674D02*
X10798753Y-16939198D01*
X10798753Y-16939198D02*
X10808277Y-16958246D01*
X10808277Y-16958246D02*
X10808277Y-17015389D01*
X10808277Y-17015389D02*
X10798753Y-17034436D01*
X10798753Y-17034436D02*
X10789230Y-17043960D01*
X10789230Y-17043960D02*
X10770182Y-17053484D01*
X10770182Y-17053484D02*
X10741611Y-17053484D01*
X10922563Y-17053484D02*
X10903515Y-17043960D01*
X10903515Y-17043960D02*
X10893992Y-17024912D01*
X10893992Y-17024912D02*
X10893992Y-16853484D01*
X11074944Y-17043960D02*
X11055896Y-17053484D01*
X11055896Y-17053484D02*
X11017801Y-17053484D01*
X11017801Y-17053484D02*
X10998753Y-17043960D01*
X10998753Y-17043960D02*
X10989230Y-17024912D01*
X10989230Y-17024912D02*
X10989230Y-16948722D01*
X10989230Y-16948722D02*
X10998753Y-16929674D01*
X10998753Y-16929674D02*
X11017801Y-16920150D01*
X11017801Y-16920150D02*
X11055896Y-16920150D01*
X11055896Y-16920150D02*
X11074944Y-16929674D01*
X11074944Y-16929674D02*
X11084468Y-16948722D01*
X11084468Y-16948722D02*
X11084468Y-16967770D01*
X11084468Y-16967770D02*
X10989230Y-16986817D01*
X11160658Y-17043960D02*
X11179706Y-17053484D01*
X11179706Y-17053484D02*
X11217801Y-17053484D01*
X11217801Y-17053484D02*
X11236849Y-17043960D01*
X11236849Y-17043960D02*
X11246372Y-17024912D01*
X11246372Y-17024912D02*
X11246372Y-17015389D01*
X11246372Y-17015389D02*
X11236849Y-16996341D01*
X11236849Y-16996341D02*
X11217801Y-16986817D01*
X11217801Y-16986817D02*
X11189230Y-16986817D01*
X11189230Y-16986817D02*
X11170182Y-16977293D01*
X11170182Y-16977293D02*
X11160658Y-16958246D01*
X11160658Y-16958246D02*
X11160658Y-16948722D01*
X11160658Y-16948722D02*
X11170182Y-16929674D01*
X11170182Y-16929674D02*
X11189230Y-16920150D01*
X11189230Y-16920150D02*
X11217801Y-16920150D01*
X11217801Y-16920150D02*
X11236849Y-16929674D01*
X11313039Y-17129674D02*
X11322563Y-17120150D01*
X11322563Y-17120150D02*
X11341611Y-17091579D01*
X11341611Y-17091579D02*
X11351134Y-17072531D01*
X11351134Y-17072531D02*
X11360658Y-17043960D01*
X11360658Y-17043960D02*
X11370182Y-16996341D01*
X11370182Y-16996341D02*
X11370182Y-16958246D01*
X11370182Y-16958246D02*
X11360658Y-16910627D01*
X11360658Y-16910627D02*
X11351134Y-16882055D01*
X11351134Y-16882055D02*
X11341611Y-16863008D01*
X11341611Y-16863008D02*
X11322563Y-16834436D01*
X11322563Y-16834436D02*
X11313039Y-16824912D01*
D12*
X6347500Y-17226000D02*
G75*
G02*
X6287500Y-17226000I-30000J0D01*
G01*
X6287500Y-17226000D02*
G75*
G02*
X6347500Y-17226000I30000J0D01*
G01*
D11*
X6646372Y-17117484D02*
X6665420Y-17117484D01*
X6665420Y-17117484D02*
X6684467Y-17127008D01*
X6684467Y-17127008D02*
X6693991Y-17136531D01*
X6693991Y-17136531D02*
X6703515Y-17155579D01*
X6703515Y-17155579D02*
X6713039Y-17193674D01*
X6713039Y-17193674D02*
X6713039Y-17241293D01*
X6713039Y-17241293D02*
X6703515Y-17279389D01*
X6703515Y-17279389D02*
X6693991Y-17298436D01*
X6693991Y-17298436D02*
X6684467Y-17307960D01*
X6684467Y-17307960D02*
X6665420Y-17317484D01*
X6665420Y-17317484D02*
X6646372Y-17317484D01*
X6646372Y-17317484D02*
X6627324Y-17307960D01*
X6627324Y-17307960D02*
X6617801Y-17298436D01*
X6617801Y-17298436D02*
X6608277Y-17279389D01*
X6608277Y-17279389D02*
X6598753Y-17241293D01*
X6598753Y-17241293D02*
X6598753Y-17193674D01*
X6598753Y-17193674D02*
X6608277Y-17155579D01*
X6608277Y-17155579D02*
X6617801Y-17136531D01*
X6617801Y-17136531D02*
X6627324Y-17127008D01*
X6627324Y-17127008D02*
X6646372Y-17117484D01*
X6798753Y-17298436D02*
X6808277Y-17307960D01*
X6808277Y-17307960D02*
X6798753Y-17317484D01*
X6798753Y-17317484D02*
X6789229Y-17307960D01*
X6789229Y-17307960D02*
X6798753Y-17298436D01*
X6798753Y-17298436D02*
X6798753Y-17317484D01*
X6979705Y-17117484D02*
X6941610Y-17117484D01*
X6941610Y-17117484D02*
X6922562Y-17127008D01*
X6922562Y-17127008D02*
X6913039Y-17136531D01*
X6913039Y-17136531D02*
X6893991Y-17165103D01*
X6893991Y-17165103D02*
X6884467Y-17203198D01*
X6884467Y-17203198D02*
X6884467Y-17279389D01*
X6884467Y-17279389D02*
X6893991Y-17298436D01*
X6893991Y-17298436D02*
X6903515Y-17307960D01*
X6903515Y-17307960D02*
X6922562Y-17317484D01*
X6922562Y-17317484D02*
X6960658Y-17317484D01*
X6960658Y-17317484D02*
X6979705Y-17307960D01*
X6979705Y-17307960D02*
X6989229Y-17298436D01*
X6989229Y-17298436D02*
X6998753Y-17279389D01*
X6998753Y-17279389D02*
X6998753Y-17231770D01*
X6998753Y-17231770D02*
X6989229Y-17212722D01*
X6989229Y-17212722D02*
X6979705Y-17203198D01*
X6979705Y-17203198D02*
X6960658Y-17193674D01*
X6960658Y-17193674D02*
X6922562Y-17193674D01*
X6922562Y-17193674D02*
X6903515Y-17203198D01*
X6903515Y-17203198D02*
X6893991Y-17212722D01*
X6893991Y-17212722D02*
X6884467Y-17231770D01*
X7122562Y-17117484D02*
X7141610Y-17117484D01*
X7141610Y-17117484D02*
X7160658Y-17127008D01*
X7160658Y-17127008D02*
X7170182Y-17136531D01*
X7170182Y-17136531D02*
X7179705Y-17155579D01*
X7179705Y-17155579D02*
X7189229Y-17193674D01*
X7189229Y-17193674D02*
X7189229Y-17241293D01*
X7189229Y-17241293D02*
X7179705Y-17279389D01*
X7179705Y-17279389D02*
X7170182Y-17298436D01*
X7170182Y-17298436D02*
X7160658Y-17307960D01*
X7160658Y-17307960D02*
X7141610Y-17317484D01*
X7141610Y-17317484D02*
X7122562Y-17317484D01*
X7122562Y-17317484D02*
X7103515Y-17307960D01*
X7103515Y-17307960D02*
X7093991Y-17298436D01*
X7093991Y-17298436D02*
X7084467Y-17279389D01*
X7084467Y-17279389D02*
X7074943Y-17241293D01*
X7074943Y-17241293D02*
X7074943Y-17193674D01*
X7074943Y-17193674D02*
X7084467Y-17155579D01*
X7084467Y-17155579D02*
X7093991Y-17136531D01*
X7093991Y-17136531D02*
X7103515Y-17127008D01*
X7103515Y-17127008D02*
X7122562Y-17117484D01*
X7313039Y-17117484D02*
X7332086Y-17117484D01*
X7332086Y-17117484D02*
X7351134Y-17127008D01*
X7351134Y-17127008D02*
X7360658Y-17136531D01*
X7360658Y-17136531D02*
X7370182Y-17155579D01*
X7370182Y-17155579D02*
X7379705Y-17193674D01*
X7379705Y-17193674D02*
X7379705Y-17241293D01*
X7379705Y-17241293D02*
X7370182Y-17279389D01*
X7370182Y-17279389D02*
X7360658Y-17298436D01*
X7360658Y-17298436D02*
X7351134Y-17307960D01*
X7351134Y-17307960D02*
X7332086Y-17317484D01*
X7332086Y-17317484D02*
X7313039Y-17317484D01*
X7313039Y-17317484D02*
X7293991Y-17307960D01*
X7293991Y-17307960D02*
X7284467Y-17298436D01*
X7284467Y-17298436D02*
X7274943Y-17279389D01*
X7274943Y-17279389D02*
X7265420Y-17241293D01*
X7265420Y-17241293D02*
X7265420Y-17193674D01*
X7265420Y-17193674D02*
X7274943Y-17155579D01*
X7274943Y-17155579D02*
X7284467Y-17136531D01*
X7284467Y-17136531D02*
X7293991Y-17127008D01*
X7293991Y-17127008D02*
X7313039Y-17117484D01*
X7465420Y-17317484D02*
X7465420Y-17184150D01*
X7465420Y-17203198D02*
X7474943Y-17193674D01*
X7474943Y-17193674D02*
X7493991Y-17184150D01*
X7493991Y-17184150D02*
X7522563Y-17184150D01*
X7522563Y-17184150D02*
X7541610Y-17193674D01*
X7541610Y-17193674D02*
X7551134Y-17212722D01*
X7551134Y-17212722D02*
X7551134Y-17317484D01*
X7551134Y-17212722D02*
X7560658Y-17193674D01*
X7560658Y-17193674D02*
X7579705Y-17184150D01*
X7579705Y-17184150D02*
X7608277Y-17184150D01*
X7608277Y-17184150D02*
X7627324Y-17193674D01*
X7627324Y-17193674D02*
X7636848Y-17212722D01*
X7636848Y-17212722D02*
X7636848Y-17317484D01*
X7732086Y-17317484D02*
X7732086Y-17184150D01*
X7732086Y-17203198D02*
X7741610Y-17193674D01*
X7741610Y-17193674D02*
X7760658Y-17184150D01*
X7760658Y-17184150D02*
X7789229Y-17184150D01*
X7789229Y-17184150D02*
X7808277Y-17193674D01*
X7808277Y-17193674D02*
X7817801Y-17212722D01*
X7817801Y-17212722D02*
X7817801Y-17317484D01*
X7817801Y-17212722D02*
X7827324Y-17193674D01*
X7827324Y-17193674D02*
X7846372Y-17184150D01*
X7846372Y-17184150D02*
X7874943Y-17184150D01*
X7874943Y-17184150D02*
X7893991Y-17193674D01*
X7893991Y-17193674D02*
X7903515Y-17212722D01*
X7903515Y-17212722D02*
X7903515Y-17317484D01*
X8293991Y-17107960D02*
X8122563Y-17365103D01*
X8551134Y-17117484D02*
X8570182Y-17117484D01*
X8570182Y-17117484D02*
X8589229Y-17127008D01*
X8589229Y-17127008D02*
X8598753Y-17136531D01*
X8598753Y-17136531D02*
X8608277Y-17155579D01*
X8608277Y-17155579D02*
X8617801Y-17193674D01*
X8617801Y-17193674D02*
X8617801Y-17241293D01*
X8617801Y-17241293D02*
X8608277Y-17279389D01*
X8608277Y-17279389D02*
X8598753Y-17298436D01*
X8598753Y-17298436D02*
X8589229Y-17307960D01*
X8589229Y-17307960D02*
X8570182Y-17317484D01*
X8570182Y-17317484D02*
X8551134Y-17317484D01*
X8551134Y-17317484D02*
X8532087Y-17307960D01*
X8532087Y-17307960D02*
X8522563Y-17298436D01*
X8522563Y-17298436D02*
X8513039Y-17279389D01*
X8513039Y-17279389D02*
X8503515Y-17241293D01*
X8503515Y-17241293D02*
X8503515Y-17193674D01*
X8503515Y-17193674D02*
X8513039Y-17155579D01*
X8513039Y-17155579D02*
X8522563Y-17136531D01*
X8522563Y-17136531D02*
X8532087Y-17127008D01*
X8532087Y-17127008D02*
X8551134Y-17117484D01*
X8703515Y-17298436D02*
X8713039Y-17307960D01*
X8713039Y-17307960D02*
X8703515Y-17317484D01*
X8703515Y-17317484D02*
X8693991Y-17307960D01*
X8693991Y-17307960D02*
X8703515Y-17298436D01*
X8703515Y-17298436D02*
X8703515Y-17317484D01*
X8836848Y-17117484D02*
X8855896Y-17117484D01*
X8855896Y-17117484D02*
X8874944Y-17127008D01*
X8874944Y-17127008D02*
X8884468Y-17136531D01*
X8884468Y-17136531D02*
X8893991Y-17155579D01*
X8893991Y-17155579D02*
X8903515Y-17193674D01*
X8903515Y-17193674D02*
X8903515Y-17241293D01*
X8903515Y-17241293D02*
X8893991Y-17279389D01*
X8893991Y-17279389D02*
X8884468Y-17298436D01*
X8884468Y-17298436D02*
X8874944Y-17307960D01*
X8874944Y-17307960D02*
X8855896Y-17317484D01*
X8855896Y-17317484D02*
X8836848Y-17317484D01*
X8836848Y-17317484D02*
X8817801Y-17307960D01*
X8817801Y-17307960D02*
X8808277Y-17298436D01*
X8808277Y-17298436D02*
X8798753Y-17279389D01*
X8798753Y-17279389D02*
X8789229Y-17241293D01*
X8789229Y-17241293D02*
X8789229Y-17193674D01*
X8789229Y-17193674D02*
X8798753Y-17155579D01*
X8798753Y-17155579D02*
X8808277Y-17136531D01*
X8808277Y-17136531D02*
X8817801Y-17127008D01*
X8817801Y-17127008D02*
X8836848Y-17117484D01*
X8979706Y-17136531D02*
X8989229Y-17127008D01*
X8989229Y-17127008D02*
X9008277Y-17117484D01*
X9008277Y-17117484D02*
X9055896Y-17117484D01*
X9055896Y-17117484D02*
X9074944Y-17127008D01*
X9074944Y-17127008D02*
X9084468Y-17136531D01*
X9084468Y-17136531D02*
X9093991Y-17155579D01*
X9093991Y-17155579D02*
X9093991Y-17174627D01*
X9093991Y-17174627D02*
X9084468Y-17203198D01*
X9084468Y-17203198D02*
X8970182Y-17317484D01*
X8970182Y-17317484D02*
X9093991Y-17317484D01*
X9160658Y-17117484D02*
X9284468Y-17117484D01*
X9284468Y-17117484D02*
X9217801Y-17193674D01*
X9217801Y-17193674D02*
X9246372Y-17193674D01*
X9246372Y-17193674D02*
X9265420Y-17203198D01*
X9265420Y-17203198D02*
X9274944Y-17212722D01*
X9274944Y-17212722D02*
X9284468Y-17231770D01*
X9284468Y-17231770D02*
X9284468Y-17279389D01*
X9284468Y-17279389D02*
X9274944Y-17298436D01*
X9274944Y-17298436D02*
X9265420Y-17307960D01*
X9265420Y-17307960D02*
X9246372Y-17317484D01*
X9246372Y-17317484D02*
X9189229Y-17317484D01*
X9189229Y-17317484D02*
X9170182Y-17307960D01*
X9170182Y-17307960D02*
X9160658Y-17298436D01*
X9455896Y-17117484D02*
X9417801Y-17117484D01*
X9417801Y-17117484D02*
X9398753Y-17127008D01*
X9398753Y-17127008D02*
X9389229Y-17136531D01*
X9389229Y-17136531D02*
X9370182Y-17165103D01*
X9370182Y-17165103D02*
X9360658Y-17203198D01*
X9360658Y-17203198D02*
X9360658Y-17279389D01*
X9360658Y-17279389D02*
X9370182Y-17298436D01*
X9370182Y-17298436D02*
X9379706Y-17307960D01*
X9379706Y-17307960D02*
X9398753Y-17317484D01*
X9398753Y-17317484D02*
X9436849Y-17317484D01*
X9436849Y-17317484D02*
X9455896Y-17307960D01*
X9455896Y-17307960D02*
X9465420Y-17298436D01*
X9465420Y-17298436D02*
X9474944Y-17279389D01*
X9474944Y-17279389D02*
X9474944Y-17231770D01*
X9474944Y-17231770D02*
X9465420Y-17212722D01*
X9465420Y-17212722D02*
X9455896Y-17203198D01*
X9455896Y-17203198D02*
X9436849Y-17193674D01*
X9436849Y-17193674D02*
X9398753Y-17193674D01*
X9398753Y-17193674D02*
X9379706Y-17203198D01*
X9379706Y-17203198D02*
X9370182Y-17212722D01*
X9370182Y-17212722D02*
X9360658Y-17231770D01*
X9551134Y-17117484D02*
X9551134Y-17155579D01*
X9627325Y-17117484D02*
X9627325Y-17155579D01*
X9922563Y-17393674D02*
X9913039Y-17384150D01*
X9913039Y-17384150D02*
X9893991Y-17355579D01*
X9893991Y-17355579D02*
X9884468Y-17336531D01*
X9884468Y-17336531D02*
X9874944Y-17307960D01*
X9874944Y-17307960D02*
X9865420Y-17260341D01*
X9865420Y-17260341D02*
X9865420Y-17222246D01*
X9865420Y-17222246D02*
X9874944Y-17174627D01*
X9874944Y-17174627D02*
X9884468Y-17146055D01*
X9884468Y-17146055D02*
X9893991Y-17127008D01*
X9893991Y-17127008D02*
X9913039Y-17098436D01*
X9913039Y-17098436D02*
X9922563Y-17088912D01*
X10103515Y-17317484D02*
X9989230Y-17317484D01*
X10046372Y-17317484D02*
X10046372Y-17117484D01*
X10046372Y-17117484D02*
X10027325Y-17146055D01*
X10027325Y-17146055D02*
X10008277Y-17165103D01*
X10008277Y-17165103D02*
X9989230Y-17174627D01*
X10341611Y-17317484D02*
X10341611Y-17117484D01*
X10427325Y-17317484D02*
X10427325Y-17212722D01*
X10427325Y-17212722D02*
X10417801Y-17193674D01*
X10417801Y-17193674D02*
X10398753Y-17184150D01*
X10398753Y-17184150D02*
X10370182Y-17184150D01*
X10370182Y-17184150D02*
X10351134Y-17193674D01*
X10351134Y-17193674D02*
X10341611Y-17203198D01*
X10551134Y-17317484D02*
X10532087Y-17307960D01*
X10532087Y-17307960D02*
X10522563Y-17298436D01*
X10522563Y-17298436D02*
X10513039Y-17279389D01*
X10513039Y-17279389D02*
X10513039Y-17222246D01*
X10513039Y-17222246D02*
X10522563Y-17203198D01*
X10522563Y-17203198D02*
X10532087Y-17193674D01*
X10532087Y-17193674D02*
X10551134Y-17184150D01*
X10551134Y-17184150D02*
X10579706Y-17184150D01*
X10579706Y-17184150D02*
X10598753Y-17193674D01*
X10598753Y-17193674D02*
X10608277Y-17203198D01*
X10608277Y-17203198D02*
X10617801Y-17222246D01*
X10617801Y-17222246D02*
X10617801Y-17279389D01*
X10617801Y-17279389D02*
X10608277Y-17298436D01*
X10608277Y-17298436D02*
X10598753Y-17307960D01*
X10598753Y-17307960D02*
X10579706Y-17317484D01*
X10579706Y-17317484D02*
X10551134Y-17317484D01*
X10732087Y-17317484D02*
X10713039Y-17307960D01*
X10713039Y-17307960D02*
X10703515Y-17288912D01*
X10703515Y-17288912D02*
X10703515Y-17117484D01*
X10884468Y-17307960D02*
X10865420Y-17317484D01*
X10865420Y-17317484D02*
X10827325Y-17317484D01*
X10827325Y-17317484D02*
X10808277Y-17307960D01*
X10808277Y-17307960D02*
X10798753Y-17288912D01*
X10798753Y-17288912D02*
X10798753Y-17212722D01*
X10798753Y-17212722D02*
X10808277Y-17193674D01*
X10808277Y-17193674D02*
X10827325Y-17184150D01*
X10827325Y-17184150D02*
X10865420Y-17184150D01*
X10865420Y-17184150D02*
X10884468Y-17193674D01*
X10884468Y-17193674D02*
X10893992Y-17212722D01*
X10893992Y-17212722D02*
X10893992Y-17231770D01*
X10893992Y-17231770D02*
X10798753Y-17250817D01*
X10960658Y-17393674D02*
X10970182Y-17384150D01*
X10970182Y-17384150D02*
X10989230Y-17355579D01*
X10989230Y-17355579D02*
X10998753Y-17336531D01*
X10998753Y-17336531D02*
X11008277Y-17307960D01*
X11008277Y-17307960D02*
X11017801Y-17260341D01*
X11017801Y-17260341D02*
X11017801Y-17222246D01*
X11017801Y-17222246D02*
X11008277Y-17174627D01*
X11008277Y-17174627D02*
X10998753Y-17146055D01*
X10998753Y-17146055D02*
X10989230Y-17127008D01*
X10989230Y-17127008D02*
X10970182Y-17098436D01*
X10970182Y-17098436D02*
X10960658Y-17088912D01*
D12*
X6312500Y-17455000D02*
X6312500Y-17525000D01*
X6277500Y-17490000D02*
X6347500Y-17490000D01*
D11*
X6646372Y-17381484D02*
X6665420Y-17381484D01*
X6665420Y-17381484D02*
X6684467Y-17391008D01*
X6684467Y-17391008D02*
X6693991Y-17400531D01*
X6693991Y-17400531D02*
X6703515Y-17419579D01*
X6703515Y-17419579D02*
X6713039Y-17457674D01*
X6713039Y-17457674D02*
X6713039Y-17505293D01*
X6713039Y-17505293D02*
X6703515Y-17543389D01*
X6703515Y-17543389D02*
X6693991Y-17562436D01*
X6693991Y-17562436D02*
X6684467Y-17571960D01*
X6684467Y-17571960D02*
X6665420Y-17581484D01*
X6665420Y-17581484D02*
X6646372Y-17581484D01*
X6646372Y-17581484D02*
X6627324Y-17571960D01*
X6627324Y-17571960D02*
X6617801Y-17562436D01*
X6617801Y-17562436D02*
X6608277Y-17543389D01*
X6608277Y-17543389D02*
X6598753Y-17505293D01*
X6598753Y-17505293D02*
X6598753Y-17457674D01*
X6598753Y-17457674D02*
X6608277Y-17419579D01*
X6608277Y-17419579D02*
X6617801Y-17400531D01*
X6617801Y-17400531D02*
X6627324Y-17391008D01*
X6627324Y-17391008D02*
X6646372Y-17381484D01*
X6798753Y-17562436D02*
X6808277Y-17571960D01*
X6808277Y-17571960D02*
X6798753Y-17581484D01*
X6798753Y-17581484D02*
X6789229Y-17571960D01*
X6789229Y-17571960D02*
X6798753Y-17562436D01*
X6798753Y-17562436D02*
X6798753Y-17581484D01*
X6874943Y-17381484D02*
X7008277Y-17381484D01*
X7008277Y-17381484D02*
X6922562Y-17581484D01*
X7122562Y-17381484D02*
X7141610Y-17381484D01*
X7141610Y-17381484D02*
X7160658Y-17391008D01*
X7160658Y-17391008D02*
X7170182Y-17400531D01*
X7170182Y-17400531D02*
X7179705Y-17419579D01*
X7179705Y-17419579D02*
X7189229Y-17457674D01*
X7189229Y-17457674D02*
X7189229Y-17505293D01*
X7189229Y-17505293D02*
X7179705Y-17543389D01*
X7179705Y-17543389D02*
X7170182Y-17562436D01*
X7170182Y-17562436D02*
X7160658Y-17571960D01*
X7160658Y-17571960D02*
X7141610Y-17581484D01*
X7141610Y-17581484D02*
X7122562Y-17581484D01*
X7122562Y-17581484D02*
X7103515Y-17571960D01*
X7103515Y-17571960D02*
X7093991Y-17562436D01*
X7093991Y-17562436D02*
X7084467Y-17543389D01*
X7084467Y-17543389D02*
X7074943Y-17505293D01*
X7074943Y-17505293D02*
X7074943Y-17457674D01*
X7074943Y-17457674D02*
X7084467Y-17419579D01*
X7084467Y-17419579D02*
X7093991Y-17400531D01*
X7093991Y-17400531D02*
X7103515Y-17391008D01*
X7103515Y-17391008D02*
X7122562Y-17381484D01*
X7313039Y-17381484D02*
X7332086Y-17381484D01*
X7332086Y-17381484D02*
X7351134Y-17391008D01*
X7351134Y-17391008D02*
X7360658Y-17400531D01*
X7360658Y-17400531D02*
X7370182Y-17419579D01*
X7370182Y-17419579D02*
X7379705Y-17457674D01*
X7379705Y-17457674D02*
X7379705Y-17505293D01*
X7379705Y-17505293D02*
X7370182Y-17543389D01*
X7370182Y-17543389D02*
X7360658Y-17562436D01*
X7360658Y-17562436D02*
X7351134Y-17571960D01*
X7351134Y-17571960D02*
X7332086Y-17581484D01*
X7332086Y-17581484D02*
X7313039Y-17581484D01*
X7313039Y-17581484D02*
X7293991Y-17571960D01*
X7293991Y-17571960D02*
X7284467Y-17562436D01*
X7284467Y-17562436D02*
X7274943Y-17543389D01*
X7274943Y-17543389D02*
X7265420Y-17505293D01*
X7265420Y-17505293D02*
X7265420Y-17457674D01*
X7265420Y-17457674D02*
X7274943Y-17419579D01*
X7274943Y-17419579D02*
X7284467Y-17400531D01*
X7284467Y-17400531D02*
X7293991Y-17391008D01*
X7293991Y-17391008D02*
X7313039Y-17381484D01*
X7465420Y-17581484D02*
X7465420Y-17448150D01*
X7465420Y-17467198D02*
X7474943Y-17457674D01*
X7474943Y-17457674D02*
X7493991Y-17448150D01*
X7493991Y-17448150D02*
X7522563Y-17448150D01*
X7522563Y-17448150D02*
X7541610Y-17457674D01*
X7541610Y-17457674D02*
X7551134Y-17476722D01*
X7551134Y-17476722D02*
X7551134Y-17581484D01*
X7551134Y-17476722D02*
X7560658Y-17457674D01*
X7560658Y-17457674D02*
X7579705Y-17448150D01*
X7579705Y-17448150D02*
X7608277Y-17448150D01*
X7608277Y-17448150D02*
X7627324Y-17457674D01*
X7627324Y-17457674D02*
X7636848Y-17476722D01*
X7636848Y-17476722D02*
X7636848Y-17581484D01*
X7732086Y-17581484D02*
X7732086Y-17448150D01*
X7732086Y-17467198D02*
X7741610Y-17457674D01*
X7741610Y-17457674D02*
X7760658Y-17448150D01*
X7760658Y-17448150D02*
X7789229Y-17448150D01*
X7789229Y-17448150D02*
X7808277Y-17457674D01*
X7808277Y-17457674D02*
X7817801Y-17476722D01*
X7817801Y-17476722D02*
X7817801Y-17581484D01*
X7817801Y-17476722D02*
X7827324Y-17457674D01*
X7827324Y-17457674D02*
X7846372Y-17448150D01*
X7846372Y-17448150D02*
X7874943Y-17448150D01*
X7874943Y-17448150D02*
X7893991Y-17457674D01*
X7893991Y-17457674D02*
X7903515Y-17476722D01*
X7903515Y-17476722D02*
X7903515Y-17581484D01*
X8293991Y-17371960D02*
X8122563Y-17629103D01*
X8551134Y-17381484D02*
X8570182Y-17381484D01*
X8570182Y-17381484D02*
X8589229Y-17391008D01*
X8589229Y-17391008D02*
X8598753Y-17400531D01*
X8598753Y-17400531D02*
X8608277Y-17419579D01*
X8608277Y-17419579D02*
X8617801Y-17457674D01*
X8617801Y-17457674D02*
X8617801Y-17505293D01*
X8617801Y-17505293D02*
X8608277Y-17543389D01*
X8608277Y-17543389D02*
X8598753Y-17562436D01*
X8598753Y-17562436D02*
X8589229Y-17571960D01*
X8589229Y-17571960D02*
X8570182Y-17581484D01*
X8570182Y-17581484D02*
X8551134Y-17581484D01*
X8551134Y-17581484D02*
X8532087Y-17571960D01*
X8532087Y-17571960D02*
X8522563Y-17562436D01*
X8522563Y-17562436D02*
X8513039Y-17543389D01*
X8513039Y-17543389D02*
X8503515Y-17505293D01*
X8503515Y-17505293D02*
X8503515Y-17457674D01*
X8503515Y-17457674D02*
X8513039Y-17419579D01*
X8513039Y-17419579D02*
X8522563Y-17400531D01*
X8522563Y-17400531D02*
X8532087Y-17391008D01*
X8532087Y-17391008D02*
X8551134Y-17381484D01*
X8703515Y-17562436D02*
X8713039Y-17571960D01*
X8713039Y-17571960D02*
X8703515Y-17581484D01*
X8703515Y-17581484D02*
X8693991Y-17571960D01*
X8693991Y-17571960D02*
X8703515Y-17562436D01*
X8703515Y-17562436D02*
X8703515Y-17581484D01*
X8836848Y-17381484D02*
X8855896Y-17381484D01*
X8855896Y-17381484D02*
X8874944Y-17391008D01*
X8874944Y-17391008D02*
X8884468Y-17400531D01*
X8884468Y-17400531D02*
X8893991Y-17419579D01*
X8893991Y-17419579D02*
X8903515Y-17457674D01*
X8903515Y-17457674D02*
X8903515Y-17505293D01*
X8903515Y-17505293D02*
X8893991Y-17543389D01*
X8893991Y-17543389D02*
X8884468Y-17562436D01*
X8884468Y-17562436D02*
X8874944Y-17571960D01*
X8874944Y-17571960D02*
X8855896Y-17581484D01*
X8855896Y-17581484D02*
X8836848Y-17581484D01*
X8836848Y-17581484D02*
X8817801Y-17571960D01*
X8817801Y-17571960D02*
X8808277Y-17562436D01*
X8808277Y-17562436D02*
X8798753Y-17543389D01*
X8798753Y-17543389D02*
X8789229Y-17505293D01*
X8789229Y-17505293D02*
X8789229Y-17457674D01*
X8789229Y-17457674D02*
X8798753Y-17419579D01*
X8798753Y-17419579D02*
X8808277Y-17400531D01*
X8808277Y-17400531D02*
X8817801Y-17391008D01*
X8817801Y-17391008D02*
X8836848Y-17381484D01*
X8979706Y-17400531D02*
X8989229Y-17391008D01*
X8989229Y-17391008D02*
X9008277Y-17381484D01*
X9008277Y-17381484D02*
X9055896Y-17381484D01*
X9055896Y-17381484D02*
X9074944Y-17391008D01*
X9074944Y-17391008D02*
X9084468Y-17400531D01*
X9084468Y-17400531D02*
X9093991Y-17419579D01*
X9093991Y-17419579D02*
X9093991Y-17438627D01*
X9093991Y-17438627D02*
X9084468Y-17467198D01*
X9084468Y-17467198D02*
X8970182Y-17581484D01*
X8970182Y-17581484D02*
X9093991Y-17581484D01*
X9160658Y-17381484D02*
X9293991Y-17381484D01*
X9293991Y-17381484D02*
X9208277Y-17581484D01*
X9455896Y-17381484D02*
X9417801Y-17381484D01*
X9417801Y-17381484D02*
X9398753Y-17391008D01*
X9398753Y-17391008D02*
X9389229Y-17400531D01*
X9389229Y-17400531D02*
X9370182Y-17429103D01*
X9370182Y-17429103D02*
X9360658Y-17467198D01*
X9360658Y-17467198D02*
X9360658Y-17543389D01*
X9360658Y-17543389D02*
X9370182Y-17562436D01*
X9370182Y-17562436D02*
X9379706Y-17571960D01*
X9379706Y-17571960D02*
X9398753Y-17581484D01*
X9398753Y-17581484D02*
X9436849Y-17581484D01*
X9436849Y-17581484D02*
X9455896Y-17571960D01*
X9455896Y-17571960D02*
X9465420Y-17562436D01*
X9465420Y-17562436D02*
X9474944Y-17543389D01*
X9474944Y-17543389D02*
X9474944Y-17495770D01*
X9474944Y-17495770D02*
X9465420Y-17476722D01*
X9465420Y-17476722D02*
X9455896Y-17467198D01*
X9455896Y-17467198D02*
X9436849Y-17457674D01*
X9436849Y-17457674D02*
X9398753Y-17457674D01*
X9398753Y-17457674D02*
X9379706Y-17467198D01*
X9379706Y-17467198D02*
X9370182Y-17476722D01*
X9370182Y-17476722D02*
X9360658Y-17495770D01*
X9551134Y-17381484D02*
X9551134Y-17419579D01*
X9627325Y-17381484D02*
X9627325Y-17419579D01*
X9922563Y-17657674D02*
X9913039Y-17648150D01*
X9913039Y-17648150D02*
X9893991Y-17619579D01*
X9893991Y-17619579D02*
X9884468Y-17600531D01*
X9884468Y-17600531D02*
X9874944Y-17571960D01*
X9874944Y-17571960D02*
X9865420Y-17524341D01*
X9865420Y-17524341D02*
X9865420Y-17486246D01*
X9865420Y-17486246D02*
X9874944Y-17438627D01*
X9874944Y-17438627D02*
X9884468Y-17410055D01*
X9884468Y-17410055D02*
X9893991Y-17391008D01*
X9893991Y-17391008D02*
X9913039Y-17362436D01*
X9913039Y-17362436D02*
X9922563Y-17352912D01*
X10084468Y-17448150D02*
X10084468Y-17581484D01*
X10036849Y-17371960D02*
X9989230Y-17514817D01*
X9989230Y-17514817D02*
X10113039Y-17514817D01*
X10227325Y-17381484D02*
X10246372Y-17381484D01*
X10246372Y-17381484D02*
X10265420Y-17391008D01*
X10265420Y-17391008D02*
X10274944Y-17400531D01*
X10274944Y-17400531D02*
X10284468Y-17419579D01*
X10284468Y-17419579D02*
X10293991Y-17457674D01*
X10293991Y-17457674D02*
X10293991Y-17505293D01*
X10293991Y-17505293D02*
X10284468Y-17543389D01*
X10284468Y-17543389D02*
X10274944Y-17562436D01*
X10274944Y-17562436D02*
X10265420Y-17571960D01*
X10265420Y-17571960D02*
X10246372Y-17581484D01*
X10246372Y-17581484D02*
X10227325Y-17581484D01*
X10227325Y-17581484D02*
X10208277Y-17571960D01*
X10208277Y-17571960D02*
X10198753Y-17562436D01*
X10198753Y-17562436D02*
X10189230Y-17543389D01*
X10189230Y-17543389D02*
X10179706Y-17505293D01*
X10179706Y-17505293D02*
X10179706Y-17457674D01*
X10179706Y-17457674D02*
X10189230Y-17419579D01*
X10189230Y-17419579D02*
X10198753Y-17400531D01*
X10198753Y-17400531D02*
X10208277Y-17391008D01*
X10208277Y-17391008D02*
X10227325Y-17381484D01*
X10532087Y-17581484D02*
X10532087Y-17381484D01*
X10617801Y-17581484D02*
X10617801Y-17476722D01*
X10617801Y-17476722D02*
X10608277Y-17457674D01*
X10608277Y-17457674D02*
X10589230Y-17448150D01*
X10589230Y-17448150D02*
X10560658Y-17448150D01*
X10560658Y-17448150D02*
X10541611Y-17457674D01*
X10541611Y-17457674D02*
X10532087Y-17467198D01*
X10741611Y-17581484D02*
X10722563Y-17571960D01*
X10722563Y-17571960D02*
X10713039Y-17562436D01*
X10713039Y-17562436D02*
X10703515Y-17543389D01*
X10703515Y-17543389D02*
X10703515Y-17486246D01*
X10703515Y-17486246D02*
X10713039Y-17467198D01*
X10713039Y-17467198D02*
X10722563Y-17457674D01*
X10722563Y-17457674D02*
X10741611Y-17448150D01*
X10741611Y-17448150D02*
X10770182Y-17448150D01*
X10770182Y-17448150D02*
X10789230Y-17457674D01*
X10789230Y-17457674D02*
X10798753Y-17467198D01*
X10798753Y-17467198D02*
X10808277Y-17486246D01*
X10808277Y-17486246D02*
X10808277Y-17543389D01*
X10808277Y-17543389D02*
X10798753Y-17562436D01*
X10798753Y-17562436D02*
X10789230Y-17571960D01*
X10789230Y-17571960D02*
X10770182Y-17581484D01*
X10770182Y-17581484D02*
X10741611Y-17581484D01*
X10922563Y-17581484D02*
X10903515Y-17571960D01*
X10903515Y-17571960D02*
X10893992Y-17552912D01*
X10893992Y-17552912D02*
X10893992Y-17381484D01*
X11074944Y-17571960D02*
X11055896Y-17581484D01*
X11055896Y-17581484D02*
X11017801Y-17581484D01*
X11017801Y-17581484D02*
X10998753Y-17571960D01*
X10998753Y-17571960D02*
X10989230Y-17552912D01*
X10989230Y-17552912D02*
X10989230Y-17476722D01*
X10989230Y-17476722D02*
X10998753Y-17457674D01*
X10998753Y-17457674D02*
X11017801Y-17448150D01*
X11017801Y-17448150D02*
X11055896Y-17448150D01*
X11055896Y-17448150D02*
X11074944Y-17457674D01*
X11074944Y-17457674D02*
X11084468Y-17476722D01*
X11084468Y-17476722D02*
X11084468Y-17495770D01*
X11084468Y-17495770D02*
X10989230Y-17514817D01*
X11160658Y-17571960D02*
X11179706Y-17581484D01*
X11179706Y-17581484D02*
X11217801Y-17581484D01*
X11217801Y-17581484D02*
X11236849Y-17571960D01*
X11236849Y-17571960D02*
X11246372Y-17552912D01*
X11246372Y-17552912D02*
X11246372Y-17543389D01*
X11246372Y-17543389D02*
X11236849Y-17524341D01*
X11236849Y-17524341D02*
X11217801Y-17514817D01*
X11217801Y-17514817D02*
X11189230Y-17514817D01*
X11189230Y-17514817D02*
X11170182Y-17505293D01*
X11170182Y-17505293D02*
X11160658Y-17486246D01*
X11160658Y-17486246D02*
X11160658Y-17476722D01*
X11160658Y-17476722D02*
X11170182Y-17457674D01*
X11170182Y-17457674D02*
X11189230Y-17448150D01*
X11189230Y-17448150D02*
X11217801Y-17448150D01*
X11217801Y-17448150D02*
X11236849Y-17457674D01*
X11313039Y-17657674D02*
X11322563Y-17648150D01*
X11322563Y-17648150D02*
X11341611Y-17619579D01*
X11341611Y-17619579D02*
X11351134Y-17600531D01*
X11351134Y-17600531D02*
X11360658Y-17571960D01*
X11360658Y-17571960D02*
X11370182Y-17524341D01*
X11370182Y-17524341D02*
X11370182Y-17486246D01*
X11370182Y-17486246D02*
X11360658Y-17438627D01*
X11360658Y-17438627D02*
X11351134Y-17410055D01*
X11351134Y-17410055D02*
X11341611Y-17391008D01*
X11341611Y-17391008D02*
X11322563Y-17362436D01*
X11322563Y-17362436D02*
X11313039Y-17352912D01*
D12*
X6335784Y-17782285D02*
X6335784Y-17725716D01*
X6279215Y-17725716D01*
X6279215Y-17782285D01*
X6335784Y-17782285D01*
D11*
X6646372Y-17645484D02*
X6665420Y-17645484D01*
X6665420Y-17645484D02*
X6684467Y-17655008D01*
X6684467Y-17655008D02*
X6693991Y-17664531D01*
X6693991Y-17664531D02*
X6703515Y-17683579D01*
X6703515Y-17683579D02*
X6713039Y-17721674D01*
X6713039Y-17721674D02*
X6713039Y-17769293D01*
X6713039Y-17769293D02*
X6703515Y-17807389D01*
X6703515Y-17807389D02*
X6693991Y-17826436D01*
X6693991Y-17826436D02*
X6684467Y-17835960D01*
X6684467Y-17835960D02*
X6665420Y-17845484D01*
X6665420Y-17845484D02*
X6646372Y-17845484D01*
X6646372Y-17845484D02*
X6627324Y-17835960D01*
X6627324Y-17835960D02*
X6617801Y-17826436D01*
X6617801Y-17826436D02*
X6608277Y-17807389D01*
X6608277Y-17807389D02*
X6598753Y-17769293D01*
X6598753Y-17769293D02*
X6598753Y-17721674D01*
X6598753Y-17721674D02*
X6608277Y-17683579D01*
X6608277Y-17683579D02*
X6617801Y-17664531D01*
X6617801Y-17664531D02*
X6627324Y-17655008D01*
X6627324Y-17655008D02*
X6646372Y-17645484D01*
X6798753Y-17826436D02*
X6808277Y-17835960D01*
X6808277Y-17835960D02*
X6798753Y-17845484D01*
X6798753Y-17845484D02*
X6789229Y-17835960D01*
X6789229Y-17835960D02*
X6798753Y-17826436D01*
X6798753Y-17826436D02*
X6798753Y-17845484D01*
X6922562Y-17731198D02*
X6903515Y-17721674D01*
X6903515Y-17721674D02*
X6893991Y-17712150D01*
X6893991Y-17712150D02*
X6884467Y-17693103D01*
X6884467Y-17693103D02*
X6884467Y-17683579D01*
X6884467Y-17683579D02*
X6893991Y-17664531D01*
X6893991Y-17664531D02*
X6903515Y-17655008D01*
X6903515Y-17655008D02*
X6922562Y-17645484D01*
X6922562Y-17645484D02*
X6960658Y-17645484D01*
X6960658Y-17645484D02*
X6979705Y-17655008D01*
X6979705Y-17655008D02*
X6989229Y-17664531D01*
X6989229Y-17664531D02*
X6998753Y-17683579D01*
X6998753Y-17683579D02*
X6998753Y-17693103D01*
X6998753Y-17693103D02*
X6989229Y-17712150D01*
X6989229Y-17712150D02*
X6979705Y-17721674D01*
X6979705Y-17721674D02*
X6960658Y-17731198D01*
X6960658Y-17731198D02*
X6922562Y-17731198D01*
X6922562Y-17731198D02*
X6903515Y-17740722D01*
X6903515Y-17740722D02*
X6893991Y-17750246D01*
X6893991Y-17750246D02*
X6884467Y-17769293D01*
X6884467Y-17769293D02*
X6884467Y-17807389D01*
X6884467Y-17807389D02*
X6893991Y-17826436D01*
X6893991Y-17826436D02*
X6903515Y-17835960D01*
X6903515Y-17835960D02*
X6922562Y-17845484D01*
X6922562Y-17845484D02*
X6960658Y-17845484D01*
X6960658Y-17845484D02*
X6979705Y-17835960D01*
X6979705Y-17835960D02*
X6989229Y-17826436D01*
X6989229Y-17826436D02*
X6998753Y-17807389D01*
X6998753Y-17807389D02*
X6998753Y-17769293D01*
X6998753Y-17769293D02*
X6989229Y-17750246D01*
X6989229Y-17750246D02*
X6979705Y-17740722D01*
X6979705Y-17740722D02*
X6960658Y-17731198D01*
X7122562Y-17645484D02*
X7141610Y-17645484D01*
X7141610Y-17645484D02*
X7160658Y-17655008D01*
X7160658Y-17655008D02*
X7170182Y-17664531D01*
X7170182Y-17664531D02*
X7179705Y-17683579D01*
X7179705Y-17683579D02*
X7189229Y-17721674D01*
X7189229Y-17721674D02*
X7189229Y-17769293D01*
X7189229Y-17769293D02*
X7179705Y-17807389D01*
X7179705Y-17807389D02*
X7170182Y-17826436D01*
X7170182Y-17826436D02*
X7160658Y-17835960D01*
X7160658Y-17835960D02*
X7141610Y-17845484D01*
X7141610Y-17845484D02*
X7122562Y-17845484D01*
X7122562Y-17845484D02*
X7103515Y-17835960D01*
X7103515Y-17835960D02*
X7093991Y-17826436D01*
X7093991Y-17826436D02*
X7084467Y-17807389D01*
X7084467Y-17807389D02*
X7074943Y-17769293D01*
X7074943Y-17769293D02*
X7074943Y-17721674D01*
X7074943Y-17721674D02*
X7084467Y-17683579D01*
X7084467Y-17683579D02*
X7093991Y-17664531D01*
X7093991Y-17664531D02*
X7103515Y-17655008D01*
X7103515Y-17655008D02*
X7122562Y-17645484D01*
X7313039Y-17645484D02*
X7332086Y-17645484D01*
X7332086Y-17645484D02*
X7351134Y-17655008D01*
X7351134Y-17655008D02*
X7360658Y-17664531D01*
X7360658Y-17664531D02*
X7370182Y-17683579D01*
X7370182Y-17683579D02*
X7379705Y-17721674D01*
X7379705Y-17721674D02*
X7379705Y-17769293D01*
X7379705Y-17769293D02*
X7370182Y-17807389D01*
X7370182Y-17807389D02*
X7360658Y-17826436D01*
X7360658Y-17826436D02*
X7351134Y-17835960D01*
X7351134Y-17835960D02*
X7332086Y-17845484D01*
X7332086Y-17845484D02*
X7313039Y-17845484D01*
X7313039Y-17845484D02*
X7293991Y-17835960D01*
X7293991Y-17835960D02*
X7284467Y-17826436D01*
X7284467Y-17826436D02*
X7274943Y-17807389D01*
X7274943Y-17807389D02*
X7265420Y-17769293D01*
X7265420Y-17769293D02*
X7265420Y-17721674D01*
X7265420Y-17721674D02*
X7274943Y-17683579D01*
X7274943Y-17683579D02*
X7284467Y-17664531D01*
X7284467Y-17664531D02*
X7293991Y-17655008D01*
X7293991Y-17655008D02*
X7313039Y-17645484D01*
X7465420Y-17845484D02*
X7465420Y-17712150D01*
X7465420Y-17731198D02*
X7474943Y-17721674D01*
X7474943Y-17721674D02*
X7493991Y-17712150D01*
X7493991Y-17712150D02*
X7522563Y-17712150D01*
X7522563Y-17712150D02*
X7541610Y-17721674D01*
X7541610Y-17721674D02*
X7551134Y-17740722D01*
X7551134Y-17740722D02*
X7551134Y-17845484D01*
X7551134Y-17740722D02*
X7560658Y-17721674D01*
X7560658Y-17721674D02*
X7579705Y-17712150D01*
X7579705Y-17712150D02*
X7608277Y-17712150D01*
X7608277Y-17712150D02*
X7627324Y-17721674D01*
X7627324Y-17721674D02*
X7636848Y-17740722D01*
X7636848Y-17740722D02*
X7636848Y-17845484D01*
X7732086Y-17845484D02*
X7732086Y-17712150D01*
X7732086Y-17731198D02*
X7741610Y-17721674D01*
X7741610Y-17721674D02*
X7760658Y-17712150D01*
X7760658Y-17712150D02*
X7789229Y-17712150D01*
X7789229Y-17712150D02*
X7808277Y-17721674D01*
X7808277Y-17721674D02*
X7817801Y-17740722D01*
X7817801Y-17740722D02*
X7817801Y-17845484D01*
X7817801Y-17740722D02*
X7827324Y-17721674D01*
X7827324Y-17721674D02*
X7846372Y-17712150D01*
X7846372Y-17712150D02*
X7874943Y-17712150D01*
X7874943Y-17712150D02*
X7893991Y-17721674D01*
X7893991Y-17721674D02*
X7903515Y-17740722D01*
X7903515Y-17740722D02*
X7903515Y-17845484D01*
X8293991Y-17635960D02*
X8122563Y-17893103D01*
X8551134Y-17645484D02*
X8570182Y-17645484D01*
X8570182Y-17645484D02*
X8589229Y-17655008D01*
X8589229Y-17655008D02*
X8598753Y-17664531D01*
X8598753Y-17664531D02*
X8608277Y-17683579D01*
X8608277Y-17683579D02*
X8617801Y-17721674D01*
X8617801Y-17721674D02*
X8617801Y-17769293D01*
X8617801Y-17769293D02*
X8608277Y-17807389D01*
X8608277Y-17807389D02*
X8598753Y-17826436D01*
X8598753Y-17826436D02*
X8589229Y-17835960D01*
X8589229Y-17835960D02*
X8570182Y-17845484D01*
X8570182Y-17845484D02*
X8551134Y-17845484D01*
X8551134Y-17845484D02*
X8532087Y-17835960D01*
X8532087Y-17835960D02*
X8522563Y-17826436D01*
X8522563Y-17826436D02*
X8513039Y-17807389D01*
X8513039Y-17807389D02*
X8503515Y-17769293D01*
X8503515Y-17769293D02*
X8503515Y-17721674D01*
X8503515Y-17721674D02*
X8513039Y-17683579D01*
X8513039Y-17683579D02*
X8522563Y-17664531D01*
X8522563Y-17664531D02*
X8532087Y-17655008D01*
X8532087Y-17655008D02*
X8551134Y-17645484D01*
X8703515Y-17826436D02*
X8713039Y-17835960D01*
X8713039Y-17835960D02*
X8703515Y-17845484D01*
X8703515Y-17845484D02*
X8693991Y-17835960D01*
X8693991Y-17835960D02*
X8703515Y-17826436D01*
X8703515Y-17826436D02*
X8703515Y-17845484D01*
X8836848Y-17645484D02*
X8855896Y-17645484D01*
X8855896Y-17645484D02*
X8874944Y-17655008D01*
X8874944Y-17655008D02*
X8884468Y-17664531D01*
X8884468Y-17664531D02*
X8893991Y-17683579D01*
X8893991Y-17683579D02*
X8903515Y-17721674D01*
X8903515Y-17721674D02*
X8903515Y-17769293D01*
X8903515Y-17769293D02*
X8893991Y-17807389D01*
X8893991Y-17807389D02*
X8884468Y-17826436D01*
X8884468Y-17826436D02*
X8874944Y-17835960D01*
X8874944Y-17835960D02*
X8855896Y-17845484D01*
X8855896Y-17845484D02*
X8836848Y-17845484D01*
X8836848Y-17845484D02*
X8817801Y-17835960D01*
X8817801Y-17835960D02*
X8808277Y-17826436D01*
X8808277Y-17826436D02*
X8798753Y-17807389D01*
X8798753Y-17807389D02*
X8789229Y-17769293D01*
X8789229Y-17769293D02*
X8789229Y-17721674D01*
X8789229Y-17721674D02*
X8798753Y-17683579D01*
X8798753Y-17683579D02*
X8808277Y-17664531D01*
X8808277Y-17664531D02*
X8817801Y-17655008D01*
X8817801Y-17655008D02*
X8836848Y-17645484D01*
X8970182Y-17645484D02*
X9093991Y-17645484D01*
X9093991Y-17645484D02*
X9027325Y-17721674D01*
X9027325Y-17721674D02*
X9055896Y-17721674D01*
X9055896Y-17721674D02*
X9074944Y-17731198D01*
X9074944Y-17731198D02*
X9084468Y-17740722D01*
X9084468Y-17740722D02*
X9093991Y-17759770D01*
X9093991Y-17759770D02*
X9093991Y-17807389D01*
X9093991Y-17807389D02*
X9084468Y-17826436D01*
X9084468Y-17826436D02*
X9074944Y-17835960D01*
X9074944Y-17835960D02*
X9055896Y-17845484D01*
X9055896Y-17845484D02*
X8998753Y-17845484D01*
X8998753Y-17845484D02*
X8979706Y-17835960D01*
X8979706Y-17835960D02*
X8970182Y-17826436D01*
X9284468Y-17845484D02*
X9170182Y-17845484D01*
X9227325Y-17845484D02*
X9227325Y-17645484D01*
X9227325Y-17645484D02*
X9208277Y-17674055D01*
X9208277Y-17674055D02*
X9189229Y-17693103D01*
X9189229Y-17693103D02*
X9170182Y-17702627D01*
X9465420Y-17645484D02*
X9370182Y-17645484D01*
X9370182Y-17645484D02*
X9360658Y-17740722D01*
X9360658Y-17740722D02*
X9370182Y-17731198D01*
X9370182Y-17731198D02*
X9389229Y-17721674D01*
X9389229Y-17721674D02*
X9436849Y-17721674D01*
X9436849Y-17721674D02*
X9455896Y-17731198D01*
X9455896Y-17731198D02*
X9465420Y-17740722D01*
X9465420Y-17740722D02*
X9474944Y-17759770D01*
X9474944Y-17759770D02*
X9474944Y-17807389D01*
X9474944Y-17807389D02*
X9465420Y-17826436D01*
X9465420Y-17826436D02*
X9455896Y-17835960D01*
X9455896Y-17835960D02*
X9436849Y-17845484D01*
X9436849Y-17845484D02*
X9389229Y-17845484D01*
X9389229Y-17845484D02*
X9370182Y-17835960D01*
X9370182Y-17835960D02*
X9360658Y-17826436D01*
X9551134Y-17645484D02*
X9551134Y-17683579D01*
X9627325Y-17645484D02*
X9627325Y-17683579D01*
X9922563Y-17921674D02*
X9913039Y-17912150D01*
X9913039Y-17912150D02*
X9893991Y-17883579D01*
X9893991Y-17883579D02*
X9884468Y-17864531D01*
X9884468Y-17864531D02*
X9874944Y-17835960D01*
X9874944Y-17835960D02*
X9865420Y-17788341D01*
X9865420Y-17788341D02*
X9865420Y-17750246D01*
X9865420Y-17750246D02*
X9874944Y-17702627D01*
X9874944Y-17702627D02*
X9884468Y-17674055D01*
X9884468Y-17674055D02*
X9893991Y-17655008D01*
X9893991Y-17655008D02*
X9913039Y-17626436D01*
X9913039Y-17626436D02*
X9922563Y-17616912D01*
X10084468Y-17712150D02*
X10084468Y-17845484D01*
X10036849Y-17635960D02*
X9989230Y-17778817D01*
X9989230Y-17778817D02*
X10113039Y-17778817D01*
X10274944Y-17712150D02*
X10274944Y-17845484D01*
X10227325Y-17635960D02*
X10179706Y-17778817D01*
X10179706Y-17778817D02*
X10303515Y-17778817D01*
X10532087Y-17845484D02*
X10532087Y-17645484D01*
X10617801Y-17845484D02*
X10617801Y-17740722D01*
X10617801Y-17740722D02*
X10608277Y-17721674D01*
X10608277Y-17721674D02*
X10589230Y-17712150D01*
X10589230Y-17712150D02*
X10560658Y-17712150D01*
X10560658Y-17712150D02*
X10541611Y-17721674D01*
X10541611Y-17721674D02*
X10532087Y-17731198D01*
X10741611Y-17845484D02*
X10722563Y-17835960D01*
X10722563Y-17835960D02*
X10713039Y-17826436D01*
X10713039Y-17826436D02*
X10703515Y-17807389D01*
X10703515Y-17807389D02*
X10703515Y-17750246D01*
X10703515Y-17750246D02*
X10713039Y-17731198D01*
X10713039Y-17731198D02*
X10722563Y-17721674D01*
X10722563Y-17721674D02*
X10741611Y-17712150D01*
X10741611Y-17712150D02*
X10770182Y-17712150D01*
X10770182Y-17712150D02*
X10789230Y-17721674D01*
X10789230Y-17721674D02*
X10798753Y-17731198D01*
X10798753Y-17731198D02*
X10808277Y-17750246D01*
X10808277Y-17750246D02*
X10808277Y-17807389D01*
X10808277Y-17807389D02*
X10798753Y-17826436D01*
X10798753Y-17826436D02*
X10789230Y-17835960D01*
X10789230Y-17835960D02*
X10770182Y-17845484D01*
X10770182Y-17845484D02*
X10741611Y-17845484D01*
X10922563Y-17845484D02*
X10903515Y-17835960D01*
X10903515Y-17835960D02*
X10893992Y-17816912D01*
X10893992Y-17816912D02*
X10893992Y-17645484D01*
X11074944Y-17835960D02*
X11055896Y-17845484D01*
X11055896Y-17845484D02*
X11017801Y-17845484D01*
X11017801Y-17845484D02*
X10998753Y-17835960D01*
X10998753Y-17835960D02*
X10989230Y-17816912D01*
X10989230Y-17816912D02*
X10989230Y-17740722D01*
X10989230Y-17740722D02*
X10998753Y-17721674D01*
X10998753Y-17721674D02*
X11017801Y-17712150D01*
X11017801Y-17712150D02*
X11055896Y-17712150D01*
X11055896Y-17712150D02*
X11074944Y-17721674D01*
X11074944Y-17721674D02*
X11084468Y-17740722D01*
X11084468Y-17740722D02*
X11084468Y-17759770D01*
X11084468Y-17759770D02*
X10989230Y-17778817D01*
X11160658Y-17835960D02*
X11179706Y-17845484D01*
X11179706Y-17845484D02*
X11217801Y-17845484D01*
X11217801Y-17845484D02*
X11236849Y-17835960D01*
X11236849Y-17835960D02*
X11246372Y-17816912D01*
X11246372Y-17816912D02*
X11246372Y-17807389D01*
X11246372Y-17807389D02*
X11236849Y-17788341D01*
X11236849Y-17788341D02*
X11217801Y-17778817D01*
X11217801Y-17778817D02*
X11189230Y-17778817D01*
X11189230Y-17778817D02*
X11170182Y-17769293D01*
X11170182Y-17769293D02*
X11160658Y-17750246D01*
X11160658Y-17750246D02*
X11160658Y-17740722D01*
X11160658Y-17740722D02*
X11170182Y-17721674D01*
X11170182Y-17721674D02*
X11189230Y-17712150D01*
X11189230Y-17712150D02*
X11217801Y-17712150D01*
X11217801Y-17712150D02*
X11236849Y-17721674D01*
X11313039Y-17921674D02*
X11322563Y-17912150D01*
X11322563Y-17912150D02*
X11341611Y-17883579D01*
X11341611Y-17883579D02*
X11351134Y-17864531D01*
X11351134Y-17864531D02*
X11360658Y-17835960D01*
X11360658Y-17835960D02*
X11370182Y-17788341D01*
X11370182Y-17788341D02*
X11370182Y-17750246D01*
X11370182Y-17750246D02*
X11360658Y-17702627D01*
X11360658Y-17702627D02*
X11351134Y-17674055D01*
X11351134Y-17674055D02*
X11341611Y-17655008D01*
X11341611Y-17655008D02*
X11322563Y-17626436D01*
X11322563Y-17626436D02*
X11313039Y-17616912D01*
D12*
X6301780Y-18063720D02*
X6347500Y-18018000D01*
X6301780Y-17972280D01*
X6256060Y-18018000D01*
X6301780Y-18063720D01*
D11*
X6646372Y-17909484D02*
X6665420Y-17909484D01*
X6665420Y-17909484D02*
X6684467Y-17919008D01*
X6684467Y-17919008D02*
X6693991Y-17928531D01*
X6693991Y-17928531D02*
X6703515Y-17947579D01*
X6703515Y-17947579D02*
X6713039Y-17985674D01*
X6713039Y-17985674D02*
X6713039Y-18033293D01*
X6713039Y-18033293D02*
X6703515Y-18071389D01*
X6703515Y-18071389D02*
X6693991Y-18090436D01*
X6693991Y-18090436D02*
X6684467Y-18099960D01*
X6684467Y-18099960D02*
X6665420Y-18109484D01*
X6665420Y-18109484D02*
X6646372Y-18109484D01*
X6646372Y-18109484D02*
X6627324Y-18099960D01*
X6627324Y-18099960D02*
X6617801Y-18090436D01*
X6617801Y-18090436D02*
X6608277Y-18071389D01*
X6608277Y-18071389D02*
X6598753Y-18033293D01*
X6598753Y-18033293D02*
X6598753Y-17985674D01*
X6598753Y-17985674D02*
X6608277Y-17947579D01*
X6608277Y-17947579D02*
X6617801Y-17928531D01*
X6617801Y-17928531D02*
X6627324Y-17919008D01*
X6627324Y-17919008D02*
X6646372Y-17909484D01*
X6798753Y-18090436D02*
X6808277Y-18099960D01*
X6808277Y-18099960D02*
X6798753Y-18109484D01*
X6798753Y-18109484D02*
X6789229Y-18099960D01*
X6789229Y-18099960D02*
X6798753Y-18090436D01*
X6798753Y-18090436D02*
X6798753Y-18109484D01*
X6903515Y-18109484D02*
X6941610Y-18109484D01*
X6941610Y-18109484D02*
X6960658Y-18099960D01*
X6960658Y-18099960D02*
X6970182Y-18090436D01*
X6970182Y-18090436D02*
X6989229Y-18061865D01*
X6989229Y-18061865D02*
X6998753Y-18023770D01*
X6998753Y-18023770D02*
X6998753Y-17947579D01*
X6998753Y-17947579D02*
X6989229Y-17928531D01*
X6989229Y-17928531D02*
X6979705Y-17919008D01*
X6979705Y-17919008D02*
X6960658Y-17909484D01*
X6960658Y-17909484D02*
X6922562Y-17909484D01*
X6922562Y-17909484D02*
X6903515Y-17919008D01*
X6903515Y-17919008D02*
X6893991Y-17928531D01*
X6893991Y-17928531D02*
X6884467Y-17947579D01*
X6884467Y-17947579D02*
X6884467Y-17995198D01*
X6884467Y-17995198D02*
X6893991Y-18014246D01*
X6893991Y-18014246D02*
X6903515Y-18023770D01*
X6903515Y-18023770D02*
X6922562Y-18033293D01*
X6922562Y-18033293D02*
X6960658Y-18033293D01*
X6960658Y-18033293D02*
X6979705Y-18023770D01*
X6979705Y-18023770D02*
X6989229Y-18014246D01*
X6989229Y-18014246D02*
X6998753Y-17995198D01*
X7189229Y-18109484D02*
X7074943Y-18109484D01*
X7132086Y-18109484D02*
X7132086Y-17909484D01*
X7132086Y-17909484D02*
X7113039Y-17938055D01*
X7113039Y-17938055D02*
X7093991Y-17957103D01*
X7093991Y-17957103D02*
X7074943Y-17966627D01*
X7360658Y-17976150D02*
X7360658Y-18109484D01*
X7313039Y-17899960D02*
X7265420Y-18042817D01*
X7265420Y-18042817D02*
X7389229Y-18042817D01*
X7465420Y-18109484D02*
X7465420Y-17976150D01*
X7465420Y-17995198D02*
X7474943Y-17985674D01*
X7474943Y-17985674D02*
X7493991Y-17976150D01*
X7493991Y-17976150D02*
X7522563Y-17976150D01*
X7522563Y-17976150D02*
X7541610Y-17985674D01*
X7541610Y-17985674D02*
X7551134Y-18004722D01*
X7551134Y-18004722D02*
X7551134Y-18109484D01*
X7551134Y-18004722D02*
X7560658Y-17985674D01*
X7560658Y-17985674D02*
X7579705Y-17976150D01*
X7579705Y-17976150D02*
X7608277Y-17976150D01*
X7608277Y-17976150D02*
X7627324Y-17985674D01*
X7627324Y-17985674D02*
X7636848Y-18004722D01*
X7636848Y-18004722D02*
X7636848Y-18109484D01*
X7732086Y-18109484D02*
X7732086Y-17976150D01*
X7732086Y-17995198D02*
X7741610Y-17985674D01*
X7741610Y-17985674D02*
X7760658Y-17976150D01*
X7760658Y-17976150D02*
X7789229Y-17976150D01*
X7789229Y-17976150D02*
X7808277Y-17985674D01*
X7808277Y-17985674D02*
X7817801Y-18004722D01*
X7817801Y-18004722D02*
X7817801Y-18109484D01*
X7817801Y-18004722D02*
X7827324Y-17985674D01*
X7827324Y-17985674D02*
X7846372Y-17976150D01*
X7846372Y-17976150D02*
X7874943Y-17976150D01*
X7874943Y-17976150D02*
X7893991Y-17985674D01*
X7893991Y-17985674D02*
X7903515Y-18004722D01*
X7903515Y-18004722D02*
X7903515Y-18109484D01*
X8293991Y-17899960D02*
X8122563Y-18157103D01*
X8551134Y-17909484D02*
X8570182Y-17909484D01*
X8570182Y-17909484D02*
X8589229Y-17919008D01*
X8589229Y-17919008D02*
X8598753Y-17928531D01*
X8598753Y-17928531D02*
X8608277Y-17947579D01*
X8608277Y-17947579D02*
X8617801Y-17985674D01*
X8617801Y-17985674D02*
X8617801Y-18033293D01*
X8617801Y-18033293D02*
X8608277Y-18071389D01*
X8608277Y-18071389D02*
X8598753Y-18090436D01*
X8598753Y-18090436D02*
X8589229Y-18099960D01*
X8589229Y-18099960D02*
X8570182Y-18109484D01*
X8570182Y-18109484D02*
X8551134Y-18109484D01*
X8551134Y-18109484D02*
X8532087Y-18099960D01*
X8532087Y-18099960D02*
X8522563Y-18090436D01*
X8522563Y-18090436D02*
X8513039Y-18071389D01*
X8513039Y-18071389D02*
X8503515Y-18033293D01*
X8503515Y-18033293D02*
X8503515Y-17985674D01*
X8503515Y-17985674D02*
X8513039Y-17947579D01*
X8513039Y-17947579D02*
X8522563Y-17928531D01*
X8522563Y-17928531D02*
X8532087Y-17919008D01*
X8532087Y-17919008D02*
X8551134Y-17909484D01*
X8703515Y-18090436D02*
X8713039Y-18099960D01*
X8713039Y-18099960D02*
X8703515Y-18109484D01*
X8703515Y-18109484D02*
X8693991Y-18099960D01*
X8693991Y-18099960D02*
X8703515Y-18090436D01*
X8703515Y-18090436D02*
X8703515Y-18109484D01*
X8836848Y-17909484D02*
X8855896Y-17909484D01*
X8855896Y-17909484D02*
X8874944Y-17919008D01*
X8874944Y-17919008D02*
X8884468Y-17928531D01*
X8884468Y-17928531D02*
X8893991Y-17947579D01*
X8893991Y-17947579D02*
X8903515Y-17985674D01*
X8903515Y-17985674D02*
X8903515Y-18033293D01*
X8903515Y-18033293D02*
X8893991Y-18071389D01*
X8893991Y-18071389D02*
X8884468Y-18090436D01*
X8884468Y-18090436D02*
X8874944Y-18099960D01*
X8874944Y-18099960D02*
X8855896Y-18109484D01*
X8855896Y-18109484D02*
X8836848Y-18109484D01*
X8836848Y-18109484D02*
X8817801Y-18099960D01*
X8817801Y-18099960D02*
X8808277Y-18090436D01*
X8808277Y-18090436D02*
X8798753Y-18071389D01*
X8798753Y-18071389D02*
X8789229Y-18033293D01*
X8789229Y-18033293D02*
X8789229Y-17985674D01*
X8789229Y-17985674D02*
X8798753Y-17947579D01*
X8798753Y-17947579D02*
X8808277Y-17928531D01*
X8808277Y-17928531D02*
X8817801Y-17919008D01*
X8817801Y-17919008D02*
X8836848Y-17909484D01*
X8970182Y-17909484D02*
X9093991Y-17909484D01*
X9093991Y-17909484D02*
X9027325Y-17985674D01*
X9027325Y-17985674D02*
X9055896Y-17985674D01*
X9055896Y-17985674D02*
X9074944Y-17995198D01*
X9074944Y-17995198D02*
X9084468Y-18004722D01*
X9084468Y-18004722D02*
X9093991Y-18023770D01*
X9093991Y-18023770D02*
X9093991Y-18071389D01*
X9093991Y-18071389D02*
X9084468Y-18090436D01*
X9084468Y-18090436D02*
X9074944Y-18099960D01*
X9074944Y-18099960D02*
X9055896Y-18109484D01*
X9055896Y-18109484D02*
X8998753Y-18109484D01*
X8998753Y-18109484D02*
X8979706Y-18099960D01*
X8979706Y-18099960D02*
X8970182Y-18090436D01*
X9265420Y-17909484D02*
X9227325Y-17909484D01*
X9227325Y-17909484D02*
X9208277Y-17919008D01*
X9208277Y-17919008D02*
X9198753Y-17928531D01*
X9198753Y-17928531D02*
X9179706Y-17957103D01*
X9179706Y-17957103D02*
X9170182Y-17995198D01*
X9170182Y-17995198D02*
X9170182Y-18071389D01*
X9170182Y-18071389D02*
X9179706Y-18090436D01*
X9179706Y-18090436D02*
X9189229Y-18099960D01*
X9189229Y-18099960D02*
X9208277Y-18109484D01*
X9208277Y-18109484D02*
X9246372Y-18109484D01*
X9246372Y-18109484D02*
X9265420Y-18099960D01*
X9265420Y-18099960D02*
X9274944Y-18090436D01*
X9274944Y-18090436D02*
X9284468Y-18071389D01*
X9284468Y-18071389D02*
X9284468Y-18023770D01*
X9284468Y-18023770D02*
X9274944Y-18004722D01*
X9274944Y-18004722D02*
X9265420Y-17995198D01*
X9265420Y-17995198D02*
X9246372Y-17985674D01*
X9246372Y-17985674D02*
X9208277Y-17985674D01*
X9208277Y-17985674D02*
X9189229Y-17995198D01*
X9189229Y-17995198D02*
X9179706Y-18004722D01*
X9179706Y-18004722D02*
X9170182Y-18023770D01*
X9408277Y-17909484D02*
X9427325Y-17909484D01*
X9427325Y-17909484D02*
X9446372Y-17919008D01*
X9446372Y-17919008D02*
X9455896Y-17928531D01*
X9455896Y-17928531D02*
X9465420Y-17947579D01*
X9465420Y-17947579D02*
X9474944Y-17985674D01*
X9474944Y-17985674D02*
X9474944Y-18033293D01*
X9474944Y-18033293D02*
X9465420Y-18071389D01*
X9465420Y-18071389D02*
X9455896Y-18090436D01*
X9455896Y-18090436D02*
X9446372Y-18099960D01*
X9446372Y-18099960D02*
X9427325Y-18109484D01*
X9427325Y-18109484D02*
X9408277Y-18109484D01*
X9408277Y-18109484D02*
X9389229Y-18099960D01*
X9389229Y-18099960D02*
X9379706Y-18090436D01*
X9379706Y-18090436D02*
X9370182Y-18071389D01*
X9370182Y-18071389D02*
X9360658Y-18033293D01*
X9360658Y-18033293D02*
X9360658Y-17985674D01*
X9360658Y-17985674D02*
X9370182Y-17947579D01*
X9370182Y-17947579D02*
X9379706Y-17928531D01*
X9379706Y-17928531D02*
X9389229Y-17919008D01*
X9389229Y-17919008D02*
X9408277Y-17909484D01*
X9551134Y-17909484D02*
X9551134Y-17947579D01*
X9627325Y-17909484D02*
X9627325Y-17947579D01*
X9922563Y-18185674D02*
X9913039Y-18176150D01*
X9913039Y-18176150D02*
X9893991Y-18147579D01*
X9893991Y-18147579D02*
X9884468Y-18128531D01*
X9884468Y-18128531D02*
X9874944Y-18099960D01*
X9874944Y-18099960D02*
X9865420Y-18052341D01*
X9865420Y-18052341D02*
X9865420Y-18014246D01*
X9865420Y-18014246D02*
X9874944Y-17966627D01*
X9874944Y-17966627D02*
X9884468Y-17938055D01*
X9884468Y-17938055D02*
X9893991Y-17919008D01*
X9893991Y-17919008D02*
X9913039Y-17890436D01*
X9913039Y-17890436D02*
X9922563Y-17880912D01*
X10084468Y-17976150D02*
X10084468Y-18109484D01*
X10036849Y-17899960D02*
X9989230Y-18042817D01*
X9989230Y-18042817D02*
X10113039Y-18042817D01*
X10227325Y-17909484D02*
X10246372Y-17909484D01*
X10246372Y-17909484D02*
X10265420Y-17919008D01*
X10265420Y-17919008D02*
X10274944Y-17928531D01*
X10274944Y-17928531D02*
X10284468Y-17947579D01*
X10284468Y-17947579D02*
X10293991Y-17985674D01*
X10293991Y-17985674D02*
X10293991Y-18033293D01*
X10293991Y-18033293D02*
X10284468Y-18071389D01*
X10284468Y-18071389D02*
X10274944Y-18090436D01*
X10274944Y-18090436D02*
X10265420Y-18099960D01*
X10265420Y-18099960D02*
X10246372Y-18109484D01*
X10246372Y-18109484D02*
X10227325Y-18109484D01*
X10227325Y-18109484D02*
X10208277Y-18099960D01*
X10208277Y-18099960D02*
X10198753Y-18090436D01*
X10198753Y-18090436D02*
X10189230Y-18071389D01*
X10189230Y-18071389D02*
X10179706Y-18033293D01*
X10179706Y-18033293D02*
X10179706Y-17985674D01*
X10179706Y-17985674D02*
X10189230Y-17947579D01*
X10189230Y-17947579D02*
X10198753Y-17928531D01*
X10198753Y-17928531D02*
X10208277Y-17919008D01*
X10208277Y-17919008D02*
X10227325Y-17909484D01*
X10532087Y-18109484D02*
X10532087Y-17909484D01*
X10617801Y-18109484D02*
X10617801Y-18004722D01*
X10617801Y-18004722D02*
X10608277Y-17985674D01*
X10608277Y-17985674D02*
X10589230Y-17976150D01*
X10589230Y-17976150D02*
X10560658Y-17976150D01*
X10560658Y-17976150D02*
X10541611Y-17985674D01*
X10541611Y-17985674D02*
X10532087Y-17995198D01*
X10741611Y-18109484D02*
X10722563Y-18099960D01*
X10722563Y-18099960D02*
X10713039Y-18090436D01*
X10713039Y-18090436D02*
X10703515Y-18071389D01*
X10703515Y-18071389D02*
X10703515Y-18014246D01*
X10703515Y-18014246D02*
X10713039Y-17995198D01*
X10713039Y-17995198D02*
X10722563Y-17985674D01*
X10722563Y-17985674D02*
X10741611Y-17976150D01*
X10741611Y-17976150D02*
X10770182Y-17976150D01*
X10770182Y-17976150D02*
X10789230Y-17985674D01*
X10789230Y-17985674D02*
X10798753Y-17995198D01*
X10798753Y-17995198D02*
X10808277Y-18014246D01*
X10808277Y-18014246D02*
X10808277Y-18071389D01*
X10808277Y-18071389D02*
X10798753Y-18090436D01*
X10798753Y-18090436D02*
X10789230Y-18099960D01*
X10789230Y-18099960D02*
X10770182Y-18109484D01*
X10770182Y-18109484D02*
X10741611Y-18109484D01*
X10922563Y-18109484D02*
X10903515Y-18099960D01*
X10903515Y-18099960D02*
X10893992Y-18080912D01*
X10893992Y-18080912D02*
X10893992Y-17909484D01*
X11074944Y-18099960D02*
X11055896Y-18109484D01*
X11055896Y-18109484D02*
X11017801Y-18109484D01*
X11017801Y-18109484D02*
X10998753Y-18099960D01*
X10998753Y-18099960D02*
X10989230Y-18080912D01*
X10989230Y-18080912D02*
X10989230Y-18004722D01*
X10989230Y-18004722D02*
X10998753Y-17985674D01*
X10998753Y-17985674D02*
X11017801Y-17976150D01*
X11017801Y-17976150D02*
X11055896Y-17976150D01*
X11055896Y-17976150D02*
X11074944Y-17985674D01*
X11074944Y-17985674D02*
X11084468Y-18004722D01*
X11084468Y-18004722D02*
X11084468Y-18023770D01*
X11084468Y-18023770D02*
X10989230Y-18042817D01*
X11160658Y-18099960D02*
X11179706Y-18109484D01*
X11179706Y-18109484D02*
X11217801Y-18109484D01*
X11217801Y-18109484D02*
X11236849Y-18099960D01*
X11236849Y-18099960D02*
X11246372Y-18080912D01*
X11246372Y-18080912D02*
X11246372Y-18071389D01*
X11246372Y-18071389D02*
X11236849Y-18052341D01*
X11236849Y-18052341D02*
X11217801Y-18042817D01*
X11217801Y-18042817D02*
X11189230Y-18042817D01*
X11189230Y-18042817D02*
X11170182Y-18033293D01*
X11170182Y-18033293D02*
X11160658Y-18014246D01*
X11160658Y-18014246D02*
X11160658Y-18004722D01*
X11160658Y-18004722D02*
X11170182Y-17985674D01*
X11170182Y-17985674D02*
X11189230Y-17976150D01*
X11189230Y-17976150D02*
X11217801Y-17976150D01*
X11217801Y-17976150D02*
X11236849Y-17985674D01*
X11313039Y-18185674D02*
X11322563Y-18176150D01*
X11322563Y-18176150D02*
X11341611Y-18147579D01*
X11341611Y-18147579D02*
X11351134Y-18128531D01*
X11351134Y-18128531D02*
X11360658Y-18099960D01*
X11360658Y-18099960D02*
X11370182Y-18052341D01*
X11370182Y-18052341D02*
X11370182Y-18014246D01*
X11370182Y-18014246D02*
X11360658Y-17966627D01*
X11360658Y-17966627D02*
X11351134Y-17938055D01*
X11351134Y-17938055D02*
X11341611Y-17919008D01*
X11341611Y-17919008D02*
X11322563Y-17890436D01*
X11322563Y-17890436D02*
X11313039Y-17880912D01*
D12*
X6247500Y-18232000D02*
X6347500Y-18332000D01*
X6347500Y-18232000D02*
X6247500Y-18332000D01*
X6347500Y-18282000D02*
G75*
G02*
X6247500Y-18282000I-50000J0D01*
G01*
X6247500Y-18282000D02*
G75*
G02*
X6347500Y-18282000I50000J0D01*
G01*
D11*
X6713039Y-18373484D02*
X6598753Y-18373484D01*
X6655896Y-18373484D02*
X6655896Y-18173484D01*
X6655896Y-18173484D02*
X6636848Y-18202055D01*
X6636848Y-18202055D02*
X6617801Y-18221103D01*
X6617801Y-18221103D02*
X6598753Y-18230627D01*
X6798753Y-18354436D02*
X6808277Y-18363960D01*
X6808277Y-18363960D02*
X6798753Y-18373484D01*
X6798753Y-18373484D02*
X6789229Y-18363960D01*
X6789229Y-18363960D02*
X6798753Y-18354436D01*
X6798753Y-18354436D02*
X6798753Y-18373484D01*
X6932086Y-18173484D02*
X6951134Y-18173484D01*
X6951134Y-18173484D02*
X6970182Y-18183008D01*
X6970182Y-18183008D02*
X6979705Y-18192531D01*
X6979705Y-18192531D02*
X6989229Y-18211579D01*
X6989229Y-18211579D02*
X6998753Y-18249674D01*
X6998753Y-18249674D02*
X6998753Y-18297293D01*
X6998753Y-18297293D02*
X6989229Y-18335389D01*
X6989229Y-18335389D02*
X6979705Y-18354436D01*
X6979705Y-18354436D02*
X6970182Y-18363960D01*
X6970182Y-18363960D02*
X6951134Y-18373484D01*
X6951134Y-18373484D02*
X6932086Y-18373484D01*
X6932086Y-18373484D02*
X6913039Y-18363960D01*
X6913039Y-18363960D02*
X6903515Y-18354436D01*
X6903515Y-18354436D02*
X6893991Y-18335389D01*
X6893991Y-18335389D02*
X6884467Y-18297293D01*
X6884467Y-18297293D02*
X6884467Y-18249674D01*
X6884467Y-18249674D02*
X6893991Y-18211579D01*
X6893991Y-18211579D02*
X6903515Y-18192531D01*
X6903515Y-18192531D02*
X6913039Y-18183008D01*
X6913039Y-18183008D02*
X6932086Y-18173484D01*
X7122562Y-18173484D02*
X7141610Y-18173484D01*
X7141610Y-18173484D02*
X7160658Y-18183008D01*
X7160658Y-18183008D02*
X7170182Y-18192531D01*
X7170182Y-18192531D02*
X7179705Y-18211579D01*
X7179705Y-18211579D02*
X7189229Y-18249674D01*
X7189229Y-18249674D02*
X7189229Y-18297293D01*
X7189229Y-18297293D02*
X7179705Y-18335389D01*
X7179705Y-18335389D02*
X7170182Y-18354436D01*
X7170182Y-18354436D02*
X7160658Y-18363960D01*
X7160658Y-18363960D02*
X7141610Y-18373484D01*
X7141610Y-18373484D02*
X7122562Y-18373484D01*
X7122562Y-18373484D02*
X7103515Y-18363960D01*
X7103515Y-18363960D02*
X7093991Y-18354436D01*
X7093991Y-18354436D02*
X7084467Y-18335389D01*
X7084467Y-18335389D02*
X7074943Y-18297293D01*
X7074943Y-18297293D02*
X7074943Y-18249674D01*
X7074943Y-18249674D02*
X7084467Y-18211579D01*
X7084467Y-18211579D02*
X7093991Y-18192531D01*
X7093991Y-18192531D02*
X7103515Y-18183008D01*
X7103515Y-18183008D02*
X7122562Y-18173484D01*
X7313039Y-18173484D02*
X7332086Y-18173484D01*
X7332086Y-18173484D02*
X7351134Y-18183008D01*
X7351134Y-18183008D02*
X7360658Y-18192531D01*
X7360658Y-18192531D02*
X7370182Y-18211579D01*
X7370182Y-18211579D02*
X7379705Y-18249674D01*
X7379705Y-18249674D02*
X7379705Y-18297293D01*
X7379705Y-18297293D02*
X7370182Y-18335389D01*
X7370182Y-18335389D02*
X7360658Y-18354436D01*
X7360658Y-18354436D02*
X7351134Y-18363960D01*
X7351134Y-18363960D02*
X7332086Y-18373484D01*
X7332086Y-18373484D02*
X7313039Y-18373484D01*
X7313039Y-18373484D02*
X7293991Y-18363960D01*
X7293991Y-18363960D02*
X7284467Y-18354436D01*
X7284467Y-18354436D02*
X7274943Y-18335389D01*
X7274943Y-18335389D02*
X7265420Y-18297293D01*
X7265420Y-18297293D02*
X7265420Y-18249674D01*
X7265420Y-18249674D02*
X7274943Y-18211579D01*
X7274943Y-18211579D02*
X7284467Y-18192531D01*
X7284467Y-18192531D02*
X7293991Y-18183008D01*
X7293991Y-18183008D02*
X7313039Y-18173484D01*
X7465420Y-18373484D02*
X7465420Y-18240150D01*
X7465420Y-18259198D02*
X7474943Y-18249674D01*
X7474943Y-18249674D02*
X7493991Y-18240150D01*
X7493991Y-18240150D02*
X7522563Y-18240150D01*
X7522563Y-18240150D02*
X7541610Y-18249674D01*
X7541610Y-18249674D02*
X7551134Y-18268722D01*
X7551134Y-18268722D02*
X7551134Y-18373484D01*
X7551134Y-18268722D02*
X7560658Y-18249674D01*
X7560658Y-18249674D02*
X7579705Y-18240150D01*
X7579705Y-18240150D02*
X7608277Y-18240150D01*
X7608277Y-18240150D02*
X7627324Y-18249674D01*
X7627324Y-18249674D02*
X7636848Y-18268722D01*
X7636848Y-18268722D02*
X7636848Y-18373484D01*
X7732086Y-18373484D02*
X7732086Y-18240150D01*
X7732086Y-18259198D02*
X7741610Y-18249674D01*
X7741610Y-18249674D02*
X7760658Y-18240150D01*
X7760658Y-18240150D02*
X7789229Y-18240150D01*
X7789229Y-18240150D02*
X7808277Y-18249674D01*
X7808277Y-18249674D02*
X7817801Y-18268722D01*
X7817801Y-18268722D02*
X7817801Y-18373484D01*
X7817801Y-18268722D02*
X7827324Y-18249674D01*
X7827324Y-18249674D02*
X7846372Y-18240150D01*
X7846372Y-18240150D02*
X7874943Y-18240150D01*
X7874943Y-18240150D02*
X7893991Y-18249674D01*
X7893991Y-18249674D02*
X7903515Y-18268722D01*
X7903515Y-18268722D02*
X7903515Y-18373484D01*
X8293991Y-18163960D02*
X8122563Y-18421103D01*
X8551134Y-18173484D02*
X8570182Y-18173484D01*
X8570182Y-18173484D02*
X8589229Y-18183008D01*
X8589229Y-18183008D02*
X8598753Y-18192531D01*
X8598753Y-18192531D02*
X8608277Y-18211579D01*
X8608277Y-18211579D02*
X8617801Y-18249674D01*
X8617801Y-18249674D02*
X8617801Y-18297293D01*
X8617801Y-18297293D02*
X8608277Y-18335389D01*
X8608277Y-18335389D02*
X8598753Y-18354436D01*
X8598753Y-18354436D02*
X8589229Y-18363960D01*
X8589229Y-18363960D02*
X8570182Y-18373484D01*
X8570182Y-18373484D02*
X8551134Y-18373484D01*
X8551134Y-18373484D02*
X8532087Y-18363960D01*
X8532087Y-18363960D02*
X8522563Y-18354436D01*
X8522563Y-18354436D02*
X8513039Y-18335389D01*
X8513039Y-18335389D02*
X8503515Y-18297293D01*
X8503515Y-18297293D02*
X8503515Y-18249674D01*
X8503515Y-18249674D02*
X8513039Y-18211579D01*
X8513039Y-18211579D02*
X8522563Y-18192531D01*
X8522563Y-18192531D02*
X8532087Y-18183008D01*
X8532087Y-18183008D02*
X8551134Y-18173484D01*
X8703515Y-18354436D02*
X8713039Y-18363960D01*
X8713039Y-18363960D02*
X8703515Y-18373484D01*
X8703515Y-18373484D02*
X8693991Y-18363960D01*
X8693991Y-18363960D02*
X8703515Y-18354436D01*
X8703515Y-18354436D02*
X8703515Y-18373484D01*
X8836848Y-18173484D02*
X8855896Y-18173484D01*
X8855896Y-18173484D02*
X8874944Y-18183008D01*
X8874944Y-18183008D02*
X8884468Y-18192531D01*
X8884468Y-18192531D02*
X8893991Y-18211579D01*
X8893991Y-18211579D02*
X8903515Y-18249674D01*
X8903515Y-18249674D02*
X8903515Y-18297293D01*
X8903515Y-18297293D02*
X8893991Y-18335389D01*
X8893991Y-18335389D02*
X8884468Y-18354436D01*
X8884468Y-18354436D02*
X8874944Y-18363960D01*
X8874944Y-18363960D02*
X8855896Y-18373484D01*
X8855896Y-18373484D02*
X8836848Y-18373484D01*
X8836848Y-18373484D02*
X8817801Y-18363960D01*
X8817801Y-18363960D02*
X8808277Y-18354436D01*
X8808277Y-18354436D02*
X8798753Y-18335389D01*
X8798753Y-18335389D02*
X8789229Y-18297293D01*
X8789229Y-18297293D02*
X8789229Y-18249674D01*
X8789229Y-18249674D02*
X8798753Y-18211579D01*
X8798753Y-18211579D02*
X8808277Y-18192531D01*
X8808277Y-18192531D02*
X8817801Y-18183008D01*
X8817801Y-18183008D02*
X8836848Y-18173484D01*
X8970182Y-18173484D02*
X9093991Y-18173484D01*
X9093991Y-18173484D02*
X9027325Y-18249674D01*
X9027325Y-18249674D02*
X9055896Y-18249674D01*
X9055896Y-18249674D02*
X9074944Y-18259198D01*
X9074944Y-18259198D02*
X9084468Y-18268722D01*
X9084468Y-18268722D02*
X9093991Y-18287770D01*
X9093991Y-18287770D02*
X9093991Y-18335389D01*
X9093991Y-18335389D02*
X9084468Y-18354436D01*
X9084468Y-18354436D02*
X9074944Y-18363960D01*
X9074944Y-18363960D02*
X9055896Y-18373484D01*
X9055896Y-18373484D02*
X8998753Y-18373484D01*
X8998753Y-18373484D02*
X8979706Y-18363960D01*
X8979706Y-18363960D02*
X8970182Y-18354436D01*
X9189229Y-18373484D02*
X9227325Y-18373484D01*
X9227325Y-18373484D02*
X9246372Y-18363960D01*
X9246372Y-18363960D02*
X9255896Y-18354436D01*
X9255896Y-18354436D02*
X9274944Y-18325865D01*
X9274944Y-18325865D02*
X9284468Y-18287770D01*
X9284468Y-18287770D02*
X9284468Y-18211579D01*
X9284468Y-18211579D02*
X9274944Y-18192531D01*
X9274944Y-18192531D02*
X9265420Y-18183008D01*
X9265420Y-18183008D02*
X9246372Y-18173484D01*
X9246372Y-18173484D02*
X9208277Y-18173484D01*
X9208277Y-18173484D02*
X9189229Y-18183008D01*
X9189229Y-18183008D02*
X9179706Y-18192531D01*
X9179706Y-18192531D02*
X9170182Y-18211579D01*
X9170182Y-18211579D02*
X9170182Y-18259198D01*
X9170182Y-18259198D02*
X9179706Y-18278246D01*
X9179706Y-18278246D02*
X9189229Y-18287770D01*
X9189229Y-18287770D02*
X9208277Y-18297293D01*
X9208277Y-18297293D02*
X9246372Y-18297293D01*
X9246372Y-18297293D02*
X9265420Y-18287770D01*
X9265420Y-18287770D02*
X9274944Y-18278246D01*
X9274944Y-18278246D02*
X9284468Y-18259198D01*
X9455896Y-18240150D02*
X9455896Y-18373484D01*
X9408277Y-18163960D02*
X9360658Y-18306817D01*
X9360658Y-18306817D02*
X9484468Y-18306817D01*
X9551134Y-18173484D02*
X9551134Y-18211579D01*
X9627325Y-18173484D02*
X9627325Y-18211579D01*
X9922563Y-18449674D02*
X9913039Y-18440150D01*
X9913039Y-18440150D02*
X9893991Y-18411579D01*
X9893991Y-18411579D02*
X9884468Y-18392531D01*
X9884468Y-18392531D02*
X9874944Y-18363960D01*
X9874944Y-18363960D02*
X9865420Y-18316341D01*
X9865420Y-18316341D02*
X9865420Y-18278246D01*
X9865420Y-18278246D02*
X9874944Y-18230627D01*
X9874944Y-18230627D02*
X9884468Y-18202055D01*
X9884468Y-18202055D02*
X9893991Y-18183008D01*
X9893991Y-18183008D02*
X9913039Y-18154436D01*
X9913039Y-18154436D02*
X9922563Y-18144912D01*
X9979706Y-18173484D02*
X10113039Y-18173484D01*
X10113039Y-18173484D02*
X10027325Y-18373484D01*
X10274944Y-18173484D02*
X10236849Y-18173484D01*
X10236849Y-18173484D02*
X10217801Y-18183008D01*
X10217801Y-18183008D02*
X10208277Y-18192531D01*
X10208277Y-18192531D02*
X10189230Y-18221103D01*
X10189230Y-18221103D02*
X10179706Y-18259198D01*
X10179706Y-18259198D02*
X10179706Y-18335389D01*
X10179706Y-18335389D02*
X10189230Y-18354436D01*
X10189230Y-18354436D02*
X10198753Y-18363960D01*
X10198753Y-18363960D02*
X10217801Y-18373484D01*
X10217801Y-18373484D02*
X10255896Y-18373484D01*
X10255896Y-18373484D02*
X10274944Y-18363960D01*
X10274944Y-18363960D02*
X10284468Y-18354436D01*
X10284468Y-18354436D02*
X10293991Y-18335389D01*
X10293991Y-18335389D02*
X10293991Y-18287770D01*
X10293991Y-18287770D02*
X10284468Y-18268722D01*
X10284468Y-18268722D02*
X10274944Y-18259198D01*
X10274944Y-18259198D02*
X10255896Y-18249674D01*
X10255896Y-18249674D02*
X10217801Y-18249674D01*
X10217801Y-18249674D02*
X10198753Y-18259198D01*
X10198753Y-18259198D02*
X10189230Y-18268722D01*
X10189230Y-18268722D02*
X10179706Y-18287770D01*
X10532087Y-18373484D02*
X10532087Y-18173484D01*
X10617801Y-18373484D02*
X10617801Y-18268722D01*
X10617801Y-18268722D02*
X10608277Y-18249674D01*
X10608277Y-18249674D02*
X10589230Y-18240150D01*
X10589230Y-18240150D02*
X10560658Y-18240150D01*
X10560658Y-18240150D02*
X10541611Y-18249674D01*
X10541611Y-18249674D02*
X10532087Y-18259198D01*
X10741611Y-18373484D02*
X10722563Y-18363960D01*
X10722563Y-18363960D02*
X10713039Y-18354436D01*
X10713039Y-18354436D02*
X10703515Y-18335389D01*
X10703515Y-18335389D02*
X10703515Y-18278246D01*
X10703515Y-18278246D02*
X10713039Y-18259198D01*
X10713039Y-18259198D02*
X10722563Y-18249674D01*
X10722563Y-18249674D02*
X10741611Y-18240150D01*
X10741611Y-18240150D02*
X10770182Y-18240150D01*
X10770182Y-18240150D02*
X10789230Y-18249674D01*
X10789230Y-18249674D02*
X10798753Y-18259198D01*
X10798753Y-18259198D02*
X10808277Y-18278246D01*
X10808277Y-18278246D02*
X10808277Y-18335389D01*
X10808277Y-18335389D02*
X10798753Y-18354436D01*
X10798753Y-18354436D02*
X10789230Y-18363960D01*
X10789230Y-18363960D02*
X10770182Y-18373484D01*
X10770182Y-18373484D02*
X10741611Y-18373484D01*
X10922563Y-18373484D02*
X10903515Y-18363960D01*
X10903515Y-18363960D02*
X10893992Y-18344912D01*
X10893992Y-18344912D02*
X10893992Y-18173484D01*
X11074944Y-18363960D02*
X11055896Y-18373484D01*
X11055896Y-18373484D02*
X11017801Y-18373484D01*
X11017801Y-18373484D02*
X10998753Y-18363960D01*
X10998753Y-18363960D02*
X10989230Y-18344912D01*
X10989230Y-18344912D02*
X10989230Y-18268722D01*
X10989230Y-18268722D02*
X10998753Y-18249674D01*
X10998753Y-18249674D02*
X11017801Y-18240150D01*
X11017801Y-18240150D02*
X11055896Y-18240150D01*
X11055896Y-18240150D02*
X11074944Y-18249674D01*
X11074944Y-18249674D02*
X11084468Y-18268722D01*
X11084468Y-18268722D02*
X11084468Y-18287770D01*
X11084468Y-18287770D02*
X10989230Y-18306817D01*
X11160658Y-18363960D02*
X11179706Y-18373484D01*
X11179706Y-18373484D02*
X11217801Y-18373484D01*
X11217801Y-18373484D02*
X11236849Y-18363960D01*
X11236849Y-18363960D02*
X11246372Y-18344912D01*
X11246372Y-18344912D02*
X11246372Y-18335389D01*
X11246372Y-18335389D02*
X11236849Y-18316341D01*
X11236849Y-18316341D02*
X11217801Y-18306817D01*
X11217801Y-18306817D02*
X11189230Y-18306817D01*
X11189230Y-18306817D02*
X11170182Y-18297293D01*
X11170182Y-18297293D02*
X11160658Y-18278246D01*
X11160658Y-18278246D02*
X11160658Y-18268722D01*
X11160658Y-18268722D02*
X11170182Y-18249674D01*
X11170182Y-18249674D02*
X11189230Y-18240150D01*
X11189230Y-18240150D02*
X11217801Y-18240150D01*
X11217801Y-18240150D02*
X11236849Y-18249674D01*
X11313039Y-18449674D02*
X11322563Y-18440150D01*
X11322563Y-18440150D02*
X11341611Y-18411579D01*
X11341611Y-18411579D02*
X11351134Y-18392531D01*
X11351134Y-18392531D02*
X11360658Y-18363960D01*
X11360658Y-18363960D02*
X11370182Y-18316341D01*
X11370182Y-18316341D02*
X11370182Y-18278246D01*
X11370182Y-18278246D02*
X11360658Y-18230627D01*
X11360658Y-18230627D02*
X11351134Y-18202055D01*
X11351134Y-18202055D02*
X11341611Y-18183008D01*
X11341611Y-18183008D02*
X11322563Y-18154436D01*
X11322563Y-18154436D02*
X11313039Y-18144912D01*
M02*
