M48
; DRILL file {KiCad 9.0.2+dfsg-1} date 2026-09-04T21:04:26+0200
; FORMAT={-:-/ absolute / metric / decimal}
; #@! TF.CreationDate,2026-09-04T21:04:26+02:00
; #@! TF.GenerationSoftware,Kicad,Pcbnew,9.0.2+dfsg-1
; #@! TF.FileFunction,Plated,1,2,PTH
FMAT,2
METRIC
; #@! TA.AperFunction,Plated,PTH,ViaDrill
T1C0.300
; #@! TA.AperFunction,Plated,PTH,ComponentDrill
T2C0.700
; #@! TA.AperFunction,Plated,PTH,ComponentDrill
T3C0.800
; #@! TA.AperFunction,Plated,PTH,ComponentDrill
T4C1.000
%
G90
G05
T1
X70.0Y-65.0
X70.0Y-151.0
X87.63Y-91.44
X89.535Y-111.76
X90.805Y-88.9
X92.075Y-109.22
X93.439Y-86.36
X94.615Y-106.68
X95.885Y-83.82
X97.155Y-104.14
X98.425Y-80.01
X99.695Y-101.6
X100.965Y-81.915
X102.235Y-99.06
X103.505Y-84.455
X104.775Y-96.52
X106.045Y-87.005
X107.315Y-93.98
X108.585Y-89.535
X109.855Y-114.3
X111.125Y-92.075
X113.665Y-94.625
X114.935Y-117.475
X116.205Y-97.165
X117.475Y-120.65
X118.745Y-99.705
X120.015Y-115.57
X121.285Y-102.245
X122.555Y-128.27
X123.825Y-104.775
X126.365Y-107.315
X145.0Y-137.0
X151.0Y-151.0
X156.0Y-65.0
X156.0Y-151.0
T2
X132.665Y-123.19
X132.715Y-118.11
X132.715Y-128.27
X135.205Y-123.19
X135.255Y-118.11
X135.255Y-128.27
X156.845Y-115.57
X156.845Y-120.65
X156.845Y-125.73
X159.385Y-115.57
X159.385Y-120.65
X159.385Y-125.73
T3
X132.715Y-146.685
X137.715Y-146.685
X138.43Y-80.01
X138.43Y-82.55
X138.43Y-85.09
X138.43Y-87.63
X138.43Y-90.17
X138.43Y-92.71
X138.43Y-95.25
X138.43Y-97.79
X138.43Y-100.33
X138.43Y-102.87
X138.43Y-105.41
X138.43Y-107.95
X138.43Y-110.49
X138.43Y-113.03
X138.43Y-115.57
X138.43Y-118.11
X138.43Y-120.65
X138.43Y-123.19
X138.43Y-125.73
X138.43Y-128.27
X153.67Y-80.01
X153.67Y-82.55
X153.67Y-85.09
X153.67Y-87.63
X153.67Y-90.17
X153.67Y-92.71
X153.67Y-95.25
X153.67Y-97.79
X153.67Y-100.33
X153.67Y-102.87
X153.67Y-105.41
X153.67Y-107.95
X153.67Y-110.49
X153.67Y-113.03
X153.67Y-115.57
X153.67Y-118.11
X153.67Y-120.65
X153.67Y-123.19
X153.67Y-125.73
X153.67Y-128.27
X156.845Y-110.49
X161.845Y-110.49
T4
X89.535Y-151.22
X89.535Y-153.76
X92.075Y-151.22
X92.075Y-153.76
X94.615Y-151.22
X94.615Y-153.76
X97.155Y-151.22
X97.155Y-153.76
X99.695Y-151.22
X99.695Y-153.76
X102.235Y-151.22
X102.235Y-153.76
X104.775Y-151.22
X104.775Y-153.76
X107.315Y-151.22
X107.315Y-153.76
X109.855Y-151.22
X109.855Y-153.76
X112.395Y-151.22
X112.395Y-153.76
X114.935Y-151.22
X114.935Y-153.76
X117.475Y-151.22
X117.475Y-153.76
X120.015Y-151.22
X120.015Y-153.76
X122.555Y-151.22
X122.555Y-153.76
X125.095Y-151.22
X125.095Y-153.76
X127.635Y-151.22
X127.635Y-153.76
X130.175Y-151.22
X130.175Y-153.76
X132.715Y-151.22
X132.715Y-153.76
X135.255Y-151.22
X135.255Y-153.76
X137.795Y-151.22
X137.795Y-153.76
M30
