%TF.GenerationSoftware,KiCad,Pcbnew,9.0.2+dfsg-1*%
%TF.CreationDate,2026-09-05T20:41:33+02:00*%
%TF.ProjectId,cpu-card,6370752d-6361-4726-942e-6b696361645f,rev?*%
%TF.SameCoordinates,Original*%
%TF.FileFunction,Copper,L1,Top*%
%TF.FilePolarity,Positive*%
%FSLAX46Y46*%
G04 Gerber Fmt 4.6, Leading zero omitted, Abs format (unit mm)*
G04 Created by KiCad (PCBNEW 9.0.2+dfsg-1) date 2026-09-05 20:41:33*
%MOMM*%
%LPD*%
G01*
G04 APERTURE LIST*
G04 Aperture macros list*
%AMRoundRect*
0 Rectangle with rounded corners*
0 $1 Rounding radius*
0 $2 $3 $4 $5 $6 $7 $8 $9 X,Y pos of 4 corners*
0 Add a 4 corners polygon primitive as box body*
4,1,4,$2,$3,$4,$5,$6,$7,$8,$9,$2,$3,0*
0 Add four circle primitives for the rounded corners*
1,1,$1+$1,$2,$3*
1,1,$1+$1,$4,$5*
1,1,$1+$1,$6,$7*
1,1,$1+$1,$8,$9*
0 Add four rect primitives between the rounded corners*
20,1,$1+$1,$2,$3,$4,$5,0*
20,1,$1+$1,$4,$5,$6,$7,0*
20,1,$1+$1,$6,$7,$8,$9,0*
20,1,$1+$1,$8,$9,$2,$3,0*%
G04 Aperture macros list end*
%TA.AperFunction,ComponentPad*%
%ADD10RoundRect,0.250000X0.550000X0.550000X-0.550000X0.550000X-0.550000X-0.550000X0.550000X-0.550000X0*%
%TD*%
%TA.AperFunction,ComponentPad*%
%ADD11C,1.600000*%
%TD*%
%TA.AperFunction,ComponentPad*%
%ADD12C,1.400000*%
%TD*%
%TA.AperFunction,ComponentPad*%
%ADD13C,1.700000*%
%TD*%
%TA.AperFunction,ComponentPad*%
%ADD14R,1.700000X1.700000*%
%TD*%
%TA.AperFunction,ViaPad*%
%ADD15C,0.600000*%
%TD*%
%TA.AperFunction,Conductor*%
%ADD16C,0.250000*%
%TD*%
%TA.AperFunction,Conductor*%
%ADD17C,0.500000*%
%TD*%
%ADD18C,0.300000*%
%ADD19C,0.350000*%
G04 APERTURE END LIST*
D10*
%TO.P,U1,1,~{VP}*%
%TO.N,VP{slash}*%
X153670000Y-128270000D03*
D11*
%TO.P,U1,2,RDY*%
%TO.N,Net-(U1-RDY)*%
X153670000Y-125730000D03*
%TO.P,U1,3,\u03D51*%
%TO.N,unconnected-(U1-\u03D51-Pad3)*%
X153670000Y-123190000D03*
%TO.P,U1,4,~{IRQ}*%
%TO.N,IRQ{slash}*%
X153670000Y-120650000D03*
%TO.P,U1,5,~{ML}*%
%TO.N,unconnected-(U1-~{ML}-Pad5)*%
X153670000Y-118110000D03*
%TO.P,U1,6,~{NMI}*%
%TO.N,NMI{slash}*%
X153670000Y-115570000D03*
%TO.P,U1,7,SYNC*%
%TO.N,SYNC*%
X153670000Y-113030000D03*
%TO.P,U1,8,VDD*%
%TO.N,+5V*%
X153670000Y-110490000D03*
%TO.P,U1,9,A0*%
%TO.N,/A0*%
X153670000Y-107950000D03*
%TO.P,U1,10,A1*%
%TO.N,/A1*%
X153670000Y-105410000D03*
%TO.P,U1,11,A2*%
%TO.N,/A2*%
X153670000Y-102870000D03*
%TO.P,U1,12,A3*%
%TO.N,/A3*%
X153670000Y-100330000D03*
%TO.P,U1,13,A4*%
%TO.N,/A4*%
X153670000Y-97790000D03*
%TO.P,U1,14,A5*%
%TO.N,/A5*%
X153670000Y-95250000D03*
%TO.P,U1,15,A6*%
%TO.N,/A6*%
X153670000Y-92710000D03*
%TO.P,U1,16,A7*%
%TO.N,/A7*%
X153670000Y-90170000D03*
%TO.P,U1,17,A8*%
%TO.N,/A8*%
X153670000Y-87630000D03*
%TO.P,U1,18,A9*%
%TO.N,/A9*%
X153670000Y-85090000D03*
%TO.P,U1,19,A10*%
%TO.N,/A10*%
X153670000Y-82550000D03*
%TO.P,U1,20,A11*%
%TO.N,/A11*%
X153670000Y-80010000D03*
%TO.P,U1,21,VSS*%
%TO.N,GND*%
X138430000Y-80010000D03*
%TO.P,U1,22,A12*%
%TO.N,/A12*%
X138430000Y-82550000D03*
%TO.P,U1,23,A13*%
%TO.N,/A13*%
X138430000Y-85090000D03*
%TO.P,U1,24,A14*%
%TO.N,/A14*%
X138430000Y-87630000D03*
%TO.P,U1,25,A15*%
%TO.N,/A15*%
X138430000Y-90170000D03*
%TO.P,U1,26,D7*%
%TO.N,/D7*%
X138430000Y-92710000D03*
%TO.P,U1,27,D6*%
%TO.N,/D6*%
X138430000Y-95250000D03*
%TO.P,U1,28,D5*%
%TO.N,/D5*%
X138430000Y-97790000D03*
%TO.P,U1,29,D4*%
%TO.N,/D4*%
X138430000Y-100330000D03*
%TO.P,U1,30,D3*%
%TO.N,/D3*%
X138430000Y-102870000D03*
%TO.P,U1,31,D2*%
%TO.N,/D2*%
X138430000Y-105410000D03*
%TO.P,U1,32,D1*%
%TO.N,/D1*%
X138430000Y-107950000D03*
%TO.P,U1,33,D0*%
%TO.N,/D0*%
X138430000Y-110490000D03*
%TO.P,U1,34,R/~{W}*%
%TO.N,RW{slash}*%
X138430000Y-113030000D03*
%TO.P,U1,35,nc*%
%TO.N,unconnected-(U1-nc-Pad35)*%
X138430000Y-115570000D03*
%TO.P,U1,36,BE*%
%TO.N,BE*%
X138430000Y-118110000D03*
%TO.P,U1,37,\u03D50*%
%TO.N,CLK*%
X138430000Y-120650000D03*
%TO.P,U1,38,~{SO}*%
%TO.N,Net-(U1-~{SO})*%
X138430000Y-123190000D03*
%TO.P,U1,39,\u03D52*%
%TO.N,unconnected-(U1-\u03D52-Pad39)*%
X138430000Y-125730000D03*
%TO.P,U1,40,~{RES}*%
%TO.N,RES{slash}*%
X138430000Y-128270000D03*
%TD*%
D12*
%TO.P,R7,1*%
%TO.N,Net-(U1-~{SO})*%
X135205000Y-123190000D03*
%TO.P,R7,2*%
%TO.N,+5V*%
X132665000Y-123190000D03*
%TD*%
%TO.P,R8,1*%
%TO.N,RES{slash}*%
X135255000Y-128270000D03*
%TO.P,R8,2*%
%TO.N,+5V*%
X132715000Y-128270000D03*
%TD*%
D11*
%TO.P,C2,1*%
%TO.N,GND*%
X137715000Y-146685000D03*
%TO.P,C2,2*%
%TO.N,+5V*%
X132715000Y-146685000D03*
%TD*%
D13*
%TO.P,J1,1,Vss*%
%TO.N,GND*%
X137795000Y-153760000D03*
%TO.P,J1,2,SYNC*%
%TO.N,SYNC*%
X135255000Y-153760000D03*
%TO.P,J1,3,VP/*%
%TO.N,VP{slash}*%
X132715000Y-153760000D03*
%TO.P,J1,4,+5V*%
%TO.N,+5V*%
X130175000Y-153760000D03*
%TO.P,J1,5,A0*%
%TO.N,/A0*%
X127635000Y-153760000D03*
%TO.P,J1,6,A1*%
%TO.N,/A1*%
X125095000Y-153760000D03*
%TO.P,J1,7,A2*%
%TO.N,/A2*%
X122555000Y-153760000D03*
%TO.P,J1,8,A3*%
%TO.N,/A3*%
X120015000Y-153760000D03*
%TO.P,J1,9,A4*%
%TO.N,/A4*%
X117475000Y-153760000D03*
%TO.P,J1,10,A5*%
%TO.N,/A5*%
X114935000Y-153760000D03*
%TO.P,J1,11,A6*%
%TO.N,/A6*%
X112395000Y-153760000D03*
%TO.P,J1,12,A7*%
%TO.N,/A7*%
X109855000Y-153760000D03*
%TO.P,J1,13,A8*%
%TO.N,/A8*%
X107315000Y-153760000D03*
%TO.P,J1,14,A9*%
%TO.N,/A9*%
X104775000Y-153760000D03*
%TO.P,J1,15,A10*%
%TO.N,/A10*%
X102235000Y-153760000D03*
%TO.P,J1,16,A11*%
%TO.N,/A11*%
X99695000Y-153760000D03*
%TO.P,J1,17,A12*%
%TO.N,/A12*%
X97155000Y-153760000D03*
%TO.P,J1,18,A13*%
%TO.N,/A13*%
X94615000Y-153760000D03*
%TO.P,J1,19,A14*%
%TO.N,/A14*%
X92075000Y-153760000D03*
%TO.P,J1,20,A15*%
%TO.N,/A15*%
X89535000Y-153760000D03*
%TO.P,J1,21,D0*%
%TO.N,/D0*%
X89535000Y-151220000D03*
%TO.P,J1,22,D1*%
%TO.N,/D1*%
X92075000Y-151220000D03*
%TO.P,J1,23,D2*%
%TO.N,/D2*%
X94615000Y-151220000D03*
%TO.P,J1,24,D3*%
%TO.N,/D3*%
X97155000Y-151220000D03*
%TO.P,J1,25,D4*%
%TO.N,/D4*%
X99695000Y-151220000D03*
%TO.P,J1,26,D5*%
%TO.N,/D5*%
X102235000Y-151220000D03*
%TO.P,J1,27,D6*%
%TO.N,/D6*%
X104775000Y-151220000D03*
%TO.P,J1,28,D7*%
%TO.N,/D7*%
X107315000Y-151220000D03*
%TO.P,J1,29,RW/*%
%TO.N,RW{slash}*%
X109855000Y-151220000D03*
%TO.P,J1,30,NC*%
%TO.N,unconnected-(J1-NC-Pad30)*%
X112395000Y-151220000D03*
%TO.P,J1,31,BE*%
%TO.N,BE*%
X114935000Y-151220000D03*
%TO.P,J1,32,IRQ/*%
%TO.N,IRQ{slash}*%
X117475000Y-151220000D03*
%TO.P,J1,33,NMI/*%
%TO.N,NMI{slash}*%
X120015000Y-151220000D03*
%TO.P,J1,34,RES/*%
%TO.N,RES{slash}*%
X122555000Y-151220000D03*
%TO.P,J1,35,RAM/*%
%TO.N,unconnected-(J1-RAM{slash}-Pad35)*%
X125095000Y-151220000D03*
%TO.P,J1,36,ROM/*%
%TO.N,unconnected-(J1-ROM{slash}-Pad36)*%
X127635000Y-151220000D03*
%TO.P,J1,37,+5V*%
%TO.N,+5V*%
X130175000Y-151220000D03*
%TO.P,J1,38,ACC/*%
%TO.N,unconnected-(J1-ACC{slash}-Pad38)*%
X132715000Y-151220000D03*
%TO.P,J1,39,CLK*%
%TO.N,CLK*%
X135255000Y-151220000D03*
D14*
%TO.P,J1,40,Vss*%
%TO.N,GND*%
X137795000Y-151220000D03*
%TD*%
D12*
%TO.P,R4,1*%
%TO.N,NMI{slash}*%
X156845000Y-115570000D03*
%TO.P,R4,2*%
%TO.N,+5V*%
X159385000Y-115570000D03*
%TD*%
%TO.P,R5,1*%
%TO.N,IRQ{slash}*%
X156845000Y-120650000D03*
%TO.P,R5,2*%
%TO.N,+5V*%
X159385000Y-120650000D03*
%TD*%
%TO.P,R6,1*%
%TO.N,Net-(U1-RDY)*%
X156845000Y-125730000D03*
%TO.P,R6,2*%
%TO.N,+5V*%
X159385000Y-125730000D03*
%TD*%
D11*
%TO.P,C1,1*%
%TO.N,+5V*%
X156845000Y-110490000D03*
%TO.P,C1,2*%
%TO.N,GND*%
X161845000Y-110490000D03*
%TD*%
D12*
%TO.P,R3,1*%
%TO.N,BE*%
X135255000Y-118110000D03*
%TO.P,R3,2*%
%TO.N,+5V*%
X132715000Y-118110000D03*
%TD*%
D15*
%TO.N,/D7*%
X107315000Y-93980000D03*
%TO.N,BE*%
X114935000Y-117475000D03*
%TO.N,/A9*%
X103505000Y-84455000D03*
%TO.N,/D5*%
X102235000Y-99060000D03*
%TO.N,/D4*%
X99695000Y-101600000D03*
%TO.N,/D2*%
X94615000Y-106680000D03*
%TO.N,/A5*%
X113665000Y-94625000D03*
%TO.N,RES{slash}*%
X122555000Y-128270000D03*
%TO.N,/D0*%
X89535000Y-111760000D03*
%TO.N,/A4*%
X116205000Y-97165000D03*
%TO.N,RW{slash}*%
X109855000Y-114300000D03*
%TO.N,/A11*%
X98425000Y-80010000D03*
%TO.N,/A14*%
X90805000Y-88900000D03*
%TO.N,/A0*%
X126365000Y-107315000D03*
%TO.N,/D6*%
X104775000Y-96520000D03*
%TO.N,/A7*%
X108585000Y-89535000D03*
%TO.N,/A12*%
X95885000Y-83820000D03*
%TO.N,/A10*%
X100965000Y-81915000D03*
%TO.N,NMI{slash}*%
X120015000Y-115570000D03*
%TO.N,/A3*%
X118745000Y-99705000D03*
%TO.N,/D1*%
X92075000Y-109220000D03*
%TO.N,/A1*%
X123825000Y-104775000D03*
%TO.N,IRQ{slash}*%
X117475000Y-120650000D03*
%TO.N,/D3*%
X97155000Y-104140000D03*
%TO.N,/A8*%
X106045000Y-87005000D03*
%TO.N,/A15*%
X87630000Y-91440000D03*
%TO.N,/A13*%
X93439000Y-86360000D03*
%TO.N,/A2*%
X121285000Y-102245000D03*
%TO.N,/A6*%
X111125000Y-92075000D03*
%TO.N,GND*%
X156000000Y-151000000D03*
X70000000Y-151000000D03*
X151000000Y-151000000D03*
X70000000Y-65000000D03*
X156000000Y-65000000D03*
X145000000Y-137000000D03*
%TD*%
D16*
%TO.N,/D7*%
X108585000Y-92710000D02*
X107315000Y-93980000D01*
X138430000Y-92710000D02*
X108585000Y-92710000D01*
%TO.N,BE*%
X138430000Y-118110000D02*
X135255000Y-118110000D01*
X133350000Y-116205000D02*
X116205000Y-116205000D01*
X116205000Y-116205000D02*
X114935000Y-117475000D01*
X135255000Y-118110000D02*
X133350000Y-116205000D01*
%TO.N,/A9*%
X152411810Y-83831810D02*
X104128190Y-83831810D01*
X104128190Y-83831810D02*
X103505000Y-84455000D01*
X153670000Y-85090000D02*
X152411810Y-83831810D01*
%TO.N,CLK*%
X140335000Y-146140000D02*
X135255000Y-151220000D01*
X138430000Y-120650000D02*
X140335000Y-122555000D01*
X140335000Y-122555000D02*
X140335000Y-146140000D01*
%TO.N,/D5*%
X103505000Y-97790000D02*
X102235000Y-99060000D01*
X138430000Y-97790000D02*
X103505000Y-97790000D01*
%TO.N,/D4*%
X138430000Y-100330000D02*
X100965000Y-100330000D01*
X100965000Y-100330000D02*
X99695000Y-101600000D01*
%TO.N,/D2*%
X95885000Y-105410000D02*
X94615000Y-106680000D01*
X138430000Y-105410000D02*
X95885000Y-105410000D01*
%TO.N,/A5*%
X114166000Y-94124000D02*
X113665000Y-94625000D01*
X152544000Y-94124000D02*
X114166000Y-94124000D01*
X153670000Y-95250000D02*
X152544000Y-94124000D01*
%TO.N,RES{slash}*%
X123825000Y-127000000D02*
X122555000Y-128270000D01*
X137160000Y-127000000D02*
X123825000Y-127000000D01*
X138430000Y-128270000D02*
X137160000Y-127000000D01*
X135255000Y-128270000D02*
X138430000Y-128270000D01*
%TO.N,VP{slash}*%
X134075000Y-152400000D02*
X139065000Y-152400000D01*
X132715000Y-153760000D02*
X134075000Y-152400000D01*
X139065000Y-152400000D02*
X153670000Y-137795000D01*
X153670000Y-137795000D02*
X153670000Y-128270000D01*
%TO.N,/D0*%
X90805000Y-110490000D02*
X89535000Y-111760000D01*
X138430000Y-110490000D02*
X90805000Y-110490000D01*
%TO.N,/A4*%
X116850000Y-96520000D02*
X116205000Y-97165000D01*
X153670000Y-97790000D02*
X152400000Y-96520000D01*
X152400000Y-96520000D02*
X116850000Y-96520000D01*
%TO.N,RW{slash}*%
X138430000Y-113030000D02*
X111125000Y-113030000D01*
X111125000Y-113030000D02*
X109855000Y-114300000D01*
%TO.N,/A11*%
X99551000Y-78884000D02*
X98425000Y-80010000D01*
X153670000Y-80010000D02*
X152544000Y-78884000D01*
X152544000Y-78884000D02*
X99551000Y-78884000D01*
%TO.N,/A14*%
X92075000Y-87630000D02*
X90805000Y-88900000D01*
X138430000Y-87630000D02*
X92075000Y-87630000D01*
%TO.N,/A0*%
X153670000Y-107950000D02*
X152400000Y-106680000D01*
X127000000Y-106680000D02*
X126365000Y-107315000D01*
X152400000Y-106680000D02*
X127000000Y-106680000D01*
%TO.N,/D6*%
X138430000Y-95250000D02*
X106045000Y-95250000D01*
X106045000Y-95250000D02*
X104775000Y-96520000D01*
%TO.N,/A7*%
X153670000Y-90170000D02*
X152544000Y-89044000D01*
X109076000Y-89044000D02*
X108585000Y-89535000D01*
X152544000Y-89044000D02*
X109076000Y-89044000D01*
%TO.N,/A12*%
X138430000Y-82550000D02*
X97155000Y-82550000D01*
X97155000Y-82550000D02*
X95885000Y-83820000D01*
%TO.N,/A10*%
X153670000Y-82550000D02*
X152400000Y-81280000D01*
X101600000Y-81280000D02*
X100965000Y-81915000D01*
X152400000Y-81280000D02*
X101600000Y-81280000D01*
%TO.N,NMI{slash}*%
X153670000Y-115570000D02*
X156845000Y-115570000D01*
X121285000Y-114300000D02*
X120015000Y-115570000D01*
X153670000Y-115570000D02*
X152400000Y-114300000D01*
X152400000Y-114300000D02*
X121285000Y-114300000D01*
%TO.N,/A3*%
X153670000Y-100330000D02*
X152544000Y-99204000D01*
X119246000Y-99204000D02*
X118745000Y-99705000D01*
X152544000Y-99204000D02*
X119246000Y-99204000D01*
%TO.N,/D1*%
X138430000Y-107950000D02*
X93345000Y-107950000D01*
X93345000Y-107950000D02*
X92075000Y-109220000D01*
%TO.N,/A1*%
X152400000Y-104140000D02*
X124460000Y-104140000D01*
X153670000Y-105410000D02*
X152400000Y-104140000D01*
X124460000Y-104140000D02*
X123825000Y-104775000D01*
%TO.N,IRQ{slash}*%
X153670000Y-120650000D02*
X152544000Y-119524000D01*
X153670000Y-120650000D02*
X156845000Y-120650000D01*
X152544000Y-119524000D02*
X118601000Y-119524000D01*
X118601000Y-119524000D02*
X117475000Y-120650000D01*
%TO.N,/D3*%
X138430000Y-102870000D02*
X98425000Y-102870000D01*
X98425000Y-102870000D02*
X97155000Y-104140000D01*
%TO.N,SYNC*%
X153670000Y-113030000D02*
X156845000Y-113030000D01*
X138354058Y-155575000D02*
X158115000Y-135814058D01*
X158115000Y-114300000D02*
X156845000Y-113030000D01*
X135255000Y-153760000D02*
X137070000Y-155575000D01*
X158115000Y-135814058D02*
X158115000Y-114300000D01*
X137070000Y-155575000D02*
X138354058Y-155575000D01*
%TO.N,/A8*%
X152544000Y-86504000D02*
X106546000Y-86504000D01*
X106546000Y-86504000D02*
X106045000Y-87005000D01*
X153670000Y-87630000D02*
X152544000Y-86504000D01*
%TO.N,/A15*%
X138430000Y-90170000D02*
X88900000Y-90170000D01*
X88900000Y-90170000D02*
X87630000Y-91440000D01*
%TO.N,/A13*%
X138430000Y-85090000D02*
X94709000Y-85090000D01*
X94709000Y-85090000D02*
X93439000Y-86360000D01*
%TO.N,/A2*%
X152400000Y-101600000D02*
X121930000Y-101600000D01*
X121930000Y-101600000D02*
X121285000Y-102245000D01*
X153670000Y-102870000D02*
X152400000Y-101600000D01*
%TO.N,/A6*%
X152544000Y-91584000D02*
X111616000Y-91584000D01*
X153670000Y-92710000D02*
X152544000Y-91584000D01*
X111616000Y-91584000D02*
X111125000Y-92075000D01*
D17*
%TO.N,+5V*%
X153670000Y-110490000D02*
X156845000Y-110490000D01*
D16*
X159385000Y-120650000D02*
X159385000Y-125730000D01*
X159385000Y-115570000D02*
X159385000Y-120650000D01*
X156845000Y-110490000D02*
X159385000Y-113030000D01*
X159385000Y-113030000D02*
X159385000Y-115570000D01*
%TO.N,Net-(U1-RDY)*%
X153670000Y-125730000D02*
X156845000Y-125730000D01*
%TO.N,Net-(U1-~{SO})*%
X138430000Y-123190000D02*
X135205000Y-123190000D01*
%TD*%
%TA.AperFunction,Conductor*%
%TO.N,GND*%
G36*
X152262988Y-120158144D02*
G01*
X152292975Y-120164668D01*
X152297990Y-120168422D01*
X152300587Y-120169185D01*
X152321229Y-120185819D01*
X152367781Y-120232371D01*
X152401266Y-120293694D01*
X152400785Y-120340416D01*
X152402285Y-120340654D01*
X152369500Y-120547648D01*
X152369500Y-120752351D01*
X152401522Y-120954534D01*
X152464781Y-121149223D01*
X152527231Y-121271786D01*
X152555167Y-121326614D01*
X152557715Y-121331613D01*
X152678028Y-121497213D01*
X152822786Y-121641971D01*
X152961331Y-121742628D01*
X152988390Y-121762287D01*
X153079840Y-121808883D01*
X153081080Y-121809515D01*
X153131876Y-121857490D01*
X153148671Y-121925311D01*
X153126134Y-121991446D01*
X153081080Y-122030485D01*
X152988386Y-122077715D01*
X152822786Y-122198028D01*
X152678028Y-122342786D01*
X152557715Y-122508386D01*
X152464781Y-122690776D01*
X152401522Y-122885465D01*
X152369500Y-123087648D01*
X152369500Y-123292351D01*
X152401522Y-123494534D01*
X152464781Y-123689223D01*
X152528691Y-123814653D01*
X152555167Y-123866614D01*
X152557715Y-123871613D01*
X152678028Y-124037213D01*
X152822786Y-124181971D01*
X152977749Y-124294556D01*
X152988390Y-124302287D01*
X153079840Y-124348883D01*
X153081080Y-124349515D01*
X153131876Y-124397490D01*
X153148671Y-124465311D01*
X153126134Y-124531446D01*
X153081080Y-124570485D01*
X152988386Y-124617715D01*
X152822786Y-124738028D01*
X152678028Y-124882786D01*
X152557715Y-125048386D01*
X152464781Y-125230776D01*
X152401522Y-125425465D01*
X152369500Y-125627648D01*
X152369500Y-125832351D01*
X152401522Y-126034534D01*
X152464781Y-126229223D01*
X152522171Y-126341855D01*
X152555167Y-126406614D01*
X152557715Y-126411613D01*
X152678028Y-126577213D01*
X152678034Y-126577219D01*
X152822781Y-126721966D01*
X152916452Y-126790021D01*
X152959117Y-126845350D01*
X152965096Y-126914963D01*
X152932491Y-126976759D01*
X152882571Y-127008045D01*
X152800666Y-127035186D01*
X152800663Y-127035187D01*
X152651342Y-127127289D01*
X152527289Y-127251342D01*
X152435187Y-127400663D01*
X152435185Y-127400668D01*
X152411945Y-127470803D01*
X152380001Y-127567203D01*
X152380001Y-127567204D01*
X152380000Y-127567204D01*
X152369500Y-127669983D01*
X152369500Y-128870001D01*
X152369501Y-128870018D01*
X152380000Y-128972796D01*
X152380001Y-128972799D01*
X152427856Y-129117213D01*
X152435186Y-129139334D01*
X152527288Y-129288656D01*
X152651344Y-129412712D01*
X152800666Y-129504814D01*
X152902254Y-129538477D01*
X152959504Y-129557448D01*
X153016949Y-129597221D01*
X153043772Y-129661737D01*
X153044500Y-129675154D01*
X153044500Y-137484548D01*
X153024815Y-137551587D01*
X153008181Y-137572229D01*
X139146729Y-151433681D01*
X139085406Y-151467166D01*
X139059048Y-151470000D01*
X138228012Y-151470000D01*
X138260925Y-151412993D01*
X138295000Y-151285826D01*
X138295000Y-151154174D01*
X138260925Y-151027007D01*
X138228012Y-150970000D01*
X139145000Y-150970000D01*
X139145000Y-150322172D01*
X139144999Y-150322155D01*
X139138598Y-150262627D01*
X139138596Y-150262620D01*
X139088354Y-150127913D01*
X139088350Y-150127906D01*
X139002190Y-150012812D01*
X139002187Y-150012809D01*
X138887093Y-149926649D01*
X138887086Y-149926645D01*
X138752379Y-149876403D01*
X138752372Y-149876401D01*
X138692844Y-149870000D01*
X138045000Y-149870000D01*
X138045000Y-150786988D01*
X137987993Y-150754075D01*
X137860826Y-150720000D01*
X137729174Y-150720000D01*
X137602007Y-150754075D01*
X137545000Y-150786988D01*
X137545000Y-149865951D01*
X137553644Y-149836510D01*
X137560168Y-149806524D01*
X137563922Y-149801508D01*
X137564685Y-149798912D01*
X137581319Y-149778270D01*
X137628632Y-149730957D01*
X140733729Y-146625860D01*
X140733733Y-146625858D01*
X140820858Y-146538733D01*
X140889311Y-146436286D01*
X140889312Y-146436285D01*
X140889313Y-146436282D01*
X140889315Y-146436279D01*
X140906274Y-146395335D01*
X140936463Y-146322451D01*
X140960500Y-146201607D01*
X140960500Y-146078393D01*
X140960500Y-122493394D01*
X140936463Y-122372548D01*
X140924133Y-122342781D01*
X140918505Y-122329193D01*
X140918501Y-122329185D01*
X140916932Y-122325397D01*
X140889312Y-122258715D01*
X140872256Y-122233190D01*
X140820858Y-122156267D01*
X140820856Y-122156264D01*
X140730637Y-122066045D01*
X140730606Y-122066016D01*
X139732218Y-121067628D01*
X139698733Y-121006305D01*
X139699241Y-120959588D01*
X139697715Y-120959347D01*
X139719568Y-120821371D01*
X139730500Y-120752352D01*
X139730500Y-120547648D01*
X139698477Y-120345466D01*
X139698475Y-120345462D01*
X139698475Y-120345457D01*
X139687545Y-120311817D01*
X139685550Y-120241976D01*
X139721631Y-120182144D01*
X139784332Y-120151316D01*
X139805476Y-120149500D01*
X152233548Y-120149500D01*
X152262988Y-120158144D01*
G37*
%TD.AperFunction*%
%TA.AperFunction,Conductor*%
G36*
X162637539Y-58940185D02*
G01*
X162683294Y-58992989D01*
X162694500Y-59044500D01*
X162694500Y-109261467D01*
X162674815Y-109328506D01*
X162622011Y-109374261D01*
X162552853Y-109384205D01*
X162514206Y-109371952D01*
X162344034Y-109285245D01*
X162149417Y-109222009D01*
X161947317Y-109190000D01*
X161742683Y-109190000D01*
X161540582Y-109222009D01*
X161345968Y-109285244D01*
X161163644Y-109378143D01*
X161119077Y-109410523D01*
X161119077Y-109410524D01*
X161798553Y-110090000D01*
X161792339Y-110090000D01*
X161690606Y-110117259D01*
X161599394Y-110169920D01*
X161524920Y-110244394D01*
X161472259Y-110335606D01*
X161445000Y-110437339D01*
X161445000Y-110443553D01*
X160765524Y-109764077D01*
X160765523Y-109764077D01*
X160733143Y-109808644D01*
X160640244Y-109990968D01*
X160577009Y-110185582D01*
X160545000Y-110387682D01*
X160545000Y-110592317D01*
X160577009Y-110794417D01*
X160640244Y-110989031D01*
X160733141Y-111171350D01*
X160733147Y-111171359D01*
X160765523Y-111215921D01*
X160765524Y-111215922D01*
X161445000Y-110536446D01*
X161445000Y-110542661D01*
X161472259Y-110644394D01*
X161524920Y-110735606D01*
X161599394Y-110810080D01*
X161690606Y-110862741D01*
X161792339Y-110890000D01*
X161798552Y-110890000D01*
X161119076Y-111569474D01*
X161163650Y-111601859D01*
X161345968Y-111694755D01*
X161540582Y-111757990D01*
X161742683Y-111790000D01*
X161947317Y-111790000D01*
X162149417Y-111757990D01*
X162344031Y-111694755D01*
X162514205Y-111608047D01*
X162582874Y-111595151D01*
X162647615Y-111621427D01*
X162687872Y-111678534D01*
X162694500Y-111718532D01*
X162694500Y-157490500D01*
X162674815Y-157557539D01*
X162622011Y-157603294D01*
X162570500Y-157614500D01*
X64124500Y-157614500D01*
X64057461Y-157594815D01*
X64011706Y-157542011D01*
X64000500Y-157490500D01*
X64000500Y-146582648D01*
X131414500Y-146582648D01*
X131414500Y-146787351D01*
X131446522Y-146989534D01*
X131509781Y-147184223D01*
X131573691Y-147309653D01*
X131602585Y-147366359D01*
X131602715Y-147366613D01*
X131723028Y-147532213D01*
X131867786Y-147676971D01*
X131988226Y-147764474D01*
X132033390Y-147797287D01*
X132149607Y-147856503D01*
X132215776Y-147890218D01*
X132215778Y-147890218D01*
X132215781Y-147890220D01*
X132320137Y-147924127D01*
X132410465Y-147953477D01*
X132511557Y-147969488D01*
X132612648Y-147985500D01*
X132612649Y-147985500D01*
X132817351Y-147985500D01*
X132817352Y-147985500D01*
X133019534Y-147953477D01*
X133214219Y-147890220D01*
X133396610Y-147797287D01*
X133489590Y-147729732D01*
X133562213Y-147676971D01*
X133562215Y-147676968D01*
X133562219Y-147676966D01*
X133706966Y-147532219D01*
X133706968Y-147532215D01*
X133706971Y-147532213D01*
X133759732Y-147459590D01*
X133827287Y-147366610D01*
X133920220Y-147184219D01*
X133983477Y-146989534D01*
X134015500Y-146787352D01*
X134015500Y-146582648D01*
X134007257Y-146530606D01*
X133983477Y-146380465D01*
X133925363Y-146201611D01*
X133920220Y-146185781D01*
X133920218Y-146185778D01*
X133920218Y-146185776D01*
X133827419Y-146003650D01*
X133827287Y-146003390D01*
X133795092Y-145959077D01*
X133706971Y-145837786D01*
X133562213Y-145693028D01*
X133396613Y-145572715D01*
X133396612Y-145572714D01*
X133396610Y-145572713D01*
X133339653Y-145543691D01*
X133214223Y-145479781D01*
X133019534Y-145416522D01*
X132844995Y-145388878D01*
X132817352Y-145384500D01*
X132612648Y-145384500D01*
X132588329Y-145388351D01*
X132410465Y-145416522D01*
X132215776Y-145479781D01*
X132033386Y-145572715D01*
X131867786Y-145693028D01*
X131723028Y-145837786D01*
X131602715Y-146003386D01*
X131509781Y-146185776D01*
X131446522Y-146380465D01*
X131414500Y-146582648D01*
X64000500Y-146582648D01*
X64000500Y-91361153D01*
X86829500Y-91361153D01*
X86829500Y-91518846D01*
X86860261Y-91673489D01*
X86860264Y-91673501D01*
X86920602Y-91819172D01*
X86920609Y-91819185D01*
X87008210Y-91950288D01*
X87008213Y-91950292D01*
X87119707Y-92061786D01*
X87119711Y-92061789D01*
X87250814Y-92149390D01*
X87250827Y-92149397D01*
X87395931Y-92209500D01*
X87396503Y-92209737D01*
X87551153Y-92240499D01*
X87551156Y-92240500D01*
X87551158Y-92240500D01*
X87708844Y-92240500D01*
X87708845Y-92240499D01*
X87863497Y-92209737D01*
X87993974Y-92155692D01*
X88009172Y-92149397D01*
X88009172Y-92149396D01*
X88009179Y-92149394D01*
X88140289Y-92061789D01*
X88251789Y-91950289D01*
X88339394Y-91819179D01*
X88399737Y-91673497D01*
X88421858Y-91562282D01*
X88454240Y-91500375D01*
X88455733Y-91498855D01*
X89122771Y-90831819D01*
X89184094Y-90798334D01*
X89210452Y-90795500D01*
X111262814Y-90795500D01*
X111329853Y-90815185D01*
X111375608Y-90867989D01*
X111385552Y-90937147D01*
X111356527Y-91000703D01*
X111324670Y-91026142D01*
X111324779Y-91026305D01*
X111322863Y-91027584D01*
X111321273Y-91028855D01*
X111319720Y-91029684D01*
X111302385Y-91041268D01*
X111217268Y-91098140D01*
X111173705Y-91141703D01*
X111130142Y-91185267D01*
X111130139Y-91185270D01*
X111066203Y-91249206D01*
X111004879Y-91282690D01*
X111002714Y-91283141D01*
X110891508Y-91305261D01*
X110891498Y-91305264D01*
X110745827Y-91365602D01*
X110745814Y-91365609D01*
X110614711Y-91453210D01*
X110614707Y-91453213D01*
X110503213Y-91564707D01*
X110503210Y-91564711D01*
X110415609Y-91695814D01*
X110415602Y-91695827D01*
X110355264Y-91841498D01*
X110355261Y-91841508D01*
X110326780Y-91984692D01*
X110294395Y-92046603D01*
X110233679Y-92081177D01*
X110205163Y-92084500D01*
X108523388Y-92084500D01*
X108493230Y-92090499D01*
X108402555Y-92108535D01*
X108402545Y-92108538D01*
X108288716Y-92155687D01*
X108288707Y-92155692D01*
X108186268Y-92224140D01*
X108142705Y-92267703D01*
X108099142Y-92311267D01*
X108099139Y-92311270D01*
X107256203Y-93154205D01*
X107194880Y-93187690D01*
X107192714Y-93188141D01*
X107081508Y-93210261D01*
X107081498Y-93210264D01*
X106935827Y-93270602D01*
X106935814Y-93270609D01*
X106804711Y-93358210D01*
X106804707Y-93358213D01*
X106693213Y-93469707D01*
X106693210Y-93469711D01*
X106605609Y-93600814D01*
X106605602Y-93600827D01*
X106545264Y-93746498D01*
X106545261Y-93746510D01*
X106514500Y-93901153D01*
X106514500Y-94058846D01*
X106545261Y-94213489D01*
X106545264Y-94213501D01*
X106605602Y-94359172D01*
X106605609Y-94359185D01*
X106654002Y-94431609D01*
X106674880Y-94498286D01*
X106656396Y-94565666D01*
X106604417Y-94612357D01*
X106550900Y-94624500D01*
X105983388Y-94624500D01*
X105953230Y-94630499D01*
X105862555Y-94648535D01*
X105862545Y-94648538D01*
X105748716Y-94695687D01*
X105748707Y-94695692D01*
X105646268Y-94764140D01*
X105602705Y-94807703D01*
X105559142Y-94851267D01*
X105559139Y-94851270D01*
X104716203Y-95694205D01*
X104654880Y-95727690D01*
X104652714Y-95728141D01*
X104541508Y-95750261D01*
X104541498Y-95750264D01*
X104395827Y-95810602D01*
X104395814Y-95810609D01*
X104264711Y-95898210D01*
X104264707Y-95898213D01*
X104153213Y-96009707D01*
X104153210Y-96009711D01*
X104065609Y-96140814D01*
X104065602Y-96140827D01*
X104005264Y-96286498D01*
X104005261Y-96286510D01*
X103974500Y-96441153D01*
X103974500Y-96598846D01*
X104005261Y-96753489D01*
X104005264Y-96753501D01*
X104065602Y-96899172D01*
X104065609Y-96899185D01*
X104114002Y-96971609D01*
X104134880Y-97038286D01*
X104116396Y-97105666D01*
X104064417Y-97152357D01*
X104010900Y-97164500D01*
X103443388Y-97164500D01*
X103413230Y-97170499D01*
X103322555Y-97188535D01*
X103322545Y-97188538D01*
X103208716Y-97235687D01*
X103208707Y-97235692D01*
X103106268Y-97304140D01*
X103062705Y-97347703D01*
X103019142Y-97391267D01*
X103019139Y-97391270D01*
X102176203Y-98234205D01*
X102114880Y-98267690D01*
X102112714Y-98268141D01*
X102001508Y-98290261D01*
X102001498Y-98290264D01*
X101855827Y-98350602D01*
X101855814Y-98350609D01*
X101724711Y-98438210D01*
X101724707Y-98438213D01*
X101613213Y-98549707D01*
X101613210Y-98549711D01*
X101525609Y-98680814D01*
X101525602Y-98680827D01*
X101465264Y-98826498D01*
X101465261Y-98826510D01*
X101434500Y-98981153D01*
X101434500Y-99138846D01*
X101465261Y-99293489D01*
X101465264Y-99293501D01*
X101525602Y-99439172D01*
X101525609Y-99439185D01*
X101574002Y-99511609D01*
X101594880Y-99578286D01*
X101576396Y-99645666D01*
X101524417Y-99692357D01*
X101470900Y-99704500D01*
X100903388Y-99704500D01*
X100873230Y-99710499D01*
X100782555Y-99728535D01*
X100782545Y-99728538D01*
X100668716Y-99775687D01*
X100668707Y-99775692D01*
X100566268Y-99844140D01*
X100522705Y-99887703D01*
X100479142Y-99931267D01*
X100479139Y-99931270D01*
X99636203Y-100774205D01*
X99574880Y-100807690D01*
X99572714Y-100808141D01*
X99461508Y-100830261D01*
X99461498Y-100830264D01*
X99315827Y-100890602D01*
X99315814Y-100890609D01*
X99184711Y-100978210D01*
X99184707Y-100978213D01*
X99073213Y-101089707D01*
X99073210Y-101089711D01*
X98985609Y-101220814D01*
X98985602Y-101220827D01*
X98925264Y-101366498D01*
X98925261Y-101366510D01*
X98894500Y-101521153D01*
X98894500Y-101678846D01*
X98925261Y-101833489D01*
X98925264Y-101833501D01*
X98985602Y-101979172D01*
X98985609Y-101979185D01*
X99034002Y-102051609D01*
X99054880Y-102118286D01*
X99036396Y-102185666D01*
X98984417Y-102232357D01*
X98930900Y-102244500D01*
X98363388Y-102244500D01*
X98333230Y-102250499D01*
X98242555Y-102268535D01*
X98242545Y-102268538D01*
X98128716Y-102315687D01*
X98128707Y-102315692D01*
X98026268Y-102384140D01*
X97982705Y-102427703D01*
X97939142Y-102471267D01*
X97939139Y-102471270D01*
X97096203Y-103314205D01*
X97034880Y-103347690D01*
X97032714Y-103348141D01*
X96921508Y-103370261D01*
X96921498Y-103370264D01*
X96775827Y-103430602D01*
X96775814Y-103430609D01*
X96644711Y-103518210D01*
X96644707Y-103518213D01*
X96533213Y-103629707D01*
X96533210Y-103629711D01*
X96445609Y-103760814D01*
X96445602Y-103760827D01*
X96385264Y-103906498D01*
X96385261Y-103906510D01*
X96354500Y-104061153D01*
X96354500Y-104218846D01*
X96385261Y-104373489D01*
X96385264Y-104373501D01*
X96445602Y-104519172D01*
X96445609Y-104519185D01*
X96494002Y-104591609D01*
X96514880Y-104658286D01*
X96496396Y-104725666D01*
X96444417Y-104772357D01*
X96390900Y-104784500D01*
X95823388Y-104784500D01*
X95793230Y-104790499D01*
X95702555Y-104808535D01*
X95702545Y-104808538D01*
X95588716Y-104855687D01*
X95588707Y-104855692D01*
X95486268Y-104924140D01*
X95442705Y-104967703D01*
X95399142Y-105011267D01*
X95399139Y-105011270D01*
X94556203Y-105854205D01*
X94494880Y-105887690D01*
X94492714Y-105888141D01*
X94381508Y-105910261D01*
X94381498Y-105910264D01*
X94235827Y-105970602D01*
X94235814Y-105970609D01*
X94104711Y-106058210D01*
X94104707Y-106058213D01*
X93993213Y-106169707D01*
X93993210Y-106169711D01*
X93905609Y-106300814D01*
X93905602Y-106300827D01*
X93845264Y-106446498D01*
X93845261Y-106446510D01*
X93814500Y-106601153D01*
X93814500Y-106758846D01*
X93845261Y-106913489D01*
X93845264Y-106913501D01*
X93905602Y-107059172D01*
X93905609Y-107059185D01*
X93954002Y-107131609D01*
X93974880Y-107198286D01*
X93956396Y-107265666D01*
X93904417Y-107312357D01*
X93850900Y-107324500D01*
X93283388Y-107324500D01*
X93253230Y-107330499D01*
X93162555Y-107348535D01*
X93162545Y-107348538D01*
X93048716Y-107395687D01*
X93048707Y-107395692D01*
X92946268Y-107464140D01*
X92902705Y-107507703D01*
X92859142Y-107551267D01*
X92859139Y-107551270D01*
X92016203Y-108394205D01*
X91954880Y-108427690D01*
X91952714Y-108428141D01*
X91841508Y-108450261D01*
X91841498Y-108450264D01*
X91695827Y-108510602D01*
X91695814Y-108510609D01*
X91564711Y-108598210D01*
X91564707Y-108598213D01*
X91453213Y-108709707D01*
X91453210Y-108709711D01*
X91365609Y-108840814D01*
X91365602Y-108840827D01*
X91305264Y-108986498D01*
X91305261Y-108986510D01*
X91274500Y-109141153D01*
X91274500Y-109298846D01*
X91305261Y-109453489D01*
X91305264Y-109453501D01*
X91365602Y-109599172D01*
X91365609Y-109599185D01*
X91414002Y-109671609D01*
X91434880Y-109738286D01*
X91416396Y-109805666D01*
X91364417Y-109852357D01*
X91310900Y-109864500D01*
X90743388Y-109864500D01*
X90713230Y-109870499D01*
X90622555Y-109888535D01*
X90622545Y-109888538D01*
X90508716Y-109935687D01*
X90508707Y-109935692D01*
X90406268Y-110004140D01*
X90362705Y-110047703D01*
X90319142Y-110091267D01*
X90319139Y-110091270D01*
X89476203Y-110934205D01*
X89414880Y-110967690D01*
X89412714Y-110968141D01*
X89301508Y-110990261D01*
X89301498Y-110990264D01*
X89155827Y-111050602D01*
X89155814Y-111050609D01*
X89024711Y-111138210D01*
X89024707Y-111138213D01*
X88913213Y-111249707D01*
X88913210Y-111249711D01*
X88825609Y-111380814D01*
X88825602Y-111380827D01*
X88765264Y-111526498D01*
X88765261Y-111526510D01*
X88734500Y-111681153D01*
X88734500Y-111838846D01*
X88765261Y-111993489D01*
X88765264Y-111993501D01*
X88825602Y-112139172D01*
X88825609Y-112139185D01*
X88913210Y-112270288D01*
X88913213Y-112270292D01*
X89024707Y-112381786D01*
X89024711Y-112381789D01*
X89155814Y-112469390D01*
X89155827Y-112469397D01*
X89301498Y-112529735D01*
X89301503Y-112529737D01*
X89456153Y-112560499D01*
X89456156Y-112560500D01*
X89456158Y-112560500D01*
X89613844Y-112560500D01*
X89613845Y-112560499D01*
X89768497Y-112529737D01*
X89898974Y-112475692D01*
X89914172Y-112469397D01*
X89914172Y-112469396D01*
X89914179Y-112469394D01*
X90045289Y-112381789D01*
X90156789Y-112270289D01*
X90244394Y-112139179D01*
X90304737Y-111993497D01*
X90326858Y-111882282D01*
X90359240Y-111820375D01*
X90360733Y-111818855D01*
X91027771Y-111151819D01*
X91089094Y-111118334D01*
X91115452Y-111115500D01*
X137213885Y-111115500D01*
X137280924Y-111135185D01*
X137313606Y-111168571D01*
X137314849Y-111167669D01*
X137438028Y-111337213D01*
X137582786Y-111481971D01*
X137703226Y-111569474D01*
X137748390Y-111602287D01*
X137839840Y-111648883D01*
X137841080Y-111649515D01*
X137891876Y-111697490D01*
X137908671Y-111765311D01*
X137886134Y-111831446D01*
X137841080Y-111870485D01*
X137748386Y-111917715D01*
X137582786Y-112038028D01*
X137438028Y-112182786D01*
X137314849Y-112352331D01*
X137313176Y-112351115D01*
X137267792Y-112392169D01*
X137213885Y-112404500D01*
X111063388Y-112404500D01*
X111033230Y-112410499D01*
X110942555Y-112428535D01*
X110942545Y-112428538D01*
X110828716Y-112475687D01*
X110828707Y-112475692D01*
X110726268Y-112544140D01*
X110682705Y-112587703D01*
X110639142Y-112631267D01*
X110639139Y-112631270D01*
X109796203Y-113474205D01*
X109734880Y-113507690D01*
X109732714Y-113508141D01*
X109621508Y-113530261D01*
X109621498Y-113530264D01*
X109475827Y-113590602D01*
X109475814Y-113590609D01*
X109344711Y-113678210D01*
X109344707Y-113678213D01*
X109233213Y-113789707D01*
X109233210Y-113789711D01*
X109145609Y-113920814D01*
X109145602Y-113920827D01*
X109085264Y-114066498D01*
X109085261Y-114066510D01*
X109054500Y-114221153D01*
X109054500Y-114378845D01*
X109085261Y-114533489D01*
X109085264Y-114533501D01*
X109145602Y-114679172D01*
X109145609Y-114679185D01*
X109233210Y-114810288D01*
X109233213Y-114810292D01*
X109344707Y-114921786D01*
X109344711Y-114921789D01*
X109475814Y-115009390D01*
X109475827Y-115009397D01*
X109597288Y-115059707D01*
X109621503Y-115069737D01*
X109776153Y-115100499D01*
X109776156Y-115100500D01*
X109776158Y-115100500D01*
X109933844Y-115100500D01*
X109933845Y-115100499D01*
X110088497Y-115069737D01*
X110234179Y-115009394D01*
X110365289Y-114921789D01*
X110476789Y-114810289D01*
X110564394Y-114679179D01*
X110624737Y-114533497D01*
X110646858Y-114422282D01*
X110679240Y-114360375D01*
X110680733Y-114358855D01*
X111347771Y-113691819D01*
X111409094Y-113658334D01*
X111435452Y-113655500D01*
X120745547Y-113655500D01*
X120766792Y-113661738D01*
X120788881Y-113663318D01*
X120799664Y-113671390D01*
X120812586Y-113675185D01*
X120827085Y-113691918D01*
X120844814Y-113705190D01*
X120849521Y-113717810D01*
X120858341Y-113727989D01*
X120861492Y-113749906D01*
X120869231Y-113770654D01*
X120866368Y-113783814D01*
X120868285Y-113797147D01*
X120859085Y-113817290D01*
X120854379Y-113838927D01*
X120841110Y-113856652D01*
X120839260Y-113860703D01*
X120833228Y-113867181D01*
X120799139Y-113901270D01*
X119956203Y-114744205D01*
X119894880Y-114777690D01*
X119892714Y-114778141D01*
X119781508Y-114800261D01*
X119781498Y-114800264D01*
X119635827Y-114860602D01*
X119635814Y-114860609D01*
X119504711Y-114948210D01*
X119504707Y-114948213D01*
X119393213Y-115059707D01*
X119393210Y-115059711D01*
X119305609Y-115190814D01*
X119305602Y-115190827D01*
X119245264Y-115336498D01*
X119245261Y-115336508D01*
X119216780Y-115479692D01*
X119184395Y-115541603D01*
X119123679Y-115576177D01*
X119095163Y-115579500D01*
X116143389Y-115579500D01*
X116087697Y-115590578D01*
X116082971Y-115591518D01*
X116039743Y-115600116D01*
X116022546Y-115603537D01*
X115908716Y-115650687D01*
X115908707Y-115650692D01*
X115806268Y-115719140D01*
X115762705Y-115762703D01*
X115719142Y-115806267D01*
X115719139Y-115806270D01*
X114876203Y-116649205D01*
X114814880Y-116682690D01*
X114812714Y-116683141D01*
X114701508Y-116705261D01*
X114701498Y-116705264D01*
X114555827Y-116765602D01*
X114555814Y-116765609D01*
X114424711Y-116853210D01*
X114424707Y-116853213D01*
X114313213Y-116964707D01*
X114313210Y-116964711D01*
X114225609Y-117095814D01*
X114225602Y-117095827D01*
X114165264Y-117241498D01*
X114165261Y-117241510D01*
X114134500Y-117396153D01*
X114134500Y-117553846D01*
X114165261Y-117708489D01*
X114165264Y-117708501D01*
X114225602Y-117854172D01*
X114225609Y-117854185D01*
X114313210Y-117985288D01*
X114313213Y-117985292D01*
X114424707Y-118096786D01*
X114424711Y-118096789D01*
X114555814Y-118184390D01*
X114555827Y-118184397D01*
X114701498Y-118244735D01*
X114701503Y-118244737D01*
X114856153Y-118275499D01*
X114856156Y-118275500D01*
X114856158Y-118275500D01*
X115013844Y-118275500D01*
X115013845Y-118275499D01*
X115168497Y-118244737D01*
X115314179Y-118184394D01*
X115445289Y-118096789D01*
X115556789Y-117985289D01*
X115644394Y-117854179D01*
X115704737Y-117708497D01*
X115726858Y-117597282D01*
X115759240Y-117535375D01*
X115760733Y-117533855D01*
X116427771Y-116866819D01*
X116489094Y-116833334D01*
X116515452Y-116830500D01*
X132065334Y-116830500D01*
X132132373Y-116850185D01*
X132178128Y-116902989D01*
X132188072Y-116972147D01*
X132159047Y-117035703D01*
X132121629Y-117064985D01*
X132085800Y-117083240D01*
X132037911Y-117118034D01*
X131932927Y-117194310D01*
X131932925Y-117194312D01*
X131932924Y-117194312D01*
X131799312Y-117327924D01*
X131799312Y-117327925D01*
X131799310Y-117327927D01*
X131751610Y-117393579D01*
X131688240Y-117480800D01*
X131602454Y-117649163D01*
X131544059Y-117828881D01*
X131514500Y-118015513D01*
X131514500Y-118204486D01*
X131544059Y-118391118D01*
X131602454Y-118570836D01*
X131677543Y-118718205D01*
X131690439Y-118786874D01*
X131664163Y-118851615D01*
X131607056Y-118891872D01*
X131567058Y-118898500D01*
X118539388Y-118898500D01*
X118418555Y-118922535D01*
X118418547Y-118922537D01*
X118304716Y-118969687D01*
X118202265Y-119038142D01*
X118202262Y-119038145D01*
X117416203Y-119824205D01*
X117354880Y-119857690D01*
X117352714Y-119858141D01*
X117241508Y-119880261D01*
X117241498Y-119880264D01*
X117095827Y-119940602D01*
X117095814Y-119940609D01*
X116964711Y-120028210D01*
X116964707Y-120028213D01*
X116853213Y-120139707D01*
X116853210Y-120139711D01*
X116765609Y-120270814D01*
X116765602Y-120270827D01*
X116705264Y-120416498D01*
X116705261Y-120416510D01*
X116674500Y-120571153D01*
X116674500Y-120728846D01*
X116705261Y-120883489D01*
X116705264Y-120883501D01*
X116765602Y-121029172D01*
X116765609Y-121029185D01*
X116853210Y-121160288D01*
X116853213Y-121160292D01*
X116964707Y-121271786D01*
X116964711Y-121271789D01*
X117095814Y-121359390D01*
X117095827Y-121359397D01*
X117241498Y-121419735D01*
X117241503Y-121419737D01*
X117396153Y-121450499D01*
X117396156Y-121450500D01*
X117396158Y-121450500D01*
X117553844Y-121450500D01*
X117553845Y-121450499D01*
X117708497Y-121419737D01*
X117854179Y-121359394D01*
X117985289Y-121271789D01*
X118096789Y-121160289D01*
X118184394Y-121029179D01*
X118244737Y-120883497D01*
X118266858Y-120772282D01*
X118299240Y-120710375D01*
X118300730Y-120708858D01*
X118823772Y-120185819D01*
X118885095Y-120152334D01*
X118911453Y-120149500D01*
X137054524Y-120149500D01*
X137121563Y-120169185D01*
X137167318Y-120221989D01*
X137177262Y-120291147D01*
X137172455Y-120311817D01*
X137161524Y-120345457D01*
X137161523Y-120345464D01*
X137129500Y-120547648D01*
X137129500Y-120752351D01*
X137161522Y-120954534D01*
X137224781Y-121149223D01*
X137287231Y-121271786D01*
X137315167Y-121326614D01*
X137317715Y-121331613D01*
X137438028Y-121497213D01*
X137582786Y-121641971D01*
X137721331Y-121742628D01*
X137748390Y-121762287D01*
X137839840Y-121808883D01*
X137841080Y-121809515D01*
X137891876Y-121857490D01*
X137908671Y-121925311D01*
X137886134Y-121991446D01*
X137841080Y-122030485D01*
X137748386Y-122077715D01*
X137582786Y-122198028D01*
X137438028Y-122342786D01*
X137314849Y-122512331D01*
X137313176Y-122511115D01*
X137267792Y-122552169D01*
X137213885Y-122564500D01*
X136297628Y-122564500D01*
X136230589Y-122544815D01*
X136197312Y-122513388D01*
X136120690Y-122407927D01*
X135987073Y-122274310D01*
X135834199Y-122163240D01*
X135820508Y-122156264D01*
X135665836Y-122077454D01*
X135486118Y-122019059D01*
X135299486Y-121989500D01*
X135299481Y-121989500D01*
X135110519Y-121989500D01*
X135110514Y-121989500D01*
X134923881Y-122019059D01*
X134744163Y-122077454D01*
X134575800Y-122163240D01*
X134527911Y-122198034D01*
X134422927Y-122274310D01*
X134422925Y-122274312D01*
X134422924Y-122274312D01*
X134289312Y-122407924D01*
X134289312Y-122407925D01*
X134289310Y-122407927D01*
X134241610Y-122473579D01*
X134178240Y-122560800D01*
X134092454Y-122729163D01*
X134052931Y-122850803D01*
X134013493Y-122908478D01*
X133949134Y-122935676D01*
X133880288Y-122923761D01*
X133828812Y-122876516D01*
X133817069Y-122850803D01*
X133777545Y-122729163D01*
X133732290Y-122640347D01*
X133691760Y-122560801D01*
X133580690Y-122407927D01*
X133447073Y-122274310D01*
X133294199Y-122163240D01*
X133280508Y-122156264D01*
X133125836Y-122077454D01*
X132946118Y-122019059D01*
X132759486Y-121989500D01*
X132759481Y-121989500D01*
X132570519Y-121989500D01*
X132570514Y-121989500D01*
X132383881Y-122019059D01*
X132204163Y-122077454D01*
X132035800Y-122163240D01*
X131987911Y-122198034D01*
X131882927Y-122274310D01*
X131882925Y-122274312D01*
X131882924Y-122274312D01*
X131749312Y-122407924D01*
X131749312Y-122407925D01*
X131749310Y-122407927D01*
X131701610Y-122473579D01*
X131638240Y-122560800D01*
X131552454Y-122729163D01*
X131494059Y-122908881D01*
X131464500Y-123095513D01*
X131464500Y-123284486D01*
X131494059Y-123471118D01*
X131552454Y-123650836D01*
X131636355Y-123815500D01*
X131638240Y-123819199D01*
X131749310Y-123972073D01*
X131882927Y-124105690D01*
X132035801Y-124216760D01*
X132115347Y-124257290D01*
X132204163Y-124302545D01*
X132204165Y-124302545D01*
X132204168Y-124302547D01*
X132300497Y-124333846D01*
X132383881Y-124360940D01*
X132570514Y-124390500D01*
X132570519Y-124390500D01*
X132759486Y-124390500D01*
X132946118Y-124360940D01*
X132981280Y-124349515D01*
X133125832Y-124302547D01*
X133294199Y-124216760D01*
X133447073Y-124105690D01*
X133580690Y-123972073D01*
X133691760Y-123819199D01*
X133777547Y-123650832D01*
X133817069Y-123529195D01*
X133856507Y-123471521D01*
X133920866Y-123444323D01*
X133989712Y-123456238D01*
X134041188Y-123503482D01*
X134052931Y-123529196D01*
X134092454Y-123650836D01*
X134176355Y-123815500D01*
X134178240Y-123819199D01*
X134289310Y-123972073D01*
X134422927Y-124105690D01*
X134575801Y-124216760D01*
X134655347Y-124257290D01*
X134744163Y-124302545D01*
X134744165Y-124302545D01*
X134744168Y-124302547D01*
X134840497Y-124333846D01*
X134923881Y-124360940D01*
X135110514Y-124390500D01*
X135110519Y-124390500D01*
X135299486Y-124390500D01*
X135486118Y-124360940D01*
X135521280Y-124349515D01*
X135665832Y-124302547D01*
X135834199Y-124216760D01*
X135987073Y-124105690D01*
X136120690Y-123972073D01*
X136197311Y-123866612D01*
X136252640Y-123823949D01*
X136297628Y-123815500D01*
X137213885Y-123815500D01*
X137280924Y-123835185D01*
X137313606Y-123868571D01*
X137314849Y-123867669D01*
X137438028Y-124037213D01*
X137582786Y-124181971D01*
X137737749Y-124294556D01*
X137748390Y-124302287D01*
X137839840Y-124348883D01*
X137841080Y-124349515D01*
X137891876Y-124397490D01*
X137908671Y-124465311D01*
X137886134Y-124531446D01*
X137841080Y-124570485D01*
X137748386Y-124617715D01*
X137582786Y-124738028D01*
X137438028Y-124882786D01*
X137317715Y-125048386D01*
X137224781Y-125230776D01*
X137161522Y-125425465D01*
X137129500Y-125627648D01*
X137129500Y-125832351D01*
X137161522Y-126034534D01*
X137190637Y-126124138D01*
X137219245Y-126212184D01*
X137221240Y-126282022D01*
X137185160Y-126341855D01*
X137122460Y-126372684D01*
X137101314Y-126374500D01*
X123763389Y-126374500D01*
X123702971Y-126386518D01*
X123659743Y-126395116D01*
X123642546Y-126398537D01*
X123528716Y-126445687D01*
X123528707Y-126445692D01*
X123426268Y-126514140D01*
X123382705Y-126557703D01*
X123339142Y-126601267D01*
X123339139Y-126601270D01*
X122496203Y-127444205D01*
X122434880Y-127477690D01*
X122432714Y-127478141D01*
X122321508Y-127500261D01*
X122321498Y-127500264D01*
X122175827Y-127560602D01*
X122175814Y-127560609D01*
X122044711Y-127648210D01*
X122044707Y-127648213D01*
X121933213Y-127759707D01*
X121933210Y-127759711D01*
X121845609Y-127890814D01*
X121845602Y-127890827D01*
X121785264Y-128036498D01*
X121785261Y-128036510D01*
X121754500Y-128191153D01*
X121754500Y-128348846D01*
X121785261Y-128503489D01*
X121785264Y-128503501D01*
X121845602Y-128649172D01*
X121845609Y-128649185D01*
X121933210Y-128780288D01*
X121933213Y-128780292D01*
X122044707Y-128891786D01*
X122044711Y-128891789D01*
X122175814Y-128979390D01*
X122175827Y-128979397D01*
X122321498Y-129039735D01*
X122321503Y-129039737D01*
X122476153Y-129070499D01*
X122476156Y-129070500D01*
X122476158Y-129070500D01*
X122633844Y-129070500D01*
X122633845Y-129070499D01*
X122788497Y-129039737D01*
X122934179Y-128979394D01*
X123065289Y-128891789D01*
X123176789Y-128780289D01*
X123264394Y-128649179D01*
X123324737Y-128503497D01*
X123346858Y-128392282D01*
X123379240Y-128330375D01*
X123380733Y-128328855D01*
X124047771Y-127661819D01*
X124109094Y-127628334D01*
X124135452Y-127625500D01*
X131493686Y-127625500D01*
X131560725Y-127645185D01*
X131606480Y-127697989D01*
X131616424Y-127767147D01*
X131604174Y-127805789D01*
X131602455Y-127809162D01*
X131544059Y-127988881D01*
X131514500Y-128175513D01*
X131514500Y-128364486D01*
X131544059Y-128551118D01*
X131602454Y-128730836D01*
X131684463Y-128891786D01*
X131688240Y-128899199D01*
X131799310Y-129052073D01*
X131932927Y-129185690D01*
X132085801Y-129296760D01*
X132165347Y-129337290D01*
X132254163Y-129382545D01*
X132254165Y-129382545D01*
X132254168Y-129382547D01*
X132347000Y-129412710D01*
X132433881Y-129440940D01*
X132620514Y-129470500D01*
X132620519Y-129470500D01*
X132809486Y-129470500D01*
X132996118Y-129440940D01*
X133175832Y-129382547D01*
X133344199Y-129296760D01*
X133497073Y-129185690D01*
X133630690Y-129052073D01*
X133741760Y-128899199D01*
X133827547Y-128730832D01*
X133867069Y-128609195D01*
X133906507Y-128551521D01*
X133970866Y-128524323D01*
X134039712Y-128536238D01*
X134091188Y-128583482D01*
X134102931Y-128609196D01*
X134142454Y-128730836D01*
X134224463Y-128891786D01*
X134228240Y-128899199D01*
X134339310Y-129052073D01*
X134472927Y-129185690D01*
X134625801Y-129296760D01*
X134705347Y-129337290D01*
X134794163Y-129382545D01*
X134794165Y-129382545D01*
X134794168Y-129382547D01*
X134887000Y-129412710D01*
X134973881Y-129440940D01*
X135160514Y-129470500D01*
X135160519Y-129470500D01*
X135349486Y-129470500D01*
X135536118Y-129440940D01*
X135715832Y-129382547D01*
X135884199Y-129296760D01*
X136037073Y-129185690D01*
X136170690Y-129052073D01*
X136247311Y-128946612D01*
X136302640Y-128903949D01*
X136347628Y-128895500D01*
X137213885Y-128895500D01*
X137280924Y-128915185D01*
X137313606Y-128948571D01*
X137314849Y-128947669D01*
X137438028Y-129117213D01*
X137582786Y-129261971D01*
X137737749Y-129374556D01*
X137748390Y-129382287D01*
X137863503Y-129440940D01*
X137930776Y-129475218D01*
X137930778Y-129475218D01*
X137930781Y-129475220D01*
X138021856Y-129504812D01*
X138125465Y-129538477D01*
X138226557Y-129554488D01*
X138327648Y-129570500D01*
X138327649Y-129570500D01*
X138532351Y-129570500D01*
X138532352Y-129570500D01*
X138734534Y-129538477D01*
X138929219Y-129475220D01*
X139111610Y-129382287D01*
X139240482Y-129288657D01*
X139277213Y-129261971D01*
X139277215Y-129261968D01*
X139277219Y-129261966D01*
X139421966Y-129117219D01*
X139485181Y-129030209D01*
X139540511Y-128987544D01*
X139610125Y-128981565D01*
X139671920Y-129014170D01*
X139706277Y-129075009D01*
X139709500Y-129103095D01*
X139709500Y-145829547D01*
X139689815Y-145896586D01*
X139673181Y-145917228D01*
X139181701Y-146408706D01*
X139120378Y-146442191D01*
X139050686Y-146437207D01*
X138994753Y-146395335D01*
X138976089Y-146359344D01*
X138919755Y-146185968D01*
X138826859Y-146003650D01*
X138794474Y-145959077D01*
X138794474Y-145959076D01*
X138115000Y-146638553D01*
X138115000Y-146632339D01*
X138087741Y-146530606D01*
X138035080Y-146439394D01*
X137960606Y-146364920D01*
X137869394Y-146312259D01*
X137767661Y-146285000D01*
X137761446Y-146285000D01*
X138440922Y-145605524D01*
X138440921Y-145605523D01*
X138396359Y-145573147D01*
X138396350Y-145573141D01*
X138214031Y-145480244D01*
X138019417Y-145417009D01*
X137817317Y-145385000D01*
X137612683Y-145385000D01*
X137410582Y-145417009D01*
X137215968Y-145480244D01*
X137033644Y-145573143D01*
X136989077Y-145605523D01*
X136989077Y-145605524D01*
X137668554Y-146285000D01*
X137662339Y-146285000D01*
X137560606Y-146312259D01*
X137469394Y-146364920D01*
X137394920Y-146439394D01*
X137342259Y-146530606D01*
X137315000Y-146632339D01*
X137315000Y-146638553D01*
X136635524Y-145959077D01*
X136635523Y-145959077D01*
X136603143Y-146003644D01*
X136510244Y-146185968D01*
X136447009Y-146380582D01*
X136415000Y-146582682D01*
X136415000Y-146787317D01*
X136447009Y-146989417D01*
X136510244Y-147184031D01*
X136603141Y-147366350D01*
X136603147Y-147366359D01*
X136635523Y-147410921D01*
X136635524Y-147410922D01*
X137315000Y-146731446D01*
X137315000Y-146737661D01*
X137342259Y-146839394D01*
X137394920Y-146930606D01*
X137469394Y-147005080D01*
X137560606Y-147057741D01*
X137662339Y-147085000D01*
X137668553Y-147085000D01*
X136989076Y-147764474D01*
X137033650Y-147796859D01*
X137215968Y-147889755D01*
X137389344Y-147946089D01*
X137447019Y-147985527D01*
X137474217Y-148049886D01*
X137462302Y-148118732D01*
X137438706Y-148151701D01*
X135712837Y-149877571D01*
X135651514Y-149911056D01*
X135586838Y-149907821D01*
X135579219Y-149905345D01*
X135571241Y-149902753D01*
X135400797Y-149875757D01*
X135361287Y-149869500D01*
X135148713Y-149869500D01*
X135100042Y-149877208D01*
X134938760Y-149902753D01*
X134736585Y-149968444D01*
X134547179Y-150064951D01*
X134375213Y-150189890D01*
X134224890Y-150340213D01*
X134099949Y-150512182D01*
X134095484Y-150520946D01*
X134047509Y-150571742D01*
X133979688Y-150588536D01*
X133913553Y-150565998D01*
X133874516Y-150520946D01*
X133870050Y-150512182D01*
X133745109Y-150340213D01*
X133594786Y-150189890D01*
X133422820Y-150064951D01*
X133233414Y-149968444D01*
X133233413Y-149968443D01*
X133233412Y-149968443D01*
X133031243Y-149902754D01*
X133031241Y-149902753D01*
X133031240Y-149902753D01*
X132869957Y-149877208D01*
X132821287Y-149869500D01*
X132608713Y-149869500D01*
X132560042Y-149877208D01*
X132398760Y-149902753D01*
X132196585Y-149968444D01*
X132007179Y-150064951D01*
X131835213Y-150189890D01*
X131684890Y-150340213D01*
X131559949Y-150512182D01*
X131555484Y-150520946D01*
X131507509Y-150571742D01*
X131439688Y-150588536D01*
X131373553Y-150565998D01*
X131334516Y-150520946D01*
X131330050Y-150512182D01*
X131205109Y-150340213D01*
X131054786Y-150189890D01*
X130882820Y-150064951D01*
X130693414Y-149968444D01*
X130693413Y-149968443D01*
X130693412Y-149968443D01*
X130491243Y-149902754D01*
X130491241Y-149902753D01*
X130491240Y-149902753D01*
X130329957Y-149877208D01*
X130281287Y-149869500D01*
X130068713Y-149869500D01*
X130020042Y-149877208D01*
X129858760Y-149902753D01*
X129656585Y-149968444D01*
X129467179Y-150064951D01*
X129295213Y-150189890D01*
X129144890Y-150340213D01*
X129019949Y-150512182D01*
X129015484Y-150520946D01*
X128967509Y-150571742D01*
X128899688Y-150588536D01*
X128833553Y-150565998D01*
X128794516Y-150520946D01*
X128790050Y-150512182D01*
X128665109Y-150340213D01*
X128514786Y-150189890D01*
X128342820Y-150064951D01*
X128153414Y-149968444D01*
X128153413Y-149968443D01*
X128153412Y-149968443D01*
X127951243Y-149902754D01*
X127951241Y-149902753D01*
X127951240Y-149902753D01*
X127789957Y-149877208D01*
X127741287Y-149869500D01*
X127528713Y-149869500D01*
X127480042Y-149877208D01*
X127318760Y-149902753D01*
X127116585Y-149968444D01*
X126927179Y-150064951D01*
X126755213Y-150189890D01*
X126604890Y-150340213D01*
X126479949Y-150512182D01*
X126475484Y-150520946D01*
X126427509Y-150571742D01*
X126359688Y-150588536D01*
X126293553Y-150565998D01*
X126254516Y-150520946D01*
X126250050Y-150512182D01*
X126125109Y-150340213D01*
X125974786Y-150189890D01*
X125802820Y-150064951D01*
X125613414Y-149968444D01*
X125613413Y-149968443D01*
X125613412Y-149968443D01*
X125411243Y-149902754D01*
X125411241Y-149902753D01*
X125411240Y-149902753D01*
X125249957Y-149877208D01*
X125201287Y-149869500D01*
X124988713Y-149869500D01*
X124940042Y-149877208D01*
X124778760Y-149902753D01*
X124576585Y-149968444D01*
X124387179Y-150064951D01*
X124215213Y-150189890D01*
X124064890Y-150340213D01*
X123939949Y-150512182D01*
X123935484Y-150520946D01*
X123887509Y-150571742D01*
X123819688Y-150588536D01*
X123753553Y-150565998D01*
X123714516Y-150520946D01*
X123710050Y-150512182D01*
X123585109Y-150340213D01*
X123434786Y-150189890D01*
X123262820Y-150064951D01*
X123073414Y-149968444D01*
X123073413Y-149968443D01*
X123073412Y-149968443D01*
X122871243Y-149902754D01*
X122871241Y-149902753D01*
X122871240Y-149902753D01*
X122709957Y-149877208D01*
X122661287Y-149869500D01*
X122448713Y-149869500D01*
X122400042Y-149877208D01*
X122238760Y-149902753D01*
X122036585Y-149968444D01*
X121847179Y-150064951D01*
X121675213Y-150189890D01*
X121524890Y-150340213D01*
X121399949Y-150512182D01*
X121395484Y-150520946D01*
X121347509Y-150571742D01*
X121279688Y-150588536D01*
X121213553Y-150565998D01*
X121174516Y-150520946D01*
X121170050Y-150512182D01*
X121045109Y-150340213D01*
X120894786Y-150189890D01*
X120722820Y-150064951D01*
X120533414Y-149968444D01*
X120533413Y-149968443D01*
X120533412Y-149968443D01*
X120331243Y-149902754D01*
X120331241Y-149902753D01*
X120331240Y-149902753D01*
X120169957Y-149877208D01*
X120121287Y-149869500D01*
X119908713Y-149869500D01*
X119860042Y-149877208D01*
X119698760Y-149902753D01*
X119496585Y-149968444D01*
X119307179Y-150064951D01*
X119135213Y-150189890D01*
X118984890Y-150340213D01*
X118859949Y-150512182D01*
X118855484Y-150520946D01*
X118807509Y-150571742D01*
X118739688Y-150588536D01*
X118673553Y-150565998D01*
X118634516Y-150520946D01*
X118630050Y-150512182D01*
X118505109Y-150340213D01*
X118354786Y-150189890D01*
X118182820Y-150064951D01*
X117993414Y-149968444D01*
X117993413Y-149968443D01*
X117993412Y-149968443D01*
X117791243Y-149902754D01*
X117791241Y-149902753D01*
X117791240Y-149902753D01*
X117629957Y-149877208D01*
X117581287Y-149869500D01*
X117368713Y-149869500D01*
X117320042Y-149877208D01*
X117158760Y-149902753D01*
X116956585Y-149968444D01*
X116767179Y-150064951D01*
X116595213Y-150189890D01*
X116444890Y-150340213D01*
X116319949Y-150512182D01*
X116315484Y-150520946D01*
X116267509Y-150571742D01*
X116199688Y-150588536D01*
X116133553Y-150565998D01*
X116094516Y-150520946D01*
X116090050Y-150512182D01*
X115965109Y-150340213D01*
X115814786Y-150189890D01*
X115642820Y-150064951D01*
X115453414Y-149968444D01*
X115453413Y-149968443D01*
X115453412Y-149968443D01*
X115251243Y-149902754D01*
X115251241Y-149902753D01*
X115251240Y-149902753D01*
X115089957Y-149877208D01*
X115041287Y-149869500D01*
X114828713Y-149869500D01*
X114780042Y-149877208D01*
X114618760Y-149902753D01*
X114416585Y-149968444D01*
X114227179Y-150064951D01*
X114055213Y-150189890D01*
X113904890Y-150340213D01*
X113779949Y-150512182D01*
X113775484Y-150520946D01*
X113727509Y-150571742D01*
X113659688Y-150588536D01*
X113593553Y-150565998D01*
X113554516Y-150520946D01*
X113550050Y-150512182D01*
X113425109Y-150340213D01*
X113274786Y-150189890D01*
X113102820Y-150064951D01*
X112913414Y-149968444D01*
X112913413Y-149968443D01*
X112913412Y-149968443D01*
X112711243Y-149902754D01*
X112711241Y-149902753D01*
X112711240Y-149902753D01*
X112549957Y-149877208D01*
X112501287Y-149869500D01*
X112288713Y-149869500D01*
X112240042Y-149877208D01*
X112078760Y-149902753D01*
X111876585Y-149968444D01*
X111687179Y-150064951D01*
X111515213Y-150189890D01*
X111364890Y-150340213D01*
X111239949Y-150512182D01*
X111235484Y-150520946D01*
X111187509Y-150571742D01*
X111119688Y-150588536D01*
X111053553Y-150565998D01*
X111014516Y-150520946D01*
X111010050Y-150512182D01*
X110885109Y-150340213D01*
X110734786Y-150189890D01*
X110562820Y-150064951D01*
X110373414Y-149968444D01*
X110373413Y-149968443D01*
X110373412Y-149968443D01*
X110171243Y-149902754D01*
X110171241Y-149902753D01*
X110171240Y-149902753D01*
X110009957Y-149877208D01*
X109961287Y-149869500D01*
X109748713Y-149869500D01*
X109700042Y-149877208D01*
X109538760Y-149902753D01*
X109336585Y-149968444D01*
X109147179Y-150064951D01*
X108975213Y-150189890D01*
X108824890Y-150340213D01*
X108699949Y-150512182D01*
X108695484Y-150520946D01*
X108647509Y-150571742D01*
X108579688Y-150588536D01*
X108513553Y-150565998D01*
X108474516Y-150520946D01*
X108470050Y-150512182D01*
X108345109Y-150340213D01*
X108194786Y-150189890D01*
X108022820Y-150064951D01*
X107833414Y-149968444D01*
X107833413Y-149968443D01*
X107833412Y-149968443D01*
X107631243Y-149902754D01*
X107631241Y-149902753D01*
X107631240Y-149902753D01*
X107469957Y-149877208D01*
X107421287Y-149869500D01*
X107208713Y-149869500D01*
X107160042Y-149877208D01*
X106998760Y-149902753D01*
X106796585Y-149968444D01*
X106607179Y-150064951D01*
X106435213Y-150189890D01*
X106284890Y-150340213D01*
X106159949Y-150512182D01*
X106155484Y-150520946D01*
X106107509Y-150571742D01*
X106039688Y-150588536D01*
X105973553Y-150565998D01*
X105934516Y-150520946D01*
X105930050Y-150512182D01*
X105805109Y-150340213D01*
X105654786Y-150189890D01*
X105482820Y-150064951D01*
X105293414Y-149968444D01*
X105293413Y-149968443D01*
X105293412Y-149968443D01*
X105091243Y-149902754D01*
X105091241Y-149902753D01*
X105091240Y-149902753D01*
X104929957Y-149877208D01*
X104881287Y-149869500D01*
X104668713Y-149869500D01*
X104620042Y-149877208D01*
X104458760Y-149902753D01*
X104256585Y-149968444D01*
X104067179Y-150064951D01*
X103895213Y-150189890D01*
X103744890Y-150340213D01*
X103619949Y-150512182D01*
X103615484Y-150520946D01*
X103567509Y-150571742D01*
X103499688Y-150588536D01*
X103433553Y-150565998D01*
X103394516Y-150520946D01*
X103390050Y-150512182D01*
X103265109Y-150340213D01*
X103114786Y-150189890D01*
X102942820Y-150064951D01*
X102753414Y-149968444D01*
X102753413Y-149968443D01*
X102753412Y-149968443D01*
X102551243Y-149902754D01*
X102551241Y-149902753D01*
X102551240Y-149902753D01*
X102389957Y-149877208D01*
X102341287Y-149869500D01*
X102128713Y-149869500D01*
X102080042Y-149877208D01*
X101918760Y-149902753D01*
X101716585Y-149968444D01*
X101527179Y-150064951D01*
X101355213Y-150189890D01*
X101204890Y-150340213D01*
X101079949Y-150512182D01*
X101075484Y-150520946D01*
X101027509Y-150571742D01*
X100959688Y-150588536D01*
X100893553Y-150565998D01*
X100854516Y-150520946D01*
X100850050Y-150512182D01*
X100725109Y-150340213D01*
X100574786Y-150189890D01*
X100402820Y-150064951D01*
X100213414Y-149968444D01*
X100213413Y-149968443D01*
X100213412Y-149968443D01*
X100011243Y-149902754D01*
X100011241Y-149902753D01*
X100011240Y-149902753D01*
X99849957Y-149877208D01*
X99801287Y-149869500D01*
X99588713Y-149869500D01*
X99540042Y-149877208D01*
X99378760Y-149902753D01*
X99176585Y-149968444D01*
X98987179Y-150064951D01*
X98815213Y-150189890D01*
X98664890Y-150340213D01*
X98539949Y-150512182D01*
X98535484Y-150520946D01*
X98487509Y-150571742D01*
X98419688Y-150588536D01*
X98353553Y-150565998D01*
X98314516Y-150520946D01*
X98310050Y-150512182D01*
X98185109Y-150340213D01*
X98034786Y-150189890D01*
X97862820Y-150064951D01*
X97673414Y-149968444D01*
X97673413Y-149968443D01*
X97673412Y-149968443D01*
X97471243Y-149902754D01*
X97471241Y-149902753D01*
X97471240Y-149902753D01*
X97309957Y-149877208D01*
X97261287Y-149869500D01*
X97048713Y-149869500D01*
X97000042Y-149877208D01*
X96838760Y-149902753D01*
X96636585Y-149968444D01*
X96447179Y-150064951D01*
X96275213Y-150189890D01*
X96124890Y-150340213D01*
X95999949Y-150512182D01*
X95995484Y-150520946D01*
X95947509Y-150571742D01*
X95879688Y-150588536D01*
X95813553Y-150565998D01*
X95774516Y-150520946D01*
X95770050Y-150512182D01*
X95645109Y-150340213D01*
X95494786Y-150189890D01*
X95322820Y-150064951D01*
X95133414Y-149968444D01*
X95133413Y-149968443D01*
X95133412Y-149968443D01*
X94931243Y-149902754D01*
X94931241Y-149902753D01*
X94931240Y-149902753D01*
X94769957Y-149877208D01*
X94721287Y-149869500D01*
X94508713Y-149869500D01*
X94460042Y-149877208D01*
X94298760Y-149902753D01*
X94096585Y-149968444D01*
X93907179Y-150064951D01*
X93735213Y-150189890D01*
X93584890Y-150340213D01*
X93459949Y-150512182D01*
X93455484Y-150520946D01*
X93407509Y-150571742D01*
X93339688Y-150588536D01*
X93273553Y-150565998D01*
X93234516Y-150520946D01*
X93230050Y-150512182D01*
X93105109Y-150340213D01*
X92954786Y-150189890D01*
X92782820Y-150064951D01*
X92593414Y-149968444D01*
X92593413Y-149968443D01*
X92593412Y-149968443D01*
X92391243Y-149902754D01*
X92391241Y-149902753D01*
X92391240Y-149902753D01*
X92229957Y-149877208D01*
X92181287Y-149869500D01*
X91968713Y-149869500D01*
X91920042Y-149877208D01*
X91758760Y-149902753D01*
X91556585Y-149968444D01*
X91367179Y-150064951D01*
X91195213Y-150189890D01*
X91044890Y-150340213D01*
X90919949Y-150512182D01*
X90915484Y-150520946D01*
X90867509Y-150571742D01*
X90799688Y-150588536D01*
X90733553Y-150565998D01*
X90694516Y-150520946D01*
X90690050Y-150512182D01*
X90565109Y-150340213D01*
X90414786Y-150189890D01*
X90242820Y-150064951D01*
X90053414Y-149968444D01*
X90053413Y-149968443D01*
X90053412Y-149968443D01*
X89851243Y-149902754D01*
X89851241Y-149902753D01*
X89851240Y-149902753D01*
X89689957Y-149877208D01*
X89641287Y-149869500D01*
X89428713Y-149869500D01*
X89380042Y-149877208D01*
X89218760Y-149902753D01*
X89016585Y-149968444D01*
X88827179Y-150064951D01*
X88655213Y-150189890D01*
X88504890Y-150340213D01*
X88379951Y-150512179D01*
X88283444Y-150701585D01*
X88217753Y-150903760D01*
X88184500Y-151113713D01*
X88184500Y-151326286D01*
X88217753Y-151536239D01*
X88283444Y-151738414D01*
X88379951Y-151927820D01*
X88504890Y-152099786D01*
X88655213Y-152250109D01*
X88827182Y-152375050D01*
X88835946Y-152379516D01*
X88886742Y-152427491D01*
X88903536Y-152495312D01*
X88880998Y-152561447D01*
X88835946Y-152600484D01*
X88827182Y-152604949D01*
X88655213Y-152729890D01*
X88504890Y-152880213D01*
X88379951Y-153052179D01*
X88283444Y-153241585D01*
X88217753Y-153443760D01*
X88184500Y-153653713D01*
X88184500Y-153866286D01*
X88217753Y-154076239D01*
X88283444Y-154278414D01*
X88379951Y-154467820D01*
X88504890Y-154639786D01*
X88655213Y-154790109D01*
X88827179Y-154915048D01*
X88827181Y-154915049D01*
X88827184Y-154915051D01*
X89016588Y-155011557D01*
X89218757Y-155077246D01*
X89428713Y-155110500D01*
X89428714Y-155110500D01*
X89641286Y-155110500D01*
X89641287Y-155110500D01*
X89851243Y-155077246D01*
X90053412Y-155011557D01*
X90242816Y-154915051D01*
X90264789Y-154899086D01*
X90414786Y-154790109D01*
X90414788Y-154790106D01*
X90414792Y-154790104D01*
X90565104Y-154639792D01*
X90565106Y-154639788D01*
X90565109Y-154639786D01*
X90690048Y-154467820D01*
X90690047Y-154467820D01*
X90690051Y-154467816D01*
X90694514Y-154459054D01*
X90742488Y-154408259D01*
X90810308Y-154391463D01*
X90876444Y-154413999D01*
X90915486Y-154459056D01*
X90919951Y-154467820D01*
X91044890Y-154639786D01*
X91195213Y-154790109D01*
X91367179Y-154915048D01*
X91367181Y-154915049D01*
X91367184Y-154915051D01*
X91556588Y-155011557D01*
X91758757Y-155077246D01*
X91968713Y-155110500D01*
X91968714Y-155110500D01*
X92181286Y-155110500D01*
X92181287Y-155110500D01*
X92391243Y-155077246D01*
X92593412Y-155011557D01*
X92782816Y-154915051D01*
X92804789Y-154899086D01*
X92954786Y-154790109D01*
X92954788Y-154790106D01*
X92954792Y-154790104D01*
X93105104Y-154639792D01*
X93105106Y-154639788D01*
X93105109Y-154639786D01*
X93230048Y-154467820D01*
X93230047Y-154467820D01*
X93230051Y-154467816D01*
X93234514Y-154459054D01*
X93282488Y-154408259D01*
X93350308Y-154391463D01*
X93416444Y-154413999D01*
X93455486Y-154459056D01*
X93459951Y-154467820D01*
X93584890Y-154639786D01*
X93735213Y-154790109D01*
X93907179Y-154915048D01*
X93907181Y-154915049D01*
X93907184Y-154915051D01*
X94096588Y-155011557D01*
X94298757Y-155077246D01*
X94508713Y-155110500D01*
X94508714Y-155110500D01*
X94721286Y-155110500D01*
X94721287Y-155110500D01*
X94931243Y-155077246D01*
X95133412Y-155011557D01*
X95322816Y-154915051D01*
X95344789Y-154899086D01*
X95494786Y-154790109D01*
X95494788Y-154790106D01*
X95494792Y-154790104D01*
X95645104Y-154639792D01*
X95645106Y-154639788D01*
X95645109Y-154639786D01*
X95770048Y-154467820D01*
X95770047Y-154467820D01*
X95770051Y-154467816D01*
X95774514Y-154459054D01*
X95822488Y-154408259D01*
X95890308Y-154391463D01*
X95956444Y-154413999D01*
X95995486Y-154459056D01*
X95999951Y-154467820D01*
X96124890Y-154639786D01*
X96275213Y-154790109D01*
X96447179Y-154915048D01*
X96447181Y-154915049D01*
X96447184Y-154915051D01*
X96636588Y-155011557D01*
X96838757Y-155077246D01*
X97048713Y-155110500D01*
X97048714Y-155110500D01*
X97261286Y-155110500D01*
X97261287Y-155110500D01*
X97471243Y-155077246D01*
X97673412Y-155011557D01*
X97862816Y-154915051D01*
X97884789Y-154899086D01*
X98034786Y-154790109D01*
X98034788Y-154790106D01*
X98034792Y-154790104D01*
X98185104Y-154639792D01*
X98185106Y-154639788D01*
X98185109Y-154639786D01*
X98310048Y-154467820D01*
X98310047Y-154467820D01*
X98310051Y-154467816D01*
X98314514Y-154459054D01*
X98362488Y-154408259D01*
X98430308Y-154391463D01*
X98496444Y-154413999D01*
X98535486Y-154459056D01*
X98539951Y-154467820D01*
X98664890Y-154639786D01*
X98815213Y-154790109D01*
X98987179Y-154915048D01*
X98987181Y-154915049D01*
X98987184Y-154915051D01*
X99176588Y-155011557D01*
X99378757Y-155077246D01*
X99588713Y-155110500D01*
X99588714Y-155110500D01*
X99801286Y-155110500D01*
X99801287Y-155110500D01*
X100011243Y-155077246D01*
X100213412Y-155011557D01*
X100402816Y-154915051D01*
X100424789Y-154899086D01*
X100574786Y-154790109D01*
X100574788Y-154790106D01*
X100574792Y-154790104D01*
X100725104Y-154639792D01*
X100725106Y-154639788D01*
X100725109Y-154639786D01*
X100850048Y-154467820D01*
X100850047Y-154467820D01*
X100850051Y-154467816D01*
X100854514Y-154459054D01*
X100902488Y-154408259D01*
X100970308Y-154391463D01*
X101036444Y-154413999D01*
X101075486Y-154459056D01*
X101079951Y-154467820D01*
X101204890Y-154639786D01*
X101355213Y-154790109D01*
X101527179Y-154915048D01*
X101527181Y-154915049D01*
X101527184Y-154915051D01*
X101716588Y-155011557D01*
X101918757Y-155077246D01*
X102128713Y-155110500D01*
X102128714Y-155110500D01*
X102341286Y-155110500D01*
X102341287Y-155110500D01*
X102551243Y-155077246D01*
X102753412Y-155011557D01*
X102942816Y-154915051D01*
X102964789Y-154899086D01*
X103114786Y-154790109D01*
X103114788Y-154790106D01*
X103114792Y-154790104D01*
X103265104Y-154639792D01*
X103265106Y-154639788D01*
X103265109Y-154639786D01*
X103390048Y-154467820D01*
X103390047Y-154467820D01*
X103390051Y-154467816D01*
X103394514Y-154459054D01*
X103442488Y-154408259D01*
X103510308Y-154391463D01*
X103576444Y-154413999D01*
X103615486Y-154459056D01*
X103619951Y-154467820D01*
X103744890Y-154639786D01*
X103895213Y-154790109D01*
X104067179Y-154915048D01*
X104067181Y-154915049D01*
X104067184Y-154915051D01*
X104256588Y-155011557D01*
X104458757Y-155077246D01*
X104668713Y-155110500D01*
X104668714Y-155110500D01*
X104881286Y-155110500D01*
X104881287Y-155110500D01*
X105091243Y-155077246D01*
X105293412Y-155011557D01*
X105482816Y-154915051D01*
X105504789Y-154899086D01*
X105654786Y-154790109D01*
X105654788Y-154790106D01*
X105654792Y-154790104D01*
X105805104Y-154639792D01*
X105805106Y-154639788D01*
X105805109Y-154639786D01*
X105930048Y-154467820D01*
X105930047Y-154467820D01*
X105930051Y-154467816D01*
X105934514Y-154459054D01*
X105982488Y-154408259D01*
X106050308Y-154391463D01*
X106116444Y-154413999D01*
X106155486Y-154459056D01*
X106159951Y-154467820D01*
X106284890Y-154639786D01*
X106435213Y-154790109D01*
X106607179Y-154915048D01*
X106607181Y-154915049D01*
X106607184Y-154915051D01*
X106796588Y-155011557D01*
X106998757Y-155077246D01*
X107208713Y-155110500D01*
X107208714Y-155110500D01*
X107421286Y-155110500D01*
X107421287Y-155110500D01*
X107631243Y-155077246D01*
X107833412Y-155011557D01*
X108022816Y-154915051D01*
X108044789Y-154899086D01*
X108194786Y-154790109D01*
X108194788Y-154790106D01*
X108194792Y-154790104D01*
X108345104Y-154639792D01*
X108345106Y-154639788D01*
X108345109Y-154639786D01*
X108470048Y-154467820D01*
X108470047Y-154467820D01*
X108470051Y-154467816D01*
X108474514Y-154459054D01*
X108522488Y-154408259D01*
X108590308Y-154391463D01*
X108656444Y-154413999D01*
X108695486Y-154459056D01*
X108699951Y-154467820D01*
X108824890Y-154639786D01*
X108975213Y-154790109D01*
X109147179Y-154915048D01*
X109147181Y-154915049D01*
X109147184Y-154915051D01*
X109336588Y-155011557D01*
X109538757Y-155077246D01*
X109748713Y-155110500D01*
X109748714Y-155110500D01*
X109961286Y-155110500D01*
X109961287Y-155110500D01*
X110171243Y-155077246D01*
X110373412Y-155011557D01*
X110562816Y-154915051D01*
X110584789Y-154899086D01*
X110734786Y-154790109D01*
X110734788Y-154790106D01*
X110734792Y-154790104D01*
X110885104Y-154639792D01*
X110885106Y-154639788D01*
X110885109Y-154639786D01*
X111010048Y-154467820D01*
X111010047Y-154467820D01*
X111010051Y-154467816D01*
X111014514Y-154459054D01*
X111062488Y-154408259D01*
X111130308Y-154391463D01*
X111196444Y-154413999D01*
X111235486Y-154459056D01*
X111239951Y-154467820D01*
X111364890Y-154639786D01*
X111515213Y-154790109D01*
X111687179Y-154915048D01*
X111687181Y-154915049D01*
X111687184Y-154915051D01*
X111876588Y-155011557D01*
X112078757Y-155077246D01*
X112288713Y-155110500D01*
X112288714Y-155110500D01*
X112501286Y-155110500D01*
X112501287Y-155110500D01*
X112711243Y-155077246D01*
X112913412Y-155011557D01*
X113102816Y-154915051D01*
X113124789Y-154899086D01*
X113274786Y-154790109D01*
X113274788Y-154790106D01*
X113274792Y-154790104D01*
X113425104Y-154639792D01*
X113425106Y-154639788D01*
X113425109Y-154639786D01*
X113550048Y-154467820D01*
X113550047Y-154467820D01*
X113550051Y-154467816D01*
X113554514Y-154459054D01*
X113602488Y-154408259D01*
X113670308Y-154391463D01*
X113736444Y-154413999D01*
X113775486Y-154459056D01*
X113779951Y-154467820D01*
X113904890Y-154639786D01*
X114055213Y-154790109D01*
X114227179Y-154915048D01*
X114227181Y-154915049D01*
X114227184Y-154915051D01*
X114416588Y-155011557D01*
X114618757Y-155077246D01*
X114828713Y-155110500D01*
X114828714Y-155110500D01*
X115041286Y-155110500D01*
X115041287Y-155110500D01*
X115251243Y-155077246D01*
X115453412Y-155011557D01*
X115642816Y-154915051D01*
X115664789Y-154899086D01*
X115814786Y-154790109D01*
X115814788Y-154790106D01*
X115814792Y-154790104D01*
X115965104Y-154639792D01*
X115965106Y-154639788D01*
X115965109Y-154639786D01*
X116090048Y-154467820D01*
X116090047Y-154467820D01*
X116090051Y-154467816D01*
X116094514Y-154459054D01*
X116142488Y-154408259D01*
X116210308Y-154391463D01*
X116276444Y-154413999D01*
X116315486Y-154459056D01*
X116319951Y-154467820D01*
X116444890Y-154639786D01*
X116595213Y-154790109D01*
X116767179Y-154915048D01*
X116767181Y-154915049D01*
X116767184Y-154915051D01*
X116956588Y-155011557D01*
X117158757Y-155077246D01*
X117368713Y-155110500D01*
X117368714Y-155110500D01*
X117581286Y-155110500D01*
X117581287Y-155110500D01*
X117791243Y-155077246D01*
X117993412Y-155011557D01*
X118182816Y-154915051D01*
X118204789Y-154899086D01*
X118354786Y-154790109D01*
X118354788Y-154790106D01*
X118354792Y-154790104D01*
X118505104Y-154639792D01*
X118505106Y-154639788D01*
X118505109Y-154639786D01*
X118630048Y-154467820D01*
X118630047Y-154467820D01*
X118630051Y-154467816D01*
X118634514Y-154459054D01*
X118682488Y-154408259D01*
X118750308Y-154391463D01*
X118816444Y-154413999D01*
X118855486Y-154459056D01*
X118859951Y-154467820D01*
X118984890Y-154639786D01*
X119135213Y-154790109D01*
X119307179Y-154915048D01*
X119307181Y-154915049D01*
X119307184Y-154915051D01*
X119496588Y-155011557D01*
X119698757Y-155077246D01*
X119908713Y-155110500D01*
X119908714Y-155110500D01*
X120121286Y-155110500D01*
X120121287Y-155110500D01*
X120331243Y-155077246D01*
X120533412Y-155011557D01*
X120722816Y-154915051D01*
X120744789Y-154899086D01*
X120894786Y-154790109D01*
X120894788Y-154790106D01*
X120894792Y-154790104D01*
X121045104Y-154639792D01*
X121045106Y-154639788D01*
X121045109Y-154639786D01*
X121170048Y-154467820D01*
X121170047Y-154467820D01*
X121170051Y-154467816D01*
X121174514Y-154459054D01*
X121222488Y-154408259D01*
X121290308Y-154391463D01*
X121356444Y-154413999D01*
X121395486Y-154459056D01*
X121399951Y-154467820D01*
X121524890Y-154639786D01*
X121675213Y-154790109D01*
X121847179Y-154915048D01*
X121847181Y-154915049D01*
X121847184Y-154915051D01*
X122036588Y-155011557D01*
X122238757Y-155077246D01*
X122448713Y-155110500D01*
X122448714Y-155110500D01*
X122661286Y-155110500D01*
X122661287Y-155110500D01*
X122871243Y-155077246D01*
X123073412Y-155011557D01*
X123262816Y-154915051D01*
X123284789Y-154899086D01*
X123434786Y-154790109D01*
X123434788Y-154790106D01*
X123434792Y-154790104D01*
X123585104Y-154639792D01*
X123585106Y-154639788D01*
X123585109Y-154639786D01*
X123710048Y-154467820D01*
X123710047Y-154467820D01*
X123710051Y-154467816D01*
X123714514Y-154459054D01*
X123762488Y-154408259D01*
X123830308Y-154391463D01*
X123896444Y-154413999D01*
X123935486Y-154459056D01*
X123939951Y-154467820D01*
X124064890Y-154639786D01*
X124215213Y-154790109D01*
X124387179Y-154915048D01*
X124387181Y-154915049D01*
X124387184Y-154915051D01*
X124576588Y-155011557D01*
X124778757Y-155077246D01*
X124988713Y-155110500D01*
X124988714Y-155110500D01*
X125201286Y-155110500D01*
X125201287Y-155110500D01*
X125411243Y-155077246D01*
X125613412Y-155011557D01*
X125802816Y-154915051D01*
X125824789Y-154899086D01*
X125974786Y-154790109D01*
X125974788Y-154790106D01*
X125974792Y-154790104D01*
X126125104Y-154639792D01*
X126125106Y-154639788D01*
X126125109Y-154639786D01*
X126250048Y-154467820D01*
X126250047Y-154467820D01*
X126250051Y-154467816D01*
X126254514Y-154459054D01*
X126302488Y-154408259D01*
X126370308Y-154391463D01*
X126436444Y-154413999D01*
X126475486Y-154459056D01*
X126479951Y-154467820D01*
X126604890Y-154639786D01*
X126755213Y-154790109D01*
X126927179Y-154915048D01*
X126927181Y-154915049D01*
X126927184Y-154915051D01*
X127116588Y-155011557D01*
X127318757Y-155077246D01*
X127528713Y-155110500D01*
X127528714Y-155110500D01*
X127741286Y-155110500D01*
X127741287Y-155110500D01*
X127951243Y-155077246D01*
X128153412Y-155011557D01*
X128342816Y-154915051D01*
X128364789Y-154899086D01*
X128514786Y-154790109D01*
X128514788Y-154790106D01*
X128514792Y-154790104D01*
X128665104Y-154639792D01*
X128665106Y-154639788D01*
X128665109Y-154639786D01*
X128790048Y-154467820D01*
X128790047Y-154467820D01*
X128790051Y-154467816D01*
X128794514Y-154459054D01*
X128842488Y-154408259D01*
X128910308Y-154391463D01*
X128976444Y-154413999D01*
X129015486Y-154459056D01*
X129019951Y-154467820D01*
X129144890Y-154639786D01*
X129295213Y-154790109D01*
X129467179Y-154915048D01*
X129467181Y-154915049D01*
X129467184Y-154915051D01*
X129656588Y-155011557D01*
X129858757Y-155077246D01*
X130068713Y-155110500D01*
X130068714Y-155110500D01*
X130281286Y-155110500D01*
X130281287Y-155110500D01*
X130491243Y-155077246D01*
X130693412Y-155011557D01*
X130882816Y-154915051D01*
X130904789Y-154899086D01*
X131054786Y-154790109D01*
X131054788Y-154790106D01*
X131054792Y-154790104D01*
X131205104Y-154639792D01*
X131205106Y-154639788D01*
X131205109Y-154639786D01*
X131330048Y-154467820D01*
X131330047Y-154467820D01*
X131330051Y-154467816D01*
X131334514Y-154459054D01*
X131382488Y-154408259D01*
X131450308Y-154391463D01*
X131516444Y-154413999D01*
X131555486Y-154459056D01*
X131559951Y-154467820D01*
X131684890Y-154639786D01*
X131835213Y-154790109D01*
X132007179Y-154915048D01*
X132007181Y-154915049D01*
X132007184Y-154915051D01*
X132196588Y-155011557D01*
X132398757Y-155077246D01*
X132608713Y-155110500D01*
X132608714Y-155110500D01*
X132821286Y-155110500D01*
X132821287Y-155110500D01*
X133031243Y-155077246D01*
X133233412Y-155011557D01*
X133422816Y-154915051D01*
X133444789Y-154899086D01*
X133594786Y-154790109D01*
X133594788Y-154790106D01*
X133594792Y-154790104D01*
X133745104Y-154639792D01*
X133745106Y-154639788D01*
X133745109Y-154639786D01*
X133870048Y-154467820D01*
X133870047Y-154467820D01*
X133870051Y-154467816D01*
X133874514Y-154459054D01*
X133922488Y-154408259D01*
X133990308Y-154391463D01*
X134056444Y-154413999D01*
X134095486Y-154459056D01*
X134099951Y-154467820D01*
X134224890Y-154639786D01*
X134375213Y-154790109D01*
X134547179Y-154915048D01*
X134547181Y-154915049D01*
X134547184Y-154915051D01*
X134736588Y-155011557D01*
X134938757Y-155077246D01*
X135148713Y-155110500D01*
X135148714Y-155110500D01*
X135361286Y-155110500D01*
X135361287Y-155110500D01*
X135571243Y-155077246D01*
X135586837Y-155072178D01*
X135656676Y-155070182D01*
X135712837Y-155102428D01*
X136671263Y-156060855D01*
X136671267Y-156060858D01*
X136773710Y-156129309D01*
X136773711Y-156129309D01*
X136773715Y-156129312D01*
X136840397Y-156156932D01*
X136887548Y-156176463D01*
X136907597Y-156180451D01*
X136972624Y-156193385D01*
X137008392Y-156200501D01*
X137008394Y-156200501D01*
X137137721Y-156200501D01*
X137137741Y-156200500D01*
X138415665Y-156200500D01*
X138476087Y-156188481D01*
X138536510Y-156176463D01*
X138569850Y-156162652D01*
X138650344Y-156129312D01*
X138701567Y-156095084D01*
X138752791Y-156060858D01*
X138839916Y-155973733D01*
X138839917Y-155973731D01*
X138846983Y-155966665D01*
X138846986Y-155966661D01*
X158513729Y-136299918D01*
X158513733Y-136299916D01*
X158600858Y-136212791D01*
X158669311Y-136110344D01*
X158716463Y-135996510D01*
X158740500Y-135875664D01*
X158740500Y-126951313D01*
X158760185Y-126884274D01*
X158812989Y-126838519D01*
X158882147Y-126828575D01*
X158920798Y-126840830D01*
X158924168Y-126842547D01*
X159052590Y-126884274D01*
X159103881Y-126900940D01*
X159290514Y-126930500D01*
X159290519Y-126930500D01*
X159479486Y-126930500D01*
X159666118Y-126900940D01*
X159717410Y-126884274D01*
X159845832Y-126842547D01*
X160014199Y-126756760D01*
X160167073Y-126645690D01*
X160300690Y-126512073D01*
X160411760Y-126359199D01*
X160497547Y-126190832D01*
X160555940Y-126011118D01*
X160563254Y-125964938D01*
X160585500Y-125824486D01*
X160585500Y-125635513D01*
X160555940Y-125448881D01*
X160497545Y-125269163D01*
X160452290Y-125180347D01*
X160411760Y-125100801D01*
X160300690Y-124947927D01*
X160167073Y-124814310D01*
X160062089Y-124738034D01*
X160061614Y-124737689D01*
X160018949Y-124682358D01*
X160010500Y-124637371D01*
X160010500Y-121742628D01*
X160030185Y-121675589D01*
X160061611Y-121642312D01*
X160167073Y-121565690D01*
X160300690Y-121432073D01*
X160411760Y-121279199D01*
X160497547Y-121110832D01*
X160555940Y-120931118D01*
X160563482Y-120883500D01*
X160585500Y-120744486D01*
X160585500Y-120555513D01*
X160555940Y-120368881D01*
X160514705Y-120241976D01*
X160497547Y-120189168D01*
X160497545Y-120189165D01*
X160497545Y-120189163D01*
X160452290Y-120100347D01*
X160411760Y-120020801D01*
X160300690Y-119867927D01*
X160167073Y-119734310D01*
X160062089Y-119658034D01*
X160061614Y-119657689D01*
X160018949Y-119602358D01*
X160010500Y-119557371D01*
X160010500Y-116662628D01*
X160030185Y-116595589D01*
X160061611Y-116562312D01*
X160167073Y-116485690D01*
X160300690Y-116352073D01*
X160411760Y-116199199D01*
X160497547Y-116030832D01*
X160555940Y-115851118D01*
X160576843Y-115719142D01*
X160585500Y-115664486D01*
X160585500Y-115475513D01*
X160555940Y-115288881D01*
X160524076Y-115190814D01*
X160497547Y-115109168D01*
X160497545Y-115109165D01*
X160497545Y-115109163D01*
X160422469Y-114961819D01*
X160411760Y-114940801D01*
X160300690Y-114787927D01*
X160167073Y-114654310D01*
X160062089Y-114578034D01*
X160061614Y-114577689D01*
X160018949Y-114522358D01*
X160010500Y-114477371D01*
X160010500Y-112968394D01*
X160002395Y-112927648D01*
X159986463Y-112847548D01*
X159939311Y-112733714D01*
X159916390Y-112699411D01*
X159870857Y-112631265D01*
X159870854Y-112631262D01*
X158147218Y-110907628D01*
X158113733Y-110846305D01*
X158114241Y-110799588D01*
X158112715Y-110799347D01*
X158145500Y-110592351D01*
X158145500Y-110387648D01*
X158113477Y-110185465D01*
X158054561Y-110004142D01*
X158050220Y-109990781D01*
X158050218Y-109990778D01*
X158050218Y-109990776D01*
X158016503Y-109924607D01*
X157957287Y-109808390D01*
X157906354Y-109738286D01*
X157836971Y-109642786D01*
X157692213Y-109498028D01*
X157526613Y-109377715D01*
X157526612Y-109377714D01*
X157526610Y-109377713D01*
X157457083Y-109342287D01*
X157344223Y-109284781D01*
X157149534Y-109221522D01*
X156974995Y-109193878D01*
X156947352Y-109189500D01*
X156742648Y-109189500D01*
X156718329Y-109193351D01*
X156540465Y-109221522D01*
X156345776Y-109284781D01*
X156163386Y-109377715D01*
X155997786Y-109498028D01*
X155853032Y-109642782D01*
X155853028Y-109642787D01*
X155819900Y-109688385D01*
X155764571Y-109731051D01*
X155719582Y-109739500D01*
X154795418Y-109739500D01*
X154728379Y-109719815D01*
X154695100Y-109688385D01*
X154661971Y-109642787D01*
X154661967Y-109642782D01*
X154517213Y-109498028D01*
X154351614Y-109377715D01*
X154340303Y-109371952D01*
X154258917Y-109330483D01*
X154208123Y-109282511D01*
X154191328Y-109214690D01*
X154213865Y-109148555D01*
X154258917Y-109109516D01*
X154351610Y-109062287D01*
X154455919Y-108986503D01*
X154517213Y-108941971D01*
X154517215Y-108941968D01*
X154517219Y-108941966D01*
X154661966Y-108797219D01*
X154661968Y-108797215D01*
X154661971Y-108797213D01*
X154725547Y-108709707D01*
X154782287Y-108631610D01*
X154875220Y-108449219D01*
X154938477Y-108254534D01*
X154970500Y-108052352D01*
X154970500Y-107847648D01*
X154938477Y-107645466D01*
X154938476Y-107645464D01*
X154901730Y-107532371D01*
X154875220Y-107450781D01*
X154875218Y-107450778D01*
X154875218Y-107450776D01*
X154841503Y-107384607D01*
X154782287Y-107268390D01*
X154725544Y-107190289D01*
X154661971Y-107102786D01*
X154517213Y-106958028D01*
X154351614Y-106837715D01*
X154345006Y-106834348D01*
X154258917Y-106790483D01*
X154208123Y-106742511D01*
X154191328Y-106674690D01*
X154213865Y-106608555D01*
X154258917Y-106569516D01*
X154351610Y-106522287D01*
X154455919Y-106446503D01*
X154517213Y-106401971D01*
X154517215Y-106401968D01*
X154517219Y-106401966D01*
X154661966Y-106257219D01*
X154661968Y-106257215D01*
X154661971Y-106257213D01*
X154757528Y-106125688D01*
X154782287Y-106091610D01*
X154875220Y-105909219D01*
X154938477Y-105714534D01*
X154970500Y-105512352D01*
X154970500Y-105307648D01*
X154938477Y-105105466D01*
X154938476Y-105105464D01*
X154901730Y-104992371D01*
X154875220Y-104910781D01*
X154875218Y-104910778D01*
X154875218Y-104910776D01*
X154841503Y-104844607D01*
X154782287Y-104728390D01*
X154725544Y-104650289D01*
X154661971Y-104562786D01*
X154517213Y-104418028D01*
X154351614Y-104297715D01*
X154345006Y-104294348D01*
X154258917Y-104250483D01*
X154208123Y-104202511D01*
X154191328Y-104134690D01*
X154213865Y-104068555D01*
X154258917Y-104029516D01*
X154351610Y-103982287D01*
X154455919Y-103906503D01*
X154517213Y-103861971D01*
X154517215Y-103861968D01*
X154517219Y-103861966D01*
X154661966Y-103717219D01*
X154661968Y-103717215D01*
X154661971Y-103717213D01*
X154757528Y-103585688D01*
X154782287Y-103551610D01*
X154875220Y-103369219D01*
X154938477Y-103174534D01*
X154970500Y-102972352D01*
X154970500Y-102767648D01*
X154938477Y-102565466D01*
X154938476Y-102565464D01*
X154901730Y-102452371D01*
X154875220Y-102370781D01*
X154875218Y-102370778D01*
X154875218Y-102370776D01*
X154841503Y-102304607D01*
X154782287Y-102188390D01*
X154725544Y-102110289D01*
X154661971Y-102022786D01*
X154517213Y-101878028D01*
X154351614Y-101757715D01*
X154306458Y-101734707D01*
X154258917Y-101710483D01*
X154208123Y-101662511D01*
X154191328Y-101594690D01*
X154213865Y-101528555D01*
X154258917Y-101489516D01*
X154351610Y-101442287D01*
X154455919Y-101366503D01*
X154517213Y-101321971D01*
X154517215Y-101321968D01*
X154517219Y-101321966D01*
X154661966Y-101177219D01*
X154661968Y-101177215D01*
X154661971Y-101177213D01*
X154757528Y-101045688D01*
X154782287Y-101011610D01*
X154875220Y-100829219D01*
X154938477Y-100634534D01*
X154970500Y-100432352D01*
X154970500Y-100227648D01*
X154938477Y-100025466D01*
X154938476Y-100025464D01*
X154901730Y-99912371D01*
X154875220Y-99830781D01*
X154875218Y-99830778D01*
X154875218Y-99830776D01*
X154841503Y-99764607D01*
X154782287Y-99648390D01*
X154725544Y-99570289D01*
X154661971Y-99482786D01*
X154517213Y-99338028D01*
X154351614Y-99217715D01*
X154306458Y-99194707D01*
X154258917Y-99170483D01*
X154208123Y-99122511D01*
X154191328Y-99054690D01*
X154213865Y-98988555D01*
X154258917Y-98949516D01*
X154351610Y-98902287D01*
X154455919Y-98826503D01*
X154517213Y-98781971D01*
X154517215Y-98781968D01*
X154517219Y-98781966D01*
X154661966Y-98637219D01*
X154661968Y-98637215D01*
X154661971Y-98637213D01*
X154757293Y-98506011D01*
X154782287Y-98471610D01*
X154875220Y-98289219D01*
X154938477Y-98094534D01*
X154970500Y-97892352D01*
X154970500Y-97687648D01*
X154938477Y-97485466D01*
X154938476Y-97485464D01*
X154901730Y-97372371D01*
X154875220Y-97290781D01*
X154875218Y-97290778D01*
X154875218Y-97290776D01*
X154841503Y-97224607D01*
X154782287Y-97108390D01*
X154725544Y-97030289D01*
X154661971Y-96942786D01*
X154517213Y-96798028D01*
X154351614Y-96677715D01*
X154306458Y-96654707D01*
X154258917Y-96630483D01*
X154208123Y-96582511D01*
X154191328Y-96514690D01*
X154213865Y-96448555D01*
X154258917Y-96409516D01*
X154351610Y-96362287D01*
X154455919Y-96286503D01*
X154517213Y-96241971D01*
X154517215Y-96241968D01*
X154517219Y-96241966D01*
X154661966Y-96097219D01*
X154661968Y-96097215D01*
X154661971Y-96097213D01*
X154757528Y-95965688D01*
X154782287Y-95931610D01*
X154875220Y-95749219D01*
X154938477Y-95554534D01*
X154970500Y-95352352D01*
X154970500Y-95147648D01*
X154938477Y-94945466D01*
X154938476Y-94945464D01*
X154901730Y-94832371D01*
X154875220Y-94750781D01*
X154875218Y-94750778D01*
X154875218Y-94750776D01*
X154841503Y-94684607D01*
X154782287Y-94568390D01*
X154725544Y-94490289D01*
X154661971Y-94402786D01*
X154517213Y-94258028D01*
X154351614Y-94137715D01*
X154306458Y-94114707D01*
X154258917Y-94090483D01*
X154208123Y-94042511D01*
X154191328Y-93974690D01*
X154213865Y-93908555D01*
X154258917Y-93869516D01*
X154351610Y-93822287D01*
X154455919Y-93746503D01*
X154517213Y-93701971D01*
X154517215Y-93701968D01*
X154517219Y-93701966D01*
X154661966Y-93557219D01*
X154661968Y-93557215D01*
X154661971Y-93557213D01*
X154757293Y-93426011D01*
X154782287Y-93391610D01*
X154875220Y-93209219D01*
X154938477Y-93014534D01*
X154970500Y-92812352D01*
X154970500Y-92607648D01*
X154938477Y-92405466D01*
X154938476Y-92405464D01*
X154901730Y-92292371D01*
X154875220Y-92210781D01*
X154875218Y-92210778D01*
X154875218Y-92210776D01*
X154841503Y-92144607D01*
X154782287Y-92028390D01*
X154750539Y-91984692D01*
X154661971Y-91862786D01*
X154517213Y-91718028D01*
X154351614Y-91597715D01*
X154345006Y-91594348D01*
X154258917Y-91550483D01*
X154208123Y-91502511D01*
X154191328Y-91434690D01*
X154213865Y-91368555D01*
X154258917Y-91329516D01*
X154351610Y-91282287D01*
X154372770Y-91266913D01*
X154517213Y-91161971D01*
X154517215Y-91161968D01*
X154517219Y-91161966D01*
X154661966Y-91017219D01*
X154661968Y-91017215D01*
X154661971Y-91017213D01*
X154757293Y-90886011D01*
X154782287Y-90851610D01*
X154875220Y-90669219D01*
X154938477Y-90474534D01*
X154970500Y-90272352D01*
X154970500Y-90067648D01*
X154938477Y-89865466D01*
X154938476Y-89865464D01*
X154901730Y-89752371D01*
X154875220Y-89670781D01*
X154875218Y-89670778D01*
X154875218Y-89670776D01*
X154841503Y-89604607D01*
X154782287Y-89488390D01*
X154725544Y-89410289D01*
X154661971Y-89322786D01*
X154517213Y-89178028D01*
X154351614Y-89057715D01*
X154345006Y-89054348D01*
X154258917Y-89010483D01*
X154208123Y-88962511D01*
X154191328Y-88894690D01*
X154213865Y-88828555D01*
X154258917Y-88789516D01*
X154351610Y-88742287D01*
X154372770Y-88726913D01*
X154517213Y-88621971D01*
X154517215Y-88621968D01*
X154517219Y-88621966D01*
X154661966Y-88477219D01*
X154661968Y-88477215D01*
X154661971Y-88477213D01*
X154757293Y-88346011D01*
X154782287Y-88311610D01*
X154875220Y-88129219D01*
X154938477Y-87934534D01*
X154970500Y-87732352D01*
X154970500Y-87527648D01*
X154938477Y-87325466D01*
X154938476Y-87325464D01*
X154901730Y-87212371D01*
X154875220Y-87130781D01*
X154875218Y-87130778D01*
X154875218Y-87130776D01*
X154841503Y-87064607D01*
X154782287Y-86948390D01*
X154725544Y-86870289D01*
X154661971Y-86782786D01*
X154517213Y-86638028D01*
X154351614Y-86517715D01*
X154306458Y-86494707D01*
X154258917Y-86470483D01*
X154208123Y-86422511D01*
X154191328Y-86354690D01*
X154213865Y-86288555D01*
X154258917Y-86249516D01*
X154351610Y-86202287D01*
X154455919Y-86126503D01*
X154517213Y-86081971D01*
X154517215Y-86081968D01*
X154517219Y-86081966D01*
X154661966Y-85937219D01*
X154661968Y-85937215D01*
X154661971Y-85937213D01*
X154757293Y-85806011D01*
X154782287Y-85771610D01*
X154875220Y-85589219D01*
X154938477Y-85394534D01*
X154970500Y-85192352D01*
X154970500Y-84987648D01*
X154938477Y-84785466D01*
X154938476Y-84785464D01*
X154879561Y-84604142D01*
X154875220Y-84590781D01*
X154875218Y-84590778D01*
X154875218Y-84590776D01*
X154841503Y-84524607D01*
X154782287Y-84408390D01*
X154725544Y-84330289D01*
X154661971Y-84242786D01*
X154517213Y-84098028D01*
X154351614Y-83977715D01*
X154345006Y-83974348D01*
X154258917Y-83930483D01*
X154208123Y-83882511D01*
X154191328Y-83814690D01*
X154213865Y-83748555D01*
X154258917Y-83709516D01*
X154351610Y-83662287D01*
X154455919Y-83586503D01*
X154517213Y-83541971D01*
X154517215Y-83541968D01*
X154517219Y-83541966D01*
X154661966Y-83397219D01*
X154661968Y-83397215D01*
X154661971Y-83397213D01*
X154748947Y-83277499D01*
X154782287Y-83231610D01*
X154875220Y-83049219D01*
X154938477Y-82854534D01*
X154970500Y-82652352D01*
X154970500Y-82447648D01*
X154938477Y-82245466D01*
X154938476Y-82245464D01*
X154901730Y-82132371D01*
X154875220Y-82050781D01*
X154875218Y-82050778D01*
X154875218Y-82050776D01*
X154817828Y-81938144D01*
X154782287Y-81868390D01*
X154750539Y-81824692D01*
X154661971Y-81702786D01*
X154517213Y-81558028D01*
X154351614Y-81437715D01*
X154345006Y-81434348D01*
X154258917Y-81390483D01*
X154208123Y-81342511D01*
X154191328Y-81274690D01*
X154213865Y-81208555D01*
X154258917Y-81169516D01*
X154351610Y-81122287D01*
X154397144Y-81089205D01*
X154517213Y-81001971D01*
X154517215Y-81001968D01*
X154517219Y-81001966D01*
X154661966Y-80857219D01*
X154661968Y-80857215D01*
X154661971Y-80857213D01*
X154718259Y-80779738D01*
X154782287Y-80691610D01*
X154875220Y-80509219D01*
X154938477Y-80314534D01*
X154970500Y-80112352D01*
X154970500Y-79907648D01*
X154962257Y-79855606D01*
X154938477Y-79705465D01*
X154898357Y-79581989D01*
X154875220Y-79510781D01*
X154875218Y-79510778D01*
X154875218Y-79510776D01*
X154812767Y-79388211D01*
X154782287Y-79328390D01*
X154762098Y-79300602D01*
X154661971Y-79162786D01*
X154517213Y-79018028D01*
X154351613Y-78897715D01*
X154351612Y-78897714D01*
X154351610Y-78897713D01*
X154294653Y-78868691D01*
X154169223Y-78804781D01*
X153974534Y-78741522D01*
X153799995Y-78713878D01*
X153772352Y-78709500D01*
X153567648Y-78709500D01*
X153464101Y-78725900D01*
X153360654Y-78742285D01*
X153360333Y-78740262D01*
X153299120Y-78737149D01*
X153252371Y-78707781D01*
X153039822Y-78495232D01*
X153029859Y-78485269D01*
X153029858Y-78485267D01*
X152942733Y-78398142D01*
X152891509Y-78363915D01*
X152840286Y-78329688D01*
X152840283Y-78329686D01*
X152840280Y-78329685D01*
X152766603Y-78299168D01*
X152766601Y-78299167D01*
X152759792Y-78296347D01*
X152726452Y-78282537D01*
X152666029Y-78270518D01*
X152661306Y-78269578D01*
X152661304Y-78269578D01*
X152605610Y-78258500D01*
X152605607Y-78258500D01*
X152605606Y-78258500D01*
X99612606Y-78258500D01*
X99489393Y-78258500D01*
X99489388Y-78258500D01*
X99368555Y-78282535D01*
X99368547Y-78282537D01*
X99254716Y-78329687D01*
X99152265Y-78398142D01*
X99152262Y-78398145D01*
X98366203Y-79184205D01*
X98304880Y-79217690D01*
X98302714Y-79218141D01*
X98191508Y-79240261D01*
X98191498Y-79240264D01*
X98045827Y-79300602D01*
X98045814Y-79300609D01*
X97914711Y-79388210D01*
X97914707Y-79388213D01*
X97803213Y-79499707D01*
X97803210Y-79499711D01*
X97715609Y-79630814D01*
X97715602Y-79630827D01*
X97655264Y-79776498D01*
X97655261Y-79776510D01*
X97624500Y-79931153D01*
X97624500Y-80088846D01*
X97655261Y-80243489D01*
X97655264Y-80243501D01*
X97715602Y-80389172D01*
X97715609Y-80389185D01*
X97803210Y-80520288D01*
X97803213Y-80520292D01*
X97914707Y-80631786D01*
X97914711Y-80631789D01*
X98045814Y-80719390D01*
X98045827Y-80719397D01*
X98191498Y-80779735D01*
X98191503Y-80779737D01*
X98346153Y-80810499D01*
X98346156Y-80810500D01*
X98346158Y-80810500D01*
X98503844Y-80810500D01*
X98503845Y-80810499D01*
X98658497Y-80779737D01*
X98804179Y-80719394D01*
X98935289Y-80631789D01*
X99046789Y-80520289D01*
X99134394Y-80389179D01*
X99194737Y-80243497D01*
X99216858Y-80132282D01*
X99249240Y-80070375D01*
X99250730Y-80068858D01*
X99773772Y-79545819D01*
X99835095Y-79512334D01*
X99861453Y-79509500D01*
X137055049Y-79509500D01*
X137122088Y-79529185D01*
X137167843Y-79581989D01*
X137177787Y-79651147D01*
X137172980Y-79671817D01*
X137162011Y-79705574D01*
X137162010Y-79705581D01*
X137130000Y-79907682D01*
X137130000Y-80112317D01*
X137162009Y-80314417D01*
X137219770Y-80492181D01*
X137221765Y-80562022D01*
X137185685Y-80621855D01*
X137122985Y-80652684D01*
X137101839Y-80654500D01*
X101667741Y-80654500D01*
X101667721Y-80654499D01*
X101661607Y-80654499D01*
X101538394Y-80654499D01*
X101437597Y-80674548D01*
X101437592Y-80674548D01*
X101417549Y-80678536D01*
X101417547Y-80678536D01*
X101370397Y-80698067D01*
X101303719Y-80725685D01*
X101303717Y-80725686D01*
X101201266Y-80794141D01*
X101201263Y-80794144D01*
X100906203Y-81089205D01*
X100844880Y-81122690D01*
X100842714Y-81123141D01*
X100731508Y-81145261D01*
X100731498Y-81145264D01*
X100585827Y-81205602D01*
X100585814Y-81205609D01*
X100454711Y-81293210D01*
X100454707Y-81293213D01*
X100343213Y-81404707D01*
X100343210Y-81404711D01*
X100255609Y-81535814D01*
X100255602Y-81535827D01*
X100195264Y-81681498D01*
X100195261Y-81681508D01*
X100166780Y-81824692D01*
X100134395Y-81886603D01*
X100073679Y-81921177D01*
X100045163Y-81924500D01*
X97093389Y-81924500D01*
X97032971Y-81936518D01*
X96989743Y-81945116D01*
X96972546Y-81948537D01*
X96858716Y-81995687D01*
X96858707Y-81995692D01*
X96756268Y-82064140D01*
X96712705Y-82107703D01*
X96669142Y-82151267D01*
X96669139Y-82151270D01*
X95826203Y-82994205D01*
X95764880Y-83027690D01*
X95762714Y-83028141D01*
X95651508Y-83050261D01*
X95651498Y-83050264D01*
X95505827Y-83110602D01*
X95505814Y-83110609D01*
X95374711Y-83198210D01*
X95374707Y-83198213D01*
X95263213Y-83309707D01*
X95263210Y-83309711D01*
X95175609Y-83440814D01*
X95175602Y-83440827D01*
X95115264Y-83586498D01*
X95115261Y-83586510D01*
X95084500Y-83741153D01*
X95084500Y-83898846D01*
X95115261Y-84053489D01*
X95115264Y-84053501D01*
X95175602Y-84199172D01*
X95175609Y-84199185D01*
X95224002Y-84271609D01*
X95244880Y-84338286D01*
X95226396Y-84405666D01*
X95174417Y-84452357D01*
X95120900Y-84464500D01*
X94647388Y-84464500D01*
X94617230Y-84470499D01*
X94526555Y-84488535D01*
X94526545Y-84488538D01*
X94412716Y-84535687D01*
X94412707Y-84535692D01*
X94310268Y-84604140D01*
X94266705Y-84647703D01*
X94223142Y-84691267D01*
X94223139Y-84691270D01*
X93380203Y-85534205D01*
X93318880Y-85567690D01*
X93316714Y-85568141D01*
X93205508Y-85590261D01*
X93205498Y-85590264D01*
X93059827Y-85650602D01*
X93059814Y-85650609D01*
X92928711Y-85738210D01*
X92928707Y-85738213D01*
X92817213Y-85849707D01*
X92817210Y-85849711D01*
X92729609Y-85980814D01*
X92729602Y-85980827D01*
X92669264Y-86126498D01*
X92669261Y-86126510D01*
X92638500Y-86281153D01*
X92638500Y-86438846D01*
X92669261Y-86593489D01*
X92669264Y-86593501D01*
X92729602Y-86739172D01*
X92729609Y-86739185D01*
X92778002Y-86811609D01*
X92798880Y-86878286D01*
X92780396Y-86945666D01*
X92728417Y-86992357D01*
X92674900Y-87004500D01*
X92013388Y-87004500D01*
X91983230Y-87010499D01*
X91892555Y-87028535D01*
X91892545Y-87028538D01*
X91778716Y-87075687D01*
X91778707Y-87075692D01*
X91676268Y-87144140D01*
X91632705Y-87187703D01*
X91589142Y-87231267D01*
X91589139Y-87231270D01*
X90746203Y-88074205D01*
X90684880Y-88107690D01*
X90682714Y-88108141D01*
X90571508Y-88130261D01*
X90571498Y-88130264D01*
X90425827Y-88190602D01*
X90425814Y-88190609D01*
X90294711Y-88278210D01*
X90294707Y-88278213D01*
X90183213Y-88389707D01*
X90183210Y-88389711D01*
X90095609Y-88520814D01*
X90095602Y-88520827D01*
X90035264Y-88666498D01*
X90035261Y-88666510D01*
X90004500Y-88821153D01*
X90004500Y-88978846D01*
X90035261Y-89133489D01*
X90035264Y-89133501D01*
X90095602Y-89279172D01*
X90095609Y-89279185D01*
X90144002Y-89351609D01*
X90164880Y-89418286D01*
X90146396Y-89485666D01*
X90094417Y-89532357D01*
X90040900Y-89544500D01*
X88838388Y-89544500D01*
X88808230Y-89550499D01*
X88717555Y-89568535D01*
X88717545Y-89568538D01*
X88603716Y-89615687D01*
X88603707Y-89615692D01*
X88501268Y-89684140D01*
X88457705Y-89727703D01*
X88414142Y-89771267D01*
X88414139Y-89771270D01*
X87571203Y-90614205D01*
X87509880Y-90647690D01*
X87507714Y-90648141D01*
X87396508Y-90670261D01*
X87396498Y-90670264D01*
X87250827Y-90730602D01*
X87250814Y-90730609D01*
X87119711Y-90818210D01*
X87119707Y-90818213D01*
X87008213Y-90929707D01*
X87008210Y-90929711D01*
X86920609Y-91060814D01*
X86920602Y-91060827D01*
X86860264Y-91206498D01*
X86860261Y-91206510D01*
X86829500Y-91361153D01*
X64000500Y-91361153D01*
X64000500Y-59044500D01*
X64020185Y-58977461D01*
X64072989Y-58931706D01*
X64124500Y-58920500D01*
X162570500Y-58920500D01*
X162637539Y-58940185D01*
G37*
%TD.AperFunction*%
%TD*%
D18*
X107315000Y-93980000D03*
X114935000Y-117475000D03*
X103505000Y-84455000D03*
X102235000Y-99060000D03*
X99695000Y-101600000D03*
X94615000Y-106680000D03*
X113665000Y-94625000D03*
X122555000Y-128270000D03*
X89535000Y-111760000D03*
X116205000Y-97165000D03*
X109855000Y-114300000D03*
X98425000Y-80010000D03*
X90805000Y-88900000D03*
X126365000Y-107315000D03*
X104775000Y-96520000D03*
X108585000Y-89535000D03*
X95885000Y-83820000D03*
X100965000Y-81915000D03*
X120015000Y-115570000D03*
X118745000Y-99705000D03*
X92075000Y-109220000D03*
X123825000Y-104775000D03*
X117475000Y-120650000D03*
X97155000Y-104140000D03*
X106045000Y-87005000D03*
X87630000Y-91440000D03*
X93439000Y-86360000D03*
X121285000Y-102245000D03*
X111125000Y-92075000D03*
X156000000Y-151000000D03*
X70000000Y-151000000D03*
X151000000Y-151000000D03*
X70000000Y-65000000D03*
X156000000Y-65000000D03*
X145000000Y-137000000D03*
D19*
X153670000Y-128270000D03*
X153670000Y-125730000D03*
X153670000Y-123190000D03*
X153670000Y-120650000D03*
X153670000Y-118110000D03*
X153670000Y-115570000D03*
X153670000Y-113030000D03*
X153670000Y-110490000D03*
X153670000Y-107950000D03*
X153670000Y-105410000D03*
X153670000Y-102870000D03*
X153670000Y-100330000D03*
X153670000Y-97790000D03*
X153670000Y-95250000D03*
X153670000Y-92710000D03*
X153670000Y-90170000D03*
X153670000Y-87630000D03*
X153670000Y-85090000D03*
X153670000Y-82550000D03*
X153670000Y-80010000D03*
X138430000Y-80010000D03*
X138430000Y-82550000D03*
X138430000Y-85090000D03*
X138430000Y-87630000D03*
X138430000Y-90170000D03*
X138430000Y-92710000D03*
X138430000Y-95250000D03*
X138430000Y-97790000D03*
X138430000Y-100330000D03*
X138430000Y-102870000D03*
X138430000Y-105410000D03*
X138430000Y-107950000D03*
X138430000Y-110490000D03*
X138430000Y-113030000D03*
X138430000Y-115570000D03*
X138430000Y-118110000D03*
X138430000Y-120650000D03*
X138430000Y-123190000D03*
X138430000Y-125730000D03*
X138430000Y-128270000D03*
X135205000Y-123190000D03*
X132665000Y-123190000D03*
X135255000Y-128270000D03*
X132715000Y-128270000D03*
X137715000Y-146685000D03*
X132715000Y-146685000D03*
X137795000Y-153760000D03*
X135255000Y-153760000D03*
X132715000Y-153760000D03*
X130175000Y-153760000D03*
X127635000Y-153760000D03*
X125095000Y-153760000D03*
X122555000Y-153760000D03*
X120015000Y-153760000D03*
X117475000Y-153760000D03*
X114935000Y-153760000D03*
X112395000Y-153760000D03*
X109855000Y-153760000D03*
X107315000Y-153760000D03*
X104775000Y-153760000D03*
X102235000Y-153760000D03*
X99695000Y-153760000D03*
X97155000Y-153760000D03*
X94615000Y-153760000D03*
X92075000Y-153760000D03*
X89535000Y-153760000D03*
X89535000Y-151220000D03*
X92075000Y-151220000D03*
X94615000Y-151220000D03*
X97155000Y-151220000D03*
X99695000Y-151220000D03*
X102235000Y-151220000D03*
X104775000Y-151220000D03*
X107315000Y-151220000D03*
X109855000Y-151220000D03*
X112395000Y-151220000D03*
X114935000Y-151220000D03*
X117475000Y-151220000D03*
X120015000Y-151220000D03*
X122555000Y-151220000D03*
X125095000Y-151220000D03*
X127635000Y-151220000D03*
X130175000Y-151220000D03*
X132715000Y-151220000D03*
X135255000Y-151220000D03*
X137795000Y-151220000D03*
X156845000Y-115570000D03*
X159385000Y-115570000D03*
X156845000Y-120650000D03*
X159385000Y-120650000D03*
X156845000Y-125730000D03*
X159385000Y-125730000D03*
X156845000Y-110490000D03*
X161845000Y-110490000D03*
X135255000Y-118110000D03*
X132715000Y-118110000D03*
M02*
