%TF.GenerationSoftware,KiCad,Pcbnew,9.0.2+dfsg-1*%
%TF.CreationDate,2026-09-02T22:03:44+02:00*%
%TF.ProjectId,cpu-card,6370752d-6361-4726-942e-6b696361645f,rev?*%
%TF.SameCoordinates,Original*%
%TF.FileFunction,Copper,L2,Bot*%
%TF.FilePolarity,Positive*%
%FSLAX46Y46*%
G04 Gerber Fmt 4.6, Leading zero omitted, Abs format (unit mm)*
G04 Created by KiCad (PCBNEW 9.0.2+dfsg-1) date 2026-09-02 22:03:44*
%MOMM*%
%LPD*%
G01*
G04 APERTURE LIST*
G04 Aperture macros list*
%AMRoundRect*
0 Rectangle with rounded corners*
0 $1 Rounding radius*
0 $2 $3 $4 $5 $6 $7 $8 $9 X,Y pos of 4 corners*
0 Add a 4 corners polygon primitive as box body*
4,1,4,$2,$3,$4,$5,$6,$7,$8,$9,$2,$3,0*
0 Add four circle primitives for the rounded corners*
1,1,$1+$1,$2,$3*
1,1,$1+$1,$4,$5*
1,1,$1+$1,$6,$7*
1,1,$1+$1,$8,$9*
0 Add four rect primitives between the rounded corners*
20,1,$1+$1,$2,$3,$4,$5,0*
20,1,$1+$1,$4,$5,$6,$7,0*
20,1,$1+$1,$6,$7,$8,$9,0*
20,1,$1+$1,$8,$9,$2,$3,0*%
G04 Aperture macros list end*
%TA.AperFunction,ComponentPad*%
%ADD10RoundRect,0.250000X0.550000X0.550000X-0.550000X0.550000X-0.550000X-0.550000X0.550000X-0.550000X0*%
%TD*%
%TA.AperFunction,ComponentPad*%
%ADD11C,1.600000*%
%TD*%
%TA.AperFunction,ComponentPad*%
%ADD12C,1.400000*%
%TD*%
%TA.AperFunction,ComponentPad*%
%ADD13C,1.700000*%
%TD*%
%TA.AperFunction,ComponentPad*%
%ADD14R,1.700000X1.700000*%
%TD*%
%TA.AperFunction,ViaPad*%
%ADD15C,0.600000*%
%TD*%
%TA.AperFunction,Conductor*%
%ADD16C,0.250000*%
%TD*%
%TA.AperFunction,Conductor*%
%ADD17C,1.000000*%
%TD*%
%TA.AperFunction,Conductor*%
%ADD18C,0.500000*%
%TD*%
%ADD19C,0.300000*%
%ADD20C,0.350000*%
G04 APERTURE END LIST*
D10*
%TO.P,U1,1,~{VP}*%
%TO.N,VP{slash}*%
X153670000Y-128270000D03*
D11*
%TO.P,U1,2,RDY*%
%TO.N,Net-(U1-RDY)*%
X153670000Y-125730000D03*
%TO.P,U1,3,\u03D51*%
%TO.N,unconnected-(U1-\u03D51-Pad3)*%
X153670000Y-123190000D03*
%TO.P,U1,4,~{IRQ}*%
%TO.N,IRQ{slash}*%
X153670000Y-120650000D03*
%TO.P,U1,5,~{ML}*%
%TO.N,unconnected-(U1-~{ML}-Pad5)*%
X153670000Y-118110000D03*
%TO.P,U1,6,~{NMI}*%
%TO.N,NMI{slash}*%
X153670000Y-115570000D03*
%TO.P,U1,7,SYNC*%
%TO.N,SYNC*%
X153670000Y-113030000D03*
%TO.P,U1,8,VDD*%
%TO.N,+5V*%
X153670000Y-110490000D03*
%TO.P,U1,9,A0*%
%TO.N,/A0*%
X153670000Y-107950000D03*
%TO.P,U1,10,A1*%
%TO.N,/A1*%
X153670000Y-105410000D03*
%TO.P,U1,11,A2*%
%TO.N,/A2*%
X153670000Y-102870000D03*
%TO.P,U1,12,A3*%
%TO.N,/A3*%
X153670000Y-100330000D03*
%TO.P,U1,13,A4*%
%TO.N,/A4*%
X153670000Y-97790000D03*
%TO.P,U1,14,A5*%
%TO.N,/A5*%
X153670000Y-95250000D03*
%TO.P,U1,15,A6*%
%TO.N,/A6*%
X153670000Y-92710000D03*
%TO.P,U1,16,A7*%
%TO.N,/A7*%
X153670000Y-90170000D03*
%TO.P,U1,17,A8*%
%TO.N,/A8*%
X153670000Y-87630000D03*
%TO.P,U1,18,A9*%
%TO.N,/A9*%
X153670000Y-85090000D03*
%TO.P,U1,19,A10*%
%TO.N,/A10*%
X153670000Y-82550000D03*
%TO.P,U1,20,A11*%
%TO.N,/A11*%
X153670000Y-80010000D03*
%TO.P,U1,21,VSS*%
%TO.N,GND*%
X138430000Y-80010000D03*
%TO.P,U1,22,A12*%
%TO.N,/A12*%
X138430000Y-82550000D03*
%TO.P,U1,23,A13*%
%TO.N,/A13*%
X138430000Y-85090000D03*
%TO.P,U1,24,A14*%
%TO.N,/A14*%
X138430000Y-87630000D03*
%TO.P,U1,25,A15*%
%TO.N,/A15*%
X138430000Y-90170000D03*
%TO.P,U1,26,D7*%
%TO.N,/D7*%
X138430000Y-92710000D03*
%TO.P,U1,27,D6*%
%TO.N,/D6*%
X138430000Y-95250000D03*
%TO.P,U1,28,D5*%
%TO.N,/D5*%
X138430000Y-97790000D03*
%TO.P,U1,29,D4*%
%TO.N,/D4*%
X138430000Y-100330000D03*
%TO.P,U1,30,D3*%
%TO.N,/D3*%
X138430000Y-102870000D03*
%TO.P,U1,31,D2*%
%TO.N,/D2*%
X138430000Y-105410000D03*
%TO.P,U1,32,D1*%
%TO.N,/D1*%
X138430000Y-107950000D03*
%TO.P,U1,33,D0*%
%TO.N,/D0*%
X138430000Y-110490000D03*
%TO.P,U1,34,R/~{W}*%
%TO.N,RW{slash}*%
X138430000Y-113030000D03*
%TO.P,U1,35,nc*%
%TO.N,unconnected-(U1-nc-Pad35)*%
X138430000Y-115570000D03*
%TO.P,U1,36,BE*%
%TO.N,BE*%
X138430000Y-118110000D03*
%TO.P,U1,37,\u03D50*%
%TO.N,CLK*%
X138430000Y-120650000D03*
%TO.P,U1,38,~{SO}*%
%TO.N,Net-(U1-~{SO})*%
X138430000Y-123190000D03*
%TO.P,U1,39,\u03D52*%
%TO.N,unconnected-(U1-\u03D52-Pad39)*%
X138430000Y-125730000D03*
%TO.P,U1,40,~{RES}*%
%TO.N,RES{slash}*%
X138430000Y-128270000D03*
%TD*%
D12*
%TO.P,R7,1*%
%TO.N,Net-(U1-~{SO})*%
X135205000Y-123190000D03*
%TO.P,R7,2*%
%TO.N,+5V*%
X132665000Y-123190000D03*
%TD*%
%TO.P,R8,1*%
%TO.N,RES{slash}*%
X135255000Y-128270000D03*
%TO.P,R8,2*%
%TO.N,+5V*%
X132715000Y-128270000D03*
%TD*%
D11*
%TO.P,C2,1*%
%TO.N,GND*%
X137715000Y-146685000D03*
%TO.P,C2,2*%
%TO.N,+5V*%
X132715000Y-146685000D03*
%TD*%
D13*
%TO.P,J1,1,Vss*%
%TO.N,GND*%
X137795000Y-153760000D03*
%TO.P,J1,2,SYNC*%
%TO.N,SYNC*%
X135255000Y-153760000D03*
%TO.P,J1,3,VP/*%
%TO.N,VP{slash}*%
X132715000Y-153760000D03*
%TO.P,J1,4,+5V*%
%TO.N,+5V*%
X130175000Y-153760000D03*
%TO.P,J1,5,A0*%
%TO.N,/A0*%
X127635000Y-153760000D03*
%TO.P,J1,6,A1*%
%TO.N,/A1*%
X125095000Y-153760000D03*
%TO.P,J1,7,A2*%
%TO.N,/A2*%
X122555000Y-153760000D03*
%TO.P,J1,8,A3*%
%TO.N,/A3*%
X120015000Y-153760000D03*
%TO.P,J1,9,A4*%
%TO.N,/A4*%
X117475000Y-153760000D03*
%TO.P,J1,10,A5*%
%TO.N,/A5*%
X114935000Y-153760000D03*
%TO.P,J1,11,A6*%
%TO.N,/A6*%
X112395000Y-153760000D03*
%TO.P,J1,12,A7*%
%TO.N,/A7*%
X109855000Y-153760000D03*
%TO.P,J1,13,A8*%
%TO.N,/A8*%
X107315000Y-153760000D03*
%TO.P,J1,14,A9*%
%TO.N,/A9*%
X104775000Y-153760000D03*
%TO.P,J1,15,A10*%
%TO.N,/A10*%
X102235000Y-153760000D03*
%TO.P,J1,16,A11*%
%TO.N,/A11*%
X99695000Y-153760000D03*
%TO.P,J1,17,A12*%
%TO.N,/A12*%
X97155000Y-153760000D03*
%TO.P,J1,18,A13*%
%TO.N,/A13*%
X94615000Y-153760000D03*
%TO.P,J1,19,A14*%
%TO.N,/A14*%
X92075000Y-153760000D03*
%TO.P,J1,20,A15*%
%TO.N,/A15*%
X89535000Y-153760000D03*
%TO.P,J1,21,D0*%
%TO.N,/D0*%
X89535000Y-151220000D03*
%TO.P,J1,22,D1*%
%TO.N,/D1*%
X92075000Y-151220000D03*
%TO.P,J1,23,D2*%
%TO.N,/D2*%
X94615000Y-151220000D03*
%TO.P,J1,24,D3*%
%TO.N,/D3*%
X97155000Y-151220000D03*
%TO.P,J1,25,D4*%
%TO.N,/D4*%
X99695000Y-151220000D03*
%TO.P,J1,26,D5*%
%TO.N,/D5*%
X102235000Y-151220000D03*
%TO.P,J1,27,D6*%
%TO.N,/D6*%
X104775000Y-151220000D03*
%TO.P,J1,28,D7*%
%TO.N,/D7*%
X107315000Y-151220000D03*
%TO.P,J1,29,RW/*%
%TO.N,RW{slash}*%
X109855000Y-151220000D03*
%TO.P,J1,30,NC*%
%TO.N,unconnected-(J1-NC-Pad30)*%
X112395000Y-151220000D03*
%TO.P,J1,31,BE*%
%TO.N,BE*%
X114935000Y-151220000D03*
%TO.P,J1,32,IRQ/*%
%TO.N,IRQ{slash}*%
X117475000Y-151220000D03*
%TO.P,J1,33,NMI/*%
%TO.N,NMI{slash}*%
X120015000Y-151220000D03*
%TO.P,J1,34,RES/*%
%TO.N,RES{slash}*%
X122555000Y-151220000D03*
%TO.P,J1,35,RAM/*%
%TO.N,unconnected-(J1-RAM{slash}-Pad35)*%
X125095000Y-151220000D03*
%TO.P,J1,36,ROM/*%
%TO.N,unconnected-(J1-ROM{slash}-Pad36)*%
X127635000Y-151220000D03*
%TO.P,J1,37,+5V*%
%TO.N,+5V*%
X130175000Y-151220000D03*
%TO.P,J1,38,ACC/*%
%TO.N,unconnected-(J1-ACC{slash}-Pad38)*%
X132715000Y-151220000D03*
%TO.P,J1,39,CLK*%
%TO.N,CLK*%
X135255000Y-151220000D03*
D14*
%TO.P,J1,40,Vss*%
%TO.N,GND*%
X137795000Y-151220000D03*
%TD*%
D12*
%TO.P,R4,1*%
%TO.N,NMI{slash}*%
X156845000Y-115570000D03*
%TO.P,R4,2*%
%TO.N,+5V*%
X159385000Y-115570000D03*
%TD*%
%TO.P,R5,1*%
%TO.N,IRQ{slash}*%
X156845000Y-120650000D03*
%TO.P,R5,2*%
%TO.N,+5V*%
X159385000Y-120650000D03*
%TD*%
%TO.P,R6,1*%
%TO.N,Net-(U1-RDY)*%
X156845000Y-125730000D03*
%TO.P,R6,2*%
%TO.N,+5V*%
X159385000Y-125730000D03*
%TD*%
D11*
%TO.P,C1,1*%
%TO.N,+5V*%
X156845000Y-110490000D03*
%TO.P,C1,2*%
%TO.N,GND*%
X161845000Y-110490000D03*
%TD*%
D12*
%TO.P,R3,1*%
%TO.N,BE*%
X135255000Y-118110000D03*
%TO.P,R3,2*%
%TO.N,+5V*%
X132715000Y-118110000D03*
%TD*%
D15*
%TO.N,/D7*%
X107315000Y-93980000D03*
%TO.N,BE*%
X114935000Y-117475000D03*
%TO.N,/A9*%
X103505000Y-84455000D03*
%TO.N,/D5*%
X102235000Y-99060000D03*
%TO.N,/D4*%
X99695000Y-101600000D03*
%TO.N,/D2*%
X94615000Y-106680000D03*
%TO.N,/A5*%
X113665000Y-94625000D03*
%TO.N,RES{slash}*%
X122555000Y-128270000D03*
%TO.N,/D0*%
X89535000Y-111760000D03*
%TO.N,/A4*%
X116205000Y-97165000D03*
%TO.N,RW{slash}*%
X109855000Y-114300000D03*
%TO.N,/A11*%
X98425000Y-80010000D03*
%TO.N,/A14*%
X90805000Y-88900000D03*
%TO.N,/A0*%
X126365000Y-107315000D03*
%TO.N,/D6*%
X104775000Y-96520000D03*
%TO.N,/A7*%
X108585000Y-89535000D03*
%TO.N,/A12*%
X95885000Y-83820000D03*
%TO.N,/A10*%
X100965000Y-81915000D03*
%TO.N,NMI{slash}*%
X120015000Y-115570000D03*
%TO.N,/A3*%
X118745000Y-99705000D03*
%TO.N,/D1*%
X92075000Y-109220000D03*
%TO.N,/A1*%
X123825000Y-104775000D03*
%TO.N,IRQ{slash}*%
X117475000Y-120650000D03*
%TO.N,/D3*%
X97155000Y-104140000D03*
%TO.N,/A8*%
X106045000Y-87005000D03*
%TO.N,/A15*%
X87630000Y-91440000D03*
%TO.N,/A13*%
X93439000Y-86360000D03*
%TO.N,/A2*%
X121285000Y-102245000D03*
%TO.N,/A6*%
X111125000Y-92075000D03*
%TO.N,GND*%
X156000000Y-151000000D03*
X70000000Y-151000000D03*
X151000000Y-151000000D03*
X70000000Y-65000000D03*
X156000000Y-65000000D03*
X145000000Y-137000000D03*
%TD*%
D16*
%TO.N,/D7*%
X107315000Y-151220000D02*
X107315000Y-93980000D01*
%TO.N,BE*%
X114935000Y-117475000D02*
X114935000Y-151220000D01*
%TO.N,/A9*%
X103505000Y-84455000D02*
X103505000Y-152490000D01*
X103505000Y-152490000D02*
X104775000Y-153760000D01*
%TO.N,/D5*%
X102235000Y-151220000D02*
X102235000Y-99060000D01*
%TO.N,/D4*%
X99695000Y-151220000D02*
X99695000Y-101600000D01*
%TO.N,/D2*%
X94615000Y-151220000D02*
X94615000Y-106680000D01*
%TO.N,/A5*%
X113665000Y-152490000D02*
X113665000Y-94625000D01*
X114935000Y-153760000D02*
X113665000Y-152490000D01*
%TO.N,RES{slash}*%
X122555000Y-151220000D02*
X122555000Y-128270000D01*
%TO.N,/D0*%
X89535000Y-151220000D02*
X89535000Y-111760000D01*
%TO.N,/A4*%
X117475000Y-153760000D02*
X116205000Y-152490000D01*
X116205000Y-152490000D02*
X116205000Y-97165000D01*
%TO.N,RW{slash}*%
X109855000Y-151220000D02*
X109855000Y-114300000D01*
%TO.N,/A11*%
X99695000Y-153760000D02*
X98425000Y-152490000D01*
X98425000Y-152490000D02*
X98425000Y-80010000D01*
%TO.N,/A14*%
X92075000Y-153760000D02*
X90805000Y-152490000D01*
X90805000Y-152490000D02*
X90805000Y-88900000D01*
%TO.N,/A0*%
X126365000Y-107315000D02*
X126365000Y-152490000D01*
X126365000Y-152490000D02*
X127635000Y-153760000D01*
%TO.N,/D6*%
X104775000Y-151220000D02*
X104775000Y-96520000D01*
%TO.N,/A7*%
X108585000Y-152490000D02*
X108679000Y-152584000D01*
X109855000Y-153760000D02*
X108679000Y-152584000D01*
X108585000Y-89535000D02*
X108585000Y-152490000D01*
%TO.N,/A12*%
X95885000Y-152490000D02*
X95885000Y-83820000D01*
X97155000Y-153760000D02*
X95885000Y-152490000D01*
%TO.N,/A10*%
X100965000Y-152490000D02*
X102235000Y-153760000D01*
X100965000Y-81915000D02*
X100965000Y-152490000D01*
%TO.N,NMI{slash}*%
X120015000Y-151220000D02*
X120015000Y-115570000D01*
%TO.N,/A3*%
X118745000Y-99705000D02*
X118745000Y-152490000D01*
X118745000Y-152490000D02*
X120015000Y-153760000D01*
%TO.N,/D1*%
X92075000Y-151220000D02*
X92075000Y-109220000D01*
%TO.N,/A1*%
X123825000Y-152490000D02*
X123825000Y-105410000D01*
X125095000Y-153760000D02*
X123825000Y-152490000D01*
X123825000Y-104775000D02*
X123825000Y-105410000D01*
%TO.N,IRQ{slash}*%
X117475000Y-151220000D02*
X117475000Y-120650000D01*
%TO.N,/D3*%
X97155000Y-151220000D02*
X97155000Y-104140000D01*
%TO.N,/A8*%
X106045000Y-152490000D02*
X106045000Y-87005000D01*
X107315000Y-153760000D02*
X106045000Y-152490000D01*
%TO.N,/A15*%
X89535000Y-153760000D02*
X87630000Y-151855000D01*
X87630000Y-151855000D02*
X87630000Y-91440000D01*
%TO.N,/A13*%
X94615000Y-153760000D02*
X93439000Y-152584000D01*
X93439000Y-152584000D02*
X93439000Y-86360000D01*
%TO.N,/A2*%
X121285000Y-152490000D02*
X121285000Y-102245000D01*
X122555000Y-153760000D02*
X121285000Y-152490000D01*
%TO.N,/A6*%
X111125000Y-152490000D02*
X112395000Y-153760000D01*
X111125000Y-92075000D02*
X111125000Y-152490000D01*
D17*
%TO.N,GND*%
X137795000Y-153760000D02*
X137795000Y-151220000D01*
%TO.N,+5V*%
X130175000Y-151220000D02*
X132715000Y-148680000D01*
D18*
X133985000Y-116840000D02*
X132715000Y-118110000D01*
D16*
X132715000Y-123140000D02*
X132665000Y-123190000D01*
D17*
X130175000Y-153760000D02*
X130175000Y-151220000D01*
D18*
X147320000Y-116840000D02*
X133985000Y-116840000D01*
D17*
X132715000Y-148680000D02*
X132715000Y-123140000D01*
D18*
X132715000Y-118110000D02*
X132715000Y-123140000D01*
X153670000Y-110490000D02*
X147320000Y-116840000D01*
%TD*%
%TA.AperFunction,Conductor*%
%TO.N,GND*%
G36*
X136379728Y-152107680D02*
G01*
X136435662Y-152149551D01*
X136452577Y-152180528D01*
X136501646Y-152312088D01*
X136501649Y-152312093D01*
X136587809Y-152427187D01*
X136587812Y-152427190D01*
X136702906Y-152513350D01*
X136702913Y-152513354D01*
X136837620Y-152563596D01*
X136837619Y-152563596D01*
X136920444Y-152572501D01*
X136920116Y-152575550D01*
X136937014Y-152574642D01*
X136996196Y-152607642D01*
X137665591Y-153277037D01*
X137602007Y-153294075D01*
X137487993Y-153359901D01*
X137394901Y-153452993D01*
X137329075Y-153567007D01*
X137312037Y-153630591D01*
X136679728Y-152998282D01*
X136679727Y-152998282D01*
X136640380Y-153052440D01*
X136640376Y-153052446D01*
X136635760Y-153061505D01*
X136587781Y-153112297D01*
X136519959Y-153129087D01*
X136453826Y-153106543D01*
X136414794Y-153061493D01*
X136410051Y-153052184D01*
X136410049Y-153052181D01*
X136410048Y-153052179D01*
X136285109Y-152880213D01*
X136134786Y-152729890D01*
X135962820Y-152604951D01*
X135962115Y-152604591D01*
X135954054Y-152600485D01*
X135903259Y-152552512D01*
X135886463Y-152484692D01*
X135908999Y-152418556D01*
X135954054Y-152379515D01*
X135962816Y-152375051D01*
X136049478Y-152312088D01*
X136134784Y-152250110D01*
X136134784Y-152250109D01*
X136134792Y-152250104D01*
X136248717Y-152136178D01*
X136310036Y-152102696D01*
X136379728Y-152107680D01*
G37*
%TD.AperFunction*%
%TA.AperFunction,Conductor*%
G36*
X162637539Y-58940185D02*
G01*
X162683294Y-58992989D01*
X162694500Y-59044500D01*
X162694500Y-109261467D01*
X162674815Y-109328506D01*
X162622011Y-109374261D01*
X162552853Y-109384205D01*
X162514206Y-109371952D01*
X162344034Y-109285245D01*
X162149417Y-109222009D01*
X161947317Y-109190000D01*
X161742683Y-109190000D01*
X161540582Y-109222009D01*
X161345968Y-109285244D01*
X161163644Y-109378143D01*
X161119077Y-109410523D01*
X161119077Y-109410524D01*
X161798553Y-110090000D01*
X161792339Y-110090000D01*
X161690606Y-110117259D01*
X161599394Y-110169920D01*
X161524920Y-110244394D01*
X161472259Y-110335606D01*
X161445000Y-110437339D01*
X161445000Y-110443553D01*
X160765524Y-109764077D01*
X160765523Y-109764077D01*
X160733143Y-109808644D01*
X160640244Y-109990968D01*
X160577009Y-110185582D01*
X160545000Y-110387682D01*
X160545000Y-110592317D01*
X160577009Y-110794417D01*
X160640244Y-110989031D01*
X160733141Y-111171350D01*
X160733147Y-111171359D01*
X160765523Y-111215921D01*
X160765524Y-111215922D01*
X161445000Y-110536446D01*
X161445000Y-110542661D01*
X161472259Y-110644394D01*
X161524920Y-110735606D01*
X161599394Y-110810080D01*
X161690606Y-110862741D01*
X161792339Y-110890000D01*
X161798552Y-110890000D01*
X161119076Y-111569474D01*
X161163650Y-111601859D01*
X161345968Y-111694755D01*
X161540582Y-111757990D01*
X161742683Y-111790000D01*
X161947317Y-111790000D01*
X162149417Y-111757990D01*
X162344031Y-111694755D01*
X162514205Y-111608047D01*
X162582874Y-111595151D01*
X162647615Y-111621427D01*
X162687872Y-111678534D01*
X162694500Y-111718532D01*
X162694500Y-157490500D01*
X162674815Y-157557539D01*
X162622011Y-157603294D01*
X162570500Y-157614500D01*
X64124500Y-157614500D01*
X64057461Y-157594815D01*
X64011706Y-157542011D01*
X64000500Y-157490500D01*
X64000500Y-91361153D01*
X86829500Y-91361153D01*
X86829500Y-91518846D01*
X86860261Y-91673489D01*
X86860264Y-91673501D01*
X86920602Y-91819172D01*
X86920609Y-91819184D01*
X86983602Y-91913459D01*
X87004480Y-91980136D01*
X87004500Y-91982350D01*
X87004500Y-151916611D01*
X87028535Y-152037444D01*
X87028540Y-152037461D01*
X87075685Y-152151280D01*
X87075687Y-152151283D01*
X87075688Y-152151286D01*
X87109915Y-152202509D01*
X87144142Y-152253733D01*
X87231267Y-152340858D01*
X87231270Y-152340860D01*
X87238554Y-152348144D01*
X88192571Y-153302161D01*
X88226056Y-153363484D01*
X88222822Y-153428158D01*
X88217753Y-153443757D01*
X88184500Y-153653713D01*
X88184500Y-153866286D01*
X88217753Y-154076239D01*
X88283444Y-154278414D01*
X88379951Y-154467820D01*
X88504890Y-154639786D01*
X88655213Y-154790109D01*
X88827179Y-154915048D01*
X88827181Y-154915049D01*
X88827184Y-154915051D01*
X89016588Y-155011557D01*
X89218757Y-155077246D01*
X89428713Y-155110500D01*
X89428714Y-155110500D01*
X89641286Y-155110500D01*
X89641287Y-155110500D01*
X89851243Y-155077246D01*
X90053412Y-155011557D01*
X90242816Y-154915051D01*
X90297572Y-154875269D01*
X90414786Y-154790109D01*
X90414788Y-154790106D01*
X90414792Y-154790104D01*
X90565104Y-154639792D01*
X90565106Y-154639788D01*
X90565109Y-154639786D01*
X90690048Y-154467820D01*
X90690047Y-154467820D01*
X90690051Y-154467816D01*
X90694514Y-154459054D01*
X90742488Y-154408259D01*
X90810308Y-154391463D01*
X90876444Y-154413999D01*
X90915486Y-154459056D01*
X90919951Y-154467820D01*
X91044890Y-154639786D01*
X91195213Y-154790109D01*
X91367179Y-154915048D01*
X91367181Y-154915049D01*
X91367184Y-154915051D01*
X91556588Y-155011557D01*
X91758757Y-155077246D01*
X91968713Y-155110500D01*
X91968714Y-155110500D01*
X92181286Y-155110500D01*
X92181287Y-155110500D01*
X92391243Y-155077246D01*
X92593412Y-155011557D01*
X92782816Y-154915051D01*
X92837572Y-154875269D01*
X92954786Y-154790109D01*
X92954788Y-154790106D01*
X92954792Y-154790104D01*
X93105104Y-154639792D01*
X93105106Y-154639788D01*
X93105109Y-154639786D01*
X93230048Y-154467820D01*
X93230047Y-154467820D01*
X93230051Y-154467816D01*
X93234514Y-154459054D01*
X93282488Y-154408259D01*
X93350308Y-154391463D01*
X93416444Y-154413999D01*
X93455486Y-154459056D01*
X93459951Y-154467820D01*
X93584890Y-154639786D01*
X93735213Y-154790109D01*
X93907179Y-154915048D01*
X93907181Y-154915049D01*
X93907184Y-154915051D01*
X94096588Y-155011557D01*
X94298757Y-155077246D01*
X94508713Y-155110500D01*
X94508714Y-155110500D01*
X94721286Y-155110500D01*
X94721287Y-155110500D01*
X94931243Y-155077246D01*
X95133412Y-155011557D01*
X95322816Y-154915051D01*
X95377572Y-154875269D01*
X95494786Y-154790109D01*
X95494788Y-154790106D01*
X95494792Y-154790104D01*
X95645104Y-154639792D01*
X95645106Y-154639788D01*
X95645109Y-154639786D01*
X95770048Y-154467820D01*
X95770047Y-154467820D01*
X95770051Y-154467816D01*
X95774514Y-154459054D01*
X95822488Y-154408259D01*
X95890308Y-154391463D01*
X95956444Y-154413999D01*
X95995486Y-154459056D01*
X95999951Y-154467820D01*
X96124890Y-154639786D01*
X96275213Y-154790109D01*
X96447179Y-154915048D01*
X96447181Y-154915049D01*
X96447184Y-154915051D01*
X96636588Y-155011557D01*
X96838757Y-155077246D01*
X97048713Y-155110500D01*
X97048714Y-155110500D01*
X97261286Y-155110500D01*
X97261287Y-155110500D01*
X97471243Y-155077246D01*
X97673412Y-155011557D01*
X97862816Y-154915051D01*
X97917572Y-154875269D01*
X98034786Y-154790109D01*
X98034788Y-154790106D01*
X98034792Y-154790104D01*
X98185104Y-154639792D01*
X98185106Y-154639788D01*
X98185109Y-154639786D01*
X98310048Y-154467820D01*
X98310047Y-154467820D01*
X98310051Y-154467816D01*
X98314514Y-154459054D01*
X98362488Y-154408259D01*
X98430308Y-154391463D01*
X98496444Y-154413999D01*
X98535486Y-154459056D01*
X98539951Y-154467820D01*
X98664890Y-154639786D01*
X98815213Y-154790109D01*
X98987179Y-154915048D01*
X98987181Y-154915049D01*
X98987184Y-154915051D01*
X99176588Y-155011557D01*
X99378757Y-155077246D01*
X99588713Y-155110500D01*
X99588714Y-155110500D01*
X99801286Y-155110500D01*
X99801287Y-155110500D01*
X100011243Y-155077246D01*
X100213412Y-155011557D01*
X100402816Y-154915051D01*
X100457572Y-154875269D01*
X100574786Y-154790109D01*
X100574788Y-154790106D01*
X100574792Y-154790104D01*
X100725104Y-154639792D01*
X100725106Y-154639788D01*
X100725109Y-154639786D01*
X100850048Y-154467820D01*
X100850047Y-154467820D01*
X100850051Y-154467816D01*
X100854514Y-154459054D01*
X100902488Y-154408259D01*
X100970308Y-154391463D01*
X101036444Y-154413999D01*
X101075486Y-154459056D01*
X101079951Y-154467820D01*
X101204890Y-154639786D01*
X101355213Y-154790109D01*
X101527179Y-154915048D01*
X101527181Y-154915049D01*
X101527184Y-154915051D01*
X101716588Y-155011557D01*
X101918757Y-155077246D01*
X102128713Y-155110500D01*
X102128714Y-155110500D01*
X102341286Y-155110500D01*
X102341287Y-155110500D01*
X102551243Y-155077246D01*
X102753412Y-155011557D01*
X102942816Y-154915051D01*
X102997572Y-154875269D01*
X103114786Y-154790109D01*
X103114788Y-154790106D01*
X103114792Y-154790104D01*
X103265104Y-154639792D01*
X103265106Y-154639788D01*
X103265109Y-154639786D01*
X103390048Y-154467820D01*
X103390047Y-154467820D01*
X103390051Y-154467816D01*
X103394514Y-154459054D01*
X103442488Y-154408259D01*
X103510308Y-154391463D01*
X103576444Y-154413999D01*
X103615486Y-154459056D01*
X103619951Y-154467820D01*
X103744890Y-154639786D01*
X103895213Y-154790109D01*
X104067179Y-154915048D01*
X104067181Y-154915049D01*
X104067184Y-154915051D01*
X104256588Y-155011557D01*
X104458757Y-155077246D01*
X104668713Y-155110500D01*
X104668714Y-155110500D01*
X104881286Y-155110500D01*
X104881287Y-155110500D01*
X105091243Y-155077246D01*
X105293412Y-155011557D01*
X105482816Y-154915051D01*
X105537572Y-154875269D01*
X105654786Y-154790109D01*
X105654788Y-154790106D01*
X105654792Y-154790104D01*
X105805104Y-154639792D01*
X105805106Y-154639788D01*
X105805109Y-154639786D01*
X105930048Y-154467820D01*
X105930047Y-154467820D01*
X105930051Y-154467816D01*
X105934514Y-154459054D01*
X105982488Y-154408259D01*
X106050308Y-154391463D01*
X106116444Y-154413999D01*
X106155486Y-154459056D01*
X106159951Y-154467820D01*
X106284890Y-154639786D01*
X106435213Y-154790109D01*
X106607179Y-154915048D01*
X106607181Y-154915049D01*
X106607184Y-154915051D01*
X106796588Y-155011557D01*
X106998757Y-155077246D01*
X107208713Y-155110500D01*
X107208714Y-155110500D01*
X107421286Y-155110500D01*
X107421287Y-155110500D01*
X107631243Y-155077246D01*
X107833412Y-155011557D01*
X108022816Y-154915051D01*
X108077572Y-154875269D01*
X108194786Y-154790109D01*
X108194788Y-154790106D01*
X108194792Y-154790104D01*
X108345104Y-154639792D01*
X108345106Y-154639788D01*
X108345109Y-154639786D01*
X108470048Y-154467820D01*
X108470047Y-154467820D01*
X108470051Y-154467816D01*
X108474514Y-154459054D01*
X108522488Y-154408259D01*
X108590308Y-154391463D01*
X108656444Y-154413999D01*
X108695486Y-154459056D01*
X108699951Y-154467820D01*
X108824890Y-154639786D01*
X108975213Y-154790109D01*
X109147179Y-154915048D01*
X109147181Y-154915049D01*
X109147184Y-154915051D01*
X109336588Y-155011557D01*
X109538757Y-155077246D01*
X109748713Y-155110500D01*
X109748714Y-155110500D01*
X109961286Y-155110500D01*
X109961287Y-155110500D01*
X110171243Y-155077246D01*
X110373412Y-155011557D01*
X110562816Y-154915051D01*
X110617572Y-154875269D01*
X110734786Y-154790109D01*
X110734788Y-154790106D01*
X110734792Y-154790104D01*
X110885104Y-154639792D01*
X110885106Y-154639788D01*
X110885109Y-154639786D01*
X111010048Y-154467820D01*
X111010047Y-154467820D01*
X111010051Y-154467816D01*
X111014514Y-154459054D01*
X111062488Y-154408259D01*
X111130308Y-154391463D01*
X111196444Y-154413999D01*
X111235486Y-154459056D01*
X111239951Y-154467820D01*
X111364890Y-154639786D01*
X111515213Y-154790109D01*
X111687179Y-154915048D01*
X111687181Y-154915049D01*
X111687184Y-154915051D01*
X111876588Y-155011557D01*
X112078757Y-155077246D01*
X112288713Y-155110500D01*
X112288714Y-155110500D01*
X112501286Y-155110500D01*
X112501287Y-155110500D01*
X112711243Y-155077246D01*
X112913412Y-155011557D01*
X113102816Y-154915051D01*
X113157572Y-154875269D01*
X113274786Y-154790109D01*
X113274788Y-154790106D01*
X113274792Y-154790104D01*
X113425104Y-154639792D01*
X113425106Y-154639788D01*
X113425109Y-154639786D01*
X113550048Y-154467820D01*
X113550047Y-154467820D01*
X113550051Y-154467816D01*
X113554514Y-154459054D01*
X113602488Y-154408259D01*
X113670308Y-154391463D01*
X113736444Y-154413999D01*
X113775486Y-154459056D01*
X113779951Y-154467820D01*
X113904890Y-154639786D01*
X114055213Y-154790109D01*
X114227179Y-154915048D01*
X114227181Y-154915049D01*
X114227184Y-154915051D01*
X114416588Y-155011557D01*
X114618757Y-155077246D01*
X114828713Y-155110500D01*
X114828714Y-155110500D01*
X115041286Y-155110500D01*
X115041287Y-155110500D01*
X115251243Y-155077246D01*
X115453412Y-155011557D01*
X115642816Y-154915051D01*
X115697572Y-154875269D01*
X115814786Y-154790109D01*
X115814788Y-154790106D01*
X115814792Y-154790104D01*
X115965104Y-154639792D01*
X115965106Y-154639788D01*
X115965109Y-154639786D01*
X116090048Y-154467820D01*
X116090047Y-154467820D01*
X116090051Y-154467816D01*
X116094514Y-154459054D01*
X116142488Y-154408259D01*
X116210308Y-154391463D01*
X116276444Y-154413999D01*
X116315486Y-154459056D01*
X116319951Y-154467820D01*
X116444890Y-154639786D01*
X116595213Y-154790109D01*
X116767179Y-154915048D01*
X116767181Y-154915049D01*
X116767184Y-154915051D01*
X116956588Y-155011557D01*
X117158757Y-155077246D01*
X117368713Y-155110500D01*
X117368714Y-155110500D01*
X117581286Y-155110500D01*
X117581287Y-155110500D01*
X117791243Y-155077246D01*
X117993412Y-155011557D01*
X118182816Y-154915051D01*
X118237572Y-154875269D01*
X118354786Y-154790109D01*
X118354788Y-154790106D01*
X118354792Y-154790104D01*
X118505104Y-154639792D01*
X118505106Y-154639788D01*
X118505109Y-154639786D01*
X118630048Y-154467820D01*
X118630047Y-154467820D01*
X118630051Y-154467816D01*
X118634514Y-154459054D01*
X118682488Y-154408259D01*
X118750308Y-154391463D01*
X118816444Y-154413999D01*
X118855486Y-154459056D01*
X118859951Y-154467820D01*
X118984890Y-154639786D01*
X119135213Y-154790109D01*
X119307179Y-154915048D01*
X119307181Y-154915049D01*
X119307184Y-154915051D01*
X119496588Y-155011557D01*
X119698757Y-155077246D01*
X119908713Y-155110500D01*
X119908714Y-155110500D01*
X120121286Y-155110500D01*
X120121287Y-155110500D01*
X120331243Y-155077246D01*
X120533412Y-155011557D01*
X120722816Y-154915051D01*
X120777572Y-154875269D01*
X120894786Y-154790109D01*
X120894788Y-154790106D01*
X120894792Y-154790104D01*
X121045104Y-154639792D01*
X121045106Y-154639788D01*
X121045109Y-154639786D01*
X121170048Y-154467820D01*
X121170047Y-154467820D01*
X121170051Y-154467816D01*
X121174514Y-154459054D01*
X121222488Y-154408259D01*
X121290308Y-154391463D01*
X121356444Y-154413999D01*
X121395486Y-154459056D01*
X121399951Y-154467820D01*
X121524890Y-154639786D01*
X121675213Y-154790109D01*
X121847179Y-154915048D01*
X121847181Y-154915049D01*
X121847184Y-154915051D01*
X122036588Y-155011557D01*
X122238757Y-155077246D01*
X122448713Y-155110500D01*
X122448714Y-155110500D01*
X122661286Y-155110500D01*
X122661287Y-155110500D01*
X122871243Y-155077246D01*
X123073412Y-155011557D01*
X123262816Y-154915051D01*
X123317572Y-154875269D01*
X123434786Y-154790109D01*
X123434788Y-154790106D01*
X123434792Y-154790104D01*
X123585104Y-154639792D01*
X123585106Y-154639788D01*
X123585109Y-154639786D01*
X123710048Y-154467820D01*
X123710047Y-154467820D01*
X123710051Y-154467816D01*
X123714514Y-154459054D01*
X123762488Y-154408259D01*
X123830308Y-154391463D01*
X123896444Y-154413999D01*
X123935486Y-154459056D01*
X123939951Y-154467820D01*
X124064890Y-154639786D01*
X124215213Y-154790109D01*
X124387179Y-154915048D01*
X124387181Y-154915049D01*
X124387184Y-154915051D01*
X124576588Y-155011557D01*
X124778757Y-155077246D01*
X124988713Y-155110500D01*
X124988714Y-155110500D01*
X125201286Y-155110500D01*
X125201287Y-155110500D01*
X125411243Y-155077246D01*
X125613412Y-155011557D01*
X125802816Y-154915051D01*
X125857572Y-154875269D01*
X125974786Y-154790109D01*
X125974788Y-154790106D01*
X125974792Y-154790104D01*
X126125104Y-154639792D01*
X126125106Y-154639788D01*
X126125109Y-154639786D01*
X126250048Y-154467820D01*
X126250047Y-154467820D01*
X126250051Y-154467816D01*
X126254514Y-154459054D01*
X126302488Y-154408259D01*
X126370308Y-154391463D01*
X126436444Y-154413999D01*
X126475486Y-154459056D01*
X126479951Y-154467820D01*
X126604890Y-154639786D01*
X126755213Y-154790109D01*
X126927179Y-154915048D01*
X126927181Y-154915049D01*
X126927184Y-154915051D01*
X127116588Y-155011557D01*
X127318757Y-155077246D01*
X127528713Y-155110500D01*
X127528714Y-155110500D01*
X127741286Y-155110500D01*
X127741287Y-155110500D01*
X127951243Y-155077246D01*
X128153412Y-155011557D01*
X128342816Y-154915051D01*
X128397572Y-154875269D01*
X128514786Y-154790109D01*
X128514788Y-154790106D01*
X128514792Y-154790104D01*
X128665104Y-154639792D01*
X128665106Y-154639788D01*
X128665109Y-154639786D01*
X128790048Y-154467820D01*
X128790047Y-154467820D01*
X128790051Y-154467816D01*
X128794514Y-154459054D01*
X128842488Y-154408259D01*
X128910308Y-154391463D01*
X128976444Y-154413999D01*
X129015486Y-154459056D01*
X129019951Y-154467820D01*
X129144890Y-154639786D01*
X129295213Y-154790109D01*
X129467179Y-154915048D01*
X129467181Y-154915049D01*
X129467184Y-154915051D01*
X129656588Y-155011557D01*
X129858757Y-155077246D01*
X130068713Y-155110500D01*
X130068714Y-155110500D01*
X130281286Y-155110500D01*
X130281287Y-155110500D01*
X130491243Y-155077246D01*
X130693412Y-155011557D01*
X130882816Y-154915051D01*
X130937572Y-154875269D01*
X131054786Y-154790109D01*
X131054788Y-154790106D01*
X131054792Y-154790104D01*
X131205104Y-154639792D01*
X131205106Y-154639788D01*
X131205109Y-154639786D01*
X131330048Y-154467820D01*
X131330047Y-154467820D01*
X131330051Y-154467816D01*
X131334514Y-154459054D01*
X131382488Y-154408259D01*
X131450308Y-154391463D01*
X131516444Y-154413999D01*
X131555486Y-154459056D01*
X131559951Y-154467820D01*
X131684890Y-154639786D01*
X131835213Y-154790109D01*
X132007179Y-154915048D01*
X132007181Y-154915049D01*
X132007184Y-154915051D01*
X132196588Y-155011557D01*
X132398757Y-155077246D01*
X132608713Y-155110500D01*
X132608714Y-155110500D01*
X132821286Y-155110500D01*
X132821287Y-155110500D01*
X133031243Y-155077246D01*
X133233412Y-155011557D01*
X133422816Y-154915051D01*
X133477572Y-154875269D01*
X133594786Y-154790109D01*
X133594788Y-154790106D01*
X133594792Y-154790104D01*
X133745104Y-154639792D01*
X133745106Y-154639788D01*
X133745109Y-154639786D01*
X133870048Y-154467820D01*
X133870047Y-154467820D01*
X133870051Y-154467816D01*
X133874514Y-154459054D01*
X133922488Y-154408259D01*
X133990308Y-154391463D01*
X134056444Y-154413999D01*
X134095486Y-154459056D01*
X134099951Y-154467820D01*
X134224890Y-154639786D01*
X134375213Y-154790109D01*
X134547179Y-154915048D01*
X134547181Y-154915049D01*
X134547184Y-154915051D01*
X134736588Y-155011557D01*
X134938757Y-155077246D01*
X135148713Y-155110500D01*
X135148714Y-155110500D01*
X135361286Y-155110500D01*
X135361287Y-155110500D01*
X135571243Y-155077246D01*
X135773412Y-155011557D01*
X135962816Y-154915051D01*
X136017572Y-154875269D01*
X136134786Y-154790109D01*
X136134788Y-154790106D01*
X136134792Y-154790104D01*
X136285104Y-154639792D01*
X136285106Y-154639788D01*
X136285109Y-154639786D01*
X136370890Y-154521717D01*
X136410051Y-154467816D01*
X136414793Y-154458508D01*
X136462763Y-154407711D01*
X136530583Y-154390911D01*
X136596719Y-154413445D01*
X136635763Y-154458500D01*
X136640373Y-154467547D01*
X136679728Y-154521716D01*
X137312037Y-153889408D01*
X137329075Y-153952993D01*
X137394901Y-154067007D01*
X137487993Y-154160099D01*
X137602007Y-154225925D01*
X137665590Y-154242962D01*
X137033282Y-154875269D01*
X137033282Y-154875270D01*
X137087449Y-154914624D01*
X137276782Y-155011095D01*
X137478870Y-155076757D01*
X137688754Y-155110000D01*
X137901246Y-155110000D01*
X138111127Y-155076757D01*
X138111130Y-155076757D01*
X138313217Y-155011095D01*
X138502554Y-154914622D01*
X138556716Y-154875270D01*
X138556717Y-154875270D01*
X137924408Y-154242962D01*
X137987993Y-154225925D01*
X138102007Y-154160099D01*
X138195099Y-154067007D01*
X138260925Y-153952993D01*
X138277962Y-153889409D01*
X138910270Y-154521717D01*
X138910270Y-154521716D01*
X138949622Y-154467554D01*
X139046095Y-154278217D01*
X139111757Y-154076130D01*
X139111757Y-154076127D01*
X139145000Y-153866246D01*
X139145000Y-153653753D01*
X139111757Y-153443872D01*
X139111757Y-153443869D01*
X139046095Y-153241782D01*
X138949624Y-153052449D01*
X138910270Y-152998282D01*
X138910269Y-152998282D01*
X138277962Y-153630590D01*
X138260925Y-153567007D01*
X138195099Y-153452993D01*
X138102007Y-153359901D01*
X137987993Y-153294075D01*
X137924409Y-153277037D01*
X138593802Y-152607642D01*
X138655125Y-152574157D01*
X138669833Y-152575078D01*
X138669556Y-152572501D01*
X138752375Y-152563598D01*
X138887086Y-152513354D01*
X138887093Y-152513350D01*
X139002187Y-152427190D01*
X139002190Y-152427187D01*
X139088350Y-152312093D01*
X139088354Y-152312086D01*
X139138596Y-152177379D01*
X139138598Y-152177372D01*
X139144999Y-152117844D01*
X139145000Y-152117827D01*
X139145000Y-151470000D01*
X138228012Y-151470000D01*
X138260925Y-151412993D01*
X138295000Y-151285826D01*
X138295000Y-151154174D01*
X138260925Y-151027007D01*
X138228012Y-150970000D01*
X139145000Y-150970000D01*
X139145000Y-150322172D01*
X139144999Y-150322155D01*
X139138598Y-150262627D01*
X139138596Y-150262620D01*
X139088354Y-150127913D01*
X139088350Y-150127906D01*
X139002190Y-150012812D01*
X139002187Y-150012809D01*
X138887093Y-149926649D01*
X138887086Y-149926645D01*
X138752379Y-149876403D01*
X138752372Y-149876401D01*
X138692844Y-149870000D01*
X138045000Y-149870000D01*
X138045000Y-150786988D01*
X137987993Y-150754075D01*
X137860826Y-150720000D01*
X137729174Y-150720000D01*
X137602007Y-150754075D01*
X137545000Y-150786988D01*
X137545000Y-149870000D01*
X136897155Y-149870000D01*
X136837627Y-149876401D01*
X136837620Y-149876403D01*
X136702913Y-149926645D01*
X136702906Y-149926649D01*
X136587812Y-150012809D01*
X136587809Y-150012812D01*
X136501649Y-150127906D01*
X136501646Y-150127912D01*
X136452577Y-150259471D01*
X136410705Y-150315404D01*
X136345241Y-150339821D01*
X136276968Y-150324969D01*
X136248714Y-150303818D01*
X136134786Y-150189890D01*
X135962820Y-150064951D01*
X135773414Y-149968444D01*
X135773413Y-149968443D01*
X135773412Y-149968443D01*
X135571243Y-149902754D01*
X135571241Y-149902753D01*
X135571240Y-149902753D01*
X135409957Y-149877208D01*
X135361287Y-149869500D01*
X135148713Y-149869500D01*
X135100042Y-149877208D01*
X134938760Y-149902753D01*
X134938757Y-149902754D01*
X134766682Y-149958665D01*
X134736585Y-149968444D01*
X134547179Y-150064951D01*
X134375213Y-150189890D01*
X134224890Y-150340213D01*
X134099949Y-150512182D01*
X134095484Y-150520946D01*
X134047509Y-150571742D01*
X133979688Y-150588536D01*
X133913553Y-150565998D01*
X133874516Y-150520946D01*
X133870050Y-150512182D01*
X133745109Y-150340213D01*
X133594786Y-150189890D01*
X133422820Y-150064951D01*
X133233416Y-149968444D01*
X133189585Y-149954202D01*
X133130036Y-149934854D01*
X133072363Y-149895417D01*
X133045165Y-149831059D01*
X133057080Y-149762212D01*
X133080670Y-149729250D01*
X133492139Y-149317782D01*
X133529129Y-149262421D01*
X133601631Y-149153916D01*
X133601636Y-149153906D01*
X133677049Y-148971839D01*
X133677051Y-148971835D01*
X133715500Y-148778541D01*
X133715500Y-147560761D01*
X133735185Y-147493722D01*
X133739165Y-147487899D01*
X133827287Y-147366610D01*
X133920220Y-147184219D01*
X133983477Y-146989534D01*
X134015500Y-146787352D01*
X134015500Y-146582682D01*
X136415000Y-146582682D01*
X136415000Y-146787317D01*
X136447009Y-146989417D01*
X136510244Y-147184031D01*
X136603141Y-147366350D01*
X136603147Y-147366359D01*
X136635523Y-147410921D01*
X136635524Y-147410922D01*
X137315000Y-146731446D01*
X137315000Y-146737661D01*
X137342259Y-146839394D01*
X137394920Y-146930606D01*
X137469394Y-147005080D01*
X137560606Y-147057741D01*
X137662339Y-147085000D01*
X137668553Y-147085000D01*
X136989076Y-147764474D01*
X137033650Y-147796859D01*
X137215968Y-147889755D01*
X137410582Y-147952990D01*
X137612683Y-147985000D01*
X137817317Y-147985000D01*
X138019417Y-147952990D01*
X138214031Y-147889755D01*
X138396349Y-147796859D01*
X138440921Y-147764474D01*
X137761447Y-147085000D01*
X137767661Y-147085000D01*
X137869394Y-147057741D01*
X137960606Y-147005080D01*
X138035080Y-146930606D01*
X138087741Y-146839394D01*
X138115000Y-146737661D01*
X138115000Y-146731447D01*
X138794474Y-147410921D01*
X138826859Y-147366349D01*
X138919755Y-147184031D01*
X138982990Y-146989417D01*
X139015000Y-146787317D01*
X139015000Y-146582682D01*
X138982990Y-146380582D01*
X138919755Y-146185968D01*
X138826859Y-146003650D01*
X138794474Y-145959077D01*
X138794474Y-145959076D01*
X138115000Y-146638551D01*
X138115000Y-146632339D01*
X138087741Y-146530606D01*
X138035080Y-146439394D01*
X137960606Y-146364920D01*
X137869394Y-146312259D01*
X137767661Y-146285000D01*
X137761446Y-146285000D01*
X138440922Y-145605524D01*
X138440921Y-145605523D01*
X138396359Y-145573147D01*
X138396350Y-145573141D01*
X138214031Y-145480244D01*
X138019417Y-145417009D01*
X137817317Y-145385000D01*
X137612683Y-145385000D01*
X137410582Y-145417009D01*
X137215968Y-145480244D01*
X137033644Y-145573143D01*
X136989077Y-145605523D01*
X136989077Y-145605524D01*
X137668554Y-146285000D01*
X137662339Y-146285000D01*
X137560606Y-146312259D01*
X137469394Y-146364920D01*
X137394920Y-146439394D01*
X137342259Y-146530606D01*
X137315000Y-146632339D01*
X137315000Y-146638553D01*
X136635524Y-145959077D01*
X136635523Y-145959077D01*
X136603143Y-146003644D01*
X136510244Y-146185968D01*
X136447009Y-146380582D01*
X136415000Y-146582682D01*
X134015500Y-146582682D01*
X134015500Y-146582648D01*
X134007257Y-146530606D01*
X133983477Y-146380465D01*
X133952458Y-146285000D01*
X133920220Y-146185781D01*
X133920218Y-146185778D01*
X133920218Y-146185776D01*
X133827419Y-146003650D01*
X133827287Y-146003390D01*
X133795091Y-145959076D01*
X133739182Y-145882122D01*
X133732029Y-145862077D01*
X133720523Y-145844172D01*
X133717068Y-145820145D01*
X133715702Y-145816316D01*
X133715500Y-145809237D01*
X133715500Y-128975632D01*
X133735185Y-128908593D01*
X133739177Y-128902753D01*
X133741760Y-128899199D01*
X133827547Y-128730832D01*
X133867069Y-128609195D01*
X133906507Y-128551521D01*
X133970866Y-128524323D01*
X134039712Y-128536238D01*
X134091188Y-128583482D01*
X134102931Y-128609196D01*
X134142454Y-128730836D01*
X134228239Y-128899198D01*
X134228240Y-128899199D01*
X134339310Y-129052073D01*
X134472927Y-129185690D01*
X134625801Y-129296760D01*
X134705347Y-129337290D01*
X134794163Y-129382545D01*
X134794165Y-129382545D01*
X134794168Y-129382547D01*
X134887000Y-129412710D01*
X134973881Y-129440940D01*
X135160514Y-129470500D01*
X135160519Y-129470500D01*
X135349486Y-129470500D01*
X135536118Y-129440940D01*
X135715832Y-129382547D01*
X135884199Y-129296760D01*
X136037073Y-129185690D01*
X136170690Y-129052073D01*
X136281760Y-128899199D01*
X136367547Y-128730832D01*
X136425940Y-128551118D01*
X136430184Y-128524323D01*
X136455500Y-128364486D01*
X136455500Y-128175513D01*
X136425940Y-127988881D01*
X136367545Y-127809163D01*
X136322290Y-127720347D01*
X136281760Y-127640801D01*
X136170690Y-127487927D01*
X136037073Y-127354310D01*
X135884199Y-127243240D01*
X135715836Y-127157454D01*
X135536118Y-127099059D01*
X135349486Y-127069500D01*
X135349481Y-127069500D01*
X135160519Y-127069500D01*
X135160514Y-127069500D01*
X134973881Y-127099059D01*
X134794163Y-127157454D01*
X134625800Y-127243240D01*
X134577911Y-127278034D01*
X134472927Y-127354310D01*
X134472925Y-127354312D01*
X134472924Y-127354312D01*
X134339312Y-127487924D01*
X134339312Y-127487925D01*
X134339310Y-127487927D01*
X134330347Y-127500264D01*
X134228240Y-127640800D01*
X134142454Y-127809163D01*
X134102931Y-127930803D01*
X134063493Y-127988478D01*
X133999134Y-128015676D01*
X133930288Y-128003761D01*
X133878812Y-127956516D01*
X133867069Y-127930803D01*
X133827545Y-127809163D01*
X133780565Y-127716962D01*
X133741760Y-127640801D01*
X133741758Y-127640798D01*
X133741757Y-127640796D01*
X133739179Y-127637247D01*
X133715702Y-127571439D01*
X133715500Y-127564366D01*
X133715500Y-123802376D01*
X133729015Y-123746081D01*
X133777545Y-123650836D01*
X133777545Y-123650835D01*
X133777547Y-123650832D01*
X133817069Y-123529195D01*
X133856507Y-123471521D01*
X133920866Y-123444323D01*
X133989712Y-123456238D01*
X134041188Y-123503482D01*
X134052931Y-123529196D01*
X134092454Y-123650836D01*
X134169668Y-123802376D01*
X134178240Y-123819199D01*
X134289310Y-123972073D01*
X134422927Y-124105690D01*
X134575801Y-124216760D01*
X134655347Y-124257290D01*
X134744163Y-124302545D01*
X134744165Y-124302545D01*
X134744168Y-124302547D01*
X134840497Y-124333846D01*
X134923881Y-124360940D01*
X135110514Y-124390500D01*
X135110519Y-124390500D01*
X135299486Y-124390500D01*
X135486118Y-124360940D01*
X135521280Y-124349515D01*
X135665832Y-124302547D01*
X135834199Y-124216760D01*
X135987073Y-124105690D01*
X136120690Y-123972073D01*
X136231760Y-123819199D01*
X136317547Y-123650832D01*
X136375940Y-123471118D01*
X136380184Y-123444323D01*
X136405500Y-123284486D01*
X136405500Y-123095513D01*
X136375940Y-122908881D01*
X136317545Y-122729163D01*
X136231759Y-122560800D01*
X136120690Y-122407927D01*
X135987073Y-122274310D01*
X135834199Y-122163240D01*
X135665836Y-122077454D01*
X135486118Y-122019059D01*
X135299486Y-121989500D01*
X135299481Y-121989500D01*
X135110519Y-121989500D01*
X135110514Y-121989500D01*
X134923881Y-122019059D01*
X134744163Y-122077454D01*
X134575800Y-122163240D01*
X134488579Y-122226610D01*
X134422927Y-122274310D01*
X134422925Y-122274312D01*
X134422924Y-122274312D01*
X134289312Y-122407924D01*
X134289312Y-122407925D01*
X134289310Y-122407927D01*
X134241610Y-122473579D01*
X134178240Y-122560800D01*
X134092454Y-122729163D01*
X134052931Y-122850803D01*
X134013493Y-122908478D01*
X133949134Y-122935676D01*
X133880288Y-122923761D01*
X133828812Y-122876516D01*
X133817069Y-122850803D01*
X133777545Y-122729163D01*
X133691759Y-122560800D01*
X133580690Y-122407927D01*
X133501819Y-122329056D01*
X133468334Y-122267733D01*
X133465500Y-122241375D01*
X133465500Y-119108625D01*
X133485185Y-119041586D01*
X133501819Y-119020944D01*
X133565550Y-118957213D01*
X133630690Y-118892073D01*
X133741760Y-118739199D01*
X133827547Y-118570832D01*
X133867069Y-118449195D01*
X133906507Y-118391521D01*
X133970866Y-118364323D01*
X134039712Y-118376238D01*
X134091188Y-118423482D01*
X134102931Y-118449196D01*
X134142454Y-118570836D01*
X134228240Y-118739199D01*
X134339310Y-118892073D01*
X134472927Y-119025690D01*
X134625801Y-119136760D01*
X134705347Y-119177290D01*
X134794163Y-119222545D01*
X134794165Y-119222545D01*
X134794168Y-119222547D01*
X134890497Y-119253846D01*
X134973881Y-119280940D01*
X135160514Y-119310500D01*
X135160519Y-119310500D01*
X135349486Y-119310500D01*
X135536118Y-119280940D01*
X135571280Y-119269515D01*
X135715832Y-119222547D01*
X135884199Y-119136760D01*
X136037073Y-119025690D01*
X136170690Y-118892073D01*
X136281760Y-118739199D01*
X136367547Y-118570832D01*
X136425940Y-118391118D01*
X136430184Y-118364323D01*
X136455500Y-118204486D01*
X136455500Y-118015513D01*
X136425940Y-117828881D01*
X136401225Y-117752819D01*
X136399229Y-117682978D01*
X136435309Y-117623145D01*
X136498010Y-117592316D01*
X136519156Y-117590500D01*
X137060698Y-117590500D01*
X137127737Y-117610185D01*
X137173492Y-117662989D01*
X137183436Y-117732147D01*
X137178629Y-117752819D01*
X137161522Y-117805465D01*
X137129500Y-118007648D01*
X137129500Y-118212351D01*
X137161522Y-118414534D01*
X137224781Y-118609223D01*
X137317715Y-118791613D01*
X137438028Y-118957213D01*
X137582786Y-119101971D01*
X137737749Y-119214556D01*
X137748390Y-119222287D01*
X137839840Y-119268883D01*
X137841080Y-119269515D01*
X137891876Y-119317490D01*
X137908671Y-119385311D01*
X137886134Y-119451446D01*
X137841080Y-119490485D01*
X137748386Y-119537715D01*
X137582786Y-119658028D01*
X137438028Y-119802786D01*
X137317715Y-119968386D01*
X137224781Y-120150776D01*
X137161522Y-120345465D01*
X137129500Y-120547648D01*
X137129500Y-120752351D01*
X137161522Y-120954534D01*
X137224781Y-121149223D01*
X137317715Y-121331613D01*
X137438028Y-121497213D01*
X137582786Y-121641971D01*
X137737749Y-121754556D01*
X137748390Y-121762287D01*
X137839840Y-121808883D01*
X137841080Y-121809515D01*
X137891876Y-121857490D01*
X137908671Y-121925311D01*
X137886134Y-121991446D01*
X137841080Y-122030485D01*
X137748386Y-122077715D01*
X137582786Y-122198028D01*
X137438028Y-122342786D01*
X137317715Y-122508386D01*
X137224781Y-122690776D01*
X137161522Y-122885465D01*
X137129500Y-123087648D01*
X137129500Y-123292351D01*
X137161522Y-123494534D01*
X137224781Y-123689223D01*
X137317715Y-123871613D01*
X137438028Y-124037213D01*
X137582786Y-124181971D01*
X137737749Y-124294556D01*
X137748390Y-124302287D01*
X137839840Y-124348883D01*
X137841080Y-124349515D01*
X137891876Y-124397490D01*
X137908671Y-124465311D01*
X137886134Y-124531446D01*
X137841080Y-124570485D01*
X137748386Y-124617715D01*
X137582786Y-124738028D01*
X137438028Y-124882786D01*
X137317715Y-125048386D01*
X137224781Y-125230776D01*
X137161522Y-125425465D01*
X137129500Y-125627648D01*
X137129500Y-125832351D01*
X137161522Y-126034534D01*
X137224781Y-126229223D01*
X137317715Y-126411613D01*
X137438028Y-126577213D01*
X137582786Y-126721971D01*
X137737749Y-126834556D01*
X137748390Y-126842287D01*
X137839840Y-126888883D01*
X137841080Y-126889515D01*
X137891876Y-126937490D01*
X137908671Y-127005311D01*
X137886134Y-127071446D01*
X137841080Y-127110485D01*
X137748386Y-127157715D01*
X137582786Y-127278028D01*
X137438028Y-127422786D01*
X137317715Y-127588386D01*
X137224781Y-127770776D01*
X137161522Y-127965465D01*
X137129500Y-128167648D01*
X137129500Y-128372351D01*
X137161522Y-128574534D01*
X137224781Y-128769223D01*
X137317715Y-128951613D01*
X137438028Y-129117213D01*
X137582786Y-129261971D01*
X137737749Y-129374556D01*
X137748390Y-129382287D01*
X137863503Y-129440940D01*
X137930776Y-129475218D01*
X137930778Y-129475218D01*
X137930781Y-129475220D01*
X138021856Y-129504812D01*
X138125465Y-129538477D01*
X138226557Y-129554488D01*
X138327648Y-129570500D01*
X138327649Y-129570500D01*
X138532351Y-129570500D01*
X138532352Y-129570500D01*
X138734534Y-129538477D01*
X138929219Y-129475220D01*
X139111610Y-129382287D01*
X139240482Y-129288657D01*
X139277213Y-129261971D01*
X139277215Y-129261968D01*
X139277219Y-129261966D01*
X139421966Y-129117219D01*
X139421968Y-129117215D01*
X139421971Y-129117213D01*
X139526892Y-128972799D01*
X139542287Y-128951610D01*
X139635220Y-128769219D01*
X139698477Y-128574534D01*
X139730500Y-128372352D01*
X139730500Y-128167648D01*
X139706430Y-128015676D01*
X139698477Y-127965465D01*
X139669127Y-127875137D01*
X139635220Y-127770781D01*
X139635218Y-127770778D01*
X139635218Y-127770776D01*
X139583865Y-127669991D01*
X139542287Y-127588390D01*
X139531061Y-127572938D01*
X139421971Y-127422786D01*
X139277213Y-127278028D01*
X139111614Y-127157715D01*
X139105006Y-127154348D01*
X139018917Y-127110483D01*
X138968123Y-127062511D01*
X138951328Y-126994690D01*
X138973865Y-126928555D01*
X139018917Y-126889516D01*
X139111610Y-126842287D01*
X139229329Y-126756760D01*
X139277213Y-126721971D01*
X139277215Y-126721968D01*
X139277219Y-126721966D01*
X139421966Y-126577219D01*
X139421968Y-126577215D01*
X139421971Y-126577213D01*
X139474732Y-126504590D01*
X139542287Y-126411610D01*
X139635220Y-126229219D01*
X139698477Y-126034534D01*
X139730500Y-125832352D01*
X139730500Y-125627648D01*
X139706430Y-125475676D01*
X139698477Y-125425465D01*
X139669127Y-125335137D01*
X139635220Y-125230781D01*
X139635218Y-125230778D01*
X139635218Y-125230776D01*
X139601503Y-125164607D01*
X139542287Y-125048390D01*
X139534556Y-125037749D01*
X139421971Y-124882786D01*
X139277213Y-124738028D01*
X139111614Y-124617715D01*
X139105006Y-124614348D01*
X139018917Y-124570483D01*
X138968123Y-124522511D01*
X138951328Y-124454690D01*
X138973865Y-124388555D01*
X139018917Y-124349516D01*
X139111610Y-124302287D01*
X139229329Y-124216760D01*
X139277213Y-124181971D01*
X139277215Y-124181968D01*
X139277219Y-124181966D01*
X139421966Y-124037219D01*
X139421968Y-124037215D01*
X139421971Y-124037213D01*
X139479978Y-123957371D01*
X139542287Y-123871610D01*
X139635220Y-123689219D01*
X139698477Y-123494534D01*
X139730500Y-123292352D01*
X139730500Y-123087648D01*
X139706430Y-122935676D01*
X139698477Y-122885465D01*
X139669127Y-122795137D01*
X139635220Y-122690781D01*
X139635218Y-122690778D01*
X139635218Y-122690776D01*
X139601503Y-122624607D01*
X139542287Y-122508390D01*
X139534556Y-122497749D01*
X139421971Y-122342786D01*
X139277213Y-122198028D01*
X139111614Y-122077715D01*
X139105006Y-122074348D01*
X139018917Y-122030483D01*
X138968123Y-121982511D01*
X138951328Y-121914690D01*
X138973865Y-121848555D01*
X139018917Y-121809516D01*
X139111610Y-121762287D01*
X139229329Y-121676760D01*
X139277213Y-121641971D01*
X139277215Y-121641968D01*
X139277219Y-121641966D01*
X139421966Y-121497219D01*
X139421968Y-121497215D01*
X139421971Y-121497213D01*
X139474732Y-121424590D01*
X139542287Y-121331610D01*
X139635220Y-121149219D01*
X139698477Y-120954534D01*
X139730500Y-120752352D01*
X139730500Y-120547648D01*
X139706430Y-120395676D01*
X139698477Y-120345465D01*
X139669127Y-120255137D01*
X139635220Y-120150781D01*
X139635218Y-120150778D01*
X139635218Y-120150776D01*
X139572767Y-120028211D01*
X139542287Y-119968390D01*
X139531061Y-119952938D01*
X139421971Y-119802786D01*
X139277213Y-119658028D01*
X139111614Y-119537715D01*
X139105006Y-119534348D01*
X139018917Y-119490483D01*
X138968123Y-119442511D01*
X138951328Y-119374690D01*
X138973865Y-119308555D01*
X139018917Y-119269516D01*
X139111610Y-119222287D01*
X139229329Y-119136760D01*
X139277213Y-119101971D01*
X139277215Y-119101968D01*
X139277219Y-119101966D01*
X139421966Y-118957219D01*
X139421968Y-118957215D01*
X139421971Y-118957213D01*
X139474732Y-118884590D01*
X139542287Y-118791610D01*
X139635220Y-118609219D01*
X139698477Y-118414534D01*
X139730500Y-118212352D01*
X139730500Y-118007648D01*
X139698477Y-117805466D01*
X139681371Y-117752819D01*
X139679376Y-117682977D01*
X139715456Y-117623144D01*
X139778157Y-117592316D01*
X139799302Y-117590500D01*
X147393920Y-117590500D01*
X147491462Y-117571096D01*
X147538913Y-117561658D01*
X147675495Y-117505084D01*
X147724729Y-117472186D01*
X147798416Y-117422952D01*
X152159067Y-113062298D01*
X152220388Y-113028815D01*
X152290080Y-113033799D01*
X152346013Y-113075671D01*
X152369219Y-113130582D01*
X152401523Y-113334535D01*
X152464781Y-113529223D01*
X152520717Y-113639002D01*
X152540695Y-113678211D01*
X152557715Y-113711613D01*
X152678028Y-113877213D01*
X152822786Y-114021971D01*
X152977749Y-114134556D01*
X152988390Y-114142287D01*
X153079840Y-114188883D01*
X153081080Y-114189515D01*
X153131876Y-114237490D01*
X153148671Y-114305311D01*
X153126134Y-114371446D01*
X153081080Y-114410485D01*
X152988386Y-114457715D01*
X152822786Y-114578028D01*
X152678028Y-114722786D01*
X152557715Y-114888386D01*
X152464781Y-115070776D01*
X152401522Y-115265465D01*
X152369500Y-115467648D01*
X152369500Y-115672351D01*
X152401522Y-115874534D01*
X152464781Y-116069223D01*
X152557715Y-116251613D01*
X152678028Y-116417213D01*
X152822786Y-116561971D01*
X152977672Y-116674500D01*
X152988390Y-116682287D01*
X153079840Y-116728883D01*
X153081080Y-116729515D01*
X153131876Y-116777490D01*
X153148671Y-116845311D01*
X153126134Y-116911446D01*
X153081080Y-116950485D01*
X152988386Y-116997715D01*
X152822786Y-117118028D01*
X152678028Y-117262786D01*
X152557715Y-117428386D01*
X152464781Y-117610776D01*
X152401522Y-117805465D01*
X152369500Y-118007648D01*
X152369500Y-118212351D01*
X152401522Y-118414534D01*
X152464781Y-118609223D01*
X152557715Y-118791613D01*
X152678028Y-118957213D01*
X152822786Y-119101971D01*
X152977749Y-119214556D01*
X152988390Y-119222287D01*
X153079840Y-119268883D01*
X153081080Y-119269515D01*
X153131876Y-119317490D01*
X153148671Y-119385311D01*
X153126134Y-119451446D01*
X153081080Y-119490485D01*
X152988386Y-119537715D01*
X152822786Y-119658028D01*
X152678028Y-119802786D01*
X152557715Y-119968386D01*
X152464781Y-120150776D01*
X152401522Y-120345465D01*
X152369500Y-120547648D01*
X152369500Y-120752351D01*
X152401522Y-120954534D01*
X152464781Y-121149223D01*
X152557715Y-121331613D01*
X152678028Y-121497213D01*
X152822786Y-121641971D01*
X152977749Y-121754556D01*
X152988390Y-121762287D01*
X153079840Y-121808883D01*
X153081080Y-121809515D01*
X153131876Y-121857490D01*
X153148671Y-121925311D01*
X153126134Y-121991446D01*
X153081080Y-122030485D01*
X152988386Y-122077715D01*
X152822786Y-122198028D01*
X152678028Y-122342786D01*
X152557715Y-122508386D01*
X152464781Y-122690776D01*
X152401522Y-122885465D01*
X152369500Y-123087648D01*
X152369500Y-123292351D01*
X152401522Y-123494534D01*
X152464781Y-123689223D01*
X152557715Y-123871613D01*
X152678028Y-124037213D01*
X152822786Y-124181971D01*
X152977749Y-124294556D01*
X152988390Y-124302287D01*
X153079840Y-124348883D01*
X153081080Y-124349515D01*
X153131876Y-124397490D01*
X153148671Y-124465311D01*
X153126134Y-124531446D01*
X153081080Y-124570485D01*
X152988386Y-124617715D01*
X152822786Y-124738028D01*
X152678028Y-124882786D01*
X152557715Y-125048386D01*
X152464781Y-125230776D01*
X152401522Y-125425465D01*
X152369500Y-125627648D01*
X152369500Y-125832351D01*
X152401522Y-126034534D01*
X152464781Y-126229223D01*
X152557715Y-126411613D01*
X152678028Y-126577213D01*
X152678034Y-126577219D01*
X152822781Y-126721966D01*
X152916452Y-126790021D01*
X152959117Y-126845350D01*
X152965096Y-126914963D01*
X152932491Y-126976759D01*
X152882571Y-127008045D01*
X152800666Y-127035186D01*
X152800663Y-127035187D01*
X152651342Y-127127289D01*
X152527289Y-127251342D01*
X152435187Y-127400663D01*
X152435186Y-127400666D01*
X152380001Y-127567203D01*
X152380001Y-127567204D01*
X152380000Y-127567204D01*
X152369500Y-127669983D01*
X152369500Y-128870001D01*
X152369501Y-128870018D01*
X152380000Y-128972796D01*
X152380001Y-128972799D01*
X152406271Y-129052075D01*
X152435186Y-129139334D01*
X152527288Y-129288656D01*
X152651344Y-129412712D01*
X152800666Y-129504814D01*
X152967203Y-129559999D01*
X153069991Y-129570500D01*
X154270008Y-129570499D01*
X154372797Y-129559999D01*
X154539334Y-129504814D01*
X154688656Y-129412712D01*
X154812712Y-129288656D01*
X154904814Y-129139334D01*
X154959999Y-128972797D01*
X154970500Y-128870009D01*
X154970499Y-127669992D01*
X154959999Y-127567203D01*
X154904814Y-127400666D01*
X154812712Y-127251344D01*
X154688656Y-127127288D01*
X154539334Y-127035186D01*
X154457427Y-127008044D01*
X154399984Y-126968272D01*
X154373161Y-126903756D01*
X154385476Y-126834980D01*
X154423547Y-126790021D01*
X154517219Y-126721966D01*
X154661966Y-126577219D01*
X154661968Y-126577215D01*
X154661971Y-126577213D01*
X154714732Y-126504590D01*
X154782287Y-126411610D01*
X154875220Y-126229219D01*
X154938477Y-126034534D01*
X154970500Y-125832352D01*
X154970500Y-125635513D01*
X155644500Y-125635513D01*
X155644500Y-125824486D01*
X155674059Y-126011118D01*
X155732454Y-126190836D01*
X155818240Y-126359199D01*
X155929310Y-126512073D01*
X156062927Y-126645690D01*
X156215801Y-126756760D01*
X156281078Y-126790020D01*
X156384163Y-126842545D01*
X156384165Y-126842545D01*
X156384168Y-126842547D01*
X156480497Y-126873846D01*
X156563881Y-126900940D01*
X156750514Y-126930500D01*
X156750519Y-126930500D01*
X156939486Y-126930500D01*
X157126118Y-126900940D01*
X157161280Y-126889515D01*
X157305832Y-126842547D01*
X157474199Y-126756760D01*
X157627073Y-126645690D01*
X157760690Y-126512073D01*
X157871760Y-126359199D01*
X157957547Y-126190832D01*
X157997069Y-126069195D01*
X158036507Y-126011521D01*
X158100866Y-125984323D01*
X158169712Y-125996238D01*
X158221188Y-126043482D01*
X158232931Y-126069196D01*
X158272454Y-126190836D01*
X158358240Y-126359199D01*
X158469310Y-126512073D01*
X158602927Y-126645690D01*
X158755801Y-126756760D01*
X158821078Y-126790020D01*
X158924163Y-126842545D01*
X158924165Y-126842545D01*
X158924168Y-126842547D01*
X159020497Y-126873846D01*
X159103881Y-126900940D01*
X159290514Y-126930500D01*
X159290519Y-126930500D01*
X159479486Y-126930500D01*
X159666118Y-126900940D01*
X159701280Y-126889515D01*
X159845832Y-126842547D01*
X160014199Y-126756760D01*
X160167073Y-126645690D01*
X160300690Y-126512073D01*
X160411760Y-126359199D01*
X160497547Y-126190832D01*
X160555940Y-126011118D01*
X160560184Y-125984323D01*
X160585500Y-125824486D01*
X160585500Y-125635513D01*
X160555940Y-125448881D01*
X160497545Y-125269163D01*
X160411759Y-125100800D01*
X160300690Y-124947927D01*
X160167073Y-124814310D01*
X160014199Y-124703240D01*
X159845836Y-124617454D01*
X159666118Y-124559059D01*
X159479486Y-124529500D01*
X159479481Y-124529500D01*
X159290519Y-124529500D01*
X159290514Y-124529500D01*
X159103881Y-124559059D01*
X158924163Y-124617454D01*
X158755800Y-124703240D01*
X158707911Y-124738034D01*
X158602927Y-124814310D01*
X158602925Y-124814312D01*
X158602924Y-124814312D01*
X158469312Y-124947924D01*
X158469312Y-124947925D01*
X158469310Y-124947927D01*
X158421610Y-125013579D01*
X158358240Y-125100800D01*
X158272454Y-125269163D01*
X158232931Y-125390803D01*
X158193493Y-125448478D01*
X158129134Y-125475676D01*
X158060288Y-125463761D01*
X158008812Y-125416516D01*
X157997069Y-125390803D01*
X157957545Y-125269163D01*
X157871759Y-125100800D01*
X157760690Y-124947927D01*
X157627073Y-124814310D01*
X157474199Y-124703240D01*
X157305836Y-124617454D01*
X157126118Y-124559059D01*
X156939486Y-124529500D01*
X156939481Y-124529500D01*
X156750519Y-124529500D01*
X156750514Y-124529500D01*
X156563881Y-124559059D01*
X156384163Y-124617454D01*
X156215800Y-124703240D01*
X156167911Y-124738034D01*
X156062927Y-124814310D01*
X156062925Y-124814312D01*
X156062924Y-124814312D01*
X155929312Y-124947924D01*
X155929312Y-124947925D01*
X155929310Y-124947927D01*
X155881610Y-125013579D01*
X155818240Y-125100800D01*
X155732454Y-125269163D01*
X155674059Y-125448881D01*
X155644500Y-125635513D01*
X154970500Y-125635513D01*
X154970500Y-125627648D01*
X154946430Y-125475676D01*
X154938477Y-125425465D01*
X154909127Y-125335137D01*
X154875220Y-125230781D01*
X154875218Y-125230778D01*
X154875218Y-125230776D01*
X154841503Y-125164607D01*
X154782287Y-125048390D01*
X154774556Y-125037749D01*
X154661971Y-124882786D01*
X154517213Y-124738028D01*
X154351614Y-124617715D01*
X154345006Y-124614348D01*
X154258917Y-124570483D01*
X154208123Y-124522511D01*
X154191328Y-124454690D01*
X154213865Y-124388555D01*
X154258917Y-124349516D01*
X154351610Y-124302287D01*
X154469329Y-124216760D01*
X154517213Y-124181971D01*
X154517215Y-124181968D01*
X154517219Y-124181966D01*
X154661966Y-124037219D01*
X154661968Y-124037215D01*
X154661971Y-124037213D01*
X154719978Y-123957371D01*
X154782287Y-123871610D01*
X154875220Y-123689219D01*
X154938477Y-123494534D01*
X154970500Y-123292352D01*
X154970500Y-123087648D01*
X154946430Y-122935676D01*
X154938477Y-122885465D01*
X154909127Y-122795137D01*
X154875220Y-122690781D01*
X154875218Y-122690778D01*
X154875218Y-122690776D01*
X154841503Y-122624607D01*
X154782287Y-122508390D01*
X154774556Y-122497749D01*
X154661971Y-122342786D01*
X154517213Y-122198028D01*
X154351614Y-122077715D01*
X154345006Y-122074348D01*
X154258917Y-122030483D01*
X154208123Y-121982511D01*
X154191328Y-121914690D01*
X154213865Y-121848555D01*
X154258917Y-121809516D01*
X154351610Y-121762287D01*
X154469329Y-121676760D01*
X154517213Y-121641971D01*
X154517215Y-121641968D01*
X154517219Y-121641966D01*
X154661966Y-121497219D01*
X154661968Y-121497215D01*
X154661971Y-121497213D01*
X154714732Y-121424590D01*
X154782287Y-121331610D01*
X154875220Y-121149219D01*
X154938477Y-120954534D01*
X154970500Y-120752352D01*
X154970500Y-120555513D01*
X155644500Y-120555513D01*
X155644500Y-120744486D01*
X155674059Y-120931118D01*
X155732454Y-121110836D01*
X155818240Y-121279199D01*
X155929310Y-121432073D01*
X156062927Y-121565690D01*
X156215801Y-121676760D01*
X156295347Y-121717290D01*
X156384163Y-121762545D01*
X156384165Y-121762545D01*
X156384168Y-121762547D01*
X156480497Y-121793846D01*
X156563881Y-121820940D01*
X156750514Y-121850500D01*
X156750519Y-121850500D01*
X156939486Y-121850500D01*
X157126118Y-121820940D01*
X157161280Y-121809515D01*
X157305832Y-121762547D01*
X157474199Y-121676760D01*
X157627073Y-121565690D01*
X157760690Y-121432073D01*
X157871760Y-121279199D01*
X157957547Y-121110832D01*
X157997069Y-120989195D01*
X158036507Y-120931521D01*
X158100866Y-120904323D01*
X158169712Y-120916238D01*
X158221188Y-120963482D01*
X158232931Y-120989196D01*
X158272454Y-121110836D01*
X158358240Y-121279199D01*
X158469310Y-121432073D01*
X158602927Y-121565690D01*
X158755801Y-121676760D01*
X158835347Y-121717290D01*
X158924163Y-121762545D01*
X158924165Y-121762545D01*
X158924168Y-121762547D01*
X159020497Y-121793846D01*
X159103881Y-121820940D01*
X159290514Y-121850500D01*
X159290519Y-121850500D01*
X159479486Y-121850500D01*
X159666118Y-121820940D01*
X159701280Y-121809515D01*
X159845832Y-121762547D01*
X160014199Y-121676760D01*
X160167073Y-121565690D01*
X160300690Y-121432073D01*
X160411760Y-121279199D01*
X160497547Y-121110832D01*
X160555940Y-120931118D01*
X160560184Y-120904323D01*
X160585500Y-120744486D01*
X160585500Y-120555513D01*
X160555940Y-120368881D01*
X160497545Y-120189163D01*
X160452290Y-120100347D01*
X160411760Y-120020801D01*
X160300690Y-119867927D01*
X160167073Y-119734310D01*
X160014199Y-119623240D01*
X159845836Y-119537454D01*
X159666118Y-119479059D01*
X159479486Y-119449500D01*
X159479481Y-119449500D01*
X159290519Y-119449500D01*
X159290514Y-119449500D01*
X159103881Y-119479059D01*
X158924163Y-119537454D01*
X158755800Y-119623240D01*
X158707911Y-119658034D01*
X158602927Y-119734310D01*
X158602925Y-119734312D01*
X158602924Y-119734312D01*
X158469312Y-119867924D01*
X158469312Y-119867925D01*
X158469310Y-119867927D01*
X158460347Y-119880264D01*
X158358240Y-120020800D01*
X158272454Y-120189163D01*
X158232931Y-120310803D01*
X158193493Y-120368478D01*
X158129134Y-120395676D01*
X158060288Y-120383761D01*
X158008812Y-120336516D01*
X157997069Y-120310803D01*
X157957545Y-120189163D01*
X157912290Y-120100347D01*
X157871760Y-120020801D01*
X157760690Y-119867927D01*
X157627073Y-119734310D01*
X157474199Y-119623240D01*
X157305836Y-119537454D01*
X157126118Y-119479059D01*
X156939486Y-119449500D01*
X156939481Y-119449500D01*
X156750519Y-119449500D01*
X156750514Y-119449500D01*
X156563881Y-119479059D01*
X156384163Y-119537454D01*
X156215800Y-119623240D01*
X156167911Y-119658034D01*
X156062927Y-119734310D01*
X156062925Y-119734312D01*
X156062924Y-119734312D01*
X155929312Y-119867924D01*
X155929312Y-119867925D01*
X155929310Y-119867927D01*
X155920347Y-119880264D01*
X155818240Y-120020800D01*
X155732454Y-120189163D01*
X155674059Y-120368881D01*
X155644500Y-120555513D01*
X154970500Y-120555513D01*
X154970500Y-120547648D01*
X154946430Y-120395676D01*
X154938477Y-120345465D01*
X154909127Y-120255137D01*
X154875220Y-120150781D01*
X154875218Y-120150778D01*
X154875218Y-120150776D01*
X154812767Y-120028211D01*
X154782287Y-119968390D01*
X154771061Y-119952938D01*
X154661971Y-119802786D01*
X154517213Y-119658028D01*
X154351614Y-119537715D01*
X154345006Y-119534348D01*
X154258917Y-119490483D01*
X154208123Y-119442511D01*
X154191328Y-119374690D01*
X154213865Y-119308555D01*
X154258917Y-119269516D01*
X154351610Y-119222287D01*
X154469329Y-119136760D01*
X154517213Y-119101971D01*
X154517215Y-119101968D01*
X154517219Y-119101966D01*
X154661966Y-118957219D01*
X154661968Y-118957215D01*
X154661971Y-118957213D01*
X154714732Y-118884590D01*
X154782287Y-118791610D01*
X154875220Y-118609219D01*
X154938477Y-118414534D01*
X154970500Y-118212352D01*
X154970500Y-118007648D01*
X154938477Y-117805466D01*
X154875220Y-117610781D01*
X154875218Y-117610778D01*
X154875218Y-117610776D01*
X154841503Y-117544607D01*
X154782287Y-117428390D01*
X154774556Y-117417749D01*
X154661971Y-117262786D01*
X154517213Y-117118028D01*
X154351614Y-116997715D01*
X154345006Y-116994348D01*
X154258917Y-116950483D01*
X154208123Y-116902511D01*
X154191328Y-116834690D01*
X154213865Y-116768555D01*
X154258917Y-116729516D01*
X154351610Y-116682287D01*
X154469329Y-116596760D01*
X154517213Y-116561971D01*
X154517215Y-116561968D01*
X154517219Y-116561966D01*
X154661966Y-116417219D01*
X154661968Y-116417215D01*
X154661971Y-116417213D01*
X154714732Y-116344590D01*
X154782287Y-116251610D01*
X154875220Y-116069219D01*
X154938477Y-115874534D01*
X154970500Y-115672352D01*
X154970500Y-115475513D01*
X155644500Y-115475513D01*
X155644500Y-115664486D01*
X155674059Y-115851118D01*
X155732454Y-116030836D01*
X155805865Y-116174912D01*
X155818240Y-116199199D01*
X155929310Y-116352073D01*
X156062927Y-116485690D01*
X156215801Y-116596760D01*
X156295347Y-116637290D01*
X156384163Y-116682545D01*
X156384165Y-116682545D01*
X156384168Y-116682547D01*
X156471426Y-116710899D01*
X156563881Y-116740940D01*
X156750514Y-116770500D01*
X156750519Y-116770500D01*
X156939486Y-116770500D01*
X157126118Y-116740940D01*
X157161280Y-116729515D01*
X157305832Y-116682547D01*
X157474199Y-116596760D01*
X157627073Y-116485690D01*
X157760690Y-116352073D01*
X157871760Y-116199199D01*
X157957547Y-116030832D01*
X157997069Y-115909195D01*
X158036507Y-115851521D01*
X158100866Y-115824323D01*
X158169712Y-115836238D01*
X158221188Y-115883482D01*
X158232931Y-115909196D01*
X158272454Y-116030836D01*
X158345865Y-116174912D01*
X158358240Y-116199199D01*
X158469310Y-116352073D01*
X158602927Y-116485690D01*
X158755801Y-116596760D01*
X158835347Y-116637290D01*
X158924163Y-116682545D01*
X158924165Y-116682545D01*
X158924168Y-116682547D01*
X159011426Y-116710899D01*
X159103881Y-116740940D01*
X159290514Y-116770500D01*
X159290519Y-116770500D01*
X159479486Y-116770500D01*
X159666118Y-116740940D01*
X159701280Y-116729515D01*
X159845832Y-116682547D01*
X160014199Y-116596760D01*
X160167073Y-116485690D01*
X160300690Y-116352073D01*
X160411760Y-116199199D01*
X160497547Y-116030832D01*
X160555940Y-115851118D01*
X160560184Y-115824323D01*
X160585500Y-115664486D01*
X160585500Y-115475513D01*
X160555940Y-115288881D01*
X160497545Y-115109163D01*
X160452290Y-115020347D01*
X160411760Y-114940801D01*
X160300690Y-114787927D01*
X160167073Y-114654310D01*
X160014199Y-114543240D01*
X159845836Y-114457454D01*
X159666118Y-114399059D01*
X159479486Y-114369500D01*
X159479481Y-114369500D01*
X159290519Y-114369500D01*
X159290514Y-114369500D01*
X159103881Y-114399059D01*
X158924163Y-114457454D01*
X158755800Y-114543240D01*
X158707911Y-114578034D01*
X158602927Y-114654310D01*
X158602925Y-114654312D01*
X158602924Y-114654312D01*
X158469312Y-114787924D01*
X158469312Y-114787925D01*
X158469310Y-114787927D01*
X158456253Y-114805899D01*
X158358240Y-114940800D01*
X158272454Y-115109163D01*
X158232931Y-115230803D01*
X158193493Y-115288478D01*
X158129134Y-115315676D01*
X158060288Y-115303761D01*
X158008812Y-115256516D01*
X157997069Y-115230803D01*
X157957545Y-115109163D01*
X157912290Y-115020347D01*
X157871760Y-114940801D01*
X157760690Y-114787927D01*
X157627073Y-114654310D01*
X157474199Y-114543240D01*
X157305836Y-114457454D01*
X157126118Y-114399059D01*
X156939486Y-114369500D01*
X156939481Y-114369500D01*
X156750519Y-114369500D01*
X156750514Y-114369500D01*
X156563881Y-114399059D01*
X156384163Y-114457454D01*
X156215800Y-114543240D01*
X156167911Y-114578034D01*
X156062927Y-114654310D01*
X156062925Y-114654312D01*
X156062924Y-114654312D01*
X155929312Y-114787924D01*
X155929312Y-114787925D01*
X155929310Y-114787927D01*
X155916253Y-114805899D01*
X155818240Y-114940800D01*
X155732454Y-115109163D01*
X155674059Y-115288881D01*
X155644500Y-115475513D01*
X154970500Y-115475513D01*
X154970500Y-115467648D01*
X154946430Y-115315676D01*
X154938477Y-115265465D01*
X154909127Y-115175137D01*
X154875220Y-115070781D01*
X154875218Y-115070778D01*
X154875218Y-115070776D01*
X154812767Y-114948211D01*
X154782287Y-114888390D01*
X154771061Y-114872938D01*
X154661971Y-114722786D01*
X154517213Y-114578028D01*
X154351614Y-114457715D01*
X154345006Y-114454348D01*
X154258917Y-114410483D01*
X154208123Y-114362511D01*
X154191328Y-114294690D01*
X154213865Y-114228555D01*
X154258917Y-114189516D01*
X154351610Y-114142287D01*
X154372770Y-114126913D01*
X154517213Y-114021971D01*
X154517215Y-114021968D01*
X154517219Y-114021966D01*
X154661966Y-113877219D01*
X154661968Y-113877215D01*
X154661971Y-113877213D01*
X154725544Y-113789711D01*
X154782287Y-113711610D01*
X154875220Y-113529219D01*
X154938477Y-113334534D01*
X154970500Y-113132352D01*
X154970500Y-112927648D01*
X154938477Y-112725466D01*
X154875220Y-112530781D01*
X154875218Y-112530778D01*
X154875218Y-112530776D01*
X154841503Y-112464607D01*
X154782287Y-112348390D01*
X154774556Y-112337749D01*
X154661971Y-112182786D01*
X154517213Y-112038028D01*
X154351614Y-111917715D01*
X154345006Y-111914348D01*
X154258917Y-111870483D01*
X154208123Y-111822511D01*
X154191328Y-111754690D01*
X154213865Y-111688555D01*
X154258917Y-111649516D01*
X154351610Y-111602287D01*
X154455919Y-111526503D01*
X154517213Y-111481971D01*
X154517215Y-111481968D01*
X154517219Y-111481966D01*
X154661966Y-111337219D01*
X154661968Y-111337215D01*
X154661971Y-111337213D01*
X154725547Y-111249707D01*
X154782287Y-111171610D01*
X154875220Y-110989219D01*
X154938477Y-110794534D01*
X154970500Y-110592352D01*
X154970500Y-110387648D01*
X155544500Y-110387648D01*
X155544500Y-110592351D01*
X155576522Y-110794534D01*
X155639781Y-110989223D01*
X155695717Y-111099002D01*
X155732585Y-111171359D01*
X155732715Y-111171613D01*
X155853028Y-111337213D01*
X155997786Y-111481971D01*
X156118226Y-111569474D01*
X156163390Y-111602287D01*
X156256080Y-111649515D01*
X156345776Y-111695218D01*
X156345778Y-111695218D01*
X156345781Y-111695220D01*
X156417528Y-111718532D01*
X156540465Y-111758477D01*
X156559697Y-111761523D01*
X156742648Y-111790500D01*
X156742649Y-111790500D01*
X156947351Y-111790500D01*
X156947352Y-111790500D01*
X157149534Y-111758477D01*
X157344219Y-111695220D01*
X157526610Y-111602287D01*
X157630919Y-111526503D01*
X157692213Y-111481971D01*
X157692215Y-111481968D01*
X157692219Y-111481966D01*
X157836966Y-111337219D01*
X157836968Y-111337215D01*
X157836971Y-111337213D01*
X157900547Y-111249707D01*
X157957287Y-111171610D01*
X158050220Y-110989219D01*
X158113477Y-110794534D01*
X158145500Y-110592352D01*
X158145500Y-110387648D01*
X158129537Y-110286865D01*
X158113477Y-110185465D01*
X158082458Y-110090000D01*
X158050220Y-109990781D01*
X158050218Y-109990778D01*
X158050218Y-109990776D01*
X158016503Y-109924607D01*
X157957287Y-109808390D01*
X157896509Y-109724735D01*
X157836971Y-109642786D01*
X157692213Y-109498028D01*
X157526613Y-109377715D01*
X157526612Y-109377714D01*
X157526610Y-109377713D01*
X157469653Y-109348691D01*
X157344223Y-109284781D01*
X157149534Y-109221522D01*
X156974995Y-109193878D01*
X156947352Y-109189500D01*
X156742648Y-109189500D01*
X156718329Y-109193351D01*
X156540465Y-109221522D01*
X156345776Y-109284781D01*
X156163386Y-109377715D01*
X155997786Y-109498028D01*
X155853028Y-109642786D01*
X155732715Y-109808386D01*
X155639781Y-109990776D01*
X155576522Y-110185465D01*
X155544500Y-110387648D01*
X154970500Y-110387648D01*
X154954537Y-110286865D01*
X154938477Y-110185465D01*
X154907458Y-110090000D01*
X154875220Y-109990781D01*
X154875218Y-109990778D01*
X154875218Y-109990776D01*
X154841503Y-109924607D01*
X154782287Y-109808390D01*
X154721509Y-109724735D01*
X154661971Y-109642786D01*
X154517213Y-109498028D01*
X154351614Y-109377715D01*
X154340303Y-109371952D01*
X154258917Y-109330483D01*
X154208123Y-109282511D01*
X154191328Y-109214690D01*
X154213865Y-109148555D01*
X154258917Y-109109516D01*
X154351610Y-109062287D01*
X154372770Y-109046913D01*
X154517213Y-108941971D01*
X154517215Y-108941968D01*
X154517219Y-108941966D01*
X154661966Y-108797219D01*
X154661968Y-108797215D01*
X154661971Y-108797213D01*
X154769073Y-108649797D01*
X154782287Y-108631610D01*
X154875220Y-108449219D01*
X154938477Y-108254534D01*
X154970500Y-108052352D01*
X154970500Y-107847648D01*
X154946193Y-107694179D01*
X154938477Y-107645465D01*
X154875218Y-107450776D01*
X154841503Y-107384607D01*
X154782287Y-107268390D01*
X154721509Y-107184735D01*
X154661971Y-107102786D01*
X154517213Y-106958028D01*
X154351614Y-106837715D01*
X154345006Y-106834348D01*
X154258917Y-106790483D01*
X154208123Y-106742511D01*
X154191328Y-106674690D01*
X154213865Y-106608555D01*
X154258917Y-106569516D01*
X154351610Y-106522287D01*
X154372770Y-106506913D01*
X154517213Y-106401971D01*
X154517215Y-106401968D01*
X154517219Y-106401966D01*
X154661966Y-106257219D01*
X154661968Y-106257215D01*
X154661971Y-106257213D01*
X154725544Y-106169711D01*
X154782287Y-106091610D01*
X154875220Y-105909219D01*
X154938477Y-105714534D01*
X154970500Y-105512352D01*
X154970500Y-105307648D01*
X154946193Y-105154179D01*
X154938477Y-105105465D01*
X154875218Y-104910776D01*
X154841503Y-104844607D01*
X154782287Y-104728390D01*
X154721509Y-104644735D01*
X154661971Y-104562786D01*
X154517213Y-104418028D01*
X154351614Y-104297715D01*
X154345006Y-104294348D01*
X154258917Y-104250483D01*
X154208123Y-104202511D01*
X154191328Y-104134690D01*
X154213865Y-104068555D01*
X154258917Y-104029516D01*
X154351610Y-103982287D01*
X154372770Y-103966913D01*
X154517213Y-103861971D01*
X154517215Y-103861968D01*
X154517219Y-103861966D01*
X154661966Y-103717219D01*
X154661968Y-103717215D01*
X154661971Y-103717213D01*
X154725544Y-103629711D01*
X154782287Y-103551610D01*
X154875220Y-103369219D01*
X154938477Y-103174534D01*
X154970500Y-102972352D01*
X154970500Y-102767648D01*
X154938477Y-102565466D01*
X154875220Y-102370781D01*
X154875218Y-102370778D01*
X154875218Y-102370776D01*
X154841503Y-102304607D01*
X154782287Y-102188390D01*
X154766135Y-102166158D01*
X154661971Y-102022786D01*
X154517213Y-101878028D01*
X154351614Y-101757715D01*
X154306458Y-101734707D01*
X154258917Y-101710483D01*
X154208123Y-101662511D01*
X154191328Y-101594690D01*
X154213865Y-101528555D01*
X154258917Y-101489516D01*
X154351610Y-101442287D01*
X154372770Y-101426913D01*
X154517213Y-101321971D01*
X154517215Y-101321968D01*
X154517219Y-101321966D01*
X154661966Y-101177219D01*
X154661968Y-101177215D01*
X154661971Y-101177213D01*
X154725544Y-101089711D01*
X154782287Y-101011610D01*
X154875220Y-100829219D01*
X154938477Y-100634534D01*
X154970500Y-100432352D01*
X154970500Y-100227648D01*
X154938477Y-100025466D01*
X154875220Y-99830781D01*
X154875218Y-99830778D01*
X154875218Y-99830776D01*
X154841503Y-99764607D01*
X154782287Y-99648390D01*
X154766135Y-99626158D01*
X154661971Y-99482786D01*
X154517213Y-99338028D01*
X154351614Y-99217715D01*
X154306458Y-99194707D01*
X154258917Y-99170483D01*
X154208123Y-99122511D01*
X154191328Y-99054690D01*
X154213865Y-98988555D01*
X154258917Y-98949516D01*
X154351610Y-98902287D01*
X154372770Y-98886913D01*
X154517213Y-98781971D01*
X154517215Y-98781968D01*
X154517219Y-98781966D01*
X154661966Y-98637219D01*
X154661968Y-98637215D01*
X154661971Y-98637213D01*
X154725544Y-98549711D01*
X154782287Y-98471610D01*
X154875220Y-98289219D01*
X154938477Y-98094534D01*
X154970500Y-97892352D01*
X154970500Y-97687648D01*
X154938477Y-97485466D01*
X154875220Y-97290781D01*
X154875218Y-97290778D01*
X154875218Y-97290776D01*
X154841503Y-97224607D01*
X154782287Y-97108390D01*
X154766135Y-97086158D01*
X154661971Y-96942786D01*
X154517213Y-96798028D01*
X154351614Y-96677715D01*
X154306458Y-96654707D01*
X154258917Y-96630483D01*
X154208123Y-96582511D01*
X154191328Y-96514690D01*
X154213865Y-96448555D01*
X154258917Y-96409516D01*
X154351610Y-96362287D01*
X154372770Y-96346913D01*
X154517213Y-96241971D01*
X154517215Y-96241968D01*
X154517219Y-96241966D01*
X154661966Y-96097219D01*
X154661968Y-96097215D01*
X154661971Y-96097213D01*
X154725544Y-96009711D01*
X154782287Y-95931610D01*
X154875220Y-95749219D01*
X154938477Y-95554534D01*
X154970500Y-95352352D01*
X154970500Y-95147648D01*
X154938477Y-94945466D01*
X154875220Y-94750781D01*
X154875218Y-94750778D01*
X154875218Y-94750776D01*
X154841503Y-94684607D01*
X154782287Y-94568390D01*
X154766135Y-94546158D01*
X154661971Y-94402786D01*
X154517213Y-94258028D01*
X154351614Y-94137715D01*
X154306458Y-94114707D01*
X154258917Y-94090483D01*
X154208123Y-94042511D01*
X154191328Y-93974690D01*
X154213865Y-93908555D01*
X154258917Y-93869516D01*
X154351610Y-93822287D01*
X154372770Y-93806913D01*
X154517213Y-93701971D01*
X154517215Y-93701968D01*
X154517219Y-93701966D01*
X154661966Y-93557219D01*
X154661968Y-93557215D01*
X154661971Y-93557213D01*
X154725544Y-93469711D01*
X154782287Y-93391610D01*
X154875220Y-93209219D01*
X154938477Y-93014534D01*
X154970500Y-92812352D01*
X154970500Y-92607648D01*
X154946193Y-92454179D01*
X154938477Y-92405465D01*
X154875218Y-92210776D01*
X154841503Y-92144607D01*
X154782287Y-92028390D01*
X154758866Y-91996153D01*
X154661971Y-91862786D01*
X154517213Y-91718028D01*
X154351614Y-91597715D01*
X154345006Y-91594348D01*
X154258917Y-91550483D01*
X154208123Y-91502511D01*
X154191328Y-91434690D01*
X154213865Y-91368555D01*
X154258917Y-91329516D01*
X154351610Y-91282287D01*
X154455919Y-91206503D01*
X154517213Y-91161971D01*
X154517215Y-91161968D01*
X154517219Y-91161966D01*
X154661966Y-91017219D01*
X154661968Y-91017215D01*
X154661971Y-91017213D01*
X154725547Y-90929707D01*
X154782287Y-90851610D01*
X154875220Y-90669219D01*
X154938477Y-90474534D01*
X154970500Y-90272352D01*
X154970500Y-90067648D01*
X154946193Y-89914179D01*
X154938477Y-89865465D01*
X154875218Y-89670776D01*
X154841503Y-89604607D01*
X154782287Y-89488390D01*
X154758866Y-89456153D01*
X154661971Y-89322786D01*
X154517213Y-89178028D01*
X154351614Y-89057715D01*
X154345006Y-89054348D01*
X154258917Y-89010483D01*
X154208123Y-88962511D01*
X154191328Y-88894690D01*
X154213865Y-88828555D01*
X154258917Y-88789516D01*
X154351610Y-88742287D01*
X154455919Y-88666503D01*
X154517213Y-88621971D01*
X154517215Y-88621968D01*
X154517219Y-88621966D01*
X154661966Y-88477219D01*
X154661968Y-88477215D01*
X154661971Y-88477213D01*
X154725547Y-88389707D01*
X154782287Y-88311610D01*
X154875220Y-88129219D01*
X154938477Y-87934534D01*
X154970500Y-87732352D01*
X154970500Y-87527648D01*
X154938477Y-87325466D01*
X154875220Y-87130781D01*
X154875218Y-87130778D01*
X154875218Y-87130776D01*
X154841503Y-87064607D01*
X154782287Y-86948390D01*
X154766135Y-86926158D01*
X154661971Y-86782786D01*
X154517213Y-86638028D01*
X154351614Y-86517715D01*
X154306458Y-86494707D01*
X154258917Y-86470483D01*
X154208123Y-86422511D01*
X154191328Y-86354690D01*
X154213865Y-86288555D01*
X154258917Y-86249516D01*
X154351610Y-86202287D01*
X154455919Y-86126503D01*
X154517213Y-86081971D01*
X154517215Y-86081968D01*
X154517219Y-86081966D01*
X154661966Y-85937219D01*
X154661968Y-85937215D01*
X154661971Y-85937213D01*
X154725547Y-85849707D01*
X154782287Y-85771610D01*
X154875220Y-85589219D01*
X154938477Y-85394534D01*
X154970500Y-85192352D01*
X154970500Y-84987648D01*
X154946193Y-84834179D01*
X154938477Y-84785465D01*
X154875218Y-84590776D01*
X154841503Y-84524607D01*
X154782287Y-84408390D01*
X154758866Y-84376153D01*
X154661971Y-84242786D01*
X154517213Y-84098028D01*
X154351614Y-83977715D01*
X154345006Y-83974348D01*
X154258917Y-83930483D01*
X154208123Y-83882511D01*
X154191328Y-83814690D01*
X154213865Y-83748555D01*
X154258917Y-83709516D01*
X154351610Y-83662287D01*
X154455919Y-83586503D01*
X154517213Y-83541971D01*
X154517215Y-83541968D01*
X154517219Y-83541966D01*
X154661966Y-83397219D01*
X154661968Y-83397215D01*
X154661971Y-83397213D01*
X154725547Y-83309707D01*
X154782287Y-83231610D01*
X154875220Y-83049219D01*
X154938477Y-82854534D01*
X154970500Y-82652352D01*
X154970500Y-82447648D01*
X154946193Y-82294179D01*
X154938477Y-82245465D01*
X154875218Y-82050776D01*
X154841503Y-81984607D01*
X154782287Y-81868390D01*
X154758866Y-81836153D01*
X154661971Y-81702786D01*
X154517213Y-81558028D01*
X154351614Y-81437715D01*
X154345006Y-81434348D01*
X154258917Y-81390483D01*
X154208123Y-81342511D01*
X154191328Y-81274690D01*
X154213865Y-81208555D01*
X154258917Y-81169516D01*
X154351610Y-81122287D01*
X154396774Y-81089474D01*
X154517213Y-81001971D01*
X154517215Y-81001968D01*
X154517219Y-81001966D01*
X154661966Y-80857219D01*
X154661968Y-80857215D01*
X154661971Y-80857213D01*
X154714732Y-80784590D01*
X154782287Y-80691610D01*
X154875220Y-80509219D01*
X154938477Y-80314534D01*
X154970500Y-80112352D01*
X154970500Y-79907648D01*
X154962257Y-79855606D01*
X154938477Y-79705465D01*
X154907458Y-79610000D01*
X154875220Y-79510781D01*
X154875218Y-79510778D01*
X154875218Y-79510776D01*
X154812767Y-79388211D01*
X154782287Y-79328390D01*
X154750092Y-79284077D01*
X154661971Y-79162786D01*
X154517213Y-79018028D01*
X154351613Y-78897715D01*
X154351612Y-78897714D01*
X154351610Y-78897713D01*
X154294653Y-78868691D01*
X154169223Y-78804781D01*
X153974534Y-78741522D01*
X153799995Y-78713878D01*
X153772352Y-78709500D01*
X153567648Y-78709500D01*
X153543329Y-78713351D01*
X153365465Y-78741522D01*
X153170776Y-78804781D01*
X152988386Y-78897715D01*
X152822786Y-79018028D01*
X152678028Y-79162786D01*
X152557715Y-79328386D01*
X152464781Y-79510776D01*
X152401522Y-79705465D01*
X152369500Y-79907648D01*
X152369500Y-80112351D01*
X152401522Y-80314534D01*
X152464781Y-80509223D01*
X152485628Y-80550136D01*
X152557585Y-80691359D01*
X152557715Y-80691613D01*
X152678028Y-80857213D01*
X152822786Y-81001971D01*
X152943226Y-81089474D01*
X152988390Y-81122287D01*
X153079840Y-81168883D01*
X153081080Y-81169515D01*
X153131876Y-81217490D01*
X153148671Y-81285311D01*
X153126134Y-81351446D01*
X153081080Y-81390485D01*
X152988386Y-81437715D01*
X152822786Y-81558028D01*
X152678028Y-81702786D01*
X152557715Y-81868386D01*
X152464781Y-82050776D01*
X152401522Y-82245465D01*
X152369500Y-82447648D01*
X152369500Y-82652351D01*
X152401522Y-82854534D01*
X152464781Y-83049223D01*
X152528691Y-83174653D01*
X152540696Y-83198213D01*
X152557715Y-83231613D01*
X152678028Y-83397213D01*
X152822786Y-83541971D01*
X152977672Y-83654500D01*
X152988390Y-83662287D01*
X153079840Y-83708883D01*
X153081080Y-83709515D01*
X153131876Y-83757490D01*
X153148671Y-83825311D01*
X153126134Y-83891446D01*
X153081080Y-83930485D01*
X152988386Y-83977715D01*
X152822786Y-84098028D01*
X152678028Y-84242786D01*
X152557715Y-84408386D01*
X152464781Y-84590776D01*
X152401522Y-84785465D01*
X152369500Y-84987648D01*
X152369500Y-85192351D01*
X152401522Y-85394534D01*
X152464781Y-85589223D01*
X152528691Y-85714653D01*
X152540696Y-85738213D01*
X152557715Y-85771613D01*
X152678028Y-85937213D01*
X152822786Y-86081971D01*
X152977749Y-86194556D01*
X152988390Y-86202287D01*
X153053109Y-86235263D01*
X153081080Y-86249515D01*
X153131876Y-86297490D01*
X153148671Y-86365311D01*
X153126134Y-86431446D01*
X153081080Y-86470485D01*
X152988386Y-86517715D01*
X152822786Y-86638028D01*
X152678028Y-86782786D01*
X152557715Y-86948386D01*
X152464781Y-87130776D01*
X152401522Y-87325465D01*
X152369500Y-87527648D01*
X152369500Y-87732351D01*
X152401522Y-87934534D01*
X152464781Y-88129223D01*
X152528691Y-88254653D01*
X152540696Y-88278213D01*
X152557715Y-88311613D01*
X152678028Y-88477213D01*
X152822786Y-88621971D01*
X152977672Y-88734500D01*
X152988390Y-88742287D01*
X153079840Y-88788883D01*
X153081080Y-88789515D01*
X153131876Y-88837490D01*
X153148671Y-88905311D01*
X153126134Y-88971446D01*
X153081080Y-89010485D01*
X152988386Y-89057715D01*
X152822786Y-89178028D01*
X152678028Y-89322786D01*
X152557715Y-89488386D01*
X152464781Y-89670776D01*
X152401522Y-89865465D01*
X152369500Y-90067648D01*
X152369500Y-90272351D01*
X152401522Y-90474534D01*
X152464781Y-90669223D01*
X152528691Y-90794653D01*
X152540696Y-90818213D01*
X152557715Y-90851613D01*
X152678028Y-91017213D01*
X152822786Y-91161971D01*
X152977672Y-91274500D01*
X152988390Y-91282287D01*
X153079840Y-91328883D01*
X153081080Y-91329515D01*
X153131876Y-91377490D01*
X153148671Y-91445311D01*
X153126134Y-91511446D01*
X153081080Y-91550485D01*
X152988386Y-91597715D01*
X152822786Y-91718028D01*
X152678028Y-91862786D01*
X152557715Y-92028386D01*
X152464781Y-92210776D01*
X152401522Y-92405465D01*
X152369500Y-92607648D01*
X152369500Y-92812351D01*
X152401522Y-93014534D01*
X152464781Y-93209223D01*
X152520717Y-93319002D01*
X152540695Y-93358211D01*
X152557715Y-93391613D01*
X152678028Y-93557213D01*
X152822786Y-93701971D01*
X152977749Y-93814556D01*
X152988390Y-93822287D01*
X153053109Y-93855263D01*
X153081080Y-93869515D01*
X153131876Y-93917490D01*
X153148671Y-93985311D01*
X153126134Y-94051446D01*
X153081080Y-94090485D01*
X152988386Y-94137715D01*
X152822786Y-94258028D01*
X152678028Y-94402786D01*
X152557715Y-94568386D01*
X152464781Y-94750776D01*
X152401522Y-94945465D01*
X152369500Y-95147648D01*
X152369500Y-95352351D01*
X152401522Y-95554534D01*
X152464781Y-95749223D01*
X152520717Y-95859002D01*
X152540695Y-95898211D01*
X152557715Y-95931613D01*
X152678028Y-96097213D01*
X152822786Y-96241971D01*
X152977749Y-96354556D01*
X152988390Y-96362287D01*
X153053109Y-96395263D01*
X153081080Y-96409515D01*
X153131876Y-96457490D01*
X153148671Y-96525311D01*
X153126134Y-96591446D01*
X153081080Y-96630485D01*
X152988386Y-96677715D01*
X152822786Y-96798028D01*
X152678028Y-96942786D01*
X152557715Y-97108386D01*
X152464781Y-97290776D01*
X152401522Y-97485465D01*
X152369500Y-97687648D01*
X152369500Y-97892351D01*
X152401522Y-98094534D01*
X152464781Y-98289223D01*
X152520717Y-98399002D01*
X152540695Y-98438211D01*
X152557715Y-98471613D01*
X152678028Y-98637213D01*
X152822786Y-98781971D01*
X152977749Y-98894556D01*
X152988390Y-98902287D01*
X153053109Y-98935263D01*
X153081080Y-98949515D01*
X153131876Y-98997490D01*
X153148671Y-99065311D01*
X153126134Y-99131446D01*
X153081080Y-99170485D01*
X152988386Y-99217715D01*
X152822786Y-99338028D01*
X152678028Y-99482786D01*
X152557715Y-99648386D01*
X152464781Y-99830776D01*
X152401522Y-100025465D01*
X152369500Y-100227648D01*
X152369500Y-100432351D01*
X152401522Y-100634534D01*
X152464781Y-100829223D01*
X152520717Y-100939002D01*
X152540695Y-100978211D01*
X152557715Y-101011613D01*
X152678028Y-101177213D01*
X152822786Y-101321971D01*
X152977749Y-101434556D01*
X152988390Y-101442287D01*
X153053109Y-101475263D01*
X153081080Y-101489515D01*
X153131876Y-101537490D01*
X153148671Y-101605311D01*
X153126134Y-101671446D01*
X153081080Y-101710485D01*
X152988386Y-101757715D01*
X152822786Y-101878028D01*
X152678028Y-102022786D01*
X152557715Y-102188386D01*
X152464781Y-102370776D01*
X152401522Y-102565465D01*
X152369500Y-102767648D01*
X152369500Y-102972351D01*
X152401522Y-103174534D01*
X152464781Y-103369223D01*
X152520717Y-103479002D01*
X152540695Y-103518211D01*
X152557715Y-103551613D01*
X152678028Y-103717213D01*
X152822786Y-103861971D01*
X152977672Y-103974500D01*
X152988390Y-103982287D01*
X153079840Y-104028883D01*
X153081080Y-104029515D01*
X153131876Y-104077490D01*
X153148671Y-104145311D01*
X153126134Y-104211446D01*
X153081080Y-104250485D01*
X152988386Y-104297715D01*
X152822786Y-104418028D01*
X152678028Y-104562786D01*
X152557715Y-104728386D01*
X152464781Y-104910776D01*
X152401522Y-105105465D01*
X152369500Y-105307648D01*
X152369500Y-105512351D01*
X152401522Y-105714534D01*
X152464781Y-105909223D01*
X152520717Y-106019002D01*
X152540695Y-106058211D01*
X152557715Y-106091613D01*
X152678028Y-106257213D01*
X152822786Y-106401971D01*
X152977672Y-106514500D01*
X152988390Y-106522287D01*
X153079840Y-106568883D01*
X153081080Y-106569515D01*
X153131876Y-106617490D01*
X153148671Y-106685311D01*
X153126134Y-106751446D01*
X153081080Y-106790485D01*
X152988386Y-106837715D01*
X152822786Y-106958028D01*
X152678028Y-107102786D01*
X152557715Y-107268386D01*
X152464781Y-107450776D01*
X152401522Y-107645465D01*
X152369500Y-107847648D01*
X152369500Y-108052351D01*
X152401522Y-108254534D01*
X152464781Y-108449223D01*
X152520717Y-108559002D01*
X152549117Y-108614740D01*
X152557715Y-108631613D01*
X152678028Y-108797213D01*
X152822786Y-108941971D01*
X152977749Y-109054556D01*
X152988390Y-109062287D01*
X153079840Y-109108883D01*
X153081080Y-109109515D01*
X153131876Y-109157490D01*
X153148671Y-109225311D01*
X153126134Y-109291446D01*
X153081080Y-109330485D01*
X152988386Y-109377715D01*
X152822786Y-109498028D01*
X152678028Y-109642786D01*
X152557715Y-109808386D01*
X152464781Y-109990776D01*
X152401522Y-110185465D01*
X152369500Y-110387648D01*
X152369500Y-110592351D01*
X152378318Y-110648026D01*
X152369363Y-110717320D01*
X152343526Y-110755105D01*
X147045451Y-116053181D01*
X146984128Y-116086666D01*
X146957770Y-116089500D01*
X139799302Y-116089500D01*
X139732263Y-116069815D01*
X139686508Y-116017011D01*
X139676564Y-115947853D01*
X139681371Y-115927181D01*
X139698477Y-115874534D01*
X139730500Y-115672351D01*
X139730500Y-115467648D01*
X139698477Y-115265465D01*
X139669127Y-115175137D01*
X139635220Y-115070781D01*
X139635218Y-115070778D01*
X139635218Y-115070776D01*
X139572767Y-114948211D01*
X139542287Y-114888390D01*
X139531061Y-114872938D01*
X139421971Y-114722786D01*
X139277213Y-114578028D01*
X139111614Y-114457715D01*
X139105006Y-114454348D01*
X139018917Y-114410483D01*
X138968123Y-114362511D01*
X138951328Y-114294690D01*
X138973865Y-114228555D01*
X139018917Y-114189516D01*
X139111610Y-114142287D01*
X139132770Y-114126913D01*
X139277213Y-114021971D01*
X139277215Y-114021968D01*
X139277219Y-114021966D01*
X139421966Y-113877219D01*
X139421968Y-113877215D01*
X139421971Y-113877213D01*
X139485544Y-113789711D01*
X139542287Y-113711610D01*
X139635220Y-113529219D01*
X139698477Y-113334534D01*
X139730500Y-113132352D01*
X139730500Y-112927648D01*
X139698477Y-112725466D01*
X139635220Y-112530781D01*
X139635218Y-112530778D01*
X139635218Y-112530776D01*
X139601503Y-112464607D01*
X139542287Y-112348390D01*
X139534556Y-112337749D01*
X139421971Y-112182786D01*
X139277213Y-112038028D01*
X139111614Y-111917715D01*
X139105006Y-111914348D01*
X139018917Y-111870483D01*
X138968123Y-111822511D01*
X138951328Y-111754690D01*
X138973865Y-111688555D01*
X139018917Y-111649516D01*
X139111610Y-111602287D01*
X139215919Y-111526503D01*
X139277213Y-111481971D01*
X139277215Y-111481968D01*
X139277219Y-111481966D01*
X139421966Y-111337219D01*
X139421968Y-111337215D01*
X139421971Y-111337213D01*
X139485547Y-111249707D01*
X139542287Y-111171610D01*
X139635220Y-110989219D01*
X139698477Y-110794534D01*
X139730500Y-110592352D01*
X139730500Y-110387648D01*
X139714537Y-110286865D01*
X139698477Y-110185465D01*
X139667458Y-110090000D01*
X139635220Y-109990781D01*
X139635218Y-109990778D01*
X139635218Y-109990776D01*
X139601503Y-109924607D01*
X139542287Y-109808390D01*
X139481509Y-109724735D01*
X139421971Y-109642786D01*
X139277213Y-109498028D01*
X139111614Y-109377715D01*
X139100303Y-109371952D01*
X139018917Y-109330483D01*
X138968123Y-109282511D01*
X138951328Y-109214690D01*
X138973865Y-109148555D01*
X139018917Y-109109516D01*
X139111610Y-109062287D01*
X139132770Y-109046913D01*
X139277213Y-108941971D01*
X139277215Y-108941968D01*
X139277219Y-108941966D01*
X139421966Y-108797219D01*
X139421968Y-108797215D01*
X139421971Y-108797213D01*
X139529073Y-108649797D01*
X139542287Y-108631610D01*
X139635220Y-108449219D01*
X139698477Y-108254534D01*
X139730500Y-108052352D01*
X139730500Y-107847648D01*
X139706193Y-107694179D01*
X139698477Y-107645465D01*
X139635218Y-107450776D01*
X139601503Y-107384607D01*
X139542287Y-107268390D01*
X139481509Y-107184735D01*
X139421971Y-107102786D01*
X139277213Y-106958028D01*
X139111614Y-106837715D01*
X139105006Y-106834348D01*
X139018917Y-106790483D01*
X138968123Y-106742511D01*
X138951328Y-106674690D01*
X138973865Y-106608555D01*
X139018917Y-106569516D01*
X139111610Y-106522287D01*
X139132770Y-106506913D01*
X139277213Y-106401971D01*
X139277215Y-106401968D01*
X139277219Y-106401966D01*
X139421966Y-106257219D01*
X139421968Y-106257215D01*
X139421971Y-106257213D01*
X139485544Y-106169711D01*
X139542287Y-106091610D01*
X139635220Y-105909219D01*
X139698477Y-105714534D01*
X139730500Y-105512352D01*
X139730500Y-105307648D01*
X139706193Y-105154179D01*
X139698477Y-105105465D01*
X139635218Y-104910776D01*
X139601503Y-104844607D01*
X139542287Y-104728390D01*
X139481509Y-104644735D01*
X139421971Y-104562786D01*
X139277213Y-104418028D01*
X139111614Y-104297715D01*
X139105006Y-104294348D01*
X139018917Y-104250483D01*
X138968123Y-104202511D01*
X138951328Y-104134690D01*
X138973865Y-104068555D01*
X139018917Y-104029516D01*
X139111610Y-103982287D01*
X139132770Y-103966913D01*
X139277213Y-103861971D01*
X139277215Y-103861968D01*
X139277219Y-103861966D01*
X139421966Y-103717219D01*
X139421968Y-103717215D01*
X139421971Y-103717213D01*
X139485544Y-103629711D01*
X139542287Y-103551610D01*
X139635220Y-103369219D01*
X139698477Y-103174534D01*
X139730500Y-102972352D01*
X139730500Y-102767648D01*
X139698477Y-102565466D01*
X139635220Y-102370781D01*
X139635218Y-102370778D01*
X139635218Y-102370776D01*
X139601503Y-102304607D01*
X139542287Y-102188390D01*
X139526135Y-102166158D01*
X139421971Y-102022786D01*
X139277213Y-101878028D01*
X139111614Y-101757715D01*
X139066458Y-101734707D01*
X139018917Y-101710483D01*
X138968123Y-101662511D01*
X138951328Y-101594690D01*
X138973865Y-101528555D01*
X139018917Y-101489516D01*
X139111610Y-101442287D01*
X139132770Y-101426913D01*
X139277213Y-101321971D01*
X139277215Y-101321968D01*
X139277219Y-101321966D01*
X139421966Y-101177219D01*
X139421968Y-101177215D01*
X139421971Y-101177213D01*
X139485544Y-101089711D01*
X139542287Y-101011610D01*
X139635220Y-100829219D01*
X139698477Y-100634534D01*
X139730500Y-100432352D01*
X139730500Y-100227648D01*
X139698477Y-100025466D01*
X139635220Y-99830781D01*
X139635218Y-99830778D01*
X139635218Y-99830776D01*
X139601503Y-99764607D01*
X139542287Y-99648390D01*
X139526135Y-99626158D01*
X139421971Y-99482786D01*
X139277213Y-99338028D01*
X139111614Y-99217715D01*
X139066458Y-99194707D01*
X139018917Y-99170483D01*
X138968123Y-99122511D01*
X138951328Y-99054690D01*
X138973865Y-98988555D01*
X139018917Y-98949516D01*
X139111610Y-98902287D01*
X139132770Y-98886913D01*
X139277213Y-98781971D01*
X139277215Y-98781968D01*
X139277219Y-98781966D01*
X139421966Y-98637219D01*
X139421968Y-98637215D01*
X139421971Y-98637213D01*
X139485544Y-98549711D01*
X139542287Y-98471610D01*
X139635220Y-98289219D01*
X139698477Y-98094534D01*
X139730500Y-97892352D01*
X139730500Y-97687648D01*
X139698477Y-97485466D01*
X139635220Y-97290781D01*
X139635218Y-97290778D01*
X139635218Y-97290776D01*
X139601503Y-97224607D01*
X139542287Y-97108390D01*
X139526135Y-97086158D01*
X139421971Y-96942786D01*
X139277213Y-96798028D01*
X139111614Y-96677715D01*
X139066458Y-96654707D01*
X139018917Y-96630483D01*
X138968123Y-96582511D01*
X138951328Y-96514690D01*
X138973865Y-96448555D01*
X139018917Y-96409516D01*
X139111610Y-96362287D01*
X139132770Y-96346913D01*
X139277213Y-96241971D01*
X139277215Y-96241968D01*
X139277219Y-96241966D01*
X139421966Y-96097219D01*
X139421968Y-96097215D01*
X139421971Y-96097213D01*
X139485544Y-96009711D01*
X139542287Y-95931610D01*
X139635220Y-95749219D01*
X139698477Y-95554534D01*
X139730500Y-95352352D01*
X139730500Y-95147648D01*
X139698477Y-94945466D01*
X139635220Y-94750781D01*
X139635218Y-94750778D01*
X139635218Y-94750776D01*
X139601503Y-94684607D01*
X139542287Y-94568390D01*
X139526135Y-94546158D01*
X139421971Y-94402786D01*
X139277213Y-94258028D01*
X139111614Y-94137715D01*
X139066458Y-94114707D01*
X139018917Y-94090483D01*
X138968123Y-94042511D01*
X138951328Y-93974690D01*
X138973865Y-93908555D01*
X139018917Y-93869516D01*
X139111610Y-93822287D01*
X139132770Y-93806913D01*
X139277213Y-93701971D01*
X139277215Y-93701968D01*
X139277219Y-93701966D01*
X139421966Y-93557219D01*
X139421968Y-93557215D01*
X139421971Y-93557213D01*
X139485544Y-93469711D01*
X139542287Y-93391610D01*
X139635220Y-93209219D01*
X139698477Y-93014534D01*
X139730500Y-92812352D01*
X139730500Y-92607648D01*
X139706193Y-92454179D01*
X139698477Y-92405465D01*
X139635218Y-92210776D01*
X139601503Y-92144607D01*
X139542287Y-92028390D01*
X139518866Y-91996153D01*
X139421971Y-91862786D01*
X139277213Y-91718028D01*
X139111614Y-91597715D01*
X139105006Y-91594348D01*
X139018917Y-91550483D01*
X138968123Y-91502511D01*
X138951328Y-91434690D01*
X138973865Y-91368555D01*
X139018917Y-91329516D01*
X139111610Y-91282287D01*
X139215919Y-91206503D01*
X139277213Y-91161971D01*
X139277215Y-91161968D01*
X139277219Y-91161966D01*
X139421966Y-91017219D01*
X139421968Y-91017215D01*
X139421971Y-91017213D01*
X139485547Y-90929707D01*
X139542287Y-90851610D01*
X139635220Y-90669219D01*
X139698477Y-90474534D01*
X139730500Y-90272352D01*
X139730500Y-90067648D01*
X139706193Y-89914179D01*
X139698477Y-89865465D01*
X139635218Y-89670776D01*
X139601503Y-89604607D01*
X139542287Y-89488390D01*
X139518866Y-89456153D01*
X139421971Y-89322786D01*
X139277213Y-89178028D01*
X139111614Y-89057715D01*
X139105006Y-89054348D01*
X139018917Y-89010483D01*
X138968123Y-88962511D01*
X138951328Y-88894690D01*
X138973865Y-88828555D01*
X139018917Y-88789516D01*
X139111610Y-88742287D01*
X139215919Y-88666503D01*
X139277213Y-88621971D01*
X139277215Y-88621968D01*
X139277219Y-88621966D01*
X139421966Y-88477219D01*
X139421968Y-88477215D01*
X139421971Y-88477213D01*
X139485547Y-88389707D01*
X139542287Y-88311610D01*
X139635220Y-88129219D01*
X139698477Y-87934534D01*
X139730500Y-87732352D01*
X139730500Y-87527648D01*
X139698477Y-87325466D01*
X139635220Y-87130781D01*
X139635218Y-87130778D01*
X139635218Y-87130776D01*
X139601503Y-87064607D01*
X139542287Y-86948390D01*
X139526135Y-86926158D01*
X139421971Y-86782786D01*
X139277213Y-86638028D01*
X139111614Y-86517715D01*
X139066458Y-86494707D01*
X139018917Y-86470483D01*
X138968123Y-86422511D01*
X138951328Y-86354690D01*
X138973865Y-86288555D01*
X139018917Y-86249516D01*
X139111610Y-86202287D01*
X139215919Y-86126503D01*
X139277213Y-86081971D01*
X139277215Y-86081968D01*
X139277219Y-86081966D01*
X139421966Y-85937219D01*
X139421968Y-85937215D01*
X139421971Y-85937213D01*
X139485547Y-85849707D01*
X139542287Y-85771610D01*
X139635220Y-85589219D01*
X139698477Y-85394534D01*
X139730500Y-85192352D01*
X139730500Y-84987648D01*
X139706193Y-84834179D01*
X139698477Y-84785465D01*
X139635218Y-84590776D01*
X139601503Y-84524607D01*
X139542287Y-84408390D01*
X139518866Y-84376153D01*
X139421971Y-84242786D01*
X139277213Y-84098028D01*
X139111614Y-83977715D01*
X139105006Y-83974348D01*
X139018917Y-83930483D01*
X138968123Y-83882511D01*
X138951328Y-83814690D01*
X138973865Y-83748555D01*
X139018917Y-83709516D01*
X139111610Y-83662287D01*
X139215919Y-83586503D01*
X139277213Y-83541971D01*
X139277215Y-83541968D01*
X139277219Y-83541966D01*
X139421966Y-83397219D01*
X139421968Y-83397215D01*
X139421971Y-83397213D01*
X139485547Y-83309707D01*
X139542287Y-83231610D01*
X139635220Y-83049219D01*
X139698477Y-82854534D01*
X139730500Y-82652352D01*
X139730500Y-82447648D01*
X139706193Y-82294179D01*
X139698477Y-82245465D01*
X139635218Y-82050776D01*
X139601503Y-81984607D01*
X139542287Y-81868390D01*
X139518866Y-81836153D01*
X139421971Y-81702786D01*
X139277213Y-81558028D01*
X139111611Y-81437713D01*
X139018369Y-81390203D01*
X138967574Y-81342229D01*
X138950779Y-81274407D01*
X138973317Y-81208273D01*
X139018371Y-81169234D01*
X139111346Y-81121861D01*
X139111347Y-81121861D01*
X139155921Y-81089474D01*
X138476447Y-80410000D01*
X138482661Y-80410000D01*
X138584394Y-80382741D01*
X138675606Y-80330080D01*
X138750080Y-80255606D01*
X138802741Y-80164394D01*
X138830000Y-80062661D01*
X138830000Y-80056448D01*
X139509474Y-80735922D01*
X139509474Y-80735921D01*
X139541859Y-80691349D01*
X139634755Y-80509031D01*
X139697990Y-80314417D01*
X139730000Y-80112317D01*
X139730000Y-79907682D01*
X139697990Y-79705582D01*
X139634755Y-79510968D01*
X139541859Y-79328650D01*
X139509474Y-79284077D01*
X139509474Y-79284076D01*
X138830000Y-79963551D01*
X138830000Y-79957339D01*
X138802741Y-79855606D01*
X138750080Y-79764394D01*
X138675606Y-79689920D01*
X138584394Y-79637259D01*
X138482661Y-79610000D01*
X138476446Y-79610000D01*
X139155922Y-78930524D01*
X139155921Y-78930523D01*
X139111359Y-78898147D01*
X139111350Y-78898141D01*
X138929031Y-78805244D01*
X138734417Y-78742009D01*
X138532317Y-78710000D01*
X138327683Y-78710000D01*
X138125582Y-78742009D01*
X137930968Y-78805244D01*
X137748644Y-78898143D01*
X137704077Y-78930523D01*
X137704077Y-78930524D01*
X138383554Y-79610000D01*
X138377339Y-79610000D01*
X138275606Y-79637259D01*
X138184394Y-79689920D01*
X138109920Y-79764394D01*
X138057259Y-79855606D01*
X138030000Y-79957339D01*
X138030000Y-79963553D01*
X137350524Y-79284077D01*
X137350523Y-79284077D01*
X137318143Y-79328644D01*
X137225244Y-79510968D01*
X137162009Y-79705582D01*
X137130000Y-79907682D01*
X137130000Y-80112317D01*
X137162009Y-80314417D01*
X137225244Y-80509031D01*
X137318141Y-80691350D01*
X137318147Y-80691359D01*
X137350523Y-80735921D01*
X137350524Y-80735922D01*
X138030000Y-80056446D01*
X138030000Y-80062661D01*
X138057259Y-80164394D01*
X138109920Y-80255606D01*
X138184394Y-80330080D01*
X138275606Y-80382741D01*
X138377339Y-80410000D01*
X138383553Y-80410000D01*
X137704076Y-81089474D01*
X137748652Y-81121861D01*
X137841628Y-81169234D01*
X137892425Y-81217208D01*
X137909220Y-81285029D01*
X137886683Y-81351164D01*
X137841630Y-81390203D01*
X137748388Y-81437713D01*
X137582786Y-81558028D01*
X137438028Y-81702786D01*
X137317715Y-81868386D01*
X137224781Y-82050776D01*
X137161522Y-82245465D01*
X137129500Y-82447648D01*
X137129500Y-82652351D01*
X137161522Y-82854534D01*
X137224781Y-83049223D01*
X137288691Y-83174653D01*
X137300696Y-83198213D01*
X137317715Y-83231613D01*
X137438028Y-83397213D01*
X137582786Y-83541971D01*
X137737672Y-83654500D01*
X137748390Y-83662287D01*
X137839840Y-83708883D01*
X137841080Y-83709515D01*
X137891876Y-83757490D01*
X137908671Y-83825311D01*
X137886134Y-83891446D01*
X137841080Y-83930485D01*
X137748386Y-83977715D01*
X137582786Y-84098028D01*
X137438028Y-84242786D01*
X137317715Y-84408386D01*
X137224781Y-84590776D01*
X137161522Y-84785465D01*
X137129500Y-84987648D01*
X137129500Y-85192351D01*
X137161522Y-85394534D01*
X137224781Y-85589223D01*
X137288691Y-85714653D01*
X137300696Y-85738213D01*
X137317715Y-85771613D01*
X137438028Y-85937213D01*
X137582786Y-86081971D01*
X137737749Y-86194556D01*
X137748390Y-86202287D01*
X137813109Y-86235263D01*
X137841080Y-86249515D01*
X137891876Y-86297490D01*
X137908671Y-86365311D01*
X137886134Y-86431446D01*
X137841080Y-86470485D01*
X137748386Y-86517715D01*
X137582786Y-86638028D01*
X137438028Y-86782786D01*
X137317715Y-86948386D01*
X137224781Y-87130776D01*
X137161522Y-87325465D01*
X137129500Y-87527648D01*
X137129500Y-87732351D01*
X137161522Y-87934534D01*
X137224781Y-88129223D01*
X137288691Y-88254653D01*
X137300696Y-88278213D01*
X137317715Y-88311613D01*
X137438028Y-88477213D01*
X137582786Y-88621971D01*
X137737672Y-88734500D01*
X137748390Y-88742287D01*
X137839840Y-88788883D01*
X137841080Y-88789515D01*
X137891876Y-88837490D01*
X137908671Y-88905311D01*
X137886134Y-88971446D01*
X137841080Y-89010485D01*
X137748386Y-89057715D01*
X137582786Y-89178028D01*
X137438028Y-89322786D01*
X137317715Y-89488386D01*
X137224781Y-89670776D01*
X137161522Y-89865465D01*
X137129500Y-90067648D01*
X137129500Y-90272351D01*
X137161522Y-90474534D01*
X137224781Y-90669223D01*
X137288691Y-90794653D01*
X137300696Y-90818213D01*
X137317715Y-90851613D01*
X137438028Y-91017213D01*
X137582786Y-91161971D01*
X137737672Y-91274500D01*
X137748390Y-91282287D01*
X137839840Y-91328883D01*
X137841080Y-91329515D01*
X137891876Y-91377490D01*
X137908671Y-91445311D01*
X137886134Y-91511446D01*
X137841080Y-91550485D01*
X137748386Y-91597715D01*
X137582786Y-91718028D01*
X137438028Y-91862786D01*
X137317715Y-92028386D01*
X137224781Y-92210776D01*
X137161522Y-92405465D01*
X137129500Y-92607648D01*
X137129500Y-92812351D01*
X137161522Y-93014534D01*
X137224781Y-93209223D01*
X137280717Y-93319002D01*
X137300695Y-93358211D01*
X137317715Y-93391613D01*
X137438028Y-93557213D01*
X137582786Y-93701971D01*
X137737749Y-93814556D01*
X137748390Y-93822287D01*
X137813109Y-93855263D01*
X137841080Y-93869515D01*
X137891876Y-93917490D01*
X137908671Y-93985311D01*
X137886134Y-94051446D01*
X137841080Y-94090485D01*
X137748386Y-94137715D01*
X137582786Y-94258028D01*
X137438028Y-94402786D01*
X137317715Y-94568386D01*
X137224781Y-94750776D01*
X137161522Y-94945465D01*
X137129500Y-95147648D01*
X137129500Y-95352351D01*
X137161522Y-95554534D01*
X137224781Y-95749223D01*
X137280717Y-95859002D01*
X137300695Y-95898211D01*
X137317715Y-95931613D01*
X137438028Y-96097213D01*
X137582786Y-96241971D01*
X137737749Y-96354556D01*
X137748390Y-96362287D01*
X137813109Y-96395263D01*
X137841080Y-96409515D01*
X137891876Y-96457490D01*
X137908671Y-96525311D01*
X137886134Y-96591446D01*
X137841080Y-96630485D01*
X137748386Y-96677715D01*
X137582786Y-96798028D01*
X137438028Y-96942786D01*
X137317715Y-97108386D01*
X137224781Y-97290776D01*
X137161522Y-97485465D01*
X137129500Y-97687648D01*
X137129500Y-97892351D01*
X137161522Y-98094534D01*
X137224781Y-98289223D01*
X137280717Y-98399002D01*
X137300695Y-98438211D01*
X137317715Y-98471613D01*
X137438028Y-98637213D01*
X137582786Y-98781971D01*
X137737749Y-98894556D01*
X137748390Y-98902287D01*
X137813109Y-98935263D01*
X137841080Y-98949515D01*
X137891876Y-98997490D01*
X137908671Y-99065311D01*
X137886134Y-99131446D01*
X137841080Y-99170485D01*
X137748386Y-99217715D01*
X137582786Y-99338028D01*
X137438028Y-99482786D01*
X137317715Y-99648386D01*
X137224781Y-99830776D01*
X137161522Y-100025465D01*
X137129500Y-100227648D01*
X137129500Y-100432351D01*
X137161522Y-100634534D01*
X137224781Y-100829223D01*
X137280717Y-100939002D01*
X137300695Y-100978211D01*
X137317715Y-101011613D01*
X137438028Y-101177213D01*
X137582786Y-101321971D01*
X137737749Y-101434556D01*
X137748390Y-101442287D01*
X137813109Y-101475263D01*
X137841080Y-101489515D01*
X137891876Y-101537490D01*
X137908671Y-101605311D01*
X137886134Y-101671446D01*
X137841080Y-101710485D01*
X137748386Y-101757715D01*
X137582786Y-101878028D01*
X137438028Y-102022786D01*
X137317715Y-102188386D01*
X137224781Y-102370776D01*
X137161522Y-102565465D01*
X137129500Y-102767648D01*
X137129500Y-102972351D01*
X137161522Y-103174534D01*
X137224781Y-103369223D01*
X137280717Y-103479002D01*
X137300695Y-103518211D01*
X137317715Y-103551613D01*
X137438028Y-103717213D01*
X137582786Y-103861971D01*
X137737672Y-103974500D01*
X137748390Y-103982287D01*
X137839840Y-104028883D01*
X137841080Y-104029515D01*
X137891876Y-104077490D01*
X137908671Y-104145311D01*
X137886134Y-104211446D01*
X137841080Y-104250485D01*
X137748386Y-104297715D01*
X137582786Y-104418028D01*
X137438028Y-104562786D01*
X137317715Y-104728386D01*
X137224781Y-104910776D01*
X137161522Y-105105465D01*
X137129500Y-105307648D01*
X137129500Y-105512351D01*
X137161522Y-105714534D01*
X137224781Y-105909223D01*
X137280717Y-106019002D01*
X137300695Y-106058211D01*
X137317715Y-106091613D01*
X137438028Y-106257213D01*
X137582786Y-106401971D01*
X137737672Y-106514500D01*
X137748390Y-106522287D01*
X137839840Y-106568883D01*
X137841080Y-106569515D01*
X137891876Y-106617490D01*
X137908671Y-106685311D01*
X137886134Y-106751446D01*
X137841080Y-106790485D01*
X137748386Y-106837715D01*
X137582786Y-106958028D01*
X137438028Y-107102786D01*
X137317715Y-107268386D01*
X137224781Y-107450776D01*
X137161522Y-107645465D01*
X137129500Y-107847648D01*
X137129500Y-108052351D01*
X137161522Y-108254534D01*
X137224781Y-108449223D01*
X137280717Y-108559002D01*
X137309117Y-108614740D01*
X137317715Y-108631613D01*
X137438028Y-108797213D01*
X137582786Y-108941971D01*
X137737749Y-109054556D01*
X137748390Y-109062287D01*
X137839840Y-109108883D01*
X137841080Y-109109515D01*
X137891876Y-109157490D01*
X137908671Y-109225311D01*
X137886134Y-109291446D01*
X137841080Y-109330485D01*
X137748386Y-109377715D01*
X137582786Y-109498028D01*
X137438028Y-109642786D01*
X137317715Y-109808386D01*
X137224781Y-109990776D01*
X137161522Y-110185465D01*
X137129500Y-110387648D01*
X137129500Y-110592351D01*
X137161522Y-110794534D01*
X137224781Y-110989223D01*
X137280717Y-111099002D01*
X137317585Y-111171359D01*
X137317715Y-111171613D01*
X137438028Y-111337213D01*
X137582786Y-111481971D01*
X137703226Y-111569474D01*
X137748390Y-111602287D01*
X137839840Y-111648883D01*
X137841080Y-111649515D01*
X137891876Y-111697490D01*
X137908671Y-111765311D01*
X137886134Y-111831446D01*
X137841080Y-111870485D01*
X137748386Y-111917715D01*
X137582786Y-112038028D01*
X137438028Y-112182786D01*
X137317715Y-112348386D01*
X137224781Y-112530776D01*
X137161522Y-112725465D01*
X137129500Y-112927648D01*
X137129500Y-113132351D01*
X137161522Y-113334534D01*
X137224781Y-113529223D01*
X137280717Y-113639002D01*
X137300695Y-113678211D01*
X137317715Y-113711613D01*
X137438028Y-113877213D01*
X137582786Y-114021971D01*
X137737749Y-114134556D01*
X137748390Y-114142287D01*
X137839840Y-114188883D01*
X137841080Y-114189515D01*
X137891876Y-114237490D01*
X137908671Y-114305311D01*
X137886134Y-114371446D01*
X137841080Y-114410485D01*
X137748386Y-114457715D01*
X137582786Y-114578028D01*
X137438028Y-114722786D01*
X137317715Y-114888386D01*
X137224781Y-115070776D01*
X137161522Y-115265465D01*
X137129500Y-115467648D01*
X137129500Y-115672351D01*
X137161522Y-115874534D01*
X137178629Y-115927181D01*
X137180624Y-115997023D01*
X137144544Y-116056856D01*
X137081843Y-116087684D01*
X137060698Y-116089500D01*
X133911080Y-116089500D01*
X133766092Y-116118340D01*
X133766082Y-116118343D01*
X133629511Y-116174912D01*
X133629498Y-116174919D01*
X133506584Y-116257048D01*
X133506580Y-116257051D01*
X132890451Y-116873181D01*
X132829128Y-116906666D01*
X132802770Y-116909500D01*
X132620514Y-116909500D01*
X132433881Y-116939059D01*
X132254163Y-116997454D01*
X132085800Y-117083240D01*
X132037911Y-117118034D01*
X131932927Y-117194310D01*
X131932925Y-117194312D01*
X131932924Y-117194312D01*
X131799312Y-117327924D01*
X131799312Y-117327925D01*
X131799310Y-117327927D01*
X131751610Y-117393579D01*
X131688240Y-117480800D01*
X131602454Y-117649163D01*
X131544059Y-117828881D01*
X131514500Y-118015513D01*
X131514500Y-118204486D01*
X131544059Y-118391118D01*
X131602454Y-118570836D01*
X131688240Y-118739199D01*
X131799310Y-118892073D01*
X131799312Y-118892075D01*
X131928181Y-119020944D01*
X131961666Y-119082267D01*
X131964500Y-119108625D01*
X131964500Y-122151862D01*
X131944815Y-122218901D01*
X131913387Y-122252179D01*
X131882927Y-122274309D01*
X131749312Y-122407924D01*
X131749312Y-122407925D01*
X131749310Y-122407927D01*
X131701610Y-122473579D01*
X131638240Y-122560800D01*
X131552454Y-122729163D01*
X131494059Y-122908881D01*
X131464500Y-123095513D01*
X131464500Y-123284486D01*
X131494059Y-123471118D01*
X131552454Y-123650836D01*
X131638242Y-123819203D01*
X131690817Y-123891565D01*
X131714298Y-123957371D01*
X131714500Y-123964451D01*
X131714500Y-127564366D01*
X131694815Y-127631405D01*
X131690821Y-127637247D01*
X131688242Y-127640796D01*
X131602454Y-127809163D01*
X131544059Y-127988881D01*
X131514500Y-128175513D01*
X131514500Y-128364486D01*
X131544059Y-128551118D01*
X131602454Y-128730836D01*
X131688239Y-128899198D01*
X131688240Y-128899199D01*
X131690814Y-128902742D01*
X131714297Y-128968546D01*
X131714500Y-128975632D01*
X131714500Y-145809237D01*
X131694815Y-145876276D01*
X131690818Y-145882122D01*
X131602715Y-146003386D01*
X131509781Y-146185776D01*
X131446522Y-146380465D01*
X131414500Y-146582648D01*
X131414500Y-146787351D01*
X131446522Y-146989534D01*
X131509781Y-147184223D01*
X131602580Y-147366349D01*
X131602713Y-147366610D01*
X131690819Y-147487877D01*
X131714298Y-147553681D01*
X131714500Y-147560761D01*
X131714500Y-148214217D01*
X131694815Y-148281256D01*
X131678181Y-148301898D01*
X130146503Y-149833576D01*
X130085180Y-149867061D01*
X130069643Y-149869352D01*
X129858760Y-149902753D01*
X129858757Y-149902754D01*
X129686682Y-149958665D01*
X129656585Y-149968444D01*
X129467179Y-150064951D01*
X129295213Y-150189890D01*
X129144890Y-150340213D01*
X129019949Y-150512182D01*
X129015484Y-150520946D01*
X128967509Y-150571742D01*
X128899688Y-150588536D01*
X128833553Y-150565998D01*
X128794516Y-150520946D01*
X128790050Y-150512182D01*
X128665109Y-150340213D01*
X128514786Y-150189890D01*
X128342820Y-150064951D01*
X128153414Y-149968444D01*
X128153413Y-149968443D01*
X128153412Y-149968443D01*
X127951243Y-149902754D01*
X127951241Y-149902753D01*
X127951240Y-149902753D01*
X127789957Y-149877208D01*
X127741287Y-149869500D01*
X127528713Y-149869500D01*
X127489202Y-149875757D01*
X127318759Y-149902753D01*
X127318755Y-149902754D01*
X127152817Y-149956670D01*
X127082976Y-149958665D01*
X127023144Y-149922584D01*
X126992316Y-149859883D01*
X126990500Y-149838739D01*
X126990500Y-107857350D01*
X127010185Y-107790311D01*
X127011398Y-107788459D01*
X127011809Y-107787843D01*
X127074394Y-107694179D01*
X127134737Y-107548497D01*
X127165500Y-107393842D01*
X127165500Y-107236158D01*
X127165500Y-107236155D01*
X127165499Y-107236153D01*
X127134738Y-107081510D01*
X127134737Y-107081503D01*
X127083595Y-106958034D01*
X127074397Y-106935827D01*
X127074390Y-106935814D01*
X126986789Y-106804711D01*
X126986786Y-106804707D01*
X126875292Y-106693213D01*
X126875288Y-106693210D01*
X126744185Y-106605609D01*
X126744172Y-106605602D01*
X126598501Y-106545264D01*
X126598489Y-106545261D01*
X126443845Y-106514500D01*
X126443842Y-106514500D01*
X126286158Y-106514500D01*
X126286155Y-106514500D01*
X126131510Y-106545261D01*
X126131498Y-106545264D01*
X125985827Y-106605602D01*
X125985814Y-106605609D01*
X125854711Y-106693210D01*
X125854707Y-106693213D01*
X125743213Y-106804707D01*
X125743210Y-106804711D01*
X125655609Y-106935814D01*
X125655602Y-106935827D01*
X125595264Y-107081498D01*
X125595261Y-107081510D01*
X125564500Y-107236153D01*
X125564500Y-107393846D01*
X125595261Y-107548489D01*
X125595264Y-107548501D01*
X125655602Y-107694172D01*
X125655609Y-107694184D01*
X125718602Y-107788459D01*
X125739480Y-107855136D01*
X125739500Y-107857350D01*
X125739500Y-149838739D01*
X125719815Y-149905778D01*
X125667011Y-149951533D01*
X125597853Y-149961477D01*
X125577183Y-149956670D01*
X125411244Y-149902754D01*
X125411240Y-149902753D01*
X125249957Y-149877208D01*
X125201287Y-149869500D01*
X124988713Y-149869500D01*
X124949202Y-149875757D01*
X124778759Y-149902753D01*
X124778755Y-149902754D01*
X124612817Y-149956670D01*
X124542976Y-149958665D01*
X124483144Y-149922584D01*
X124452316Y-149859883D01*
X124450500Y-149838739D01*
X124450500Y-105317350D01*
X124470185Y-105250311D01*
X124471398Y-105248459D01*
X124471809Y-105247843D01*
X124534394Y-105154179D01*
X124594737Y-105008497D01*
X124625500Y-104853842D01*
X124625500Y-104696158D01*
X124625500Y-104696155D01*
X124625499Y-104696153D01*
X124594738Y-104541510D01*
X124594737Y-104541503D01*
X124543595Y-104418034D01*
X124534397Y-104395827D01*
X124534390Y-104395814D01*
X124446789Y-104264711D01*
X124446786Y-104264707D01*
X124335292Y-104153213D01*
X124335288Y-104153210D01*
X124204185Y-104065609D01*
X124204172Y-104065602D01*
X124058501Y-104005264D01*
X124058489Y-104005261D01*
X123903845Y-103974500D01*
X123903842Y-103974500D01*
X123746158Y-103974500D01*
X123746155Y-103974500D01*
X123591510Y-104005261D01*
X123591498Y-104005264D01*
X123445827Y-104065602D01*
X123445814Y-104065609D01*
X123314711Y-104153210D01*
X123314707Y-104153213D01*
X123203213Y-104264707D01*
X123203210Y-104264711D01*
X123115609Y-104395814D01*
X123115602Y-104395827D01*
X123055264Y-104541498D01*
X123055261Y-104541510D01*
X123024500Y-104696153D01*
X123024500Y-104853846D01*
X123055261Y-105008489D01*
X123055264Y-105008501D01*
X123115602Y-105154172D01*
X123115609Y-105154184D01*
X123178602Y-105248459D01*
X123199480Y-105315136D01*
X123199500Y-105317350D01*
X123199500Y-127505899D01*
X123179815Y-127572938D01*
X123127011Y-127618693D01*
X123057853Y-127628637D01*
X123006610Y-127609002D01*
X122934183Y-127560608D01*
X122934172Y-127560602D01*
X122788501Y-127500264D01*
X122788489Y-127500261D01*
X122633845Y-127469500D01*
X122633842Y-127469500D01*
X122476158Y-127469500D01*
X122476155Y-127469500D01*
X122321510Y-127500261D01*
X122321498Y-127500264D01*
X122175827Y-127560602D01*
X122175816Y-127560608D01*
X122103390Y-127609002D01*
X122036713Y-127629879D01*
X121969333Y-127611394D01*
X121922643Y-127559415D01*
X121910500Y-127505899D01*
X121910500Y-102787350D01*
X121930185Y-102720311D01*
X121931398Y-102718459D01*
X121931809Y-102717843D01*
X121994394Y-102624179D01*
X122054737Y-102478497D01*
X122085500Y-102323842D01*
X122085500Y-102166158D01*
X122085500Y-102166155D01*
X122085499Y-102166153D01*
X122054738Y-102011510D01*
X122054737Y-102011503D01*
X121999453Y-101878034D01*
X121994397Y-101865827D01*
X121994390Y-101865814D01*
X121906789Y-101734711D01*
X121906786Y-101734707D01*
X121795292Y-101623213D01*
X121795288Y-101623210D01*
X121664185Y-101535609D01*
X121664172Y-101535602D01*
X121518501Y-101475264D01*
X121518489Y-101475261D01*
X121363845Y-101444500D01*
X121363842Y-101444500D01*
X121206158Y-101444500D01*
X121206155Y-101444500D01*
X121051510Y-101475261D01*
X121051498Y-101475264D01*
X120905827Y-101535602D01*
X120905814Y-101535609D01*
X120774711Y-101623210D01*
X120774707Y-101623213D01*
X120663213Y-101734707D01*
X120663210Y-101734711D01*
X120575609Y-101865814D01*
X120575602Y-101865827D01*
X120515264Y-102011498D01*
X120515261Y-102011510D01*
X120484500Y-102166153D01*
X120484500Y-102323846D01*
X120515261Y-102478489D01*
X120515264Y-102478501D01*
X120575602Y-102624172D01*
X120575609Y-102624184D01*
X120638602Y-102718459D01*
X120659480Y-102785136D01*
X120659500Y-102787350D01*
X120659500Y-114805899D01*
X120639815Y-114872938D01*
X120587011Y-114918693D01*
X120517853Y-114928637D01*
X120466610Y-114909002D01*
X120394183Y-114860608D01*
X120394172Y-114860602D01*
X120248501Y-114800264D01*
X120248489Y-114800261D01*
X120093845Y-114769500D01*
X120093842Y-114769500D01*
X119936158Y-114769500D01*
X119936155Y-114769500D01*
X119781510Y-114800261D01*
X119781498Y-114800264D01*
X119635827Y-114860602D01*
X119635816Y-114860608D01*
X119563390Y-114909002D01*
X119496713Y-114929879D01*
X119429333Y-114911394D01*
X119382643Y-114859415D01*
X119370500Y-114805899D01*
X119370500Y-100247350D01*
X119390185Y-100180311D01*
X119391398Y-100178459D01*
X119391809Y-100177843D01*
X119454394Y-100084179D01*
X119514737Y-99938497D01*
X119545500Y-99783842D01*
X119545500Y-99626158D01*
X119545500Y-99626155D01*
X119545499Y-99626153D01*
X119514738Y-99471510D01*
X119514737Y-99471503D01*
X119459453Y-99338034D01*
X119454397Y-99325827D01*
X119454390Y-99325814D01*
X119366789Y-99194711D01*
X119366786Y-99194707D01*
X119255292Y-99083213D01*
X119255288Y-99083210D01*
X119124185Y-98995609D01*
X119124172Y-98995602D01*
X118978501Y-98935264D01*
X118978489Y-98935261D01*
X118823845Y-98904500D01*
X118823842Y-98904500D01*
X118666158Y-98904500D01*
X118666155Y-98904500D01*
X118511510Y-98935261D01*
X118511498Y-98935264D01*
X118365827Y-98995602D01*
X118365814Y-98995609D01*
X118234711Y-99083210D01*
X118234707Y-99083213D01*
X118123213Y-99194707D01*
X118123210Y-99194711D01*
X118035609Y-99325814D01*
X118035602Y-99325827D01*
X117975264Y-99471498D01*
X117975261Y-99471510D01*
X117944500Y-99626153D01*
X117944500Y-99783846D01*
X117975261Y-99938489D01*
X117975264Y-99938501D01*
X118035602Y-100084172D01*
X118035609Y-100084184D01*
X118098602Y-100178459D01*
X118119480Y-100245136D01*
X118119500Y-100247350D01*
X118119500Y-119885899D01*
X118099815Y-119952938D01*
X118047011Y-119998693D01*
X117977853Y-120008637D01*
X117926610Y-119989002D01*
X117854183Y-119940608D01*
X117854172Y-119940602D01*
X117708501Y-119880264D01*
X117708489Y-119880261D01*
X117553845Y-119849500D01*
X117553842Y-119849500D01*
X117396158Y-119849500D01*
X117396155Y-119849500D01*
X117241510Y-119880261D01*
X117241498Y-119880264D01*
X117095827Y-119940602D01*
X117095816Y-119940608D01*
X117023390Y-119989002D01*
X116956713Y-120009879D01*
X116889333Y-119991394D01*
X116842643Y-119939415D01*
X116830500Y-119885899D01*
X116830500Y-97707350D01*
X116850185Y-97640311D01*
X116851398Y-97638459D01*
X116851809Y-97637843D01*
X116914394Y-97544179D01*
X116974737Y-97398497D01*
X117005500Y-97243842D01*
X117005500Y-97086158D01*
X117005500Y-97086155D01*
X117005499Y-97086153D01*
X116974738Y-96931510D01*
X116974737Y-96931503D01*
X116919453Y-96798034D01*
X116914397Y-96785827D01*
X116914390Y-96785814D01*
X116826789Y-96654711D01*
X116826786Y-96654707D01*
X116715292Y-96543213D01*
X116715288Y-96543210D01*
X116584185Y-96455609D01*
X116584172Y-96455602D01*
X116438501Y-96395264D01*
X116438489Y-96395261D01*
X116283845Y-96364500D01*
X116283842Y-96364500D01*
X116126158Y-96364500D01*
X116126155Y-96364500D01*
X115971510Y-96395261D01*
X115971498Y-96395264D01*
X115825827Y-96455602D01*
X115825814Y-96455609D01*
X115694711Y-96543210D01*
X115694707Y-96543213D01*
X115583213Y-96654707D01*
X115583210Y-96654711D01*
X115495609Y-96785814D01*
X115495602Y-96785827D01*
X115435264Y-96931498D01*
X115435261Y-96931510D01*
X115404500Y-97086153D01*
X115404500Y-97243846D01*
X115435261Y-97398489D01*
X115435264Y-97398501D01*
X115495602Y-97544172D01*
X115495609Y-97544184D01*
X115558602Y-97638459D01*
X115579480Y-97705136D01*
X115579500Y-97707350D01*
X115579500Y-116710899D01*
X115559815Y-116777938D01*
X115507011Y-116823693D01*
X115437853Y-116833637D01*
X115386610Y-116814002D01*
X115314183Y-116765608D01*
X115314172Y-116765602D01*
X115168501Y-116705264D01*
X115168489Y-116705261D01*
X115013845Y-116674500D01*
X115013842Y-116674500D01*
X114856158Y-116674500D01*
X114856155Y-116674500D01*
X114701510Y-116705261D01*
X114701498Y-116705264D01*
X114555827Y-116765602D01*
X114555816Y-116765608D01*
X114483390Y-116814002D01*
X114416713Y-116834879D01*
X114349333Y-116816394D01*
X114302643Y-116764415D01*
X114290500Y-116710899D01*
X114290500Y-95167350D01*
X114310185Y-95100311D01*
X114311398Y-95098459D01*
X114311809Y-95097843D01*
X114374394Y-95004179D01*
X114434737Y-94858497D01*
X114465500Y-94703842D01*
X114465500Y-94546158D01*
X114465500Y-94546155D01*
X114465499Y-94546153D01*
X114434738Y-94391510D01*
X114434737Y-94391503D01*
X114379453Y-94258034D01*
X114374397Y-94245827D01*
X114374390Y-94245814D01*
X114286789Y-94114711D01*
X114286786Y-94114707D01*
X114175292Y-94003213D01*
X114175288Y-94003210D01*
X114044185Y-93915609D01*
X114044172Y-93915602D01*
X113898501Y-93855264D01*
X113898489Y-93855261D01*
X113743845Y-93824500D01*
X113743842Y-93824500D01*
X113586158Y-93824500D01*
X113586155Y-93824500D01*
X113431510Y-93855261D01*
X113431498Y-93855264D01*
X113285827Y-93915602D01*
X113285814Y-93915609D01*
X113154711Y-94003210D01*
X113154707Y-94003213D01*
X113043213Y-94114707D01*
X113043210Y-94114711D01*
X112955609Y-94245814D01*
X112955602Y-94245827D01*
X112895264Y-94391498D01*
X112895261Y-94391510D01*
X112864500Y-94546153D01*
X112864500Y-94703846D01*
X112895261Y-94858489D01*
X112895264Y-94858501D01*
X112955602Y-95004172D01*
X112955609Y-95004184D01*
X113018602Y-95098459D01*
X113039480Y-95165136D01*
X113039500Y-95167350D01*
X113039500Y-149838739D01*
X113019815Y-149905778D01*
X112967011Y-149951533D01*
X112897853Y-149961477D01*
X112877183Y-149956670D01*
X112711244Y-149902754D01*
X112711240Y-149902753D01*
X112549957Y-149877208D01*
X112501287Y-149869500D01*
X112288713Y-149869500D01*
X112249202Y-149875757D01*
X112078759Y-149902753D01*
X112078755Y-149902754D01*
X111912817Y-149956670D01*
X111842976Y-149958665D01*
X111783144Y-149922584D01*
X111752316Y-149859883D01*
X111750500Y-149838739D01*
X111750500Y-92617350D01*
X111770185Y-92550311D01*
X111771398Y-92548459D01*
X111771809Y-92547843D01*
X111834394Y-92454179D01*
X111894737Y-92308497D01*
X111925500Y-92153842D01*
X111925500Y-91996158D01*
X111925500Y-91996155D01*
X111925499Y-91996153D01*
X111894738Y-91841510D01*
X111894737Y-91841503D01*
X111843595Y-91718034D01*
X111834397Y-91695827D01*
X111834390Y-91695814D01*
X111746789Y-91564711D01*
X111746786Y-91564707D01*
X111635292Y-91453213D01*
X111635288Y-91453210D01*
X111504185Y-91365609D01*
X111504172Y-91365602D01*
X111358501Y-91305264D01*
X111358489Y-91305261D01*
X111203845Y-91274500D01*
X111203842Y-91274500D01*
X111046158Y-91274500D01*
X111046155Y-91274500D01*
X110891510Y-91305261D01*
X110891498Y-91305264D01*
X110745827Y-91365602D01*
X110745814Y-91365609D01*
X110614711Y-91453210D01*
X110614707Y-91453213D01*
X110503213Y-91564707D01*
X110503210Y-91564711D01*
X110415609Y-91695814D01*
X110415602Y-91695827D01*
X110355264Y-91841498D01*
X110355261Y-91841510D01*
X110324500Y-91996153D01*
X110324500Y-92153846D01*
X110355261Y-92308489D01*
X110355264Y-92308501D01*
X110415602Y-92454172D01*
X110415609Y-92454184D01*
X110478602Y-92548459D01*
X110499480Y-92615136D01*
X110499500Y-92617350D01*
X110499500Y-113535899D01*
X110479815Y-113602938D01*
X110427011Y-113648693D01*
X110357853Y-113658637D01*
X110306610Y-113639002D01*
X110234183Y-113590608D01*
X110234172Y-113590602D01*
X110088501Y-113530264D01*
X110088489Y-113530261D01*
X109933845Y-113499500D01*
X109933842Y-113499500D01*
X109776158Y-113499500D01*
X109776155Y-113499500D01*
X109621510Y-113530261D01*
X109621498Y-113530264D01*
X109475827Y-113590602D01*
X109475816Y-113590608D01*
X109403390Y-113639002D01*
X109336713Y-113659879D01*
X109269333Y-113641394D01*
X109222643Y-113589415D01*
X109210500Y-113535899D01*
X109210500Y-90077350D01*
X109230185Y-90010311D01*
X109231398Y-90008459D01*
X109231809Y-90007843D01*
X109294394Y-89914179D01*
X109354737Y-89768497D01*
X109385500Y-89613842D01*
X109385500Y-89456158D01*
X109385500Y-89456155D01*
X109385499Y-89456153D01*
X109354738Y-89301510D01*
X109354737Y-89301503D01*
X109303595Y-89178034D01*
X109294397Y-89155827D01*
X109294390Y-89155814D01*
X109206789Y-89024711D01*
X109206786Y-89024707D01*
X109095292Y-88913213D01*
X109095288Y-88913210D01*
X108964185Y-88825609D01*
X108964172Y-88825602D01*
X108818501Y-88765264D01*
X108818489Y-88765261D01*
X108663845Y-88734500D01*
X108663842Y-88734500D01*
X108506158Y-88734500D01*
X108506155Y-88734500D01*
X108351510Y-88765261D01*
X108351498Y-88765264D01*
X108205827Y-88825602D01*
X108205814Y-88825609D01*
X108074711Y-88913210D01*
X108074707Y-88913213D01*
X107963213Y-89024707D01*
X107963210Y-89024711D01*
X107875609Y-89155814D01*
X107875602Y-89155827D01*
X107815264Y-89301498D01*
X107815261Y-89301510D01*
X107784500Y-89456153D01*
X107784500Y-89613846D01*
X107815261Y-89768489D01*
X107815264Y-89768501D01*
X107875602Y-89914172D01*
X107875609Y-89914184D01*
X107938602Y-90008459D01*
X107959480Y-90075136D01*
X107959500Y-90077350D01*
X107959500Y-93215899D01*
X107939815Y-93282938D01*
X107887011Y-93328693D01*
X107817853Y-93338637D01*
X107766610Y-93319002D01*
X107694183Y-93270608D01*
X107694172Y-93270602D01*
X107548501Y-93210264D01*
X107548489Y-93210261D01*
X107393845Y-93179500D01*
X107393842Y-93179500D01*
X107236158Y-93179500D01*
X107236155Y-93179500D01*
X107081510Y-93210261D01*
X107081498Y-93210264D01*
X106935827Y-93270602D01*
X106935816Y-93270608D01*
X106863390Y-93319002D01*
X106796713Y-93339879D01*
X106729333Y-93321394D01*
X106682643Y-93269415D01*
X106670500Y-93215899D01*
X106670500Y-87547350D01*
X106690185Y-87480311D01*
X106691398Y-87478459D01*
X106691809Y-87477843D01*
X106754394Y-87384179D01*
X106814737Y-87238497D01*
X106845500Y-87083842D01*
X106845500Y-86926158D01*
X106845500Y-86926155D01*
X106845499Y-86926153D01*
X106814738Y-86771510D01*
X106814737Y-86771503D01*
X106759453Y-86638034D01*
X106754397Y-86625827D01*
X106754390Y-86625814D01*
X106666789Y-86494711D01*
X106666786Y-86494707D01*
X106555292Y-86383213D01*
X106555288Y-86383210D01*
X106424185Y-86295609D01*
X106424172Y-86295602D01*
X106278501Y-86235264D01*
X106278489Y-86235261D01*
X106123845Y-86204500D01*
X106123842Y-86204500D01*
X105966158Y-86204500D01*
X105966155Y-86204500D01*
X105811510Y-86235261D01*
X105811498Y-86235264D01*
X105665827Y-86295602D01*
X105665814Y-86295609D01*
X105534711Y-86383210D01*
X105534707Y-86383213D01*
X105423213Y-86494707D01*
X105423210Y-86494711D01*
X105335609Y-86625814D01*
X105335602Y-86625827D01*
X105275264Y-86771498D01*
X105275261Y-86771510D01*
X105244500Y-86926153D01*
X105244500Y-87083846D01*
X105275261Y-87238489D01*
X105275264Y-87238501D01*
X105335602Y-87384172D01*
X105335609Y-87384184D01*
X105398602Y-87478459D01*
X105419480Y-87545136D01*
X105419500Y-87547350D01*
X105419500Y-95755899D01*
X105399815Y-95822938D01*
X105347011Y-95868693D01*
X105277853Y-95878637D01*
X105226610Y-95859002D01*
X105154183Y-95810608D01*
X105154172Y-95810602D01*
X105008501Y-95750264D01*
X105008489Y-95750261D01*
X104853845Y-95719500D01*
X104853842Y-95719500D01*
X104696158Y-95719500D01*
X104696155Y-95719500D01*
X104541510Y-95750261D01*
X104541498Y-95750264D01*
X104395827Y-95810602D01*
X104395816Y-95810608D01*
X104323390Y-95859002D01*
X104256713Y-95879879D01*
X104189333Y-95861394D01*
X104142643Y-95809415D01*
X104130500Y-95755899D01*
X104130500Y-84997350D01*
X104150185Y-84930311D01*
X104151398Y-84928459D01*
X104151809Y-84927843D01*
X104214394Y-84834179D01*
X104274737Y-84688497D01*
X104305500Y-84533842D01*
X104305500Y-84376158D01*
X104305500Y-84376155D01*
X104305499Y-84376153D01*
X104274738Y-84221510D01*
X104274737Y-84221503D01*
X104223595Y-84098034D01*
X104214397Y-84075827D01*
X104214390Y-84075814D01*
X104126789Y-83944711D01*
X104126786Y-83944707D01*
X104015292Y-83833213D01*
X104015288Y-83833210D01*
X103884185Y-83745609D01*
X103884172Y-83745602D01*
X103738501Y-83685264D01*
X103738489Y-83685261D01*
X103583845Y-83654500D01*
X103583842Y-83654500D01*
X103426158Y-83654500D01*
X103426155Y-83654500D01*
X103271510Y-83685261D01*
X103271498Y-83685264D01*
X103125827Y-83745602D01*
X103125814Y-83745609D01*
X102994711Y-83833210D01*
X102994707Y-83833213D01*
X102883213Y-83944707D01*
X102883210Y-83944711D01*
X102795609Y-84075814D01*
X102795602Y-84075827D01*
X102735264Y-84221498D01*
X102735261Y-84221510D01*
X102704500Y-84376153D01*
X102704500Y-84533846D01*
X102735261Y-84688489D01*
X102735264Y-84688501D01*
X102795602Y-84834172D01*
X102795609Y-84834184D01*
X102858602Y-84928459D01*
X102879480Y-84995136D01*
X102879500Y-84997350D01*
X102879500Y-98295899D01*
X102859815Y-98362938D01*
X102807011Y-98408693D01*
X102737853Y-98418637D01*
X102686610Y-98399002D01*
X102614183Y-98350608D01*
X102614172Y-98350602D01*
X102468501Y-98290264D01*
X102468489Y-98290261D01*
X102313845Y-98259500D01*
X102313842Y-98259500D01*
X102156158Y-98259500D01*
X102156155Y-98259500D01*
X102001510Y-98290261D01*
X102001498Y-98290264D01*
X101855827Y-98350602D01*
X101855816Y-98350608D01*
X101783390Y-98399002D01*
X101716713Y-98419879D01*
X101649333Y-98401394D01*
X101602643Y-98349415D01*
X101590500Y-98295899D01*
X101590500Y-82457350D01*
X101610185Y-82390311D01*
X101611398Y-82388459D01*
X101611809Y-82387843D01*
X101674394Y-82294179D01*
X101734737Y-82148497D01*
X101765500Y-81993842D01*
X101765500Y-81836158D01*
X101765500Y-81836155D01*
X101765499Y-81836153D01*
X101734738Y-81681510D01*
X101734737Y-81681503D01*
X101683595Y-81558034D01*
X101674397Y-81535827D01*
X101674390Y-81535814D01*
X101586789Y-81404711D01*
X101586786Y-81404707D01*
X101475292Y-81293213D01*
X101475288Y-81293210D01*
X101344185Y-81205609D01*
X101344172Y-81205602D01*
X101198501Y-81145264D01*
X101198489Y-81145261D01*
X101043845Y-81114500D01*
X101043842Y-81114500D01*
X100886158Y-81114500D01*
X100886155Y-81114500D01*
X100731510Y-81145261D01*
X100731498Y-81145264D01*
X100585827Y-81205602D01*
X100585814Y-81205609D01*
X100454711Y-81293210D01*
X100454707Y-81293213D01*
X100343213Y-81404707D01*
X100343210Y-81404711D01*
X100255609Y-81535814D01*
X100255602Y-81535827D01*
X100195264Y-81681498D01*
X100195261Y-81681510D01*
X100164500Y-81836153D01*
X100164500Y-81993846D01*
X100195261Y-82148489D01*
X100195264Y-82148501D01*
X100255602Y-82294172D01*
X100255609Y-82294184D01*
X100318602Y-82388459D01*
X100339480Y-82455136D01*
X100339500Y-82457350D01*
X100339500Y-100835899D01*
X100319815Y-100902938D01*
X100267011Y-100948693D01*
X100197853Y-100958637D01*
X100146610Y-100939002D01*
X100074183Y-100890608D01*
X100074172Y-100890602D01*
X99928501Y-100830264D01*
X99928489Y-100830261D01*
X99773845Y-100799500D01*
X99773842Y-100799500D01*
X99616158Y-100799500D01*
X99616155Y-100799500D01*
X99461510Y-100830261D01*
X99461498Y-100830264D01*
X99315827Y-100890602D01*
X99315816Y-100890608D01*
X99243390Y-100939002D01*
X99176713Y-100959879D01*
X99109333Y-100941394D01*
X99062643Y-100889415D01*
X99050500Y-100835899D01*
X99050500Y-80552350D01*
X99070185Y-80485311D01*
X99071398Y-80483459D01*
X99071809Y-80482843D01*
X99134394Y-80389179D01*
X99194737Y-80243497D01*
X99225500Y-80088842D01*
X99225500Y-79931158D01*
X99225500Y-79931155D01*
X99225499Y-79931153D01*
X99224675Y-79927007D01*
X99194738Y-79776510D01*
X99194737Y-79776503D01*
X99165313Y-79705466D01*
X99134397Y-79630827D01*
X99134390Y-79630814D01*
X99046789Y-79499711D01*
X99046786Y-79499707D01*
X98935292Y-79388213D01*
X98935288Y-79388210D01*
X98804185Y-79300609D01*
X98804172Y-79300602D01*
X98658501Y-79240264D01*
X98658489Y-79240261D01*
X98503845Y-79209500D01*
X98503842Y-79209500D01*
X98346158Y-79209500D01*
X98346155Y-79209500D01*
X98191510Y-79240261D01*
X98191498Y-79240264D01*
X98045827Y-79300602D01*
X98045814Y-79300609D01*
X97914711Y-79388210D01*
X97914707Y-79388213D01*
X97803213Y-79499707D01*
X97803210Y-79499711D01*
X97715609Y-79630814D01*
X97715602Y-79630827D01*
X97655264Y-79776498D01*
X97655261Y-79776510D01*
X97624500Y-79931153D01*
X97624500Y-80088846D01*
X97655261Y-80243489D01*
X97655264Y-80243501D01*
X97715602Y-80389172D01*
X97715609Y-80389184D01*
X97778602Y-80483459D01*
X97799480Y-80550136D01*
X97799500Y-80552350D01*
X97799500Y-103375899D01*
X97779815Y-103442938D01*
X97727011Y-103488693D01*
X97657853Y-103498637D01*
X97606610Y-103479002D01*
X97534183Y-103430608D01*
X97534172Y-103430602D01*
X97388501Y-103370264D01*
X97388489Y-103370261D01*
X97233845Y-103339500D01*
X97233842Y-103339500D01*
X97076158Y-103339500D01*
X97076155Y-103339500D01*
X96921510Y-103370261D01*
X96921498Y-103370264D01*
X96775827Y-103430602D01*
X96775816Y-103430608D01*
X96703390Y-103479002D01*
X96636713Y-103499879D01*
X96569333Y-103481394D01*
X96522643Y-103429415D01*
X96510500Y-103375899D01*
X96510500Y-84362350D01*
X96530185Y-84295311D01*
X96531398Y-84293459D01*
X96531809Y-84292843D01*
X96594394Y-84199179D01*
X96654737Y-84053497D01*
X96685500Y-83898842D01*
X96685500Y-83741158D01*
X96685500Y-83741155D01*
X96685499Y-83741153D01*
X96669811Y-83662284D01*
X96654737Y-83586503D01*
X96654735Y-83586498D01*
X96594397Y-83440827D01*
X96594390Y-83440814D01*
X96506789Y-83309711D01*
X96506786Y-83309707D01*
X96395292Y-83198213D01*
X96395288Y-83198210D01*
X96264185Y-83110609D01*
X96264172Y-83110602D01*
X96118501Y-83050264D01*
X96118489Y-83050261D01*
X95963845Y-83019500D01*
X95963842Y-83019500D01*
X95806158Y-83019500D01*
X95806155Y-83019500D01*
X95651510Y-83050261D01*
X95651498Y-83050264D01*
X95505827Y-83110602D01*
X95505814Y-83110609D01*
X95374711Y-83198210D01*
X95374707Y-83198213D01*
X95263213Y-83309707D01*
X95263210Y-83309711D01*
X95175609Y-83440814D01*
X95175602Y-83440827D01*
X95115264Y-83586498D01*
X95115261Y-83586510D01*
X95084500Y-83741153D01*
X95084500Y-83898846D01*
X95115261Y-84053489D01*
X95115264Y-84053501D01*
X95175602Y-84199172D01*
X95175609Y-84199184D01*
X95238602Y-84293459D01*
X95259480Y-84360136D01*
X95259500Y-84362350D01*
X95259500Y-105915899D01*
X95239815Y-105982938D01*
X95187011Y-106028693D01*
X95117853Y-106038637D01*
X95066610Y-106019002D01*
X94994183Y-105970608D01*
X94994172Y-105970602D01*
X94848501Y-105910264D01*
X94848489Y-105910261D01*
X94693845Y-105879500D01*
X94693842Y-105879500D01*
X94536158Y-105879500D01*
X94536155Y-105879500D01*
X94381510Y-105910261D01*
X94381498Y-105910264D01*
X94235952Y-105970551D01*
X94166483Y-105978020D01*
X94104004Y-105946744D01*
X94068352Y-105886655D01*
X94064500Y-105855990D01*
X94064500Y-86902350D01*
X94084185Y-86835311D01*
X94085398Y-86833459D01*
X94085809Y-86832843D01*
X94148394Y-86739179D01*
X94208737Y-86593497D01*
X94239500Y-86438842D01*
X94239500Y-86281158D01*
X94239500Y-86281155D01*
X94239499Y-86281153D01*
X94230370Y-86235261D01*
X94208737Y-86126503D01*
X94208735Y-86126498D01*
X94148397Y-85980827D01*
X94148390Y-85980814D01*
X94060789Y-85849711D01*
X94060786Y-85849707D01*
X93949292Y-85738213D01*
X93949288Y-85738210D01*
X93818185Y-85650609D01*
X93818172Y-85650602D01*
X93672501Y-85590264D01*
X93672489Y-85590261D01*
X93517845Y-85559500D01*
X93517842Y-85559500D01*
X93360158Y-85559500D01*
X93360155Y-85559500D01*
X93205510Y-85590261D01*
X93205498Y-85590264D01*
X93059827Y-85650602D01*
X93059814Y-85650609D01*
X92928711Y-85738210D01*
X92928707Y-85738213D01*
X92817213Y-85849707D01*
X92817210Y-85849711D01*
X92729609Y-85980814D01*
X92729602Y-85980827D01*
X92669264Y-86126498D01*
X92669261Y-86126510D01*
X92638500Y-86281153D01*
X92638500Y-86438846D01*
X92669261Y-86593489D01*
X92669264Y-86593501D01*
X92729602Y-86739172D01*
X92729609Y-86739184D01*
X92792602Y-86833459D01*
X92813480Y-86900136D01*
X92813500Y-86902350D01*
X92813500Y-108527059D01*
X92793815Y-108594098D01*
X92741011Y-108639853D01*
X92671853Y-108649797D01*
X92608297Y-108620772D01*
X92601819Y-108614740D01*
X92585292Y-108598213D01*
X92585288Y-108598210D01*
X92454185Y-108510609D01*
X92454172Y-108510602D01*
X92308501Y-108450264D01*
X92308489Y-108450261D01*
X92153845Y-108419500D01*
X92153842Y-108419500D01*
X91996158Y-108419500D01*
X91996155Y-108419500D01*
X91841510Y-108450261D01*
X91841498Y-108450264D01*
X91695827Y-108510602D01*
X91695816Y-108510608D01*
X91623390Y-108559002D01*
X91556713Y-108579879D01*
X91489333Y-108561394D01*
X91442643Y-108509415D01*
X91430500Y-108455899D01*
X91430500Y-89442350D01*
X91450185Y-89375311D01*
X91451398Y-89373459D01*
X91451809Y-89372843D01*
X91514394Y-89279179D01*
X91574737Y-89133497D01*
X91605500Y-88978842D01*
X91605500Y-88821158D01*
X91605500Y-88821155D01*
X91605499Y-88821153D01*
X91589811Y-88742284D01*
X91574737Y-88666503D01*
X91574735Y-88666498D01*
X91514397Y-88520827D01*
X91514390Y-88520814D01*
X91426789Y-88389711D01*
X91426786Y-88389707D01*
X91315292Y-88278213D01*
X91315288Y-88278210D01*
X91184185Y-88190609D01*
X91184172Y-88190602D01*
X91038501Y-88130264D01*
X91038489Y-88130261D01*
X90883845Y-88099500D01*
X90883842Y-88099500D01*
X90726158Y-88099500D01*
X90726155Y-88099500D01*
X90571510Y-88130261D01*
X90571498Y-88130264D01*
X90425827Y-88190602D01*
X90425814Y-88190609D01*
X90294711Y-88278210D01*
X90294707Y-88278213D01*
X90183213Y-88389707D01*
X90183210Y-88389711D01*
X90095609Y-88520814D01*
X90095602Y-88520827D01*
X90035264Y-88666498D01*
X90035261Y-88666510D01*
X90004500Y-88821153D01*
X90004500Y-88978846D01*
X90035261Y-89133489D01*
X90035264Y-89133501D01*
X90095602Y-89279172D01*
X90095609Y-89279184D01*
X90158602Y-89373459D01*
X90179480Y-89440136D01*
X90179500Y-89442350D01*
X90179500Y-110995899D01*
X90159815Y-111062938D01*
X90107011Y-111108693D01*
X90037853Y-111118637D01*
X89986610Y-111099002D01*
X89914183Y-111050608D01*
X89914172Y-111050602D01*
X89768501Y-110990264D01*
X89768489Y-110990261D01*
X89613845Y-110959500D01*
X89613842Y-110959500D01*
X89456158Y-110959500D01*
X89456155Y-110959500D01*
X89301510Y-110990261D01*
X89301498Y-110990264D01*
X89155827Y-111050602D01*
X89155814Y-111050609D01*
X89024711Y-111138210D01*
X89024707Y-111138213D01*
X88913213Y-111249707D01*
X88913210Y-111249711D01*
X88825609Y-111380814D01*
X88825602Y-111380827D01*
X88765264Y-111526498D01*
X88765261Y-111526510D01*
X88734500Y-111681153D01*
X88734500Y-111838846D01*
X88765261Y-111993489D01*
X88765264Y-111993501D01*
X88825602Y-112139172D01*
X88825609Y-112139184D01*
X88888602Y-112233459D01*
X88909480Y-112300136D01*
X88909500Y-112302350D01*
X88909500Y-149947019D01*
X88889815Y-150014058D01*
X88841797Y-150057503D01*
X88827180Y-150064950D01*
X88655213Y-150189890D01*
X88504894Y-150340209D01*
X88479818Y-150374724D01*
X88424487Y-150417389D01*
X88354874Y-150423368D01*
X88293079Y-150390762D01*
X88258722Y-150329923D01*
X88255500Y-150301838D01*
X88255500Y-91982350D01*
X88275185Y-91915311D01*
X88276398Y-91913459D01*
X88276809Y-91912843D01*
X88339394Y-91819179D01*
X88399737Y-91673497D01*
X88430500Y-91518842D01*
X88430500Y-91361158D01*
X88430500Y-91361155D01*
X88430499Y-91361153D01*
X88414811Y-91282284D01*
X88399737Y-91206503D01*
X88399735Y-91206498D01*
X88339397Y-91060827D01*
X88339390Y-91060814D01*
X88251789Y-90929711D01*
X88251786Y-90929707D01*
X88140292Y-90818213D01*
X88140288Y-90818210D01*
X88009185Y-90730609D01*
X88009172Y-90730602D01*
X87863501Y-90670264D01*
X87863489Y-90670261D01*
X87708845Y-90639500D01*
X87708842Y-90639500D01*
X87551158Y-90639500D01*
X87551155Y-90639500D01*
X87396510Y-90670261D01*
X87396498Y-90670264D01*
X87250827Y-90730602D01*
X87250814Y-90730609D01*
X87119711Y-90818210D01*
X87119707Y-90818213D01*
X87008213Y-90929707D01*
X87008210Y-90929711D01*
X86920609Y-91060814D01*
X86920602Y-91060827D01*
X86860264Y-91206498D01*
X86860261Y-91206510D01*
X86829500Y-91361153D01*
X64000500Y-91361153D01*
X64000500Y-59044500D01*
X64020185Y-58977461D01*
X64072989Y-58931706D01*
X64124500Y-58920500D01*
X162570500Y-58920500D01*
X162637539Y-58940185D01*
G37*
%TD.AperFunction*%
%TD*%
D19*
X107315000Y-93980000D03*
X114935000Y-117475000D03*
X103505000Y-84455000D03*
X102235000Y-99060000D03*
X99695000Y-101600000D03*
X94615000Y-106680000D03*
X113665000Y-94625000D03*
X122555000Y-128270000D03*
X89535000Y-111760000D03*
X116205000Y-97165000D03*
X109855000Y-114300000D03*
X98425000Y-80010000D03*
X90805000Y-88900000D03*
X126365000Y-107315000D03*
X104775000Y-96520000D03*
X108585000Y-89535000D03*
X95885000Y-83820000D03*
X100965000Y-81915000D03*
X120015000Y-115570000D03*
X118745000Y-99705000D03*
X92075000Y-109220000D03*
X123825000Y-104775000D03*
X117475000Y-120650000D03*
X97155000Y-104140000D03*
X106045000Y-87005000D03*
X87630000Y-91440000D03*
X93439000Y-86360000D03*
X121285000Y-102245000D03*
X111125000Y-92075000D03*
X156000000Y-151000000D03*
X70000000Y-151000000D03*
X151000000Y-151000000D03*
X70000000Y-65000000D03*
X156000000Y-65000000D03*
X145000000Y-137000000D03*
D20*
X153670000Y-128270000D03*
X153670000Y-125730000D03*
X153670000Y-123190000D03*
X153670000Y-120650000D03*
X153670000Y-118110000D03*
X153670000Y-115570000D03*
X153670000Y-113030000D03*
X153670000Y-110490000D03*
X153670000Y-107950000D03*
X153670000Y-105410000D03*
X153670000Y-102870000D03*
X153670000Y-100330000D03*
X153670000Y-97790000D03*
X153670000Y-95250000D03*
X153670000Y-92710000D03*
X153670000Y-90170000D03*
X153670000Y-87630000D03*
X153670000Y-85090000D03*
X153670000Y-82550000D03*
X153670000Y-80010000D03*
X138430000Y-80010000D03*
X138430000Y-82550000D03*
X138430000Y-85090000D03*
X138430000Y-87630000D03*
X138430000Y-90170000D03*
X138430000Y-92710000D03*
X138430000Y-95250000D03*
X138430000Y-97790000D03*
X138430000Y-100330000D03*
X138430000Y-102870000D03*
X138430000Y-105410000D03*
X138430000Y-107950000D03*
X138430000Y-110490000D03*
X138430000Y-113030000D03*
X138430000Y-115570000D03*
X138430000Y-118110000D03*
X138430000Y-120650000D03*
X138430000Y-123190000D03*
X138430000Y-125730000D03*
X138430000Y-128270000D03*
X135205000Y-123190000D03*
X132665000Y-123190000D03*
X135255000Y-128270000D03*
X132715000Y-128270000D03*
X137715000Y-146685000D03*
X132715000Y-146685000D03*
X137795000Y-153760000D03*
X135255000Y-153760000D03*
X132715000Y-153760000D03*
X130175000Y-153760000D03*
X127635000Y-153760000D03*
X125095000Y-153760000D03*
X122555000Y-153760000D03*
X120015000Y-153760000D03*
X117475000Y-153760000D03*
X114935000Y-153760000D03*
X112395000Y-153760000D03*
X109855000Y-153760000D03*
X107315000Y-153760000D03*
X104775000Y-153760000D03*
X102235000Y-153760000D03*
X99695000Y-153760000D03*
X97155000Y-153760000D03*
X94615000Y-153760000D03*
X92075000Y-153760000D03*
X89535000Y-153760000D03*
X89535000Y-151220000D03*
X92075000Y-151220000D03*
X94615000Y-151220000D03*
X97155000Y-151220000D03*
X99695000Y-151220000D03*
X102235000Y-151220000D03*
X104775000Y-151220000D03*
X107315000Y-151220000D03*
X109855000Y-151220000D03*
X112395000Y-151220000D03*
X114935000Y-151220000D03*
X117475000Y-151220000D03*
X120015000Y-151220000D03*
X122555000Y-151220000D03*
X125095000Y-151220000D03*
X127635000Y-151220000D03*
X130175000Y-151220000D03*
X132715000Y-151220000D03*
X135255000Y-151220000D03*
X137795000Y-151220000D03*
X156845000Y-115570000D03*
X159385000Y-115570000D03*
X156845000Y-120650000D03*
X159385000Y-120650000D03*
X156845000Y-125730000D03*
X159385000Y-125730000D03*
X156845000Y-110490000D03*
X161845000Y-110490000D03*
X135255000Y-118110000D03*
X132715000Y-118110000D03*
M02*
