%TF.GenerationSoftware,KiCad,Pcbnew,9.0.2+dfsg-1*%
%TF.CreationDate,2026-09-04T20:34:33+02:00*%
%TF.ProjectId,wallputer-backplane-card,77616c6c-7075-4746-9572-2d6261636b70,rev?*%
%TF.SameCoordinates,Original*%
%TF.FileFunction,Legend,Top*%
%TF.FilePolarity,Positive*%
%FSLAX46Y46*%
G04 Gerber Fmt 4.6, Leading zero omitted, Abs format (unit mm)*
G04 Created by KiCad (PCBNEW 9.0.2+dfsg-1) date 2026-09-04 20:34:33*
%MOMM*%
%LPD*%
G01*
G04 APERTURE LIST*
%ADD10C,0.500000*%
%ADD11C,0.150000*%
G04 APERTURE END LIST*
D10*
X43014286Y-147761142D02*
X42871429Y-147904000D01*
X42871429Y-147904000D02*
X42442857Y-148046857D01*
X42442857Y-148046857D02*
X42157143Y-148046857D01*
X42157143Y-148046857D02*
X41728572Y-147904000D01*
X41728572Y-147904000D02*
X41442857Y-147618285D01*
X41442857Y-147618285D02*
X41300000Y-147332571D01*
X41300000Y-147332571D02*
X41157143Y-146761142D01*
X41157143Y-146761142D02*
X41157143Y-146332571D01*
X41157143Y-146332571D02*
X41300000Y-145761142D01*
X41300000Y-145761142D02*
X41442857Y-145475428D01*
X41442857Y-145475428D02*
X41728572Y-145189714D01*
X41728572Y-145189714D02*
X42157143Y-145046857D01*
X42157143Y-145046857D02*
X42442857Y-145046857D01*
X42442857Y-145046857D02*
X42871429Y-145189714D01*
X42871429Y-145189714D02*
X43014286Y-145332571D01*
X44871429Y-145046857D02*
X45442857Y-145046857D01*
X45442857Y-145046857D02*
X45728572Y-145189714D01*
X45728572Y-145189714D02*
X46014286Y-145475428D01*
X46014286Y-145475428D02*
X46157143Y-146046857D01*
X46157143Y-146046857D02*
X46157143Y-147046857D01*
X46157143Y-147046857D02*
X46014286Y-147618285D01*
X46014286Y-147618285D02*
X45728572Y-147904000D01*
X45728572Y-147904000D02*
X45442857Y-148046857D01*
X45442857Y-148046857D02*
X44871429Y-148046857D01*
X44871429Y-148046857D02*
X44585715Y-147904000D01*
X44585715Y-147904000D02*
X44300000Y-147618285D01*
X44300000Y-147618285D02*
X44157143Y-147046857D01*
X44157143Y-147046857D02*
X44157143Y-146046857D01*
X44157143Y-146046857D02*
X44300000Y-145475428D01*
X44300000Y-145475428D02*
X44585715Y-145189714D01*
X44585715Y-145189714D02*
X44871429Y-145046857D01*
X47442857Y-148046857D02*
X47442857Y-145046857D01*
X47442857Y-145046857D02*
X49157143Y-148046857D01*
X49157143Y-148046857D02*
X49157143Y-145046857D01*
X50585714Y-148046857D02*
X50585714Y-145046857D01*
X50585714Y-145046857D02*
X52300000Y-148046857D01*
X52300000Y-148046857D02*
X52300000Y-145046857D01*
X53728571Y-146475428D02*
X54728571Y-146475428D01*
X55157143Y-148046857D02*
X53728571Y-148046857D01*
X53728571Y-148046857D02*
X53728571Y-145046857D01*
X53728571Y-145046857D02*
X55157143Y-145046857D01*
X58157143Y-147761142D02*
X58014286Y-147904000D01*
X58014286Y-147904000D02*
X57585714Y-148046857D01*
X57585714Y-148046857D02*
X57300000Y-148046857D01*
X57300000Y-148046857D02*
X56871429Y-147904000D01*
X56871429Y-147904000D02*
X56585714Y-147618285D01*
X56585714Y-147618285D02*
X56442857Y-147332571D01*
X56442857Y-147332571D02*
X56300000Y-146761142D01*
X56300000Y-146761142D02*
X56300000Y-146332571D01*
X56300000Y-146332571D02*
X56442857Y-145761142D01*
X56442857Y-145761142D02*
X56585714Y-145475428D01*
X56585714Y-145475428D02*
X56871429Y-145189714D01*
X56871429Y-145189714D02*
X57300000Y-145046857D01*
X57300000Y-145046857D02*
X57585714Y-145046857D01*
X57585714Y-145046857D02*
X58014286Y-145189714D01*
X58014286Y-145189714D02*
X58157143Y-145332571D01*
X59014286Y-145046857D02*
X60728572Y-145046857D01*
X59871429Y-148046857D02*
X59871429Y-145046857D01*
X123007857Y-147761142D02*
X122865000Y-147904000D01*
X122865000Y-147904000D02*
X122436428Y-148046857D01*
X122436428Y-148046857D02*
X122150714Y-148046857D01*
X122150714Y-148046857D02*
X121722143Y-147904000D01*
X121722143Y-147904000D02*
X121436428Y-147618285D01*
X121436428Y-147618285D02*
X121293571Y-147332571D01*
X121293571Y-147332571D02*
X121150714Y-146761142D01*
X121150714Y-146761142D02*
X121150714Y-146332571D01*
X121150714Y-146332571D02*
X121293571Y-145761142D01*
X121293571Y-145761142D02*
X121436428Y-145475428D01*
X121436428Y-145475428D02*
X121722143Y-145189714D01*
X121722143Y-145189714D02*
X122150714Y-145046857D01*
X122150714Y-145046857D02*
X122436428Y-145046857D01*
X122436428Y-145046857D02*
X122865000Y-145189714D01*
X122865000Y-145189714D02*
X123007857Y-145332571D01*
X124150714Y-147189714D02*
X125579286Y-147189714D01*
X123865000Y-148046857D02*
X124865000Y-145046857D01*
X124865000Y-145046857D02*
X125865000Y-148046857D01*
X128579286Y-148046857D02*
X127579286Y-146618285D01*
X126865000Y-148046857D02*
X126865000Y-145046857D01*
X126865000Y-145046857D02*
X128007857Y-145046857D01*
X128007857Y-145046857D02*
X128293572Y-145189714D01*
X128293572Y-145189714D02*
X128436429Y-145332571D01*
X128436429Y-145332571D02*
X128579286Y-145618285D01*
X128579286Y-145618285D02*
X128579286Y-146046857D01*
X128579286Y-146046857D02*
X128436429Y-146332571D01*
X128436429Y-146332571D02*
X128293572Y-146475428D01*
X128293572Y-146475428D02*
X128007857Y-146618285D01*
X128007857Y-146618285D02*
X126865000Y-146618285D01*
X129865000Y-148046857D02*
X129865000Y-145046857D01*
X129865000Y-145046857D02*
X130579286Y-145046857D01*
X130579286Y-145046857D02*
X131007857Y-145189714D01*
X131007857Y-145189714D02*
X131293572Y-145475428D01*
X131293572Y-145475428D02*
X131436429Y-145761142D01*
X131436429Y-145761142D02*
X131579286Y-146332571D01*
X131579286Y-146332571D02*
X131579286Y-146761142D01*
X131579286Y-146761142D02*
X131436429Y-147332571D01*
X131436429Y-147332571D02*
X131293572Y-147618285D01*
X131293572Y-147618285D02*
X131007857Y-147904000D01*
X131007857Y-147904000D02*
X130579286Y-148046857D01*
X130579286Y-148046857D02*
X129865000Y-148046857D01*
D11*
X39671666Y-127089819D02*
X39671666Y-127804104D01*
X39671666Y-127804104D02*
X39624047Y-127946961D01*
X39624047Y-127946961D02*
X39528809Y-128042200D01*
X39528809Y-128042200D02*
X39385952Y-128089819D01*
X39385952Y-128089819D02*
X39290714Y-128089819D01*
X40671666Y-128089819D02*
X40100238Y-128089819D01*
X40385952Y-128089819D02*
X40385952Y-127089819D01*
X40385952Y-127089819D02*
X40290714Y-127232676D01*
X40290714Y-127232676D02*
X40195476Y-127327914D01*
X40195476Y-127327914D02*
X40100238Y-127375533D01*
X115024819Y-52948333D02*
X115739104Y-52948333D01*
X115739104Y-52948333D02*
X115881961Y-52995952D01*
X115881961Y-52995952D02*
X115977200Y-53091190D01*
X115977200Y-53091190D02*
X116024819Y-53234047D01*
X116024819Y-53234047D02*
X116024819Y-53329285D01*
X115120057Y-52519761D02*
X115072438Y-52472142D01*
X115072438Y-52472142D02*
X115024819Y-52376904D01*
X115024819Y-52376904D02*
X115024819Y-52138809D01*
X115024819Y-52138809D02*
X115072438Y-52043571D01*
X115072438Y-52043571D02*
X115120057Y-51995952D01*
X115120057Y-51995952D02*
X115215295Y-51948333D01*
X115215295Y-51948333D02*
X115310533Y-51948333D01*
X115310533Y-51948333D02*
X115453390Y-51995952D01*
X115453390Y-51995952D02*
X116024819Y-52567380D01*
X116024819Y-52567380D02*
X116024819Y-51948333D01*
X136826666Y-127089819D02*
X136826666Y-127804104D01*
X136826666Y-127804104D02*
X136779047Y-127946961D01*
X136779047Y-127946961D02*
X136683809Y-128042200D01*
X136683809Y-128042200D02*
X136540952Y-128089819D01*
X136540952Y-128089819D02*
X136445714Y-128089819D01*
X137731428Y-127423152D02*
X137731428Y-128089819D01*
X137493333Y-127042200D02*
X137255238Y-127756485D01*
X137255238Y-127756485D02*
X137874285Y-127756485D01*
X61049819Y-149558333D02*
X61764104Y-149558333D01*
X61764104Y-149558333D02*
X61906961Y-149605952D01*
X61906961Y-149605952D02*
X62002200Y-149701190D01*
X62002200Y-149701190D02*
X62049819Y-149844047D01*
X62049819Y-149844047D02*
X62049819Y-149939285D01*
X61049819Y-149177380D02*
X61049819Y-148558333D01*
X61049819Y-148558333D02*
X61430771Y-148891666D01*
X61430771Y-148891666D02*
X61430771Y-148748809D01*
X61430771Y-148748809D02*
X61478390Y-148653571D01*
X61478390Y-148653571D02*
X61526009Y-148605952D01*
X61526009Y-148605952D02*
X61621247Y-148558333D01*
X61621247Y-148558333D02*
X61859342Y-148558333D01*
X61859342Y-148558333D02*
X61954580Y-148605952D01*
X61954580Y-148605952D02*
X62002200Y-148653571D01*
X62002200Y-148653571D02*
X62049819Y-148748809D01*
X62049819Y-148748809D02*
X62049819Y-149034523D01*
X62049819Y-149034523D02*
X62002200Y-149129761D01*
X62002200Y-149129761D02*
X61954580Y-149177380D01*
M02*
