%TF.GenerationSoftware,KiCad,Pcbnew,9.0.2+dfsg-1*%
%TF.CreationDate,2026-09-04T21:04:22+02:00*%
%TF.ProjectId,wallputer-backplane-card,77616c6c-7075-4746-9572-2d6261636b70,rev?*%
%TF.SameCoordinates,Original*%
%TF.FileFunction,Copper,L2,Bot*%
%TF.FilePolarity,Positive*%
%FSLAX46Y46*%
G04 Gerber Fmt 4.6, Leading zero omitted, Abs format (unit mm)*
G04 Created by KiCad (PCBNEW 9.0.2+dfsg-1) date 2026-09-04 21:04:22*
%MOMM*%
%LPD*%
G01*
G04 APERTURE LIST*
%TA.AperFunction,ComponentPad*%
%ADD10C,1.700000*%
%TD*%
%TA.AperFunction,ComponentPad*%
%ADD11R,1.700000X1.700000*%
%TD*%
%TA.AperFunction,ViaPad*%
%ADD12C,0.600000*%
%TD*%
%TA.AperFunction,ViaPad*%
%ADD13C,1.500000*%
%TD*%
%TA.AperFunction,Conductor*%
%ADD14C,0.250000*%
%TD*%
%TA.AperFunction,Conductor*%
%ADD15C,1.000000*%
%TD*%
G04 APERTURE END LIST*
D10*
%TO.P,J1,1,Vss*%
%TO.N,/Vss*%
X40640000Y-125095000D03*
%TO.P,J1,2,NC*%
%TO.N,/NC2*%
X40640000Y-122555000D03*
%TO.P,J1,3,NC*%
%TO.N,/NC3*%
X40640000Y-120015000D03*
%TO.P,J1,4,+5V*%
%TO.N,/+5V*%
X40640000Y-117475000D03*
%TO.P,J1,5,A0*%
%TO.N,/A0*%
X40640000Y-114935000D03*
%TO.P,J1,6,A1*%
%TO.N,/A1*%
X40640000Y-112395000D03*
%TO.P,J1,7,A2*%
%TO.N,/A2*%
X40640000Y-109855000D03*
%TO.P,J1,8,A3*%
%TO.N,/A3*%
X40640000Y-107315000D03*
%TO.P,J1,9,A4*%
%TO.N,/A4*%
X40640000Y-104775000D03*
%TO.P,J1,10,A5*%
%TO.N,/A5*%
X40640000Y-102235000D03*
%TO.P,J1,11,A6*%
%TO.N,/A6*%
X40640000Y-99695000D03*
%TO.P,J1,12,A7*%
%TO.N,/A7*%
X40640000Y-97155000D03*
%TO.P,J1,13,A8*%
%TO.N,/A8*%
X40640000Y-94615000D03*
%TO.P,J1,14,A9*%
%TO.N,/A9*%
X40640000Y-92075000D03*
%TO.P,J1,15,A10*%
%TO.N,/A10*%
X40640000Y-89535000D03*
%TO.P,J1,16,A11*%
%TO.N,/A11*%
X40640000Y-86995000D03*
%TO.P,J1,17,A12*%
%TO.N,/A12*%
X40640000Y-84455000D03*
%TO.P,J1,18,A13*%
%TO.N,/A13*%
X40640000Y-81915000D03*
%TO.P,J1,19,A14*%
%TO.N,/A14*%
X40640000Y-79375000D03*
%TO.P,J1,20,A15*%
%TO.N,/A15*%
X40640000Y-76835000D03*
%TO.P,J1,21,D0*%
%TO.N,/D0*%
X43180000Y-76835000D03*
%TO.P,J1,22,D1*%
%TO.N,/D1*%
X43180000Y-79375000D03*
%TO.P,J1,23,D2*%
%TO.N,/D2*%
X43180000Y-81915000D03*
%TO.P,J1,24,D3*%
%TO.N,/D3*%
X43180000Y-84455000D03*
%TO.P,J1,25,D4*%
%TO.N,/D4*%
X43180000Y-86995000D03*
%TO.P,J1,26,D5*%
%TO.N,/D5*%
X43180000Y-89535000D03*
%TO.P,J1,27,D6*%
%TO.N,/D6*%
X43180000Y-92075000D03*
%TO.P,J1,28,D7*%
%TO.N,/D7*%
X43180000Y-94615000D03*
%TO.P,J1,29,RW/*%
%TO.N,/RW{slash}*%
X43180000Y-97155000D03*
%TO.P,J1,30,NC*%
%TO.N,/NC30*%
X43180000Y-99695000D03*
%TO.P,J1,31,BE*%
%TO.N,/BE*%
X43180000Y-102235000D03*
%TO.P,J1,32,IRQ*%
%TO.N,/IRQ*%
X43180000Y-104775000D03*
%TO.P,J1,33,NMI*%
%TO.N,/NMI*%
X43180000Y-107315000D03*
%TO.P,J1,34,RES*%
%TO.N,/RES*%
X43180000Y-109855000D03*
%TO.P,J1,35,CS/*%
%TO.N,/CS{slash}*%
X43180000Y-112395000D03*
%TO.P,J1,36,NC*%
%TO.N,/NC36*%
X43180000Y-114935000D03*
%TO.P,J1,37,+5V*%
%TO.N,/+5V*%
X43180000Y-117475000D03*
%TO.P,J1,38,NC*%
%TO.N,/NC38*%
X43180000Y-120015000D03*
%TO.P,J1,39,CLK*%
%TO.N,/CLK*%
X43180000Y-122555000D03*
D11*
%TO.P,J1,40,Vss*%
%TO.N,/Vss*%
X43180000Y-125095000D03*
%TD*%
D10*
%TO.P,J2,1,Vss*%
%TO.N,/Vss*%
X113030000Y-52615000D03*
%TO.P,J2,2,NC*%
%TO.N,/NC2*%
X110490000Y-52615000D03*
%TO.P,J2,3,NC*%
%TO.N,/NC3*%
X107950000Y-52615000D03*
%TO.P,J2,4,+5V*%
%TO.N,/+5V*%
X105410000Y-52615000D03*
%TO.P,J2,5,A0*%
%TO.N,/A0*%
X102870000Y-52615000D03*
%TO.P,J2,6,A1*%
%TO.N,/A1*%
X100330000Y-52615000D03*
%TO.P,J2,7,A2*%
%TO.N,/A2*%
X97790000Y-52615000D03*
%TO.P,J2,8,A3*%
%TO.N,/A3*%
X95250000Y-52615000D03*
%TO.P,J2,9,A4*%
%TO.N,/A4*%
X92710000Y-52615000D03*
%TO.P,J2,10,A5*%
%TO.N,/A5*%
X90170000Y-52615000D03*
%TO.P,J2,11,A6*%
%TO.N,/A6*%
X87630000Y-52615000D03*
%TO.P,J2,12,A7*%
%TO.N,/A7*%
X85090000Y-52615000D03*
%TO.P,J2,13,A8*%
%TO.N,/A8*%
X82550000Y-52615000D03*
%TO.P,J2,14,A9*%
%TO.N,/A9*%
X80010000Y-52615000D03*
%TO.P,J2,15,A10*%
%TO.N,/A10*%
X77470000Y-52615000D03*
%TO.P,J2,16,A11*%
%TO.N,/A11*%
X74930000Y-52615000D03*
%TO.P,J2,17,A12*%
%TO.N,/A12*%
X72390000Y-52615000D03*
%TO.P,J2,18,A13*%
%TO.N,/A13*%
X69850000Y-52615000D03*
%TO.P,J2,19,A14*%
%TO.N,/A14*%
X67310000Y-52615000D03*
%TO.P,J2,20,A15*%
%TO.N,/A15*%
X64770000Y-52615000D03*
%TO.P,J2,21,D0*%
%TO.N,/D0*%
X64770000Y-55155000D03*
%TO.P,J2,22,D1*%
%TO.N,/D1*%
X67310000Y-55155000D03*
%TO.P,J2,23,D2*%
%TO.N,/D2*%
X69850000Y-55155000D03*
%TO.P,J2,24,D3*%
%TO.N,/D3*%
X72390000Y-55155000D03*
%TO.P,J2,25,D4*%
%TO.N,/D4*%
X74930000Y-55155000D03*
%TO.P,J2,26,D5*%
%TO.N,/D5*%
X77470000Y-55155000D03*
%TO.P,J2,27,D6*%
%TO.N,/D6*%
X80010000Y-55155000D03*
%TO.P,J2,28,D7*%
%TO.N,/D7*%
X82550000Y-55155000D03*
%TO.P,J2,29,RW/*%
%TO.N,/RW{slash}*%
X85090000Y-55155000D03*
%TO.P,J2,30,NC*%
%TO.N,/NC30*%
X87630000Y-55155000D03*
%TO.P,J2,31,BE*%
%TO.N,/BE*%
X90170000Y-55155000D03*
%TO.P,J2,32,IRQ*%
%TO.N,/IRQ*%
X92710000Y-55155000D03*
%TO.P,J2,33,NMI*%
%TO.N,/NMI*%
X95250000Y-55155000D03*
%TO.P,J2,34,RES*%
%TO.N,/RES*%
X97790000Y-55155000D03*
%TO.P,J2,35,CS/*%
%TO.N,/CS{slash}*%
X100330000Y-55155000D03*
%TO.P,J2,36,NC*%
%TO.N,/NC36*%
X102870000Y-55155000D03*
%TO.P,J2,37,+5V*%
%TO.N,/+5V*%
X105410000Y-55155000D03*
%TO.P,J2,38,NC*%
%TO.N,/NC38*%
X107950000Y-55155000D03*
%TO.P,J2,39,CLK*%
%TO.N,/CLK*%
X110490000Y-55155000D03*
D11*
%TO.P,J2,40,Vss*%
%TO.N,/Vss*%
X113030000Y-55155000D03*
%TD*%
D10*
%TO.P,J4,1,Vss*%
%TO.N,/Vss*%
X136525000Y-125095000D03*
%TO.P,J4,2,NC*%
%TO.N,/NC2*%
X136525000Y-122555000D03*
%TO.P,J4,3,NC*%
%TO.N,/NC3*%
X136525000Y-120015000D03*
%TO.P,J4,4,+5V*%
%TO.N,/+5V*%
X136525000Y-117475000D03*
%TO.P,J4,5,A0*%
%TO.N,/A0*%
X136525000Y-114935000D03*
%TO.P,J4,6,A1*%
%TO.N,/A1*%
X136525000Y-112395000D03*
%TO.P,J4,7,A2*%
%TO.N,/A2*%
X136525000Y-109855000D03*
%TO.P,J4,8,A3*%
%TO.N,/A3*%
X136525000Y-107315000D03*
%TO.P,J4,9,A4*%
%TO.N,/A4*%
X136525000Y-104775000D03*
%TO.P,J4,10,A5*%
%TO.N,/A5*%
X136525000Y-102235000D03*
%TO.P,J4,11,A6*%
%TO.N,/A6*%
X136525000Y-99695000D03*
%TO.P,J4,12,A7*%
%TO.N,/A7*%
X136525000Y-97155000D03*
%TO.P,J4,13,A8*%
%TO.N,/A8*%
X136525000Y-94615000D03*
%TO.P,J4,14,A9*%
%TO.N,/A9*%
X136525000Y-92075000D03*
%TO.P,J4,15,A10*%
%TO.N,/A10*%
X136525000Y-89535000D03*
%TO.P,J4,16,A11*%
%TO.N,/A11*%
X136525000Y-86995000D03*
%TO.P,J4,17,A12*%
%TO.N,/A12*%
X136525000Y-84455000D03*
%TO.P,J4,18,A13*%
%TO.N,/A13*%
X136525000Y-81915000D03*
%TO.P,J4,19,A14*%
%TO.N,/A14*%
X136525000Y-79375000D03*
%TO.P,J4,20,A15*%
%TO.N,/A15*%
X136525000Y-76835000D03*
%TO.P,J4,21,D0*%
%TO.N,/D0*%
X133985000Y-76835000D03*
%TO.P,J4,22,D1*%
%TO.N,/D1*%
X133985000Y-79375000D03*
%TO.P,J4,23,D2*%
%TO.N,/D2*%
X133985000Y-81915000D03*
%TO.P,J4,24,D3*%
%TO.N,/D3*%
X133985000Y-84455000D03*
%TO.P,J4,25,D4*%
%TO.N,/D4*%
X133985000Y-86995000D03*
%TO.P,J4,26,D5*%
%TO.N,/D5*%
X133985000Y-89535000D03*
%TO.P,J4,27,D6*%
%TO.N,/D6*%
X133985000Y-92075000D03*
%TO.P,J4,28,D7*%
%TO.N,/D7*%
X133985000Y-94615000D03*
%TO.P,J4,29,RW/*%
%TO.N,/RW{slash}*%
X133985000Y-97155000D03*
%TO.P,J4,30,NC*%
%TO.N,/NC30*%
X133985000Y-99695000D03*
%TO.P,J4,31,BE*%
%TO.N,/BE*%
X133985000Y-102235000D03*
%TO.P,J4,32,IRQ*%
%TO.N,/IRQ*%
X133985000Y-104775000D03*
%TO.P,J4,33,NMI*%
%TO.N,/NMI*%
X133985000Y-107315000D03*
%TO.P,J4,34,RES*%
%TO.N,/RES*%
X133985000Y-109855000D03*
%TO.P,J4,35,CS/*%
%TO.N,/CS{slash}*%
X133985000Y-112395000D03*
%TO.P,J4,36,NC*%
%TO.N,/NC36*%
X133985000Y-114935000D03*
%TO.P,J4,37,+5V*%
%TO.N,/+5V*%
X133985000Y-117475000D03*
%TO.P,J4,38,NC*%
%TO.N,/NC38*%
X133985000Y-120015000D03*
%TO.P,J4,39,CLK*%
%TO.N,/CLK*%
X133985000Y-122555000D03*
D11*
%TO.P,J4,40,Vss*%
%TO.N,/Vss*%
X133985000Y-125095000D03*
%TD*%
D10*
%TO.P,J3,1,Vss*%
%TO.N,/Vss*%
X64135000Y-148590000D03*
%TO.P,J3,2,NC*%
%TO.N,/NC2*%
X66675000Y-148590000D03*
%TO.P,J3,3,NC*%
%TO.N,/NC3*%
X69215000Y-148590000D03*
%TO.P,J3,4,+5V*%
%TO.N,/+5V*%
X71755000Y-148590000D03*
%TO.P,J3,5,A0*%
%TO.N,/A0*%
X74295000Y-148590000D03*
%TO.P,J3,6,A1*%
%TO.N,/A1*%
X76835000Y-148590000D03*
%TO.P,J3,7,A2*%
%TO.N,/A2*%
X79375000Y-148590000D03*
%TO.P,J3,8,A3*%
%TO.N,/A3*%
X81915000Y-148590000D03*
%TO.P,J3,9,A4*%
%TO.N,/A4*%
X84455000Y-148590000D03*
%TO.P,J3,10,A5*%
%TO.N,/A5*%
X86995000Y-148590000D03*
%TO.P,J3,11,A6*%
%TO.N,/A6*%
X89535000Y-148590000D03*
%TO.P,J3,12,A7*%
%TO.N,/A7*%
X92075000Y-148590000D03*
%TO.P,J3,13,A8*%
%TO.N,/A8*%
X94615000Y-148590000D03*
%TO.P,J3,14,A9*%
%TO.N,/A9*%
X97155000Y-148590000D03*
%TO.P,J3,15,A10*%
%TO.N,/A10*%
X99695000Y-148590000D03*
%TO.P,J3,16,A11*%
%TO.N,/A11*%
X102235000Y-148590000D03*
%TO.P,J3,17,A12*%
%TO.N,/A12*%
X104775000Y-148590000D03*
%TO.P,J3,18,A13*%
%TO.N,/A13*%
X107315000Y-148590000D03*
%TO.P,J3,19,A14*%
%TO.N,/A14*%
X109855000Y-148590000D03*
%TO.P,J3,20,A15*%
%TO.N,/A15*%
X112395000Y-148590000D03*
%TO.P,J3,21,D0*%
%TO.N,/D0*%
X112395000Y-146050000D03*
%TO.P,J3,22,D1*%
%TO.N,/D1*%
X109855000Y-146050000D03*
%TO.P,J3,23,D2*%
%TO.N,/D2*%
X107315000Y-146050000D03*
%TO.P,J3,24,D3*%
%TO.N,/D3*%
X104775000Y-146050000D03*
%TO.P,J3,25,D4*%
%TO.N,/D4*%
X102235000Y-146050000D03*
%TO.P,J3,26,D5*%
%TO.N,/D5*%
X99695000Y-146050000D03*
%TO.P,J3,27,D6*%
%TO.N,/D6*%
X97155000Y-146050000D03*
%TO.P,J3,28,D7*%
%TO.N,/D7*%
X94615000Y-146050000D03*
%TO.P,J3,29,RW/*%
%TO.N,/RW{slash}*%
X92075000Y-146050000D03*
%TO.P,J3,30,NC*%
%TO.N,/NC30*%
X89535000Y-146050000D03*
%TO.P,J3,31,BE*%
%TO.N,/BE*%
X86995000Y-146050000D03*
%TO.P,J3,32,IRQ*%
%TO.N,/IRQ*%
X84455000Y-146050000D03*
%TO.P,J3,33,NMI*%
%TO.N,/NMI*%
X81915000Y-146050000D03*
%TO.P,J3,34,RES*%
%TO.N,/RES*%
X79375000Y-146050000D03*
%TO.P,J3,35,CS/*%
%TO.N,/CS{slash}*%
X76835000Y-146050000D03*
%TO.P,J3,36,NC*%
%TO.N,/NC36*%
X74295000Y-146050000D03*
%TO.P,J3,37,+5V*%
%TO.N,/+5V*%
X71755000Y-146050000D03*
%TO.P,J3,38,NC*%
%TO.N,/NC38*%
X69215000Y-146050000D03*
%TO.P,J3,39,CLK*%
%TO.N,/CLK*%
X66675000Y-146050000D03*
D11*
%TO.P,J3,40,Vss*%
%TO.N,/Vss*%
X64135000Y-146050000D03*
%TD*%
D12*
%TO.N,/A7*%
X83822500Y-95885000D03*
X93347500Y-95979000D03*
%TO.N,/NMI*%
X81915000Y-107315000D03*
X95252500Y-107315000D03*
%TO.N,/D0*%
X64772500Y-76835000D03*
X114302500Y-76835000D03*
%TO.N,/A13*%
X109222500Y-80645000D03*
X68582500Y-80645000D03*
%TO.N,/CLK*%
X66675000Y-122555000D03*
X111127500Y-122555000D03*
%TO.N,/A3*%
X83185000Y-106139000D03*
X93982500Y-106045000D03*
%TO.N,/RES*%
X79375000Y-109855000D03*
X97792500Y-109855000D03*
%TO.N,/NC2*%
X109857500Y-121285000D03*
X67945000Y-121285000D03*
%TO.N,/IRQ*%
X92712500Y-104775000D03*
X84455000Y-104775000D03*
%TO.N,/NC3*%
X70485000Y-118745000D03*
X107317500Y-118745000D03*
%TO.N,/D1*%
X110492500Y-79375000D03*
X67312500Y-79375000D03*
%TO.N,/NC38*%
X69215000Y-120015000D03*
X108587500Y-120015000D03*
%TO.N,/A14*%
X66042500Y-78105000D03*
X111762500Y-78105000D03*
%TO.N,/NC30*%
X87632500Y-99695000D03*
X89537500Y-99695000D03*
D13*
%TO.N,/Vss*%
X64135000Y-125095000D03*
X113199160Y-125023179D03*
D12*
%TO.N,/A0*%
X75565000Y-113665000D03*
X101602500Y-113665000D03*
%TO.N,/A9*%
X98427500Y-90805000D03*
X78742500Y-90805000D03*
D13*
%TO.N,/+5V*%
X105412500Y-117475000D03*
X71755000Y-117475000D03*
D12*
%TO.N,/D6*%
X97157500Y-92075000D03*
X80012500Y-92075000D03*
%TO.N,/D7*%
X94617500Y-94615000D03*
X82552500Y-94615000D03*
%TO.N,/RW{slash}*%
X85092500Y-97155000D03*
X92077500Y-97155000D03*
%TO.N,/A15*%
X63502500Y-75565000D03*
X115572500Y-75565000D03*
%TO.N,/A5*%
X88902500Y-100965000D03*
%TO.N,/A1*%
X99062500Y-111125000D03*
X78105000Y-111125000D03*
%TO.N,/A12*%
X106682500Y-83185000D03*
X71122500Y-83185000D03*
%TO.N,/D5*%
X99697500Y-89535000D03*
X77472500Y-89535000D03*
%TO.N,/BE*%
X86995000Y-102235000D03*
X90172500Y-102235000D03*
%TO.N,/NC36*%
X74295000Y-114935000D03*
X102872500Y-114935000D03*
%TO.N,/D3*%
X104142500Y-84455000D03*
X72392500Y-84455000D03*
%TO.N,/A4*%
X85725000Y-103505000D03*
X91442500Y-103505000D03*
%TO.N,/A6*%
X90807500Y-98425000D03*
X86362500Y-98425000D03*
%TO.N,/D2*%
X69852500Y-81915000D03*
X107952500Y-81915000D03*
%TO.N,/CS{slash}*%
X76835000Y-112395000D03*
X100332500Y-112395000D03*
%TO.N,/A2*%
X80645000Y-108585000D03*
X96522500Y-108585000D03*
%TO.N,/A8*%
X81282500Y-93439000D03*
X95887500Y-93226000D03*
%TO.N,/A10*%
X100967500Y-88384000D03*
X76202500Y-88265000D03*
%TO.N,/D4*%
X74783816Y-87024736D03*
X102237500Y-86995000D03*
%TO.N,/A11*%
X73662500Y-85844000D03*
X103507500Y-85844000D03*
%TD*%
D14*
%TO.N,/A7*%
X92075000Y-148590000D02*
X93347500Y-147317500D01*
X83822500Y-96004000D02*
X83822500Y-95885000D01*
X83822500Y-95885000D02*
X83822500Y-53882500D01*
X93347500Y-147317500D02*
X93347500Y-96004000D01*
X83822500Y-53882500D02*
X85090000Y-52615000D01*
%TO.N,/NMI*%
X81915000Y-107315000D02*
X81915000Y-146050000D01*
X95252500Y-72390000D02*
X95252500Y-107315000D01*
X95252500Y-72390000D02*
X95250000Y-72387500D01*
X95250000Y-72387500D02*
X95250000Y-55155000D01*
%TO.N,/D0*%
X112395000Y-146050000D02*
X112395000Y-144780000D01*
X64770000Y-72387500D02*
X64770000Y-55155000D01*
X64772500Y-72390000D02*
X64772500Y-76835000D01*
X114300000Y-76837500D02*
X114302500Y-76835000D01*
X114300000Y-142875000D02*
X114300000Y-76837500D01*
X112395000Y-144780000D02*
X114300000Y-142875000D01*
X64772500Y-72390000D02*
X64770000Y-72387500D01*
%TO.N,/A13*%
X109220000Y-144780000D02*
X109220000Y-80647500D01*
X109220000Y-80647500D02*
X109222500Y-80645000D01*
X109232500Y-80645000D02*
X109222500Y-80655000D01*
X108587500Y-147317500D02*
X108587500Y-145412500D01*
X68580000Y-53885000D02*
X69850000Y-52615000D01*
X68582500Y-80526000D02*
X68582500Y-68580000D01*
X68582500Y-68580000D02*
X68580000Y-68577500D01*
X108587500Y-145412500D02*
X109220000Y-144780000D01*
X108587500Y-147317500D02*
X107315000Y-148590000D01*
X68580000Y-68577500D02*
X68580000Y-53885000D01*
%TO.N,/CLK*%
X66675000Y-122555000D02*
X66675000Y-146050000D01*
X110490000Y-72387500D02*
X110490000Y-55155000D01*
X110492500Y-78105000D02*
X111127500Y-78740000D01*
X111127500Y-78740000D02*
X111127500Y-122555000D01*
X110492500Y-72390000D02*
X110490000Y-72387500D01*
X110492500Y-72390000D02*
X110492500Y-78105000D01*
%TO.N,/A3*%
X83187500Y-147317500D02*
X81915000Y-148590000D01*
X83187500Y-106141500D02*
X83185000Y-106139000D01*
X83187500Y-147317500D02*
X83187500Y-106141500D01*
X93982500Y-106045000D02*
X93982500Y-53882500D01*
X93982500Y-53882500D02*
X95250000Y-52615000D01*
X93982500Y-106164000D02*
X93982500Y-106045000D01*
%TO.N,/RES*%
X79375000Y-109855000D02*
X79375000Y-146050000D01*
X97792500Y-72390000D02*
X97792500Y-109855000D01*
X97790000Y-72387500D02*
X97790000Y-55155000D01*
X97792500Y-72390000D02*
X97790000Y-72387500D01*
%TO.N,/NC2*%
X109857500Y-121285000D02*
X109857500Y-80073057D01*
X67945000Y-121285000D02*
X67945000Y-147320000D01*
X109857500Y-80073057D02*
X109222500Y-79438057D01*
X67947500Y-147317500D02*
X66675000Y-148590000D01*
X67945000Y-147320000D02*
X66675000Y-148590000D01*
X109222500Y-53882500D02*
X110490000Y-52615000D01*
X109222500Y-79438057D02*
X109222500Y-53882500D01*
%TO.N,/IRQ*%
X92712500Y-72390000D02*
X92710000Y-72387500D01*
X92712500Y-72390000D02*
X92712500Y-104775000D01*
X92710000Y-72387500D02*
X92710000Y-55155000D01*
X84455000Y-146050000D02*
X84455000Y-104775000D01*
%TO.N,/NC3*%
X106682500Y-53882500D02*
X107950000Y-52615000D01*
X107317500Y-118745000D02*
X107317500Y-82129943D01*
X107317500Y-82129943D02*
X106682500Y-81494943D01*
X70485000Y-118745000D02*
X70485000Y-147320000D01*
X70485000Y-147320000D02*
X69215000Y-148590000D01*
X106682500Y-81494943D02*
X106682500Y-53882500D01*
X70487500Y-147317500D02*
X69215000Y-148590000D01*
%TO.N,/D1*%
X67312500Y-79375000D02*
X67312500Y-72390000D01*
X110492500Y-129540000D02*
X110492500Y-128905000D01*
X110490000Y-128907500D02*
X110492500Y-128905000D01*
X109855000Y-145415000D02*
X110490000Y-144780000D01*
X67310000Y-72387500D02*
X67310000Y-55155000D01*
X110492500Y-128905000D02*
X110492500Y-79375000D01*
X109855000Y-146050000D02*
X109855000Y-145415000D01*
X67312500Y-72390000D02*
X67310000Y-72387500D01*
X110490000Y-144780000D02*
X110490000Y-128907500D01*
%TO.N,/NC38*%
X107952500Y-72390000D02*
X107952500Y-80645000D01*
X69215000Y-120015000D02*
X69215000Y-146050000D01*
X107952500Y-80645000D02*
X108587500Y-81280000D01*
X108587500Y-81280000D02*
X108587500Y-120015000D01*
X107952500Y-72390000D02*
X107950000Y-72387500D01*
X107950000Y-72387500D02*
X107950000Y-55155000D01*
%TO.N,/A14*%
X111125000Y-147315000D02*
X111125000Y-145415000D01*
X111127500Y-147317500D02*
X111125000Y-147315000D01*
X111125000Y-145415000D02*
X111760000Y-144780000D01*
X66042500Y-78224000D02*
X66042500Y-53882500D01*
X111760000Y-144780000D02*
X111760000Y-78107500D01*
X111127500Y-147317500D02*
X109855000Y-148590000D01*
X66042500Y-53882500D02*
X67310000Y-52615000D01*
X111760000Y-78107500D02*
X111762500Y-78105000D01*
%TO.N,/NC30*%
X89535000Y-102872500D02*
X89537500Y-102870000D01*
X87632500Y-73025000D02*
X87630000Y-73022500D01*
X89535000Y-146050000D02*
X89535000Y-102872500D01*
X89537500Y-103505000D02*
X89537500Y-102870000D01*
X89537500Y-102870000D02*
X89537500Y-99695000D01*
X87630000Y-73022500D02*
X87630000Y-55155000D01*
X87632500Y-73025000D02*
X87632500Y-99695000D01*
D15*
%TO.N,/Vss*%
X113032500Y-71120000D02*
X113032500Y-72390000D01*
X113032500Y-71120000D02*
X113030000Y-71117500D01*
X113032500Y-72390000D02*
X113032500Y-125095000D01*
X113030000Y-71117500D02*
X113030000Y-52615000D01*
X64135000Y-125095000D02*
X64135000Y-148590000D01*
X113030000Y-71117500D02*
X113030000Y-55155000D01*
D14*
%TO.N,/A0*%
X75567500Y-147317500D02*
X75565000Y-147320000D01*
X101602500Y-113665000D02*
X101602500Y-53882500D01*
X75565000Y-147320000D02*
X74295000Y-148590000D01*
X75565000Y-113665000D02*
X75565000Y-147320000D01*
X101602500Y-53882500D02*
X102870000Y-52615000D01*
%TO.N,/A9*%
X78742500Y-53882500D02*
X80010000Y-52615000D01*
X98518529Y-111668971D02*
X98427500Y-111577943D01*
X98427500Y-147317500D02*
X98427500Y-108585000D01*
X98427500Y-111577943D02*
X98427500Y-108585000D01*
X98427500Y-108585000D02*
X98427500Y-90805000D01*
X98427500Y-147317500D02*
X97155000Y-148590000D01*
X78742500Y-90805000D02*
X78742500Y-53882500D01*
D15*
%TO.N,/+5V*%
X71755000Y-144145000D02*
X71755000Y-148590000D01*
X105412500Y-69850000D02*
X105410000Y-69847500D01*
X71755000Y-144145000D02*
X71755000Y-146050000D01*
X105412500Y-117475000D02*
X105412500Y-69850000D01*
X71755000Y-117475000D02*
X71755000Y-144145000D01*
X105410000Y-69847500D02*
X105410000Y-52615000D01*
X105410000Y-69847500D02*
X105410000Y-55155000D01*
D14*
%TO.N,/D6*%
X97157500Y-110490000D02*
X97157500Y-109855000D01*
X80012500Y-72390000D02*
X80010000Y-72387500D01*
X80012500Y-72390000D02*
X80012500Y-92075000D01*
X80010000Y-72387500D02*
X80010000Y-55155000D01*
X97155000Y-146050000D02*
X97155000Y-109857500D01*
X97157500Y-109855000D02*
X97157500Y-92075000D01*
X97155000Y-109857500D02*
X97157500Y-109855000D01*
%TO.N,/D7*%
X94615000Y-146050000D02*
X94615000Y-94617500D01*
X94617500Y-94615000D02*
X94617500Y-107950000D01*
X82550000Y-72387500D02*
X82550000Y-55155000D01*
X94615000Y-94617500D02*
X94617500Y-94615000D01*
X82552500Y-72390000D02*
X82550000Y-72387500D01*
X82552500Y-72390000D02*
X82552500Y-94615000D01*
%TO.N,/RW{slash}*%
X85092500Y-97155000D02*
X85092500Y-72390000D01*
X92077500Y-105410000D02*
X92075000Y-105412500D01*
X92077500Y-105410000D02*
X92077500Y-97155000D01*
X85092500Y-72390000D02*
X85090000Y-72387500D01*
X85090000Y-72387500D02*
X85090000Y-55155000D01*
X92075000Y-105412500D02*
X92075000Y-146050000D01*
%TO.N,/A15*%
X63500000Y-53885000D02*
X64770000Y-52615000D01*
X115570000Y-75567500D02*
X115572500Y-75565000D01*
X63502500Y-67312500D02*
X63500000Y-67310000D01*
X112395000Y-148590000D02*
X115570000Y-145415000D01*
X115570000Y-145415000D02*
X115570000Y-75567500D01*
X63500000Y-67310000D02*
X63500000Y-53885000D01*
X63502500Y-75565000D02*
X63502500Y-67312500D01*
%TO.N,/A5*%
X88265000Y-101602500D02*
X88265000Y-147320000D01*
X88902500Y-53882500D02*
X90170000Y-52615000D01*
X88902500Y-100965000D02*
X88902500Y-53882500D01*
X88902500Y-100965000D02*
X88265000Y-101602500D01*
X88265000Y-147320000D02*
X86995000Y-148590000D01*
X88267500Y-147317500D02*
X88265000Y-147320000D01*
%TO.N,/A1*%
X99062500Y-111125000D02*
X99062500Y-53882500D01*
X78107500Y-147317500D02*
X78107500Y-111127500D01*
X78107500Y-111127500D02*
X78105000Y-111125000D01*
X99062500Y-53882500D02*
X100330000Y-52615000D01*
X78107500Y-147317500D02*
X76835000Y-148590000D01*
%TO.N,/A12*%
X106047500Y-147317500D02*
X106047500Y-145654384D01*
X106047500Y-145654384D02*
X106680000Y-145021884D01*
X104775000Y-148590000D02*
X106047500Y-147317500D01*
X106680000Y-83187500D02*
X106682500Y-83185000D01*
X106680000Y-145021884D02*
X106680000Y-83187500D01*
X71122500Y-83185000D02*
X71122500Y-53882500D01*
X71122500Y-53882500D02*
X72390000Y-52615000D01*
%TO.N,/D5*%
X99695000Y-113032500D02*
X99697500Y-113030000D01*
X77470000Y-72387500D02*
X77470000Y-55155000D01*
X99695000Y-146050000D02*
X99695000Y-113032500D01*
X99697500Y-113030000D02*
X99697500Y-89535000D01*
X77472500Y-72390000D02*
X77472500Y-89535000D01*
X77472500Y-72390000D02*
X77470000Y-72387500D01*
%TO.N,/BE*%
X90172500Y-72390000D02*
X90170000Y-72387500D01*
X90172500Y-72390000D02*
X90172500Y-102235000D01*
X90170000Y-72387500D02*
X90170000Y-55155000D01*
X86995000Y-146050000D02*
X86995000Y-102235000D01*
%TO.N,/NC36*%
X102870000Y-72387500D02*
X102870000Y-55155000D01*
X102872500Y-72390000D02*
X102872500Y-114935000D01*
X74295000Y-146050000D02*
X74295000Y-114935000D01*
X102872500Y-72390000D02*
X102870000Y-72387500D01*
%TO.N,/D3*%
X72392500Y-73025000D02*
X72390000Y-73022500D01*
X104775000Y-118745000D02*
X104776250Y-118743750D01*
X72390000Y-73022500D02*
X72390000Y-55155000D01*
X72392500Y-73025000D02*
X72392500Y-84455000D01*
X104775000Y-146050000D02*
X104775000Y-118745000D01*
X104142500Y-118110000D02*
X104142500Y-84455000D01*
X104776250Y-118743750D02*
X104142500Y-118110000D01*
%TO.N,/A4*%
X91442500Y-103624000D02*
X91442500Y-53882500D01*
X85725000Y-103505000D02*
X85725000Y-147320000D01*
X85725000Y-147320000D02*
X84455000Y-148590000D01*
X85727500Y-147317500D02*
X85725000Y-147320000D01*
X91442500Y-53882500D02*
X92710000Y-52615000D01*
%TO.N,/A6*%
X90807500Y-103505000D02*
X90807500Y-104076943D01*
X90807500Y-147317500D02*
X90807500Y-103505000D01*
X86362500Y-98425000D02*
X86362500Y-53882500D01*
X86362500Y-98544000D02*
X86362500Y-98425000D01*
X90807500Y-98544000D02*
X90807500Y-103505000D01*
X90807500Y-147317500D02*
X89535000Y-148590000D01*
X86362500Y-53882500D02*
X87630000Y-52615000D01*
%TO.N,/D2*%
X107315000Y-144780000D02*
X107315000Y-146050000D01*
X107950000Y-144145000D02*
X107950000Y-128907500D01*
X107952500Y-129540000D02*
X107952500Y-128905000D01*
X69852500Y-72390000D02*
X69852500Y-81915000D01*
X107950000Y-128907500D02*
X107952500Y-128905000D01*
X107952500Y-128905000D02*
X107952500Y-81915000D01*
X69852500Y-72390000D02*
X69850000Y-72387500D01*
X107315000Y-144780000D02*
X107950000Y-144145000D01*
X69850000Y-72387500D02*
X69850000Y-55155000D01*
%TO.N,/CS{slash}*%
X100330000Y-72387500D02*
X100330000Y-55155000D01*
X100332500Y-72390000D02*
X100332500Y-112395000D01*
X76835000Y-146050000D02*
X76835000Y-112395000D01*
X100332500Y-72390000D02*
X100330000Y-72387500D01*
%TO.N,/A2*%
X96522500Y-53882500D02*
X97790000Y-52615000D01*
X80647500Y-147317500D02*
X80647500Y-108587500D01*
X96522500Y-107950000D02*
X96522500Y-53882500D01*
X80647500Y-147317500D02*
X79375000Y-148590000D01*
X96522500Y-107950000D02*
X96522500Y-108585000D01*
X80647500Y-108587500D02*
X80645000Y-108585000D01*
X96522500Y-108466000D02*
X96522500Y-107950000D01*
%TO.N,/A8*%
X95887500Y-108918943D02*
X95887500Y-93226000D01*
X95887500Y-147317500D02*
X94615000Y-148590000D01*
X81282500Y-93226000D02*
X81282500Y-53882500D01*
X81282500Y-53882500D02*
X82550000Y-52615000D01*
X96038028Y-109069472D02*
X95887500Y-108918943D01*
X95887500Y-147317500D02*
X95887500Y-93226000D01*
%TO.N,/A10*%
X76202500Y-88384000D02*
X76202500Y-88265000D01*
X100967500Y-113214000D02*
X101151500Y-113030000D01*
X100967500Y-147317500D02*
X100967500Y-113214000D01*
X76202500Y-53882500D02*
X77470000Y-52615000D01*
X100967500Y-88384000D02*
X100967500Y-113915298D01*
X100967500Y-147317500D02*
X99695000Y-148590000D01*
X76202500Y-88265000D02*
X76202500Y-53882500D01*
%TO.N,/D4*%
X102237500Y-115570000D02*
X102237500Y-113665000D01*
X102237500Y-113665000D02*
X102237500Y-86995000D01*
X102235000Y-113667500D02*
X102237500Y-113665000D01*
X74932500Y-72390000D02*
X74930000Y-72387500D01*
X102235000Y-146050000D02*
X102235000Y-113667500D01*
X74932500Y-72390000D02*
X74932500Y-86876052D01*
X74930000Y-72387500D02*
X74930000Y-55155000D01*
X74932500Y-86876052D02*
X74783816Y-87024736D01*
%TO.N,/A11*%
X73662500Y-71755000D02*
X73662500Y-85844000D01*
X103507500Y-147317500D02*
X102235000Y-148590000D01*
X73660000Y-53885000D02*
X74930000Y-52615000D01*
X73660000Y-71752500D02*
X73660000Y-53885000D01*
X103507500Y-147317500D02*
X103507500Y-116205000D01*
X73662500Y-71755000D02*
X73660000Y-71752500D01*
X103507500Y-85844000D02*
X103507500Y-116205000D01*
X103507500Y-116205000D02*
X103507500Y-118864000D01*
%TD*%
M02*
