%TF.GenerationSoftware,KiCad,Pcbnew,9.0.2+dfsg-1*%
%TF.CreationDate,2026-09-05T20:41:28+02:00*%
%TF.ProjectId,wallputer-backplane-card,77616c6c-7075-4746-9572-2d6261636b70,rev?*%
%TF.SameCoordinates,Original*%
%TF.FileFunction,Soldermask,Top*%
%TF.FilePolarity,Negative*%
%FSLAX46Y46*%
G04 Gerber Fmt 4.6, Leading zero omitted, Abs format (unit mm)*
G04 Created by KiCad (PCBNEW 9.0.2+dfsg-1) date 2026-09-05 20:41:28*
%MOMM*%
%LPD*%
G01*
G04 APERTURE LIST*
%ADD10C,1.700000*%
%ADD11R,1.700000X1.700000*%
G04 APERTURE END LIST*
D10*
%TO.C,J1*%
X40640000Y-125095000D03*
X40640000Y-122555000D03*
X40640000Y-120015000D03*
X40640000Y-117475000D03*
X40640000Y-114935000D03*
X40640000Y-112395000D03*
X40640000Y-109855000D03*
X40640000Y-107315000D03*
X40640000Y-104775000D03*
X40640000Y-102235000D03*
X40640000Y-99695000D03*
X40640000Y-97155000D03*
X40640000Y-94615000D03*
X40640000Y-92075000D03*
X40640000Y-89535000D03*
X40640000Y-86995000D03*
X40640000Y-84455000D03*
X40640000Y-81915000D03*
X40640000Y-79375000D03*
X40640000Y-76835000D03*
X43180000Y-76835000D03*
X43180000Y-79375000D03*
X43180000Y-81915000D03*
X43180000Y-84455000D03*
X43180000Y-86995000D03*
X43180000Y-89535000D03*
X43180000Y-92075000D03*
X43180000Y-94615000D03*
X43180000Y-97155000D03*
X43180000Y-99695000D03*
X43180000Y-102235000D03*
X43180000Y-104775000D03*
X43180000Y-107315000D03*
X43180000Y-109855000D03*
X43180000Y-112395000D03*
X43180000Y-114935000D03*
X43180000Y-117475000D03*
X43180000Y-120015000D03*
X43180000Y-122555000D03*
D11*
X43180000Y-125095000D03*
%TD*%
D10*
%TO.C,J2*%
X113030000Y-52615000D03*
X110490000Y-52615000D03*
X107950000Y-52615000D03*
X105410000Y-52615000D03*
X102870000Y-52615000D03*
X100330000Y-52615000D03*
X97790000Y-52615000D03*
X95250000Y-52615000D03*
X92710000Y-52615000D03*
X90170000Y-52615000D03*
X87630000Y-52615000D03*
X85090000Y-52615000D03*
X82550000Y-52615000D03*
X80010000Y-52615000D03*
X77470000Y-52615000D03*
X74930000Y-52615000D03*
X72390000Y-52615000D03*
X69850000Y-52615000D03*
X67310000Y-52615000D03*
X64770000Y-52615000D03*
X64770000Y-55155000D03*
X67310000Y-55155000D03*
X69850000Y-55155000D03*
X72390000Y-55155000D03*
X74930000Y-55155000D03*
X77470000Y-55155000D03*
X80010000Y-55155000D03*
X82550000Y-55155000D03*
X85090000Y-55155000D03*
X87630000Y-55155000D03*
X90170000Y-55155000D03*
X92710000Y-55155000D03*
X95250000Y-55155000D03*
X97790000Y-55155000D03*
X100330000Y-55155000D03*
X102870000Y-55155000D03*
X105410000Y-55155000D03*
X107950000Y-55155000D03*
X110490000Y-55155000D03*
D11*
X113030000Y-55155000D03*
%TD*%
D10*
%TO.C,J4*%
X136525000Y-125095000D03*
X136525000Y-122555000D03*
X136525000Y-120015000D03*
X136525000Y-117475000D03*
X136525000Y-114935000D03*
X136525000Y-112395000D03*
X136525000Y-109855000D03*
X136525000Y-107315000D03*
X136525000Y-104775000D03*
X136525000Y-102235000D03*
X136525000Y-99695000D03*
X136525000Y-97155000D03*
X136525000Y-94615000D03*
X136525000Y-92075000D03*
X136525000Y-89535000D03*
X136525000Y-86995000D03*
X136525000Y-84455000D03*
X136525000Y-81915000D03*
X136525000Y-79375000D03*
X136525000Y-76835000D03*
X133985000Y-76835000D03*
X133985000Y-79375000D03*
X133985000Y-81915000D03*
X133985000Y-84455000D03*
X133985000Y-86995000D03*
X133985000Y-89535000D03*
X133985000Y-92075000D03*
X133985000Y-94615000D03*
X133985000Y-97155000D03*
X133985000Y-99695000D03*
X133985000Y-102235000D03*
X133985000Y-104775000D03*
X133985000Y-107315000D03*
X133985000Y-109855000D03*
X133985000Y-112395000D03*
X133985000Y-114935000D03*
X133985000Y-117475000D03*
X133985000Y-120015000D03*
X133985000Y-122555000D03*
D11*
X133985000Y-125095000D03*
%TD*%
D10*
%TO.C,J3*%
X64135000Y-148590000D03*
X66675000Y-148590000D03*
X69215000Y-148590000D03*
X71755000Y-148590000D03*
X74295000Y-148590000D03*
X76835000Y-148590000D03*
X79375000Y-148590000D03*
X81915000Y-148590000D03*
X84455000Y-148590000D03*
X86995000Y-148590000D03*
X89535000Y-148590000D03*
X92075000Y-148590000D03*
X94615000Y-148590000D03*
X97155000Y-148590000D03*
X99695000Y-148590000D03*
X102235000Y-148590000D03*
X104775000Y-148590000D03*
X107315000Y-148590000D03*
X109855000Y-148590000D03*
X112395000Y-148590000D03*
X112395000Y-146050000D03*
X109855000Y-146050000D03*
X107315000Y-146050000D03*
X104775000Y-146050000D03*
X102235000Y-146050000D03*
X99695000Y-146050000D03*
X97155000Y-146050000D03*
X94615000Y-146050000D03*
X92075000Y-146050000D03*
X89535000Y-146050000D03*
X86995000Y-146050000D03*
X84455000Y-146050000D03*
X81915000Y-146050000D03*
X79375000Y-146050000D03*
X76835000Y-146050000D03*
X74295000Y-146050000D03*
X71755000Y-146050000D03*
X69215000Y-146050000D03*
X66675000Y-146050000D03*
D11*
X64135000Y-146050000D03*
%TD*%
M02*
