%TF.GenerationSoftware,KiCad,Pcbnew,9.0.2+dfsg-1*%
%TF.CreationDate,2026-09-02T22:03:41+02:00*%
%TF.ProjectId,wallputer-backplane-card,77616c6c-7075-4746-9572-2d6261636b70,rev?*%
%TF.SameCoordinates,Original*%
%TF.FileFunction,Drillmap*%
%TF.FilePolarity,Positive*%
%FSLAX45Y45*%
G04 Gerber Fmt 4.5, Leading zero omitted, Abs format (unit mm)*
G04 Created by KiCad (PCBNEW 9.0.2+dfsg-1) date 2026-09-02 22:03:41*
%MOMM*%
%LPD*%
G01*
G04 APERTURE LIST*
%ADD10C,0.050000*%
%ADD11C,0.200000*%
%ADD12C,0.100000*%
G04 APERTURE END LIST*
D10*
X3873500Y-5080000D02*
X3873500Y-15049500D01*
X3873500Y-15049500D02*
X13843000Y-15049500D01*
X13843000Y-5080000D02*
X3873500Y-5080000D01*
X13843000Y-15049500D02*
X13843000Y-5080000D01*
D11*
D12*
X6335250Y-7541500D02*
X6365250Y-7571500D01*
X6365250Y-7541500D02*
X6335250Y-7571500D01*
X6462250Y-7668500D02*
X6492250Y-7698500D01*
X6492250Y-7668500D02*
X6462250Y-7698500D01*
X6589250Y-7795500D02*
X6619250Y-7825500D01*
X6619250Y-7795500D02*
X6589250Y-7825500D01*
X6652500Y-12240500D02*
X6682500Y-12270500D01*
X6682500Y-12240500D02*
X6652500Y-12270500D01*
X6716250Y-7922500D02*
X6746250Y-7952500D01*
X6746250Y-7922500D02*
X6716250Y-7952500D01*
X6779500Y-12113500D02*
X6809500Y-12143500D01*
X6809500Y-12113500D02*
X6779500Y-12143500D01*
X6843250Y-8049500D02*
X6873250Y-8079500D01*
X6873250Y-8049500D02*
X6843250Y-8079500D01*
X6906500Y-11986500D02*
X6936500Y-12016500D01*
X6936500Y-11986500D02*
X6906500Y-12016500D01*
X6970250Y-8176500D02*
X7000250Y-8206500D01*
X7000250Y-8176500D02*
X6970250Y-8206500D01*
X7033500Y-11859500D02*
X7063500Y-11889500D01*
X7063500Y-11859500D02*
X7033500Y-11889500D01*
X7097250Y-8303500D02*
X7127250Y-8333500D01*
X7127250Y-8303500D02*
X7097250Y-8333500D01*
X7224250Y-8430500D02*
X7254250Y-8460500D01*
X7254250Y-8430500D02*
X7224250Y-8460500D01*
X7351250Y-8569400D02*
X7381250Y-8599400D01*
X7381250Y-8569400D02*
X7351250Y-8599400D01*
X7414500Y-11478500D02*
X7444500Y-11508500D01*
X7444500Y-11478500D02*
X7414500Y-11508500D01*
X7463382Y-8687474D02*
X7493382Y-8717474D01*
X7493382Y-8687474D02*
X7463382Y-8717474D01*
X7541500Y-11351500D02*
X7571500Y-11381500D01*
X7571500Y-11351500D02*
X7541500Y-11381500D01*
X7605250Y-8811500D02*
X7635250Y-8841500D01*
X7635250Y-8811500D02*
X7605250Y-8841500D01*
X7668500Y-11224500D02*
X7698500Y-11254500D01*
X7698500Y-11224500D02*
X7668500Y-11254500D01*
X7732250Y-8938500D02*
X7762250Y-8968500D01*
X7762250Y-8938500D02*
X7732250Y-8968500D01*
X7795500Y-11097500D02*
X7825500Y-11127500D01*
X7825500Y-11097500D02*
X7795500Y-11127500D01*
X7859250Y-9065500D02*
X7889250Y-9095500D01*
X7889250Y-9065500D02*
X7859250Y-9095500D01*
X7922500Y-10970500D02*
X7952500Y-11000500D01*
X7952500Y-10970500D02*
X7922500Y-11000500D01*
X7986250Y-9192500D02*
X8016250Y-9222500D01*
X8016250Y-9192500D02*
X7986250Y-9222500D01*
X8049500Y-10843500D02*
X8079500Y-10873500D01*
X8079500Y-10843500D02*
X8049500Y-10873500D01*
X8113250Y-9328900D02*
X8143250Y-9358900D01*
X8143250Y-9328900D02*
X8113250Y-9358900D01*
X8176500Y-10716500D02*
X8206500Y-10746500D01*
X8206500Y-10716500D02*
X8176500Y-10746500D01*
X8240250Y-9446500D02*
X8270250Y-9476500D01*
X8270250Y-9446500D02*
X8240250Y-9476500D01*
X8303500Y-10598900D02*
X8333500Y-10628900D01*
X8333500Y-10598900D02*
X8303500Y-10628900D01*
X8367250Y-9573500D02*
X8397250Y-9603500D01*
X8397250Y-9573500D02*
X8367250Y-9603500D01*
X8430500Y-10462500D02*
X8460500Y-10492500D01*
X8460500Y-10462500D02*
X8430500Y-10492500D01*
X8494250Y-9700500D02*
X8524250Y-9730500D01*
X8524250Y-9700500D02*
X8494250Y-9730500D01*
X8557500Y-10335500D02*
X8587500Y-10365500D01*
X8587500Y-10335500D02*
X8557500Y-10365500D01*
X8621250Y-9827500D02*
X8651250Y-9857500D01*
X8651250Y-9827500D02*
X8621250Y-9857500D01*
X8684500Y-10208500D02*
X8714500Y-10238500D01*
X8714500Y-10208500D02*
X8684500Y-10238500D01*
X8748250Y-9954500D02*
X8778250Y-9984500D01*
X8778250Y-9954500D02*
X8748250Y-9984500D01*
X8875250Y-10081500D02*
X8905250Y-10111500D01*
X8905250Y-10081500D02*
X8875250Y-10111500D01*
X8938750Y-9954500D02*
X8968750Y-9984500D01*
X8968750Y-9954500D02*
X8938750Y-9984500D01*
X9002250Y-10208500D02*
X9032250Y-10238500D01*
X9032250Y-10208500D02*
X9002250Y-10238500D01*
X9065750Y-9827500D02*
X9095750Y-9857500D01*
X9095750Y-9827500D02*
X9065750Y-9857500D01*
X9129250Y-10335500D02*
X9159250Y-10365500D01*
X9159250Y-10335500D02*
X9129250Y-10365500D01*
X9192750Y-9700500D02*
X9222750Y-9730500D01*
X9222750Y-9700500D02*
X9192750Y-9730500D01*
X9256250Y-10462500D02*
X9286250Y-10492500D01*
X9286250Y-10462500D02*
X9256250Y-10492500D01*
X9319750Y-9582900D02*
X9349750Y-9612900D01*
X9349750Y-9582900D02*
X9319750Y-9612900D01*
X9383250Y-10589500D02*
X9413250Y-10619500D01*
X9413250Y-10589500D02*
X9383250Y-10619500D01*
X9446750Y-9446500D02*
X9476750Y-9476500D01*
X9476750Y-9446500D02*
X9446750Y-9476500D01*
X9510250Y-10716500D02*
X9540250Y-10746500D01*
X9540250Y-10716500D02*
X9510250Y-10746500D01*
X9573750Y-9307600D02*
X9603750Y-9337600D01*
X9603750Y-9307600D02*
X9573750Y-9337600D01*
X9637250Y-10843500D02*
X9667250Y-10873500D01*
X9667250Y-10843500D02*
X9637250Y-10873500D01*
X9700750Y-9192500D02*
X9730750Y-9222500D01*
X9730750Y-9192500D02*
X9700750Y-9222500D01*
X9764250Y-10970500D02*
X9794250Y-11000500D01*
X9794250Y-10970500D02*
X9764250Y-11000500D01*
X9827750Y-9065500D02*
X9857750Y-9095500D01*
X9857750Y-9065500D02*
X9827750Y-9095500D01*
X9891250Y-11097500D02*
X9921250Y-11127500D01*
X9921250Y-11097500D02*
X9891250Y-11127500D01*
X9954750Y-8938500D02*
X9984750Y-8968500D01*
X9984750Y-8938500D02*
X9954750Y-8968500D01*
X10018250Y-11224500D02*
X10048250Y-11254500D01*
X10048250Y-11224500D02*
X10018250Y-11254500D01*
X10081750Y-8823400D02*
X10111750Y-8853400D01*
X10111750Y-8823400D02*
X10081750Y-8853400D01*
X10145250Y-11351500D02*
X10175250Y-11381500D01*
X10175250Y-11351500D02*
X10145250Y-11381500D01*
X10208750Y-8684500D02*
X10238750Y-8714500D01*
X10238750Y-8684500D02*
X10208750Y-8714500D01*
X10272250Y-11478500D02*
X10302250Y-11508500D01*
X10302250Y-11478500D02*
X10272250Y-11508500D01*
X10335750Y-8569400D02*
X10365750Y-8599400D01*
X10365750Y-8569400D02*
X10335750Y-8599400D01*
X10399250Y-8430500D02*
X10429250Y-8460500D01*
X10429250Y-8430500D02*
X10399250Y-8460500D01*
X10653250Y-8303500D02*
X10683250Y-8333500D01*
X10683250Y-8303500D02*
X10653250Y-8333500D01*
X10716750Y-11859500D02*
X10746750Y-11889500D01*
X10746750Y-11859500D02*
X10716750Y-11889500D01*
X10780250Y-8176500D02*
X10810250Y-8206500D01*
X10810250Y-8176500D02*
X10780250Y-8206500D01*
X10843750Y-11986500D02*
X10873750Y-12016500D01*
X10873750Y-11986500D02*
X10843750Y-12016500D01*
X10907250Y-8049500D02*
X10937250Y-8079500D01*
X10937250Y-8049500D02*
X10907250Y-8079500D01*
X10970750Y-12113500D02*
X11000750Y-12143500D01*
X11000750Y-12113500D02*
X10970750Y-12143500D01*
X11034250Y-7922500D02*
X11064250Y-7952500D01*
X11064250Y-7922500D02*
X11034250Y-7952500D01*
X11097750Y-12240500D02*
X11127750Y-12270500D01*
X11127750Y-12240500D02*
X11097750Y-12270500D01*
X11161250Y-7795500D02*
X11191250Y-7825500D01*
X11191250Y-7795500D02*
X11161250Y-7825500D01*
X11415250Y-7668500D02*
X11445250Y-7698500D01*
X11445250Y-7668500D02*
X11415250Y-7698500D01*
X11542250Y-7541500D02*
X11572250Y-7571500D01*
X11572250Y-7541500D02*
X11542250Y-7571500D01*
X6453500Y-12509500D02*
G75*
G02*
X6373500Y-12509500I-40000J0D01*
G01*
X6373500Y-12509500D02*
G75*
G02*
X6453500Y-12509500I40000J0D01*
G01*
X7215500Y-11747500D02*
G75*
G02*
X7135500Y-11747500I-40000J0D01*
G01*
X7135500Y-11747500D02*
G75*
G02*
X7215500Y-11747500I40000J0D01*
G01*
X10581250Y-11747500D02*
G75*
G02*
X10501250Y-11747500I-40000J0D01*
G01*
X10501250Y-11747500D02*
G75*
G02*
X10581250Y-11747500I40000J0D01*
G01*
X11359916Y-12502318D02*
G75*
G02*
X11279916Y-12502318I-40000J0D01*
G01*
X11279916Y-12502318D02*
G75*
G02*
X11359916Y-12502318I40000J0D01*
G01*
X4064000Y-7633500D02*
X4064000Y-7733500D01*
X4014000Y-7683500D02*
X4114000Y-7683500D01*
X4064000Y-7887500D02*
X4064000Y-7987500D01*
X4014000Y-7937500D02*
X4114000Y-7937500D01*
X4064000Y-8141500D02*
X4064000Y-8241500D01*
X4014000Y-8191500D02*
X4114000Y-8191500D01*
X4064000Y-8395500D02*
X4064000Y-8495500D01*
X4014000Y-8445500D02*
X4114000Y-8445500D01*
X4064000Y-8649500D02*
X4064000Y-8749500D01*
X4014000Y-8699500D02*
X4114000Y-8699500D01*
X4064000Y-8903500D02*
X4064000Y-9003500D01*
X4014000Y-8953500D02*
X4114000Y-8953500D01*
X4064000Y-9157500D02*
X4064000Y-9257500D01*
X4014000Y-9207500D02*
X4114000Y-9207500D01*
X4064000Y-9411500D02*
X4064000Y-9511500D01*
X4014000Y-9461500D02*
X4114000Y-9461500D01*
X4064000Y-9665500D02*
X4064000Y-9765500D01*
X4014000Y-9715500D02*
X4114000Y-9715500D01*
X4064000Y-9919500D02*
X4064000Y-10019500D01*
X4014000Y-9969500D02*
X4114000Y-9969500D01*
X4064000Y-10173500D02*
X4064000Y-10273500D01*
X4014000Y-10223500D02*
X4114000Y-10223500D01*
X4064000Y-10427500D02*
X4064000Y-10527500D01*
X4014000Y-10477500D02*
X4114000Y-10477500D01*
X4064000Y-10681500D02*
X4064000Y-10781500D01*
X4014000Y-10731500D02*
X4114000Y-10731500D01*
X4064000Y-10935500D02*
X4064000Y-11035500D01*
X4014000Y-10985500D02*
X4114000Y-10985500D01*
X4064000Y-11189500D02*
X4064000Y-11289500D01*
X4014000Y-11239500D02*
X4114000Y-11239500D01*
X4064000Y-11443500D02*
X4064000Y-11543500D01*
X4014000Y-11493500D02*
X4114000Y-11493500D01*
X4064000Y-11697500D02*
X4064000Y-11797500D01*
X4014000Y-11747500D02*
X4114000Y-11747500D01*
X4064000Y-11951500D02*
X4064000Y-12051500D01*
X4014000Y-12001500D02*
X4114000Y-12001500D01*
X4064000Y-12205500D02*
X4064000Y-12305500D01*
X4014000Y-12255500D02*
X4114000Y-12255500D01*
X4064000Y-12459500D02*
X4064000Y-12559500D01*
X4014000Y-12509500D02*
X4114000Y-12509500D01*
X4318000Y-7633500D02*
X4318000Y-7733500D01*
X4268000Y-7683500D02*
X4368000Y-7683500D01*
X4318000Y-7887500D02*
X4318000Y-7987500D01*
X4268000Y-7937500D02*
X4368000Y-7937500D01*
X4318000Y-8141500D02*
X4318000Y-8241500D01*
X4268000Y-8191500D02*
X4368000Y-8191500D01*
X4318000Y-8395500D02*
X4318000Y-8495500D01*
X4268000Y-8445500D02*
X4368000Y-8445500D01*
X4318000Y-8649500D02*
X4318000Y-8749500D01*
X4268000Y-8699500D02*
X4368000Y-8699500D01*
X4318000Y-8903500D02*
X4318000Y-9003500D01*
X4268000Y-8953500D02*
X4368000Y-8953500D01*
X4318000Y-9157500D02*
X4318000Y-9257500D01*
X4268000Y-9207500D02*
X4368000Y-9207500D01*
X4318000Y-9411500D02*
X4318000Y-9511500D01*
X4268000Y-9461500D02*
X4368000Y-9461500D01*
X4318000Y-9665500D02*
X4318000Y-9765500D01*
X4268000Y-9715500D02*
X4368000Y-9715500D01*
X4318000Y-9919500D02*
X4318000Y-10019500D01*
X4268000Y-9969500D02*
X4368000Y-9969500D01*
X4318000Y-10173500D02*
X4318000Y-10273500D01*
X4268000Y-10223500D02*
X4368000Y-10223500D01*
X4318000Y-10427500D02*
X4318000Y-10527500D01*
X4268000Y-10477500D02*
X4368000Y-10477500D01*
X4318000Y-10681500D02*
X4318000Y-10781500D01*
X4268000Y-10731500D02*
X4368000Y-10731500D01*
X4318000Y-10935500D02*
X4318000Y-11035500D01*
X4268000Y-10985500D02*
X4368000Y-10985500D01*
X4318000Y-11189500D02*
X4318000Y-11289500D01*
X4268000Y-11239500D02*
X4368000Y-11239500D01*
X4318000Y-11443500D02*
X4318000Y-11543500D01*
X4268000Y-11493500D02*
X4368000Y-11493500D01*
X4318000Y-11697500D02*
X4318000Y-11797500D01*
X4268000Y-11747500D02*
X4368000Y-11747500D01*
X4318000Y-11951500D02*
X4318000Y-12051500D01*
X4268000Y-12001500D02*
X4368000Y-12001500D01*
X4318000Y-12205500D02*
X4318000Y-12305500D01*
X4268000Y-12255500D02*
X4368000Y-12255500D01*
X4318000Y-12459500D02*
X4318000Y-12559500D01*
X4268000Y-12509500D02*
X4368000Y-12509500D01*
X6413500Y-14555000D02*
X6413500Y-14655000D01*
X6363500Y-14605000D02*
X6463500Y-14605000D01*
X6413500Y-14809000D02*
X6413500Y-14909000D01*
X6363500Y-14859000D02*
X6463500Y-14859000D01*
X6477000Y-5211500D02*
X6477000Y-5311500D01*
X6427000Y-5261500D02*
X6527000Y-5261500D01*
X6477000Y-5465500D02*
X6477000Y-5565500D01*
X6427000Y-5515500D02*
X6527000Y-5515500D01*
X6667500Y-14555000D02*
X6667500Y-14655000D01*
X6617500Y-14605000D02*
X6717500Y-14605000D01*
X6667500Y-14809000D02*
X6667500Y-14909000D01*
X6617500Y-14859000D02*
X6717500Y-14859000D01*
X6731000Y-5211500D02*
X6731000Y-5311500D01*
X6681000Y-5261500D02*
X6781000Y-5261500D01*
X6731000Y-5465500D02*
X6731000Y-5565500D01*
X6681000Y-5515500D02*
X6781000Y-5515500D01*
X6921500Y-14555000D02*
X6921500Y-14655000D01*
X6871500Y-14605000D02*
X6971500Y-14605000D01*
X6921500Y-14809000D02*
X6921500Y-14909000D01*
X6871500Y-14859000D02*
X6971500Y-14859000D01*
X6985000Y-5211500D02*
X6985000Y-5311500D01*
X6935000Y-5261500D02*
X7035000Y-5261500D01*
X6985000Y-5465500D02*
X6985000Y-5565500D01*
X6935000Y-5515500D02*
X7035000Y-5515500D01*
X7175500Y-14555000D02*
X7175500Y-14655000D01*
X7125500Y-14605000D02*
X7225500Y-14605000D01*
X7175500Y-14809000D02*
X7175500Y-14909000D01*
X7125500Y-14859000D02*
X7225500Y-14859000D01*
X7239000Y-5211500D02*
X7239000Y-5311500D01*
X7189000Y-5261500D02*
X7289000Y-5261500D01*
X7239000Y-5465500D02*
X7239000Y-5565500D01*
X7189000Y-5515500D02*
X7289000Y-5515500D01*
X7429500Y-14555000D02*
X7429500Y-14655000D01*
X7379500Y-14605000D02*
X7479500Y-14605000D01*
X7429500Y-14809000D02*
X7429500Y-14909000D01*
X7379500Y-14859000D02*
X7479500Y-14859000D01*
X7493000Y-5211500D02*
X7493000Y-5311500D01*
X7443000Y-5261500D02*
X7543000Y-5261500D01*
X7493000Y-5465500D02*
X7493000Y-5565500D01*
X7443000Y-5515500D02*
X7543000Y-5515500D01*
X7683500Y-14555000D02*
X7683500Y-14655000D01*
X7633500Y-14605000D02*
X7733500Y-14605000D01*
X7683500Y-14809000D02*
X7683500Y-14909000D01*
X7633500Y-14859000D02*
X7733500Y-14859000D01*
X7747000Y-5211500D02*
X7747000Y-5311500D01*
X7697000Y-5261500D02*
X7797000Y-5261500D01*
X7747000Y-5465500D02*
X7747000Y-5565500D01*
X7697000Y-5515500D02*
X7797000Y-5515500D01*
X7937500Y-14555000D02*
X7937500Y-14655000D01*
X7887500Y-14605000D02*
X7987500Y-14605000D01*
X7937500Y-14809000D02*
X7937500Y-14909000D01*
X7887500Y-14859000D02*
X7987500Y-14859000D01*
X8001000Y-5211500D02*
X8001000Y-5311500D01*
X7951000Y-5261500D02*
X8051000Y-5261500D01*
X8001000Y-5465500D02*
X8001000Y-5565500D01*
X7951000Y-5515500D02*
X8051000Y-5515500D01*
X8191500Y-14555000D02*
X8191500Y-14655000D01*
X8141500Y-14605000D02*
X8241500Y-14605000D01*
X8191500Y-14809000D02*
X8191500Y-14909000D01*
X8141500Y-14859000D02*
X8241500Y-14859000D01*
X8255000Y-5211500D02*
X8255000Y-5311500D01*
X8205000Y-5261500D02*
X8305000Y-5261500D01*
X8255000Y-5465500D02*
X8255000Y-5565500D01*
X8205000Y-5515500D02*
X8305000Y-5515500D01*
X8445500Y-14555000D02*
X8445500Y-14655000D01*
X8395500Y-14605000D02*
X8495500Y-14605000D01*
X8445500Y-14809000D02*
X8445500Y-14909000D01*
X8395500Y-14859000D02*
X8495500Y-14859000D01*
X8509000Y-5211500D02*
X8509000Y-5311500D01*
X8459000Y-5261500D02*
X8559000Y-5261500D01*
X8509000Y-5465500D02*
X8509000Y-5565500D01*
X8459000Y-5515500D02*
X8559000Y-5515500D01*
X8699500Y-14555000D02*
X8699500Y-14655000D01*
X8649500Y-14605000D02*
X8749500Y-14605000D01*
X8699500Y-14809000D02*
X8699500Y-14909000D01*
X8649500Y-14859000D02*
X8749500Y-14859000D01*
X8763000Y-5211500D02*
X8763000Y-5311500D01*
X8713000Y-5261500D02*
X8813000Y-5261500D01*
X8763000Y-5465500D02*
X8763000Y-5565500D01*
X8713000Y-5515500D02*
X8813000Y-5515500D01*
X8953500Y-14555000D02*
X8953500Y-14655000D01*
X8903500Y-14605000D02*
X9003500Y-14605000D01*
X8953500Y-14809000D02*
X8953500Y-14909000D01*
X8903500Y-14859000D02*
X9003500Y-14859000D01*
X9017000Y-5211500D02*
X9017000Y-5311500D01*
X8967000Y-5261500D02*
X9067000Y-5261500D01*
X9017000Y-5465500D02*
X9017000Y-5565500D01*
X8967000Y-5515500D02*
X9067000Y-5515500D01*
X9207500Y-14555000D02*
X9207500Y-14655000D01*
X9157500Y-14605000D02*
X9257500Y-14605000D01*
X9207500Y-14809000D02*
X9207500Y-14909000D01*
X9157500Y-14859000D02*
X9257500Y-14859000D01*
X9271000Y-5211500D02*
X9271000Y-5311500D01*
X9221000Y-5261500D02*
X9321000Y-5261500D01*
X9271000Y-5465500D02*
X9271000Y-5565500D01*
X9221000Y-5515500D02*
X9321000Y-5515500D01*
X9461500Y-14555000D02*
X9461500Y-14655000D01*
X9411500Y-14605000D02*
X9511500Y-14605000D01*
X9461500Y-14809000D02*
X9461500Y-14909000D01*
X9411500Y-14859000D02*
X9511500Y-14859000D01*
X9525000Y-5211500D02*
X9525000Y-5311500D01*
X9475000Y-5261500D02*
X9575000Y-5261500D01*
X9525000Y-5465500D02*
X9525000Y-5565500D01*
X9475000Y-5515500D02*
X9575000Y-5515500D01*
X9715500Y-14555000D02*
X9715500Y-14655000D01*
X9665500Y-14605000D02*
X9765500Y-14605000D01*
X9715500Y-14809000D02*
X9715500Y-14909000D01*
X9665500Y-14859000D02*
X9765500Y-14859000D01*
X9779000Y-5211500D02*
X9779000Y-5311500D01*
X9729000Y-5261500D02*
X9829000Y-5261500D01*
X9779000Y-5465500D02*
X9779000Y-5565500D01*
X9729000Y-5515500D02*
X9829000Y-5515500D01*
X9969500Y-14555000D02*
X9969500Y-14655000D01*
X9919500Y-14605000D02*
X10019500Y-14605000D01*
X9969500Y-14809000D02*
X9969500Y-14909000D01*
X9919500Y-14859000D02*
X10019500Y-14859000D01*
X10033000Y-5211500D02*
X10033000Y-5311500D01*
X9983000Y-5261500D02*
X10083000Y-5261500D01*
X10033000Y-5465500D02*
X10033000Y-5565500D01*
X9983000Y-5515500D02*
X10083000Y-5515500D01*
X10223500Y-14555000D02*
X10223500Y-14655000D01*
X10173500Y-14605000D02*
X10273500Y-14605000D01*
X10223500Y-14809000D02*
X10223500Y-14909000D01*
X10173500Y-14859000D02*
X10273500Y-14859000D01*
X10287000Y-5211500D02*
X10287000Y-5311500D01*
X10237000Y-5261500D02*
X10337000Y-5261500D01*
X10287000Y-5465500D02*
X10287000Y-5565500D01*
X10237000Y-5515500D02*
X10337000Y-5515500D01*
X10477500Y-14555000D02*
X10477500Y-14655000D01*
X10427500Y-14605000D02*
X10527500Y-14605000D01*
X10477500Y-14809000D02*
X10477500Y-14909000D01*
X10427500Y-14859000D02*
X10527500Y-14859000D01*
X10541000Y-5211500D02*
X10541000Y-5311500D01*
X10491000Y-5261500D02*
X10591000Y-5261500D01*
X10541000Y-5465500D02*
X10541000Y-5565500D01*
X10491000Y-5515500D02*
X10591000Y-5515500D01*
X10731500Y-14555000D02*
X10731500Y-14655000D01*
X10681500Y-14605000D02*
X10781500Y-14605000D01*
X10731500Y-14809000D02*
X10731500Y-14909000D01*
X10681500Y-14859000D02*
X10781500Y-14859000D01*
X10795000Y-5211500D02*
X10795000Y-5311500D01*
X10745000Y-5261500D02*
X10845000Y-5261500D01*
X10795000Y-5465500D02*
X10795000Y-5565500D01*
X10745000Y-5515500D02*
X10845000Y-5515500D01*
X10985500Y-14555000D02*
X10985500Y-14655000D01*
X10935500Y-14605000D02*
X11035500Y-14605000D01*
X10985500Y-14809000D02*
X10985500Y-14909000D01*
X10935500Y-14859000D02*
X11035500Y-14859000D01*
X11049000Y-5211500D02*
X11049000Y-5311500D01*
X10999000Y-5261500D02*
X11099000Y-5261500D01*
X11049000Y-5465500D02*
X11049000Y-5565500D01*
X10999000Y-5515500D02*
X11099000Y-5515500D01*
X11239500Y-14555000D02*
X11239500Y-14655000D01*
X11189500Y-14605000D02*
X11289500Y-14605000D01*
X11239500Y-14809000D02*
X11239500Y-14909000D01*
X11189500Y-14859000D02*
X11289500Y-14859000D01*
X11303000Y-5211500D02*
X11303000Y-5311500D01*
X11253000Y-5261500D02*
X11353000Y-5261500D01*
X11303000Y-5465500D02*
X11303000Y-5565500D01*
X11253000Y-5515500D02*
X11353000Y-5515500D01*
X13398500Y-7633500D02*
X13398500Y-7733500D01*
X13348500Y-7683500D02*
X13448500Y-7683500D01*
X13398500Y-7887500D02*
X13398500Y-7987500D01*
X13348500Y-7937500D02*
X13448500Y-7937500D01*
X13398500Y-8141500D02*
X13398500Y-8241500D01*
X13348500Y-8191500D02*
X13448500Y-8191500D01*
X13398500Y-8395500D02*
X13398500Y-8495500D01*
X13348500Y-8445500D02*
X13448500Y-8445500D01*
X13398500Y-8649500D02*
X13398500Y-8749500D01*
X13348500Y-8699500D02*
X13448500Y-8699500D01*
X13398500Y-8903500D02*
X13398500Y-9003500D01*
X13348500Y-8953500D02*
X13448500Y-8953500D01*
X13398500Y-9157500D02*
X13398500Y-9257500D01*
X13348500Y-9207500D02*
X13448500Y-9207500D01*
X13398500Y-9411500D02*
X13398500Y-9511500D01*
X13348500Y-9461500D02*
X13448500Y-9461500D01*
X13398500Y-9665500D02*
X13398500Y-9765500D01*
X13348500Y-9715500D02*
X13448500Y-9715500D01*
X13398500Y-9919500D02*
X13398500Y-10019500D01*
X13348500Y-9969500D02*
X13448500Y-9969500D01*
X13398500Y-10173500D02*
X13398500Y-10273500D01*
X13348500Y-10223500D02*
X13448500Y-10223500D01*
X13398500Y-10427500D02*
X13398500Y-10527500D01*
X13348500Y-10477500D02*
X13448500Y-10477500D01*
X13398500Y-10681500D02*
X13398500Y-10781500D01*
X13348500Y-10731500D02*
X13448500Y-10731500D01*
X13398500Y-10935500D02*
X13398500Y-11035500D01*
X13348500Y-10985500D02*
X13448500Y-10985500D01*
X13398500Y-11189500D02*
X13398500Y-11289500D01*
X13348500Y-11239500D02*
X13448500Y-11239500D01*
X13398500Y-11443500D02*
X13398500Y-11543500D01*
X13348500Y-11493500D02*
X13448500Y-11493500D01*
X13398500Y-11697500D02*
X13398500Y-11797500D01*
X13348500Y-11747500D02*
X13448500Y-11747500D01*
X13398500Y-11951500D02*
X13398500Y-12051500D01*
X13348500Y-12001500D02*
X13448500Y-12001500D01*
X13398500Y-12205500D02*
X13398500Y-12305500D01*
X13348500Y-12255500D02*
X13448500Y-12255500D01*
X13398500Y-12459500D02*
X13398500Y-12559500D01*
X13348500Y-12509500D02*
X13448500Y-12509500D01*
X13652500Y-7633500D02*
X13652500Y-7733500D01*
X13602500Y-7683500D02*
X13702500Y-7683500D01*
X13652500Y-7887500D02*
X13652500Y-7987500D01*
X13602500Y-7937500D02*
X13702500Y-7937500D01*
X13652500Y-8141500D02*
X13652500Y-8241500D01*
X13602500Y-8191500D02*
X13702500Y-8191500D01*
X13652500Y-8395500D02*
X13652500Y-8495500D01*
X13602500Y-8445500D02*
X13702500Y-8445500D01*
X13652500Y-8649500D02*
X13652500Y-8749500D01*
X13602500Y-8699500D02*
X13702500Y-8699500D01*
X13652500Y-8903500D02*
X13652500Y-9003500D01*
X13602500Y-8953500D02*
X13702500Y-8953500D01*
X13652500Y-9157500D02*
X13652500Y-9257500D01*
X13602500Y-9207500D02*
X13702500Y-9207500D01*
X13652500Y-9411500D02*
X13652500Y-9511500D01*
X13602500Y-9461500D02*
X13702500Y-9461500D01*
X13652500Y-9665500D02*
X13652500Y-9765500D01*
X13602500Y-9715500D02*
X13702500Y-9715500D01*
X13652500Y-9919500D02*
X13652500Y-10019500D01*
X13602500Y-9969500D02*
X13702500Y-9969500D01*
X13652500Y-10173500D02*
X13652500Y-10273500D01*
X13602500Y-10223500D02*
X13702500Y-10223500D01*
X13652500Y-10427500D02*
X13652500Y-10527500D01*
X13602500Y-10477500D02*
X13702500Y-10477500D01*
X13652500Y-10681500D02*
X13652500Y-10781500D01*
X13602500Y-10731500D02*
X13702500Y-10731500D01*
X13652500Y-10935500D02*
X13652500Y-11035500D01*
X13602500Y-10985500D02*
X13702500Y-10985500D01*
X13652500Y-11189500D02*
X13652500Y-11289500D01*
X13602500Y-11239500D02*
X13702500Y-11239500D01*
X13652500Y-11443500D02*
X13652500Y-11543500D01*
X13602500Y-11493500D02*
X13702500Y-11493500D01*
X13652500Y-11697500D02*
X13652500Y-11797500D01*
X13602500Y-11747500D02*
X13702500Y-11747500D01*
X13652500Y-11951500D02*
X13652500Y-12051500D01*
X13602500Y-12001500D02*
X13702500Y-12001500D01*
X13652500Y-12205500D02*
X13652500Y-12305500D01*
X13602500Y-12255500D02*
X13702500Y-12255500D01*
X13652500Y-12459500D02*
X13652500Y-12559500D01*
X13602500Y-12509500D02*
X13702500Y-12509500D01*
D11*
X4131777Y-15363484D02*
X4131777Y-15163484D01*
X4131777Y-15163484D02*
X4179396Y-15163484D01*
X4179396Y-15163484D02*
X4207967Y-15173008D01*
X4207967Y-15173008D02*
X4227015Y-15192055D01*
X4227015Y-15192055D02*
X4236539Y-15211103D01*
X4236539Y-15211103D02*
X4246063Y-15249198D01*
X4246063Y-15249198D02*
X4246063Y-15277769D01*
X4246063Y-15277769D02*
X4236539Y-15315865D01*
X4236539Y-15315865D02*
X4227015Y-15334912D01*
X4227015Y-15334912D02*
X4207967Y-15353960D01*
X4207967Y-15353960D02*
X4179396Y-15363484D01*
X4179396Y-15363484D02*
X4131777Y-15363484D01*
X4331777Y-15363484D02*
X4331777Y-15230150D01*
X4331777Y-15268246D02*
X4341301Y-15249198D01*
X4341301Y-15249198D02*
X4350824Y-15239674D01*
X4350824Y-15239674D02*
X4369872Y-15230150D01*
X4369872Y-15230150D02*
X4388920Y-15230150D01*
X4455586Y-15363484D02*
X4455586Y-15230150D01*
X4455586Y-15163484D02*
X4446063Y-15173008D01*
X4446063Y-15173008D02*
X4455586Y-15182531D01*
X4455586Y-15182531D02*
X4465110Y-15173008D01*
X4465110Y-15173008D02*
X4455586Y-15163484D01*
X4455586Y-15163484D02*
X4455586Y-15182531D01*
X4579396Y-15363484D02*
X4560348Y-15353960D01*
X4560348Y-15353960D02*
X4550824Y-15334912D01*
X4550824Y-15334912D02*
X4550824Y-15163484D01*
X4684158Y-15363484D02*
X4665110Y-15353960D01*
X4665110Y-15353960D02*
X4655586Y-15334912D01*
X4655586Y-15334912D02*
X4655586Y-15163484D01*
X4912729Y-15363484D02*
X4912729Y-15163484D01*
X4912729Y-15163484D02*
X4979396Y-15306341D01*
X4979396Y-15306341D02*
X5046063Y-15163484D01*
X5046063Y-15163484D02*
X5046063Y-15363484D01*
X5227015Y-15363484D02*
X5227015Y-15258722D01*
X5227015Y-15258722D02*
X5217491Y-15239674D01*
X5217491Y-15239674D02*
X5198444Y-15230150D01*
X5198444Y-15230150D02*
X5160348Y-15230150D01*
X5160348Y-15230150D02*
X5141301Y-15239674D01*
X5227015Y-15353960D02*
X5207967Y-15363484D01*
X5207967Y-15363484D02*
X5160348Y-15363484D01*
X5160348Y-15363484D02*
X5141301Y-15353960D01*
X5141301Y-15353960D02*
X5131777Y-15334912D01*
X5131777Y-15334912D02*
X5131777Y-15315865D01*
X5131777Y-15315865D02*
X5141301Y-15296817D01*
X5141301Y-15296817D02*
X5160348Y-15287293D01*
X5160348Y-15287293D02*
X5207967Y-15287293D01*
X5207967Y-15287293D02*
X5227015Y-15277769D01*
X5322253Y-15230150D02*
X5322253Y-15430150D01*
X5322253Y-15239674D02*
X5341301Y-15230150D01*
X5341301Y-15230150D02*
X5379396Y-15230150D01*
X5379396Y-15230150D02*
X5398444Y-15239674D01*
X5398444Y-15239674D02*
X5407967Y-15249198D01*
X5407967Y-15249198D02*
X5417491Y-15268246D01*
X5417491Y-15268246D02*
X5417491Y-15325388D01*
X5417491Y-15325388D02*
X5407967Y-15344436D01*
X5407967Y-15344436D02*
X5398444Y-15353960D01*
X5398444Y-15353960D02*
X5379396Y-15363484D01*
X5379396Y-15363484D02*
X5341301Y-15363484D01*
X5341301Y-15363484D02*
X5322253Y-15353960D01*
X5503205Y-15344436D02*
X5512729Y-15353960D01*
X5512729Y-15353960D02*
X5503205Y-15363484D01*
X5503205Y-15363484D02*
X5493682Y-15353960D01*
X5493682Y-15353960D02*
X5503205Y-15344436D01*
X5503205Y-15344436D02*
X5503205Y-15363484D01*
X5503205Y-15239674D02*
X5512729Y-15249198D01*
X5512729Y-15249198D02*
X5503205Y-15258722D01*
X5503205Y-15258722D02*
X5493682Y-15249198D01*
X5493682Y-15249198D02*
X5503205Y-15239674D01*
X5503205Y-15239674D02*
X5503205Y-15258722D01*
D12*
X3841000Y-15677000D02*
X3871000Y-15707000D01*
X3871000Y-15677000D02*
X3841000Y-15707000D01*
D11*
X4169872Y-15583484D02*
X4188920Y-15583484D01*
X4188920Y-15583484D02*
X4207967Y-15593008D01*
X4207967Y-15593008D02*
X4217491Y-15602531D01*
X4217491Y-15602531D02*
X4227015Y-15621579D01*
X4227015Y-15621579D02*
X4236539Y-15659674D01*
X4236539Y-15659674D02*
X4236539Y-15707293D01*
X4236539Y-15707293D02*
X4227015Y-15745388D01*
X4227015Y-15745388D02*
X4217491Y-15764436D01*
X4217491Y-15764436D02*
X4207967Y-15773960D01*
X4207967Y-15773960D02*
X4188920Y-15783484D01*
X4188920Y-15783484D02*
X4169872Y-15783484D01*
X4169872Y-15783484D02*
X4150824Y-15773960D01*
X4150824Y-15773960D02*
X4141301Y-15764436D01*
X4141301Y-15764436D02*
X4131777Y-15745388D01*
X4131777Y-15745388D02*
X4122253Y-15707293D01*
X4122253Y-15707293D02*
X4122253Y-15659674D01*
X4122253Y-15659674D02*
X4131777Y-15621579D01*
X4131777Y-15621579D02*
X4141301Y-15602531D01*
X4141301Y-15602531D02*
X4150824Y-15593008D01*
X4150824Y-15593008D02*
X4169872Y-15583484D01*
X4322253Y-15764436D02*
X4331777Y-15773960D01*
X4331777Y-15773960D02*
X4322253Y-15783484D01*
X4322253Y-15783484D02*
X4312729Y-15773960D01*
X4312729Y-15773960D02*
X4322253Y-15764436D01*
X4322253Y-15764436D02*
X4322253Y-15783484D01*
X4398444Y-15583484D02*
X4522253Y-15583484D01*
X4522253Y-15583484D02*
X4455586Y-15659674D01*
X4455586Y-15659674D02*
X4484158Y-15659674D01*
X4484158Y-15659674D02*
X4503205Y-15669198D01*
X4503205Y-15669198D02*
X4512729Y-15678722D01*
X4512729Y-15678722D02*
X4522253Y-15697769D01*
X4522253Y-15697769D02*
X4522253Y-15745388D01*
X4522253Y-15745388D02*
X4512729Y-15764436D01*
X4512729Y-15764436D02*
X4503205Y-15773960D01*
X4503205Y-15773960D02*
X4484158Y-15783484D01*
X4484158Y-15783484D02*
X4427015Y-15783484D01*
X4427015Y-15783484D02*
X4407967Y-15773960D01*
X4407967Y-15773960D02*
X4398444Y-15764436D01*
X4646063Y-15583484D02*
X4665110Y-15583484D01*
X4665110Y-15583484D02*
X4684158Y-15593008D01*
X4684158Y-15593008D02*
X4693682Y-15602531D01*
X4693682Y-15602531D02*
X4703205Y-15621579D01*
X4703205Y-15621579D02*
X4712729Y-15659674D01*
X4712729Y-15659674D02*
X4712729Y-15707293D01*
X4712729Y-15707293D02*
X4703205Y-15745388D01*
X4703205Y-15745388D02*
X4693682Y-15764436D01*
X4693682Y-15764436D02*
X4684158Y-15773960D01*
X4684158Y-15773960D02*
X4665110Y-15783484D01*
X4665110Y-15783484D02*
X4646063Y-15783484D01*
X4646063Y-15783484D02*
X4627015Y-15773960D01*
X4627015Y-15773960D02*
X4617491Y-15764436D01*
X4617491Y-15764436D02*
X4607967Y-15745388D01*
X4607967Y-15745388D02*
X4598444Y-15707293D01*
X4598444Y-15707293D02*
X4598444Y-15659674D01*
X4598444Y-15659674D02*
X4607967Y-15621579D01*
X4607967Y-15621579D02*
X4617491Y-15602531D01*
X4617491Y-15602531D02*
X4627015Y-15593008D01*
X4627015Y-15593008D02*
X4646063Y-15583484D01*
X4836539Y-15583484D02*
X4855586Y-15583484D01*
X4855586Y-15583484D02*
X4874634Y-15593008D01*
X4874634Y-15593008D02*
X4884158Y-15602531D01*
X4884158Y-15602531D02*
X4893682Y-15621579D01*
X4893682Y-15621579D02*
X4903205Y-15659674D01*
X4903205Y-15659674D02*
X4903205Y-15707293D01*
X4903205Y-15707293D02*
X4893682Y-15745388D01*
X4893682Y-15745388D02*
X4884158Y-15764436D01*
X4884158Y-15764436D02*
X4874634Y-15773960D01*
X4874634Y-15773960D02*
X4855586Y-15783484D01*
X4855586Y-15783484D02*
X4836539Y-15783484D01*
X4836539Y-15783484D02*
X4817491Y-15773960D01*
X4817491Y-15773960D02*
X4807967Y-15764436D01*
X4807967Y-15764436D02*
X4798444Y-15745388D01*
X4798444Y-15745388D02*
X4788920Y-15707293D01*
X4788920Y-15707293D02*
X4788920Y-15659674D01*
X4788920Y-15659674D02*
X4798444Y-15621579D01*
X4798444Y-15621579D02*
X4807967Y-15602531D01*
X4807967Y-15602531D02*
X4817491Y-15593008D01*
X4817491Y-15593008D02*
X4836539Y-15583484D01*
X4988920Y-15783484D02*
X4988920Y-15650150D01*
X4988920Y-15669198D02*
X4998444Y-15659674D01*
X4998444Y-15659674D02*
X5017491Y-15650150D01*
X5017491Y-15650150D02*
X5046063Y-15650150D01*
X5046063Y-15650150D02*
X5065110Y-15659674D01*
X5065110Y-15659674D02*
X5074634Y-15678722D01*
X5074634Y-15678722D02*
X5074634Y-15783484D01*
X5074634Y-15678722D02*
X5084158Y-15659674D01*
X5084158Y-15659674D02*
X5103205Y-15650150D01*
X5103205Y-15650150D02*
X5131777Y-15650150D01*
X5131777Y-15650150D02*
X5150825Y-15659674D01*
X5150825Y-15659674D02*
X5160348Y-15678722D01*
X5160348Y-15678722D02*
X5160348Y-15783484D01*
X5255586Y-15783484D02*
X5255586Y-15650150D01*
X5255586Y-15669198D02*
X5265110Y-15659674D01*
X5265110Y-15659674D02*
X5284158Y-15650150D01*
X5284158Y-15650150D02*
X5312729Y-15650150D01*
X5312729Y-15650150D02*
X5331777Y-15659674D01*
X5331777Y-15659674D02*
X5341301Y-15678722D01*
X5341301Y-15678722D02*
X5341301Y-15783484D01*
X5341301Y-15678722D02*
X5350825Y-15659674D01*
X5350825Y-15659674D02*
X5369872Y-15650150D01*
X5369872Y-15650150D02*
X5398444Y-15650150D01*
X5398444Y-15650150D02*
X5417491Y-15659674D01*
X5417491Y-15659674D02*
X5427015Y-15678722D01*
X5427015Y-15678722D02*
X5427015Y-15783484D01*
X5817491Y-15573960D02*
X5646063Y-15831103D01*
X6074634Y-15583484D02*
X6093682Y-15583484D01*
X6093682Y-15583484D02*
X6112729Y-15593008D01*
X6112729Y-15593008D02*
X6122253Y-15602531D01*
X6122253Y-15602531D02*
X6131777Y-15621579D01*
X6131777Y-15621579D02*
X6141301Y-15659674D01*
X6141301Y-15659674D02*
X6141301Y-15707293D01*
X6141301Y-15707293D02*
X6131777Y-15745388D01*
X6131777Y-15745388D02*
X6122253Y-15764436D01*
X6122253Y-15764436D02*
X6112729Y-15773960D01*
X6112729Y-15773960D02*
X6093682Y-15783484D01*
X6093682Y-15783484D02*
X6074634Y-15783484D01*
X6074634Y-15783484D02*
X6055586Y-15773960D01*
X6055586Y-15773960D02*
X6046063Y-15764436D01*
X6046063Y-15764436D02*
X6036539Y-15745388D01*
X6036539Y-15745388D02*
X6027015Y-15707293D01*
X6027015Y-15707293D02*
X6027015Y-15659674D01*
X6027015Y-15659674D02*
X6036539Y-15621579D01*
X6036539Y-15621579D02*
X6046063Y-15602531D01*
X6046063Y-15602531D02*
X6055586Y-15593008D01*
X6055586Y-15593008D02*
X6074634Y-15583484D01*
X6227015Y-15764436D02*
X6236539Y-15773960D01*
X6236539Y-15773960D02*
X6227015Y-15783484D01*
X6227015Y-15783484D02*
X6217491Y-15773960D01*
X6217491Y-15773960D02*
X6227015Y-15764436D01*
X6227015Y-15764436D02*
X6227015Y-15783484D01*
X6360348Y-15583484D02*
X6379396Y-15583484D01*
X6379396Y-15583484D02*
X6398444Y-15593008D01*
X6398444Y-15593008D02*
X6407967Y-15602531D01*
X6407967Y-15602531D02*
X6417491Y-15621579D01*
X6417491Y-15621579D02*
X6427015Y-15659674D01*
X6427015Y-15659674D02*
X6427015Y-15707293D01*
X6427015Y-15707293D02*
X6417491Y-15745388D01*
X6417491Y-15745388D02*
X6407967Y-15764436D01*
X6407967Y-15764436D02*
X6398444Y-15773960D01*
X6398444Y-15773960D02*
X6379396Y-15783484D01*
X6379396Y-15783484D02*
X6360348Y-15783484D01*
X6360348Y-15783484D02*
X6341301Y-15773960D01*
X6341301Y-15773960D02*
X6331777Y-15764436D01*
X6331777Y-15764436D02*
X6322253Y-15745388D01*
X6322253Y-15745388D02*
X6312729Y-15707293D01*
X6312729Y-15707293D02*
X6312729Y-15659674D01*
X6312729Y-15659674D02*
X6322253Y-15621579D01*
X6322253Y-15621579D02*
X6331777Y-15602531D01*
X6331777Y-15602531D02*
X6341301Y-15593008D01*
X6341301Y-15593008D02*
X6360348Y-15583484D01*
X6617491Y-15783484D02*
X6503206Y-15783484D01*
X6560348Y-15783484D02*
X6560348Y-15583484D01*
X6560348Y-15583484D02*
X6541301Y-15612055D01*
X6541301Y-15612055D02*
X6522253Y-15631103D01*
X6522253Y-15631103D02*
X6503206Y-15640627D01*
X6807967Y-15783484D02*
X6693682Y-15783484D01*
X6750825Y-15783484D02*
X6750825Y-15583484D01*
X6750825Y-15583484D02*
X6731777Y-15612055D01*
X6731777Y-15612055D02*
X6712729Y-15631103D01*
X6712729Y-15631103D02*
X6693682Y-15640627D01*
X6922253Y-15669198D02*
X6903206Y-15659674D01*
X6903206Y-15659674D02*
X6893682Y-15650150D01*
X6893682Y-15650150D02*
X6884158Y-15631103D01*
X6884158Y-15631103D02*
X6884158Y-15621579D01*
X6884158Y-15621579D02*
X6893682Y-15602531D01*
X6893682Y-15602531D02*
X6903206Y-15593008D01*
X6903206Y-15593008D02*
X6922253Y-15583484D01*
X6922253Y-15583484D02*
X6960348Y-15583484D01*
X6960348Y-15583484D02*
X6979396Y-15593008D01*
X6979396Y-15593008D02*
X6988920Y-15602531D01*
X6988920Y-15602531D02*
X6998444Y-15621579D01*
X6998444Y-15621579D02*
X6998444Y-15631103D01*
X6998444Y-15631103D02*
X6988920Y-15650150D01*
X6988920Y-15650150D02*
X6979396Y-15659674D01*
X6979396Y-15659674D02*
X6960348Y-15669198D01*
X6960348Y-15669198D02*
X6922253Y-15669198D01*
X6922253Y-15669198D02*
X6903206Y-15678722D01*
X6903206Y-15678722D02*
X6893682Y-15688246D01*
X6893682Y-15688246D02*
X6884158Y-15707293D01*
X6884158Y-15707293D02*
X6884158Y-15745388D01*
X6884158Y-15745388D02*
X6893682Y-15764436D01*
X6893682Y-15764436D02*
X6903206Y-15773960D01*
X6903206Y-15773960D02*
X6922253Y-15783484D01*
X6922253Y-15783484D02*
X6960348Y-15783484D01*
X6960348Y-15783484D02*
X6979396Y-15773960D01*
X6979396Y-15773960D02*
X6988920Y-15764436D01*
X6988920Y-15764436D02*
X6998444Y-15745388D01*
X6998444Y-15745388D02*
X6998444Y-15707293D01*
X6998444Y-15707293D02*
X6988920Y-15688246D01*
X6988920Y-15688246D02*
X6979396Y-15678722D01*
X6979396Y-15678722D02*
X6960348Y-15669198D01*
X7074634Y-15583484D02*
X7074634Y-15621579D01*
X7150825Y-15583484D02*
X7150825Y-15621579D01*
X7446063Y-15859674D02*
X7436539Y-15850150D01*
X7436539Y-15850150D02*
X7417491Y-15821579D01*
X7417491Y-15821579D02*
X7407968Y-15802531D01*
X7407968Y-15802531D02*
X7398444Y-15773960D01*
X7398444Y-15773960D02*
X7388920Y-15726341D01*
X7388920Y-15726341D02*
X7388920Y-15688246D01*
X7388920Y-15688246D02*
X7398444Y-15640627D01*
X7398444Y-15640627D02*
X7407968Y-15612055D01*
X7407968Y-15612055D02*
X7417491Y-15593008D01*
X7417491Y-15593008D02*
X7436539Y-15564436D01*
X7436539Y-15564436D02*
X7446063Y-15554912D01*
X7503206Y-15583484D02*
X7636539Y-15583484D01*
X7636539Y-15583484D02*
X7550825Y-15783484D01*
X7817491Y-15783484D02*
X7703206Y-15783484D01*
X7760348Y-15783484D02*
X7760348Y-15583484D01*
X7760348Y-15583484D02*
X7741301Y-15612055D01*
X7741301Y-15612055D02*
X7722253Y-15631103D01*
X7722253Y-15631103D02*
X7703206Y-15640627D01*
X8055587Y-15783484D02*
X8055587Y-15583484D01*
X8141301Y-15783484D02*
X8141301Y-15678722D01*
X8141301Y-15678722D02*
X8131777Y-15659674D01*
X8131777Y-15659674D02*
X8112730Y-15650150D01*
X8112730Y-15650150D02*
X8084158Y-15650150D01*
X8084158Y-15650150D02*
X8065110Y-15659674D01*
X8065110Y-15659674D02*
X8055587Y-15669198D01*
X8265110Y-15783484D02*
X8246063Y-15773960D01*
X8246063Y-15773960D02*
X8236539Y-15764436D01*
X8236539Y-15764436D02*
X8227015Y-15745388D01*
X8227015Y-15745388D02*
X8227015Y-15688246D01*
X8227015Y-15688246D02*
X8236539Y-15669198D01*
X8236539Y-15669198D02*
X8246063Y-15659674D01*
X8246063Y-15659674D02*
X8265110Y-15650150D01*
X8265110Y-15650150D02*
X8293682Y-15650150D01*
X8293682Y-15650150D02*
X8312730Y-15659674D01*
X8312730Y-15659674D02*
X8322253Y-15669198D01*
X8322253Y-15669198D02*
X8331777Y-15688246D01*
X8331777Y-15688246D02*
X8331777Y-15745388D01*
X8331777Y-15745388D02*
X8322253Y-15764436D01*
X8322253Y-15764436D02*
X8312730Y-15773960D01*
X8312730Y-15773960D02*
X8293682Y-15783484D01*
X8293682Y-15783484D02*
X8265110Y-15783484D01*
X8446063Y-15783484D02*
X8427015Y-15773960D01*
X8427015Y-15773960D02*
X8417492Y-15754912D01*
X8417492Y-15754912D02*
X8417492Y-15583484D01*
X8598444Y-15773960D02*
X8579396Y-15783484D01*
X8579396Y-15783484D02*
X8541301Y-15783484D01*
X8541301Y-15783484D02*
X8522253Y-15773960D01*
X8522253Y-15773960D02*
X8512730Y-15754912D01*
X8512730Y-15754912D02*
X8512730Y-15678722D01*
X8512730Y-15678722D02*
X8522253Y-15659674D01*
X8522253Y-15659674D02*
X8541301Y-15650150D01*
X8541301Y-15650150D02*
X8579396Y-15650150D01*
X8579396Y-15650150D02*
X8598444Y-15659674D01*
X8598444Y-15659674D02*
X8607968Y-15678722D01*
X8607968Y-15678722D02*
X8607968Y-15697769D01*
X8607968Y-15697769D02*
X8512730Y-15716817D01*
X8684158Y-15773960D02*
X8703206Y-15783484D01*
X8703206Y-15783484D02*
X8741301Y-15783484D01*
X8741301Y-15783484D02*
X8760349Y-15773960D01*
X8760349Y-15773960D02*
X8769873Y-15754912D01*
X8769873Y-15754912D02*
X8769873Y-15745388D01*
X8769873Y-15745388D02*
X8760349Y-15726341D01*
X8760349Y-15726341D02*
X8741301Y-15716817D01*
X8741301Y-15716817D02*
X8712730Y-15716817D01*
X8712730Y-15716817D02*
X8693682Y-15707293D01*
X8693682Y-15707293D02*
X8684158Y-15688246D01*
X8684158Y-15688246D02*
X8684158Y-15678722D01*
X8684158Y-15678722D02*
X8693682Y-15659674D01*
X8693682Y-15659674D02*
X8712730Y-15650150D01*
X8712730Y-15650150D02*
X8741301Y-15650150D01*
X8741301Y-15650150D02*
X8760349Y-15659674D01*
X8836539Y-15859674D02*
X8846063Y-15850150D01*
X8846063Y-15850150D02*
X8865111Y-15821579D01*
X8865111Y-15821579D02*
X8874634Y-15802531D01*
X8874634Y-15802531D02*
X8884158Y-15773960D01*
X8884158Y-15773960D02*
X8893682Y-15726341D01*
X8893682Y-15726341D02*
X8893682Y-15688246D01*
X8893682Y-15688246D02*
X8884158Y-15640627D01*
X8884158Y-15640627D02*
X8874634Y-15612055D01*
X8874634Y-15612055D02*
X8865111Y-15593008D01*
X8865111Y-15593008D02*
X8846063Y-15564436D01*
X8846063Y-15564436D02*
X8836539Y-15554912D01*
D12*
X3871000Y-15956000D02*
G75*
G02*
X3791000Y-15956000I-40000J0D01*
G01*
X3791000Y-15956000D02*
G75*
G02*
X3871000Y-15956000I40000J0D01*
G01*
D11*
X4169872Y-15847484D02*
X4188920Y-15847484D01*
X4188920Y-15847484D02*
X4207967Y-15857008D01*
X4207967Y-15857008D02*
X4217491Y-15866531D01*
X4217491Y-15866531D02*
X4227015Y-15885579D01*
X4227015Y-15885579D02*
X4236539Y-15923674D01*
X4236539Y-15923674D02*
X4236539Y-15971293D01*
X4236539Y-15971293D02*
X4227015Y-16009388D01*
X4227015Y-16009388D02*
X4217491Y-16028436D01*
X4217491Y-16028436D02*
X4207967Y-16037960D01*
X4207967Y-16037960D02*
X4188920Y-16047484D01*
X4188920Y-16047484D02*
X4169872Y-16047484D01*
X4169872Y-16047484D02*
X4150824Y-16037960D01*
X4150824Y-16037960D02*
X4141301Y-16028436D01*
X4141301Y-16028436D02*
X4131777Y-16009388D01*
X4131777Y-16009388D02*
X4122253Y-15971293D01*
X4122253Y-15971293D02*
X4122253Y-15923674D01*
X4122253Y-15923674D02*
X4131777Y-15885579D01*
X4131777Y-15885579D02*
X4141301Y-15866531D01*
X4141301Y-15866531D02*
X4150824Y-15857008D01*
X4150824Y-15857008D02*
X4169872Y-15847484D01*
X4322253Y-16028436D02*
X4331777Y-16037960D01*
X4331777Y-16037960D02*
X4322253Y-16047484D01*
X4322253Y-16047484D02*
X4312729Y-16037960D01*
X4312729Y-16037960D02*
X4322253Y-16028436D01*
X4322253Y-16028436D02*
X4322253Y-16047484D01*
X4446063Y-15933198D02*
X4427015Y-15923674D01*
X4427015Y-15923674D02*
X4417491Y-15914150D01*
X4417491Y-15914150D02*
X4407967Y-15895103D01*
X4407967Y-15895103D02*
X4407967Y-15885579D01*
X4407967Y-15885579D02*
X4417491Y-15866531D01*
X4417491Y-15866531D02*
X4427015Y-15857008D01*
X4427015Y-15857008D02*
X4446063Y-15847484D01*
X4446063Y-15847484D02*
X4484158Y-15847484D01*
X4484158Y-15847484D02*
X4503205Y-15857008D01*
X4503205Y-15857008D02*
X4512729Y-15866531D01*
X4512729Y-15866531D02*
X4522253Y-15885579D01*
X4522253Y-15885579D02*
X4522253Y-15895103D01*
X4522253Y-15895103D02*
X4512729Y-15914150D01*
X4512729Y-15914150D02*
X4503205Y-15923674D01*
X4503205Y-15923674D02*
X4484158Y-15933198D01*
X4484158Y-15933198D02*
X4446063Y-15933198D01*
X4446063Y-15933198D02*
X4427015Y-15942722D01*
X4427015Y-15942722D02*
X4417491Y-15952246D01*
X4417491Y-15952246D02*
X4407967Y-15971293D01*
X4407967Y-15971293D02*
X4407967Y-16009388D01*
X4407967Y-16009388D02*
X4417491Y-16028436D01*
X4417491Y-16028436D02*
X4427015Y-16037960D01*
X4427015Y-16037960D02*
X4446063Y-16047484D01*
X4446063Y-16047484D02*
X4484158Y-16047484D01*
X4484158Y-16047484D02*
X4503205Y-16037960D01*
X4503205Y-16037960D02*
X4512729Y-16028436D01*
X4512729Y-16028436D02*
X4522253Y-16009388D01*
X4522253Y-16009388D02*
X4522253Y-15971293D01*
X4522253Y-15971293D02*
X4512729Y-15952246D01*
X4512729Y-15952246D02*
X4503205Y-15942722D01*
X4503205Y-15942722D02*
X4484158Y-15933198D01*
X4646063Y-15847484D02*
X4665110Y-15847484D01*
X4665110Y-15847484D02*
X4684158Y-15857008D01*
X4684158Y-15857008D02*
X4693682Y-15866531D01*
X4693682Y-15866531D02*
X4703205Y-15885579D01*
X4703205Y-15885579D02*
X4712729Y-15923674D01*
X4712729Y-15923674D02*
X4712729Y-15971293D01*
X4712729Y-15971293D02*
X4703205Y-16009388D01*
X4703205Y-16009388D02*
X4693682Y-16028436D01*
X4693682Y-16028436D02*
X4684158Y-16037960D01*
X4684158Y-16037960D02*
X4665110Y-16047484D01*
X4665110Y-16047484D02*
X4646063Y-16047484D01*
X4646063Y-16047484D02*
X4627015Y-16037960D01*
X4627015Y-16037960D02*
X4617491Y-16028436D01*
X4617491Y-16028436D02*
X4607967Y-16009388D01*
X4607967Y-16009388D02*
X4598444Y-15971293D01*
X4598444Y-15971293D02*
X4598444Y-15923674D01*
X4598444Y-15923674D02*
X4607967Y-15885579D01*
X4607967Y-15885579D02*
X4617491Y-15866531D01*
X4617491Y-15866531D02*
X4627015Y-15857008D01*
X4627015Y-15857008D02*
X4646063Y-15847484D01*
X4836539Y-15847484D02*
X4855586Y-15847484D01*
X4855586Y-15847484D02*
X4874634Y-15857008D01*
X4874634Y-15857008D02*
X4884158Y-15866531D01*
X4884158Y-15866531D02*
X4893682Y-15885579D01*
X4893682Y-15885579D02*
X4903205Y-15923674D01*
X4903205Y-15923674D02*
X4903205Y-15971293D01*
X4903205Y-15971293D02*
X4893682Y-16009388D01*
X4893682Y-16009388D02*
X4884158Y-16028436D01*
X4884158Y-16028436D02*
X4874634Y-16037960D01*
X4874634Y-16037960D02*
X4855586Y-16047484D01*
X4855586Y-16047484D02*
X4836539Y-16047484D01*
X4836539Y-16047484D02*
X4817491Y-16037960D01*
X4817491Y-16037960D02*
X4807967Y-16028436D01*
X4807967Y-16028436D02*
X4798444Y-16009388D01*
X4798444Y-16009388D02*
X4788920Y-15971293D01*
X4788920Y-15971293D02*
X4788920Y-15923674D01*
X4788920Y-15923674D02*
X4798444Y-15885579D01*
X4798444Y-15885579D02*
X4807967Y-15866531D01*
X4807967Y-15866531D02*
X4817491Y-15857008D01*
X4817491Y-15857008D02*
X4836539Y-15847484D01*
X4988920Y-16047484D02*
X4988920Y-15914150D01*
X4988920Y-15933198D02*
X4998444Y-15923674D01*
X4998444Y-15923674D02*
X5017491Y-15914150D01*
X5017491Y-15914150D02*
X5046063Y-15914150D01*
X5046063Y-15914150D02*
X5065110Y-15923674D01*
X5065110Y-15923674D02*
X5074634Y-15942722D01*
X5074634Y-15942722D02*
X5074634Y-16047484D01*
X5074634Y-15942722D02*
X5084158Y-15923674D01*
X5084158Y-15923674D02*
X5103205Y-15914150D01*
X5103205Y-15914150D02*
X5131777Y-15914150D01*
X5131777Y-15914150D02*
X5150825Y-15923674D01*
X5150825Y-15923674D02*
X5160348Y-15942722D01*
X5160348Y-15942722D02*
X5160348Y-16047484D01*
X5255586Y-16047484D02*
X5255586Y-15914150D01*
X5255586Y-15933198D02*
X5265110Y-15923674D01*
X5265110Y-15923674D02*
X5284158Y-15914150D01*
X5284158Y-15914150D02*
X5312729Y-15914150D01*
X5312729Y-15914150D02*
X5331777Y-15923674D01*
X5331777Y-15923674D02*
X5341301Y-15942722D01*
X5341301Y-15942722D02*
X5341301Y-16047484D01*
X5341301Y-15942722D02*
X5350825Y-15923674D01*
X5350825Y-15923674D02*
X5369872Y-15914150D01*
X5369872Y-15914150D02*
X5398444Y-15914150D01*
X5398444Y-15914150D02*
X5417491Y-15923674D01*
X5417491Y-15923674D02*
X5427015Y-15942722D01*
X5427015Y-15942722D02*
X5427015Y-16047484D01*
X5817491Y-15837960D02*
X5646063Y-16095103D01*
X6074634Y-15847484D02*
X6093682Y-15847484D01*
X6093682Y-15847484D02*
X6112729Y-15857008D01*
X6112729Y-15857008D02*
X6122253Y-15866531D01*
X6122253Y-15866531D02*
X6131777Y-15885579D01*
X6131777Y-15885579D02*
X6141301Y-15923674D01*
X6141301Y-15923674D02*
X6141301Y-15971293D01*
X6141301Y-15971293D02*
X6131777Y-16009388D01*
X6131777Y-16009388D02*
X6122253Y-16028436D01*
X6122253Y-16028436D02*
X6112729Y-16037960D01*
X6112729Y-16037960D02*
X6093682Y-16047484D01*
X6093682Y-16047484D02*
X6074634Y-16047484D01*
X6074634Y-16047484D02*
X6055586Y-16037960D01*
X6055586Y-16037960D02*
X6046063Y-16028436D01*
X6046063Y-16028436D02*
X6036539Y-16009388D01*
X6036539Y-16009388D02*
X6027015Y-15971293D01*
X6027015Y-15971293D02*
X6027015Y-15923674D01*
X6027015Y-15923674D02*
X6036539Y-15885579D01*
X6036539Y-15885579D02*
X6046063Y-15866531D01*
X6046063Y-15866531D02*
X6055586Y-15857008D01*
X6055586Y-15857008D02*
X6074634Y-15847484D01*
X6227015Y-16028436D02*
X6236539Y-16037960D01*
X6236539Y-16037960D02*
X6227015Y-16047484D01*
X6227015Y-16047484D02*
X6217491Y-16037960D01*
X6217491Y-16037960D02*
X6227015Y-16028436D01*
X6227015Y-16028436D02*
X6227015Y-16047484D01*
X6360348Y-15847484D02*
X6379396Y-15847484D01*
X6379396Y-15847484D02*
X6398444Y-15857008D01*
X6398444Y-15857008D02*
X6407967Y-15866531D01*
X6407967Y-15866531D02*
X6417491Y-15885579D01*
X6417491Y-15885579D02*
X6427015Y-15923674D01*
X6427015Y-15923674D02*
X6427015Y-15971293D01*
X6427015Y-15971293D02*
X6417491Y-16009388D01*
X6417491Y-16009388D02*
X6407967Y-16028436D01*
X6407967Y-16028436D02*
X6398444Y-16037960D01*
X6398444Y-16037960D02*
X6379396Y-16047484D01*
X6379396Y-16047484D02*
X6360348Y-16047484D01*
X6360348Y-16047484D02*
X6341301Y-16037960D01*
X6341301Y-16037960D02*
X6331777Y-16028436D01*
X6331777Y-16028436D02*
X6322253Y-16009388D01*
X6322253Y-16009388D02*
X6312729Y-15971293D01*
X6312729Y-15971293D02*
X6312729Y-15923674D01*
X6312729Y-15923674D02*
X6322253Y-15885579D01*
X6322253Y-15885579D02*
X6331777Y-15866531D01*
X6331777Y-15866531D02*
X6341301Y-15857008D01*
X6341301Y-15857008D02*
X6360348Y-15847484D01*
X6493682Y-15847484D02*
X6617491Y-15847484D01*
X6617491Y-15847484D02*
X6550825Y-15923674D01*
X6550825Y-15923674D02*
X6579396Y-15923674D01*
X6579396Y-15923674D02*
X6598444Y-15933198D01*
X6598444Y-15933198D02*
X6607967Y-15942722D01*
X6607967Y-15942722D02*
X6617491Y-15961769D01*
X6617491Y-15961769D02*
X6617491Y-16009388D01*
X6617491Y-16009388D02*
X6607967Y-16028436D01*
X6607967Y-16028436D02*
X6598444Y-16037960D01*
X6598444Y-16037960D02*
X6579396Y-16047484D01*
X6579396Y-16047484D02*
X6522253Y-16047484D01*
X6522253Y-16047484D02*
X6503206Y-16037960D01*
X6503206Y-16037960D02*
X6493682Y-16028436D01*
X6807967Y-16047484D02*
X6693682Y-16047484D01*
X6750825Y-16047484D02*
X6750825Y-15847484D01*
X6750825Y-15847484D02*
X6731777Y-15876055D01*
X6731777Y-15876055D02*
X6712729Y-15895103D01*
X6712729Y-15895103D02*
X6693682Y-15904627D01*
X6988920Y-15847484D02*
X6893682Y-15847484D01*
X6893682Y-15847484D02*
X6884158Y-15942722D01*
X6884158Y-15942722D02*
X6893682Y-15933198D01*
X6893682Y-15933198D02*
X6912729Y-15923674D01*
X6912729Y-15923674D02*
X6960348Y-15923674D01*
X6960348Y-15923674D02*
X6979396Y-15933198D01*
X6979396Y-15933198D02*
X6988920Y-15942722D01*
X6988920Y-15942722D02*
X6998444Y-15961769D01*
X6998444Y-15961769D02*
X6998444Y-16009388D01*
X6998444Y-16009388D02*
X6988920Y-16028436D01*
X6988920Y-16028436D02*
X6979396Y-16037960D01*
X6979396Y-16037960D02*
X6960348Y-16047484D01*
X6960348Y-16047484D02*
X6912729Y-16047484D01*
X6912729Y-16047484D02*
X6893682Y-16037960D01*
X6893682Y-16037960D02*
X6884158Y-16028436D01*
X7074634Y-15847484D02*
X7074634Y-15885579D01*
X7150825Y-15847484D02*
X7150825Y-15885579D01*
X7446063Y-16123674D02*
X7436539Y-16114150D01*
X7436539Y-16114150D02*
X7417491Y-16085579D01*
X7417491Y-16085579D02*
X7407968Y-16066531D01*
X7407968Y-16066531D02*
X7398444Y-16037960D01*
X7398444Y-16037960D02*
X7388920Y-15990341D01*
X7388920Y-15990341D02*
X7388920Y-15952246D01*
X7388920Y-15952246D02*
X7398444Y-15904627D01*
X7398444Y-15904627D02*
X7407968Y-15876055D01*
X7407968Y-15876055D02*
X7417491Y-15857008D01*
X7417491Y-15857008D02*
X7436539Y-15828436D01*
X7436539Y-15828436D02*
X7446063Y-15818912D01*
X7607968Y-15914150D02*
X7607968Y-16047484D01*
X7560348Y-15837960D02*
X7512729Y-15980817D01*
X7512729Y-15980817D02*
X7636539Y-15980817D01*
X7865110Y-16047484D02*
X7865110Y-15847484D01*
X7950825Y-16047484D02*
X7950825Y-15942722D01*
X7950825Y-15942722D02*
X7941301Y-15923674D01*
X7941301Y-15923674D02*
X7922253Y-15914150D01*
X7922253Y-15914150D02*
X7893682Y-15914150D01*
X7893682Y-15914150D02*
X7874634Y-15923674D01*
X7874634Y-15923674D02*
X7865110Y-15933198D01*
X8074634Y-16047484D02*
X8055587Y-16037960D01*
X8055587Y-16037960D02*
X8046063Y-16028436D01*
X8046063Y-16028436D02*
X8036539Y-16009388D01*
X8036539Y-16009388D02*
X8036539Y-15952246D01*
X8036539Y-15952246D02*
X8046063Y-15933198D01*
X8046063Y-15933198D02*
X8055587Y-15923674D01*
X8055587Y-15923674D02*
X8074634Y-15914150D01*
X8074634Y-15914150D02*
X8103206Y-15914150D01*
X8103206Y-15914150D02*
X8122253Y-15923674D01*
X8122253Y-15923674D02*
X8131777Y-15933198D01*
X8131777Y-15933198D02*
X8141301Y-15952246D01*
X8141301Y-15952246D02*
X8141301Y-16009388D01*
X8141301Y-16009388D02*
X8131777Y-16028436D01*
X8131777Y-16028436D02*
X8122253Y-16037960D01*
X8122253Y-16037960D02*
X8103206Y-16047484D01*
X8103206Y-16047484D02*
X8074634Y-16047484D01*
X8255587Y-16047484D02*
X8236539Y-16037960D01*
X8236539Y-16037960D02*
X8227015Y-16018912D01*
X8227015Y-16018912D02*
X8227015Y-15847484D01*
X8407968Y-16037960D02*
X8388920Y-16047484D01*
X8388920Y-16047484D02*
X8350825Y-16047484D01*
X8350825Y-16047484D02*
X8331777Y-16037960D01*
X8331777Y-16037960D02*
X8322253Y-16018912D01*
X8322253Y-16018912D02*
X8322253Y-15942722D01*
X8322253Y-15942722D02*
X8331777Y-15923674D01*
X8331777Y-15923674D02*
X8350825Y-15914150D01*
X8350825Y-15914150D02*
X8388920Y-15914150D01*
X8388920Y-15914150D02*
X8407968Y-15923674D01*
X8407968Y-15923674D02*
X8417492Y-15942722D01*
X8417492Y-15942722D02*
X8417492Y-15961769D01*
X8417492Y-15961769D02*
X8322253Y-15980817D01*
X8493682Y-16037960D02*
X8512730Y-16047484D01*
X8512730Y-16047484D02*
X8550825Y-16047484D01*
X8550825Y-16047484D02*
X8569873Y-16037960D01*
X8569873Y-16037960D02*
X8579396Y-16018912D01*
X8579396Y-16018912D02*
X8579396Y-16009388D01*
X8579396Y-16009388D02*
X8569873Y-15990341D01*
X8569873Y-15990341D02*
X8550825Y-15980817D01*
X8550825Y-15980817D02*
X8522253Y-15980817D01*
X8522253Y-15980817D02*
X8503206Y-15971293D01*
X8503206Y-15971293D02*
X8493682Y-15952246D01*
X8493682Y-15952246D02*
X8493682Y-15942722D01*
X8493682Y-15942722D02*
X8503206Y-15923674D01*
X8503206Y-15923674D02*
X8522253Y-15914150D01*
X8522253Y-15914150D02*
X8550825Y-15914150D01*
X8550825Y-15914150D02*
X8569873Y-15923674D01*
X8646063Y-16123674D02*
X8655587Y-16114150D01*
X8655587Y-16114150D02*
X8674634Y-16085579D01*
X8674634Y-16085579D02*
X8684158Y-16066531D01*
X8684158Y-16066531D02*
X8693682Y-16037960D01*
X8693682Y-16037960D02*
X8703206Y-15990341D01*
X8703206Y-15990341D02*
X8703206Y-15952246D01*
X8703206Y-15952246D02*
X8693682Y-15904627D01*
X8693682Y-15904627D02*
X8684158Y-15876055D01*
X8684158Y-15876055D02*
X8674634Y-15857008D01*
X8674634Y-15857008D02*
X8655587Y-15828436D01*
X8655587Y-15828436D02*
X8646063Y-15818912D01*
D12*
X3821000Y-16170000D02*
X3821000Y-16270000D01*
X3771000Y-16220000D02*
X3871000Y-16220000D01*
D11*
X4236539Y-16311484D02*
X4122253Y-16311484D01*
X4179396Y-16311484D02*
X4179396Y-16111484D01*
X4179396Y-16111484D02*
X4160348Y-16140055D01*
X4160348Y-16140055D02*
X4141301Y-16159103D01*
X4141301Y-16159103D02*
X4122253Y-16168627D01*
X4322253Y-16292436D02*
X4331777Y-16301960D01*
X4331777Y-16301960D02*
X4322253Y-16311484D01*
X4322253Y-16311484D02*
X4312729Y-16301960D01*
X4312729Y-16301960D02*
X4322253Y-16292436D01*
X4322253Y-16292436D02*
X4322253Y-16311484D01*
X4455586Y-16111484D02*
X4474634Y-16111484D01*
X4474634Y-16111484D02*
X4493682Y-16121008D01*
X4493682Y-16121008D02*
X4503205Y-16130531D01*
X4503205Y-16130531D02*
X4512729Y-16149579D01*
X4512729Y-16149579D02*
X4522253Y-16187674D01*
X4522253Y-16187674D02*
X4522253Y-16235293D01*
X4522253Y-16235293D02*
X4512729Y-16273388D01*
X4512729Y-16273388D02*
X4503205Y-16292436D01*
X4503205Y-16292436D02*
X4493682Y-16301960D01*
X4493682Y-16301960D02*
X4474634Y-16311484D01*
X4474634Y-16311484D02*
X4455586Y-16311484D01*
X4455586Y-16311484D02*
X4436539Y-16301960D01*
X4436539Y-16301960D02*
X4427015Y-16292436D01*
X4427015Y-16292436D02*
X4417491Y-16273388D01*
X4417491Y-16273388D02*
X4407967Y-16235293D01*
X4407967Y-16235293D02*
X4407967Y-16187674D01*
X4407967Y-16187674D02*
X4417491Y-16149579D01*
X4417491Y-16149579D02*
X4427015Y-16130531D01*
X4427015Y-16130531D02*
X4436539Y-16121008D01*
X4436539Y-16121008D02*
X4455586Y-16111484D01*
X4646063Y-16111484D02*
X4665110Y-16111484D01*
X4665110Y-16111484D02*
X4684158Y-16121008D01*
X4684158Y-16121008D02*
X4693682Y-16130531D01*
X4693682Y-16130531D02*
X4703205Y-16149579D01*
X4703205Y-16149579D02*
X4712729Y-16187674D01*
X4712729Y-16187674D02*
X4712729Y-16235293D01*
X4712729Y-16235293D02*
X4703205Y-16273388D01*
X4703205Y-16273388D02*
X4693682Y-16292436D01*
X4693682Y-16292436D02*
X4684158Y-16301960D01*
X4684158Y-16301960D02*
X4665110Y-16311484D01*
X4665110Y-16311484D02*
X4646063Y-16311484D01*
X4646063Y-16311484D02*
X4627015Y-16301960D01*
X4627015Y-16301960D02*
X4617491Y-16292436D01*
X4617491Y-16292436D02*
X4607967Y-16273388D01*
X4607967Y-16273388D02*
X4598444Y-16235293D01*
X4598444Y-16235293D02*
X4598444Y-16187674D01*
X4598444Y-16187674D02*
X4607967Y-16149579D01*
X4607967Y-16149579D02*
X4617491Y-16130531D01*
X4617491Y-16130531D02*
X4627015Y-16121008D01*
X4627015Y-16121008D02*
X4646063Y-16111484D01*
X4836539Y-16111484D02*
X4855586Y-16111484D01*
X4855586Y-16111484D02*
X4874634Y-16121008D01*
X4874634Y-16121008D02*
X4884158Y-16130531D01*
X4884158Y-16130531D02*
X4893682Y-16149579D01*
X4893682Y-16149579D02*
X4903205Y-16187674D01*
X4903205Y-16187674D02*
X4903205Y-16235293D01*
X4903205Y-16235293D02*
X4893682Y-16273388D01*
X4893682Y-16273388D02*
X4884158Y-16292436D01*
X4884158Y-16292436D02*
X4874634Y-16301960D01*
X4874634Y-16301960D02*
X4855586Y-16311484D01*
X4855586Y-16311484D02*
X4836539Y-16311484D01*
X4836539Y-16311484D02*
X4817491Y-16301960D01*
X4817491Y-16301960D02*
X4807967Y-16292436D01*
X4807967Y-16292436D02*
X4798444Y-16273388D01*
X4798444Y-16273388D02*
X4788920Y-16235293D01*
X4788920Y-16235293D02*
X4788920Y-16187674D01*
X4788920Y-16187674D02*
X4798444Y-16149579D01*
X4798444Y-16149579D02*
X4807967Y-16130531D01*
X4807967Y-16130531D02*
X4817491Y-16121008D01*
X4817491Y-16121008D02*
X4836539Y-16111484D01*
X4988920Y-16311484D02*
X4988920Y-16178150D01*
X4988920Y-16197198D02*
X4998444Y-16187674D01*
X4998444Y-16187674D02*
X5017491Y-16178150D01*
X5017491Y-16178150D02*
X5046063Y-16178150D01*
X5046063Y-16178150D02*
X5065110Y-16187674D01*
X5065110Y-16187674D02*
X5074634Y-16206722D01*
X5074634Y-16206722D02*
X5074634Y-16311484D01*
X5074634Y-16206722D02*
X5084158Y-16187674D01*
X5084158Y-16187674D02*
X5103205Y-16178150D01*
X5103205Y-16178150D02*
X5131777Y-16178150D01*
X5131777Y-16178150D02*
X5150825Y-16187674D01*
X5150825Y-16187674D02*
X5160348Y-16206722D01*
X5160348Y-16206722D02*
X5160348Y-16311484D01*
X5255586Y-16311484D02*
X5255586Y-16178150D01*
X5255586Y-16197198D02*
X5265110Y-16187674D01*
X5265110Y-16187674D02*
X5284158Y-16178150D01*
X5284158Y-16178150D02*
X5312729Y-16178150D01*
X5312729Y-16178150D02*
X5331777Y-16187674D01*
X5331777Y-16187674D02*
X5341301Y-16206722D01*
X5341301Y-16206722D02*
X5341301Y-16311484D01*
X5341301Y-16206722D02*
X5350825Y-16187674D01*
X5350825Y-16187674D02*
X5369872Y-16178150D01*
X5369872Y-16178150D02*
X5398444Y-16178150D01*
X5398444Y-16178150D02*
X5417491Y-16187674D01*
X5417491Y-16187674D02*
X5427015Y-16206722D01*
X5427015Y-16206722D02*
X5427015Y-16311484D01*
X5817491Y-16101960D02*
X5646063Y-16359103D01*
X6074634Y-16111484D02*
X6093682Y-16111484D01*
X6093682Y-16111484D02*
X6112729Y-16121008D01*
X6112729Y-16121008D02*
X6122253Y-16130531D01*
X6122253Y-16130531D02*
X6131777Y-16149579D01*
X6131777Y-16149579D02*
X6141301Y-16187674D01*
X6141301Y-16187674D02*
X6141301Y-16235293D01*
X6141301Y-16235293D02*
X6131777Y-16273388D01*
X6131777Y-16273388D02*
X6122253Y-16292436D01*
X6122253Y-16292436D02*
X6112729Y-16301960D01*
X6112729Y-16301960D02*
X6093682Y-16311484D01*
X6093682Y-16311484D02*
X6074634Y-16311484D01*
X6074634Y-16311484D02*
X6055586Y-16301960D01*
X6055586Y-16301960D02*
X6046063Y-16292436D01*
X6046063Y-16292436D02*
X6036539Y-16273388D01*
X6036539Y-16273388D02*
X6027015Y-16235293D01*
X6027015Y-16235293D02*
X6027015Y-16187674D01*
X6027015Y-16187674D02*
X6036539Y-16149579D01*
X6036539Y-16149579D02*
X6046063Y-16130531D01*
X6046063Y-16130531D02*
X6055586Y-16121008D01*
X6055586Y-16121008D02*
X6074634Y-16111484D01*
X6227015Y-16292436D02*
X6236539Y-16301960D01*
X6236539Y-16301960D02*
X6227015Y-16311484D01*
X6227015Y-16311484D02*
X6217491Y-16301960D01*
X6217491Y-16301960D02*
X6227015Y-16292436D01*
X6227015Y-16292436D02*
X6227015Y-16311484D01*
X6360348Y-16111484D02*
X6379396Y-16111484D01*
X6379396Y-16111484D02*
X6398444Y-16121008D01*
X6398444Y-16121008D02*
X6407967Y-16130531D01*
X6407967Y-16130531D02*
X6417491Y-16149579D01*
X6417491Y-16149579D02*
X6427015Y-16187674D01*
X6427015Y-16187674D02*
X6427015Y-16235293D01*
X6427015Y-16235293D02*
X6417491Y-16273388D01*
X6417491Y-16273388D02*
X6407967Y-16292436D01*
X6407967Y-16292436D02*
X6398444Y-16301960D01*
X6398444Y-16301960D02*
X6379396Y-16311484D01*
X6379396Y-16311484D02*
X6360348Y-16311484D01*
X6360348Y-16311484D02*
X6341301Y-16301960D01*
X6341301Y-16301960D02*
X6331777Y-16292436D01*
X6331777Y-16292436D02*
X6322253Y-16273388D01*
X6322253Y-16273388D02*
X6312729Y-16235293D01*
X6312729Y-16235293D02*
X6312729Y-16187674D01*
X6312729Y-16187674D02*
X6322253Y-16149579D01*
X6322253Y-16149579D02*
X6331777Y-16130531D01*
X6331777Y-16130531D02*
X6341301Y-16121008D01*
X6341301Y-16121008D02*
X6360348Y-16111484D01*
X6493682Y-16111484D02*
X6617491Y-16111484D01*
X6617491Y-16111484D02*
X6550825Y-16187674D01*
X6550825Y-16187674D02*
X6579396Y-16187674D01*
X6579396Y-16187674D02*
X6598444Y-16197198D01*
X6598444Y-16197198D02*
X6607967Y-16206722D01*
X6607967Y-16206722D02*
X6617491Y-16225769D01*
X6617491Y-16225769D02*
X6617491Y-16273388D01*
X6617491Y-16273388D02*
X6607967Y-16292436D01*
X6607967Y-16292436D02*
X6598444Y-16301960D01*
X6598444Y-16301960D02*
X6579396Y-16311484D01*
X6579396Y-16311484D02*
X6522253Y-16311484D01*
X6522253Y-16311484D02*
X6503206Y-16301960D01*
X6503206Y-16301960D02*
X6493682Y-16292436D01*
X6712729Y-16311484D02*
X6750825Y-16311484D01*
X6750825Y-16311484D02*
X6769872Y-16301960D01*
X6769872Y-16301960D02*
X6779396Y-16292436D01*
X6779396Y-16292436D02*
X6798444Y-16263865D01*
X6798444Y-16263865D02*
X6807967Y-16225769D01*
X6807967Y-16225769D02*
X6807967Y-16149579D01*
X6807967Y-16149579D02*
X6798444Y-16130531D01*
X6798444Y-16130531D02*
X6788920Y-16121008D01*
X6788920Y-16121008D02*
X6769872Y-16111484D01*
X6769872Y-16111484D02*
X6731777Y-16111484D01*
X6731777Y-16111484D02*
X6712729Y-16121008D01*
X6712729Y-16121008D02*
X6703206Y-16130531D01*
X6703206Y-16130531D02*
X6693682Y-16149579D01*
X6693682Y-16149579D02*
X6693682Y-16197198D01*
X6693682Y-16197198D02*
X6703206Y-16216246D01*
X6703206Y-16216246D02*
X6712729Y-16225769D01*
X6712729Y-16225769D02*
X6731777Y-16235293D01*
X6731777Y-16235293D02*
X6769872Y-16235293D01*
X6769872Y-16235293D02*
X6788920Y-16225769D01*
X6788920Y-16225769D02*
X6798444Y-16216246D01*
X6798444Y-16216246D02*
X6807967Y-16197198D01*
X6979396Y-16178150D02*
X6979396Y-16311484D01*
X6931777Y-16101960D02*
X6884158Y-16244817D01*
X6884158Y-16244817D02*
X7007967Y-16244817D01*
X7074634Y-16111484D02*
X7074634Y-16149579D01*
X7150825Y-16111484D02*
X7150825Y-16149579D01*
X7446063Y-16387674D02*
X7436539Y-16378150D01*
X7436539Y-16378150D02*
X7417491Y-16349579D01*
X7417491Y-16349579D02*
X7407968Y-16330531D01*
X7407968Y-16330531D02*
X7398444Y-16301960D01*
X7398444Y-16301960D02*
X7388920Y-16254341D01*
X7388920Y-16254341D02*
X7388920Y-16216246D01*
X7388920Y-16216246D02*
X7398444Y-16168627D01*
X7398444Y-16168627D02*
X7407968Y-16140055D01*
X7407968Y-16140055D02*
X7417491Y-16121008D01*
X7417491Y-16121008D02*
X7436539Y-16092436D01*
X7436539Y-16092436D02*
X7446063Y-16082912D01*
X7627015Y-16311484D02*
X7512729Y-16311484D01*
X7569872Y-16311484D02*
X7569872Y-16111484D01*
X7569872Y-16111484D02*
X7550825Y-16140055D01*
X7550825Y-16140055D02*
X7531777Y-16159103D01*
X7531777Y-16159103D02*
X7512729Y-16168627D01*
X7798444Y-16111484D02*
X7760348Y-16111484D01*
X7760348Y-16111484D02*
X7741301Y-16121008D01*
X7741301Y-16121008D02*
X7731777Y-16130531D01*
X7731777Y-16130531D02*
X7712729Y-16159103D01*
X7712729Y-16159103D02*
X7703206Y-16197198D01*
X7703206Y-16197198D02*
X7703206Y-16273388D01*
X7703206Y-16273388D02*
X7712729Y-16292436D01*
X7712729Y-16292436D02*
X7722253Y-16301960D01*
X7722253Y-16301960D02*
X7741301Y-16311484D01*
X7741301Y-16311484D02*
X7779396Y-16311484D01*
X7779396Y-16311484D02*
X7798444Y-16301960D01*
X7798444Y-16301960D02*
X7807968Y-16292436D01*
X7807968Y-16292436D02*
X7817491Y-16273388D01*
X7817491Y-16273388D02*
X7817491Y-16225769D01*
X7817491Y-16225769D02*
X7807968Y-16206722D01*
X7807968Y-16206722D02*
X7798444Y-16197198D01*
X7798444Y-16197198D02*
X7779396Y-16187674D01*
X7779396Y-16187674D02*
X7741301Y-16187674D01*
X7741301Y-16187674D02*
X7722253Y-16197198D01*
X7722253Y-16197198D02*
X7712729Y-16206722D01*
X7712729Y-16206722D02*
X7703206Y-16225769D01*
X7941301Y-16111484D02*
X7960349Y-16111484D01*
X7960349Y-16111484D02*
X7979396Y-16121008D01*
X7979396Y-16121008D02*
X7988920Y-16130531D01*
X7988920Y-16130531D02*
X7998444Y-16149579D01*
X7998444Y-16149579D02*
X8007968Y-16187674D01*
X8007968Y-16187674D02*
X8007968Y-16235293D01*
X8007968Y-16235293D02*
X7998444Y-16273388D01*
X7998444Y-16273388D02*
X7988920Y-16292436D01*
X7988920Y-16292436D02*
X7979396Y-16301960D01*
X7979396Y-16301960D02*
X7960349Y-16311484D01*
X7960349Y-16311484D02*
X7941301Y-16311484D01*
X7941301Y-16311484D02*
X7922253Y-16301960D01*
X7922253Y-16301960D02*
X7912729Y-16292436D01*
X7912729Y-16292436D02*
X7903206Y-16273388D01*
X7903206Y-16273388D02*
X7893682Y-16235293D01*
X7893682Y-16235293D02*
X7893682Y-16187674D01*
X7893682Y-16187674D02*
X7903206Y-16149579D01*
X7903206Y-16149579D02*
X7912729Y-16130531D01*
X7912729Y-16130531D02*
X7922253Y-16121008D01*
X7922253Y-16121008D02*
X7941301Y-16111484D01*
X8246063Y-16311484D02*
X8246063Y-16111484D01*
X8331777Y-16311484D02*
X8331777Y-16206722D01*
X8331777Y-16206722D02*
X8322253Y-16187674D01*
X8322253Y-16187674D02*
X8303206Y-16178150D01*
X8303206Y-16178150D02*
X8274634Y-16178150D01*
X8274634Y-16178150D02*
X8255587Y-16187674D01*
X8255587Y-16187674D02*
X8246063Y-16197198D01*
X8455587Y-16311484D02*
X8436539Y-16301960D01*
X8436539Y-16301960D02*
X8427015Y-16292436D01*
X8427015Y-16292436D02*
X8417492Y-16273388D01*
X8417492Y-16273388D02*
X8417492Y-16216246D01*
X8417492Y-16216246D02*
X8427015Y-16197198D01*
X8427015Y-16197198D02*
X8436539Y-16187674D01*
X8436539Y-16187674D02*
X8455587Y-16178150D01*
X8455587Y-16178150D02*
X8484158Y-16178150D01*
X8484158Y-16178150D02*
X8503206Y-16187674D01*
X8503206Y-16187674D02*
X8512730Y-16197198D01*
X8512730Y-16197198D02*
X8522253Y-16216246D01*
X8522253Y-16216246D02*
X8522253Y-16273388D01*
X8522253Y-16273388D02*
X8512730Y-16292436D01*
X8512730Y-16292436D02*
X8503206Y-16301960D01*
X8503206Y-16301960D02*
X8484158Y-16311484D01*
X8484158Y-16311484D02*
X8455587Y-16311484D01*
X8636539Y-16311484D02*
X8617492Y-16301960D01*
X8617492Y-16301960D02*
X8607968Y-16282912D01*
X8607968Y-16282912D02*
X8607968Y-16111484D01*
X8788920Y-16301960D02*
X8769873Y-16311484D01*
X8769873Y-16311484D02*
X8731777Y-16311484D01*
X8731777Y-16311484D02*
X8712730Y-16301960D01*
X8712730Y-16301960D02*
X8703206Y-16282912D01*
X8703206Y-16282912D02*
X8703206Y-16206722D01*
X8703206Y-16206722D02*
X8712730Y-16187674D01*
X8712730Y-16187674D02*
X8731777Y-16178150D01*
X8731777Y-16178150D02*
X8769873Y-16178150D01*
X8769873Y-16178150D02*
X8788920Y-16187674D01*
X8788920Y-16187674D02*
X8798444Y-16206722D01*
X8798444Y-16206722D02*
X8798444Y-16225769D01*
X8798444Y-16225769D02*
X8703206Y-16244817D01*
X8874634Y-16301960D02*
X8893682Y-16311484D01*
X8893682Y-16311484D02*
X8931777Y-16311484D01*
X8931777Y-16311484D02*
X8950825Y-16301960D01*
X8950825Y-16301960D02*
X8960349Y-16282912D01*
X8960349Y-16282912D02*
X8960349Y-16273388D01*
X8960349Y-16273388D02*
X8950825Y-16254341D01*
X8950825Y-16254341D02*
X8931777Y-16244817D01*
X8931777Y-16244817D02*
X8903206Y-16244817D01*
X8903206Y-16244817D02*
X8884158Y-16235293D01*
X8884158Y-16235293D02*
X8874634Y-16216246D01*
X8874634Y-16216246D02*
X8874634Y-16206722D01*
X8874634Y-16206722D02*
X8884158Y-16187674D01*
X8884158Y-16187674D02*
X8903206Y-16178150D01*
X8903206Y-16178150D02*
X8931777Y-16178150D01*
X8931777Y-16178150D02*
X8950825Y-16187674D01*
X9027015Y-16387674D02*
X9036539Y-16378150D01*
X9036539Y-16378150D02*
X9055587Y-16349579D01*
X9055587Y-16349579D02*
X9065111Y-16330531D01*
X9065111Y-16330531D02*
X9074634Y-16301960D01*
X9074634Y-16301960D02*
X9084158Y-16254341D01*
X9084158Y-16254341D02*
X9084158Y-16216246D01*
X9084158Y-16216246D02*
X9074634Y-16168627D01*
X9074634Y-16168627D02*
X9065111Y-16140055D01*
X9065111Y-16140055D02*
X9055587Y-16121008D01*
X9055587Y-16121008D02*
X9036539Y-16092436D01*
X9036539Y-16092436D02*
X9027015Y-16082912D01*
M02*
