M48
; DRILL file {KiCad 9.0.2+dfsg-1} date 2026-09-05T20:41:29+0200
; FORMAT={-:-/ absolute / metric / decimal}
; #@! TF.CreationDate,2026-09-05T20:41:29+02:00
; #@! TF.GenerationSoftware,Kicad,Pcbnew,9.0.2+dfsg-1
; #@! TF.FileFunction,Plated,1,2,PTH
FMAT,2
METRIC
; #@! TA.AperFunction,Plated,PTH,ViaDrill
T1C0.300
; #@! TA.AperFunction,Plated,PTH,ViaDrill
T2C0.800
; #@! TA.AperFunction,Plated,PTH,ComponentDrill
T3C1.000
%
G90
G05
T1
X63.502Y-75.565
X64.772Y-76.835
X66.043Y-78.105
X66.675Y-122.555
X67.312Y-79.375
X67.945Y-121.285
X68.582Y-80.645
X69.215Y-120.015
X69.852Y-81.915
X70.485Y-118.745
X71.123Y-83.185
X72.392Y-84.455
X73.662Y-85.844
X74.295Y-114.935
X74.784Y-87.025
X75.565Y-113.665
X76.203Y-88.265
X76.835Y-112.395
X77.472Y-89.535
X78.105Y-111.125
X78.742Y-90.805
X79.375Y-109.855
X80.013Y-92.075
X80.645Y-108.585
X81.282Y-93.439
X81.915Y-107.315
X82.552Y-94.615
X83.185Y-106.139
X83.822Y-95.885
X84.455Y-104.775
X85.093Y-97.155
X85.725Y-103.505
X86.362Y-98.425
X86.995Y-102.235
X87.632Y-99.695
X88.902Y-100.965
X89.537Y-99.695
X90.172Y-102.235
X90.807Y-98.425
X91.442Y-103.505
X92.078Y-97.155
X92.712Y-104.775
X93.347Y-95.979
X93.983Y-106.045
X94.617Y-94.615
X95.252Y-107.315
X95.887Y-93.226
X96.522Y-108.585
X97.157Y-92.075
X97.792Y-109.855
X98.427Y-90.805
X99.062Y-111.125
X99.697Y-89.535
X100.332Y-112.395
X100.968Y-88.384
X101.602Y-113.665
X102.237Y-86.995
X102.873Y-114.935
X103.507Y-85.844
X104.142Y-84.455
X106.682Y-83.185
X107.317Y-118.745
X107.953Y-81.915
X108.587Y-120.015
X109.222Y-80.645
X109.858Y-121.285
X110.492Y-79.375
X111.127Y-122.555
X111.762Y-78.105
X114.302Y-76.835
X115.572Y-75.565
T2
X64.135Y-125.095
X71.755Y-117.475
X105.412Y-117.475
X113.199Y-125.023
T3
X40.64Y-76.835
X40.64Y-79.375
X40.64Y-81.915
X40.64Y-84.455
X40.64Y-86.995
X40.64Y-89.535
X40.64Y-92.075
X40.64Y-94.615
X40.64Y-97.155
X40.64Y-99.695
X40.64Y-102.235
X40.64Y-104.775
X40.64Y-107.315
X40.64Y-109.855
X40.64Y-112.395
X40.64Y-114.935
X40.64Y-117.475
X40.64Y-120.015
X40.64Y-122.555
X40.64Y-125.095
X43.18Y-76.835
X43.18Y-79.375
X43.18Y-81.915
X43.18Y-84.455
X43.18Y-86.995
X43.18Y-89.535
X43.18Y-92.075
X43.18Y-94.615
X43.18Y-97.155
X43.18Y-99.695
X43.18Y-102.235
X43.18Y-104.775
X43.18Y-107.315
X43.18Y-109.855
X43.18Y-112.395
X43.18Y-114.935
X43.18Y-117.475
X43.18Y-120.015
X43.18Y-122.555
X43.18Y-125.095
X64.135Y-146.05
X64.135Y-148.59
X64.77Y-52.615
X64.77Y-55.155
X66.675Y-146.05
X66.675Y-148.59
X67.31Y-52.615
X67.31Y-55.155
X69.215Y-146.05
X69.215Y-148.59
X69.85Y-52.615
X69.85Y-55.155
X71.755Y-146.05
X71.755Y-148.59
X72.39Y-52.615
X72.39Y-55.155
X74.295Y-146.05
X74.295Y-148.59
X74.93Y-52.615
X74.93Y-55.155
X76.835Y-146.05
X76.835Y-148.59
X77.47Y-52.615
X77.47Y-55.155
X79.375Y-146.05
X79.375Y-148.59
X80.01Y-52.615
X80.01Y-55.155
X81.915Y-146.05
X81.915Y-148.59
X82.55Y-52.615
X82.55Y-55.155
X84.455Y-146.05
X84.455Y-148.59
X85.09Y-52.615
X85.09Y-55.155
X86.995Y-146.05
X86.995Y-148.59
X87.63Y-52.615
X87.63Y-55.155
X89.535Y-146.05
X89.535Y-148.59
X90.17Y-52.615
X90.17Y-55.155
X92.075Y-146.05
X92.075Y-148.59
X92.71Y-52.615
X92.71Y-55.155
X94.615Y-146.05
X94.615Y-148.59
X95.25Y-52.615
X95.25Y-55.155
X97.155Y-146.05
X97.155Y-148.59
X97.79Y-52.615
X97.79Y-55.155
X99.695Y-146.05
X99.695Y-148.59
X100.33Y-52.615
X100.33Y-55.155
X102.235Y-146.05
X102.235Y-148.59
X102.87Y-52.615
X102.87Y-55.155
X104.775Y-146.05
X104.775Y-148.59
X105.41Y-52.615
X105.41Y-55.155
X107.315Y-146.05
X107.315Y-148.59
X107.95Y-52.615
X107.95Y-55.155
X109.855Y-146.05
X109.855Y-148.59
X110.49Y-52.615
X110.49Y-55.155
X112.395Y-146.05
X112.395Y-148.59
X113.03Y-52.615
X113.03Y-55.155
X133.985Y-76.835
X133.985Y-79.375
X133.985Y-81.915
X133.985Y-84.455
X133.985Y-86.995
X133.985Y-89.535
X133.985Y-92.075
X133.985Y-94.615
X133.985Y-97.155
X133.985Y-99.695
X133.985Y-102.235
X133.985Y-104.775
X133.985Y-107.315
X133.985Y-109.855
X133.985Y-112.395
X133.985Y-114.935
X133.985Y-117.475
X133.985Y-120.015
X133.985Y-122.555
X133.985Y-125.095
X136.525Y-76.835
X136.525Y-79.375
X136.525Y-81.915
X136.525Y-84.455
X136.525Y-86.995
X136.525Y-89.535
X136.525Y-92.075
X136.525Y-94.615
X136.525Y-97.155
X136.525Y-99.695
X136.525Y-102.235
X136.525Y-104.775
X136.525Y-107.315
X136.525Y-109.855
X136.525Y-112.395
X136.525Y-114.935
X136.525Y-117.475
X136.525Y-120.015
X136.525Y-122.555
X136.525Y-125.095
M30
